<?xml version="1.0" standalone="no"?>
<!DOCTYPE svg PUBLIC "-//W3C//DTD SVG 20010904//EN"
 "http://www.w3.org/TR/2001/REC-SVG-20010904/DTD/svg10.dtd">
<svg version="1.0" xmlns="http://www.w3.org/2000/svg"
 width="247.000000pt" height="118.000000pt" viewBox="0 0 247.000000 118.000000"
 preserveAspectRatio="xMidYMid meet">

<g transform="translate(0.000000,118.000000) scale(0.100000,-0.100000)"
fill="#000000" stroke="none">
<path d="M0 590 l0 -590 1235 0 1235 0 0 590 0 590 -1235 0 -1235 0 0 -590z
m730 291 c0 -13 -51 -133 -63 -148 -14 -20 -27 -5 -18 20 28 72 61 137 70 137
6 0 11 -4 11 -9z m1068 -68 c21 -50 29 -80 22 -87 -6 -6 -19 13 -38 55 -41 92
-46 109 -30 109 8 0 28 -34 46 -77z m-837 -49 c-12 -82 -14 -89 -29 -80 -5 3
-5 31 0 68 13 97 18 112 29 101 7 -7 7 -36 0 -89z m574 6 c7 -48 8 -83 3 -86
-5 -3 -11 -4 -14 -2 -8 9 -25 158 -19 169 12 18 18 1 30 -81z m-295 -16 c0
-64 -3 -85 -12 -82 -13 5 -24 138 -14 165 14 35 26 -5 26 -83z"/>
</g>
</svg>
