<?xml version="1.0" encoding="utf-8"?>
<!-- Generator: Adobe Illustrator 21.0.0, SVG Export Plug-In . SVG Version: 6.00 Build 0)  -->
<svg version="1.1" id="레이어_1" xmlns="http://www.w3.org/2000/svg" xmlns:xlink="http://www.w3.org/1999/xlink" x="0px"
	 y="0px" viewBox="0 0 247 118" style="enable-background:new 0 0 247 118;" xml:space="preserve">
<style type="text/css">
	.st0{fill:#FFFFFF;stroke:#FFFFFF;stroke-miterlimit:10;}
</style>
<path class="st0" d="M53.1,86.3L49.2,84l3.9-2.3c0.9-0.5,1.2-1.6,0.7-2.5h0c-0.5-0.9-1.6-1.2-2.5-0.7l-3.9,2.3v-4.5
	c0-1-0.8-1.8-1.8-1.8s-1.8,0.8-1.8,1.8v4.5l-3.9-2.3c-0.9-0.5-2-0.2-2.5,0.7h0c-0.5,0.9-0.2,2,0.7,2.5l3.9,2.3l-3.9,2.3
	c-0.9,0.5-1.2,1.6-0.7,2.5h0c0.5,0.9,1.6,1.2,2.5,0.7l3.9-2.3v4.5c0,1,0.8,1.8,1.8,1.8s1.8-0.8,1.8-1.8v-4.5l3.9,2.3
	c0.9,0.5,2,0.2,2.5-0.7h0C54.3,87.9,54,86.8,53.1,86.3z"/>
<path class="st0" d="M207.2,93.9l-1.8-1.5l2.2-0.8c0.5-0.2,0.8-0.7,0.6-1.2h0c-0.2-0.5-0.7-0.8-1.2-0.6l-2.2,0.8l0.4-2.3
	c0.1-0.5-0.3-1-0.8-1.1c-0.5-0.1-1,0.3-1.1,0.8l-0.4,2.3l-1.8-1.5c-0.4-0.3-1-0.3-1.4,0.1h0c-0.3,0.4-0.3,1,0.1,1.4l1.8,1.5
	l-2.2,0.8c-0.5,0.2-0.8,0.7-0.6,1.2h0c0.2,0.5,0.7,0.8,1.2,0.6l2.2-0.8l-0.4,2.3c-0.1,0.5,0.3,1,0.8,1.1c0.5,0.1,1-0.3,1.1-0.8
	l0.4-2.3l1.8,1.5c0.4,0.3,1,0.3,1.4-0.1h0C207.7,94.8,207.6,94.2,207.2,93.9z"/>
<g>
	<path class="st0" d="M70.6,96.9c0.5-0.1,0.9-0.3,1.3-0.6c0.4-0.3,0.7-0.6,0.8-0.9c0.2-0.4,0.2-0.8,0.1-1.2
		c-0.1-0.4-0.3-0.6-0.6-0.7c-0.3-0.1-0.6-0.2-1-0.3c-0.3-0.1-0.7-0.1-1-0.2c-0.4-0.1-0.6-0.2-0.8-0.4c-0.3-0.3-0.5-0.7-0.6-1.1
		c-0.1-0.4-0.3-0.9-0.5-1.3c0.2,0,0.4-0.1,0.5-0.1c0.1,0,0.2,0,0.3,0c0.1,0,0.1,0,0.2,0s0.2,0,0.4,0c0.4,0,0.6,0,0.8-0.1
		c0.2,0,0.3,0,0.5-0.1c0.1,0,0.3,0,0.5,0c0.2,0,0.5,0,0.8,0c0.1,0,0.2,0,0.3,0c0.1,0,0.2,0,0.3,0c0,0,0,0,0,0c0-0.1,0-0.2,0-0.2
		c0-0.4,0-0.9,0.1-1.4c0-0.1,0-0.1,0.1-0.2c-0.1,0-0.2-0.1-0.3-0.1c-0.4,0-0.6-0.1-0.8-0.1c-0.1,0-0.3-0.1-0.4-0.1
		c-0.1,0-0.3,0-0.4,0c-0.2,0-0.4,0-0.8,0c-0.3,0-0.5,0-0.6,0S69.2,88,69,88c-0.1,0-0.3,0-0.5,0.1c-0.2,0-0.4,0.1-0.6,0.1
		c-0.2-0.4-0.5-0.9-0.7-1.3c-0.2-0.4-0.5-0.9-0.8-1.4c0.4,0,0.7,0,1,0c0.3,0,0.6,0,0.9,0c0.9-0.1,1.8-0.3,2.7-0.5
		c0.9-0.2,1.8-0.3,2.7-0.5c0.1,0,0.3-0.2,0.4-0.4c0.1-0.2,0.2-0.4,0.2-0.6c0-0.4-0.1-0.7-0.4-0.9c-0.3-0.2-0.6-0.3-1-0.4
		c-1.7-0.5-3.3-0.7-5-0.8c-1.7-0.1-3.3-0.1-5,0.1c-0.2,0-0.4,0.1-0.6,0.2c-0.2,0.1-0.4,0.3-0.5,0.5c-0.1,0.2-0.2,0.4-0.3,0.7
		c-0.1,0.2,0,0.5,0,0.7c0.2,0.5,0.4,1.1,0.6,1.6c0.2,0.5,0.4,1.1,0.7,1.6c0.3,0.7,0.6,1.3,0.9,1.9c0.3,0.6,0.6,1.3,0.7,1.9
		c0.2,1,0.5,1.8,0.9,2.7c0.4,0.8,0.8,1.7,1.3,2.4c0.2,0.4,0.6,0.7,1,0.9c0.4,0.2,0.9,0.4,1.4,0.4C69.6,97,70.1,97,70.6,96.9z"/>
	<path class="st0" d="M82.7,86.2c-0.1-0.6-0.3-1.2-0.4-1.8c0-0.2-0.2-0.4-0.3-0.5c-0.2-0.2-0.4-0.3-0.6-0.4c-0.1,0-0.2,0-0.4,0.2
		c-0.2,0.2-0.3,0.3-0.5,0.4c-0.3,0.2-0.5,0.4-0.7,0.6c-0.2,0.2-0.5,0.4-0.7,0.5c-0.3,0.1-0.7,0.3-1.1,0.4c-0.4,0.1-0.7,0.2-1.1,0.3
		c-0.4,0.1-0.7,0.2-1.1,0.2c-0.4,0-0.7,0.1-1,0.2c-0.3,0.1-0.6,0.2-0.9,0.3c-0.3,0.1-0.5,0.4-0.7,0.7c-0.2,0.3-0.3,0.7-0.4,1.1
		c0.1,0,0.1,0.1,0.2,0.1c0.1,0.1,0.2,0.2,0.2,0.3c0,0.1,0,0.3,0,0.4s-0.1,0.3-0.1,0.5c0,0.2-0.1,0.3-0.2,0.3
		C72.9,90,72.8,90,72.7,90c0,0.3,0.1,0.5,0.3,0.8c0.2,0.4,0.4,0.7,0.7,0.8c0.7,0.4,1.4,0.6,2.1,0.6c0.7,0,1.3-0.4,1.9-1
		c0.2-0.2,0.5-0.5,0.7-0.6c0.2-0.2,0.4-0.4,0.7-0.5c0.2-0.2,0.4-0.3,0.6-0.5c0.2-0.2,0.4-0.4,0.7-0.7c0,0.1,0,0.2-0.1,0.4
		c0,0.1,0,0.3-0.1,0.4c-0.1,1.2-0.1,2.4-0.2,3.6C80.1,94.5,80,95.7,80,97c0,0.2,0.1,0.3,0.3,0.5c0.2,0.2,0.3,0.3,0.4,0.5
		c0.1-0.1,0.3-0.2,0.4-0.3c0.1-0.1,0.3-0.2,0.3-0.3c0.3-0.4,0.5-0.9,0.6-1.4c0.7-2.6,0.9-5.3,0.8-7.9C82.9,87.5,82.8,86.8,82.7,86.2
		z"/>
	<path class="st0" d="M72.6,89.8c0,0.1,0,0.2,0,0.2c0.1,0,0.2,0,0.2-0.1c0.1-0.1,0.1-0.2,0.2-0.3c0-0.2,0-0.3,0.1-0.5s0-0.3,0-0.4
		c0-0.1-0.1-0.2-0.2-0.3c0,0-0.1-0.1-0.2-0.1c0,0.1,0,0.1-0.1,0.2C72.6,88.9,72.6,89.4,72.6,89.8z"/>
	<path class="st0" d="M80.8,103.2v-1.4c0-0.7-0.1-1.2-0.4-1.6c-0.2-0.3-0.7-0.5-1.4-0.6c-0.2,0-0.3-0.1-0.5-0.1
		c-0.2-0.1-0.3-0.1-0.5-0.1c-0.8-0.1-1.6-0.1-2.3-0.2C74.9,99,74.1,99,73.3,99c-0.5,0-0.9,0.2-1,0.5s-0.1,0.7,0.2,1.1
		c0.4,0.7,0.7,1.4,0.9,2.1c0.2,0.7,0.2,1.5,0.3,2.2c0,0.3,0.1,0.6,0.2,0.8c0.2,0.2,0.4,0.4,0.9,0.4c0.2-0.8,0.3-1.7,0.2-2.5
		c-0.1-0.8-0.2-1.7-0.4-2.5c0.7-0.1,1.4-0.1,2.1-0.2c0.7,0,1.3-0.1,2-0.2c0.3,0,0.5,0,0.7,0c0.2,0,0.3,0,0.4,0.1
		c0.1,0.1,0.1,0.2,0.2,0.4c0,0.2,0,0.4,0,0.7c0,0.2,0,0.4,0,0.7s0,0.4-0.1,0.6c0,0.2-0.1,0.4-0.3,0.6s-0.3,0.3-0.5,0.5
		c-0.5,0.3-1,0.5-1.5,0.8c-0.5,0.3-1,0.5-1.5,0.8c0,0.1,0,0.2,0.1,0.3s0,0.2,0.1,0.4c0.2,0,0.4-0.1,0.5-0.1s0.3-0.1,0.5-0.1
		c0.7-0.3,1.3-0.7,1.9-1c0.6-0.3,1.3-0.7,1.9-1.1C81.7,104,81.6,103.5,80.8,103.2z"/>
	<path class="st0" d="M87.9,83.5c0-0.4,0-0.7-0.1-1.1c0-0.4-0.1-0.9-0.2-1.3c-0.1-0.4-0.2-0.8-0.4-1.2c-0.1-0.3-0.3-0.4-0.5-0.6
		c-0.3-0.1-0.5-0.1-0.9,0.1c-0.3,0.1-0.5,0.4-0.6,0.8c-0.2,0.4-0.3,0.8-0.3,1.2s-0.1,0.8,0,1.2c0.1,0.4,0.2,0.7,0.4,0.9
		c0.1,0.1,0.2,0.2,0.3,0.4c0.1,0.2,0.1,0.3,0.1,0.5c0.1,0.9,0.1,1.7,0.1,2.6s0,1.7,0.1,2.6c0,0.2,0,0.4,0,0.6c0,0.2,0,0.4-0.1,0.6
		c-0.1,0.3-0.1,0.6-0.1,0.9c0,0.3,0.2,0.5,0.6,0.6c0.2,0.1,0.3,0.1,0.5,0c0.1-0.1,0.2-0.2,0.3-0.3c0.1-0.1,0.1-0.3,0.1-0.4
		c0-0.1,0.1-0.3,0.1-0.4c0.1-1.1,0.3-2.2,0.4-3.3c0.1-1.1,0.2-2.2,0.4-3.3c0,0-0.1,0-0.2,0C87.8,84.2,87.8,83.8,87.9,83.5z"/>
	<path class="st0" d="M99.7,103.9c1-0.1,1.9-0.1,2.7-0.2c0.9-0.1,1.7-0.1,2.6-0.1c0.7,0,1.2-0.1,1.5-0.3c0.4-0.2,0.6-0.6,0.6-1.1
		c0.1-0.4,0-0.8-0.1-1.2c-0.1-0.4-0.4-0.9-0.6-1.3c-0.3-0.4-0.6-0.8-0.9-1.1c-0.3-0.3-0.7-0.5-1-0.6c-0.5-0.1-1.1-0.2-1.7-0.2
		c-0.6,0-1.1,0-1.7,0c-0.5,0.1-1,0.2-1.5,0.4c-0.5,0.2-1,0.4-1.4,0.6c-0.3,0.1-0.4,0.4-0.5,0.6c0,0.3,0,0.5,0.2,0.8
		c0.1,0.3,0.3,0.4,0.5,0.4c0.2,0,0.4-0.1,0.7-0.1c0.3-0.1,0.7-0.2,1-0.2s0.7-0.1,1-0.1c0.4,0,0.8,0,1.3,0c0.4,0,0.8,0,1.2,0.1
		c0.2,0,0.4,0.1,0.7,0.2c0.2,0.1,0.4,0.2,0.6,0.3c0.1,0.1,0.2,0.2,0.2,0.4c0,0.2,0.1,0.3,0.2,0.5c-0.1,0-0.3,0.1-0.4,0.1
		c-0.1,0-0.3,0-0.4,0c-0.9,0-1.8,0.1-2.6,0.1c-0.9,0-1.7,0.2-2.6,0.6c-0.5,0.2-0.7,0.5-0.7,1c0,0.1,0.1,0.3,0.1,0.4
		c0.3,0,0.5,0,0.8,0C99.7,104,99.7,103.9,99.7,103.9z"/>
	<path class="st0" d="M93.2,82.7c0.2,0.2,0.4,0.2,0.6,0.2c0.2-0.1,0.4-0.2,0.5-0.4c0.1-0.1,0.2-0.1,0.3-0.1c0.1,0,0.3,0,0.4,0
		c1.5,0,3.1,0,4.6,0c1.5,0,3.1,0,4.7,0c-0.1,0.4-0.3,0.9-0.4,1.3c-0.2,0.4-0.3,0.9-0.3,1.3c0,0.4,0,0.9,0.1,1.3
		c0.1,0.4,0.4,0.8,0.8,1.2c-0.6,0.1-1.1,0.2-1.6,0.3c-0.5,0.1-1,0.2-1.5,0.3c-0.1-0.3-0.1-0.7-0.1-1c0-0.3-0.1-0.6-0.2-0.9
		c-0.3-0.7-0.6-1.3-1.1-1.9s-1.1-1.1-2-1.4c-0.3-0.1-0.5-0.2-0.9-0.2s-0.5,0-0.7,0.3c-0.1,0.2-0.2,0.4-0.1,0.6
		c0.1,0.2,0.1,0.4,0.2,0.6c0.1,0.2,0.2,0.4,0.4,0.6c0.2,0.2,0.3,0.4,0.4,0.6c0.2,0.6,0.4,1.2,0.7,1.7c0.3,0.5,0.8,1,1.5,1.5
		c-0.9,0.1-1.8,0.3-2.7,0.4c-0.9,0.1-1.8,0.2-2.7,0.3c-0.4,0-0.6,0.1-0.8,0.2s-0.2,0.3-0.1,0.5c0.1,0.2,0.2,0.4,0.5,0.5
		c0.2,0.2,0.4,0.3,0.7,0.3c0.6,0.1,1.3,0.2,1.9,0.3c0.7,0.1,1.3,0.1,1.9,0.1c1.1-0.1,2.1-0.2,3.1-0.4c1-0.2,2-0.4,3.1-0.6
		c0.9-0.2,1.8-0.4,2.7-0.7c0.9-0.3,1.6-0.6,2.3-1.1c0.2-0.1,0.3-0.4,0.5-0.6c0.1-0.3,0.1-0.5,0.1-0.7c-0.1-0.2-0.3-0.3-0.6-0.4
		c-0.3-0.1-0.7-0.1-1.1,0.1c-0.1,0.1-0.3,0.1-0.4,0.1c-0.1,0-0.3,0-0.4,0c0.2-0.7,0.4-1.5,0.6-2.2s0.4-1.5,0.6-2.2
		c0-0.1,0.1-0.2,0.3-0.3c0.1-0.1,0.3-0.2,0.5-0.2c0.4-0.1,0.6-0.2,0.8-0.4c0.2-0.1,0.3-0.3,0.4-0.6c0.1-0.6-0.2-1-1-1.1
		c-0.4-0.1-0.8-0.1-1.1-0.2c-0.4-0.1-0.7-0.1-1.1-0.1c-1.3,0-2.5,0.1-3.7,0.1c-1.2,0-2.5,0.1-3.7,0.2c-1,0.1-2,0.2-3,0.4
		c-1,0.2-2,0.3-2.9,0.5c-0.2,0-0.4,0.1-0.6,0.2c-0.2,0.1-0.4,0.2-0.5,0.3c-0.3,0.2-0.4,0.4-0.3,0.6C92.8,82.3,92.9,82.5,93.2,82.7z"
		/>
	<path class="st0" d="M114.6,93.6c0.1-0.3,0.2-0.5,0.1-0.6c-0.1-0.1-0.2-0.3-0.4-0.5c-0.3-0.3-0.6-0.5-0.9-0.6
		c-0.3-0.1-0.7-0.2-1.1-0.2c-0.4,0-0.7,0.1-1.1,0.2c-0.4,0.1-0.7,0.1-1.1,0.1c-2.3,0.1-4.5,0.2-6.8,0.3c-2.3,0.1-4.5,0.2-6.8,0.4
		c-1.1,0.1-2.2,0.3-3.3,0.5c-1.1,0.3-2.1,0.7-3.1,1.2c-0.3,0.1-0.5,0.3-0.7,0.5c-0.2,0.2-0.3,0.5-0.3,0.9c0,0.2,0.1,0.4,0.2,0.5
		c0.1,0.1,0.3,0.1,0.5-0.1c0.4-0.4,0.8-0.6,1.2-0.7c0.4-0.1,0.9-0.2,1.4-0.2c1.4,0,2.8,0,4.2,0c1.4,0,2.6,0.1,3.7,0.1
		c1.1,0.1,2,0.1,2.7,0.2c0.7,0.1,1.1,0.1,1.2,0.1c1.2,0.1,2.4,0.1,3.7,0.2s2.4,0.1,3.6,0.2c0.3,0,0.6,0,0.9,0s0.6-0.1,0.9-0.2
		c0.3-0.1,0.5-0.3,0.7-0.5c0.2-0.2,0.4-0.5,0.5-0.9c0.1-0.1,0.1-0.3,0-0.4C114.5,93.9,114.5,93.8,114.6,93.6z"/>
	<path class="st0" d="M100.3,105.4c0.2,0.7,0.5,1.2,1,1.6s1,0.5,1.7,0.6c0.3,0,0.6,0,0.8-0.1c0.3-0.1,0.5-0.2,0.7-0.4
		c0.2-0.1,0.4-0.3,0.6-0.5c0.2-0.2,0.4-0.3,0.6-0.5c0.1,0,0.1-0.1,0.1-0.2c0-0.1,0-0.3,0-0.5c-0.3,0.2-0.5,0.4-0.7,0.6
		c-0.2,0.2-0.5,0.4-0.7,0.5c-0.2,0.1-0.5,0.2-0.8,0.3c-0.3,0.1-0.6,0-0.9,0c-0.4-0.1-0.7-0.2-0.9-0.4c-0.2-0.2-0.4-0.4-0.5-0.7
		c-0.1-0.3-0.2-0.6-0.3-0.9c-0.1-0.3-0.2-0.6-0.3-0.8c-0.3,0-0.6,0-0.8,0c0,0.2,0.1,0.3,0.1,0.5
		C100.1,104.8,100.2,105.1,100.3,105.4z"/>
	<path class="st0" d="M139.8,100.2c-2,0-4,0-5.9,0c-2,0-3.9,0-5.9,0c-1.7,0-3.5,0-5.2-0.1s-3.4-0.1-5.2-0.2c-0.3,0-0.6-0.1-0.9-0.3
		c-0.3-0.2-0.6-0.3-0.9-0.5c-0.1-0.1-0.1-0.2-0.2-0.3c0-0.2,0-0.3-0.1-0.4c0.1,0,0.3,0,0.4,0c0.1,0,0.2,0,0.4,0
		c0.4,0,0.7,0.1,1.1,0.2c0.4,0.1,0.7,0.1,1.1,0.1c1.2-0.1,2.4-0.2,3.5-0.4c1.2-0.1,2.4-0.3,3.5-0.4c1.7-0.2,3.4-0.4,5.1-0.6
		c1.7-0.2,3.4-0.4,5.1-0.6c0.5-0.1,1-0.1,1.5-0.2c0.5-0.1,1-0.1,1.5-0.2c0.5-0.1,0.9-0.1,1.3,0c0.4,0,0.8,0.2,1.2,0.5
		c0.3,0.2,0.5,0.5,0.7,0.8c0.1,0.3,0.2,0.7,0.2,1.1c0,0.4-0.1,0.7-0.3,1c-0.2,0.3-0.4,0.6-0.7,0.8c-0.2,0.1-0.4,0.1-0.6,0.2
		c-0.2,0-0.4,0-0.7,0.1V100.2z M128.9,86.4c-0.3,0.9-0.8,1.8-1.3,2.6c-0.6,0.8-1.2,1.6-2,2.4c-0.8,0.7-1.6,1.5-2.5,2.1
		c-0.9,0.7-1.9,1.3-3,1.9c-0.7-0.3-1.1-0.6-1.1-0.9c0-0.3,0.1-0.7,0.5-1.2c0.5-0.7,1.1-1.4,1.8-2.1c0.7-0.7,1.3-1.4,2-2.1
		c0.7-0.7,1.4-1.4,2-2.1c0.7-0.7,1.3-1.4,1.8-2.1c0.1-0.2,0.2-0.3,0.3-0.5c0.1-0.1,0.1-0.3,0.1-0.4c0-0.1-0.1-0.3-0.3-0.4
		s-0.4-0.3-0.8-0.4c-0.4-0.1-0.8-0.4-0.9-0.9c-0.2-0.4-0.2-0.9-0.2-1.3s0.2-0.9,0.5-1.3c0.3-0.4,0.6-0.7,1.1-0.9
		c0.4-0.2,0.9-0.2,1.3-0.2c0.4,0,0.8,0.1,1.1,0.2c0.3,0.1,0.6,0.3,0.8,0.5c0.2,0.2,0.4,0.4,0.6,0.6c0.7,1,1.5,1.9,2.3,2.9
		c0.8,1,1.5,2,2.1,3c0.6,1,1.1,2,1.6,3.1s0.6,2.1,0.7,3.2c0,0.2,0,0.4-0.1,0.7c0,0.3-0.1,0.5-0.3,0.8c-0.1,0.3-0.3,0.5-0.5,0.7
		c-0.2,0.2-0.4,0.3-0.7,0.4c-0.3,0-0.6,0-0.8-0.2c-0.3-0.1-0.5-0.3-0.7-0.6s-0.4-0.5-0.6-0.8c-0.2-0.3-0.3-0.5-0.4-0.7
		c-0.3-0.4-0.6-0.9-1-1.4c-0.4-0.5-0.7-0.9-1.1-1.4c-0.4-0.5-0.8-1-1.1-1.5C129.5,87.5,129.2,87,128.9,86.4z"/>
	<path class="st0" d="M148.2,86.3c0.3,0.5,0.5,1,0.8,1.4c0.2,0.4,0.5,0.9,0.7,1.3c0.3-0.1,0.5-0.1,0.6-0.1c0.2,0,0.3-0.1,0.5-0.1
		s0.3,0,0.5-0.1s0.4,0,0.6,0c0.4,0,0.6,0,0.8,0c0.2,0,0.3,0,0.4,0c0.1,0,0.3,0,0.4,0.1c0.1,0,0.4,0.1,0.8,0.1c0.2,0,0.4,0.1,0.5,0.2
		c0.1,0.1,0.2,0.2,0.2,0.3c0,0.1,0,0.3,0,0.4c0,0.2-0.1,0.3-0.1,0.5c0,0.2-0.1,0.3-0.2,0.3c-0.1,0.1-0.2,0.1-0.3,0.1s-0.2,0-0.3,0
		c-0.1,0-0.2,0-0.3,0c-0.4,0-0.6,0-0.8,0c-0.2,0-0.3,0-0.5,0s-0.3,0-0.5,0.1c-0.2,0-0.5,0-0.8,0.1c-0.2,0-0.3,0-0.4,0s-0.2,0-0.2,0
		c-0.1,0-0.1,0-0.3,0c-0.1,0-0.3,0-0.5,0.1c0.2,0.4,0.4,0.9,0.5,1.3c0.1,0.4,0.3,0.8,0.6,1.1c0.2,0.2,0.5,0.3,0.8,0.4
		c0.4,0.1,0.7,0.1,1,0.2c0.3,0.1,0.7,0.2,1,0.3c0.3,0.1,0.5,0.3,0.6,0.7c0.1,0.5,0.1,0.9-0.1,1.2s-0.5,0.7-0.8,0.9
		c-0.4,0.3-0.8,0.5-1.3,0.6c-0.5,0.1-1,0.1-1.5,0.1c-0.5-0.1-1-0.2-1.4-0.4c-0.4-0.2-0.8-0.5-1-0.9c-0.5-0.8-1-1.6-1.3-2.4
		c-0.4-0.8-0.7-1.7-0.9-2.7c-0.1-0.7-0.4-1.3-0.7-1.9c-0.3-0.6-0.6-1.3-0.9-1.9c-0.2-0.5-0.4-1.1-0.7-1.6c-0.2-0.5-0.4-1.1-0.6-1.6
		c-0.1-0.2-0.1-0.4,0-0.7c0.1-0.2,0.1-0.5,0.3-0.7c0.1-0.2,0.3-0.4,0.5-0.5c0.2-0.1,0.4-0.2,0.6-0.2c1.7-0.1,3.4-0.1,5-0.1
		c1.7,0.1,3.3,0.4,5,0.8c0.4,0.1,0.7,0.2,1,0.4c0.3,0.2,0.4,0.5,0.4,0.9c0,0.2-0.1,0.4-0.2,0.6c-0.1,0.2-0.3,0.4-0.4,0.4
		c-0.9,0.2-1.8,0.4-2.7,0.5c-0.9,0.2-1.8,0.3-2.7,0.5c-0.3,0-0.6,0-0.9,0S148.5,86.3,148.2,86.3z M162.2,87.3
		c-0.1,0.5-0.2,0.9-0.3,1.1c-0.1,0.3-0.2,0.5-0.3,0.8c-0.1,0.2-0.3,0.4-0.5,0.7c-0.2,0.2-0.5,0.5-0.8,0.9c-0.4,0.4-0.8,0.8-1.2,1
		c-0.4,0.2-0.9,0.5-1.4,0.8c-0.3,0.2-0.6,0.3-1,0.3c-0.3,0-0.7,0-1-0.2c-0.3-0.1-0.6-0.3-0.9-0.6c-0.3-0.2-0.5-0.5-0.6-0.8
		c-0.2-0.4-0.3-0.7-0.3-0.9c-0.1-0.2-0.1-0.4,0-0.5s0.2-0.3,0.4-0.4s0.5-0.3,0.9-0.6c0.3-0.2,0.6-0.4,0.9-0.5c0.3-0.1,0.6-0.2,1-0.3
		s0.7-0.2,1-0.3s0.7-0.2,1-0.4c0.3-0.1,0.5-0.2,0.8-0.2c0.2,0,0.4-0.1,0.6-0.1c0.2,0,0.3-0.1,0.5-0.2c0.1-0.1,0.3-0.3,0.4-0.6
		c0.4-0.8,0.7-1.6,1.1-2.4s0.6-1.7,0.7-2.6c0.1-0.5,0.3-0.9,0.7-1c0.4-0.1,0.8,0,1.2,0.4c0.2,0.2,0.4,0.5,0.5,0.7
		c0.1,0.3,0.2,0.5,0.3,0.8c0,0.3,0.1,0.5,0.1,0.8c0,0.3,0,0.6,0,0.8c-0.1,1.4-0.2,2.7-0.3,4.1c-0.1,1.3-0.2,2.7-0.4,4
		c-0.1,1.3-0.3,2.6-0.5,3.8c-0.2,1.3-0.4,2.5-0.5,3.8c-0.1,0.6-0.1,1.2-0.2,1.9c0,0.6-0.1,1.3-0.2,1.9c0,0.3-0.1,0.6-0.2,1
		c-0.1,0.3-0.2,0.6-0.3,1c-0.4-0.1-0.6-0.2-0.7-0.3c-0.1-0.1-0.2-0.4-0.2-0.7c0-0.7,0-1.3,0-2c-0.1-0.7-0.1-1.3-0.1-2
		c0-2.1,0-4.2,0.1-6.3c0-2.1,0.1-4.2,0.1-6.3C162.3,87.5,162.3,87.4,162.2,87.3z M171.2,88.6c0,1.4-0.1,2.7-0.5,4s-0.8,2.7-1.3,4
		c-0.1,0.1-0.1,0.3-0.2,0.4c-0.1,0.1-0.2,0.2-0.2,0.3c-0.1,0.1-0.1,0.2-0.2,0.3c-0.1,0.1-0.2,0.2-0.2,0.3c-0.1,0.1-0.2,0.1-0.3,0.1
		s-0.2-0.1-0.4-0.2c-0.2-0.1-0.3-0.4-0.4-0.6c-0.1-0.3-0.2-0.5-0.2-0.7c0.1-0.7,0.2-1.3,0.3-1.9c0.1-0.6,0.3-1.3,0.4-1.9
		c0.1-1,0.2-2,0.3-3c0.1-1,0.1-2,0.2-3c0-0.2,0-0.5,0.1-0.7c0-0.3,0-0.5,0-0.8s0-0.5-0.1-0.8c0-0.3-0.1-0.5-0.3-0.7
		c-0.1-0.1-0.1-0.3-0.1-0.5c0-0.2,0.1-0.4,0.1-0.5c0.1-0.2,0.2-0.3,0.3-0.5c0.1-0.1,0.2-0.2,0.4-0.3c0.4-0.1,0.7-0.1,0.9,0.1
		c0.3,0.2,0.4,0.4,0.5,0.7c0.2,0.6,0.4,1.2,0.5,1.8c0.1,0.6,0.3,1.2,0.4,1.8c0.1,0.3,0.1,0.7,0.1,1
		C171.1,87.8,171.1,88.2,171.2,88.6z"/>
	<path class="st0" d="M190.1,92.2c-0.3,2-0.5,3.9-0.5,5.9c0,2,0,3.9,0.2,5.9c0,0.4,0.1,0.8,0.3,1.2c0.1,0.1,0.1,0.2,0.3,0.3
		c0.1,0.1,0.2,0.2,0.3,0.2c0.1,0,0.2-0.1,0.4-0.2c0.1-0.1,0.2-0.2,0.3-0.4c0.1-0.1,0.1-0.3,0.1-0.5c0-0.2,0-0.3,0.1-0.5
		c0.1-1.2,0.2-2.3,0.3-3.5c0.1-1.1,0.2-2.3,0.4-3.4c0.4-2.4,0.7-4.8,0.8-7.1s0.1-4.7-0.2-7.1c0-0.4-0.1-0.7-0.1-1.1
		c0-0.4-0.1-0.7-0.2-1.1c-0.1-0.3-0.2-0.7-0.3-1s-0.3-0.6-0.6-0.9c-0.2-0.2-0.4-0.5-0.8-0.6c-0.3-0.2-0.6-0.3-0.9-0.2
		c-0.4,0-0.6,0.2-0.8,0.6c-0.1,0.3-0.2,0.7-0.2,1.1c0,0.2,0.1,0.4,0.2,0.6s0.2,0.4,0.2,0.6c0.1-0.1,0.3-0.2,0.4-0.3
		c0.1-0.1,0.3-0.2,0.5-0.4c0.3,2,0.4,4,0.3,6C190.6,88.2,190.4,90.2,190.1,92.2z"/>
	<path class="st0" d="M182.8,91c-0.4-0.4-0.8-0.7-1.2-1c-0.4-0.3-0.9-0.6-1.4-1c0.3-0.8,0.3-1.5-0.1-2.1c-0.4-0.6-1.1-0.9-2-1
		c-0.3,0-0.5,0-0.8,0.1c-0.3,0.1-0.5,0.2-0.8,0.3c-1.1,0.7-2,1.5-2.6,2.5c-0.6,1-1.1,2.1-1.4,3.4c-0.2,0.7-0.3,1.5-0.3,2.2
		c0,0.8,0.1,1.5,0.5,2.2c0.6,1.3,1.4,2.2,2.4,2.7c1,0.5,2,0.6,3.2,0.2c1.5-0.5,2.9-1.4,4.1-2.5c0.4-0.4,0.7-0.8,0.9-1.3
		c0.2-0.5,0.4-1,0.4-1.6c0-0.6,0-1.1-0.2-1.6S183.2,91.4,182.8,91z M182.3,94.6c-0.7,0.8-1.6,1.4-2.5,1.7c-0.9,0.4-1.9,0.5-3,0.5
		c-0.4,0-0.8-0.1-1-0.4c-0.2-0.3-0.4-0.6-0.4-1c0-0.5,0-1.1,0.1-1.6s0.2-1.2,0.5-1.8c0.2-0.6,0.5-1.1,0.9-1.6
		c0.4-0.5,0.8-0.9,1.4-1.3c0.1-0.1,0.3-0.2,0.5-0.2s0.4-0.1,0.6-0.2l0.1,0.3c-0.7,0.6-0.6,1.1,0.3,1.6c0.4,0.1,0.7,0.3,1.1,0.4
		c0.4,0.1,0.7,0.3,1,0.5c0.6,0.4,0.9,0.9,1,1.5C182.9,93.5,182.7,94.1,182.3,94.6z"/>
</g>
<path class="st0" d="M232.1,36c-0.9,0-1.9,0-2.8,0c-6.6,0.7-13.2,0.8-19.5-1.8c-0.8-0.3-1.5-0.5-2.1-0.5l-1.9-2.5
	C198.7,5.1,176,12,176,12l-5.5,1.3c-8.6,1.2-18.1,3.2-39.3,3.6c-2.7,0-5.5,0-8.2,0c-2.7,0-5.5,0-8.2,0c-21.2-0.4-32.7-2.4-41.3-3.6
	L72,13c0,0-24.7-7.9-31.8,18.2l-1.9,2.5c-0.6,0-1.3,0.2-2.1,0.5c-6.3,2.6-12.9,2.4-19.5,1.8c-0.9,0-1.8,0-2.7,0c0,0,0,0,0,0
	c-3.5,0.3-10.6,0.6-8.3,11.8c0.5,4.1,3.1,10.1,13,14.6c0,0,0,0,0,0c4.8,2.6,10.2,2.9,15.8,2.8c3.4,4,9.9,6.7,17.4,6.7
	c1.7,0,3.3-0.1,4.8-0.4c5.5-0.9,10.1-3.3,12.7-6.4c0,0,0.1,0,0.1,0c3.4,4.1,10,6.8,17.5,6.8c1.7,0,3.3-0.1,4.8-0.4
	c5.5-0.9,10.1-3.3,12.8-6.5c0.4,0,0.8,0,1.2,0c3.3,4,9.7,6.7,17.1,6.9c7.4-0.1,13.8-2.9,17.1-6.9c0.4,0,0.8,0,1.2,0
	c2.6,3.2,7.2,5.6,12.8,6.5c1.5,0.2,3.2,0.4,4.8,0.4c7.6,0,14.2-2.8,17.5-6.8c0,0,0.1,0,0.1,0c2.6,3.2,7.2,5.5,12.7,6.4
	c1.5,0.2,3.2,0.4,4.8,0.4c7.5,0,14-2.7,17.4-6.7c5.6,0,11-0.2,15.8-2.8c0,0,0,0,0,0c9.8-4.6,12.4-10.6,13-14.6
	C242.5,36.7,235.7,36.3,232.1,36z M68.9,27.7l-4.8,11.6c-0.3,0.8-1.2,1.1-2,0.8s-1.1-1.2-0.8-2l4.8-11.6c0.3-0.8,1.2-1.1,2-0.8
	C68.9,26,69.2,26.9,68.9,27.7z M90.7,30l-2.2,12.4c-0.1,0.8-0.9,1.4-1.7,1.2c-0.8-0.1-1.4-0.9-1.2-1.7l2.2-12.3
	c0.1-0.8,0.9-1.4,1.7-1.2C90.3,28.4,90.9,29.2,90.7,30z M113,44.3c-0.1,0.8-0.8,1.4-1.6,1.3c-0.8-0.1-1.4-0.8-1.3-1.6l1.3-12.5
	c0.1-0.8,0.8-1.4,1.6-1.3c0.8,0.1,1.4,0.8,1.3,1.6L113,44.3z M135.1,45.7c-0.8,0-1.5-0.6-1.6-1.4l-0.5-12.5c0-0.8,0.6-1.5,1.4-1.6
	c0.8,0,1.5,0.6,1.6,1.4l0.5,12.5C136.6,44.9,136,45.6,135.1,45.7z M159.2,43.6c-0.8,0.1-1.6-0.4-1.7-1.2L155.3,30
	c-0.1-0.8,0.4-1.6,1.2-1.7c0.8-0.1,1.6,0.4,1.7,1.2l2.2,12.3C160.5,42.6,160,43.4,159.2,43.6z M171.6,56.8l-2.4,0.1l1.3,2
	c0.3,0.4,0.2,1-0.3,1.3h0c-0.4,0.3-1,0.2-1.3-0.3l-1.3-2l-1.1,2.1c-0.2,0.5-0.8,0.7-1.3,0.4c-0.5-0.2-0.7-0.8-0.4-1.3l1.1-2.1
	l-2.4,0.1c-0.5,0-1-0.4-1-0.9c0-0.5,0.4-1,0.9-1l2.4-0.1l-1.3-2c-0.3-0.4-0.2-1,0.3-1.3h0c0.4-0.3,1-0.2,1.3,0.3l1.3,2l1.1-2.1
	c0.2-0.5,0.8-0.7,1.3-0.4c0.5,0.2,0.7,0.8,0.4,1.3l-1.1,2.1l2.4-0.1c0.5,0,1,0.4,1,0.9C172.5,56.3,172.1,56.7,171.6,56.8z
	 M183.8,40.1c-0.8,0.3-1.6-0.1-2-0.8l-4.8-11.6c-0.3-0.8,0.1-1.6,0.8-2c0.8-0.3,1.6,0.1,2,0.8l4.8,11.6
	C184.9,38.9,184.6,39.8,183.8,40.1z"/>
<g>
</g>
<g>
</g>
<g>
</g>
<g>
</g>
<g>
</g>
<g>
</g>
<g>
</g>
<g>
</g>
<g>
</g>
<g>
</g>
<g>
</g>
<g>
</g>
<g>
</g>
<g>
</g>
<g>
</g>
</svg>
