<?xml version="1.0" encoding="utf-8"?>
<!-- Generator: Adobe Illustrator 16.0.0, SVG Export Plug-In . SVG Version: 6.00 Build 0)  -->
<!DOCTYPE svg PUBLIC "-//W3C//DTD SVG 1.1//EN" "http://www.w3.org/Graphics/SVG/1.1/DTD/svg11.dtd">
<svg version="1.1" id="Layer_1" xmlns="http://www.w3.org/2000/svg" xmlns:xlink="http://www.w3.org/1999/xlink" x="0px" y="0px"
	 width="107px" height="89px" viewBox="0 0 107 89" enable-background="new 0 0 107 89" xml:space="preserve">
<g>
	<defs>
		<rect id="SVGID_1_" x="-249" y="-147" width="359" height="252"/>
	</defs>
	<clipPath id="SVGID_2_">
		<use xlink:href="#SVGID_1_"  overflow="visible"/>
	</clipPath>
	
		<path clip-path="url(#SVGID_2_)" fill="none" stroke="#212121" stroke-width="3" stroke-linecap="round" stroke-linejoin="round" stroke-miterlimit="10" d="
		M86.809,52.329c7.539,0.542,14.066-4.792,14.578-11.912c0.512-7.121-5.185-13.333-12.725-13.875L86.809,52.329z"/>
	
		<path clip-path="url(#SVGID_2_)" fill="none" stroke="#212121" stroke-width="3" stroke-linecap="round" stroke-linejoin="round" stroke-miterlimit="10" d="
		M20.191,52.329c-7.539,0.542-14.066-4.792-14.578-11.912c-0.512-7.121,5.185-13.333,12.725-13.875L20.191,52.329z"/>
	
		<path clip-path="url(#SVGID_2_)" fill="none" stroke="#212121" stroke-width="3" stroke-linecap="round" stroke-linejoin="round" stroke-miterlimit="10" d="
		M68.753,77.998c9.604-4.197,17.654-12.604,21.453-23.763"/>
	
		<circle clip-path="url(#SVGID_2_)" fill="none" stroke="#212121" stroke-width="3" stroke-linecap="round" stroke-linejoin="round" stroke-miterlimit="10" cx="53.5" cy="37.438" r="33.596"/>
	
		<path clip-path="url(#SVGID_2_)" fill="none" stroke="#212121" stroke-width="3" stroke-linecap="round" stroke-linejoin="round" stroke-miterlimit="10" d="
		M46.656,33.044c0,2.791-3.621,5.055-8.088,5.055s-8.088-2.264-8.088-5.055"/>
	
		<path clip-path="url(#SVGID_2_)" fill="none" stroke="#212121" stroke-width="3" stroke-linecap="round" stroke-linejoin="round" stroke-miterlimit="10" d="
		M60.344,33.044c0,2.791,3.621,5.055,8.088,5.055s8.088-2.264,8.088-5.055"/>
	
		<path clip-path="url(#SVGID_2_)" fill="none" stroke="#212121" stroke-width="3" stroke-linecap="round" stroke-linejoin="round" stroke-miterlimit="10" d="
		M45.412,49.219c0,2.792,3.621,5.056,8.088,5.056s8.088-2.264,8.088-5.056"/>
	
		<path clip-path="url(#SVGID_2_)" fill="none" stroke="#0463AA" stroke-width="3" stroke-linecap="round" stroke-linejoin="round" stroke-miterlimit="10" d="
		M62.832,85.342l-4.759-4.579c-1.072-1.18-0.985-3.005,0.193-4.077c1.18-1.072,3.005-0.723,4.077,0.457l0.488,0.537l0.488-0.537
		c1.072-1.18,2.897-1.529,4.076-0.457c1.181,1.072,1.268,2.897,0.195,4.077L62.832,85.342z"/>
	<use xlink:href="#SVGID_1_"  overflow="visible" fill="none" stroke="#212121" stroke-miterlimit="10"/>
</g>
</svg>
