<?xml version="1.0" encoding="utf-8"?>
<!-- Generator: Adobe Illustrator 16.0.0, SVG Export Plug-In . SVG Version: 6.00 Build 0)  -->
<!DOCTYPE svg PUBLIC "-//W3C//DTD SVG 1.1//EN" "http://www.w3.org/Graphics/SVG/1.1/DTD/svg11.dtd">
<svg version="1.1" id="Layer_1" xmlns="http://www.w3.org/2000/svg" xmlns:xlink="http://www.w3.org/1999/xlink" x="0px" y="0px"
	 width="100px" height="86px" viewBox="0 0 100 86" enable-background="new 0 0 100 86" xml:space="preserve">
<g>
	<defs>
		<rect id="SVGID_1_" x="-129" y="-147" width="359" height="252"/>
	</defs>
	<clipPath id="SVGID_2_">
		<use xlink:href="#SVGID_1_"  overflow="visible"/>
	</clipPath>
	
		<path clip-path="url(#SVGID_2_)" fill="none" stroke="#212121" stroke-width="3" stroke-linecap="round" stroke-linejoin="round" stroke-miterlimit="10" d="
		M83.71,42.142h-1.923H79.61H4.214l20.621,24.381c0,0,2.662,2.777,6.654,2.777h49.488h0.405h2.328c4.01,0,7.29-3.28,7.29-7.29
		V49.431C91,45.422,87.72,42.142,83.71,42.142z"/>
	
		<path clip-path="url(#SVGID_2_)" fill="none" stroke="#212121" stroke-width="3" stroke-linecap="round" stroke-linejoin="round" stroke-miterlimit="10" d="
		M24.604,41.537c-0.136-0.381-0.21-0.792-0.21-1.219v-7.289c0-2.005,1.64-3.646,3.645-3.646H80.28c2.005,0,3.645,1.641,3.645,3.646
		v7.289c0,0.35-0.051,0.688-0.143,1.01"/>
	<rect x="33.201" y="34.246" clip-path="url(#SVGID_2_)" fill="#212121" width="2.43" height="2.43"/>
	<rect x="41.098" y="34.246" clip-path="url(#SVGID_2_)" fill="#212121" width="2.43" height="2.43"/>
	<rect x="48.995" y="34.246" clip-path="url(#SVGID_2_)" fill="#212121" width="2.43" height="2.43"/>
	<rect x="56.893" y="34.246" clip-path="url(#SVGID_2_)" fill="#212121" width="2.431" height="2.43"/>
	<rect x="64.79" y="34.246" clip-path="url(#SVGID_2_)" fill="#212121" width="2.43" height="2.43"/>
	<rect x="72.688" y="34.246" clip-path="url(#SVGID_2_)" fill="#212121" width="2.43" height="2.43"/>
	
		<polygon clip-path="url(#SVGID_2_)" fill="none" stroke="#212121" stroke-width="3" stroke-linecap="round" stroke-linejoin="round" stroke-miterlimit="10" points="
		44.659,29.092 33.659,29.092 33.659,11.092 44.659,15.092 	"/>
	
		<rect x="54.659" y="20.092" clip-path="url(#SVGID_2_)" fill="none" stroke="#212121" stroke-width="3" stroke-linecap="round" stroke-linejoin="round" stroke-miterlimit="10" width="20" height="9"/>
	
		<path clip-path="url(#SVGID_2_)" fill="none" stroke="#0463AA" stroke-width="3" stroke-linecap="round" stroke-linejoin="round" stroke-miterlimit="10" d="
		M25.5,75.532c3.999,0,3.999,5.12,7.997,5.12s3.998-5.12,7.997-5.12c3.998,0,3.998,5.12,7.997,5.12s3.999-5.12,7.999-5.12
		s4,5.12,8.001,5.12c4,0,4-5.12,7.999-5.12c4.003,0,4.003,5.12,8.005,5.12c4.003,0,4.003-5.12,8.005-5.12"/>
	<use xlink:href="#SVGID_1_"  overflow="visible" fill="none" stroke="#212121" stroke-miterlimit="10"/>
</g>
</svg>
