<?xml version="1.0" encoding="utf-8"?>
<!-- Generator: Adobe Illustrator 16.0.0, SVG Export Plug-In . SVG Version: 6.00 Build 0)  -->
<!DOCTYPE svg PUBLIC "-//W3C//DTD SVG 1.1//EN" "http://www.w3.org/Graphics/SVG/1.1/DTD/svg11.dtd">
<svg version="1.1" id="Layer_1" xmlns="http://www.w3.org/2000/svg" xmlns:xlink="http://www.w3.org/1999/xlink" x="0px" y="0px"
	 width="139px" height="61px" viewBox="0 0 139 61" enable-background="new 0 0 139 61" xml:space="preserve">
<g>
	<path fill="#333333" d="M46.515,18.332c-0.127,0.711-0.19,1.435-0.19,2.171c0,0.779,0.063,1.655,0.19,2.628
		c-1.125,0.44-2.397,0.793-3.815,1.06s-2.774,0.4-4.069,0.4c-1.998,0-3.751-0.392-5.262-1.174s-2.672-1.871-3.485-3.263
		s-1.219-2.973-1.219-4.742c0-1.828,0.436-3.455,1.308-4.881s2.086-2.535,3.644-3.326s3.529-1.187,5.916-1.187
		c0.973,0,1.871,0.063,2.691,0.19s1.892,0.381,3.212,0.762l1.079,0.292c-0.223,0.897-0.401,2.15-0.533,3.758h-0.8v-0.838
		c0-0.83-0.068-1.316-0.203-1.46c-0.254-0.271-0.927-0.607-2.019-1.009s-2.34-0.603-3.745-0.603c-2.488,0-4.393,0.668-5.713,2.006
		c-1.439,1.456-2.158,3.381-2.158,5.776c0,2.302,0.647,4.24,1.942,5.814c1.523,1.862,3.601,2.793,6.233,2.793
		c1.371,0,2.856-0.301,4.456-0.903c0.051-0.712,0.076-1.472,0.076-2.278c0-1.043-0.017-1.643-0.051-1.8s-0.095-0.259-0.184-0.305
		c-0.089-0.047-0.531-0.104-1.327-0.172l-1.498-0.127v-0.8c1.938,0.084,3.377,0.127,4.316,0.127c0.813,0,1.511-0.042,2.095-0.127
		v0.635L46.515,18.332z"/>
	<path fill="#333333" d="M49.105,18.243c0-1.168,0.271-2.224,0.813-3.167s1.301-1.682,2.279-2.215s2.088-0.8,3.333-0.8
		c1.803,0,3.246,0.533,4.329,1.6s1.625,2.488,1.625,4.266c0,2.099-0.707,3.766-2.12,5.002c-1.261,1.109-2.772,1.663-4.532,1.663
		c-1.693,0-3.07-0.569-4.132-1.708S49.105,20.198,49.105,18.243z M51.492,17.347c0,1.746,0.357,3.239,1.073,4.48
		c0.715,1.241,1.746,1.862,3.091,1.862c1.024,0,1.852-0.39,2.482-1.169c0.63-0.779,0.946-1.961,0.946-3.546
		c0-1.28-0.186-2.388-0.559-3.324c-0.373-0.937-0.863-1.619-1.473-2.046c-0.609-0.428-1.291-0.642-2.044-0.642
		c-0.668,0-1.271,0.169-1.809,0.508c-0.538,0.339-0.933,0.792-1.187,1.36C51.665,15.602,51.492,16.44,51.492,17.347z"/>
	<path fill="#333333" d="M67.45,5.484c-0.144,2.48-0.216,4.723-0.216,6.729v6.525c0,2.59,0.055,4.058,0.165,4.405
		c0.059,0.178,0.338,0.292,0.838,0.343l1.079,0.114v0.736c-0.924-0.059-1.807-0.089-2.646-0.089c-0.933,0-2.154,0.03-3.664,0.089
		v-0.736l1.092-0.089c0.482-0.042,0.757-0.165,0.825-0.368c0.11-0.33,0.165-1.833,0.165-4.507v-6.487l-0.013-2.438l-0.038-1.663
		c0-0.415-0.046-0.668-0.14-0.762c-0.135-0.135-0.419-0.203-0.851-0.203h-1.041V6.322c1.766-0.161,3.174-0.491,4.227-0.99
		L67.45,5.484z"/>
	<path fill="#333333" d="M80.779,12.835V8.229c0-0.534-0.059-0.869-0.178-1.005c-0.118-0.136-0.389-0.204-0.812-0.204h-1.092V6.259
		c1.511-0.1,2.919-0.409,4.227-0.927l0.229,0.152c-0.06,0.864-0.11,1.906-0.152,3.125l-0.051,3.379l-0.025,1.093v7.584
		c0,1.414,0.042,2.202,0.127,2.363c0.127,0.229,0.478,0.381,1.053,0.458l0.902,0.114v0.736c-1.045-0.076-1.966-0.114-2.764-0.114
		c-0.145,0-0.679,0.038-1.604,0.114c0.059-0.573,0.105-1.386,0.139-2.439c-0.718,0.556-1.635,1.336-2.751,2.339
		c-0.718,0.236-1.353,0.354-1.901,0.354c-1.429,0-2.625-0.538-3.588-1.612c-0.964-1.075-1.445-2.514-1.445-4.316
		c0-1.125,0.186-2.086,0.558-2.882c0.372-0.795,0.816-1.373,1.332-1.733s1.318-0.814,2.409-1.365c0.836-0.415,1.61-0.622,2.32-0.622
		c0.482,0,0.979,0.063,1.49,0.19S80.239,12.573,80.779,12.835z M80.779,15.021c-0.583-0.627-1.189-1.097-1.818-1.411
		c-0.629-0.313-1.286-0.47-1.971-0.47c-1.107,0-1.998,0.405-2.674,1.214c-0.676,0.81-1.014,1.994-1.014,3.553
		c0,1.584,0.386,2.828,1.16,3.73c0.773,0.903,1.713,1.354,2.82,1.354c0.676,0,1.297-0.188,1.863-0.565
		c0.566-0.377,0.98-0.867,1.242-1.468s0.393-1.547,0.393-2.835V15.021z"/>
	<path fill="#333333" d="M88.98,18.192c0.043,1.667,0.47,2.933,1.28,3.796c0.812,0.863,1.876,1.295,3.194,1.295
		c0.592,0,1.179-0.097,1.763-0.292c0.583-0.195,1.161-0.487,1.736-0.876l0.216,0.19l-0.406,1.066
		c-0.703,0.406-1.427,0.711-2.172,0.914c-0.744,0.203-1.51,0.305-2.297,0.305c-1.719,0-3.104-0.544-4.158-1.631
		s-1.58-2.563-1.58-4.424c0-1.422,0.296-2.653,0.889-3.694c0.389-0.686,1.108-1.32,2.158-1.904c1.049-0.584,2.068-0.876,3.059-0.876
		c1.498,0,2.686,0.44,3.562,1.32s1.313,2.112,1.313,3.694l-0.025,0.749c-0.558,0.135-1.09,0.224-1.597,0.267
		c-0.904,0.068-2.159,0.102-3.765,0.102H88.98z M89.006,17.24c1.313,0.059,2.76,0.089,4.342,0.089c0.635,0,1.249-0.03,1.842-0.089
		v-0.711c0-0.745-0.148-1.452-0.445-2.12c-0.186-0.415-0.512-0.76-0.977-1.035c-0.466-0.275-1.004-0.413-1.613-0.413
		c-0.947,0-1.705,0.347-2.271,1.041C89.315,14.697,89.023,15.776,89.006,17.24z"/>
	<path fill="#333333" d="M102.869,14.485l1.92-1.701c0.229-0.203,0.471-0.351,0.726-0.444c0.559-0.186,1.118-0.279,1.678-0.279
		c0.907,0,1.691,0.184,2.353,0.552s1.136,0.846,1.424,1.435s0.432,1.509,0.432,2.761l-0.051,3.999c0,1.379,0.06,2.175,0.177,2.387
		c0.16,0.271,0.472,0.406,0.934,0.406h0.909v0.736c-0.903-0.059-1.685-0.089-2.343-0.089c-0.642,0-1.329,0.03-2.063,0.089
		c0.161-1.65,0.242-3.88,0.242-6.69c0-1.134-0.101-1.938-0.3-2.412s-0.534-0.855-1.005-1.143s-1.036-0.432-1.698-0.432
		c-0.822,0-1.52,0.208-2.093,0.622c-0.572,0.415-0.926,0.872-1.062,1.371c-0.085,0.33-0.128,1.193-0.128,2.59
		c0,1.549,0.014,2.988,0.039,4.316c0.008,0.398,0.067,0.647,0.179,0.749c0.213,0.195,0.562,0.292,1.047,0.292h0.907v0.736
		c-1.434-0.059-2.574-0.089-3.422-0.089c-0.899,0-1.921,0.03-3.066,0.089v-0.736h0.914c0.627,0,0.993-0.146,1.099-0.438
		s0.159-2.047,0.159-5.268c0-1.445-0.018-2.578-0.051-3.398c-0.018-0.271-0.085-0.456-0.203-0.558
		c-0.119-0.102-0.453-0.152-1.004-0.152h-0.914v-0.736c0.727-0.084,1.376-0.199,1.95-0.343c0.573-0.144,1.219-0.364,1.937-0.66
		c0.075-0.034,0.147-0.051,0.215-0.051c0.135,0,0.203,0.097,0.203,0.292l-0.014,0.482L102.869,14.485z"/>
	<path fill="#333333" d="M31.088,32.612l-0.164-3.65c-1.217-0.807-2.492-1.408-3.825-1.805s-2.724-0.595-4.173-0.595
		c-3.691,0-6.648,1.121-8.87,3.363s-3.333,5.243-3.333,9.003c0,2.639,0.564,4.99,1.692,7.055s2.731,3.698,4.809,4.901
		s4.272,1.805,6.583,1.805c1.832,0,3.644-0.212,5.435-0.636c1.34-0.314,2.687-0.971,4.04-1.969l0.431,0.41
		c-0.287,0.629-0.554,1.265-0.8,1.907c-1.6,0.793-3.209,1.392-4.83,1.795c-1.62,0.402-3.25,0.604-4.891,0.604
		c-3.363,0-6.32-0.649-8.87-1.948s-4.508-3.093-5.875-5.383s-2.051-4.878-2.051-7.763s0.69-5.465,2.071-7.742
		s3.333-4.04,5.855-5.291s5.623-1.876,9.3-1.876c1.928,0,4.184,0.314,6.768,0.943c1.285,0.301,2.331,0.526,3.138,0.677
		c-0.615,1.463-0.971,3.527-1.066,6.193H31.088z"/>
	<path fill="#333333" d="M42.265,39.215c0.548-0.52,1.145-1.203,1.789-2.051c0.768-0.997,1.48-1.681,2.138-2.05
		c0.658-0.369,1.35-0.554,2.077-0.554c0.754,0,1.33,0.089,1.728,0.267c0.191,0.082,0.288,0.212,0.288,0.39l-0.021,0.205
		c-0.217,1.107-0.34,2.659-0.369,4.655h-0.923c-0.313-0.697-0.685-1.189-1.114-1.477c-0.429-0.287-0.944-0.431-1.543-0.431
		c-0.804,0-1.551,0.273-2.239,0.819c-0.688,0.546-1.148,1.311-1.38,2.294c-0.231,0.982-0.347,2.915-0.347,5.796
		c0,1.897,0.075,3.495,0.226,4.792c0.055,0.479,0.191,0.778,0.41,0.901c0.52,0.286,1.285,0.43,2.297,0.43h1.23v1.189
		c-2.092-0.096-4.074-0.144-5.947-0.144c-1.818,0-3.616,0.048-5.394,0.144v-1.189l1.969-0.164c0.697-0.055,1.138-0.185,1.323-0.39
		s0.304-0.868,0.359-1.989c0.096-1.969,0.144-4.307,0.144-7.014c0-3.295-0.13-5.229-0.39-5.804
		c-0.178-0.369-0.738-0.554-1.682-0.554h-1.723v-1.189c1.326-0.15,2.509-0.345,3.548-0.585c1.039-0.238,1.962-0.543,2.769-0.912
		c0.191-0.096,0.349-0.144,0.472-0.144c0.15,0,0.253,0.042,0.308,0.124c0.055,0.082,0.082,0.268,0.082,0.556L42.265,39.215z"/>
	<path fill="#333333" d="M68.31,54.392l0.226-3.691l-1.208,1.313c-0.942,1.025-1.901,1.747-2.877,2.163
		c-0.976,0.417-2.181,0.626-3.614,0.626c-1.229,0-2.287-0.26-3.174-0.779s-1.532-1.192-1.935-2.021
		c-0.403-0.826-0.604-2.136-0.604-3.927c0-0.93,0.021-2.01,0.062-3.24l0.062-3.302c0-2.311-0.065-3.596-0.195-3.855
		s-0.564-0.39-1.302-0.39h-1.825V36.16c1.865-0.164,3.585-0.506,5.162-1.025l1.707-0.636c0.233,0,0.35,0.171,0.35,0.513L59,37.104
		c-0.191,2.898-0.287,5.592-0.287,8.08s0.102,4.078,0.307,4.768c0.204,0.691,0.634,1.266,1.289,1.723
		c0.655,0.459,1.453,0.688,2.395,0.688c1.269,0,2.432-0.41,3.489-1.23c1.057-0.82,1.75-1.647,2.077-2.481
		c0.177-0.479,0.266-1.921,0.266-4.327c0-4.047-0.075-6.248-0.226-6.604c-0.137-0.287-0.752-0.431-1.846-0.431h-1.62V36.16
		c1.408-0.164,2.604-0.355,3.589-0.574s2.023-0.547,3.117-0.984c0.137-0.068,0.26-0.103,0.369-0.103c0.232,0,0.349,0.13,0.349,0.39
		l-0.082,1.907c-0.205,4.676-0.308,8.791-0.308,12.346c0,1.996,0.103,3.138,0.308,3.425c0.301,0.424,0.95,0.636,1.948,0.636h1.189
		v1.189c-1.709-0.096-3.158-0.144-4.348-0.144C70.087,54.248,69.199,54.296,68.31,54.392z"/>
	<path fill="#333333" d="M84.184,34.479l0.492,0.308c-0.097,1.025-0.158,2.153-0.186,3.384c-0.096,3.992-0.143,6.938-0.143,8.839
		c0,1.777,0.061,3.295,0.184,4.553c0.055,0.492,0.186,0.834,0.391,1.025s0.697,0.335,1.477,0.431l1.395,0.185v1.189
		c-1.997-0.096-3.814-0.144-5.455-0.144c-1.614,0-3.241,0.048-4.881,0.144v-1.189l1.764-0.185c0.684-0.055,1.104-0.182,1.261-0.381
		c0.157-0.198,0.257-0.86,0.298-1.984c0.067-1.74,0.102-4.14,0.102-7.196c0-2.124-0.034-3.763-0.102-4.914
		c-0.028-0.425-0.147-0.727-0.359-0.904c-0.212-0.179-0.687-0.268-1.425-0.268h-1.538v-1.189c1.668-0.243,2.895-0.466,3.681-0.668
		C81.924,35.31,82.938,34.965,84.184,34.479z M82.543,25.394c0.628,0,1.168,0.229,1.619,0.687s0.678,1.008,0.678,1.651
		s-0.227,1.189-0.678,1.641s-0.991,0.677-1.619,0.677c-0.644,0-1.189-0.226-1.641-0.677c-0.452-0.451-0.677-0.998-0.677-1.641
		s0.226-1.193,0.677-1.651C81.354,25.623,81.899,25.394,82.543,25.394z"/>
	<path fill="#333333" d="M91.75,48.116v1.338c0,1.071,0.096,1.736,0.287,1.997c0.355,0.439,1.05,0.865,2.082,1.277
		c1.032,0.411,2.095,0.617,3.189,0.617c1.407,0,2.556-0.38,3.445-1.14c0.888-0.76,1.332-1.666,1.332-2.721
		c0-0.835-0.26-1.505-0.779-2.012s-1.511-0.91-2.973-1.212c-2.722-0.547-4.52-1.026-5.395-1.437
		c-0.875-0.411-1.531-0.958-1.969-1.643c-0.438-0.684-0.656-1.512-0.656-2.483c0-1.82,0.661-3.299,1.982-4.435
		s3.193-1.704,5.617-1.704c1.917,0,3.827,0.383,5.73,1.148c-0.117,0.93-0.213,2.488-0.287,4.676h-1.23
		c-0.027-1.203-0.156-1.996-0.389-2.379c-0.313-0.506-0.887-0.964-1.719-1.374s-1.719-0.615-2.659-0.615
		c-1.241,0-2.233,0.318-2.978,0.955c-0.743,0.636-1.115,1.434-1.115,2.392c0,0.917,0.294,1.608,0.883,2.074
		c0.587,0.479,2.215,0.985,4.881,1.52c1.969,0.396,3.267,0.766,3.896,1.107c0.628,0.342,1.134,0.86,1.518,1.558
		c0.382,0.696,0.574,1.495,0.574,2.397c0,1.844-0.79,3.436-2.369,4.774s-3.688,2.008-6.326,2.008c-1.682,0-3.568-0.263-5.66-0.789
		c-0.369-0.094-0.555-0.237-0.555-0.429l0.063-0.288c0.054-0.205,0.102-0.568,0.143-1.089c0.123-1.33,0.186-2.364,0.186-3.104
		l-0.021-0.986H91.75z"/>
	<path fill="#333333" d="M111.52,44.466c0.068,2.693,0.758,4.737,2.068,6.132s3.03,2.092,5.16,2.092
		c0.955,0,1.904-0.157,2.846-0.472c0.942-0.314,1.877-0.786,2.806-1.415l0.349,0.308l-0.656,1.723
		c-1.136,0.656-2.305,1.148-3.508,1.477s-2.439,0.492-3.711,0.492c-2.776,0-5.015-0.878-6.717-2.636
		c-1.702-1.756-2.553-4.139-2.553-7.146c0-2.297,0.478-4.286,1.436-5.968c0.628-1.107,1.79-2.133,3.486-3.076
		c1.694-0.943,3.342-1.415,4.941-1.415c2.42,0,4.338,0.711,5.753,2.133s2.122,3.411,2.122,5.968l-0.041,1.21
		c-0.9,0.219-1.761,0.362-2.58,0.431c-1.46,0.109-3.488,0.164-6.081,0.164H111.52z M111.561,42.928
		c2.119,0.096,4.457,0.144,7.014,0.144c1.025,0,2.017-0.048,2.975-0.144v-1.148c0-1.203-0.24-2.345-0.719-3.425
		c-0.301-0.67-0.827-1.227-1.578-1.671c-0.753-0.444-1.621-0.667-2.605-0.667c-1.531,0-2.755,0.561-3.67,1.682
		C112.06,38.819,111.588,40.563,111.561,42.928z"/>
	<path fill="#333333" d="M131.813,50.003c0.659,0,1.222,0.232,1.688,0.697s0.7,1.032,0.7,1.702c0,0.656-0.233,1.221-0.7,1.691
		c-0.467,0.473-1.029,0.708-1.688,0.708c-0.673,0-1.242-0.235-1.71-0.708c-0.467-0.471-0.7-1.035-0.7-1.691
		c0-0.67,0.233-1.237,0.7-1.702C130.57,50.235,131.14,50.003,131.813,50.003z"/>
</g>
</svg>
