<?xml version="1.0" encoding="utf-8"?>
<!-- Generator: Adobe Illustrator 16.0.0, SVG Export Plug-In . SVG Version: 6.00 Build 0)  -->
<!DOCTYPE svg PUBLIC "-//W3C//DTD SVG 1.1//EN" "http://www.w3.org/Graphics/SVG/1.1/DTD/svg11.dtd">
<svg version="1.1" id="Layer_1" xmlns="http://www.w3.org/2000/svg" xmlns:xlink="http://www.w3.org/1999/xlink" x="0px" y="0px"
	 width="83px" height="86px" viewBox="0 0 83 86" enable-background="new 0 0 83 86" xml:space="preserve">
<g>
	<defs>
		<rect id="SVGID_1_" x="-17" y="-24" width="359" height="252"/>
	</defs>
	<clipPath id="SVGID_2_">
		<use xlink:href="#SVGID_1_"  overflow="visible"/>
	</clipPath>
	
		<path clip-path="url(#SVGID_2_)" fill="none" stroke="#212121" stroke-width="3" stroke-linecap="round" stroke-linejoin="round" stroke-miterlimit="10" d="
		M14.667,13.221H74c1.65,0,3,1.35,3,3v57.971c0,1.65-1.35,3-3,3H11c-1.649,0-3-1.35-3-3V16.221c0-1.65,1.351-3,3-3H14.667"/>
	
		<line clip-path="url(#SVGID_2_)" fill="none" stroke="#0463AA" stroke-width="3" stroke-linecap="round" stroke-linejoin="round" stroke-miterlimit="10" x1="33.368" y1="34.206" x2="62.5" y2="34.206"/>
	
		<line clip-path="url(#SVGID_2_)" fill="none" stroke="#0463AA" stroke-width="3" stroke-linecap="round" stroke-linejoin="round" stroke-miterlimit="10" x1="22.5" y1="34.206" x2="25.5" y2="34.206"/>
	
		<line clip-path="url(#SVGID_2_)" fill="none" stroke="#0463AA" stroke-width="3" stroke-linecap="round" stroke-linejoin="round" stroke-miterlimit="10" x1="22.5" y1="45.206" x2="62.5" y2="45.206"/>
	
		<line clip-path="url(#SVGID_2_)" fill="none" stroke="#0463AA" stroke-width="3" stroke-linecap="round" stroke-linejoin="round" stroke-miterlimit="10" x1="22.5" y1="56.206" x2="62.5" y2="56.206"/>
	
		<path clip-path="url(#SVGID_2_)" fill="none" stroke="#212121" stroke-width="3" stroke-linecap="round" stroke-linejoin="round" stroke-miterlimit="10" d="
		M15.017,11.401c-0.225-2.752,1.824-5.166,4.576-5.391s5.166,1.824,5.391,4.576c0.025,0.303,0.022,0.603-0.007,0.896"/>
	
		<path clip-path="url(#SVGID_2_)" fill="none" stroke="#212121" stroke-width="3" stroke-linecap="round" stroke-linejoin="round" stroke-miterlimit="10" d="
		M30.017,11.401c-0.225-2.752,1.824-5.166,4.576-5.391s5.166,1.824,5.391,4.576c0.025,0.303,0.022,0.603-0.007,0.896"/>
	
		<path clip-path="url(#SVGID_2_)" fill="none" stroke="#212121" stroke-width="3" stroke-linecap="round" stroke-linejoin="round" stroke-miterlimit="10" d="
		M45.017,11.401c-0.225-2.752,1.824-5.166,4.576-5.391s5.166,1.824,5.391,4.576c0.025,0.303,0.022,0.603-0.007,0.896"/>
	
		<path clip-path="url(#SVGID_2_)" fill="none" stroke="#212121" stroke-width="3" stroke-linecap="round" stroke-linejoin="round" stroke-miterlimit="10" d="
		M60.017,11.401c-0.225-2.752,1.824-5.166,4.576-5.391s5.166,1.824,5.391,4.576c0.025,0.303,0.022,0.603-0.007,0.896"/>
	<use xlink:href="#SVGID_1_"  overflow="visible" fill="none" stroke="#212121" stroke-miterlimit="10"/>
</g>
</svg>
