<?xml version="1.0" encoding="utf-8"?>
<!-- Generator: Adobe Illustrator 21.0.0, SVG Export Plug-In . SVG Version: 6.00 Build 0)  -->
<svg version="1.1" id="Layer_1" xmlns="http://www.w3.org/2000/svg" xmlns:xlink="http://www.w3.org/1999/xlink" x="0px" y="0px"
	 viewBox="0 0 674 346" style="enable-background:new 0 0 674 346;" xml:space="preserve">
<style type="text/css">
	.st0{fill:#FFFFFF;}
</style>
<g>
	<g>
		<path class="st0" d="M256.6,37.3c-10.8-0.4-21.6,0.9-32.2,4c-9.8-4.2-21.8-0.4-32.7-0.5l-2,2c-3.1-2.1-5.9-2.6-10-1.5l-0.5,4
			c0.5,0.5,1.7,1.7,2.5,2.5l-6,1l0.5,3.5c-5.3,0.1-11.5,2.4-15.1-2c-5.1,1.9-10.3-2.9-15.1,1.5l1,2c-5.1-3.3-13.3-3.3-18.6,1
			c-0.7,1.7,1.2,2.5,1,4c-2.2,0.4-3.5,1.8-6,2c-9.4-0.1-21.5,0.4-32.2-2c-9.2-3.4-18,2.2-26.6,3.5c-0.3,1.4,0.6,2.2,0.5,3.5
			l-9.5,1.5c-0.2,2.2,0.2,3,2,4c-3,2.3-7.3,0.9-10.1,3.5c-0.8,2.8-1.1,6.8,2.5,8c-2.8,3.3-8.4,1.4-11.1,4v3c5.7-0.4,11.9-5.1,18.1-3
			c1.5-1.2,4.5-0.8,4.5-3.5c6.3-1.6,12.9-7.6,20.6-2.5c2.6,1.8,1.2,5.7,2,8l2.5,0.5c-1,2-1,4,0,6c-0.6,0.9-1.5,1.1-2.5,1
			c-1.3,3.9,3.8,3.8,3,7.5c-3.1,1.1-1.1,6.1-5.5,6.5c-1.4,3.3-3.1,7.2-4,11.1c1.8,4.2-0.1,11.3,5.5,12.6c-1.2,5.6,3.7,8.5,2,14.1
			c3.8-0.3,2.2,8.5,8,7.5c0.6-2.8-2.4-5.2-1.5-8c1.7,3.6,6.6,7.5,7.5,12.6c-1.8,0.3-0.7,2.7-1,4c6.1,9.8,19.3,4.4,26.6,12.1
			c7.4,1.4,5.9,10.4,13.6,12.6c2.3,0.6,5.4,2.4,8,0.5c0,2,1.8,0.7,2.5,2.5c0.6,4.5-3.6,5.4-5,9c-3.8,3.3-0.8,8.1-3,12.1
			c1.8,6.1,6.1,12.7,9,19.1c2.4,5,7.4,10.9,14.1,13.6c2.7,1.7,3.1,6,3.5,9.6c-0.1,20.1,0.6,40.4,3.5,60.3c2,1.5,1.4,6.5,4.5,8.5
			c2.8,5.5,6.7,10.6,13.1,12.1c2.3-1.2,2.7,2.2,5,1c1.1-1.7,5.4,0.1,4-3.5c-3.9-0.5-7.7-4.4-9-8c0.5-2.7,1.4-3.6,2.5-6
			c2.4-4.4-4.3-3.3-3-7c0.3-0.9,1.3-0.3,2-0.5c0.2-1.7-0.4-3.7,0.5-5c-1.5-7,7.5-9.2,11.6-13.6c1.3-2.5-2.3-2.9-2-5
			c1-0.9,2.7-0.3,4-0.5c3.8-1.2,4.7-6.1,7.5-9c0.1-4.2,6.2-7,2.5-11.6c0.9-2.4,3.6-5.1,6-6c1.9-2.8,6.9-0.4,9-4
			c4.3-8,1.9-17.2,4.5-25.6c1.2-0.8,3-0.3,4-1.5c3.8-3,2.7-9.3,1.5-13.1c-8.4-7-19.6-8.7-29.2-13.6c-4.1-2.6-2.6-11.5-9-13.6
			c-2.4-3.6-9.6,1.1-10.1-4c-2.1-3.6-7.5-4.8-10.1-8.5c-4,0.3-6.4-0.2-10.5,0c-2.9-1.9-5.1-4.8-9-4c-6.1,1.7-8.8,5.9-11.6,11.6
			c-2.8,1-5.9-1.7-9,0c-6.6-3.8,2.6-11.8-4-15.6c-1.8-0.5-2.9,0.8-4.5,1c-2.4-3.3,2.9-6.3,1.5-10l-2.5-2c-5.4-0.7-5.1,4.1-8.5,6.5
			c-2.4-0.4-5.7,1.2-7-2c-1.2-5.5,0.5-11,3-16.1c6.4-4.7,14.9-2.8,21.1-4c5.6,0.4,0.8,11.4,9,9l-1-10.5c3.5-5.3,8.3-6.6,13.1-10.5
			c-1.6-3.3,2.7-4.2,2.5-6.5c1-5.5,10.4-3.6,10.5-9.5c2.2-0.8,3.9-2.7,6.5-2.5c0.5,1,2.2,0,2,1.5c3.3-2.1,9.3-1.6,11.1-6
			c-1.8-5.5-3.5,1.7-6.5-1c0.1-2.4,0.9-4.5,2-6.5c2.6-0.1,5.1,0,7,1.5c-1.6,0.7-0.8,2.3-1,3.5c3.1,0.8,6.7,2.4,10.5,2.5
			c0.5-2.3,1.6-7-2-7.5c0.1-3.9,2.9-6.3,0-10.1c-0.8-2.5-3.5-0.5-4.5-2.5c1.8-2.5-1-5.7-1.5-8.6c-3.8-2.2-4,4.2-7,1
			c-0.9-2.3-1.9-3.4-3.5-5c-3.7-2-9.6,1.5-11.1-4.5c5.5-1.2,5.6-10.1,12.6-8.5c0.7,1,2.4,1.6,2,3c-2.9,1.4-4.2,5-8.6,3.5
			c-0.9,0.6-1.1,1.5-0.5,3.5c4.8-1.3,7.7,1.8,11.1,4c3.5,0.8,6.1-1.3,8.6-2c-4-6.2,4.8-2.6,6-5c1.5-1.3-0.7-2.3,0-4
			c-3.8-3-8.2-7.8-13.6-11.6c2.9-2.1,6.1-4.7,10-5.5c3.5,2.6,9.5,5.2,15.1,4c5.4,8.7-4.8,16.7,2,25.6c3.3,1.5,6.6,4.6,10.5,3
			c0.3-2,2.3-3.2,3-5c2.9-6.7,12-4.5,16.6-9.6l11.1-2c7.9-3.9,9-17.5,18.6-19.6C273.8,42,265,38.5,256.6,37.3z M135.5,61.9h-4v-3
			c1.8,0.7,3-1.5,4.5,0L135.5,61.9z M162.1,58.4v2l-4.5,0.5l-0.5-3.5C158.8,57.7,161.1,56.6,162.1,58.4z M177.2,74.9
			c-2.4,6.1-1.1,9-7,13.6c-3.5-0.7-3.5,9.2-5,2c-2.5-5-10.4-2.4-12.1-8c-1-2.3,1.5-3.1,2.5-4.5c4.9,0.1,10-8.8,15.1-3
			C170.7,74.9,177.2,74.9,177.2,74.9z M176.2,60.4c-0.2,0.9,0.5,2.6-1,2.5c-2.7,1.2-2.7-1.9-4-3C170.5,56.7,176.7,57.2,176.2,60.4z"
			/>
	</g>
	<g>
		<path class="st0" d="M560.1,77.4c5.1-1.7,9.4-2.7,14.1-5.5c-3.1-4.8-9.5-9.6-15.1-13.1c-9.6-6.4-20.7,2.8-30.6-2
			c-5-3.8-12.6,0-16.1-4c-5.5,0.5-12-1.3-16.6,1.5c-11.2-3.2-22.2-0.4-33.7-3.5c0.5-2.8-3.5-1.2-3-4c-3.2,0.5-6.1-1.3-9,0
			c-1.9-4-7-0.3-9-4c-6.4,2.3-9.1-4.3-15.6-2c-0.2,5.3,6.4,2.7,9,5.5c-5.8,3.2-10.5,4.3-16.1,7c-1-1.3-3.1-2.2-3-4
			c-1.8-0.8-3.9-2.3-6-1c0.9,2.4-2.4,3.8-0.5,6c-2.9,1.5-5.5-0.7-8.6-0.5c-1.8,1-3.2,3.2-5.5,3c-2.2-2.8-5.3,1.2-7.5-1.5
			c-1.7,1-0.5,4.2-3,4c0.6-3.3-2.7-3.1-5-3l0.5,3c-6.8-3.3-15-4.5-22.1-7.5c-3.3,1.3-6-0.5-9.6,0.5c-11.6-2.4-10.5,13.8-20.6,14.6
			c-1,1.4-3.5,2.2-2.5,4.5c0.7,3.4,2.6,6,6,7c-1.3,2.9,2.6,4.8,0,7c-4.3-1-5,3.6-8.5,4.5c-3.4-2.6-7-6.9-6.5-11.5
			c-1.2-1.8-2.9-2.3-5-2c-3.2,1.2-1.2,4.5-2.5,6.5c-3.5-1.4-2.5,2.5-5.5,2c0.9,2.7-1.9,5,0.5,7c2-0.7,4.3-0.6,6-2
			c2,1.9,1.7,4.8,1,7.5c2.2,1,5.9,3.6,5.5,7c-2.4,5.3-9,0.2-13.6,2.5c1.8,4.5-1,8.3-1.5,12.6c1.8,1.8,6.1,1.2,7,4.5
			c-1.2,0.7-1.3,2.8-3.5,2c-0.1,10.8-13.2,13.7-15.6,23.6c4.7,7.7-2.8,14.7,0.5,22.6c6.7,3.8,7,13.2,14.1,16.1
			c7.7-0.9,16.2,1.8,23.1-3c2.2,5.3,10.2,1.2,12.1,7c-1.9,1.3-2,6-2,9c1.5,1.8,3.8,2.9,4.5,5.5c2.4,4.9,3.7,9.3,4.5,15.1
			c-3.7,1.7-1.6,6.8-4,9.5c0.8,13.1,9.1,24.9,11.1,38.2c5.2,4.5,12.5-0.8,18.1,0c8.2-5.2,9.4-15.8,16.6-21.6c0.3-1.9-0.5-3.4-1-5
			c1-4.2,6-8.7,9.5-10.1c2.7-5.5,1.8-12.6-0.5-17.6c-1.8-4.5,0.9-8.3,2.5-12.1c4.4-6.2,11.3-8.5,14.6-15.6
			c1.5-5.2,7.7-11.4,2.5-16.6c-4.2,0.5-7.4,2.6-11.6,3.5c-0.9-0.5-0.3-1.7-0.5-2.5c2.2-3.7,9.2-5.2,14.1-8
			c3.4-3.3,10.1-5.8,11.6-12.1c0.9-2.8-1.5-3.3-2-5c2.7-2.4,8.8-3.5,13.1-1.5c5.3,1.7,5.3,9.3,12.1,9c-0.1,6.2,3.7,12.1,6.5,17.6
			c-0.8,8.8,9.3,4.2,10,12.1c1.2-0.2,2.7,0.4,3.5-0.5c-2.1-5.9-5.2-11.8-4.5-18.6c4.1-2.7,6.6-7.4,10.5-10.5c0.1-4.4,4.9-1.4,7-3
			c3,3.2,5.6,7.8,7,12.6c1.8,0.5,2.9-0.8,4.5-1c0.6,8.1,6.4,15.6,6,24.1c-2.6-0.9-3.7-5.6-7.5-4v4c6.1,3.4,8,12.2,13.1,17.6
			c2.4,1.2,4.7,3.9,7,6c5-0.4,9.5,2.9,14.1,1l-0.5-2c-5-2.7-9.6-0.5-14.1-4.5c-0.3-1.4,0.6-2.2,0.5-3.5c-1.9-0.4-1.2-4.2-3.5-3.5
			c-0.9-5.2-0.2-9.8-3-14.1c-0.4-2-2.7-3.8-4.5-4c-1.1-3.3-2.5-7.2-0.5-10.1c4.7-0.2,4.7,5.7,8.5,7.5c3.2,0.5,5-3.7,7-5
			c-0.2-2.2,0.4-4.7-0.5-6.5c-0.3-3.8-4.9-4.8-6.5-7.5c0.3-1.3-0.8-3.3,1-4c1.2-0.4,1.7,0.7,2.5,0.5c0.3,2.4,1.2,2.6,1.5,4.5h2.5
			c0.8-1.5,0.8-4-0.5-5.5c3.8-4.8,11-2.1,14.1-8c0.1,2,0.8,4.7,3.5,4.5c0.3-1.5,1.4-2.7,1-4.5c0.3-2.2-2.1-1.9-4-1.5
			c-2.2-3.3,3.4-5.3,1.5-9c-0.8-2.3-2.4-4.3-2.5-7c-2.5,0.2-3.7-2.7-5.5-4c0.1-1.8,2.3-2.8,1.5-5c-0.5-0.8-1.4-0.8-2.5-1.5l2.5-2
			c2.8,2.9,8.8,4.9,10.1,10.1c1.4,0.3,2.2-0.6,3.5-0.5c0.3-2.5-0.3-4.6-1.5-6.5c-2.3,0.3-1.4-3.4-4-3c-0.2-4.1,3-6.4,7-7
			c-0.2-3.8,2.5-6.4,1.5-10.5c-3.1-4.3-4.1-8.6-3.5-14.1H539c-0.2,1,0.4,2.3,0,3c-3.3-1.6-9.5-1.2-10-5c-1.7-8,7.5-2.5,10.5-5.5
			c1.9-0.6,2.8,0.9,4,2c4.9,0.8,0.8-3.7,3.5-5.5c1.7-0.4,2.7,0.7,4,1c6.6-0.3-0.3,6.6,4,9c2.9,3.7,6.6,7.9,11.6,9.1
			c1.7-3.9-0.8-7.4-1.5-11.1C562.7,79.8,561.5,79.6,560.1,77.4z M345.1,79.5c3.3-4.9-2.2-7.7,1.5-11.6c2.4-0.4,3.2,0.3,3.5,2.5
			c1.3,2.5,5.3,2.7,4.5,7c-1.6-0.1-3.1,0-4,1.5c0.9,1.9,0.3,4.5-1,5c-2.9-1.3-4.3,0.2-7.5,0C340.1,81,344.4,81.9,345.1,79.5z
			 M381.7,131.2c-5.2-3.2-10.1,1.9-15.6-0.5c-0.8-2.4-4.7-1.4-6.5-3.5c-3.8,0.2-3.7,6-7,5.5c-1.5-3.8-7.7-3.1-7.5-7l-4,0.5l-0.5-7
			c-5.2,1.4-2.2-5.5-6-6c-3.2,1.2-0.3,3.7-0.5,5.5c-5.5-0.9-10.9,1.5-16.1,2.5c-0.4-2.9,1.3-5,2-7.5c3.2-0.9,3.7-4.3,5.5-5.5
			c3.4,1.7,6.9-1.3,10-1.5c2.5,6,9.9,5.5,10.6,11.6c3.5,0.5,1.8-3.8,5-4c-4.6-2-8.8-6.4-11.1-10c2.1-0.5,3.4,0.6,3.5,3
			c3.7,0.5,5.8,1.7,8.5,4.5l-1,2.5c3.4,2.1,4.8,5.7,7,8.6c1.8-1.2,2.4-2,3-4.5c-1.1-0.7-2.6-1.6-2-3.5c1.3-1.1,3.3-2.2,5-1l1.5,2
			c2.3-0.5,4.6-1.1,7-1.5v2.5c-3.2,0.5-7-1.3-9.6,1.5c-0.1,1.3,2,2.2,3,3.5c1.9,1.2,4.9-0.4,6.5,1.5c3.5-0.5,8,0.1,10.1-2.5
			C383.1,123.9,384.4,128.6,381.7,131.2z M398.3,166.9c-3.9-0.8-5.2-6.2-7.5-8.5l-0.5-6.5c-4-1.8-5-6.5-6-10.1
			c1.4-0.3,3.3,0.3,3,2.5c1.7,0.6,2,3.4,4,4.5l-0.5,3c2.2,3.7,6,5.3,8,10C397.9,163.9,400.7,166,398.3,166.9z"/>
	</g>
	<g>
		<path class="st0" d="M550.1,95c-0.2,0.8,0.4,2-0.5,2.5c-1.4-0.1-2.6-0.8-3.5-2v-4C548.7,91.2,548.9,93.3,550.1,95z"/>
	</g>
	<g>
		<path class="st0" d="M553.6,103.6c1.7,2.6,7.4,1.7,6.5,6c-0.9,3.2-4.2-0.9-5.5,3c-4.2-1.3-2.3-6-3.5-9H553.6z"/>
	</g>
	<g>
		<path class="st0" d="M560.1,118.6c-1.2,3.3,2.2,4.7,1,8c-3.8,2.7-10.8,1.8-11.6,7.5c-3.5,1.3-5.2-3.7-5.5-6
			c2.5-5.6,9.2-5.1,11.1-10.5l-0.5-3.5C557,115.3,560,115.1,560.1,118.6z"/>
	</g>
	<g>
		<path class="st0" d="M44,145.8c-0.4,1.6,1.7,3.6-1,4l-4-1.5v-4C41.2,144.5,41.7,145.8,44,145.8z"/>
	</g>
	<g>
		<path class="st0" d="M153.1,152.8c0.8,2.4-1.2,1.8-2.5,2.5l-0.5-3.5C151.5,151.1,151.7,153.5,153.1,152.8z"/>
	</g>
	<g>
		<path class="st0" d="M145.5,154.8c0.4,1.6,1.8,0.7,2,2.5l3-0.5c4.4,9,13.9,1,18.6,9.6c-1.1,2.9-5.3,0.6-7.5,2
			c-8.8-1.7-14.3-9.9-23.6-10c-0.8-1.8,1.4-2.7,2.5-3C142.5,155.9,143.5,154.2,145.5,154.8z"/>
	</g>
	<g>
		<path class="st0" d="M539,157.3c0,1.3,1.8,1.4,2,2c1.1,3-2.2,5.3,0,8c-3.6,1.8-3.1-1.5-5-3l0.5-7H539z"/>
	</g>
	<g>
		<path class="st0" d="M152.1,166.4c0,0.6,0.1,1.2-0.5,1.5c-1.4-0.3-3.2-0.9-2.5-3C150.6,164.9,152,164.6,152.1,166.4z"/>
	</g>
	<g>
		<path class="st0" d="M542.6,171.9c3.2,0.8,2.5,4.6,6.5,3.5c0.9,2.9,3.5,6.6,0.5,9.1c-3.5,1.2-3.5-4.7-7-2
			C544.2,176.8,538.4,177,542.6,171.9z"/>
	</g>
	<g>
		<path class="st0" d="M537,185c-0.3,3-2.3,6.3,0.5,9c-3,3-3.5,6.9-6,10.1c-2.9-1.9-7.2-0.3-10-2.5c-0.3-3.6-3.5-5.9-2.5-10
			c6.3-0.9,8.3-6.8,12.6-10.1C534.2,180.4,535.5,184.2,537,185z"/>
	</g>
	<g>
		<path class="st0" d="M564.2,195.5c-0.5,1.4,0.7,2.1,1.5,3c5.8-2.6,11.8,1.9,17.6,3c2.9,1.3,2.2,6.6,7,6c4,1,6.2-5.4,10.5-3.5
			c1.4,4.2-2.1,4.8-4.5,6.5c-2.1,0-3.4-1.5-6-1.5c0.7,2.7,2.6,6.9,4.5,10.1c-6.2,2.8-7.7-6.5-12.1-4.5c-1.8-0.5-1.6,1.9-3,2
			c-5.1,1-5.7-4.3-9.5-5.5v-5c-3.4-2.4-8.2-2.4-11.6-4c2-2.3-4.2-9.5,3-7.5C562.3,195.4,563.2,195.6,564.2,195.5z"/>
	</g>
	<g>
		<path class="st0" d="M557.1,202.6c-1.6,1.3-5.4-0.1-3.5-2.5C554.8,200.9,557.4,200.3,557.1,202.6z"/>
	</g>
	<g>
		<path class="st0" d="M537,212.6c0,0.9-1,1.3-1.5,2c-2,0.3-4.2-0.1-4-2.5C533,211.5,536.2,210.9,537,212.6z"/>
	</g>
	<g>
		<path class="st0" d="M551.1,212.1v2c-2.4,0.3-3.4,3.8-6.5,2.5c-2-2.1-4-1.9-5.5-4C543.3,212.4,546.5,210.8,551.1,212.1z"/>
	</g>
	<g>
		<path class="st0" d="M582.3,228.2c1.3,2.7,1.8,7.3,1.5,10.6c6,2,4.7,8.4,8.5,12.6c0.2,2.5,1.8,5,0.5,7.5c-0.5,5.8-3.3,9.6-7,14.1
			c-6.7,5.1-11.5,13.3-20.6,14.6c-3-1.9-7.4,0.2-10.5-4c-6.8-1.2-4.5-9.6-9.6-13.6c-11.5,0.5-22.2,7.6-33.7,7
			c-2.2-0.9-0.9-3.2-2-4.5c3.4-2,1.6-7,3.5-10.1c-2.7-1.2-1-4.3-1.5-6.5c2.3-2.7,1.7-6.7,2.5-10.1c12.3-4.1,21.7-12.1,31.7-19.1
			c1.3,0.2,2,1.7,3.5,1.5l1-2.5c1.4-0.1,1.3-1.7,2-2.5c3.9-4.2,10.7-0.8,15.1,1c2.1,2.5-6.3,5.3-0.5,6c1.1,1.5,1.6,3.3,4,4
			c5.4-2.4,1.7-10.4,6-14.1C582.3,220,578.4,226.4,582.3,228.2z"/>
	</g>
	<g>
		<path class="st0" d="M412.9,222.7c1.4,3,3.6,6.3,2,10.1c-2.6,3.1-3.1,7.2-4,11.1c-2.7,3-1.9,10.1-8,9c-0.8-1.8-2.7-0.8-3.5-2.5
			c-2.2-7.1,3.4-12.8,3.5-19.1C407.2,229.4,409.5,223.9,412.9,222.7z"/>
	</g>
	<g>
		<path class="st0" d="M617.4,269.4c1.2,0.9,3,0.3,4.5,0.5c3,5.8-5.4,6.9-4,12.1c-3.8,0.7-2.8,5.9-5.5,8.5c-1.5-0.2-4.1,2.7-4.5-0.5
			c0-3.3,0.8-7.3,2.5-10c1.6,0.2,3-0.2,4-1.5c-4.9-5.1,3-6-1-11.6C614.9,267.2,617.9,267.3,617.4,269.4z"/>
	</g>
	<g>
		<path class="st0" d="M565.2,289c1.8,1.5,1.8,3.5,1,4.5c-2.3,3.1-4.8,4.1-8,3.5c-2.3,1-1.4-1.6-2-2.5
			C557.3,289.7,561.5,289.1,565.2,289z"/>
	</g>
	<g>
		<path class="st0" d="M552.1,223.2c-0.7,0.8-0.6,2.4-2,2.5l-1-2.5H552.1z"/>
	</g>
	<g>
		<path class="st0" d="M541.1,167.4c1.3,0.2,2.8-0.6,4,0.5c0.5,2-0.7,1.8-2,2.5L541.1,167.4z"/>
	</g>
	<g>
		<path class="st0" d="M537.5,194c3.1-2.7,6.8-0.3,10.1-1c1.6,4.3-5.1,1.6-3.5,6c-2.3,2.1,0.8,4.5,0.5,7c-2.2,0.5-5,1.1-7,0.5
			C535.2,202.5,537.3,197.8,537.5,194z"/>
	</g>
	<g>
		<path class="st0" d="M85.2,92.5c-1.7,1.3-0.6,3.2-3,2.5c-1.8-0.9-0.7-3-1-4.5C83.3,89.4,84.4,90.7,85.2,92.5z"/>
	</g>
</g>
</svg>
