<?xml version="1.0" encoding="utf-8"?>
<!-- Generator: Adobe Illustrator 16.0.0, SVG Export Plug-In . SVG Version: 6.00 Build 0)  -->
<!DOCTYPE svg PUBLIC "-//W3C//DTD SVG 1.1//EN" "http://www.w3.org/Graphics/SVG/1.1/DTD/svg11.dtd">
<svg version="1.1" id="Layer_1" xmlns="http://www.w3.org/2000/svg" xmlns:xlink="http://www.w3.org/1999/xlink" x="0px" y="0px"
	 width="534px" height="279px" viewBox="25.5 175.5 534 279" enable-background="new 25.5 175.5 534 279" xml:space="preserve">
<g>
	<g>
		<path fill="#FFFFFF" d="M228.427,179.199c-9.614-0.356-19.229,0.801-28.664,3.561c-8.725-3.739-19.407-0.356-29.11-0.445
			l-1.78,1.78c-2.76-1.869-5.252-2.314-8.902-1.335l-0.444,3.561c0.444,0.445,1.513,1.514,2.226,2.226l-5.342,0.89l0.445,3.116
			c-4.718,0.089-10.237,2.137-13.442-1.78c-4.54,1.691-9.169-2.582-13.442,1.335l0.891,1.78c-4.54-2.938-11.84-2.938-16.558,0.89
			c-0.623,1.514,1.068,2.226,0.89,3.561c-1.958,0.356-3.115,1.602-5.341,1.78c-8.368-0.089-19.14,0.356-28.665-1.78
			c-8.189-3.027-16.023,1.958-23.68,3.116c-0.267,1.246,0.534,1.958,0.445,3.116l-8.457,1.335c-0.178,1.958,0.179,2.67,1.78,3.561
			c-2.67,2.047-6.498,0.801-8.991,3.116c-0.712,2.493-0.979,6.054,2.226,7.122c-2.492,2.938-7.478,1.247-9.881,3.561v2.67
			c5.074-0.356,10.594-4.54,16.112-2.67c1.336-1.068,4.006-0.712,4.006-3.116c5.608-1.424,11.484-6.766,18.339-2.226
			c2.314,1.603,1.068,5.074,1.78,7.122l2.226,0.445c-0.891,1.78-0.891,3.561,0,5.341c-0.534,0.801-1.335,0.979-2.226,0.89
			c-1.157,3.472,3.383,3.383,2.671,6.676c-2.76,0.979-0.979,5.431-4.896,5.787c-1.246,2.938-2.76,6.409-3.561,9.881
			c1.603,3.739-0.089,10.059,4.896,11.216c-1.067,4.985,3.294,7.567,1.781,12.552c3.383-0.267,1.958,7.566,7.121,6.676
			c0.534-2.493-2.137-4.629-1.335-7.122c1.513,3.205,5.875,6.677,6.677,11.217c-1.603,0.267-0.623,2.403-0.891,3.561
			c5.431,8.725,17.181,3.917,23.68,10.771c6.587,1.246,5.252,9.258,12.106,11.217c2.048,0.534,4.808,2.137,7.122,0.445
			c0,1.78,1.603,0.623,2.226,2.226c0.534,4.006-3.205,4.807-4.451,8.012c-3.383,2.938-0.712,7.21-2.671,10.771
			c1.603,5.431,5.431,11.306,8.012,17.003c2.137,4.451,6.588,9.703,12.553,12.107c2.403,1.513,2.759,5.341,3.115,8.545
			c-0.089,17.894,0.534,35.965,3.116,53.68c1.78,1.336,1.246,5.787,4.006,7.567c2.492,4.896,5.964,9.436,11.661,10.771
			c2.048-1.068,2.403,1.958,4.451,0.89c0.979-1.513,4.808,0.089,3.561-3.115c-3.472-0.445-6.854-3.917-8.012-7.122
			c0.445-2.403,1.246-3.204,2.226-5.341c2.137-3.917-3.828-2.938-2.671-6.231c0.268-0.802,1.157-0.268,1.781-0.445
			c0.178-1.514-0.356-3.294,0.444-4.451c-1.335-6.231,6.677-8.19,10.327-12.106c1.157-2.226-2.048-2.582-1.781-4.451
			c0.891-0.801,2.404-0.268,3.562-0.445c3.383-1.068,4.184-5.43,6.677-8.012c0.089-3.738,5.519-6.231,2.225-10.326
			c0.802-2.137,3.205-4.541,5.342-5.342c1.691-2.492,6.143-0.355,8.012-3.561c3.828-7.121,1.691-15.312,4.006-22.789
			c1.068-0.713,2.671-0.268,3.561-1.336c3.383-2.67,2.404-8.279,1.336-11.662c-7.478-6.23-17.448-7.744-25.994-12.105
			c-3.65-2.315-2.314-10.238-8.012-12.107c-2.137-3.205-8.546,0.979-8.991-3.561c-1.869-3.205-6.677-4.273-8.991-7.567
			c-3.561,0.268-5.697-0.178-9.348,0c-2.581-1.691-4.54-4.273-8.012-3.561c-5.43,1.513-7.834,5.252-10.326,10.326
			c-2.492,0.891-5.252-1.513-8.012,0c-5.876-3.383,2.314-10.504-3.561-13.887c-1.603-0.445-2.582,0.712-4.006,0.89
			c-2.137-2.938,2.581-5.608,1.335-8.902l-2.226-1.78c-4.808-0.623-4.54,3.65-7.566,5.786c-2.137-0.356-5.074,1.068-6.231-1.78
			c-1.068-4.896,0.444-9.792,2.67-14.333c5.697-4.184,13.265-2.493,18.783-3.561c4.985,0.356,0.713,10.148,8.013,8.012l-0.891-9.347
			c3.116-4.718,7.389-5.875,11.662-9.347c-1.425-2.938,2.403-3.739,2.226-5.786c0.89-4.896,9.258-3.205,9.347-8.457
			c1.959-0.712,3.472-2.404,5.786-2.226c0.445,0.89,1.959,0,1.78,1.335c2.938-1.869,8.279-1.424,9.882-5.341
			c-1.603-4.896-3.116,1.513-5.786-0.891c0.089-2.136,0.801-4.006,1.78-5.786c2.314-0.089,4.54,0,6.231,1.335
			c-1.425,0.623-0.712,2.047-0.891,3.116c2.76,0.712,5.965,2.136,9.348,2.226c0.445-2.048,1.424-6.231-1.78-6.677
			c0.089-3.472,2.581-5.608,0-8.991c-0.713-2.226-3.116-0.445-4.006-2.226c1.602-2.226-0.891-5.074-1.336-7.656
			c-3.383-1.958-3.561,3.739-6.231,0.89c-0.801-2.047-1.691-3.026-3.115-4.451c-3.294-1.781-8.546,1.335-9.882-4.006
			c4.896-1.068,4.985-8.991,11.217-7.567c0.623,0.89,2.137,1.424,1.78,2.67c-2.581,1.247-3.738,4.451-7.655,3.116
			c-0.802,0.534-0.979,1.335-0.445,3.116c4.272-1.157,6.854,1.603,9.881,3.561c3.116,0.712,5.431-1.157,7.656-1.78
			c-3.561-5.52,4.272-2.315,5.341-4.451c1.336-1.157-0.623-2.047,0-3.561c-3.383-2.67-7.3-6.943-12.106-10.326
			c2.581-1.87,5.431-4.184,8.902-4.896c3.115,2.314,8.457,4.629,13.441,3.561c4.808,7.745-4.272,14.867,1.781,22.79
			c2.938,1.335,5.875,4.095,9.347,2.67c0.268-1.78,2.048-2.849,2.671-4.451c2.581-5.964,10.683-4.006,14.777-8.546l9.881-1.78
			c7.033-3.472,8.013-15.579,16.559-17.448C243.739,183.383,235.906,180.267,228.427,179.199z M120.623,201.098h-3.561v-2.671
			c1.602,0.623,2.67-1.335,4.006,0L120.623,201.098z M144.303,197.982v1.78l-4.006,0.445l-0.445-3.116
			C141.365,197.359,143.412,196.38,144.303,197.982z M157.744,212.671c-2.136,5.43-0.979,8.012-6.231,12.106
			c-3.115-0.623-3.115,8.19-4.45,1.78c-2.226-4.451-9.259-2.136-10.771-7.122c-0.891-2.047,1.335-2.759,2.225-4.006
			c4.362,0.089,8.902-7.833,13.442-2.67C151.958,212.671,157.744,212.671,157.744,212.671z M156.855,199.763
			c-0.178,0.801,0.445,2.314-0.891,2.226c-2.403,1.068-2.403-1.691-3.561-2.671C151.781,196.469,157.3,196.914,156.855,199.763z"/>
	</g>
	<g>
		<path fill="#FFFFFF" d="M498.605,214.896c4.54-1.513,8.368-2.403,12.552-4.896c-2.759-4.273-8.456-8.546-13.441-11.662
			c-8.546-5.697-18.428,2.493-27.24-1.781c-4.451-3.382-11.217,0-14.333-3.561c-4.896,0.445-10.683-1.157-14.777,1.335
			c-9.97-2.849-19.763-0.356-30-3.116c0.445-2.493-3.115-1.068-2.67-3.561c-2.849,0.445-5.431-1.157-8.013,0
			c-1.691-3.561-6.231-0.267-8.012-3.561c-5.697,2.048-8.101-3.828-13.887-1.78c-0.179,4.718,5.697,2.404,8.012,4.896
			c-5.163,2.849-9.348,3.828-14.332,6.231c-0.891-1.157-2.76-1.958-2.671-3.561c-1.603-0.712-3.472-2.047-5.342-0.89
			c0.802,2.136-2.136,3.383-0.444,5.341c-2.582,1.335-4.896-0.624-7.656-0.445c-1.603,0.89-2.849,2.849-4.896,2.67
			c-1.958-2.492-4.718,1.068-6.676-1.335c-1.514,0.89-0.445,3.739-2.671,3.561c0.534-2.938-2.403-2.759-4.451-2.67l0.445,2.67
			c-6.054-2.938-13.354-4.006-19.674-6.676c-2.938,1.157-5.341-0.445-8.546,0.445c-10.326-2.136-9.348,12.285-18.338,12.997
			c-0.891,1.247-3.116,1.958-2.226,4.006c0.623,3.027,2.314,5.341,5.341,6.231c-1.157,2.582,2.314,4.273,0,6.231
			c-3.827-0.89-4.451,3.205-7.566,4.006c-3.026-2.315-6.231-6.143-5.786-10.238c-1.068-1.602-2.582-2.047-4.451-1.78
			c-2.849,1.068-1.068,4.006-2.226,5.787c-3.116-1.247-2.226,2.225-4.896,1.78c0.802,2.403-1.691,4.451,0.445,6.231
			c1.78-0.623,3.828-0.534,5.341-1.78c1.781,1.691,1.514,4.273,0.891,6.676c1.958,0.89,5.252,3.205,4.896,6.231
			c-2.137,4.718-8.012,0.178-12.107,2.226c1.603,4.006-0.89,7.389-1.335,11.217c1.603,1.602,5.431,1.068,6.231,4.006
			c-1.068,0.623-1.157,2.493-3.116,1.78c-0.089,9.614-11.75,12.196-13.887,21.009c4.184,6.855-2.493,13.086,0.445,20.119
			c5.964,3.383,6.231,11.751,12.552,14.332c6.854-0.802,14.421,1.603,20.563-2.671c1.959,4.719,9.08,1.068,10.771,6.232
			c-1.691,1.156-1.78,5.341-1.78,8.012c1.335,1.602,3.383,2.581,4.006,4.896c2.137,4.362,3.294,8.279,4.006,13.442
			c-3.294,1.514-1.425,6.053-3.561,8.457c0.712,11.662,8.101,22.166,9.881,34.006c4.629,4.006,11.128-0.713,16.113,0
			c7.3-4.629,8.367-14.065,14.777-19.229c0.267-1.691-0.445-3.027-0.891-4.451c0.891-3.738,5.342-7.744,8.457-8.991
			c2.403-4.896,1.603-11.216-0.445-15.667c-1.602-4.006,0.802-7.389,2.226-10.771c3.917-5.52,10.06-7.567,12.997-13.888
			c1.336-4.629,6.854-10.148,2.226-14.777c-3.738,0.445-6.587,2.314-10.326,3.116c-0.801-0.445-0.268-1.514-0.445-2.226
			c1.959-3.294,8.19-4.629,12.552-7.122c3.027-2.938,8.991-5.163,10.327-10.771c0.801-2.493-1.336-2.938-1.781-4.451
			c2.404-2.137,7.834-3.116,11.662-1.335c4.718,1.513,4.718,8.279,10.771,8.012c-0.089,5.519,3.294,10.771,5.786,15.667
			c-0.712,7.833,8.279,3.739,8.902,10.771c1.068-0.178,2.403,0.356,3.116-0.445c-1.87-5.252-4.63-10.504-4.007-16.557
			c3.65-2.404,5.876-6.587,9.348-9.347c0.089-3.917,4.362-1.247,6.231-2.671c2.671,2.849,4.985,6.944,6.231,11.217
			c1.603,0.445,2.582-0.712,4.006-0.89c0.534,7.21,5.697,13.887,5.341,21.454c-2.314-0.801-3.293-4.984-6.676-3.561v3.561
			c5.43,3.027,7.121,10.861,11.661,15.668c2.137,1.068,4.185,3.472,6.231,5.342c4.451-0.356,8.457,2.581,12.552,0.89l-0.444-1.78
			c-4.451-2.404-8.546-0.445-12.553-4.006c-0.267-1.246,0.534-1.959,0.445-3.115c-1.691-0.357-1.068-3.74-3.115-3.116
			c-0.802-4.63-0.179-8.724-2.671-12.552c-0.356-1.781-2.403-3.383-4.006-3.561c-0.979-2.938-2.226-6.41-0.445-8.992
			c4.185-0.178,4.185,5.074,7.567,6.676c2.849,0.445,4.45-3.294,6.231-4.451c-0.179-1.958,0.355-4.184-0.445-5.787
			c-0.268-3.383-4.362-4.273-5.786-6.676c0.267-1.157-0.713-2.938,0.89-3.561c1.068-0.356,1.514,0.623,2.226,0.445
			c0.268,2.136,1.068,2.314,1.335,4.006h2.226c0.713-1.335,0.713-3.561-0.444-4.896c3.383-4.273,9.792-1.87,12.552-7.122
			c0.089,1.781,0.712,4.184,3.115,4.006c0.268-1.335,1.246-2.404,0.891-4.006c0.267-1.958-1.869-1.691-3.561-1.335
			c-1.959-2.938,3.026-4.718,1.335-8.012c-0.712-2.047-2.137-3.828-2.226-6.231c-2.226,0.178-3.294-2.403-4.896-3.561
			c0.089-1.603,2.048-2.493,1.336-4.451c-0.445-0.712-1.247-0.712-2.226-1.335l2.226-1.78c2.492,2.582,7.834,4.362,8.991,8.991
			c1.246,0.267,1.958-0.534,3.115-0.445c0.267-2.226-0.267-4.095-1.335-5.786c-2.048,0.267-1.247-3.027-3.562-2.671
			c-0.178-3.65,2.671-5.697,6.231-6.231c-0.178-3.383,2.226-5.697,1.336-9.347c-2.76-3.828-3.65-7.656-3.116-12.552h-2.314
			c-0.178,0.89,0.356,2.047,0,2.67c-2.938-1.424-8.457-1.068-8.902-4.451c-1.513-7.122,6.677-2.226,9.348-4.896
			c1.691-0.534,2.492,0.801,3.561,1.781c4.362,0.712,0.712-3.294,3.116-4.896c1.513-0.356,2.403,0.624,3.561,0.89
			c5.875-0.267-0.267,5.875,3.561,8.012c2.582,3.293,5.876,7.033,10.327,8.101c1.513-3.472-0.713-6.587-1.336-9.881
			C500.919,217.033,499.852,216.854,498.605,214.896z M307.21,216.766c2.938-4.362-1.958-6.854,1.336-10.326
			c2.136-0.356,2.849,0.267,3.115,2.225c1.157,2.226,4.718,2.404,4.006,6.231c-1.424-0.089-2.76,0-3.561,1.335
			c0.801,1.691,0.267,4.006-0.891,4.451c-2.581-1.157-3.827,0.178-6.676,0C302.759,218.101,306.587,218.902,307.21,216.766z
			 M339.792,262.79c-4.629-2.849-8.991,1.691-13.888-0.445c-0.712-2.137-4.184-1.246-5.786-3.116
			c-3.383,0.178-3.294,5.341-6.231,4.896c-1.335-3.383-6.854-2.759-6.677-6.231l-3.561,0.445l-0.445-6.231
			c-4.629,1.246-1.958-4.896-5.341-5.341c-2.849,1.068-0.267,3.294-0.445,4.896c-4.896-0.801-9.703,1.335-14.332,2.226
			c-0.356-2.582,1.157-4.451,1.78-6.676c2.849-0.801,3.294-3.828,4.896-4.896c3.026,1.514,6.142-1.157,8.901-1.335
			c2.226,5.341,8.813,4.896,9.437,10.326c3.115,0.445,1.603-3.383,4.451-3.561c-4.096-1.78-7.834-5.697-9.882-8.902
			c1.87-0.445,3.027,0.534,3.116,2.67c3.294,0.445,5.163,1.514,7.566,4.006l-0.89,2.225c3.026,1.87,4.272,5.074,6.231,7.656
			c1.602-1.068,2.136-1.78,2.67-4.006c-0.979-0.623-2.314-1.424-1.78-3.116c1.157-0.979,2.938-1.958,4.451-0.89l1.335,1.78
			c2.048-0.445,4.096-0.979,6.231-1.335v2.226c-2.849,0.445-6.231-1.157-8.546,1.335c-0.089,1.157,1.78,1.958,2.671,3.116
			c1.691,1.068,4.362-0.356,5.786,1.335c3.116-0.445,7.122,0.089,8.991-2.226C341.038,256.291,342.196,260.475,339.792,262.79z
			 M354.57,294.57c-3.472-0.712-4.629-5.52-6.677-7.567l-0.445-5.786c-3.561-1.603-4.451-5.787-5.341-8.991
			c1.246-0.267,2.938,0.267,2.671,2.226c1.513,0.534,1.78,3.026,3.561,4.006l-0.445,2.67c1.959,3.294,5.342,4.718,7.122,8.902
			C354.213,291.899,356.706,293.769,354.57,294.57z"/>
	</g>
	<g>
		<path fill="#FFFFFF" d="M489.703,230.564c-0.179,0.712,0.355,1.78-0.445,2.226c-1.246-0.089-2.314-0.712-3.116-1.781v-3.561
			C488.456,227.181,488.635,229.05,489.703,230.564z"/>
	</g>
	<g>
		<path fill="#FFFFFF" d="M492.819,238.22c1.514,2.314,6.588,1.513,5.786,5.341c-0.801,2.849-3.738-0.801-4.896,2.67
			c-3.739-1.157-2.048-5.341-3.116-8.012H492.819z"/>
	</g>
	<g>
		<path fill="#FFFFFF" d="M498.605,251.573c-1.068,2.938,1.959,4.184,0.891,7.122c-3.383,2.404-9.614,1.603-10.326,6.677
			c-3.116,1.157-4.63-3.294-4.896-5.341c2.226-4.985,8.19-4.54,9.881-9.347l-0.444-3.116
			C495.846,248.635,498.516,248.457,498.605,251.573z"/>
	</g>
	<g>
		<path fill="#FFFFFF" d="M39.169,275.786c-0.356,1.425,1.514,3.205-0.891,3.561l-3.561-1.335v-3.561
			C36.677,274.629,37.121,275.786,39.169,275.786z"/>
	</g>
	<g>
		<path fill="#FFFFFF" d="M136.291,282.018c0.712,2.137-1.068,1.603-2.226,2.226l-0.445-3.116
			C134.866,280.504,135.044,282.641,136.291,282.018z"/>
	</g>
	<g>
		<path fill="#FFFFFF" d="M129.526,283.798c0.355,1.424,1.602,0.623,1.78,2.226l2.67-0.445c3.917,8.012,12.374,0.89,16.559,8.546
			c-0.979,2.582-4.719,0.534-6.677,1.781c-7.834-1.514-12.73-8.813-21.009-8.902c-0.712-1.603,1.246-2.403,2.226-2.67
			C126.855,284.777,127.744,283.264,129.526,283.798z"/>
	</g>
	<g>
		<path fill="#FFFFFF" d="M479.822,286.024c0,1.157,1.603,1.246,1.78,1.78c0.979,2.67-1.958,4.718,0,7.122
			c-3.204,1.603-2.76-1.335-4.451-2.67l0.445-6.231H479.822z"/>
	</g>
	<g>
		<path fill="#FFFFFF" d="M135.401,294.125c0,0.534,0.089,1.068-0.445,1.335c-1.246-0.267-2.849-0.801-2.226-2.671
			C134.066,292.789,135.312,292.522,135.401,294.125z"/>
	</g>
	<g>
		<path fill="#FFFFFF" d="M483.027,299.021c2.849,0.712,2.226,4.094,5.786,3.116c0.801,2.582,3.116,5.875,0.445,8.101
			c-3.116,1.068-3.116-4.185-6.231-1.78C484.45,303.383,479.287,303.561,483.027,299.021z"/>
	</g>
	<g>
		<path fill="#FFFFFF" d="M478.041,310.683c-0.267,2.671-2.048,5.608,0.445,8.012c-2.671,2.671-3.116,6.143-5.342,8.991
			c-2.581-1.691-6.409-0.268-8.901-2.226c-0.268-3.204-3.116-5.253-2.226-8.902c5.608-0.801,7.389-6.054,11.217-8.991
			C475.549,306.588,476.706,309.971,478.041,310.683z"/>
	</g>
	<g>
		<path fill="#FFFFFF" d="M502.255,320.029c-0.445,1.246,0.623,1.869,1.335,2.671c5.163-2.314,10.505,1.691,15.668,2.671
			c2.581,1.157,1.958,5.875,6.231,5.341c3.561,0.891,5.52-4.807,9.347-3.115c1.247,3.739-1.869,4.272-4.006,5.786
			c-1.869,0-3.026-1.336-5.341-1.336c0.623,2.404,2.314,6.143,4.006,8.992c-5.52,2.492-6.854-5.787-10.771-4.006
			c-1.603-0.445-1.425,1.691-2.671,1.779c-4.54,0.891-5.074-3.827-8.457-4.896v-4.451c-3.026-2.136-7.3-2.136-10.326-3.561
			c1.78-2.048-3.739-8.457,2.671-6.677C500.564,319.94,501.365,320.119,502.255,320.029z"/>
	</g>
	<g>
		<path fill="#FFFFFF" d="M495.935,326.35c-1.425,1.158-4.808-0.088-3.116-2.225C493.887,324.837,496.201,324.303,495.935,326.35z"
			/>
	</g>
	<g>
		<path fill="#FFFFFF" d="M478.041,335.252c0,0.801-0.891,1.158-1.335,1.781c-1.78,0.267-3.739-0.09-3.562-2.227
			C474.481,334.273,477.329,333.738,478.041,335.252z"/>
	</g>
	<g>
		<path fill="#FFFFFF" d="M490.593,334.807v1.781c-2.137,0.267-3.026,3.383-5.786,2.225c-1.78-1.869-3.561-1.691-4.896-3.561
			C483.65,335.074,486.498,333.65,490.593,334.807z"/>
	</g>
	<g>
		<path fill="#FFFFFF" d="M518.367,349.14c1.157,2.403,1.603,6.499,1.336,9.437c5.341,1.779,4.184,7.477,7.566,11.217
			c0.178,2.225,1.603,4.45,0.445,6.676c-0.445,5.163-2.938,8.546-6.231,12.553c-5.965,4.539-10.237,11.839-18.339,12.996
			c-2.67-1.691-6.587,0.178-9.347-3.561c-6.054-1.068-4.006-8.546-8.546-12.107c-10.237,0.445-19.763,6.766-30,6.232
			c-1.959-0.802-0.802-2.85-1.78-4.006c3.026-1.781,1.424-6.232,3.115-8.992c-2.403-1.067-0.89-3.827-1.335-5.785
			c2.047-2.404,1.513-5.965,2.226-8.992c10.949-3.649,19.317-10.771,28.22-17.002c1.157,0.178,1.78,1.513,3.115,1.335l0.891-2.226
			c1.246-0.089,1.157-1.514,1.78-2.226c3.472-3.739,9.525-0.712,13.442,0.89c1.869,2.227-5.608,4.719-0.445,5.342
			c0.979,1.336,1.424,2.938,3.561,3.561c4.808-2.137,1.514-9.258,5.342-12.552C518.367,341.84,514.896,347.537,518.367,349.14z"/>
	</g>
	<g>
		<path fill="#FFFFFF" d="M367.567,344.243c1.246,2.671,3.205,5.608,1.78,8.991c-2.314,2.76-2.76,6.41-3.561,9.881
			c-2.404,2.671-1.691,8.992-7.122,8.012c-0.712-1.602-2.403-0.711-3.115-2.225c-1.959-6.32,3.026-11.395,3.115-17.004
			C362.492,350.207,364.54,345.312,367.567,344.243z"/>
	</g>
	<g>
		<path fill="#FFFFFF" d="M549.614,385.816c1.068,0.801,2.671,0.267,4.007,0.445c2.67,5.162-4.808,6.142-3.562,10.771
			c-3.383,0.623-2.492,5.252-4.896,7.566c-1.336-0.178-3.65,2.403-4.006-0.445c0-2.938,0.712-6.498,2.226-8.902
			c1.424,0.178,2.67-0.178,3.561-1.335c-4.362-4.54,2.67-5.341-0.891-10.327C547.389,383.857,550.059,383.947,549.614,385.816z"/>
	</g>
	<g>
		<path fill="#FFFFFF" d="M503.145,403.264c1.603,1.336,1.603,3.116,0.891,4.006c-2.048,2.76-4.273,3.65-7.122,3.116
			c-2.047,0.89-1.246-1.425-1.78-2.226C496.113,403.887,499.852,403.354,503.145,403.264z"/>
	</g>
	<g>
		<path fill="#FFFFFF" d="M491.484,344.688c-0.623,0.712-0.534,2.137-1.78,2.226l-0.891-2.226H491.484z"/>
	</g>
	<g>
		<path fill="#FFFFFF" d="M481.691,295.015c1.157,0.178,2.493-0.534,3.562,0.445c0.445,1.78-0.623,1.603-1.78,2.226L481.691,295.015
			z"/>
	</g>
	<g>
		<path fill="#FFFFFF" d="M478.487,318.694c2.76-2.403,6.053-0.267,8.991-0.89c1.424,3.827-4.54,1.424-3.116,5.341
			c-2.047,1.869,0.712,4.006,0.445,6.231c-1.959,0.445-4.451,0.979-6.231,0.445C476.439,326.262,478.309,322.077,478.487,318.694z"
			/>
	</g>
	<g>
		<path fill="#FFFFFF" d="M75.846,228.338c-1.514,1.157-0.534,2.849-2.671,2.226c-1.603-0.801-0.623-2.671-0.891-4.006
			C74.155,225.579,75.133,226.736,75.846,228.338z"/>
	</g>
</g>
</svg>
