<?xml version="1.0" encoding="utf-8"?>
<!-- Generator: Adobe Illustrator 16.0.0, SVG Export Plug-In . SVG Version: 6.00 Build 0)  -->
<!DOCTYPE svg PUBLIC "-//W3C//DTD SVG 1.1//EN" "http://www.w3.org/Graphics/SVG/1.1/DTD/svg11.dtd">
<svg version="1.1" id="Layer_1" xmlns="http://www.w3.org/2000/svg" xmlns:xlink="http://www.w3.org/1999/xlink" x="0px" y="0px"
	 width="674px" height="346px" viewBox="0 0 674 346" enable-background="new 0 0 674 346" xml:space="preserve">
<g>
	<g>
		<path fill="#7E9C2E" d="M256.608,37.275c-10.758-0.406-21.603,0.9-32.165,4.018c-9.846-4.227-21.813-0.406-32.657-0.505
			l-2.021,2.009c-3.118-2.107-5.928-2.613-10.044-1.504l-0.505,4.018c0.505,0.493,1.713,1.713,2.514,2.514l-6.026,0.999l0.493,3.524
			c-5.324,0.099-11.461,2.403-15.072-2.009c-5.126,1.91-10.253-2.92-15.084,1.503l1.011,2.009
			c-5.126-3.315-13.272-3.315-18.596,1.011c-0.702,1.7,1.208,2.501,1.011,4.018c-2.206,0.394-3.524,1.799-6.039,2.009
			c-9.439-0.099-21.504,0.394-32.164-2.009c-9.242-3.426-17.992,2.206-26.631,3.512c-0.296,1.405,0.604,2.206,0.505,3.513
			l-9.55,1.516c-0.209,2.206,0.209,3.007,2.008,4.018c-3.019,2.304-7.332,0.899-10.056,3.512c-0.801,2.822-1.097,6.827,2.514,8.035
			c-2.81,3.315-8.442,1.417-11.054,4.03v3.007c5.73-0.394,11.867-5.114,18.103-3.007c1.503-1.208,4.523-0.813,4.523-3.525
			c6.322-1.602,12.854-7.64,20.592-2.514c2.613,1.812,1.208,5.73,2.021,8.047l2.514,0.505c-1.01,1.996-1.01,4.018,0,6.025
			c-0.616,0.9-1.516,1.098-2.514,0.999c-1.318,3.919,3.808,3.82,3.007,7.542c-3.118,1.109-1.109,6.125-5.521,6.531
			c-1.417,3.314-3.118,7.234-4.03,11.054c1.812,4.215-0.098,11.252,5.533,12.558c-1.207,5.62,3.722,8.541,2.009,14.062
			c3.82-0.296,2.219,8.54,8.035,7.542c0.616-2.822-2.403-5.226-1.503-8.047c1.713,3.623,6.63,7.541,7.542,12.569
			c-1.812,0.296-0.703,2.712-1.01,4.018c6.137,9.847,19.298,4.424,26.643,12.064c7.443,1.393,5.927,10.438,13.568,12.558
			c2.305,0.604,5.423,2.403,8.035,0.493c0,2.021,1.812,0.702,2.514,2.514c0.604,4.523-3.61,5.423-5.027,9.046
			c-3.809,3.315-0.801,8.134-3.007,12.052c1.799,6.125,6.125,12.669,9.045,19.09c2.403,5.027,7.431,10.856,14.062,13.568
			c2.723,1.7,3.117,6.025,3.524,9.551c-0.099,20.087,0.604,40.383,3.524,60.286c2.009,1.503,1.405,6.531,4.522,8.54
			c2.81,5.533,6.729,10.647,13.063,12.053c2.317-1.196,2.711,2.218,5.028,1.01c1.097-1.713,5.423,0.111,4.018-3.524
			c-3.919-0.493-7.739-4.411-9.045-8.035c0.505-2.711,1.405-3.61,2.514-6.026c2.403-4.424-4.326-3.314-3.02-7.036
			c0.308-0.899,1.307-0.296,2.009-0.505c0.197-1.701-0.406-3.71,0.505-5.016c-1.503-7.037,7.53-9.243,11.559-13.568
			c1.307-2.502-2.316-2.908-2.009-5.016c1.011-0.912,2.711-0.309,4.018-0.506c3.82-1.207,4.72-6.137,7.542-9.045
			c0.099-4.227,6.224-7.037,2.514-11.56c0.9-2.415,3.611-5.126,6.026-6.026c1.91-2.81,6.938-0.406,9.046-4.029
			c4.313-8.035,1.91-17.167,4.522-25.621c1.208-0.788,3.02-0.295,4.018-1.491c3.833-3.019,2.711-9.255,1.516-13.063
			c-8.355-7.036-19.606-8.651-29.157-13.581c-4.116-2.6-2.612-11.547-9.033-13.555c-2.415-3.624-9.551,1.096-10.056-4.019
			c-2.12-3.623-7.542-4.83-10.056-8.539c-4.017,0.295-6.433-0.21-10.549,0c-2.92-1.91-5.126-4.831-9.045-4.03
			c-6.137,1.713-8.75,5.94-11.56,11.56c-2.822,1.01-5.939-1.701-9.045,0c-6.642-3.82,2.613-11.757-4.03-15.564
			c-1.799-0.506-2.908,0.801-4.51,0.998c-2.416-3.315,2.908-6.334,1.503-10.044l-2.514-2.009c-5.435-0.715-5.127,4.116-8.541,6.52
			c-2.416-0.395-5.73,1.22-7.037-2.009c-1.208-5.521,0.493-11.042,3.007-16.069c6.433-4.721,14.875-2.822,21.11-4.018
			c5.632,0.406,0.801,11.448,9.045,9.045l-0.998-10.549c3.513-5.324,8.343-6.643,13.063-10.549
			c-1.614-3.327,2.711-4.227,2.514-6.544c0.998-5.521,10.352-3.61,10.549-9.538c2.218-0.801,3.919-2.711,6.531-2.514
			c0.505,1.01,2.218,0,2.009,1.503c3.327-2.107,9.255-1.603,11.066-6.026c-1.812-5.533-3.524,1.713-6.544-0.998
			c0.099-2.415,0.912-4.535,2.021-6.531c2.612-0.099,5.114,0,7.037,1.504c-1.615,0.702-0.813,2.304-1.01,3.512
			c3.118,0.801,6.729,2.415,10.549,2.514c0.505-2.305,1.614-7.037-2.009-7.529c0.111-3.919,2.92-6.334,0-10.056
			c-0.801-2.501-3.513-0.493-4.523-2.501c1.812-2.514-1.01-5.743-1.503-8.553c-3.82-2.206-4.018,4.227-7.037,1.011
			c-0.912-2.317-1.91-3.426-3.525-5.028c-3.709-2.009-9.649,1.504-11.054-4.522c5.533-1.195,5.632-10.143,12.57-8.54
			c0.703,1.01,2.416,1.614,2.009,3.019c-2.92,1.405-4.227,5.028-8.552,3.512c-0.888,0.604-1.097,1.516-0.493,3.524
			c4.818-1.318,7.739,1.799,11.054,4.018c3.524,0.801,6.137-1.307,8.552-2.021c-4.029-6.223,4.818-2.613,6.026-5.016
			c1.503-1.306-0.702-2.305,0-4.018c-3.82-3.019-8.244-7.837-13.568-11.559c2.908-2.107,6.125-4.72,10.044-5.521
			c3.524,2.613,9.452,5.226,15.084,4.018c5.422,8.737-4.831,16.674,2.009,25.621c3.314,1.503,6.63,4.622,10.549,3.019
			c0.308-2.009,2.304-3.216,3.019-5.028c2.909-6.729,11.954-4.523,16.575-9.55l11.054-2.009c7.948-3.919,8.959-17.475,18.608-19.582
			C273.799,41.996,264.951,38.483,256.608,37.275z M135.493,61.886h-4.017v-3.007c1.812,0.702,3.007-1.516,4.522,0L135.493,61.886z
			 M162.124,58.373v2.009l-4.523,0.506l-0.493-3.525C158.809,57.671,161.125,56.562,162.124,58.373z M177.208,74.948
			c-2.416,6.125-1.109,9.046-7.049,13.568c-3.5-0.702-3.5,9.243-5.016,2.009c-2.514-5.028-10.352-2.416-12.052-8.035
			c-1.011-2.316,1.503-3.118,2.501-4.522c4.929,0.099,9.958-8.849,15.084-3.02H177.208z M176.197,60.382
			c-0.197,0.9,0.505,2.613-1.011,2.514c-2.711,1.208-2.711-1.91-4.005-3.019C170.479,56.66,176.702,57.166,176.197,60.382z"/>
	</g>
	<g>
		<path fill="#7E9C2E" d="M560.147,77.45c5.126-1.701,9.354-2.711,14.073-5.521c-3.118-4.818-9.452-9.551-15.084-13.063
			c-9.637-6.433-20.703,2.81-30.648-2.009c-5.028-3.82-12.57,0-16.082-4.018c-5.533,0.493-11.966-1.306-16.588,1.504
			c-11.152-3.217-22.207-0.395-33.667-3.524c0.505-2.81-3.513-1.195-3.02-4.018c-3.217,0.505-6.138-1.307-9.046,0
			c-1.91-4.018-7.036-0.296-9.045-4.018c-6.433,2.317-9.145-4.313-15.577-2.009c-0.209,5.336,6.433,2.711,9.046,5.533
			c-5.829,3.217-10.549,4.313-16.082,7.024c-0.998-1.306-3.118-2.206-3.008-4.018c-1.811-0.801-3.918-2.304-6.038-0.998
			c0.912,2.403-2.415,3.82-0.493,6.026c-2.92,1.503-5.533-0.703-8.553-0.505c-1.811,1.01-3.216,3.216-5.533,3.019
			c-2.205-2.81-5.323,1.195-7.529-1.516c-1.713,1.011-0.505,4.227-3.02,4.03c0.604-3.328-2.711-3.118-5.027-3.019l0.505,3.019
			c-6.827-3.328-14.973-4.523-22.108-7.542c-3.314,1.306-6.025-0.493-9.551,0.505c-11.559-2.416-10.549,13.765-20.604,14.566
			c-0.998,1.405-3.512,2.218-2.514,4.522c0.702,3.414,2.612,6.026,6.026,7.037c-1.306,2.908,2.613,4.818,0,7.036
			c-4.313-1.01-5.028,3.611-8.54,4.511c-3.414-2.601-7.037-6.926-6.532-11.547c-1.208-1.812-2.92-2.317-5.028-2.021
			c-3.216,1.22-1.208,4.523-2.501,6.544c-3.524-1.417-2.514,2.514-5.533,2.009c0.899,2.711-1.91,5.016,0.505,7.037
			c2.009-0.715,4.313-0.617,6.026-2.021c2.009,1.91,1.713,4.831,0.998,7.542c2.218,0.998,5.94,3.61,5.533,7.024
			c-2.403,5.336-9.045,0.209-13.568,2.514c1.812,4.523-1.01,8.344-1.503,12.57c1.799,1.799,6.125,1.207,7.024,4.522
			c-1.195,0.702-1.294,2.81-3.513,2.009c-0.098,10.845-13.161,13.667-15.577,23.611c4.72,7.739-2.81,14.665,0.505,22.602
			c6.729,3.82,7.037,13.162,14.073,16.082c7.739-0.899,16.181,1.812,23.119-3.02c2.206,5.324,10.241,1.208,12.052,7.037
			c-1.91,1.307-2.008,6.026-2.008,9.046c1.503,1.799,3.82,2.908,4.522,5.533c2.415,4.917,3.722,9.328,4.522,15.071
			c-3.722,1.7-1.602,6.827-4.018,9.538c0.801,13.063,9.145,24.918,11.055,38.179c5.225,4.522,12.459-0.802,18.091,0
			c8.244-5.226,9.354-15.774,16.587-21.604c0.296-1.91-0.505-3.413-1.01-5.016c1.01-4.227,6.025-8.651,9.55-10.056
			c2.712-5.521,1.812-12.558-0.505-17.586c-1.812-4.522,0.912-8.33,2.514-12.053c4.424-6.223,11.264-8.539,14.579-15.576
			c1.503-5.226,7.739-11.448,2.514-16.575c-4.227,0.506-7.443,2.612-11.56,3.512c-0.912-0.505-0.308-1.713-0.505-2.514
			c2.206-3.709,9.242-5.225,14.073-8.035c3.414-3.314,10.143-5.828,11.56-12.052c0.899-2.822-1.516-3.315-2.009-5.028
			c2.711-2.415,8.836-3.512,13.063-1.504c5.324,1.701,5.324,9.342,12.064,9.033c-0.098,6.236,3.71,12.065,6.532,17.586
			c-0.813,8.849,9.341,4.227,10.044,12.064c1.207-0.197,2.723,0.407,3.523-0.505c-2.106-5.928-5.225-11.757-4.522-18.597
			c4.116-2.711,6.63-7.431,10.55-10.549c0.098-4.411,4.929-1.404,7.036-3.006c3.02,3.216,5.632,7.837,7.036,12.557
			c1.813,0.506,2.921-0.801,4.523-1.01c0.604,8.146,6.433,15.576,6.038,24.117c-2.612-0.9-3.722-5.62-7.542-4.018v4.018
			c6.125,3.413,8.035,12.163,13.063,17.585c2.415,1.208,4.72,3.919,7.036,6.026c5.028-0.395,9.539,2.921,14.074,1.011l-0.506-2.009
			c-5.028-2.712-9.649-0.493-14.073-4.522c-0.296-1.418,0.604-2.219,0.505-3.513c-1.91-0.407-1.207-4.227-3.524-3.524
			c-0.899-5.225-0.197-9.847-3.007-14.062c-0.406-2.008-2.724-3.82-4.535-4.018c-1.097-3.314-2.502-7.246-0.492-10.056
			c4.719-0.197,4.719,5.73,8.539,7.542c3.217,0.493,5.028-3.722,7.037-5.027c-0.197-2.206,0.406-4.721-0.505-6.532
			c-0.296-3.819-4.917-4.818-6.532-7.529c0.297-1.307-0.801-3.327,1.011-4.03c1.208-0.394,1.701,0.703,2.515,0.506
			c0.295,2.415,1.195,2.612,1.503,4.522h2.515c0.801-1.503,0.801-4.018-0.506-5.521c3.82-4.831,10.955-2.12,14.073-8.035
			c0.099,2.009,0.802,4.72,3.524,4.511c0.296-1.504,1.405-2.712,0.998-4.511c0.309-2.219-2.106-1.922-4.017-1.516
			c-2.206-3.315,3.413-5.324,1.503-9.046c-0.801-2.304-2.415-4.313-2.514-7.024c-2.514,0.197-3.709-2.723-5.521-4.029
			c0.1-1.799,2.305-2.81,1.504-5.016c-0.505-0.801-1.404-0.801-2.514-1.504l2.514-2.021c2.822,2.921,8.836,4.929,10.056,10.056
			c1.405,0.296,2.206-0.604,3.513-0.505c0.296-2.515-0.296-4.622-1.504-6.532c-2.316,0.296-1.417-3.413-4.018-3.019
			c-0.209-4.116,3.008-6.433,7.024-7.037c-0.196-3.808,2.515-6.421,1.517-10.549c-3.118-4.313-4.129-8.639-3.525-14.061h-2.514
			c-0.197,1.01,0.406,2.304,0,3.019c-3.314-1.614-9.452-1.208-10.043-5.028c-1.714-8.035,7.541-2.514,10.549-5.521
			c1.91-0.604,2.81,0.899,4.017,1.997c4.93,0.813,0.802-3.709,3.524-5.521c1.713-0.406,2.712,0.702,4.018,1.011
			c6.631-0.309-0.295,6.63,4.018,9.033c2.908,3.722,6.63,7.936,11.56,9.058c1.713-3.932-0.801-7.443-1.503-11.066
			C562.661,79.767,561.453,79.57,560.147,77.45z M345.054,79.471c3.314-4.929-2.206-7.739,1.516-11.559
			c2.415-0.407,3.216,0.295,3.512,2.514c1.307,2.502,5.324,2.699,4.522,7.024c-1.602-0.099-3.105,0-4.017,1.503
			c0.911,1.91,0.296,4.523-1.011,5.028c-2.908-1.306-4.313,0.197-7.529,0C340.137,80.962,344.352,81.874,345.054,79.471z
			 M381.74,131.205c-5.225-3.204-10.056,1.923-15.576-0.493c-0.802-2.415-4.732-1.417-6.532-3.524
			c-3.82,0.197-3.722,6.039-7.036,5.533c-1.504-3.82-7.739-3.117-7.542-7.036l-4.018,0.505l-0.505-7.037
			c-5.226,1.405-2.207-5.533-6.027-6.025c-3.216,1.195-0.295,3.709-0.505,5.521c-5.533-0.899-10.856,1.516-16.082,2.514
			c-0.395-2.908,1.307-5.027,2.009-7.542c3.217-0.899,3.722-4.313,5.533-5.521c3.414,1.7,6.938-1.307,10.044-1.503
			c2.514,6.025,9.858,5.521,10.562,11.559c3.512,0.493,1.811-3.832,5.027-4.029c-4.621-2.009-8.75-6.421-11.066-10.044
			c2.119-0.505,3.426,0.604,3.524,3.007c3.722,0.506,5.829,1.713,8.54,4.523l-0.998,2.514c3.414,2.107,4.818,5.73,7.037,8.553
			c1.812-1.221,2.402-2.01,3.007-4.523c-1.097-0.715-2.612-1.614-2.009-3.524c1.307-1.108,3.314-2.206,5.027-1.011l1.504,2.021
			c2.316-0.506,4.621-1.109,7.037-1.516v2.514c-3.217,0.506-7.037-1.307-9.551,1.516c-0.099,1.294,2.021,2.206,3.02,3.513
			c1.91,1.208,4.929-0.407,6.531,1.503c3.512-0.492,8.047,0.099,10.056-2.502C383.146,123.873,384.354,128.605,381.74,131.205z
			 M398.328,166.882c-3.919-0.802-5.226-6.235-7.542-8.54l-0.493-6.531c-4.029-1.813-5.028-6.532-6.039-10.057
			c1.405-0.296,3.315,0.309,3.02,2.514c1.701,0.604,2.009,3.414,4.018,4.523l-0.505,3.02c2.218,3.709,6.038,5.323,8.047,10.043
			C397.934,163.862,400.743,165.97,398.328,166.882z"/>
	</g>
	<g>
		<path fill="#7E9C2E" d="M550.092,95.023c-0.197,0.801,0.406,2.009-0.493,2.514c-1.405-0.099-2.625-0.813-3.524-2.009v-4.029
			C548.687,91.203,548.896,93.311,550.092,95.023z"/>
	</g>
	<g>
		<path fill="#7E9C2E" d="M553.616,103.563c1.713,2.612,7.443,1.713,6.531,6.026c-0.899,3.217-4.215-0.899-5.521,3.02
			c-4.228-1.307-2.317-6.026-3.525-9.046H553.616z"/>
	</g>
	<g>
		<path fill="#7E9C2E" d="M560.147,118.635c-1.208,3.315,2.218,4.732,1.011,8.048c-3.82,2.711-10.759,1.812-11.56,7.529
			c-3.524,1.319-5.237-3.709-5.533-6.026c2.514-5.632,9.156-5.126,11.054-10.549l-0.492-3.524
			C557.029,115.32,559.95,115.123,560.147,118.635z"/>
	</g>
	<g>
		<path fill="#7E9C2E" d="M44.028,145.783c-0.394,1.603,1.713,3.611-0.998,4.006L39,148.298v-4.03
			C41.218,144.465,41.711,145.783,44.028,145.783z"/>
	</g>
	<g>
		<path fill="#7E9C2E" d="M153.091,152.809c0.801,2.415-1.208,1.811-2.514,2.514l-0.505-3.512
			C151.477,151.107,151.673,153.523,153.091,152.809z"/>
	</g>
	<g>
		<path fill="#7E9C2E" d="M145.549,154.816c0.395,1.615,1.799,0.703,2.009,2.515l3.019-0.493c4.412,9.033,13.864,0.998,18.583,9.551
			c-1.097,2.908-5.323,0.592-7.529,1.996c-8.849-1.7-14.283-9.945-23.624-10.043c-0.813-1.813,1.405-2.712,2.514-3.02
			C142.529,155.938,143.54,154.226,145.549,154.816z"/>
	</g>
	<g>
		<path fill="#7E9C2E" d="M539.037,157.331c0,1.306,1.812,1.417,2.021,2.009c1.097,3.02-2.219,5.336,0,8.047
			c-3.623,1.812-3.118-1.516-5.028-3.02l0.505-7.036H539.037z"/>
	</g>
	<g>
		<path fill="#7E9C2E" d="M152.08,166.389c0,0.592,0.099,1.195-0.505,1.504c-1.405-0.309-3.217-0.912-2.515-3.02
			C150.577,164.873,151.969,164.577,152.08,166.389z"/>
	</g>
	<g>
		<path fill="#7E9C2E" d="M542.562,171.91c3.217,0.801,2.515,4.621,6.532,3.512c0.898,2.92,3.512,6.643,0.505,9.058
			c-3.524,1.195-3.524-4.732-7.037-2.021C544.164,176.839,538.434,177.036,542.562,171.91z"/>
	</g>
	<g>
		<path fill="#7E9C2E" d="M537.028,184.973c-0.296,3.02-2.305,6.334,0.505,9.045c-3.019,3.02-3.512,6.938-6.038,10.056
			c-2.908-1.91-7.233-0.308-10.044-2.514c-0.295-3.623-3.512-5.928-2.514-10.043c6.334-0.912,8.343-6.84,12.558-10.057
			C534.219,180.449,535.525,184.172,537.028,184.973z"/>
	</g>
	<g>
		<path fill="#7E9C2E" d="M564.177,195.521c-0.505,1.417,0.69,2.119,1.491,3.019c5.842-2.612,11.77,1.91,17.598,3.02
			c2.909,1.307,2.206,6.631,7.037,6.039c4.018,0.998,6.236-5.436,10.549-3.525c1.418,4.215-2.107,4.819-4.522,6.532
			c-2.107,0-3.413-1.517-6.026-1.517c0.703,2.725,2.613,6.938,4.522,10.057c-6.235,2.81-7.739-6.531-12.064-4.522
			c-1.812-0.506-1.602,1.91-3.019,2.009c-5.127,1.01-5.719-4.313-9.539-5.521v-5.027c-3.426-2.416-8.244-2.416-11.56-4.018
			c2.009-2.317-4.227-9.452,3.02-7.542C562.255,195.435,563.166,195.632,564.177,195.521z"/>
	</g>
	<g>
		<path fill="#7E9C2E" d="M557.128,202.558c-1.602,1.307-5.422-0.098-3.512-2.501C554.823,200.857,557.436,200.254,557.128,202.558z
			"/>
	</g>
	<g>
		<path fill="#7E9C2E" d="M537.028,212.614c0,0.899-0.998,1.306-1.503,2.009c-2.009,0.308-4.215-0.099-4.03-2.502
			C533.011,211.505,536.228,210.913,537.028,212.614z"/>
	</g>
	<g>
		<path fill="#7E9C2E" d="M551.102,212.121v1.996c-2.415,0.296-3.413,3.82-6.531,2.515c-2.009-2.107-4.018-1.898-5.533-4.018
			C543.264,212.417,546.48,210.803,551.102,212.121z"/>
	</g>
	<g>
		<path fill="#7E9C2E" d="M582.268,228.19c1.295,2.712,1.8,7.346,1.504,10.562c6.026,2.009,4.72,8.441,8.54,12.558
			c0.197,2.514,1.812,5.028,0.505,7.542c-0.505,5.829-3.314,9.551-7.049,14.062c-6.716,5.139-11.547,13.284-20.592,14.578
			c-3.02-1.91-7.443,0.21-10.549-4.018c-6.84-1.207-4.535-9.648-9.551-13.568c-11.461,0.493-22.22,7.641-33.681,7.037
			c-2.206-0.899-0.899-3.217-2.009-4.522c3.426-2.021,1.614-7.037,3.524-10.056c-2.711-1.195-1.011-4.313-1.516-6.531
			c2.317-2.712,1.713-6.729,2.515-10.057c12.262-4.116,21.713-12.053,31.671-19.089c1.306,0.197,2.009,1.713,3.513,1.503
			l0.998-2.501c1.417-0.111,1.306-1.726,2.008-2.515c3.932-4.227,10.66-0.801,15.084,0.998c2.12,2.515-6.334,5.324-0.505,6.039
			c1.109,1.504,1.603,3.303,4.018,4.018c5.435-2.416,1.713-10.352,6.038-14.073C582.268,219.959,578.436,226.38,582.268,228.19z"/>
	</g>
	<g>
		<path fill="#7E9C2E" d="M412.906,222.67c1.405,3.02,3.611,6.322,2.009,10.056c-2.612,3.105-3.118,7.234-4.029,11.055
			c-2.712,3.007-1.898,10.143-8.035,9.045c-0.813-1.812-2.711-0.813-3.524-2.514c-2.206-7.147,3.426-12.768,3.524-19.102
			C407.164,229.398,409.48,223.878,412.906,222.67z"/>
	</g>
	<g>
		<path fill="#7E9C2E" d="M617.439,269.4c1.207,0.899,3.02,0.309,4.522,0.505c3.02,5.83-5.435,6.938-4.018,12.065
			c-3.82,0.702-2.81,5.928-5.533,8.54c-1.503-0.197-4.116,2.711-4.522-0.506c0-3.314,0.801-7.332,2.514-10.043
			c1.614,0.197,3.02-0.21,4.018-1.504c-4.917-5.139,3.02-6.038-0.998-11.571C614.925,267.194,617.944,267.293,617.439,269.4z"/>
	</g>
	<g>
		<path fill="#7E9C2E" d="M565.176,289.007c1.811,1.504,1.811,3.513,1.01,4.511c-2.316,3.13-4.83,4.128-8.047,3.524
			c-2.305,1.011-1.405-1.614-2.009-2.514C557.338,289.71,561.453,289.105,565.176,289.007z"/>
	</g>
	<g>
		<path fill="#7E9C2E" d="M552.1,223.175c-0.702,0.789-0.591,2.403-2.008,2.515l-0.998-2.515H552.1z"/>
	</g>
	<g>
		<path fill="#7E9C2E" d="M541.059,167.387c1.294,0.197,2.81-0.604,4.018,0.506c0.505,2.008-0.715,1.811-2.01,2.514L541.059,167.387
			z"/>
	</g>
	<g>
		<path fill="#7E9C2E" d="M537.533,194.018c3.118-2.711,6.828-0.296,10.057-0.998c1.602,4.325-5.139,1.603-3.524,6.026
			c-2.305,2.107,0.801,4.522,0.505,7.037c-2.218,0.505-5.027,1.108-7.037,0.505C535.229,202.46,537.324,197.838,537.533,194.018z"/>
	</g>
	<g>
		<path fill="#7E9C2E" d="M85.237,92.51c-1.713,1.306-0.604,3.216-3.019,2.514c-1.812-0.912-0.703-3.02-0.998-4.522
			C83.327,89.392,84.437,90.698,85.237,92.51z"/>
	</g>
</g>
<g>
	<g>
		<polyline fill="none" stroke="#58595B" stroke-linecap="round" stroke-miterlimit="10" points="449.529,71.445 465,26 476.5,26 		
			"/>
		<g>
			<circle fill="#58595B" cx="449.557" cy="71.363" r="1.729"/>
		</g>
	</g>
</g>
<g>
	<g>
		<line fill="none" stroke="#58595B" stroke-miterlimit="10" x1="562.266" y1="273.119" x2="579.612" y2="302"/>
		<g>
			<circle fill="#58595B" cx="562.311" cy="273.193" r="1.729"/>
		</g>
	</g>
</g>
<g>
	<g>
		<line fill="none" stroke="#58595B" stroke-linecap="round" stroke-miterlimit="10" x1="178.096" y1="280.06" x2="142" y2="302"/>
		<g>
			<circle fill="#58595B" cx="178.022" cy="280.104" r="1.729"/>
		</g>
	</g>
</g>
<g>
	<g>
		<polyline fill="none" stroke="#58595B" stroke-linecap="round" stroke-miterlimit="10" points="122,84.357 122,45 153.496,28.5 		
			"/>
		<g>
			<circle fill="#58595B" cx="122" cy="84.271" r="1.729"/>
		</g>
	</g>
</g>
<g>
	<g>
		<polyline fill="none" stroke="#58595B" stroke-linecap="round" stroke-miterlimit="10" points="68.599,73.499 35.378,97.083 
			35.378,107.633 		"/>
		<g>
			<circle fill="#58595B" cx="68.529" cy="73.549" r="1.73"/>
		</g>
	</g>
</g>
<g>
	<g>
		<polyline fill="none" stroke="#58595B" stroke-linecap="round" stroke-miterlimit="10" points="512.143,169.908 554.048,169.908 
			560,155.33 		"/>
		<g>
			<circle fill="#58595B" cx="512.229" cy="169.908" r="1.729"/>
		</g>
	</g>
</g>
<g>
	<g>
		
			<line fill="none" stroke="#58595B" stroke-linecap="round" stroke-miterlimit="10" x1="309.857" y1="114.111" x2="280.737" y2="114.111"/>
		<g>
			<circle fill="#58595B" cx="309.771" cy="114.111" r="1.729"/>
		</g>
	</g>
</g>
<g>
	<g>
		<polyline fill="none" stroke="#58595B" stroke-linecap="round" stroke-miterlimit="10" points="333.472,95.98 313.5,37.202 
			332,37.202 		"/>
		<g>
			<circle fill="#58595B" cx="333.444" cy="95.898" r="1.729"/>
		</g>
	</g>
</g>
</svg>
