<?xml version="1.0" encoding="utf-8"?>
<!-- Generator: Adobe Illustrator 16.0.0, SVG Export Plug-In . SVG Version: 6.00 Build 0)  -->
<!DOCTYPE svg PUBLIC "-//W3C//DTD SVG 1.1//EN" "http://www.w3.org/Graphics/SVG/1.1/DTD/svg11.dtd">
<svg version="1.1" id="Layer_1" xmlns="http://www.w3.org/2000/svg" xmlns:xlink="http://www.w3.org/1999/xlink" x="0px" y="0px"
	 width="600px" height="317px" viewBox="0 0 600 317" enable-background="new 0 0 600 317" xml:space="preserve">
<g>
	<g>
		<path fill="#7E9C2E" d="M225.799,12.097c-10.758-0.406-21.603,0.9-32.165,4.018c-9.846-4.227-21.813-0.406-32.657-0.505
			l-2.021,2.009c-3.118-2.107-5.928-2.613-10.044-1.504l-0.505,4.018c0.505,0.493,1.713,1.713,2.514,2.514l-6.026,0.999l0.493,3.524
			c-5.324,0.099-11.461,2.403-15.072-2.009c-5.126,1.91-10.253-2.92-15.084,1.503l1.011,2.009
			c-5.126-3.315-13.272-3.315-18.596,1.011c-0.702,1.7,1.208,2.501,1.011,4.018c-2.206,0.394-3.524,1.799-6.039,2.009
			C83.18,35.61,71.115,36.103,60.455,33.7c-9.242-3.426-17.992,2.206-26.631,3.512c-0.296,1.405,0.604,2.206,0.505,3.513
			l-9.55,1.516c-0.209,2.206,0.209,3.007,2.008,4.018c-3.019,2.304-7.332,0.899-10.056,3.512c-0.801,2.822-1.097,6.827,2.514,8.035
			c-2.81,3.315-8.442,1.417-11.054,4.03v3.007c5.73-0.394,11.867-5.114,18.103-3.007c1.503-1.208,4.523-0.813,4.523-3.525
			c6.322-1.602,12.854-7.64,20.592-2.514c2.613,1.812,1.208,5.73,2.021,8.047l2.514,0.505c-1.01,1.996-1.01,4.018,0,6.026
			c-0.616,0.9-1.516,1.097-2.514,0.999c-1.318,3.919,3.808,3.82,3.007,7.542c-3.118,1.109-1.109,6.125-5.521,6.531
			c-1.417,3.315-3.118,7.234-4.03,11.054c1.812,4.215-0.098,11.252,5.533,12.558c-1.207,5.62,3.722,8.54,2.009,14.061
			c3.82-0.296,2.219,8.54,8.035,7.542c0.616-2.822-2.403-5.226-1.503-8.047c1.713,3.623,6.63,7.542,7.542,12.57
			c-1.812,0.296-0.703,2.711-1.01,4.018c6.137,9.847,19.298,4.424,26.643,12.064c7.443,1.393,5.927,10.438,13.568,12.558
			c2.305,0.604,5.423,2.403,8.035,0.493c0,2.021,1.812,0.702,2.514,2.514c0.604,4.523-3.61,5.423-5.027,9.046
			c-3.809,3.315-0.801,8.134-3.007,12.052c1.799,6.125,6.125,12.669,9.045,19.09c2.403,5.027,7.431,10.856,14.062,13.568
			c2.723,1.7,3.117,6.025,3.524,9.551c-0.099,20.087,0.604,40.383,3.524,60.286c2.009,1.503,1.405,6.531,4.522,8.54
			c2.81,5.533,6.729,10.647,13.063,12.053c2.317-1.196,2.711,2.218,5.028,1.01c1.097-1.713,5.423,0.111,4.018-3.524
			c-3.919-0.493-7.739-4.411-9.045-8.035c0.505-2.711,1.405-3.61,2.514-6.026c2.403-4.424-4.326-3.314-3.02-7.036
			c0.308-0.899,1.307-0.296,2.009-0.505c0.197-1.701-0.406-3.71,0.505-5.016c-1.503-7.037,7.53-9.243,11.559-13.568
			c1.307-2.502-2.316-2.908-2.009-5.016c1.011-0.912,2.711-0.309,4.018-0.506c3.82-1.207,4.72-6.137,7.542-9.045
			c0.099-4.227,6.224-7.037,2.514-11.56c0.9-2.415,3.611-5.126,6.026-6.026c1.91-2.81,6.938-0.406,9.046-4.029
			c4.313-8.035,1.91-17.167,4.522-25.621c1.208-0.788,3.02-0.295,4.018-1.491c3.833-3.019,2.711-9.255,1.516-13.063
			c-8.355-7.036-19.606-8.651-29.157-13.581c-4.116-2.6-2.612-11.547-9.033-13.555c-2.415-3.624-9.551,1.096-10.056-4.018
			c-2.12-3.623-7.542-4.831-10.056-8.54c-4.017,0.295-6.433-0.209-10.549,0c-2.92-1.91-5.126-4.831-9.045-4.03
			c-6.137,1.713-8.75,5.94-11.56,11.56c-2.822,1.01-5.939-1.701-9.045,0c-6.642-3.82,2.613-11.757-4.03-15.564
			c-1.799-0.506-2.908,0.801-4.51,0.998c-2.416-3.315,2.908-6.334,1.503-10.044l-2.514-2.009c-5.435-0.715-5.127,4.116-8.541,6.52
			c-2.416-0.395-5.73,1.22-7.037-2.009c-1.208-5.521,0.493-11.042,3.007-16.07c6.433-4.72,14.875-2.822,21.11-4.018
			c5.632,0.407,0.801,11.449,9.045,9.045l-0.998-10.549c3.513-5.324,8.343-6.643,13.063-10.549
			c-1.614-3.327,2.711-4.227,2.514-6.544c0.998-5.521,10.352-3.61,10.549-9.538c2.218-0.801,3.919-2.711,6.531-2.514
			c0.505,1.01,2.218,0,2.009,1.503c3.327-2.107,9.255-1.602,11.066-6.026c-1.812-5.533-3.524,1.713-6.544-0.998
			c0.099-2.415,0.912-4.535,2.021-6.531c2.612-0.099,5.114,0,7.037,1.503c-1.615,0.703-0.813,2.304-1.01,3.512
			c3.118,0.801,6.729,2.415,10.549,2.514c0.505-2.304,1.614-7.037-2.009-7.529c0.111-3.919,2.92-6.334,0-10.056
			c-0.801-2.501-3.513-0.493-4.523-2.501c1.812-2.514-1.01-5.743-1.503-8.553c-3.82-2.206-4.018,4.227-7.037,1.011
			c-0.912-2.317-1.91-3.426-3.525-5.028c-3.709-2.009-9.649,1.504-11.054-4.522c5.533-1.195,5.632-10.143,12.57-8.54
			c0.703,1.01,2.416,1.614,2.009,3.019c-2.92,1.405-4.227,5.028-8.552,3.512c-0.888,0.604-1.097,1.516-0.493,3.524
			c4.818-1.318,7.739,1.799,11.054,4.018c3.524,0.801,6.137-1.307,8.552-2.021c-4.029-6.223,4.818-2.613,6.026-5.016
			c1.503-1.306-0.702-2.305,0-4.018c-3.82-3.019-8.244-7.837-13.568-11.559c2.908-2.107,6.125-4.72,10.044-5.521
			c3.524,2.613,9.452,5.226,15.084,4.018c5.422,8.737-4.831,16.674,2.009,25.621c3.314,1.503,6.63,4.622,10.549,3.019
			c0.308-2.009,2.304-3.216,3.019-5.028c2.909-6.729,11.954-4.523,16.575-9.55l11.054-2.009c7.948-3.919,8.959-17.475,18.608-19.582
			C242.99,16.817,234.143,13.305,225.799,12.097z M104.684,36.707h-4.017V33.7c1.812,0.702,3.007-1.516,4.522,0L104.684,36.707z
			 M131.315,33.194v2.009l-4.523,0.506l-0.493-3.525C128,32.492,130.317,31.383,131.315,33.194z M146.399,49.77
			c-2.416,6.125-1.109,9.046-7.049,13.568c-3.5-0.702-3.5,9.243-5.016,2.009c-2.514-5.028-10.352-2.416-12.052-8.035
			c-1.011-2.316,1.503-3.118,2.501-4.522c4.929,0.099,9.958-8.849,15.084-3.02H146.399z M145.389,35.203
			c-0.197,0.9,0.505,2.613-1.011,2.514c-2.711,1.208-2.711-1.91-4.005-3.019C139.67,31.481,145.894,31.987,145.389,35.203z"/>
	</g>
	<g>
		<path fill="#7E9C2E" d="M529.339,52.271c5.126-1.701,9.354-2.711,14.073-5.521c-3.118-4.818-9.452-9.551-15.084-13.063
			c-9.637-6.433-20.703,2.81-30.648-2.009c-5.028-3.82-12.57,0-16.082-4.018c-5.533,0.493-11.966-1.306-16.588,1.504
			c-11.152-3.217-22.207-0.395-33.667-3.524c0.505-2.81-3.513-1.195-3.02-4.018c-3.217,0.505-6.138-1.307-9.046,0
			c-1.91-4.018-7.036-0.296-9.045-4.018c-6.433,2.317-9.145-4.313-15.577-2.009c-0.209,5.336,6.433,2.711,9.046,5.533
			c-5.829,3.217-10.549,4.313-16.082,7.024c-0.998-1.306-3.118-2.206-3.008-4.018c-1.811-0.801-3.918-2.304-6.038-0.998
			c0.912,2.403-2.415,3.82-0.493,6.026c-2.92,1.503-5.533-0.703-8.553-0.505c-1.811,1.01-3.216,3.216-5.533,3.019
			c-2.205-2.81-5.323,1.195-7.529-1.516c-1.713,1.011-0.505,4.227-3.02,4.03c0.604-3.328-2.711-3.118-5.027-3.019l0.505,3.019
			c-6.827-3.328-14.973-4.523-22.108-7.542c-3.314,1.306-6.025-0.493-9.551,0.505c-11.559-2.416-10.549,13.765-20.604,14.566
			c-0.998,1.405-3.512,2.218-2.514,4.522c0.702,3.414,2.612,6.026,6.026,7.037c-1.306,2.908,2.613,4.818,0,7.036
			c-4.313-1.01-5.028,3.611-8.54,4.511c-3.414-2.601-7.037-6.926-6.532-11.547c-1.208-1.812-2.92-2.317-5.028-2.021
			c-3.216,1.22-1.208,4.523-2.501,6.544c-3.524-1.417-2.514,2.514-5.533,2.009c0.899,2.711-1.91,5.016,0.505,7.037
			c2.009-0.715,4.313-0.616,6.026-2.021c2.009,1.91,1.713,4.831,0.998,7.542c2.218,0.998,5.94,3.61,5.533,7.024
			c-2.403,5.336-9.045,0.209-13.568,2.514c1.812,4.523-1.01,8.343-1.503,12.57c1.799,1.799,6.125,1.208,7.024,4.522
			c-1.195,0.702-1.294,2.81-3.513,2.009c-0.098,10.845-13.161,13.667-15.577,23.612c4.72,7.739-2.81,14.665,0.505,22.601
			c6.729,3.82,7.037,13.162,14.073,16.082c7.739-0.899,16.181,1.812,23.119-3.019c2.206,5.324,10.241,1.208,12.052,7.037
			c-1.91,1.307-2.008,6.026-2.008,9.046c1.503,1.799,3.82,2.908,4.522,5.533c2.415,4.917,3.722,9.328,4.522,15.071
			c-3.722,1.7-1.602,6.827-4.018,9.538c0.801,13.063,9.145,24.918,11.055,38.179c5.225,4.522,12.459-0.802,18.091,0
			c8.244-5.226,9.354-15.774,16.587-21.604c0.296-1.91-0.505-3.413-1.01-5.016c1.01-4.227,6.025-8.651,9.55-10.056
			c2.712-5.521,1.812-12.558-0.505-17.586c-1.812-4.522,0.912-8.33,2.514-12.053c4.424-6.223,11.264-8.539,14.579-15.576
			c1.503-5.226,7.739-11.449,2.514-16.575c-4.227,0.505-7.443,2.612-11.56,3.512c-0.912-0.505-0.308-1.713-0.505-2.514
			c2.206-3.709,9.242-5.225,14.073-8.035c3.414-3.315,10.143-5.829,11.56-12.052c0.899-2.822-1.516-3.315-2.009-5.028
			c2.711-2.415,8.836-3.512,13.063-1.503c5.324,1.701,5.324,9.341,12.064,9.033c-0.098,6.236,3.71,12.065,6.532,17.585
			c-0.813,8.849,9.341,4.227,10.044,12.065c1.207-0.197,2.723,0.407,3.523-0.505c-2.106-5.928-5.225-11.757-4.522-18.596
			c4.116-2.711,6.63-7.431,10.55-10.549c0.098-4.412,4.929-1.405,7.036-3.007c3.02,3.216,5.632,7.837,7.036,12.558
			c1.813,0.505,2.921-0.801,4.523-1.01c0.604,8.146,6.433,15.576,6.038,24.117c-2.612-0.9-3.722-5.62-7.542-4.018v4.018
			c6.125,3.414,8.035,12.164,13.063,17.585c2.415,1.208,4.72,3.919,7.036,6.026c5.028-0.395,9.539,2.921,14.074,1.011l-0.506-2.009
			c-5.028-2.712-9.649-0.493-14.073-4.522c-0.296-1.418,0.604-2.219,0.505-3.513c-1.91-0.407-1.207-4.227-3.524-3.524
			c-0.899-5.225-0.197-9.847-3.007-14.061c-0.406-2.009-2.724-3.82-4.535-4.018c-1.097-3.315-2.502-7.246-0.492-10.056
			c4.719-0.197,4.719,5.73,8.539,7.542c3.217,0.493,5.028-3.722,7.037-5.028c-0.197-2.206,0.406-4.72-0.505-6.532
			c-0.296-3.82-4.917-4.818-6.532-7.529c0.297-1.307-0.801-3.327,1.011-4.03c1.208-0.394,1.701,0.703,2.515,0.505
			c0.295,2.415,1.195,2.612,1.503,4.522h2.515c0.801-1.503,0.801-4.018-0.506-5.521c3.82-4.831,10.955-2.12,14.073-8.035
			c0.099,2.009,0.802,4.72,3.524,4.511c0.296-1.504,1.405-2.711,0.998-4.511c0.309-2.218-2.106-1.922-4.017-1.516
			c-2.206-3.315,3.413-5.324,1.503-9.046c-0.801-2.304-2.415-4.313-2.514-7.024c-2.514,0.197-3.709-2.723-5.521-4.029
			c0.1-1.799,2.305-2.81,1.504-5.016c-0.505-0.801-1.404-0.801-2.514-1.504l2.514-2.021c2.822,2.92,8.836,4.929,10.056,10.056
			c1.405,0.296,2.206-0.604,3.513-0.505c0.296-2.515-0.296-4.622-1.504-6.532c-2.316,0.295-1.417-3.414-4.018-3.019
			c-0.209-4.116,3.008-6.433,7.024-7.037c-0.196-3.808,2.515-6.42,1.517-10.549c-3.118-4.313-4.129-8.639-3.525-14.061h-2.514
			c-0.197,1.01,0.406,2.304,0,3.019c-3.314-1.614-9.452-1.208-10.043-5.028c-1.714-8.035,7.541-2.514,10.549-5.521
			c1.91-0.604,2.81,0.899,4.017,1.997c4.93,0.813,0.802-3.709,3.524-5.521c1.713-0.406,2.712,0.702,4.018,1.011
			c6.631-0.309-0.295,6.63,4.018,9.033c2.908,3.722,6.63,7.936,11.56,9.058c1.713-3.932-0.801-7.443-1.503-11.066
			C531.853,54.588,530.645,54.391,529.339,52.271z M314.245,54.292c3.314-4.929-2.206-7.739,1.516-11.559
			c2.415-0.407,3.216,0.295,3.512,2.514c1.307,2.502,5.324,2.699,4.522,7.024c-1.602-0.099-3.105,0-4.017,1.503
			c0.911,1.91,0.296,4.523-1.011,5.028c-2.908-1.306-4.313,0.197-7.529,0C309.328,55.784,313.543,56.695,314.245,54.292z
			 M350.932,106.026c-5.225-3.204-10.056,1.923-15.576-0.493c-0.802-2.415-4.732-1.417-6.532-3.524
			c-3.82,0.197-3.722,6.039-7.036,5.533c-1.504-3.82-7.739-3.118-7.542-7.036l-4.018,0.505l-0.505-7.037
			c-5.226,1.405-2.207-5.533-6.027-6.026c-3.216,1.196-0.295,3.709-0.505,5.521c-5.533-0.899-10.856,1.516-16.082,2.514
			c-0.395-2.908,1.307-5.027,2.009-7.542c3.217-0.9,3.722-4.313,5.533-5.521c3.414,1.701,6.938-1.307,10.044-1.503
			c2.514,6.026,9.858,5.521,10.562,11.559c3.512,0.493,1.811-3.832,5.027-4.029c-4.621-2.009-8.75-6.421-11.066-10.044
			c2.119-0.505,3.426,0.604,3.524,3.007c3.722,0.505,5.829,1.713,8.54,4.523l-0.998,2.514c3.414,2.107,4.818,5.73,7.037,8.552
			c1.812-1.22,2.402-2.009,3.007-4.523c-1.097-0.715-2.612-1.614-2.009-3.524c1.307-1.109,3.314-2.206,5.027-1.01l1.504,2.021
			c2.316-0.505,4.621-1.109,7.037-1.516v2.514c-3.217,0.505-7.037-1.306-9.551,1.516c-0.099,1.294,2.021,2.206,3.02,3.513
			c1.91,1.208,4.929-0.407,6.531,1.503c3.512-0.493,8.047,0.099,10.056-2.501C352.337,98.694,353.545,103.426,350.932,106.026z
			 M367.52,141.703c-3.919-0.801-5.226-6.236-7.542-8.541l-0.493-6.531c-4.029-1.812-5.028-6.532-6.039-10.056
			c1.405-0.296,3.315,0.308,3.02,2.514c1.701,0.604,2.009,3.414,4.018,4.523l-0.505,3.019c2.218,3.709,6.038,5.324,8.047,10.043
			C367.125,138.684,369.935,140.791,367.52,141.703z"/>
	</g>
	<g>
		<path fill="#7E9C2E" d="M519.283,69.845c-0.197,0.801,0.406,2.009-0.493,2.514c-1.405-0.099-2.625-0.813-3.524-2.009V66.32
			C517.878,66.024,518.088,68.132,519.283,69.845z"/>
	</g>
	<g>
		<path fill="#7E9C2E" d="M522.808,78.385c1.713,2.612,7.443,1.713,6.531,6.026c-0.899,3.216-4.215-0.899-5.521,3.019
			c-4.228-1.306-2.317-6.026-3.525-9.045H522.808z"/>
	</g>
	<g>
		<path fill="#7E9C2E" d="M529.339,93.457c-1.208,3.315,2.218,4.732,1.011,8.047c-3.82,2.711-10.759,1.812-11.56,7.529
			c-3.524,1.319-5.237-3.709-5.533-6.026c2.514-5.632,9.156-5.126,11.054-10.549l-0.492-3.524
			C526.221,90.142,529.142,89.944,529.339,93.457z"/>
	</g>
	<g>
		<path fill="#7E9C2E" d="M13.219,120.605c-0.394,1.602,1.713,3.611-0.998,4.005l-4.03-1.491v-4.03
			C10.41,119.286,10.902,120.605,13.219,120.605z"/>
	</g>
	<g>
		<path fill="#7E9C2E" d="M122.282,127.629c0.801,2.416-1.208,1.812-2.514,2.514l-0.505-3.512
			C120.668,125.929,120.865,128.344,122.282,127.629z"/>
	</g>
	<g>
		<path fill="#7E9C2E" d="M114.74,129.638c0.395,1.614,1.799,0.703,2.009,2.514l3.019-0.493c4.412,9.033,13.864,0.998,18.583,9.551
			c-1.097,2.908-5.323,0.592-7.529,1.996c-8.849-1.7-14.283-9.945-23.624-10.043c-0.813-1.812,1.405-2.711,2.514-3.019
			C111.721,130.76,112.731,129.047,114.74,129.638z"/>
	</g>
	<g>
		<path fill="#7E9C2E" d="M508.229,132.152c0,1.306,1.812,1.417,2.021,2.009c1.097,3.019-2.219,5.336,0,8.047
			c-3.623,1.812-3.118-1.516-5.028-3.019l0.505-7.037H508.229z"/>
	</g>
	<g>
		<path fill="#7E9C2E" d="M121.271,141.21c0,0.592,0.099,1.195-0.505,1.503c-1.405-0.308-3.217-0.912-2.515-3.019
			C119.768,139.694,121.161,139.398,121.271,141.21z"/>
	</g>
	<g>
		<path fill="#7E9C2E" d="M511.753,146.731c3.217,0.801,2.515,4.621,6.532,3.512c0.898,2.92,3.512,6.643,0.505,9.058
			c-3.524,1.195-3.524-4.732-7.037-2.021C513.355,151.66,507.625,151.857,511.753,146.731z"/>
	</g>
	<g>
		<path fill="#7E9C2E" d="M506.22,159.794c-0.296,3.019-2.305,6.334,0.505,9.045c-3.019,3.02-3.512,6.938-6.038,10.056
			c-2.908-1.91-7.233-0.308-10.044-2.514c-0.295-3.623-3.512-5.928-2.514-10.043c6.334-0.912,8.343-6.84,12.558-10.057
			C503.41,155.271,504.717,158.993,506.22,159.794z"/>
	</g>
	<g>
		<path fill="#7E9C2E" d="M533.368,170.343c-0.505,1.417,0.69,2.119,1.491,3.019c5.842-2.612,11.77,1.91,17.598,3.02
			c2.909,1.307,2.206,6.631,7.037,6.039c4.018,0.998,6.236-5.436,10.549-3.525c1.418,4.215-2.107,4.819-4.522,6.532
			c-2.107,0-3.413-1.517-6.026-1.517c0.703,2.725,2.613,6.938,4.522,10.057c-6.235,2.81-7.739-6.531-12.064-4.522
			c-1.812-0.506-1.602,1.91-3.019,2.009c-5.127,1.01-5.719-4.313-9.539-5.521v-5.027c-3.426-2.416-8.244-2.416-11.56-4.018
			c2.009-2.317-4.227-9.452,3.02-7.542C531.446,170.256,532.357,170.453,533.368,170.343z"/>
	</g>
	<g>
		<path fill="#7E9C2E" d="M526.319,177.379c-1.602,1.307-5.422-0.098-3.512-2.501C524.015,175.679,526.627,175.075,526.319,177.379z
			"/>
	</g>
	<g>
		<path fill="#7E9C2E" d="M506.22,187.436c0,0.899-0.998,1.306-1.503,2.009c-2.009,0.308-4.215-0.099-4.03-2.502
			C502.202,186.326,505.419,185.734,506.22,187.436z"/>
	</g>
	<g>
		<path fill="#7E9C2E" d="M520.293,186.942v1.996c-2.415,0.296-3.413,3.82-6.531,2.515c-2.009-2.107-4.018-1.898-5.533-4.018
			C512.455,187.238,515.672,185.624,520.293,186.942z"/>
	</g>
	<g>
		<path fill="#7E9C2E" d="M551.459,203.012c1.295,2.712,1.8,7.346,1.504,10.562c6.026,2.009,4.72,8.441,8.54,12.558
			c0.197,2.514,1.812,5.028,0.505,7.542c-0.505,5.829-3.314,9.551-7.049,14.062c-6.716,5.139-11.547,13.284-20.592,14.578
			c-3.02-1.91-7.443,0.21-10.549-4.018c-6.84-1.207-4.535-9.648-9.551-13.568c-11.461,0.493-22.22,7.641-33.681,7.037
			c-2.206-0.899-0.899-3.217-2.009-4.522c3.426-2.021,1.614-7.037,3.524-10.056c-2.711-1.195-1.011-4.313-1.516-6.531
			c2.317-2.712,1.713-6.729,2.515-10.057c12.262-4.116,21.713-12.053,31.671-19.089c1.306,0.197,2.009,1.713,3.513,1.503
			l0.998-2.501c1.417-0.111,1.306-1.726,2.008-2.515c3.932-4.227,10.66-0.801,15.084,0.998c2.12,2.515-6.334,5.324-0.505,6.039
			c1.109,1.504,1.603,3.303,4.018,4.018c5.435-2.416,1.713-10.352,6.038-14.073C551.459,194.78,547.627,201.201,551.459,203.012z"/>
	</g>
	<g>
		<path fill="#7E9C2E" d="M382.098,197.491c1.405,3.02,3.611,6.322,2.009,10.056c-2.612,3.105-3.118,7.234-4.029,11.055
			c-2.712,3.007-1.898,10.143-8.035,9.045c-0.813-1.812-2.711-0.813-3.524-2.514c-2.206-7.147,3.426-12.768,3.524-19.102
			C376.355,204.22,378.672,198.699,382.098,197.491z"/>
	</g>
	<g>
		<path fill="#7E9C2E" d="M586.631,244.222c1.207,0.899,3.02,0.309,4.522,0.505c3.02,5.83-5.435,6.938-4.018,12.065
			c-3.82,0.702-2.81,5.928-5.533,8.54c-1.503-0.197-4.116,2.711-4.522-0.506c0-3.314,0.801-7.332,2.514-10.043
			c1.614,0.197,3.02-0.21,4.018-1.504c-4.917-5.139,3.02-6.038-0.998-11.571C584.116,242.016,587.136,242.114,586.631,244.222z"/>
	</g>
	<g>
		<path fill="#7E9C2E" d="M534.367,263.828c1.811,1.504,1.811,3.513,1.01,4.511c-2.316,3.13-4.83,4.128-8.047,3.524
			c-2.305,1.011-1.405-1.614-2.009-2.514C526.529,264.531,530.645,263.927,534.367,263.828z"/>
	</g>
	<g>
		<path fill="#7E9C2E" d="M521.291,197.996c-0.702,0.789-0.591,2.403-2.008,2.515l-0.998-2.515H521.291z"/>
	</g>
	<g>
		<path fill="#7E9C2E" d="M510.25,142.208c1.294,0.197,2.81-0.604,4.018,0.505c0.505,2.009-0.715,1.812-2.01,2.514L510.25,142.208z"
			/>
	</g>
	<g>
		<path fill="#7E9C2E" d="M506.725,168.839c3.118-2.711,6.828-0.296,10.057-0.998c1.602,4.325-5.139,1.603-3.524,6.026
			c-2.305,2.107,0.801,4.522,0.505,7.037c-2.218,0.505-5.027,1.108-7.037,0.505C504.421,177.281,506.516,172.659,506.725,168.839z"
			/>
	</g>
	<g>
		<path fill="#7E9C2E" d="M54.429,67.331c-1.713,1.306-0.604,3.216-3.019,2.514c-1.812-0.912-0.703-3.02-0.998-4.522
			C52.519,64.213,53.628,65.519,54.429,67.331z"/>
	</g>
</g>
</svg>
