<?xml version="1.0" encoding="utf-8"?>
<!-- Generator: Adobe Illustrator 21.0.0, SVG Export Plug-In . SVG Version: 6.00 Build 0)  -->
<svg version="1.1" id="레이어_1" xmlns="http://www.w3.org/2000/svg" xmlns:xlink="http://www.w3.org/1999/xlink" x="0px"
	 y="0px" viewBox="0 0 288 118" style="enable-background:new 0 0 288 118;" xml:space="preserve">
<style type="text/css">
	.st0{fill:url(#SVGID_1_);}
	.st1{fill:none;stroke:#FBB03B;stroke-width:4;stroke-miterlimit:10;}
	.st2{fill:url(#SVGID_2_);}
	.st3{fill:url(#SVGID_3_);}
	.st4{fill:url(#SVGID_4_);}
	.st5{fill:url(#SVGID_5_);}
	.st6{fill:url(#SVGID_6_);}
	.st7{fill:none;stroke:url(#SVGID_7_);stroke-width:4;stroke-miterlimit:10;}
</style>
<linearGradient id="SVGID_1_" gradientUnits="userSpaceOnUse" x1="16.1743" y1="46.3301" x2="275.9073" y2="46.3301">
	<stop  offset="0" style="stop-color:#C1964C"/>
	<stop  offset="0.2324" style="stop-color:#E6BC73"/>
	<stop  offset="0.5405" style="stop-color:#C1964C"/>
	<stop  offset="0.7198" style="stop-color:#E2B86F"/>
	<stop  offset="1" style="stop-color:#C1964C"/>
</linearGradient>
<path class="st0" d="M273.8,51.8c-3.5-7.5-10.7-13.2-19.3-15.3c-6.5-1.6-13.6-1-20.5,1.6c-1.8,0.7-3.6,1.7-5.4,2.8
	c-3.1,1.8-6.3,3.7-8.8,3c-2.1-0.6-4.2-2.2-6.5-3.8c-1.8-1.3-3.7-2.7-5.7-3.7c-5.3-2.6-10.7-4.2-16.1-4.7c-1.4-0.1-2.8-0.2-4.2-0.2
	c-4.5,0.1-8.9,0.9-13,2.5c-2.2,0.8-4.3,1.9-6.2,3.1c-0.7,0.4-1.4,1.1-2.1,1.7c-0.5,0.4-1.2,1.1-1.6,1.4c-1.3,0.1-4.5-1.7-6.1-2.6
	c-0.9-0.5-1.7-1-2.4-1.3c-3.8-1.8-7.7-3.8-11.1-5.5l-1.2-0.6c-6.8-3.4-13.8-7-20.9-10.1c-15.3-6.7-37.8-14.7-56.1-7.4
	c-5.4,2.1-10.1,5.7-13.3,10.1c-2.4,3.2-4.4,7.8-5.4,12c-1.4-0.4-2.8-1-4.3-1.6c-5.6-2.2-12-4.8-19.1,1.4C20.9,37.5,18,42,16.2,47
	l5.7,2c1.5-4.1,3.8-7.6,6.6-10.1c4.2-3.6,7.3-2.6,13-0.4c2.5,1,5.4,2.1,8.5,2.6l3,0.4l0.3-3.1c0.4-3.8,2.5-9.1,4.9-12.3
	c2.6-3.5,6.4-6.4,10.7-8.1c16.2-6.4,37.1,1.1,51.5,7.3c7,3,13.9,6.5,20.6,9.9l1.2,0.6c3.4,1.7,7.3,3.7,11.2,5.6
	c0.5,0.3,1.3,0.7,2,1.1c3.1,1.8,7,4,10.5,3.2c1.6-0.3,2.9-1.6,4.3-2.8c0.4-0.4,1-0.9,1.2-1.1c1.6-1,3.3-1.9,5.1-2.6
	c3.4-1.3,7.1-2,10.9-2.1c1.2,0,2.4,0,3.6,0.1c4.6,0.4,9.4,1.8,14,4.1c1.6,0.8,3.2,1.9,4.8,3.2c2.6,1.9,5.2,3.8,8.3,4.7
	c4.9,1.5,9.5-1.2,13.5-3.6c1.6-0.9,3.1-1.8,4.4-2.3c5.9-2.2,11.7-2.6,17-1.4c6.7,1.6,12.6,6.2,15.3,12c1.6,3.5,2,7.1,1,10.1
	c-1,3.3-3.6,5.4-8.1,6.7c-1.3-3-4.3-5.1-7.8-5.1c-4.7,0-8.5,3.8-8.5,8.5s3.8,8.5,8.5,8.5c3.7,0,6.9-2.4,8-5.7
	c4.7-1.1,11.3-3.7,13.6-11C276.5,61.8,276.1,56.6,273.8,51.8z M253.5,78c-1.9,0-3.5-1.6-3.5-3.5s1.6-3.5,3.5-3.5
	c1.5,0,2.8,1,3.3,2.4l0.2,1.4C256.8,76.6,255.3,78,253.5,78z"/>
</svg>
