<?xml version="1.0" encoding="utf-8"?>
<!-- Generator: Adobe Illustrator 21.0.0, SVG Export Plug-In . SVG Version: 6.00 Build 0)  -->
<svg version="1.1" id="레이어_1" xmlns="http://www.w3.org/2000/svg" xmlns:xlink="http://www.w3.org/1999/xlink" x="0px"
	 y="0px" viewBox="0 0 180 169" style="enable-background:new 0 0 180 169;" xml:space="preserve">
<style type="text/css">
	.st0{fill:url(#SVGID_1_);}
	.st1{fill:none;stroke:#FBB03B;stroke-width:4;stroke-miterlimit:10;}
	.st2{fill:url(#SVGID_2_);}
	.st3{fill:url(#SVGID_3_);}
	.st4{fill:url(#SVGID_4_);}
	.st5{fill:url(#SVGID_5_);}
	.st6{fill:url(#SVGID_6_);}
	.st7{fill:none;stroke:url(#SVGID_7_);stroke-width:4;stroke-miterlimit:10;}
</style>
<linearGradient id="SVGID_1_" gradientUnits="userSpaceOnUse" x1="44.611" y1="87.6597" x2="145" y2="87.6597">
	<stop  offset="0" style="stop-color:#C1964C"/>
	<stop  offset="0.2324" style="stop-color:#E6BC73"/>
	<stop  offset="0.5405" style="stop-color:#C1964C"/>
	<stop  offset="0.7198" style="stop-color:#E2B86F"/>
	<stop  offset="1" style="stop-color:#C1964C"/>
</linearGradient>
<path class="st0" d="M145,25.5c0-4.7-3.8-8.5-8.5-8.5s-8.5,3.8-8.5,8.5s3.8,8.5,8.5,8.5c0.3,0,0.6,0,0.9,0c2.1,22.3-5,42.3-20,56.7
	c-2.7,2.6-5.9,4.6-8.9,6.6c-6.4,4.2-13.1,8.5-15.7,18.3c-2.6,9.7,0.2,20.6,7.1,27.8c0.2,0.3,0.5,0.5,0.7,0.8c0.8,0.8,1.5,1.5,2,2.3
	c0.7,1.3,0.4,2.5,0,3.4c-0.8,1.7-2.7,3-4.3,3.2c-10.5,1.1-18.9-0.9-24.7-6.2c-9.3-8.4-9.5-22.2-9.5-22.3v-1.7l-1.6-0.6
	c-4.4-1.6-7.1-4-8.1-7.2c-2-6.5,3.7-14.4,3.8-14.5l1.7-2.4l-2.6-1.3c-3.4-1.7-7.4-4.4-7.5-7.6c-0.1-3.9,5.6-7.9,7.6-9L56,78
	l-1.2-2.2c-1.1,0.6-10.3,5.9-10.2,13.5c0.1,4,2.7,7.6,7.9,10.6c-2,3.5-4.9,10.2-3,16.5c1.3,4.3,4.5,7.6,9.6,9.8
	c0.3,4.4,2.1,16.2,11,24.3c5.8,5.2,13.4,7.8,22.7,7.8c1.9,0,3.9-0.1,6-0.3c3.3-0.4,6.7-2.8,8.3-6c1.4-2.7,1.3-5.7-0.1-8.2
	c-0.8-1.3-1.8-2.4-2.8-3.3c-0.2-0.2-0.5-0.5-0.7-0.7c-5.8-6-8.1-15-5.9-23.1c2.1-7.9,7.5-11.4,13.6-15.4c3.2-2.1,6.5-4.3,9.6-7.2
	c16.6-15.8,24.1-38,21.4-62.4C143.9,30.3,145,28,145,25.5z M133,25.5c0-1.9,1.6-3.5,3.5-3.5s3.5,1.6,3.5,3.5s-1.6,3.5-3.5,3.5
	S133,27.4,133,25.5z"/>
</svg>
