<?xml version="1.0" encoding="utf-8"?>
<!-- Generator: Adobe Illustrator 21.0.0, SVG Export Plug-In . SVG Version: 6.00 Build 0)  -->
<svg version="1.1" id="레이어_1" xmlns="http://www.w3.org/2000/svg" xmlns:xlink="http://www.w3.org/1999/xlink" x="0px"
	 y="0px" viewBox="0 0 120 119" style="enable-background:new 0 0 120 119;" xml:space="preserve">
<style type="text/css">
	.st0{fill:url(#SVGID_1_);}
	.st1{fill:none;stroke:#FBB03B;stroke-width:4;stroke-miterlimit:10;}
	.st2{fill:url(#SVGID_2_);}
	.st3{fill:url(#SVGID_3_);}
	.st4{fill:url(#SVGID_4_);}
	.st5{fill:url(#SVGID_5_);}
	.st6{fill:url(#SVGID_6_);}
	.st7{fill:none;stroke:url(#SVGID_7_);stroke-width:4;stroke-miterlimit:10;}
</style>
<linearGradient id="SVGID_1_" gradientUnits="userSpaceOnUse" x1="13.4379" y1="62.6289" x2="110.996" y2="62.6289">
	<stop  offset="0" style="stop-color:#C1964C"/>
	<stop  offset="0.2324" style="stop-color:#E6BC73"/>
	<stop  offset="0.5405" style="stop-color:#C1964C"/>
	<stop  offset="0.7198" style="stop-color:#E2B86F"/>
	<stop  offset="1" style="stop-color:#C1964C"/>
</linearGradient>
<path class="st0" d="M111,93.3c-0.3-4.2-2.7-8.6-6.1-11.6c-2.2-1.9-4.6-3.1-6.9-4.2c-1.4-0.7-2.8-1.4-4.1-2.2
	c-1.4-0.9-1.9-1.4-2.1-1.6c0.1-0.3,0.3-0.7,0.5-1c0.6-1.2,1.4-2.8,1.8-5.2c0.7-3.8-0.3-7.5-2.7-9.9c-2.3-2.4-5.3-3.3-8-4
	c-3.3-0.9-5.3-1.6-6.5-3.8c-0.3-0.5-0.5-1-0.8-1.5c-1.6-3-3.5-6.6-6.2-8.6c-5.6-4.1-11.9-5-19-2.6l1.6,4.7
	c5.7-1.9,10.1-1.3,14.5,1.9c1.8,1.3,3.5,4.6,4.8,6.9c0.3,0.6,0.6,1.1,0.9,1.6c2.3,4.1,6.1,5.2,9.5,6.1c2.3,0.7,4.4,1.3,5.8,2.7
	c1.2,1.3,1.8,3.4,1.4,5.6c-0.3,1.6-0.9,2.8-1.4,3.8c-1.8,3.5-1.7,5.9,3.4,9.1c1.5,0.9,3,1.7,4.5,2.5c2.1,1.1,4.2,2.1,5.9,3.5
	c2.4,2.1,4.2,5.3,4.4,8.1c0.1,1.8-0.3,3.3-1.3,4.4c-1.6,1.8-4.6,2.6-7.7,2c-1-0.2-2.4-0.9-3.8-1.6c-2.3-1.2-4.8-2.5-7.2-2.2
	c-2.3,0.3-4.3,1.6-6,2.7c-1.4,0.9-2.8,1.8-4.1,2.1c-2.9,0.5-6.3-0.1-9.6-1.6c-2.3-1-4.3-2.6-6.4-4.2c-1.8-1.4-3.7-2.8-5.8-3.9
	c-3.7-2-5.9-1.8-8.7-1.6c-0.9,0.1-1.8,0.2-3,0.2c-7.3,0.2-14.4-2.6-19-7.5c-3.5-3.7-5.4-9-5-13.9c0.1-1.3,0.8-2.7,1.6-4.2
	c0.6-1.1,1.2-2.3,1.6-3.6c1.4-4.5,0.8-6.2-0.5-9.2c-0.3-0.7-0.6-1.5-1-2.4C18,43.7,19,38.4,22.6,34.4c1.4,1,3.1,1.6,4.9,1.6
	c4.7,0,8.5-3.8,8.5-8.5S32.2,19,27.5,19S19,22.8,19,27.5c0,1,0.2,2,0.5,2.9c-5.4,5.3-7,12.9-4.1,20.6c0.4,1.1,0.8,2,1.1,2.7
	c1,2.4,1.2,2.8,0.3,5.7c-0.3,0.9-0.8,1.8-1.3,2.8c-0.9,1.8-1.9,3.8-2.1,6c-0.5,6.3,1.8,12.9,6.4,17.7c5.7,6,14,9.3,22.8,9.1
	c1.3,0,2.4-0.1,3.3-0.2c2.4-0.2,3.4-0.3,5.8,1c1.8,1,3.4,2.2,5.1,3.5c2.2,1.7,4.5,3.4,7.3,4.7c3.2,1.5,6.5,2.2,9.6,2.2
	c1,0,2-0.1,2.9-0.2c2.3-0.4,4.3-1.7,6-2.8c1.4-0.9,2.7-1.8,3.8-1.9c1-0.1,2.9,0.9,4.4,1.7c1.7,0.9,3.4,1.8,5.2,2.1
	c4.9,0.9,9.6-0.5,12.3-3.7C110.3,99.2,111.2,96.4,111,93.3z M27.5,24c1.9,0,3.5,1.6,3.5,3.5S29.4,31,27.5,31S24,29.4,24,27.5
	S25.6,24,27.5,24z"/>
</svg>
