<?xml version="1.0" encoding="utf-8"?>
<!-- Generator: Adobe Illustrator 21.0.0, SVG Export Plug-In . SVG Version: 6.00 Build 0)  -->
<svg version="1.1" id="레이어_1" xmlns="http://www.w3.org/2000/svg" xmlns:xlink="http://www.w3.org/1999/xlink" x="0px"
	 y="0px" viewBox="0 0 84 118" style="enable-background:new 0 0 84 118;" xml:space="preserve">
<style type="text/css">
	.st0{fill:url(#SVGID_1_);}
	.st1{fill:none;stroke:#FBB03B;stroke-width:4;stroke-miterlimit:10;}
	.st2{fill:url(#SVGID_2_);}
	.st3{fill:url(#SVGID_3_);}
	.st4{fill:url(#SVGID_4_);}
	.st5{fill:url(#SVGID_5_);}
	.st6{fill:url(#SVGID_6_);}
	.st7{fill:none;stroke:url(#SVGID_7_);stroke-width:4;stroke-miterlimit:10;}
</style>
<linearGradient id="SVGID_1_" gradientUnits="userSpaceOnUse" x1="29.1657" y1="57.0635" x2="64" y2="57.0635">
	<stop  offset="0" style="stop-color:#C1964C"/>
	<stop  offset="0.2324" style="stop-color:#E6BC73"/>
	<stop  offset="0.5405" style="stop-color:#C1964C"/>
	<stop  offset="0.7198" style="stop-color:#E2B86F"/>
	<stop  offset="1" style="stop-color:#C1964C"/>
</linearGradient>
<path class="st0" d="M56,84c-3.8,0-7,2.7-7.8,6.2c-3.4-2.1-5.5-4.5-6-6.8c-0.6-2.9,1.2-5,1.2-5.1l1.5-1.7l-1.8-1.3
	c-5.6-4-8.9-8.9-9.8-14.4c-1.5-9.8,5.1-18.7,5.2-18.8l0.7-1l-0.5-1.1c-2.7-5.7-3.3-10.7-1.6-14.8c2.1-5.4,7.5-7.5,7.5-7.5L44,16
	l-0.7-1.9c-0.3,0.1-7,2.7-9.8,9.7c-2,4.9-1.6,10.6,1.2,17C32.8,43.6,28,52,29.4,61.5c0.9,6.1,4.2,11.5,9.9,15.9
	c-0.8,1.5-1.6,3.9-1,6.7c0.8,4.1,4.3,7.8,10.3,10.9c1.2,2.9,4.1,5,7.4,5c4.4,0,8-3.6,8-8S60.4,84,56,84z M56,96c-2.2,0-4-1.8-4-4
	s1.8-4,4-4s4,1.8,4,4S58.2,96,56,96z"/>
</svg>
