<?xml version="1.0" encoding="utf-8"?>
<!-- Generator: Adobe Illustrator 21.0.0, SVG Export Plug-In . SVG Version: 6.00 Build 0)  -->
<svg version="1.1" id="레이어_1" xmlns="http://www.w3.org/2000/svg" xmlns:xlink="http://www.w3.org/1999/xlink" x="0px"
	 y="0px" viewBox="0 0 105 78" style="enable-background:new 0 0 105 78;" xml:space="preserve">
<style type="text/css">
	.st0{fill:url(#SVGID_1_);}
	.st1{fill:none;stroke:#FBB03B;stroke-width:4;stroke-miterlimit:10;}
	.st2{fill:url(#SVGID_2_);}
	.st3{fill:url(#SVGID_3_);}
	.st4{fill:url(#SVGID_4_);}
	.st5{fill:url(#SVGID_5_);}
	.st6{fill:url(#SVGID_6_);}
	.st7{fill:none;stroke:url(#SVGID_7_);stroke-width:4;stroke-miterlimit:10;}
</style>
<linearGradient id="SVGID_1_" gradientUnits="userSpaceOnUse" x1="27.9024" y1="43.4924" x2="82.0099" y2="43.4924">
	<stop  offset="0" style="stop-color:#C1964C"/>
	<stop  offset="0.2324" style="stop-color:#E6BC73"/>
	<stop  offset="0.5405" style="stop-color:#C1964C"/>
	<stop  offset="0.7198" style="stop-color:#E2B86F"/>
	<stop  offset="1" style="stop-color:#C1964C"/>
</linearGradient>
<path class="st0" d="M82,42.9l-4,0.1c0.1,3.1-0.5,7-4,8.5c-1.2,0.5-3,0.1-4.7-0.2c-2.7-0.6-6.5-1.4-8.5,2c-1.8,3.1-4.6,5.4-7.6,6.4
	c-3.3,1.1-7.4,0.8-10.8-1c-3.2-1.7-6.1-4.5-8-8.1c-2.3-4.4-3.1-9.2-2-13.3c1.2-4.4,4.7-8.1,8.7-9.1c3.5-0.9,7.3,0.2,10.4,1.4
	c0,0.3,0,0.5,0,0.8c0,4.4,3.6,8,8,8s8-3.6,8-8s-3.6-8-8-8c-2.7,0-5.1,1.4-6.6,3.4c-3.7-1.5-8.3-2.7-12.8-1.6
	c-5.5,1.4-10,6-11.6,11.9c-1.4,5.1-0.5,11,2.3,16.3c2.3,4.3,5.8,7.8,9.7,9.8c2.7,1.4,5.7,2.1,8.6,2.1c1.8,0,3.7-0.3,5.4-0.9
	c3.9-1.3,7.4-4.2,9.8-8.2c0.5-0.8,1.3-0.8,4.2-0.2c2.2,0.5,4.8,1,7.2,0C79.9,53.4,82.2,49,82,42.9z M59.5,26.5c2.2,0,4,1.8,4,4
	s-1.8,4-4,4s-4-1.8-4-4S57.3,26.5,59.5,26.5z"/>
</svg>
