<?xml version="1.0" encoding="utf-8"?>
<!-- Generator: Adobe Illustrator 21.0.0, SVG Export Plug-In . SVG Version: 6.00 Build 0)  -->
<svg version="1.1" id="레이어_1" xmlns="http://www.w3.org/2000/svg" xmlns:xlink="http://www.w3.org/1999/xlink" x="0px"
	 y="0px" viewBox="0 0 187 71" style="enable-background:new 0 0 187 71;" xml:space="preserve">
<style type="text/css">
	.st0{fill:url(#SVGID_1_);}
	.st1{fill:none;stroke:#FBB03B;stroke-width:4;stroke-miterlimit:10;}
	.st2{fill:url(#SVGID_2_);}
	.st3{fill:url(#SVGID_3_);}
	.st4{fill:url(#SVGID_4_);}
	.st5{fill:url(#SVGID_5_);}
	.st6{fill:url(#SVGID_6_);}
	.st7{fill:none;stroke:url(#SVGID_7_);stroke-width:4;stroke-miterlimit:10;}
</style>
<linearGradient id="SVGID_1_" gradientUnits="userSpaceOnUse" x1="21.5283" y1="36.5253" x2="169" y2="36.5253">
	<stop  offset="0" style="stop-color:#C1964C"/>
	<stop  offset="0.2324" style="stop-color:#E6BC73"/>
	<stop  offset="0.5405" style="stop-color:#C1964C"/>
	<stop  offset="0.7198" style="stop-color:#E2B86F"/>
	<stop  offset="1" style="stop-color:#C1964C"/>
</linearGradient>
<path class="st0" d="M163.2,14.5c-6.5-5.4-16.8-4.9-24.2-3.5c-11.4,2.2-27,5.8-36.6,12.5c-1.5-2.2-4.1-3.6-7-3.6
	c-4.7,0-8.5,3.8-8.5,8.5s3.8,8.5,8.5,8.5c4.6,0,8.4-3.7,8.5-8.3c9.6-7.7,29.3-11.5,36-12.7c5.2-1,14.8-2,20.1,2.4
	c2.7,2.2,4,5.5,4,10.1c0,3.6-1.2,6.5-3.7,8.9c-7.2,7-22.6,6.6-22.8,6.6l-0.9,0l-0.7,0.6c-29.5,23.8-68.6,8.3-69,8.1l-0.5-0.2l-0.6,0
	c-34.2,1.8-39.2-27.6-39.4-28.9l-4.9,0.8c0.1,0.4,5.8,34.9,44.1,33.1c2.8,1.1,15.1,5.4,30.5,5.4c13.1,0,28.4-3.1,42.2-13.9
	c3.8,0,17.7-0.5,25.5-8c3.4-3.3,5.2-7.5,5.2-12.5C169,22.4,167.1,17.7,163.2,14.5z M95.5,32c-1.9,0-3.5-1.6-3.5-3.5s1.6-3.5,3.5-3.5
	s3.5,1.6,3.5,3.5S97.4,32,95.5,32z"/>
</svg>
