<?xml version="1.0" encoding="utf-8"?>
<!-- Generator: Adobe Illustrator 21.0.0, SVG Export Plug-In . SVG Version: 6.00 Build 0)  -->
<svg version="1.1" id="레이어_1" xmlns="http://www.w3.org/2000/svg" xmlns:xlink="http://www.w3.org/1999/xlink" x="0px"
	 y="0px" viewBox="0 0 134 171" style="enable-background:new 0 0 134 171;" xml:space="preserve">
<style type="text/css">
	.st0{fill:#FFFFFF;stroke:#FFFFFF;stroke-width:12;stroke-linecap:round;stroke-miterlimit:10;}
	.st1{fill:none;stroke:#FFFFFF;stroke-width:7;stroke-linecap:round;stroke-miterlimit:10;}
	.st2{fill:none;stroke:#FFFFFF;stroke-width:6;stroke-linecap:round;stroke-miterlimit:10;}
	.st3{fill:none;stroke:#FFFFFF;stroke-width:4;stroke-linecap:round;stroke-miterlimit:10;}
	.st4{fill:none;stroke:#FFFFFF;stroke-width:5;stroke-linecap:round;stroke-miterlimit:10;}
	.st5{fill:#FFFFFF;}
</style>
<path class="st0" d="M49.1,129.4"/>
<g>
	<path class="st1" d="M67.8,8.5c-16.8,0-33,8.1-43.8,20.8c-21.3,24.9-12.8,55.2,7.7,77.5c6.7,7.2,12.4,8.9,15.8,17.6"/>
	<path class="st1" d="M67.8,8.5c20.5,0,40.8,12.3,50.5,30.4c10.7,20,4.9,43.5-8.2,60.9c-3.7,5-8,9.4-12.8,13.4
		c-4.5,3.7-9.2,7.8-10.1,13.9"/>
</g>
<line class="st2" x1="84.9" y1="128.2" x2="48.8" y2="132.4"/>
<line class="st2" x1="86.2" y1="141.2" x2="50.1" y2="145.4"/>
<path class="st2" d="M50.1,145.5"/>
<path class="st2" d="M86.2,150.3"/>
<path class="st3" d="M76.1,129.2"/>
<path class="st3" d="M57.7,118.1"/>
<path class="st3" d="M61.9,127.6"/>
<path class="st1" d="M83.9,150.8c0.6,6-5.3,11.5-13.1,12.3s-14.7-3.4-15.3-9.4"/>
<path class="st4" d="M55.5,24.3c0,0-16,1.4-25.2,19"/>
<path class="st4" d="M27.7,49.9c0,0-2.6,2.7-2.4,8.1"/>
<g>
	<g>
		<g>
			<path class="st5" d="M44.6,84.6c0.1,7.2,5.8,13.9,13.6,12c7.8-2,9.4-12.6,6.4-19c-3.4-7.4-10.2,1-10.5,5.8
				c-0.4,7.8,7.4,13.8,14.9,12.9c1.9-0.2,1.9-3.2,0-3c-4.2,0.5-8.9-1.4-11-5.3c-0.9-1.8-1.2-4.1-0.8-6c0.3-2.5,1.9-3.2,4.8-2.3
				c0.2,0.9,0.4,1.9,0.5,2.8c0.6,4.3-0.2,9.9-5.3,11.2c-5.8,1.5-9.7-3.9-9.8-9.1C47.5,82.6,44.5,82.6,44.6,84.6L44.6,84.6z"/>
		</g>
	</g>
	<g>
		<g>
			<path class="st5" d="M67.8,96.3c7.5-0.6,12.5-4.6,12.3-12.6c-0.1-2.9-0.3-8.3-3.6-9.6c-2.7-1-5.4,1.3-6.7,3.4
				c-3.7,6.3-0.1,13.8,6.2,16.7c2.8,1.3,6.9,2.3,9.6,0.2c3.4-2.6,4.2-8.5,4.3-12.4c0-1.9-3-1.9-3,0c-0.1,5.3-2,12.3-8.9,9.7
				c-4.4-1.7-7.7-6.2-6.2-11.1c1.1-3.5,3.7-4,5-0.4c0.8,2.2,0.6,5.6-0.2,7.7c-1.4,3.9-5,5-8.7,5.3C65.8,93.5,65.8,96.5,67.8,96.3
				L67.8,96.3z"/>
		</g>
	</g>
</g>
<g>
	<g>
		<path class="st5" d="M86.7,129.8c1.9,0,1.9-3,0-3C84.7,126.8,84.7,129.8,86.7,129.8L86.7,129.8z"/>
	</g>
</g>
<g>
	<g>
		<path class="st5" d="M87.4,127.4c-0.7,0.4-1.4,0.7-2.1,0.7c-0.8,0.1-1.5,0.7-1.5,1.5c0,0.8,0.7,1.6,1.5,1.5
			c1.3-0.1,2.5-0.4,3.6-1.1C90.6,129,89.1,126.4,87.4,127.4L87.4,127.4z"/>
	</g>
</g>
<g>
</g>
<g>
</g>
<g>
</g>
<g>
</g>
<g>
</g>
<g>
</g>
<g>
</g>
<g>
</g>
<g>
</g>
<g>
</g>
<g>
</g>
<g>
</g>
<g>
</g>
<g>
</g>
<g>
</g>
</svg>
