<?xml version="1.0" encoding="utf-8"?>
<!-- Generator: Adobe Illustrator 21.0.0, SVG Export Plug-In . SVG Version: 6.00 Build 0)  -->
<svg version="1.1" id="레이어_1" xmlns="http://www.w3.org/2000/svg" xmlns:xlink="http://www.w3.org/1999/xlink" x="0px"
	 y="0px" viewBox="0 0 193 106" style="enable-background:new 0 0 193 106;" xml:space="preserve">
<style type="text/css">
	.st0{fill:none;stroke:#333333;stroke-miterlimit:10;}
</style>
<g>
	<path class="st0" d="M17.6,50c-2.1,3.1-4,5.7-5.6,7.9l-2.2-1.5c4.5-7,8.4-14.4,11.8-22.2c3.4-7.8,6-16.1,7.8-24.8l7.6,3.3
		c0.8,0.2,1.2,0.6,1.2,1.3c0,0.6-0.4,1.1-1.2,1.3l-3,0.5c-0.6,1.5-1.2,3-1.9,4.7c-0.6,1.7-1.3,3.3-1.9,4.9c-0.7,1.6-1.3,3.1-1.9,4.6
		c-0.6,1.4-1.1,2.6-1.5,3.5l3.6,1.4c0.6,0.2,0.9,0.6,0.9,1.1c0,0.5-0.3,0.9-0.8,1.1l-1.9,1.3v59.2c0,0.9-0.2,1.6-0.7,2
		c-0.5,0.4-1.1,0.6-1.9,0.6c-0.8,0-1.5-0.1-2-0.3c-0.5-0.2-0.8-0.3-0.9-0.5c0-0.2,0-0.6,0.1-1.3c0-0.6,0.1-1.4,0.1-2.3
		c0-0.9,0-1.9,0.1-3c0.1-1.1,0.1-2.2,0.1-3.4v-47c0-0.1,0-0.4,0-0.7c0-0.3,0-0.7,0-1.1C21.7,43.8,19.7,46.9,17.6,50z M63.3,98.5
		c0,0.5-0.3,0.8-0.9,1c-0.6,0.2-1.3,0.3-2,0.3c-0.7,0-1.4-0.1-1.9-0.3c-0.5-0.2-0.8-0.5-0.8-1c0-1.1,0-2.1,0.1-3.1
		c0.1-1,0.1-1.9,0.1-2.7c0.1-0.9,0.1-1.6,0.1-2.1c0-0.6,0-1,0-1.3V45.4c-1.6,4.3-3.2,8.1-4.9,11.5c-1.7,3.4-3.5,6.6-5.4,9.6
		c-2.2,3.2-4.5,6.3-6.8,9.1c-2.3,2.9-5.1,6-8.6,9.1L31.1,83c2.8-3.4,5.4-6.8,7.8-10.3c2.4-3.5,4.6-7.1,6.6-10.8
		c1.7-3.7,3.4-7.4,4.9-11.3c1.5-3.8,2.8-7.8,3.8-11.9h-9.4c-2,0-3.9,0.1-5.7,0.1c-1.8,0.1-2.9,0.2-3.4,0.2l-1.3-4.4
		c1.5,0.4,3.3,0.7,5.3,1c2,0.3,3.7,0.4,5.1,0.4h13.4V18.3c0-1,0-2.3-0.1-3.8s-0.2-2.9-0.3-4.4l7.9,1.7c0.7,0.3,1,0.7,1.1,1.3
		c0.1,0.6-0.2,1-0.8,1.3l-2.7,1.4v20.3h16.5l3.9-4.6c0.6-0.5,1.1-0.8,1.5-0.8c0.4,0,0.9,0.3,1.4,0.8l4.9,5.2
		c0.2,0.2,0.3,0.6,0.2,1.2c-0.1,0.6-0.3,0.9-0.7,0.9H64.1c0.9,2.1,1.9,4.1,2.8,6c0.9,1.9,1.8,3.8,2.7,5.5c0.9,1.8,1.9,3.5,2.8,5.2
		c1,1.7,2,3.3,3.2,4.8c2.1,3.1,4.6,6.1,7.3,8.8c2.8,2.7,6.1,5.1,9.9,7.4l-0.3,2.7c-0.9,0-1.8,0.1-2.5,0.3c-0.7,0.2-1.4,0.4-2,0.6
		c-0.3,0.2-1.1,0.8-2.2,1.9c-2.8-3-5.2-5.9-7.1-8.6c-2-2.7-3.9-5.7-5.6-8.8c-1.7-2.8-3.3-5.9-5-9.2c-1.6-3.3-3.2-7-4.6-10.9V98.5z"
		/>
	<path class="st0" d="M107.2,87.8c0.9-1.2,1.7-2.4,2.2-3.6c0.5-1.3,1-2.6,1.4-4.1c0.4-1.5,0.8-3.3,1.1-5.4l2.9,0.2
		c-0.1,2.1-0.4,4.5-0.8,7.1c-0.4,2.6-0.7,4.5-1,5.8c-0.6,2.1-1.6,4-2.9,5.9c-1.3,1.9-3,2.8-5.1,2.8c-0.6,0-1.2-0.3-1.8-0.9
		c-0.6-0.6-0.9-1.3-0.9-2.1c0-0.2,0.1-0.5,0.4-1c0.3-0.4,0.6-0.8,0.8-1C105,90.3,106.2,89,107.2,87.8z M162.8,22l1.9-2.4
		c0.3-0.5,0.6-0.7,1-0.8c0.3-0.1,0.6,0.1,1,0.4l4.1,3c0.5,0.5,0.7,1,0.8,1.7c0,0.6-0.1,1-0.5,1.3l-2.6,2.1V61
		c0.1,0.9,0.1,1.7,0.2,2.6c0.1,0.9,0.1,1.4,0.1,1.7c0,0.5-0.1,1-0.2,1.5c-0.1,0.5-0.3,0.9-0.5,1c-0.2,0.2-0.6,0.4-1.1,0.6
		s-0.9,0.3-1.4,0.3c-0.7,0-1.2-0.2-1.6-0.5c-0.4-0.4-0.6-0.8-0.6-1.4v-2h-42.9v1.5c0,0.7-0.3,1.2-0.8,1.7c-0.5,0.5-1.2,0.7-2.1,0.7
		c-0.6,0-1.2-0.1-1.7-0.4c-0.5-0.3-0.8-0.6-0.7-1.1c0-1.2,0-2.4,0.1-3.7c0.1-1.3,0.1-2.3,0.1-3.1V25.7c0-0.9-0.1-2.1-0.2-3.5
		c-0.1-1.4-0.3-2.7-0.5-3.8l6.4,3.6h12.2c0.9-2,1.7-4.1,2.3-6.3c0.6-2.2,1-4.4,1.3-6.6l6.7,2.4c0.9,0.3,1.3,0.8,1.4,1.4
		c0,0.6-0.3,1-0.9,1.2l-3.3,0.4c-0.3,0.9-0.6,1.6-0.9,2.3c-0.3,0.7-0.5,1.3-0.8,1.9c-0.3,0.6-0.7,1.2-1.1,1.8
		c-0.4,0.6-0.9,1.1-1.5,1.6H162.8z M120.5,25v10.7h42.9V25H120.5z M120.5,38.3v10.4h42.9V38.3H120.5z M120.5,51.4v10.9h42.9V51.4
		H120.5z M123,77.9c0-0.8-0.1-1.9-0.2-3.4c-0.1-1.4-0.3-2.8-0.5-3.9l8.1,2.2c0.7,0.2,1.2,0.6,1.3,1.1c0.1,0.6-0.2,1-1,1.2l-2.8,1.2
		v14.2c0,0.5,0.2,1,0.5,1.7c0.3,0.7,0.8,1.1,1.5,1.3c0.7,0.3,2.3,0.6,4.7,0.8c2.4,0.2,5.1,0.3,8,0.3c3.4,0,6.4-0.1,8.9-0.3
		c2.5-0.2,4.1-0.5,4.8-0.8c0.5-0.3,1-0.7,1.5-1.4c0.4-0.7,0.8-1.4,1.1-2.2c0.3-0.7,0.5-1.4,0.7-2.3c0.2-0.8,0.4-1.7,0.6-2.6
		c0.1-0.9,0.3-1.9,0.5-2.8c0.2-0.9,0.3-1.8,0.5-2.6l2.6,0.2v9c0,0.6,0.1,1.2,0.2,1.7c0.1,0.5,0.3,0.8,0.4,1c1.8,1.1,2.6,2.3,2.6,3.6
		c-0.1,1.3-1.2,2.3-3.3,3.1c-0.8,0.3-1.9,0.6-3.4,0.8c-1.5,0.2-3.1,0.4-5,0.5c-1.9,0.2-3.9,0.3-6,0.4c-2.2,0-4.3,0-6.5,0
		c-2,0-3.9,0-5.8-0.1c-1.9-0.1-3.6-0.2-5.1-0.3c-1.6-0.1-2.9-0.3-4-0.6c-1.1-0.3-1.7-0.6-2-0.9c-0.8-0.6-1.4-1.5-1.9-2.9
		c-0.5-1.3-0.8-2.5-0.8-3.8V77.9z M139,68.9c1.5,0.5,3.2,1.4,4.9,2.5c1.8,1.1,3.1,2.1,4.1,3c1,0.9,1.9,1.8,2.6,2.8
		c0.7,1,1,1.8,1,2.5c0,1.2-0.3,2.2-0.8,2.9c-0.5,0.7-1.1,1.1-1.9,1.1c-0.6,0-1.1-0.2-1.6-0.6c-0.5-0.4-0.9-0.9-1.2-1.5
		c-0.8-2.4-1.9-4.4-3.4-6.1c-1.5-1.7-3.3-3.3-5.4-4.9L139,68.9z M169,74.1c1.9,1,3.8,2.3,5.9,3.8c2.1,1.5,3.8,2.9,5.2,4.1
		c1.1,1.1,2.1,2.3,2.9,3.5c0.8,1.3,1.1,2.4,1.1,3.1c0,1.2-0.2,2.2-0.7,3.1c-0.5,0.8-1.1,1.3-1.8,1.3c-0.7,0-1.4-0.3-2-0.8
		c-0.6-0.5-1-1.1-1.3-2c-0.5-1.5-1.1-2.9-1.8-4.3c-0.7-1.3-1.6-2.5-2.5-3.5c-0.9-1.1-1.9-2.2-3-3.3c-1.1-1-2.2-2.1-3.3-3.1L169,74.1
		z"/>
</g>
</svg>
