<?xml version="1.0" encoding="utf-8"?>
<!-- Generator: Adobe Illustrator 16.0.0, SVG Export Plug-In . SVG Version: 6.00 Build 0)  -->
<!DOCTYPE svg PUBLIC "-//W3C//DTD SVG 1.1//EN" "http://www.w3.org/Graphics/SVG/1.1/DTD/svg11.dtd">
<svg version="1.1" id="레이어_1" xmlns="http://www.w3.org/2000/svg" xmlns:xlink="http://www.w3.org/1999/xlink" x="0px"
	 y="0px" width="154px" height="32.667px" viewBox="121.5 89.5 154 32.667" enable-background="new 121.5 89.5 154 32.667"
	 xml:space="preserve">
<g>
	<linearGradient id="SVGID_1_" gradientUnits="userSpaceOnUse" x1="173.1147" y1="106.1543" x2="268.6188" y2="126.6552">
		<stop  offset="0" style="stop-color:#2E2E2E"/>
		<stop  offset="1" style="stop-color:#000000"/>
	</linearGradient>
	<path fill="url(#SVGID_1_)" d="M159.107,99.601c0-0.277-0.065-0.524-0.195-0.741c-0.13-0.216-0.325-0.403-0.585-0.559
		c-0.087-0.052-0.178-0.104-0.273-0.156c-0.096-0.052-0.187-0.121-0.273-0.208c-0.104-0.052-0.191-0.095-0.26-0.13
		s-0.104-0.069-0.104-0.104c-0.069-0.052-0.113-0.108-0.13-0.169c-0.018-0.061-0.026-0.117-0.026-0.169
		c0-0.034,0.008-0.073,0.026-0.117c0.017-0.043,0.043-0.091,0.078-0.143c0.035-0.017,0.095-0.039,0.182-0.065
		c0.086-0.026,0.19-0.056,0.312-0.091c0.208-0.017,0.433-0.017,0.676,0c0.243,0.018,0.511,0.052,0.806,0.104
		c0.294,0.07,0.563,0.143,0.806,0.221s0.459,0.161,0.65,0.247h0.884c0.26,0,0.507-0.021,0.741-0.065
		c0.234-0.043,0.463-0.091,0.689-0.143c0.086-0.017,0.177-0.039,0.273-0.065c0.095-0.026,0.195-0.048,0.299-0.065
		c0.069-0.017,0.151-0.039,0.247-0.065c0.095-0.026,0.186-0.056,0.273-0.091c0.017,0,0.047-0.004,0.091-0.013
		c0.043-0.008,0.083-0.021,0.117-0.039c0.052-0.017,0.095-0.03,0.13-0.039s0.078-0.021,0.13-0.039c0.034,0,0.095-0.009,0.182-0.026
		s0.182-0.026,0.286-0.026c0.052,0,0.113,0.005,0.182,0.013c0.069,0.009,0.138,0.013,0.208,0.013h0.416
		c0.121,0.035,0.242,0.065,0.364,0.091c0.121,0.026,0.251,0.048,0.39,0.065c0.381,0.104,0.676,0.23,0.884,0.377
		c0.208,0.147,0.312,0.325,0.312,0.533c0,0.104-0.03,0.191-0.091,0.26c-0.061,0.07-0.134,0.13-0.221,0.182
		c-0.139,0.069-0.321,0.126-0.546,0.169c-0.226,0.043-0.503,0.074-0.832,0.091h-4.758v2.652c0.208,0,0.394-0.017,0.559-0.052
		c0.165-0.034,0.316-0.078,0.455-0.13c0.138-0.017,0.273-0.047,0.403-0.091s0.255-0.091,0.377-0.143
		c0.156-0.052,0.308-0.1,0.455-0.143c0.147-0.043,0.29-0.065,0.429-0.065c0.208,0,0.429,0.018,0.663,0.052
		c0.234,0.035,0.472,0.078,0.715,0.13c0.225,0.069,0.416,0.152,0.572,0.247c0.156,0.096,0.286,0.204,0.39,0.325h0.052
		c0.121,0.035,0.243,0.057,0.364,0.065c0.121,0.009,0.242,0.013,0.364,0.013c0.104,0.018,0.208,0.026,0.312,0.026s0.208,0,0.312,0
		c0.173,0.035,0.351,0.052,0.533,0.052c0.182,0,0.368-0.009,0.559-0.026c0.173,0,0.346,0,0.52,0s0.347-0.017,0.52-0.052v-4.316
		c0-0.017-0.004-0.043-0.013-0.078c-0.009-0.035-0.013-0.069-0.013-0.104v-0.234c-0.018-0.052-0.039-0.104-0.065-0.156
		c-0.026-0.052-0.057-0.104-0.091-0.156c-0.156-0.156-0.304-0.299-0.442-0.429s-0.26-0.247-0.364-0.351
		c-0.069-0.034-0.134-0.069-0.195-0.104c-0.061-0.034-0.109-0.061-0.143-0.078c-0.035-0.034-0.074-0.065-0.117-0.091
		c-0.043-0.026-0.083-0.056-0.117-0.091c-0.07-0.017-0.139-0.048-0.208-0.091c-0.07-0.043-0.139-0.091-0.208-0.143
		c-0.104-0.035-0.174-0.078-0.208-0.13c-0.035-0.052-0.052-0.112-0.052-0.182c0-0.087,0.035-0.16,0.104-0.221
		c0.069-0.061,0.173-0.117,0.312-0.169l0.286-0.026c0.242,0,0.502,0.017,0.78,0.052c0.277,0.035,0.563,0.087,0.858,0.156
		c0.277,0.087,0.555,0.186,0.832,0.299s0.555,0.238,0.832,0.377c0.052,0.052,0.104,0.1,0.156,0.143
		c0.052,0.043,0.095,0.083,0.13,0.117c0.052,0.052,0.091,0.091,0.117,0.117c0.026,0.026,0.056,0.048,0.091,0.065
		c0.035,0.069,0.065,0.139,0.091,0.208c0.026,0.069,0.039,0.13,0.039,0.182c0,0.139-0.013,0.256-0.039,0.351
		c-0.026,0.095-0.056,0.169-0.091,0.221v-0.026c-0.035,0.052-0.052,0.108-0.052,0.169c0,0.061,0,0.117,0,0.169v5.408
		c0,0.208-0.009,0.434-0.026,0.676c-0.018,0.243-0.035,0.512-0.052,0.806c-0.018,0.312-0.052,0.607-0.104,0.884
		c-0.052,0.277-0.104,0.546-0.156,0.806c-0.069,0.295-0.139,0.563-0.208,0.806s-0.147,0.468-0.234,0.676
		c-0.104,0.243-0.208,0.416-0.312,0.52s-0.208,0.156-0.312,0.156c-0.069,0-0.126-0.017-0.169-0.052
		c-0.043-0.034-0.091-0.095-0.143-0.182c-0.052-0.069-0.104-0.152-0.156-0.247c-0.052-0.095-0.096-0.212-0.13-0.351
		c-0.035-0.104-0.065-0.221-0.091-0.351s-0.039-0.273-0.039-0.429c-0.035-0.121-0.056-0.251-0.065-0.39s-0.013-0.286-0.013-0.442
		v-2.522c-0.087,0.035-0.169,0.061-0.247,0.078c-0.078,0.018-0.152,0.035-0.221,0.052c-0.087,0.017-0.165,0.035-0.234,0.052
		c-0.07,0.018-0.13,0.026-0.182,0.026c-0.156,0.035-0.295,0.057-0.416,0.065c-0.122,0.009-0.226,0.013-0.312,0.013
		c-0.243,0.035-0.477,0.031-0.702-0.013s-0.433-0.117-0.624-0.221c-0.225-0.069-0.42-0.151-0.585-0.247
		c-0.165-0.095-0.291-0.195-0.377-0.299c-0.139,0.052-0.299,0.091-0.481,0.117c-0.182,0.026-0.395,0.039-0.637,0.039h-3.536v2.236
		c0,0.173,0.013,0.312,0.039,0.416c0.026,0.104,0.065,0.182,0.117,0.234c0.035,0.052,0.087,0.091,0.156,0.117
		c0.069,0.026,0.165,0.039,0.286,0.039c0.277,0.018,0.628,0.009,1.053-0.026c0.425-0.035,0.94-0.104,1.547-0.208
		c0.26-0.035,0.524-0.082,0.793-0.143c0.269-0.061,0.55-0.134,0.845-0.221c0.277-0.069,0.559-0.156,0.845-0.26
		c0.286-0.104,0.576-0.225,0.871-0.364c0.121-0.017,0.238-0.03,0.351-0.039s0.212-0.004,0.299,0.013
		c0.034,0.035,0.073,0.074,0.117,0.117c0.043,0.043,0.082,0.091,0.117,0.143c0,0.087-0.009,0.165-0.026,0.234
		c-0.018,0.069-0.052,0.139-0.104,0.208c-0.052,0.104-0.117,0.187-0.195,0.247c-0.078,0.061-0.169,0.108-0.273,0.143
		c-0.642,0.312-1.287,0.589-1.937,0.832s-1.304,0.442-1.963,0.598c-0.642,0.156-1.209,0.265-1.703,0.325
		c-0.494,0.061-0.915,0.083-1.261,0.065c-0.399,0.018-0.741-0.013-1.027-0.091c-0.286-0.078-0.516-0.195-0.689-0.351
		c-0.208-0.139-0.36-0.342-0.455-0.611s-0.143-0.602-0.143-1.001V99.601z M171.639,108.857c0.502,0,0.923-0.013,1.261-0.039
		c0.338-0.026,0.593-0.074,0.767-0.143c0.035-0.017,0.074-0.034,0.117-0.052c0.043-0.017,0.082-0.026,0.117-0.026
		c0.034-0.017,0.073-0.034,0.117-0.052c0.043-0.017,0.082-0.035,0.117-0.052c0.069,0,0.139-0.008,0.208-0.026
		c0.069-0.017,0.13-0.034,0.182-0.052c0.104,0,0.221,0.013,0.351,0.039c0.13,0.026,0.256,0.048,0.377,0.065
		c0.104,0.052,0.212,0.095,0.325,0.13c0.113,0.035,0.221,0.078,0.325,0.13c0.034,0.035,0.069,0.065,0.104,0.091
		c0.034,0.026,0.069,0.056,0.104,0.091c0.034,0.035,0.069,0.065,0.104,0.091c0.034,0.026,0.078,0.048,0.13,0.065
		c0.052,0.07,0.1,0.13,0.143,0.182c0.043,0.052,0.065,0.096,0.065,0.13c0,0.035-0.009,0.065-0.026,0.091
		c-0.018,0.026-0.035,0.056-0.052,0.091c-0.035,0.052-0.065,0.113-0.091,0.182s-0.039,0.13-0.039,0.182
		c-0.035,0.052-0.065,0.139-0.091,0.26c-0.026,0.122-0.048,0.269-0.065,0.442c-0.052,0.451-0.095,0.871-0.13,1.261
		s-0.061,0.758-0.078,1.105c-0.052,0.364-0.095,0.746-0.13,1.144c-0.035,0.399-0.069,0.806-0.104,1.222
		c0.156,0,0.29,0.013,0.403,0.039c0.112,0.026,0.212,0.056,0.299,0.091c0.052,0.034,0.095,0.086,0.13,0.156s0.052,0.165,0.052,0.286
		c0,0.052-0.009,0.104-0.026,0.156c-0.017,0.052-0.026,0.095-0.026,0.13c-0.035,0.034-0.083,0.065-0.143,0.091
		s-0.126,0.047-0.195,0.065c-0.104,0.017-0.208,0.035-0.312,0.052c-0.104,0.017-0.226,0.026-0.364,0.026h-8.164
		c-0.052,0.121-0.109,0.243-0.169,0.364c-0.061,0.121-0.143,0.234-0.247,0.338c-0.122,0.104-0.243,0.186-0.364,0.247
		c-0.122,0.061-0.26,0.091-0.416,0.091c-0.173,0-0.321-0.043-0.442-0.13c-0.122-0.087-0.217-0.208-0.286-0.364
		c-0.104-0.156-0.182-0.334-0.234-0.533c-0.052-0.199-0.087-0.412-0.104-0.637c-0.104-1.716-0.199-3.042-0.286-3.978
		s-0.147-1.491-0.182-1.664c-0.087-0.19-0.187-0.364-0.299-0.52c-0.113-0.156-0.256-0.303-0.429-0.442
		c-0.139-0.104-0.239-0.199-0.299-0.286c-0.061-0.086-0.091-0.165-0.091-0.234c0-0.035,0.013-0.069,0.039-0.104
		c0.026-0.035,0.065-0.078,0.117-0.13c0.017-0.017,0.074-0.039,0.169-0.065c0.095-0.026,0.212-0.056,0.351-0.091
		c0.208-0.017,0.425-0.013,0.65,0.013c0.225,0.026,0.468,0.074,0.728,0.143l1.014,0.338H171.639z M173.719,115.409
		c0-0.468,0.004-0.931,0.013-1.391c0.008-0.459,0.03-0.914,0.065-1.365v-1.326c0-0.225,0.004-0.455,0.013-0.689
		c0.009-0.234,0.021-0.481,0.039-0.741c-0.295,0.018-0.585,0.03-0.871,0.039c-0.286,0.009-0.568,0.013-0.845,0.013h-1.612
		c-0.555,0.018-1.114,0.031-1.677,0.039c-0.563,0.009-1.131,0.013-1.703,0.013c0.017,0.451,0.035,0.901,0.052,1.352
		c0.017,0.451,0.043,0.901,0.078,1.352c0,0.468,0.013,0.927,0.039,1.378c0.026,0.451,0.056,0.893,0.091,1.326H173.719z
		 M176.449,102.097c0,0.122-0.004,0.247-0.013,0.377c-0.009,0.13-0.022,0.264-0.039,0.403c0,0.139-0.009,0.282-0.026,0.429
		c-0.018,0.147-0.026,0.299-0.026,0.455c-0.052,0.347-0.104,0.663-0.156,0.949c-0.052,0.286-0.095,0.559-0.13,0.819
		c-0.069,0.295-0.143,0.563-0.221,0.806c-0.078,0.243-0.161,0.468-0.247,0.676c-0.087,0.243-0.187,0.416-0.299,0.52
		s-0.212,0.156-0.299,0.156c-0.069,0-0.13-0.017-0.182-0.052c-0.052-0.034-0.104-0.095-0.156-0.182
		c-0.035-0.069-0.078-0.152-0.13-0.247c-0.052-0.095-0.087-0.212-0.104-0.351c-0.052-0.104-0.096-0.221-0.13-0.351
		s-0.052-0.273-0.052-0.429c-0.035-0.121-0.057-0.251-0.065-0.39c-0.009-0.139-0.013-0.286-0.013-0.442v-9.1
		c0-0.017-0.004-0.043-0.013-0.078s-0.013-0.069-0.013-0.104v-0.234c-0.018-0.052-0.035-0.104-0.052-0.156
		c-0.017-0.052-0.043-0.104-0.078-0.156c-0.174-0.156-0.33-0.299-0.468-0.429s-0.26-0.247-0.364-0.351
		c-0.052-0.034-0.108-0.069-0.169-0.104c-0.061-0.034-0.117-0.061-0.169-0.078c-0.052-0.035-0.1-0.061-0.143-0.078
		c-0.043-0.017-0.065-0.043-0.065-0.078c-0.069-0.035-0.143-0.078-0.221-0.13c-0.078-0.052-0.152-0.104-0.221-0.156
		c-0.087-0.034-0.152-0.078-0.195-0.13c-0.043-0.052-0.057-0.104-0.039-0.156c0-0.035,0.008-0.069,0.026-0.104
		c0.017-0.035,0.043-0.078,0.078-0.13c0.017-0.017,0.047-0.039,0.091-0.065c0.043-0.026,0.117-0.056,0.221-0.091l0.26-0.026
		c0.26,0,0.529,0.017,0.806,0.052c0.277,0.035,0.563,0.087,0.858,0.156c0.277,0.087,0.555,0.187,0.832,0.299
		c0.277,0.113,0.555,0.238,0.832,0.377c0.052,0.052,0.104,0.1,0.156,0.143c0.052,0.043,0.095,0.083,0.13,0.117
		c0.052,0.052,0.095,0.091,0.13,0.117s0.069,0.048,0.104,0.065c0.035,0.07,0.061,0.139,0.078,0.208
		c0.017,0.07,0.026,0.13,0.026,0.182c0,0.139-0.009,0.251-0.026,0.338c-0.018,0.087-0.035,0.156-0.052,0.208
		c-0.035,0.052-0.052,0.108-0.052,0.169c0,0.061,0,0.117,0,0.169V102.097z"/>
	<linearGradient id="SVGID_2_" gradientUnits="userSpaceOnUse" x1="174.0522" y1="101.7866" x2="269.5522" y2="122.2866">
		<stop  offset="0" style="stop-color:#2E2E2E"/>
		<stop  offset="1" style="stop-color:#000000"/>
	</linearGradient>
	<path fill="url(#SVGID_2_)" d="M184.951,104.879c1.525,0,2.899,0,4.121,0c1.222,0,2.292-0.017,3.211-0.052
		c0.884,0,1.612-0.009,2.184-0.026c0.572-0.017,0.979-0.052,1.222-0.104c0.19-0.017,0.381-0.043,0.572-0.078
		c0.19-0.035,0.381-0.078,0.572-0.13c0.139-0.017,0.282-0.039,0.429-0.065c0.147-0.026,0.29-0.056,0.429-0.091
		c0.139-0.052,0.273-0.091,0.403-0.117c0.13-0.026,0.264-0.056,0.403-0.091c0.052,0,0.108-0.004,0.169-0.013
		c0.061-0.008,0.125-0.013,0.195-0.013c0.035,0,0.083-0.004,0.143-0.013s0.125-0.013,0.195-0.013c0.485,0,0.918,0.035,1.3,0.104
		c0.381,0.07,0.719,0.165,1.014,0.286c0.26,0.156,0.463,0.299,0.611,0.429c0.147,0.13,0.221,0.256,0.221,0.377
		c0,0.139-0.035,0.251-0.104,0.338c-0.07,0.087-0.165,0.147-0.286,0.182c-0.139,0.052-0.299,0.091-0.481,0.117
		c-0.182,0.026-0.395,0.039-0.637,0.039l-10.79,0.078c-0.589,0-1.148,0.018-1.677,0.052c-0.529,0.035-1.036,0.078-1.521,0.13
		c-0.139,0.017-0.265,0.03-0.377,0.039c-0.113,0.009-0.221,0.021-0.325,0.039c-0.104,0-0.208,0.005-0.312,0.013
		c-0.104,0.009-0.199,0.013-0.286,0.013c-0.104,0.017-0.208,0.035-0.312,0.052c-0.104,0.018-0.191,0.026-0.26,0.026
		c-0.104,0.018-0.199,0.031-0.286,0.039c-0.087,0.009-0.156,0.013-0.208,0.013c-0.087,0.018-0.169,0.03-0.247,0.039
		c-0.078,0.009-0.143,0.022-0.195,0.039c-0.069,0-0.134,0.004-0.195,0.013c-0.061,0.009-0.117,0.013-0.169,0.013
		c-0.122,0.035-0.243,0.052-0.364,0.052c-0.122,0-0.234,0-0.338,0c-0.208,0-0.399-0.008-0.572-0.026
		c-0.174-0.017-0.33-0.052-0.468-0.104c-0.173-0.017-0.33-0.047-0.468-0.091c-0.139-0.043-0.26-0.091-0.364-0.143
		c-0.087-0.035-0.169-0.074-0.247-0.117c-0.078-0.043-0.152-0.091-0.221-0.143c-0.087-0.034-0.169-0.078-0.247-0.13
		c-0.078-0.052-0.152-0.104-0.221-0.156c-0.087-0.035-0.165-0.078-0.234-0.13c-0.069-0.052-0.13-0.104-0.182-0.156
		c-0.069-0.052-0.113-0.1-0.13-0.143c-0.018-0.043-0.026-0.091-0.026-0.143c0-0.069,0.008-0.134,0.026-0.195
		c0.017-0.061,0.069-0.117,0.156-0.169c0.052-0.035,0.121-0.065,0.208-0.091c0.087-0.026,0.173-0.039,0.26-0.039
		c0.104,0.017,0.225,0.03,0.364,0.039c0.139,0.009,0.303,0.013,0.494,0.013c0.156,0.035,0.333,0.061,0.533,0.078
		c0.199,0.018,0.42,0.026,0.663,0.026c0.208,0.035,0.42,0.052,0.637,0.052s0.438,0,0.663,0c0.208,0.017,0.42,0.03,0.637,0.039
		C184.453,104.875,184.691,104.879,184.951,104.879z M191.191,102.591c-0.468,0.018-0.897,0.035-1.287,0.052
		c-0.39,0.017-0.733,0.026-1.027,0.026c-0.173,0.018-0.329,0.03-0.468,0.039c-0.139,0.009-0.26,0.022-0.364,0.039
		s-0.204,0.03-0.299,0.039c-0.096,0.009-0.169,0.013-0.221,0.013c-0.052,0.018-0.104,0.031-0.156,0.039
		c-0.052,0.009-0.104,0.013-0.156,0.013h-0.208c-0.104,0.017-0.195,0.035-0.273,0.052c-0.078,0.018-0.143,0.035-0.195,0.052
		c-0.139,0.035-0.256,0.056-0.351,0.065s-0.169,0.013-0.221,0.013c-0.087,0.035-0.182,0.052-0.286,0.052s-0.217,0-0.338,0
		c-0.191,0-0.382-0.013-0.572-0.039c-0.191-0.026-0.373-0.065-0.546-0.117c-0.173-0.052-0.334-0.108-0.481-0.169
		c-0.147-0.061-0.282-0.134-0.403-0.221c-0.156-0.052-0.282-0.117-0.377-0.195c-0.095-0.078-0.169-0.16-0.221-0.247
		c-0.087-0.052-0.143-0.112-0.169-0.182c-0.026-0.069-0.039-0.139-0.039-0.208c0-0.104,0.052-0.19,0.156-0.26
		c0.104-0.069,0.269-0.104,0.494-0.104c0.19,0.035,0.373,0.061,0.546,0.078c0.173,0.018,0.347,0.026,0.52,0.026
		c0.069,0.018,0.143,0.031,0.221,0.039c0.078,0.009,0.16,0.022,0.247,0.039c0.086,0,0.165,0.004,0.234,0.013
		c0.069,0.009,0.147,0.013,0.234,0.013c0.173,0.035,0.359,0.052,0.559,0.052c0.199,0,0.412-0.009,0.637-0.026h1.118
		c0.19,0,0.416,0,0.676,0c0.26,0,0.546-0.009,0.858-0.026c0.312,0,0.615,0,0.91,0s0.598-0.008,0.91-0.026h0.364
		c0.069,0,0.138-0.004,0.208-0.013c0.069-0.008,0.147-0.013,0.234-0.013h0.806l0.962-2.938c0-0.052-0.009-0.117-0.026-0.195
		c-0.017-0.078-0.035-0.169-0.052-0.273c-0.052-0.069-0.117-0.143-0.195-0.221c-0.078-0.078-0.161-0.169-0.247-0.273
		c-0.07-0.017-0.13-0.039-0.182-0.065c-0.052-0.026-0.096-0.056-0.13-0.091c-0.052-0.017-0.091-0.035-0.117-0.052
		s-0.048-0.043-0.065-0.078c-0.052,0-0.091-0.009-0.117-0.026c-0.026-0.017-0.048-0.035-0.065-0.052
		c-0.104-0.104-0.178-0.195-0.221-0.273c-0.043-0.078-0.057-0.143-0.039-0.195c0-0.052,0.004-0.095,0.013-0.13
		c0.009-0.034,0.039-0.078,0.091-0.13c0.034-0.017,0.104-0.035,0.208-0.052s0.225-0.026,0.364-0.026c0.19,0,0.407,0.026,0.65,0.078
		c0.243,0.052,0.511,0.13,0.806,0.234c0.069,0.052,0.143,0.096,0.221,0.13c0.078,0.035,0.143,0.061,0.195,0.078
		c0.069,0.035,0.139,0.061,0.208,0.078c0.069,0.018,0.13,0.035,0.182,0.052c0.086,0.052,0.169,0.1,0.247,0.143
		c0.078,0.044,0.143,0.065,0.195,0.065c0.208,0.121,0.359,0.251,0.455,0.39c0.095,0.139,0.143,0.286,0.143,0.442
		c-0.018,0.035-0.026,0.061-0.026,0.078c0,0.018,0,0.043,0,0.078c-0.017,0.018-0.03,0.043-0.039,0.078
		c-0.009,0.035-0.013,0.061-0.013,0.078c-0.035,0.052-0.061,0.095-0.078,0.13c-0.018,0.035-0.026,0.069-0.026,0.104
		c-0.018,0.035-0.035,0.069-0.052,0.104s-0.026,0.061-0.026,0.078c-0.104,0.208-0.204,0.416-0.299,0.624
		c-0.096,0.208-0.178,0.416-0.247,0.624c-0.052,0.122-0.1,0.239-0.143,0.351c-0.043,0.113-0.091,0.221-0.143,0.325
		c-0.052,0.104-0.1,0.204-0.143,0.299c-0.043,0.096-0.082,0.187-0.117,0.273c0.052,0,0.104-0.004,0.156-0.013
		c0.052-0.009,0.113-0.03,0.182-0.065c0.035,0,0.078-0.004,0.13-0.013c0.052-0.009,0.104-0.03,0.156-0.065
		c0.26-0.104,0.502-0.182,0.728-0.234c0.225-0.052,0.424-0.078,0.598-0.078c0.243,0,0.498,0.022,0.767,0.065
		c0.269,0.043,0.55,0.091,0.845,0.143c0.398,0.104,0.697,0.221,0.897,0.351c0.199,0.13,0.299,0.273,0.299,0.429
		c0,0.104-0.039,0.187-0.117,0.247c-0.078,0.061-0.187,0.117-0.325,0.169c-0.139,0.069-0.299,0.122-0.481,0.156
		s-0.377,0.052-0.585,0.052c-0.399,0.018-0.802,0.026-1.209,0.026c-0.408,0-0.828,0-1.261,0c-0.243,0.018-0.472,0.031-0.689,0.039
		c-0.217,0.009-0.429,0.013-0.637,0.013h-1.144L191.191,102.591z M190.723,95.935c-0.139,0.035-0.26,0.061-0.364,0.078
		c-0.104,0.018-0.217,0.026-0.338,0.026c-0.104,0.017-0.208,0.035-0.312,0.052c-0.104,0.018-0.199,0.026-0.286,0.026
		c-0.121,0.035-0.238,0.061-0.351,0.078c-0.113,0.018-0.23,0.035-0.351,0.052c-0.139,0.017-0.273,0.039-0.403,0.065
		c-0.13,0.026-0.256,0.048-0.377,0.065c-0.156,0.052-0.295,0.087-0.416,0.104c-0.121,0.018-0.234,0.026-0.338,0.026
		c-0.104,0.035-0.212,0.052-0.325,0.052c-0.113,0-0.221,0-0.325,0c-0.173,0.035-0.351,0.039-0.533,0.013
		c-0.182-0.026-0.36-0.073-0.533-0.143c-0.208-0.052-0.399-0.108-0.572-0.169c-0.173-0.061-0.329-0.134-0.468-0.221
		c-0.191-0.069-0.351-0.143-0.481-0.221s-0.247-0.169-0.351-0.273c-0.104-0.069-0.187-0.139-0.247-0.208
		c-0.061-0.069-0.091-0.13-0.091-0.182c0-0.138,0.052-0.247,0.156-0.325c0.104-0.078,0.277-0.117,0.52-0.117
		c0.277,0.052,0.55,0.091,0.819,0.117c0.269,0.026,0.542,0.048,0.819,0.065c0.26,0.052,0.52,0.083,0.78,0.091
		c0.26,0.009,0.52,0.013,0.78,0.013c0.502,0,0.962-0.009,1.378-0.026s0.797-0.035,1.144-0.052c0.312,0,0.62,0,0.923,0
		s0.602-0.008,0.897-0.026c0.364,0,0.706-0.017,1.027-0.052c0.321-0.034,0.628-0.078,0.923-0.13c0.242-0.035,0.463-0.078,0.663-0.13
		c0.199-0.052,0.36-0.104,0.481-0.156c0.121-0.034,0.242-0.069,0.364-0.104c0.121-0.034,0.251-0.069,0.39-0.104
		c0.086-0.017,0.182-0.034,0.286-0.052c0.104-0.017,0.208-0.026,0.312-0.026c0.208,0,0.442,0.022,0.702,0.065
		c0.26,0.043,0.537,0.091,0.832,0.143c0.398,0.104,0.706,0.221,0.923,0.351c0.217,0.13,0.325,0.273,0.325,0.429
		c0,0.226-0.134,0.39-0.403,0.494c-0.269,0.104-0.655,0.156-1.157,0.156l-4.732,0.104L190.723,95.935z M194.961,109.221h-1.092
		c-0.156,0.018-0.299,0.026-0.429,0.026c-0.13,0-0.256,0-0.377,0h-0.52c-0.087,0.017-0.173,0.026-0.26,0.026
		c-0.087,0-0.156,0-0.208,0l-0.936,0.026c-0.156,0.035-0.33,0.057-0.52,0.065c-0.191,0.009-0.39,0.013-0.598,0.013
		c-0.035,0.035-0.091,0.052-0.169,0.052s-0.152,0-0.221,0c-0.052,0-0.1,0.005-0.143,0.013c-0.043,0.009-0.083,0.013-0.117,0.013
		h-0.208c-0.173,0.035-0.334,0.056-0.481,0.065c-0.147,0.009-0.282,0.013-0.403,0.013c-0.156,0.018-0.286,0.035-0.39,0.052
		c-0.104,0.018-0.191,0.026-0.26,0.026c-0.139,0.035-0.286,0.057-0.442,0.065c-0.156,0.009-0.312,0.013-0.468,0.013
		c-0.208,0-0.408-0.013-0.598-0.039c-0.191-0.026-0.373-0.065-0.546-0.117c-0.173-0.052-0.334-0.104-0.481-0.156
		c-0.147-0.052-0.273-0.121-0.377-0.208c-0.122-0.052-0.234-0.113-0.338-0.182c-0.104-0.069-0.191-0.147-0.26-0.234
		c-0.087-0.052-0.147-0.1-0.182-0.143c-0.035-0.043-0.052-0.091-0.052-0.143c0-0.121,0.056-0.216,0.169-0.286
		c0.112-0.069,0.29-0.104,0.533-0.104c0.347,0.052,0.693,0.091,1.04,0.117s0.693,0.039,1.04,0.039
		c0.347,0.035,0.689,0.052,1.027,0.052c0.338,0,0.68,0,1.027,0h1.248c0.19,0,0.377,0,0.559,0c0.182,0,0.359-0.017,0.533-0.052
		c0.139,0,0.286-0.004,0.442-0.013c0.156-0.008,0.329-0.03,0.52-0.065c0.173,0,0.36-0.004,0.559-0.013s0.42-0.03,0.663-0.065
		c0.243,0,0.481-0.013,0.715-0.039c0.234-0.026,0.464-0.065,0.689-0.117c0.208-0.017,0.425-0.039,0.65-0.065
		c0.225-0.026,0.45-0.065,0.676-0.117c0.156-0.034,0.299-0.056,0.429-0.065c0.13-0.008,0.264-0.013,0.403-0.013
		c0.086,0.035,0.177,0.074,0.273,0.117c0.095,0.043,0.186,0.091,0.273,0.143c0.035,0.087,0.074,0.169,0.117,0.247
		c0.043,0.078,0.073,0.169,0.091,0.273c0,0.104-0.018,0.212-0.052,0.325c-0.035,0.113-0.078,0.221-0.13,0.325
		c-0.035,0.052-0.069,0.13-0.104,0.234s-0.069,0.234-0.104,0.39c-0.017,0.104-0.035,0.208-0.052,0.312
		c-0.018,0.104-0.035,0.2-0.052,0.286c-0.017,0.087-0.035,0.173-0.052,0.26c-0.018,0.087-0.026,0.165-0.026,0.234
		c-0.052,0.173-0.091,0.351-0.117,0.533s-0.057,0.377-0.091,0.585c0.312,0.052,0.55,0.13,0.715,0.234
		c0.165,0.104,0.247,0.234,0.247,0.39c0,0.139-0.065,0.247-0.195,0.325c-0.13,0.078-0.325,0.143-0.585,0.195
		c-0.139,0.035-0.368,0.057-0.689,0.065c-0.321,0.009-0.741,0.013-1.261,0.013h-7.176v2.21c0,0.19,0.035,0.333,0.104,0.429
		c0.069,0.095,0.182,0.143,0.338,0.143h4.082c0.537,0,1.005-0.026,1.404-0.078c0.398-0.052,0.71-0.13,0.936-0.234
		c0.225-0.104,0.451-0.186,0.676-0.247c0.225-0.061,0.451-0.091,0.676-0.091c0.121,0,0.242,0.004,0.364,0.013
		c0.121,0.008,0.234,0.021,0.338,0.039c0.087,0,0.182,0.013,0.286,0.039c0.104,0.026,0.225,0.056,0.364,0.091
		c0.381,0.104,0.671,0.225,0.871,0.364s0.299,0.312,0.299,0.52c0,0.104-0.031,0.195-0.091,0.273
		c-0.061,0.078-0.134,0.143-0.221,0.195c-0.139,0.052-0.316,0.1-0.533,0.143c-0.217,0.043-0.499,0.073-0.845,0.091h-9.568
		c-0.243,0-0.472-0.039-0.689-0.117c-0.217-0.078-0.412-0.195-0.585-0.351c-0.191-0.156-0.325-0.338-0.403-0.546
		s-0.117-0.433-0.117-0.676v-1.326c0-0.017-0.004-0.043-0.013-0.078c-0.009-0.035-0.013-0.069-0.013-0.104v-0.208
		c-0.018-0.052-0.035-0.104-0.052-0.156c-0.018-0.052-0.026-0.104-0.026-0.156c-0.035-0.104-0.095-0.199-0.182-0.286
		c-0.087-0.086-0.182-0.156-0.286-0.208c-0.104-0.035-0.2-0.078-0.286-0.13c-0.087-0.052-0.173-0.113-0.26-0.182
		c-0.104-0.052-0.191-0.1-0.26-0.143c-0.069-0.043-0.13-0.091-0.182-0.143c-0.087-0.052-0.143-0.108-0.169-0.169
		c-0.026-0.061-0.039-0.117-0.039-0.169c0-0.035,0.013-0.074,0.039-0.117c0.026-0.043,0.065-0.091,0.117-0.143
		c0.035-0.017,0.095-0.039,0.182-0.065c0.086-0.026,0.208-0.056,0.364-0.091c0.19,0,0.42,0.018,0.689,0.052
		c0.269,0.035,0.55,0.078,0.845,0.13c0.138,0.035,0.269,0.065,0.39,0.091s0.243,0.048,0.364,0.065
		c0.104,0.035,0.212,0.07,0.325,0.104c0.112,0.035,0.238,0.069,0.377,0.104c0.641,0,1.265-0.004,1.872-0.013
		s1.205-0.022,1.794-0.039c0.572,0,1.166,0,1.781,0s1.252-0.009,1.911-0.026L194.961,109.221z M188.955,98.717
		c0.035,0.087,0.065,0.169,0.091,0.247c0.026,0.078,0.056,0.161,0.091,0.247c0.034,0.069,0.069,0.139,0.104,0.208
		c0.034,0.069,0.069,0.13,0.104,0.182c0.052,0.156,0.091,0.291,0.117,0.403c0.026,0.113,0.039,0.221,0.039,0.325
		c0,0.087-0.013,0.165-0.039,0.234c-0.026,0.069-0.048,0.13-0.065,0.182c-0.052,0.087-0.104,0.152-0.156,0.195
		c-0.052,0.043-0.113,0.074-0.182,0.091c-0.087,0.052-0.191,0.096-0.312,0.13c-0.122,0.035-0.226,0.052-0.312,0.052
		c-0.139,0.018-0.256,0.022-0.351,0.013s-0.178-0.03-0.247-0.065c-0.104-0.017-0.199-0.048-0.286-0.091
		c-0.087-0.043-0.156-0.108-0.208-0.195c-0.087-0.052-0.156-0.125-0.208-0.221c-0.052-0.095-0.078-0.212-0.078-0.351
		c-0.018-0.225-0.03-0.446-0.039-0.663s-0.013-0.42-0.013-0.611c-0.035-0.173-0.087-0.364-0.156-0.572
		c-0.087-0.19-0.191-0.398-0.312-0.624c-0.069-0.069-0.139-0.156-0.208-0.26c-0.087-0.086-0.139-0.182-0.156-0.286
		c-0.052-0.069-0.082-0.139-0.091-0.208s0.013-0.13,0.065-0.182c0.017-0.017,0.061-0.03,0.13-0.039
		c0.069-0.008,0.165-0.013,0.286-0.013c0.052,0.018,0.108,0.039,0.169,0.065c0.061,0.026,0.134,0.056,0.221,0.091
		c0.069,0.035,0.156,0.074,0.26,0.117c0.104,0.044,0.208,0.091,0.312,0.143c0.173,0.122,0.333,0.243,0.481,0.364
		c0.147,0.122,0.291,0.234,0.429,0.338c0.086,0.139,0.178,0.273,0.273,0.403C188.803,98.496,188.886,98.613,188.955,98.717z"/>
	<linearGradient id="SVGID_3_" gradientUnits="userSpaceOnUse" x1="175.1074" y1="96.8755" x2="270.6033" y2="117.3746">
		<stop  offset="0" style="stop-color:#2E2E2E"/>
		<stop  offset="1" style="stop-color:#000000"/>
	</linearGradient>
	<path fill="url(#SVGID_3_)" d="M208.247,111.717c1.525,0,2.899,0,4.121,0c1.222,0,2.292-0.008,3.211-0.026
		c0.884,0,1.611-0.013,2.184-0.039s0.979-0.065,1.222-0.117c0.19-0.017,0.381-0.043,0.572-0.078c0.19-0.035,0.381-0.078,0.572-0.13
		c0.138-0.017,0.281-0.039,0.429-0.065c0.146-0.026,0.29-0.056,0.429-0.091c0.139-0.052,0.273-0.095,0.403-0.13
		c0.129-0.035,0.264-0.069,0.403-0.104c0.053,0,0.107-0.004,0.17-0.013c0.061-0.008,0.125-0.013,0.193-0.013
		c0.035,0,0.082-0.004,0.145-0.013c0.061-0.009,0.125-0.013,0.193-0.013c0.486,0,0.92,0.039,1.301,0.117s0.719,0.178,1.014,0.299
		c0.26,0.156,0.465,0.299,0.611,0.429s0.221,0.256,0.221,0.377c0,0.139-0.035,0.251-0.104,0.338
		c-0.07,0.087-0.166,0.147-0.285,0.182c-0.141,0.052-0.301,0.091-0.482,0.117c-0.182,0.026-0.395,0.039-0.637,0.039l-10.79,0.078
		c-0.589,0-1.148,0.013-1.677,0.039c-0.529,0.026-1.036,0.065-1.521,0.117c-0.139,0.017-0.265,0.03-0.377,0.039
		c-0.113,0.009-0.221,0.021-0.325,0.039c-0.104,0.018-0.208,0.031-0.312,0.039c-0.104,0.009-0.199,0.013-0.286,0.013
		c-0.104,0.018-0.208,0.035-0.312,0.052c-0.104,0.018-0.191,0.026-0.26,0.026c-0.104,0.017-0.199,0.03-0.286,0.039
		c-0.087,0.009-0.156,0.013-0.208,0.013c-0.087,0.018-0.169,0.031-0.247,0.039c-0.078,0.009-0.143,0.022-0.195,0.039
		c-0.069,0-0.134,0.004-0.195,0.013c-0.061,0.009-0.117,0.013-0.169,0.013c-0.122,0.035-0.243,0.052-0.364,0.052
		c-0.122,0-0.234,0-0.338,0c-0.208,0-0.399-0.009-0.572-0.026c-0.174-0.017-0.33-0.052-0.468-0.104
		c-0.173-0.017-0.33-0.052-0.468-0.104c-0.139-0.052-0.26-0.104-0.364-0.156c-0.087-0.017-0.169-0.047-0.247-0.091
		c-0.078-0.043-0.152-0.091-0.221-0.143c-0.087-0.017-0.169-0.052-0.247-0.104c-0.078-0.052-0.152-0.113-0.221-0.182
		c-0.087-0.035-0.165-0.078-0.234-0.13c-0.069-0.052-0.13-0.104-0.182-0.156c-0.069-0.052-0.113-0.104-0.13-0.156
		c-0.018-0.052-0.026-0.104-0.026-0.156c0-0.052,0.008-0.108,0.026-0.169c0.017-0.061,0.069-0.117,0.156-0.169
		c0.052-0.035,0.121-0.065,0.208-0.091c0.087-0.026,0.173-0.039,0.26-0.039c0.104,0.018,0.225,0.03,0.364,0.039
		s0.303,0.013,0.494,0.013c0.069,0.018,0.151,0.031,0.247,0.039c0.095,0.009,0.186,0.022,0.273,0.039
		c0.104,0.018,0.208,0.03,0.312,0.039s0.225,0.013,0.364,0.013c0.208,0.018,0.42,0.026,0.637,0.026s0.438,0,0.663,0
		c0.208,0.018,0.42,0.03,0.637,0.039S207.987,111.717,208.247,111.717z M210.171,104.177c-0.746,0.52-1.482,0.975-2.21,1.365
		s-1.439,0.715-2.132,0.975c-0.295,0.139-0.563,0.243-0.806,0.312s-0.442,0.104-0.598,0.104c-0.173,0.035-0.312,0.048-0.416,0.039
		c-0.104-0.008-0.173-0.039-0.208-0.091c-0.052-0.017-0.074-0.056-0.065-0.117c0.009-0.06,0.056-0.143,0.143-0.247
		c0.035-0.069,0.121-0.156,0.26-0.26c0.138-0.104,0.303-0.208,0.494-0.312c0.104-0.052,0.212-0.112,0.325-0.182
		c0.112-0.069,0.229-0.138,0.351-0.208c0.104-0.052,0.216-0.112,0.338-0.182c0.121-0.069,0.234-0.139,0.338-0.208
		c0.225-0.121,0.442-0.251,0.65-0.39c0.208-0.139,0.425-0.286,0.65-0.442c0.208-0.139,0.424-0.286,0.65-0.442
		c0.225-0.156,0.451-0.329,0.676-0.52c0.19-0.156,0.407-0.333,0.65-0.533c0.243-0.199,0.494-0.42,0.754-0.663
		c0.884-0.797,1.607-1.599,2.171-2.405c0.563-0.806,0.958-1.599,1.183-2.379c0-0.156-0.004-0.29-0.013-0.403
		c-0.009-0.112-0.022-0.204-0.039-0.273c-0.052-0.121-0.152-0.255-0.299-0.403c-0.147-0.147-0.325-0.299-0.533-0.455
		c-0.243-0.156-0.395-0.29-0.455-0.403s-0.039-0.212,0.065-0.299c0.104-0.052,0.277-0.078,0.52-0.078s0.563,0.026,0.962,0.078
		c0.138,0.052,0.307,0.108,0.507,0.169c0.199,0.061,0.429,0.143,0.689,0.247c0.208,0.104,0.407,0.221,0.598,0.351
		c0.191,0.13,0.373,0.273,0.546,0.429c0.069,0.087,0.144,0.169,0.222,0.247c0.078,0.078,0.134,0.152,0.169,0.221
		c0.034,0.087,0.064,0.169,0.091,0.247s0.039,0.143,0.039,0.195c0,0.156-0.048,0.321-0.143,0.494
		c-0.096,0.173-0.239,0.364-0.43,0.572c-0.069,0.087-0.126,0.165-0.169,0.234s-0.091,0.13-0.143,0.182
		c-0.069,0.087-0.13,0.165-0.183,0.234c-0.052,0.069-0.086,0.13-0.104,0.182c-0.018,0.035-0.035,0.061-0.053,0.078
		c-0.017,0.018-0.034,0.035-0.051,0.052c-0.018,0.017-0.035,0.035-0.053,0.052c-0.018,0.018-0.025,0.035-0.025,0.052
		c-0.053,0.052-0.096,0.113-0.13,0.182c-0.035,0.07-0.069,0.13-0.104,0.182l0.494,0.312c0.068,0.069,0.139,0.13,0.208,0.182
		c0.068,0.052,0.139,0.095,0.208,0.13c0.068,0.052,0.143,0.1,0.221,0.143c0.078,0.043,0.16,0.091,0.247,0.143
		c0.087,0.052,0.178,0.104,0.273,0.156c0.095,0.052,0.194,0.104,0.299,0.156c0.208,0.139,0.424,0.282,0.649,0.429
		c0.226,0.147,0.485,0.299,0.78,0.455c0.139,0.087,0.269,0.156,0.39,0.208c0.121,0.052,0.251,0.104,0.391,0.156
		c0.104,0.069,0.194,0.13,0.272,0.182c0.078,0.052,0.16,0.087,0.247,0.104c0.052,0.052,0.121,0.091,0.208,0.117
		s0.19,0.048,0.313,0.065c0.104,0.052,0.208,0.096,0.312,0.13c0.104,0.035,0.217,0.07,0.338,0.104
		c0.295,0.087,0.56,0.182,0.793,0.286c0.235,0.104,0.456,0.208,0.663,0.312c0.156,0.139,0.33,0.299,0.521,0.481
		c0.189,0.182,0.381,0.377,0.57,0.585c0.277,0.468,0.395,0.828,0.352,1.079c-0.043,0.251-0.264,0.386-0.662,0.403
		c-0.277,0.018-0.564-0.026-0.859-0.13s-0.606-0.26-0.935-0.468c-0.243-0.121-0.49-0.264-0.741-0.429
		c-0.251-0.165-0.516-0.351-0.793-0.559c-0.295-0.173-0.611-0.364-0.949-0.572s-0.706-0.442-1.104-0.702
		c-0.295-0.173-0.59-0.359-0.884-0.559c-0.295-0.199-0.599-0.403-0.91-0.611c-0.156-0.104-0.309-0.204-0.455-0.299
		c-0.147-0.095-0.299-0.195-0.455-0.299l-0.832-0.624c-0.277,0.312-0.559,0.62-0.845,0.923c-0.286,0.303-0.585,0.585-0.897,0.845
		c-0.329,0.295-0.672,0.572-1.027,0.832C210.895,103.683,210.535,103.935,210.171,104.177z"/>
	<linearGradient id="SVGID_4_" gradientUnits="userSpaceOnUse" x1="176.3555" y1="91.042" x2="271.8596" y2="111.5429">
		<stop  offset="0" style="stop-color:#2E2E2E"/>
		<stop  offset="1" style="stop-color:#000000"/>
	</linearGradient>
	<path fill="url(#SVGID_4_)" d="M228.865,100.381c0-0.156-0.018-0.299-0.053-0.429c-0.035-0.13-0.078-0.247-0.129-0.351
		c-0.07-0.104-0.156-0.195-0.26-0.273c-0.105-0.078-0.219-0.16-0.34-0.247c-0.121-0.052-0.229-0.104-0.324-0.156
		c-0.096-0.052-0.178-0.104-0.246-0.156c-0.105-0.035-0.188-0.078-0.248-0.13c-0.061-0.052-0.117-0.104-0.168-0.156
		c-0.088-0.052-0.145-0.108-0.17-0.169c-0.025-0.061-0.039-0.117-0.039-0.169c0-0.035,0.008-0.074,0.025-0.117
		c0.018-0.043,0.053-0.091,0.105-0.143c0.033-0.017,0.086-0.039,0.156-0.065c0.068-0.026,0.172-0.056,0.311-0.091h0.754
		c0.053,0.018,0.113,0.03,0.184,0.039c0.068,0.009,0.146,0.022,0.232,0.039c0.053,0,0.121,0.009,0.209,0.026
		c0.086,0.018,0.172,0.026,0.26,0.026c0.295,0.052,0.563,0.117,0.807,0.195c0.242,0.078,0.467,0.152,0.676,0.221h1.326
		c0.189,0,0.377-0.017,0.559-0.052s0.377-0.078,0.584-0.13c0.156-0.034,0.316-0.073,0.482-0.117c0.164-0.043,0.324-0.091,0.48-0.143
		c0.068-0.017,0.143-0.039,0.221-0.065c0.078-0.026,0.152-0.056,0.221-0.091c0.053,0,0.121-0.008,0.209-0.026
		c0.086-0.017,0.199-0.026,0.338-0.026c0.051,0,0.111,0.004,0.182,0.013c0.068,0.009,0.139,0.013,0.207,0.013h0.416
		c0.121,0.035,0.244,0.065,0.365,0.091c0.121,0.026,0.25,0.048,0.389,0.065c0.383,0.104,0.678,0.229,0.885,0.377
		c0.209,0.147,0.313,0.325,0.313,0.533c0,0.104-0.031,0.191-0.092,0.26s-0.135,0.13-0.221,0.182c-0.139,0.07-0.32,0.126-0.545,0.169
		c-0.227,0.043-0.504,0.065-0.832,0.065h-4.889v3.978c0.207,0,0.402-0.013,0.584-0.039c0.184-0.026,0.352-0.065,0.508-0.117
		c0.156-0.035,0.303-0.069,0.441-0.104c0.139-0.035,0.27-0.078,0.391-0.13c0.156-0.069,0.307-0.125,0.455-0.169
		c0.146-0.043,0.289-0.065,0.43-0.065c0.207,0,0.428,0.022,0.662,0.065c0.234,0.043,0.473,0.091,0.715,0.143
		c0.33,0.087,0.58,0.199,0.754,0.338s0.277,0.303,0.313,0.494c0.104,0.035,0.221,0.052,0.352,0.052c0.129,0,0.246,0,0.35,0
		c0.105,0.018,0.205,0.026,0.299,0.026c0.096,0,0.195,0,0.301,0c0.154,0.035,0.314,0.052,0.48,0.052
		c0.164,0,0.342-0.009,0.533-0.026c0.172,0,0.342,0,0.506,0c0.166,0,0.326-0.009,0.482-0.026v-6.682
		c0-0.017-0.006-0.043-0.014-0.078c-0.01-0.035-0.014-0.069-0.014-0.104v-0.234c-0.018-0.052-0.039-0.104-0.064-0.156
		c-0.025-0.052-0.049-0.104-0.064-0.156c-0.174-0.156-0.33-0.299-0.469-0.429s-0.26-0.247-0.363-0.351
		c-0.07-0.034-0.131-0.069-0.182-0.104c-0.053-0.034-0.096-0.061-0.131-0.078c-0.053-0.034-0.1-0.065-0.143-0.091
		c-0.045-0.026-0.082-0.056-0.117-0.091c-0.088-0.017-0.16-0.048-0.221-0.091c-0.063-0.043-0.127-0.091-0.195-0.143
		c-0.088-0.017-0.143-0.052-0.17-0.104c-0.025-0.052-0.039-0.121-0.039-0.208s0.027-0.16,0.078-0.221
		c0.053-0.061,0.148-0.117,0.287-0.169l0.285-0.026c0.242,0,0.502,0.017,0.779,0.052c0.277,0.035,0.564,0.087,0.859,0.156
		c0.277,0.087,0.555,0.186,0.832,0.299s0.555,0.238,0.832,0.377c0.051,0.052,0.104,0.1,0.156,0.143
		c0.051,0.043,0.094,0.083,0.129,0.117c0.035,0.052,0.07,0.091,0.104,0.117c0.035,0.026,0.07,0.048,0.105,0.065
		c0.016,0.069,0.039,0.139,0.064,0.208c0.025,0.069,0.039,0.13,0.039,0.182c0,0.139-0.014,0.251-0.039,0.338
		c-0.025,0.087-0.049,0.156-0.064,0.208c-0.018,0.052-0.027,0.108-0.027,0.169c0,0.061,0,0.117,0,0.169v13.858
		c0,0.26-0.008,0.537-0.025,0.832c-0.018,0.295-0.035,0.607-0.053,0.936c-0.051,0.347-0.094,0.667-0.129,0.962
		s-0.078,0.572-0.131,0.832c-0.086,0.277-0.164,0.542-0.232,0.793c-0.07,0.251-0.148,0.489-0.234,0.715
		c-0.105,0.208-0.205,0.368-0.299,0.481c-0.096,0.112-0.195,0.169-0.299,0.169c-0.07,0-0.131-0.018-0.184-0.052
		c-0.051-0.035-0.104-0.096-0.156-0.182c-0.068-0.069-0.125-0.156-0.168-0.26s-0.074-0.208-0.092-0.312
		c-0.051-0.121-0.09-0.247-0.117-0.377c-0.025-0.13-0.039-0.264-0.039-0.403c-0.033-0.139-0.055-0.277-0.064-0.416
		c-0.008-0.139-0.012-0.286-0.012-0.442v-8.97c-0.088,0.018-0.166,0.035-0.234,0.052c-0.07,0.018-0.139,0.026-0.209,0.026
		c-0.068,0.018-0.135,0.03-0.195,0.039s-0.117,0.013-0.168,0.013c-0.156,0.035-0.287,0.057-0.391,0.065s-0.199,0.013-0.285,0.013
		c-0.156,0.035-0.313,0.048-0.469,0.039c-0.156-0.008-0.285-0.039-0.391-0.091c-0.154-0.017-0.289-0.052-0.402-0.104
		c-0.113-0.052-0.221-0.104-0.324-0.156c-0.088-0.052-0.182-0.104-0.287-0.156c-0.104-0.052-0.189-0.113-0.26-0.182
		c-0.086-0.052-0.164-0.104-0.234-0.156c-0.068-0.052-0.111-0.104-0.129-0.156c-0.07,0.035-0.135,0.057-0.195,0.065
		c-0.061,0.009-0.117,0.013-0.17,0.013c-0.086,0.018-0.172,0.026-0.26,0.026c-0.086,0-0.182,0-0.285,0h-3.641
		c0,0.364,0,0.728,0,1.092c0,0.364,0.01,0.711,0.027,1.04v1.976c0,0.26,0.047,0.455,0.143,0.585c0.094,0.13,0.238,0.178,0.428,0.143
		c0.156,0.018,0.326,0.026,0.508,0.026s0.385-0.017,0.611-0.052c0.189,0,0.42-0.017,0.689-0.052c0.268-0.034,0.566-0.078,0.896-0.13
		c0.295-0.035,0.588-0.082,0.883-0.143c0.295-0.061,0.59-0.134,0.885-0.221c0.277-0.069,0.559-0.156,0.846-0.26
		c0.285-0.104,0.576-0.225,0.871-0.364c0.121-0.017,0.238-0.03,0.35-0.039c0.113-0.009,0.205-0.004,0.273,0.013
		c0.053,0.035,0.1,0.078,0.143,0.13c0.043,0.052,0.082,0.104,0.117,0.156c0,0.07-0.008,0.139-0.025,0.208
		c-0.018,0.07-0.053,0.139-0.104,0.208c-0.07,0.087-0.139,0.161-0.209,0.221c-0.068,0.061-0.156,0.117-0.26,0.169
		c-0.641,0.312-1.295,0.589-1.963,0.832s-1.355,0.442-2.066,0.598c-0.676,0.156-1.266,0.269-1.77,0.338
		c-0.502,0.069-0.926,0.087-1.273,0.052c-0.416,0-0.775-0.034-1.078-0.104c-0.305-0.069-0.533-0.182-0.689-0.338
		c-0.191-0.139-0.33-0.347-0.416-0.624c-0.088-0.277-0.131-0.624-0.131-1.04L228.865,100.381z M246.336,112.107
		c0,0.139-0.004,0.277-0.012,0.416c-0.01,0.139-0.021,0.277-0.039,0.416c0,0.156-0.01,0.312-0.025,0.468
		c-0.018,0.156-0.027,0.312-0.027,0.468c-0.051,0.364-0.104,0.689-0.156,0.975c-0.051,0.286-0.096,0.559-0.129,0.819
		c-0.07,0.277-0.143,0.542-0.221,0.793c-0.078,0.251-0.162,0.49-0.248,0.715c-0.086,0.208-0.186,0.368-0.299,0.481
		s-0.213,0.169-0.299,0.169c-0.07,0-0.131-0.018-0.182-0.052c-0.053-0.035-0.104-0.095-0.156-0.182
		c-0.035-0.069-0.078-0.152-0.131-0.247c-0.051-0.095-0.086-0.195-0.104-0.299c-0.051-0.122-0.096-0.251-0.129-0.39
		c-0.035-0.139-0.053-0.277-0.053-0.416c-0.035-0.156-0.057-0.303-0.064-0.442c-0.01-0.139-0.014-0.277-0.014-0.416v-19.24
		c0-0.017-0.004-0.043-0.014-0.078c-0.008-0.035-0.012-0.069-0.012-0.104v-0.234c-0.018-0.052-0.035-0.104-0.053-0.156
		c-0.018-0.052-0.043-0.104-0.078-0.156c-0.174-0.156-0.33-0.299-0.467-0.429c-0.141-0.13-0.262-0.247-0.365-0.351
		c-0.051-0.034-0.107-0.069-0.168-0.104c-0.063-0.034-0.117-0.061-0.17-0.078c-0.053-0.035-0.1-0.061-0.143-0.078
		c-0.043-0.017-0.064-0.043-0.064-0.078c-0.07-0.035-0.145-0.078-0.223-0.13c-0.076-0.052-0.15-0.104-0.221-0.156
		c-0.086-0.034-0.146-0.078-0.182-0.13c-0.035-0.052-0.051-0.104-0.051-0.156c0-0.087,0.029-0.16,0.09-0.221
		c0.061-0.061,0.17-0.117,0.324-0.169l0.262-0.026c0.26,0,0.527,0.017,0.805,0.052c0.277,0.035,0.564,0.087,0.859,0.156
		c0.275,0.087,0.555,0.187,0.832,0.299c0.275,0.113,0.553,0.238,0.832,0.377c0.051,0.052,0.104,0.1,0.154,0.143
		c0.053,0.043,0.096,0.083,0.131,0.117c0.053,0.052,0.096,0.091,0.131,0.117c0.033,0.026,0.068,0.048,0.104,0.065
		c0.033,0.07,0.061,0.139,0.078,0.208c0.016,0.07,0.025,0.13,0.025,0.182c0,0.139-0.01,0.251-0.025,0.338
		c-0.018,0.087-0.035,0.156-0.053,0.208c-0.035,0.052-0.053,0.108-0.053,0.169c0,0.061,0,0.117,0,0.169V112.107z"/>
	<linearGradient id="SVGID_5_" gradientUnits="userSpaceOnUse" x1="177.3545" y1="86.3779" x2="272.8592" y2="106.8789">
		<stop  offset="0" style="stop-color:#2E2E2E"/>
		<stop  offset="1" style="stop-color:#000000"/>
	</linearGradient>
	<path fill="url(#SVGID_5_)" d="M255.957,97.053c0.156,0,0.307,0.005,0.455,0.013c0.146,0.009,0.299,0.013,0.455,0.013
		c0.121,0.035,0.242,0.065,0.363,0.091s0.252,0.057,0.391,0.091c0.104,0.052,0.199,0.113,0.285,0.182
		c0.088,0.069,0.174,0.139,0.26,0.208c0.07,0.087,0.127,0.173,0.17,0.26s0.064,0.173,0.064,0.26c0,0.087-0.012,0.169-0.039,0.247
		c-0.025,0.078-0.064,0.152-0.117,0.221c0.59,0.139,1.135,0.347,1.639,0.624c0.502,0.278,0.953,0.624,1.352,1.04
		c0.486,0.555,0.863,1.114,1.131,1.677c0.27,0.563,0.404,1.131,0.404,1.703c0,0.693-0.148,1.348-0.443,1.963
		s-0.719,1.192-1.273,1.729c-0.537,0.52-1.156,0.91-1.859,1.17c-0.701,0.26-1.477,0.39-2.326,0.39s-1.621-0.13-2.314-0.39
		s-1.309-0.65-1.846-1.17c-0.59-0.537-1.023-1.114-1.301-1.729s-0.416-1.27-0.416-1.963c0-0.572,0.109-1.131,0.326-1.677
		s0.566-1.079,1.053-1.599h-0.025c0.381-0.416,0.822-0.771,1.324-1.066c0.504-0.294,1.076-0.52,1.717-0.676l0.338-0.104
		c0.035-0.035,0.078-0.069,0.131-0.104c0.016,0,0.033-0.017,0.051-0.052c0.018-0.034,0.027-0.078,0.027-0.13
		c0-0.017-0.006-0.039-0.014-0.065c-0.01-0.026-0.021-0.056-0.039-0.091c-0.035,0-0.057-0.004-0.064-0.013
		c-0.01-0.009-0.023-0.021-0.039-0.039c-0.018-0.017-0.031-0.03-0.039-0.039c-0.01-0.008-0.014-0.021-0.014-0.039
		c-0.053,0-0.1-0.021-0.143-0.065c-0.043-0.043-0.082-0.091-0.117-0.143c-0.035-0.034-0.064-0.073-0.092-0.117
		c-0.025-0.043-0.039-0.091-0.039-0.143c0-0.052,0.01-0.1,0.027-0.143c0.016-0.043,0.043-0.091,0.078-0.143
		c0.016-0.017,0.072-0.043,0.168-0.078C255.701,97.123,255.818,97.088,255.957,97.053z M260.273,103.683
		c0-0.52-0.088-1.001-0.26-1.443c-0.174-0.442-0.426-0.845-0.756-1.209c-0.381-0.364-0.77-0.646-1.17-0.845
		c-0.398-0.199-0.805-0.299-1.221-0.299c-0.434,0-0.85,0.1-1.248,0.299s-0.781,0.481-1.145,0.845
		c-0.348,0.364-0.602,0.767-0.768,1.209c-0.164,0.442-0.246,0.923-0.246,1.443c0,0.607,0.082,1.144,0.246,1.612
		c0.166,0.468,0.42,0.867,0.768,1.196h-0.025c0.363,0.364,0.75,0.633,1.156,0.806c0.408,0.173,0.828,0.26,1.262,0.26
		c0.416,0,0.822-0.087,1.221-0.26c0.4-0.173,0.789-0.442,1.17-0.806c0.33-0.346,0.582-0.754,0.756-1.222
		C260.186,104.801,260.273,104.272,260.273,103.683z M269.113,112.107c0,0.26-0.01,0.538-0.027,0.832
		c-0.018,0.295-0.033,0.607-0.051,0.936c-0.035,0.364-0.078,0.689-0.131,0.975c-0.051,0.286-0.096,0.559-0.129,0.819
		c-0.088,0.277-0.174,0.542-0.26,0.793c-0.088,0.251-0.166,0.49-0.234,0.715c-0.104,0.208-0.213,0.368-0.326,0.481
		c-0.111,0.113-0.211,0.169-0.299,0.169c-0.086,0-0.16-0.018-0.221-0.052c-0.061-0.035-0.107-0.095-0.143-0.182
		c-0.053-0.069-0.104-0.152-0.156-0.247s-0.086-0.195-0.104-0.299c-0.035-0.122-0.064-0.251-0.092-0.39
		c-0.025-0.139-0.039-0.277-0.039-0.416c-0.035-0.156-0.057-0.303-0.064-0.442c-0.01-0.139-0.014-0.277-0.014-0.416v-19.24
		c0-0.017-0.004-0.043-0.012-0.078c-0.01-0.035-0.014-0.069-0.014-0.104v-0.234c0-0.052-0.014-0.104-0.039-0.156
		c-0.025-0.052-0.057-0.104-0.092-0.156c-0.104-0.069-0.189-0.139-0.26-0.208c-0.068-0.069-0.146-0.139-0.234-0.208
		c-0.068-0.052-0.143-0.108-0.221-0.169s-0.135-0.117-0.168-0.169c-0.088-0.035-0.16-0.069-0.221-0.104
		c-0.063-0.035-0.117-0.069-0.17-0.104c-0.051-0.017-0.1-0.039-0.143-0.065c-0.043-0.026-0.082-0.056-0.117-0.091
		c-0.035-0.017-0.064-0.035-0.092-0.052c-0.025-0.017-0.055-0.043-0.09-0.078c-0.035-0.017-0.064-0.039-0.092-0.065
		c-0.025-0.026-0.057-0.056-0.09-0.091c-0.105-0.034-0.174-0.078-0.209-0.13c-0.035-0.052-0.051-0.104-0.051-0.156
		c0-0.104,0.029-0.186,0.09-0.247c0.061-0.061,0.16-0.108,0.299-0.143l0.26-0.026c0.242,0,0.508,0.017,0.793,0.052
		c0.287,0.035,0.594,0.087,0.924,0.156c0.295,0.104,0.602,0.217,0.922,0.338c0.322,0.122,0.629,0.26,0.924,0.416
		c0.104,0.087,0.195,0.156,0.273,0.208c0.078,0.052,0.143,0.104,0.195,0.156c0.016,0.07,0.033,0.139,0.051,0.208
		c0.018,0.07,0.027,0.13,0.027,0.182c0,0.139-0.014,0.251-0.039,0.338c-0.027,0.087-0.049,0.156-0.066,0.208
		c-0.035,0.052-0.051,0.108-0.051,0.169c0,0.061,0,0.117,0,0.169V112.107z"/>
</g>
<g>
	<defs>
		<path id="SVGID_6_" d="M137.837,95.095c-5.774,0-10.473,4.698-10.473,10.473c0,5.775,4.698,10.474,10.473,10.474
			c5.775,0,10.475-4.698,10.475-10.474C148.312,99.793,143.612,95.095,137.837,95.095z M143.036,112.623
			c-0.354,0.261-0.723,0.5-1.113,0.707v-7.424h1.113V112.623z M132.554,98.578c0.354-0.268,0.721-0.517,1.113-0.73v7.468h-1.113
			V98.578z M138.345,100.369h6.547c0.243,0.328,0.471,0.668,0.666,1.029h-7.213V100.369z M138.345,98.672v-1.855
			c1.845,0.106,3.537,0.78,4.904,1.855H138.345z M136.648,105.316h-1.284v-8.163c0.416-0.123,0.846-0.211,1.284-0.271V105.316z
			 M137.5,107.013v1.029h-8.077c-0.1-0.335-0.174-0.679-0.232-1.029H137.5z M137.5,109.738v1.029h-6.717
			c-0.243-0.328-0.47-0.668-0.666-1.029H137.5z M137.5,112.464v1.864c-1.91-0.073-3.664-0.755-5.073-1.864H137.5z M139.196,105.905
			h1.029v8.101c-0.335,0.095-0.679,0.167-1.029,0.223V105.905z M138.345,104.208v-1.114h7.908c0.107,0.362,0.186,0.734,0.245,1.114
			H138.345z M130.856,100.271v5.045h-1.783C129.128,103.423,129.783,101.682,130.856,100.271z M144.733,110.979v-5.074h1.863
			C146.524,107.816,145.842,109.57,144.733,110.979z"/>
	</defs>
	<clipPath id="SVGID_7_">
		<use xlink:href="#SVGID_6_"  overflow="visible"/>
	</clipPath>
	<linearGradient id="SVGID_8_" gradientUnits="userSpaceOnUse" x1="127.1987" y1="103.2842" x2="148.4767" y2="107.8517">
		<stop  offset="0" style="stop-color:#FF8008"/>
		<stop  offset="1" style="stop-color:#FFC837"/>
	</linearGradient>
	<circle clip-path="url(#SVGID_7_)" fill="url(#SVGID_8_)" cx="137.837" cy="105.568" r="10.879"/>
	<linearGradient id="SVGID_9_" gradientUnits="userSpaceOnUse" x1="129.4331" y1="98.9082" x2="144.4221" y2="110.7863">
		<stop  offset="0" style="stop-color:#F09819"/>
		<stop  offset="1" style="stop-color:#EDDE5D"/>
	</linearGradient>
	<circle clip-path="url(#SVGID_7_)" fill="url(#SVGID_9_)" cx="137.838" cy="105.568" r="11.38"/>
</g>
</svg>
