<?xml version="1.0" encoding="utf-8"?>
<!-- Generator: Adobe Illustrator 16.0.0, SVG Export Plug-In . SVG Version: 6.00 Build 0)  -->
<!DOCTYPE svg PUBLIC "-//W3C//DTD SVG 1.1//EN" "http://www.w3.org/Graphics/SVG/1.1/DTD/svg11.dtd">
<svg version="1.1" id="레이어_1" xmlns="http://www.w3.org/2000/svg" xmlns:xlink="http://www.w3.org/1999/xlink" x="0px"
	 y="0px" width="154px" height="32.667px" viewBox="0 0 154 32.667" enable-background="new 0 0 154 32.667" xml:space="preserve">
<g>
	
		<linearGradient id="SVGID_1_" gradientUnits="userSpaceOnUse" x1="148.0479" y1="-104.2427" x2="243.5499" y2="-124.7431" gradientTransform="matrix(1 0 0 -1 -97.6001 -87.3232)">
		<stop  offset="0" style="stop-color:#2E2E2E"/>
		<stop  offset="1" style="stop-color:#000000"/>
	</linearGradient>
	<path fill="url(#SVGID_1_)" d="M36.44,10.367c0-0.277-0.065-0.523-0.195-0.741c-0.131-0.216-0.325-0.403-0.585-0.56
		c-0.087-0.051-0.179-0.104-0.272-0.155C35.291,8.859,35.2,8.79,35.114,8.703c-0.104-0.053-0.191-0.096-0.26-0.13
		c-0.069-0.035-0.104-0.069-0.104-0.104c-0.069-0.052-0.112-0.107-0.13-0.168c-0.018-0.062-0.025-0.117-0.025-0.17
		c0-0.033,0.008-0.072,0.025-0.117c0.018-0.043,0.043-0.09,0.078-0.143c0.035-0.018,0.095-0.039,0.182-0.064
		c0.086-0.026,0.189-0.057,0.313-0.092c0.207-0.017,0.433-0.017,0.676,0c0.242,0.018,0.511,0.053,0.806,0.104
		c0.294,0.07,0.563,0.144,0.806,0.222c0.244,0.078,0.459,0.161,0.65,0.247h0.885c0.26,0,0.506-0.021,0.74-0.064
		s0.463-0.092,0.689-0.144c0.086-0.017,0.177-0.039,0.272-0.065c0.095-0.025,0.195-0.047,0.3-0.064
		c0.068-0.018,0.15-0.039,0.246-0.064c0.096-0.027,0.186-0.057,0.273-0.092c0.017,0,0.047-0.004,0.091-0.013
		c0.043-0.009,0.083-0.021,0.117-0.039c0.052-0.017,0.095-0.03,0.13-0.039s0.078-0.021,0.13-0.039c0.034,0,0.095-0.009,0.183-0.026
		c0.086-0.017,0.182-0.025,0.285-0.025c0.053,0,0.113,0.005,0.182,0.013c0.07,0.009,0.139,0.013,0.209,0.013h0.416
		c0.121,0.035,0.242,0.065,0.363,0.092c0.121,0.025,0.252,0.047,0.391,0.064c0.381,0.104,0.676,0.23,0.884,0.377
		s0.312,0.325,0.312,0.533c0,0.104-0.029,0.191-0.09,0.26c-0.062,0.07-0.135,0.131-0.222,0.182c-0.14,0.07-0.321,0.127-0.546,0.17
		c-0.227,0.043-0.503,0.074-0.832,0.091H38.78v2.651c0.207,0,0.394-0.017,0.559-0.051c0.165-0.035,0.316-0.078,0.455-0.131
		c0.139-0.018,0.273-0.047,0.402-0.091c0.131-0.044,0.256-0.091,0.378-0.144c0.155-0.051,0.308-0.1,0.454-0.143
		c0.147-0.043,0.291-0.064,0.43-0.064c0.208,0,0.43,0.018,0.663,0.051c0.233,0.035,0.472,0.078,0.715,0.131
		c0.226,0.068,0.416,0.152,0.572,0.247c0.155,0.096,0.286,0.204,0.39,0.325h0.053c0.121,0.035,0.242,0.057,0.363,0.064
		c0.121,0.01,0.242,0.014,0.364,0.014c0.104,0.018,0.208,0.025,0.312,0.025c0.104,0,0.209,0,0.313,0
		c0.173,0.035,0.352,0.053,0.533,0.053s0.367-0.01,0.559-0.027c0.173,0,0.346,0,0.52,0s0.348-0.016,0.521-0.051V7.949
		c0-0.018-0.004-0.043-0.013-0.078c-0.01-0.035-0.014-0.068-0.014-0.104V7.533c-0.018-0.053-0.039-0.104-0.064-0.156
		c-0.026-0.052-0.057-0.104-0.092-0.156c-0.155-0.156-0.303-0.299-0.441-0.429s-0.26-0.247-0.363-0.351
		c-0.07-0.034-0.135-0.069-0.195-0.104c-0.062-0.034-0.109-0.062-0.144-0.077c-0.034-0.035-0.073-0.066-0.116-0.092
		s-0.084-0.056-0.117-0.091c-0.07-0.017-0.14-0.048-0.209-0.091s-0.139-0.092-0.207-0.143c-0.104-0.035-0.174-0.078-0.209-0.131
		c-0.035-0.052-0.051-0.111-0.051-0.182c0-0.088,0.034-0.16,0.104-0.221c0.068-0.062,0.173-0.117,0.313-0.17L45.8,5.115
		c0.242,0,0.502,0.018,0.78,0.052c0.276,0.035,0.563,0.087,0.858,0.156c0.276,0.087,0.555,0.187,0.832,0.299
		c0.276,0.112,0.555,0.237,0.832,0.377c0.051,0.052,0.104,0.101,0.155,0.144s0.095,0.082,0.13,0.117
		c0.053,0.051,0.092,0.09,0.117,0.116s0.057,0.048,0.092,0.065c0.034,0.068,0.064,0.139,0.09,0.207
		c0.026,0.07,0.039,0.131,0.039,0.183c0,0.14-0.013,0.256-0.039,0.351c-0.025,0.096-0.056,0.17-0.09,0.221V7.376
		c-0.035,0.053-0.053,0.107-0.053,0.169s0,0.117,0,0.169v5.408c0,0.208-0.009,0.434-0.025,0.676
		c-0.019,0.243-0.035,0.512-0.053,0.807c-0.018,0.312-0.052,0.606-0.104,0.884c-0.053,0.276-0.104,0.546-0.156,0.806
		c-0.068,0.295-0.139,0.563-0.208,0.807c-0.069,0.242-0.147,0.467-0.233,0.676c-0.104,0.242-0.209,0.416-0.313,0.52
		s-0.208,0.156-0.313,0.156c-0.068,0-0.125-0.018-0.168-0.053c-0.043-0.033-0.092-0.094-0.144-0.182
		c-0.052-0.068-0.104-0.152-0.156-0.246c-0.052-0.096-0.096-0.213-0.13-0.352c-0.035-0.104-0.064-0.221-0.091-0.352
		c-0.026-0.129-0.039-0.272-0.039-0.428c-0.035-0.121-0.056-0.252-0.065-0.391c-0.009-0.139-0.013-0.286-0.013-0.441v-2.522
		c-0.087,0.034-0.169,0.062-0.247,0.077c-0.078,0.019-0.152,0.035-0.221,0.053c-0.088,0.018-0.165,0.035-0.234,0.052
		c-0.07,0.019-0.13,0.026-0.182,0.026c-0.156,0.035-0.295,0.057-0.416,0.064c-0.122,0.01-0.227,0.014-0.313,0.014
		c-0.242,0.035-0.477,0.031-0.701-0.014c-0.226-0.043-0.434-0.117-0.625-0.221c-0.225-0.068-0.42-0.15-0.584-0.247
		c-0.166-0.095-0.291-0.194-0.377-0.299c-0.14,0.052-0.299,0.091-0.481,0.116c-0.183,0.027-0.396,0.039-0.638,0.039H38.78v2.236
		c0,0.174,0.013,0.313,0.039,0.416c0.025,0.104,0.064,0.182,0.117,0.234c0.035,0.052,0.086,0.091,0.155,0.117
		c0.069,0.025,0.165,0.039,0.286,0.039c0.277,0.018,0.628,0.009,1.053-0.026c0.426-0.034,0.94-0.104,1.547-0.208
		c0.26-0.035,0.524-0.082,0.793-0.143c0.27-0.062,0.551-0.135,0.846-0.221c0.277-0.07,0.559-0.156,0.845-0.261
		s0.576-0.226,0.871-0.364c0.121-0.017,0.237-0.029,0.351-0.039c0.113-0.009,0.213-0.004,0.299,0.014
		c0.035,0.035,0.074,0.074,0.117,0.117s0.082,0.09,0.117,0.143c0,0.087-0.009,0.165-0.025,0.234
		c-0.019,0.068-0.053,0.139-0.104,0.207c-0.052,0.104-0.116,0.188-0.194,0.248s-0.17,0.107-0.273,0.143
		c-0.643,0.313-1.287,0.589-1.938,0.832c-0.649,0.242-1.304,0.441-1.963,0.598c-0.642,0.156-1.209,0.266-1.703,0.325
		c-0.494,0.062-0.914,0.083-1.261,0.065c-0.399,0.018-0.741-0.014-1.026-0.092c-0.287-0.078-0.517-0.195-0.689-0.351
		c-0.208-0.14-0.359-0.342-0.455-0.61c-0.096-0.27-0.143-0.603-0.143-1.002V10.367L36.44,10.367z M48.972,19.623
		c0.502,0,0.924-0.014,1.262-0.039s0.593-0.074,0.767-0.143c0.035-0.018,0.074-0.034,0.117-0.053
		c0.043-0.017,0.082-0.025,0.116-0.025c0.035-0.018,0.074-0.034,0.117-0.053c0.043-0.017,0.082-0.035,0.117-0.051
		c0.069,0,0.139-0.009,0.209-0.027c0.068-0.016,0.129-0.033,0.182-0.051c0.104,0,0.221,0.012,0.351,0.039
		c0.13,0.025,0.256,0.047,0.377,0.064c0.104,0.052,0.212,0.096,0.325,0.13c0.113,0.035,0.221,0.078,0.324,0.13
		c0.035,0.035,0.07,0.064,0.104,0.092c0.034,0.025,0.069,0.055,0.104,0.09c0.033,0.035,0.068,0.065,0.104,0.092
		c0.034,0.025,0.078,0.048,0.131,0.064c0.051,0.07,0.1,0.131,0.143,0.182c0.043,0.053,0.064,0.097,0.064,0.131
		c0,0.035-0.009,0.064-0.025,0.091c-0.018,0.026-0.035,0.056-0.053,0.091c-0.035,0.053-0.064,0.113-0.09,0.182
		c-0.027,0.069-0.039,0.131-0.039,0.183c-0.035,0.052-0.066,0.14-0.092,0.26c-0.025,0.122-0.048,0.269-0.064,0.442
		c-0.053,0.451-0.096,0.871-0.131,1.261s-0.061,0.759-0.078,1.104c-0.051,0.365-0.094,0.746-0.129,1.145s-0.069,0.807-0.104,1.223
		c0.155,0,0.29,0.012,0.403,0.039c0.111,0.025,0.211,0.055,0.299,0.09c0.052,0.035,0.095,0.086,0.13,0.156
		c0.034,0.07,0.052,0.165,0.052,0.286c0,0.052-0.009,0.104-0.025,0.156c-0.018,0.052-0.026,0.095-0.026,0.13
		c-0.035,0.033-0.083,0.064-0.144,0.091c-0.06,0.026-0.125,0.048-0.194,0.065c-0.104,0.017-0.208,0.035-0.312,0.052
		c-0.104,0.017-0.227,0.026-0.365,0.026h-8.164c-0.051,0.121-0.108,0.242-0.168,0.363c-0.062,0.121-0.144,0.234-0.248,0.338
		c-0.121,0.104-0.242,0.187-0.363,0.248c-0.122,0.061-0.26,0.09-0.416,0.09c-0.173,0-0.321-0.043-0.441-0.129
		c-0.123-0.088-0.218-0.209-0.287-0.365c-0.104-0.155-0.182-0.334-0.233-0.532c-0.052-0.199-0.087-0.412-0.104-0.638
		c-0.104-1.715-0.199-3.041-0.285-3.978c-0.088-0.937-0.147-1.491-0.183-1.664c-0.087-0.19-0.187-0.364-0.299-0.521
		c-0.113-0.155-0.256-0.303-0.429-0.441c-0.139-0.104-0.239-0.199-0.299-0.285c-0.062-0.087-0.092-0.166-0.092-0.234
		c0-0.035,0.014-0.069,0.039-0.104c0.026-0.034,0.065-0.077,0.117-0.13c0.018-0.018,0.074-0.039,0.169-0.064
		c0.095-0.026,0.212-0.057,0.351-0.092c0.209-0.017,0.426-0.013,0.65,0.014c0.225,0.025,0.469,0.074,0.729,0.143l1.014,0.338H48.972
		L48.972,19.623z M51.052,26.175c0-0.469,0.004-0.932,0.014-1.392c0.008-0.459,0.029-0.914,0.064-1.365v-1.325
		c0-0.226,0.004-0.455,0.014-0.689c0.008-0.234,0.021-0.48,0.039-0.741c-0.295,0.019-0.586,0.03-0.871,0.039
		c-0.287,0.009-0.568,0.013-0.846,0.013h-1.611c-0.556,0.018-1.114,0.031-1.678,0.039c-0.563,0.01-1.131,0.014-1.703,0.014
		c0.018,0.451,0.035,0.9,0.053,1.352c0.017,0.451,0.043,0.9,0.078,1.352c0,0.469,0.013,0.928,0.039,1.379
		c0.025,0.451,0.056,0.893,0.09,1.326H51.052z M53.782,12.863c0,0.121-0.004,0.246-0.014,0.377c-0.008,0.13-0.021,0.264-0.039,0.402
		c0,0.14-0.008,0.283-0.025,0.43s-0.025,0.299-0.025,0.455c-0.053,0.347-0.104,0.662-0.156,0.949
		c-0.053,0.285-0.096,0.559-0.131,0.818c-0.068,0.295-0.143,0.563-0.221,0.807c-0.078,0.242-0.16,0.467-0.247,0.676
		c-0.087,0.242-0.187,0.416-0.299,0.52s-0.212,0.156-0.299,0.156c-0.069,0-0.13-0.018-0.183-0.053
		c-0.052-0.033-0.104-0.094-0.156-0.182c-0.034-0.068-0.077-0.152-0.129-0.246c-0.053-0.096-0.088-0.213-0.104-0.352
		c-0.052-0.104-0.096-0.221-0.13-0.352c-0.034-0.129-0.053-0.272-0.053-0.428c-0.034-0.121-0.057-0.252-0.064-0.391
		c-0.009-0.139-0.013-0.286-0.013-0.441V6.909c0-0.017-0.005-0.043-0.013-0.078c-0.01-0.035-0.014-0.069-0.014-0.104V6.493
		c-0.018-0.052-0.035-0.104-0.052-0.156s-0.043-0.104-0.078-0.155c-0.174-0.156-0.33-0.299-0.468-0.43
		c-0.139-0.13-0.26-0.246-0.364-0.352c-0.052-0.033-0.108-0.068-0.169-0.104c-0.061-0.033-0.117-0.061-0.169-0.078
		c-0.052-0.035-0.101-0.061-0.144-0.078c-0.043-0.017-0.064-0.043-0.064-0.078c-0.068-0.035-0.143-0.078-0.221-0.129
		c-0.078-0.053-0.152-0.104-0.221-0.156c-0.088-0.034-0.152-0.078-0.195-0.131c-0.043-0.051-0.057-0.104-0.039-0.155
		c0-0.035,0.008-0.069,0.025-0.104s0.043-0.078,0.078-0.129c0.018-0.018,0.047-0.039,0.092-0.066
		c0.043-0.025,0.117-0.055,0.221-0.09l0.26-0.026c0.26,0,0.529,0.017,0.807,0.052c0.276,0.035,0.563,0.088,0.857,0.156
		c0.277,0.087,0.555,0.188,0.832,0.299c0.277,0.113,0.555,0.238,0.832,0.377c0.052,0.053,0.104,0.1,0.156,0.143
		c0.052,0.043,0.095,0.084,0.129,0.117c0.053,0.053,0.096,0.092,0.131,0.117c0.035,0.026,0.068,0.049,0.104,0.064
		c0.035,0.07,0.062,0.14,0.078,0.209c0.018,0.07,0.026,0.13,0.026,0.182c0,0.139-0.009,0.251-0.026,0.338
		c-0.018,0.088-0.035,0.156-0.052,0.208c-0.035,0.052-0.052,0.108-0.052,0.169s0,0.117,0,0.17V12.863L53.782,12.863z"/>
	
		<linearGradient id="SVGID_2_" gradientUnits="userSpaceOnUse" x1="148.9854" y1="-99.876" x2="244.4874" y2="-120.3764" gradientTransform="matrix(1 0 0 -1 -97.6001 -87.3232)">
		<stop  offset="0" style="stop-color:#2E2E2E"/>
		<stop  offset="1" style="stop-color:#000000"/>
	</linearGradient>
	<path fill="url(#SVGID_2_)" d="M62.284,15.644c1.525,0,2.898,0,4.121,0c1.222,0,2.291-0.017,3.211-0.051
		c0.884,0,1.611-0.01,2.184-0.027c0.572-0.016,0.979-0.051,1.223-0.104c0.189-0.017,0.381-0.043,0.572-0.078
		c0.189-0.035,0.381-0.078,0.571-0.129c0.14-0.018,0.282-0.039,0.429-0.066c0.147-0.025,0.291-0.055,0.43-0.09
		c0.139-0.053,0.272-0.092,0.402-0.117c0.131-0.026,0.264-0.057,0.403-0.092c0.052,0,0.108-0.004,0.169-0.013
		c0.061-0.008,0.125-0.013,0.195-0.013c0.035,0,0.082-0.004,0.143-0.014c0.061-0.008,0.125-0.012,0.195-0.012
		c0.484,0,0.918,0.034,1.3,0.104c0.381,0.07,0.72,0.164,1.015,0.285c0.26,0.156,0.463,0.299,0.61,0.43
		c0.147,0.13,0.222,0.256,0.222,0.377c0,0.139-0.035,0.251-0.104,0.338c-0.07,0.087-0.165,0.146-0.286,0.182
		c-0.139,0.053-0.299,0.092-0.48,0.117c-0.183,0.026-0.396,0.039-0.638,0.039l-10.79,0.078c-0.589,0-1.148,0.018-1.677,0.053
		c-0.529,0.034-1.036,0.077-1.521,0.129c-0.14,0.018-0.266,0.03-0.377,0.039c-0.113,0.01-0.222,0.021-0.326,0.039
		c-0.104,0-0.207,0.006-0.312,0.014c-0.104,0.009-0.198,0.013-0.286,0.013c-0.104,0.017-0.207,0.034-0.312,0.052
		s-0.191,0.025-0.261,0.025c-0.104,0.019-0.199,0.031-0.285,0.039c-0.088,0.01-0.156,0.014-0.209,0.014
		c-0.086,0.018-0.168,0.029-0.246,0.039c-0.078,0.009-0.143,0.021-0.195,0.039c-0.068,0-0.134,0.004-0.195,0.014
		c-0.061,0.008-0.117,0.012-0.168,0.012c-0.123,0.035-0.244,0.053-0.365,0.053s-0.233,0-0.338,0c-0.207,0-0.398-0.008-0.572-0.026
		c-0.174-0.017-0.329-0.052-0.467-0.104c-0.174-0.016-0.33-0.047-0.469-0.09s-0.26-0.092-0.363-0.144
		c-0.088-0.035-0.17-0.073-0.248-0.116c-0.078-0.044-0.151-0.092-0.221-0.144c-0.087-0.034-0.168-0.078-0.246-0.13
		c-0.078-0.053-0.152-0.104-0.222-0.156c-0.087-0.035-0.165-0.078-0.233-0.13c-0.069-0.052-0.131-0.104-0.183-0.156
		c-0.069-0.052-0.112-0.101-0.13-0.144s-0.025-0.09-0.025-0.143c0-0.068,0.008-0.134,0.025-0.195
		c0.018-0.061,0.068-0.117,0.156-0.168c0.052-0.035,0.121-0.065,0.207-0.092c0.088-0.025,0.174-0.039,0.261-0.039
		c0.104,0.018,0.226,0.03,0.364,0.039c0.139,0.01,0.303,0.014,0.494,0.014c0.156,0.035,0.332,0.061,0.533,0.078
		c0.198,0.018,0.42,0.025,0.662,0.025c0.209,0.035,0.42,0.053,0.637,0.053s0.438,0,0.664,0c0.207,0.016,0.42,0.029,0.637,0.039
		C61.786,15.64,62.024,15.644,62.284,15.644z M68.524,13.357c-0.469,0.018-0.897,0.035-1.287,0.052
		c-0.391,0.017-0.733,0.026-1.027,0.026c-0.173,0.018-0.329,0.029-0.468,0.039c-0.14,0.008-0.261,0.021-0.364,0.039
		c-0.104,0.017-0.204,0.029-0.299,0.039c-0.096,0.008-0.169,0.012-0.221,0.012c-0.053,0.019-0.104,0.031-0.156,0.039
		c-0.053,0.01-0.104,0.014-0.156,0.014h-0.208c-0.104,0.018-0.194,0.035-0.272,0.052c-0.078,0.019-0.144,0.035-0.195,0.052
		c-0.139,0.035-0.256,0.057-0.352,0.065c-0.095,0.009-0.168,0.013-0.221,0.013c-0.087,0.035-0.182,0.053-0.285,0.053
		c-0.104,0-0.218,0-0.339,0c-0.19,0-0.382-0.014-0.571-0.039c-0.191-0.026-0.373-0.065-0.547-0.117
		c-0.173-0.053-0.334-0.107-0.48-0.17c-0.146-0.061-0.282-0.133-0.403-0.221c-0.155-0.052-0.282-0.117-0.377-0.195
		c-0.095-0.077-0.169-0.159-0.221-0.246c-0.087-0.053-0.144-0.112-0.169-0.182c-0.026-0.069-0.039-0.14-0.039-0.209
		c0-0.104,0.052-0.189,0.156-0.26c0.104-0.068,0.269-0.104,0.494-0.104c0.189,0.035,0.373,0.061,0.545,0.078
		c0.174,0.018,0.348,0.025,0.521,0.025c0.069,0.018,0.144,0.031,0.222,0.039c0.077,0.01,0.159,0.021,0.246,0.039
		c0.086,0,0.165,0.004,0.234,0.014c0.068,0.008,0.146,0.012,0.234,0.012c0.172,0.035,0.358,0.053,0.559,0.053
		c0.199,0,0.412-0.009,0.637-0.025h1.118c0.19,0,0.416,0,0.676,0c0.261,0,0.546-0.01,0.858-0.027c0.313,0,0.615,0,0.91,0
		s0.598-0.008,0.91-0.025h0.363c0.069,0,0.139-0.004,0.208-0.013s0.147-0.013,0.234-0.013h0.806l0.962-2.938
		c0-0.052-0.009-0.117-0.026-0.194c-0.017-0.078-0.034-0.17-0.051-0.273c-0.053-0.069-0.117-0.143-0.195-0.221
		s-0.161-0.17-0.248-0.273C70.17,8.347,70.11,8.326,70.058,8.3c-0.052-0.027-0.096-0.057-0.129-0.092
		c-0.053-0.018-0.092-0.035-0.117-0.052c-0.026-0.017-0.049-0.043-0.065-0.078c-0.052,0-0.091-0.009-0.117-0.026
		C69.603,8.036,69.581,8.017,69.563,8c-0.104-0.104-0.178-0.194-0.221-0.272s-0.057-0.144-0.039-0.195
		c0-0.053,0.004-0.096,0.014-0.13c0.009-0.034,0.039-0.078,0.091-0.13c0.034-0.018,0.104-0.035,0.208-0.053
		c0.104-0.017,0.225-0.025,0.363-0.025c0.19,0,0.408,0.025,0.65,0.078c0.243,0.052,0.512,0.13,0.807,0.234
		c0.068,0.051,0.143,0.096,0.221,0.129c0.078,0.035,0.143,0.062,0.195,0.078c0.068,0.035,0.139,0.061,0.207,0.078
		c0.069,0.018,0.131,0.035,0.183,0.053c0.086,0.051,0.169,0.1,0.247,0.143c0.078,0.044,0.143,0.064,0.195,0.064
		c0.207,0.121,0.358,0.252,0.455,0.391c0.094,0.139,0.143,0.285,0.143,0.441c-0.018,0.035-0.026,0.062-0.026,0.078
		c0,0.018,0,0.043,0,0.078c-0.017,0.018-0.03,0.043-0.039,0.078s-0.013,0.061-0.013,0.078c-0.035,0.052-0.061,0.095-0.078,0.13
		s-0.025,0.069-0.025,0.104c-0.019,0.035-0.035,0.068-0.053,0.104s-0.025,0.061-0.025,0.078c-0.104,0.208-0.205,0.416-0.299,0.624
		c-0.097,0.208-0.179,0.416-0.248,0.624c-0.052,0.121-0.1,0.238-0.143,0.352c-0.043,0.112-0.091,0.221-0.143,0.324
		c-0.053,0.104-0.101,0.204-0.144,0.299c-0.043,0.096-0.082,0.188-0.116,0.273c0.051,0,0.104-0.004,0.155-0.014
		c0.052-0.008,0.112-0.029,0.183-0.064c0.034,0,0.078-0.004,0.129-0.014c0.053-0.008,0.104-0.029,0.156-0.064
		c0.26-0.104,0.502-0.182,0.729-0.234c0.225-0.052,0.424-0.078,0.598-0.078c0.243,0,0.498,0.022,0.768,0.065
		c0.269,0.043,0.549,0.091,0.845,0.144c0.397,0.104,0.696,0.221,0.897,0.351c0.198,0.13,0.299,0.272,0.299,0.429
		c0,0.104-0.039,0.188-0.117,0.247c-0.078,0.062-0.188,0.117-0.325,0.169c-0.14,0.069-0.3,0.122-0.481,0.156
		c-0.182,0.033-0.377,0.052-0.584,0.052c-0.4,0.019-0.803,0.026-1.209,0.026c-0.408,0-0.828,0-1.262,0
		c-0.243,0.018-0.473,0.031-0.689,0.039c-0.217,0.009-0.429,0.013-0.637,0.013h-1.145L68.524,13.357z M68.056,6.701
		c-0.139,0.035-0.26,0.061-0.363,0.078c-0.104,0.018-0.217,0.025-0.338,0.025c-0.104,0.018-0.209,0.035-0.313,0.053
		s-0.199,0.025-0.286,0.025c-0.12,0.035-0.237,0.061-0.351,0.078s-0.23,0.035-0.352,0.053c-0.139,0.017-0.272,0.039-0.402,0.064
		c-0.131,0.025-0.256,0.048-0.377,0.064c-0.156,0.053-0.295,0.088-0.416,0.104c-0.121,0.019-0.234,0.026-0.338,0.026
		c-0.104,0.035-0.213,0.052-0.326,0.052c-0.112,0-0.221,0-0.324,0c-0.173,0.034-0.352,0.039-0.533,0.013
		c-0.182-0.025-0.359-0.072-0.533-0.143c-0.207-0.053-0.398-0.107-0.572-0.17c-0.172-0.061-0.328-0.133-0.467-0.221
		c-0.191-0.068-0.352-0.143-0.481-0.221s-0.247-0.169-0.351-0.273c-0.104-0.068-0.188-0.139-0.248-0.207
		c-0.061-0.069-0.09-0.131-0.09-0.182c0-0.139,0.051-0.248,0.155-0.326s0.276-0.117,0.521-0.117
		c0.276,0.053,0.549,0.092,0.818,0.117c0.27,0.026,0.542,0.049,0.819,0.065c0.26,0.052,0.521,0.083,0.78,0.091
		c0.26,0.01,0.52,0.014,0.779,0.014c0.502,0,0.963-0.01,1.379-0.026s0.797-0.035,1.144-0.052c0.312,0,0.62,0,0.923,0
		s0.602-0.008,0.896-0.026c0.364,0,0.707-0.017,1.027-0.052c0.321-0.034,0.628-0.078,0.924-0.131
		c0.241-0.034,0.463-0.078,0.662-0.129c0.199-0.053,0.36-0.104,0.48-0.156c0.121-0.034,0.242-0.069,0.365-0.104
		c0.121-0.035,0.25-0.07,0.39-0.104c0.086-0.017,0.182-0.034,0.286-0.052c0.104-0.018,0.207-0.026,0.312-0.026
		c0.208,0,0.442,0.022,0.702,0.065s0.537,0.09,0.832,0.143c0.398,0.104,0.706,0.221,0.923,0.352
		c0.218,0.129,0.325,0.272,0.325,0.428c0,0.227-0.135,0.391-0.402,0.494c-0.27,0.104-0.656,0.156-1.158,0.156l-4.731,0.104
		L68.056,6.701z M72.294,19.987h-1.092c-0.156,0.019-0.299,0.026-0.43,0.026c-0.129,0-0.256,0-0.377,0h-0.52
		c-0.087,0.017-0.173,0.025-0.26,0.025c-0.088,0-0.156,0-0.208,0l-0.937,0.025c-0.156,0.035-0.33,0.058-0.52,0.066
		c-0.191,0.008-0.391,0.012-0.598,0.012c-0.035,0.035-0.092,0.053-0.17,0.053s-0.151,0-0.221,0c-0.052,0-0.1,0.005-0.143,0.013
		c-0.043,0.009-0.084,0.013-0.117,0.013h-0.208c-0.173,0.035-0.334,0.057-0.481,0.065c-0.146,0.009-0.281,0.013-0.402,0.013
		c-0.156,0.018-0.286,0.035-0.391,0.053c-0.104,0.018-0.191,0.025-0.26,0.025c-0.139,0.035-0.286,0.057-0.441,0.064
		c-0.156,0.01-0.313,0.014-0.469,0.014c-0.207,0-0.408-0.014-0.598-0.039c-0.191-0.025-0.373-0.064-0.546-0.117
		c-0.173-0.052-0.334-0.104-0.481-0.156c-0.146-0.051-0.273-0.121-0.377-0.207c-0.121-0.053-0.234-0.113-0.338-0.183
		s-0.191-0.147-0.26-0.233c-0.088-0.053-0.146-0.101-0.182-0.144s-0.053-0.091-0.053-0.144c0-0.12,0.057-0.215,0.17-0.285
		c0.111-0.069,0.289-0.104,0.532-0.104c0.347,0.051,0.692,0.09,1.04,0.116s0.693,0.039,1.04,0.039
		c0.347,0.035,0.688,0.052,1.026,0.052s0.681,0,1.027,0h1.248c0.19,0,0.377,0,0.559,0c0.183,0,0.359-0.017,0.533-0.052
		c0.14,0,0.287-0.004,0.442-0.013c0.156-0.008,0.329-0.03,0.521-0.064c0.172,0,0.359-0.005,0.559-0.014
		c0.199-0.01,0.42-0.03,0.663-0.064c0.243,0,0.481-0.014,0.715-0.039c0.233-0.026,0.464-0.065,0.688-0.117
		c0.209-0.018,0.426-0.039,0.65-0.065s0.45-0.065,0.676-0.116c0.156-0.035,0.299-0.057,0.43-0.066
		c0.13-0.008,0.264-0.012,0.402-0.012c0.086,0.035,0.178,0.073,0.273,0.116c0.095,0.044,0.186,0.091,0.273,0.144
		c0.035,0.086,0.073,0.168,0.116,0.246c0.044,0.078,0.073,0.17,0.091,0.273c0,0.104-0.018,0.212-0.052,0.325
		c-0.034,0.112-0.077,0.221-0.13,0.325c-0.035,0.052-0.068,0.13-0.104,0.234c-0.035,0.104-0.069,0.233-0.104,0.389
		c-0.017,0.104-0.035,0.209-0.052,0.313c-0.018,0.104-0.035,0.2-0.053,0.286c-0.017,0.087-0.035,0.173-0.051,0.261
		c-0.019,0.086-0.027,0.164-0.027,0.233c-0.051,0.173-0.09,0.351-0.116,0.532c-0.026,0.183-0.058,0.377-0.091,0.586
		c0.312,0.052,0.55,0.13,0.715,0.234c0.165,0.104,0.246,0.233,0.246,0.389c0,0.14-0.064,0.248-0.194,0.326s-0.325,0.143-0.585,0.194
		c-0.139,0.035-0.368,0.058-0.689,0.065c-0.32,0.009-0.74,0.013-1.261,0.013H65.17v2.21c0,0.189,0.035,0.333,0.104,0.43
		c0.068,0.094,0.182,0.143,0.338,0.143h4.082c0.537,0,1.004-0.026,1.404-0.078c0.397-0.053,0.709-0.13,0.936-0.234
		c0.225-0.104,0.451-0.186,0.676-0.246c0.225-0.062,0.451-0.092,0.676-0.092c0.121,0,0.242,0.004,0.364,0.014
		c0.121,0.008,0.233,0.021,0.338,0.039c0.087,0,0.183,0.012,0.286,0.039c0.104,0.025,0.225,0.055,0.363,0.09
		c0.382,0.104,0.672,0.226,0.871,0.365c0.201,0.139,0.299,0.312,0.299,0.52c0,0.104-0.03,0.195-0.09,0.273
		c-0.062,0.077-0.135,0.143-0.222,0.194c-0.139,0.052-0.315,0.101-0.532,0.144c-0.218,0.043-0.5,0.072-0.846,0.09h-9.568
		c-0.242,0-0.472-0.039-0.688-0.116c-0.217-0.078-0.412-0.195-0.585-0.351c-0.191-0.156-0.325-0.338-0.402-0.547
		c-0.078-0.207-0.117-0.433-0.117-0.676v-1.326c0-0.017-0.004-0.043-0.014-0.078c-0.009-0.035-0.013-0.068-0.013-0.104v-0.208
		c-0.019-0.052-0.035-0.104-0.052-0.156c-0.019-0.052-0.026-0.104-0.026-0.155c-0.035-0.104-0.095-0.199-0.183-0.287
		c-0.086-0.086-0.182-0.155-0.285-0.207c-0.104-0.035-0.2-0.078-0.286-0.131c-0.087-0.052-0.173-0.113-0.261-0.182
		c-0.104-0.052-0.19-0.1-0.26-0.143c-0.068-0.043-0.129-0.092-0.182-0.144c-0.087-0.052-0.143-0.108-0.169-0.169
		s-0.039-0.117-0.039-0.169c0-0.034,0.013-0.073,0.039-0.116s0.065-0.092,0.117-0.144c0.034-0.017,0.095-0.039,0.182-0.065
		c0.086-0.025,0.208-0.056,0.364-0.091c0.189,0,0.42,0.019,0.689,0.052c0.269,0.035,0.549,0.078,0.844,0.131
		c0.139,0.035,0.27,0.064,0.391,0.09c0.121,0.027,0.243,0.049,0.364,0.066c0.104,0.034,0.212,0.069,0.325,0.104
		c0.111,0.035,0.238,0.068,0.377,0.104c0.641,0,1.265-0.004,1.871-0.013c0.607-0.009,1.205-0.022,1.795-0.039
		c0.572,0,1.166,0,1.781,0c0.614,0,1.252-0.009,1.91-0.026L72.294,19.987z M66.288,9.482c0.035,0.088,0.064,0.17,0.091,0.248
		s0.056,0.16,0.091,0.246c0.034,0.07,0.069,0.14,0.104,0.209c0.034,0.068,0.069,0.129,0.104,0.182
		c0.051,0.156,0.09,0.291,0.116,0.402c0.026,0.113,0.039,0.222,0.039,0.326c0,0.086-0.013,0.164-0.039,0.233
		s-0.048,0.13-0.065,0.183c-0.051,0.086-0.104,0.151-0.155,0.194s-0.113,0.074-0.183,0.091c-0.086,0.053-0.19,0.096-0.312,0.131
		c-0.122,0.034-0.226,0.051-0.312,0.051c-0.14,0.019-0.256,0.022-0.352,0.014c-0.096-0.01-0.178-0.03-0.247-0.064
		c-0.104-0.018-0.198-0.049-0.286-0.092c-0.087-0.043-0.156-0.107-0.207-0.195c-0.088-0.051-0.156-0.125-0.209-0.221
		c-0.052-0.095-0.078-0.212-0.078-0.352c-0.018-0.225-0.029-0.445-0.039-0.662c-0.008-0.217-0.013-0.42-0.013-0.611
		c-0.034-0.173-0.087-0.363-0.155-0.572c-0.088-0.189-0.191-0.397-0.313-0.623c-0.068-0.069-0.139-0.156-0.208-0.26
		c-0.087-0.087-0.14-0.183-0.156-0.287c-0.052-0.068-0.082-0.139-0.091-0.207c-0.009-0.07,0.014-0.131,0.064-0.183
		c0.018-0.017,0.062-0.03,0.131-0.039c0.068-0.008,0.164-0.013,0.285-0.013c0.053,0.018,0.108,0.039,0.17,0.064
		c0.061,0.026,0.134,0.057,0.221,0.092c0.068,0.035,0.156,0.074,0.26,0.117s0.208,0.09,0.313,0.143
		c0.173,0.121,0.332,0.242,0.48,0.363c0.146,0.123,0.291,0.234,0.43,0.338c0.086,0.14,0.178,0.273,0.272,0.404
		C66.136,9.261,66.22,9.378,66.288,9.482z"/>
	
		<linearGradient id="SVGID_3_" gradientUnits="userSpaceOnUse" x1="150.041" y1="-94.9648" x2="245.5349" y2="-115.4635" gradientTransform="matrix(1 0 0 -1 -97.6001 -87.3232)">
		<stop  offset="0" style="stop-color:#2E2E2E"/>
		<stop  offset="1" style="stop-color:#000000"/>
	</linearGradient>
	<path fill="url(#SVGID_3_)" d="M85.58,22.482c1.524,0,2.899,0,4.121,0s2.292-0.008,3.211-0.025c0.884,0,1.61-0.014,2.185-0.039
		c0.572-0.025,0.979-0.064,1.221-0.117c0.19-0.017,0.382-0.043,0.572-0.078s0.381-0.078,0.572-0.129
		c0.139-0.018,0.281-0.039,0.43-0.065c0.146-0.026,0.289-0.056,0.428-0.091c0.14-0.053,0.273-0.096,0.404-0.131
		c0.129-0.035,0.264-0.068,0.402-0.104c0.053,0,0.107-0.004,0.17-0.014c0.061-0.008,0.125-0.012,0.193-0.012
		c0.035,0,0.082-0.004,0.145-0.014c0.061-0.009,0.125-0.014,0.193-0.014c0.486,0,0.92,0.039,1.301,0.117s0.719,0.179,1.014,0.299
		c0.26,0.156,0.465,0.3,0.611,0.43s0.221,0.256,0.221,0.377c0,0.139-0.035,0.251-0.104,0.338c-0.07,0.088-0.166,0.146-0.285,0.182
		c-0.141,0.053-0.301,0.092-0.482,0.117c-0.182,0.026-0.395,0.039-0.637,0.039l-10.79,0.078c-0.589,0-1.147,0.014-1.677,0.039
		s-1.036,0.064-1.521,0.117c-0.139,0.018-0.265,0.029-0.377,0.039c-0.113,0.009-0.221,0.021-0.324,0.039
		c-0.104,0.018-0.209,0.031-0.313,0.039c-0.104,0.009-0.199,0.013-0.285,0.013c-0.104,0.019-0.209,0.035-0.313,0.052
		c-0.104,0.018-0.191,0.026-0.26,0.026c-0.104,0.017-0.199,0.03-0.287,0.039c-0.086,0.009-0.155,0.013-0.207,0.013
		c-0.088,0.018-0.17,0.031-0.247,0.039c-0.078,0.01-0.144,0.021-0.195,0.039c-0.069,0-0.134,0.004-0.194,0.014
		c-0.062,0.008-0.117,0.012-0.17,0.012c-0.121,0.035-0.242,0.053-0.363,0.053c-0.123,0-0.234,0-0.338,0
		c-0.209,0-0.399-0.01-0.572-0.025c-0.174-0.018-0.33-0.053-0.469-0.104c-0.172-0.017-0.33-0.052-0.467-0.104
		c-0.14-0.052-0.261-0.104-0.365-0.156c-0.086-0.017-0.168-0.047-0.246-0.09s-0.152-0.092-0.221-0.144
		c-0.088-0.017-0.17-0.052-0.248-0.104c-0.078-0.052-0.151-0.113-0.221-0.182c-0.087-0.035-0.165-0.078-0.234-0.13
		c-0.068-0.052-0.129-0.104-0.182-0.155c-0.068-0.053-0.113-0.105-0.13-0.156c-0.019-0.053-0.026-0.104-0.026-0.156
		c0-0.053,0.008-0.108,0.026-0.17c0.017-0.061,0.069-0.116,0.156-0.168c0.052-0.035,0.12-0.065,0.208-0.092
		c0.087-0.025,0.173-0.039,0.26-0.039c0.104,0.019,0.225,0.031,0.363,0.039c0.14,0.01,0.304,0.014,0.494,0.014
		c0.07,0.018,0.151,0.031,0.248,0.039c0.095,0.009,0.186,0.021,0.272,0.039c0.104,0.018,0.208,0.029,0.312,0.039
		c0.104,0.008,0.226,0.013,0.365,0.013c0.207,0.019,0.42,0.026,0.637,0.026s0.438,0,0.662,0c0.209,0.018,0.42,0.029,0.638,0.039
		C85.082,22.478,85.319,22.482,85.58,22.482z M87.504,14.943c-0.746,0.52-1.481,0.975-2.21,1.365
		c-0.729,0.39-1.439,0.715-2.132,0.975c-0.295,0.139-0.563,0.242-0.806,0.313c-0.244,0.068-0.442,0.104-0.599,0.104
		c-0.173,0.035-0.312,0.048-0.416,0.039c-0.104-0.008-0.173-0.039-0.208-0.092c-0.052-0.016-0.074-0.055-0.064-0.116
		c0.009-0.06,0.056-0.144,0.143-0.247c0.035-0.068,0.121-0.156,0.26-0.26c0.139-0.104,0.303-0.209,0.494-0.313
		c0.104-0.052,0.213-0.111,0.325-0.182c0.112-0.069,0.229-0.139,0.351-0.208c0.104-0.052,0.217-0.112,0.338-0.183
		c0.121-0.068,0.234-0.139,0.338-0.207c0.226-0.121,0.442-0.252,0.65-0.391s0.426-0.285,0.65-0.441
		c0.208-0.14,0.424-0.287,0.65-0.442c0.225-0.156,0.45-0.329,0.676-0.521c0.189-0.156,0.406-0.332,0.649-0.533
		c0.243-0.198,0.494-0.42,0.755-0.662c0.883-0.797,1.606-1.6,2.17-2.405s0.959-1.599,1.184-2.379c0-0.156-0.004-0.29-0.014-0.403
		c-0.008-0.111-0.021-0.203-0.039-0.273c-0.051-0.121-0.151-0.254-0.299-0.402c-0.146-0.146-0.324-0.299-0.533-0.455
		c-0.242-0.156-0.395-0.29-0.455-0.402c-0.06-0.113-0.039-0.213,0.065-0.3c0.104-0.052,0.277-0.077,0.521-0.077
		c0.242,0,0.563,0.025,0.962,0.077c0.138,0.052,0.307,0.108,0.507,0.169c0.199,0.061,0.43,0.143,0.689,0.247
		c0.207,0.104,0.406,0.222,0.598,0.351c0.191,0.131,0.373,0.273,0.546,0.43c0.069,0.087,0.144,0.169,0.222,0.247
		c0.078,0.077,0.135,0.151,0.17,0.221c0.033,0.087,0.063,0.169,0.09,0.247c0.027,0.078,0.039,0.143,0.039,0.195
		c0,0.156-0.047,0.32-0.143,0.494c-0.096,0.172-0.238,0.363-0.43,0.572c-0.069,0.086-0.127,0.164-0.17,0.233s-0.09,0.13-0.143,0.183
		c-0.068,0.086-0.13,0.164-0.183,0.233c-0.052,0.069-0.086,0.13-0.104,0.183c-0.018,0.034-0.035,0.061-0.053,0.077
		c-0.018,0.019-0.033,0.035-0.051,0.052c-0.018,0.018-0.035,0.035-0.053,0.053c-0.019,0.018-0.025,0.035-0.025,0.052
		c-0.053,0.052-0.096,0.112-0.13,0.183c-0.035,0.069-0.069,0.129-0.104,0.182l0.494,0.312c0.068,0.069,0.139,0.13,0.208,0.183
		c0.068,0.051,0.14,0.095,0.208,0.129c0.068,0.053,0.143,0.101,0.221,0.144s0.16,0.091,0.248,0.144
		c0.086,0.051,0.178,0.104,0.272,0.156c0.095,0.051,0.194,0.104,0.299,0.155c0.208,0.14,0.425,0.282,0.649,0.429
		c0.226,0.147,0.484,0.299,0.779,0.455c0.14,0.088,0.27,0.156,0.391,0.208s0.251,0.104,0.391,0.156
		c0.104,0.069,0.194,0.13,0.271,0.183c0.078,0.051,0.16,0.086,0.248,0.104c0.052,0.052,0.121,0.091,0.207,0.117
		c0.088,0.025,0.19,0.047,0.313,0.064c0.104,0.053,0.208,0.096,0.312,0.131c0.104,0.034,0.218,0.069,0.338,0.104
		c0.296,0.087,0.561,0.182,0.794,0.285c0.235,0.104,0.456,0.209,0.663,0.313c0.156,0.139,0.33,0.299,0.521,0.48
		c0.188,0.183,0.382,0.377,0.57,0.586c0.276,0.468,0.396,0.828,0.353,1.078c-0.043,0.252-0.265,0.387-0.662,0.404
		c-0.277,0.018-0.564-0.027-0.859-0.131s-0.605-0.26-0.936-0.468c-0.242-0.121-0.49-0.265-0.74-0.429
		c-0.252-0.166-0.517-0.352-0.793-0.559c-0.295-0.174-0.611-0.365-0.949-0.572c-0.338-0.209-0.706-0.442-1.104-0.703
		c-0.296-0.172-0.591-0.358-0.885-0.559c-0.295-0.199-0.6-0.402-0.91-0.611c-0.156-0.104-0.309-0.203-0.455-0.299
		c-0.146-0.095-0.299-0.195-0.455-0.299l-0.832-0.623c-0.276,0.311-0.559,0.619-0.845,0.922s-0.585,0.586-0.897,0.846
		c-0.328,0.295-0.672,0.572-1.026,0.832C88.228,14.449,87.868,14.701,87.504,14.943z"/>
	
		<linearGradient id="SVGID_4_" gradientUnits="userSpaceOnUse" x1="151.2891" y1="-89.1323" x2="246.7911" y2="-109.6328" gradientTransform="matrix(1 0 0 -1 -97.6001 -87.3232)">
		<stop  offset="0" style="stop-color:#2E2E2E"/>
		<stop  offset="1" style="stop-color:#000000"/>
	</linearGradient>
	<path fill="url(#SVGID_4_)" d="M106.198,11.146c0-0.155-0.018-0.299-0.053-0.428c-0.035-0.131-0.078-0.248-0.129-0.352
		c-0.07-0.104-0.156-0.195-0.261-0.273s-0.219-0.16-0.34-0.246c-0.121-0.053-0.229-0.104-0.324-0.156
		c-0.096-0.053-0.178-0.104-0.245-0.156c-0.105-0.035-0.188-0.078-0.248-0.13c-0.062-0.052-0.117-0.104-0.168-0.156
		c-0.089-0.052-0.146-0.108-0.17-0.169c-0.025-0.061-0.039-0.117-0.039-0.169c0-0.035,0.008-0.074,0.024-0.117
		c0.019-0.043,0.053-0.091,0.104-0.144c0.033-0.016,0.086-0.038,0.156-0.064c0.068-0.025,0.172-0.056,0.311-0.091h0.754
		c0.054,0.019,0.113,0.03,0.185,0.039c0.068,0.009,0.146,0.022,0.231,0.039c0.054,0,0.121,0.009,0.209,0.026
		c0.087,0.018,0.173,0.025,0.261,0.025c0.295,0.053,0.563,0.117,0.808,0.195c0.241,0.078,0.467,0.152,0.676,0.221h1.326
		c0.188,0,0.377-0.018,0.559-0.052c0.182-0.035,0.377-0.078,0.584-0.13c0.156-0.034,0.316-0.073,0.482-0.117
		c0.164-0.043,0.323-0.092,0.479-0.143c0.067-0.018,0.144-0.039,0.221-0.065c0.078-0.026,0.152-0.056,0.222-0.091
		c0.053,0,0.121-0.008,0.209-0.026c0.086-0.017,0.199-0.026,0.338-0.026c0.051,0,0.111,0.004,0.182,0.014
		c0.068,0.009,0.139,0.013,0.207,0.013h0.416c0.121,0.035,0.244,0.065,0.365,0.091c0.121,0.026,0.25,0.049,0.389,0.065
		c0.383,0.104,0.678,0.229,0.885,0.377c0.209,0.147,0.313,0.325,0.313,0.532c0,0.104-0.031,0.191-0.093,0.261
		c-0.061,0.069-0.135,0.13-0.221,0.183c-0.139,0.069-0.32,0.125-0.545,0.168c-0.227,0.043-0.504,0.065-0.832,0.065h-4.889v3.978
		c0.207,0,0.402-0.013,0.584-0.039c0.184-0.025,0.352-0.064,0.508-0.117c0.156-0.034,0.303-0.068,0.441-0.104s0.27-0.078,0.391-0.13
		c0.156-0.069,0.307-0.125,0.455-0.169c0.146-0.043,0.289-0.064,0.43-0.064c0.207,0,0.428,0.021,0.662,0.064
		s0.473,0.091,0.715,0.143c0.33,0.088,0.58,0.199,0.754,0.338c0.174,0.14,0.277,0.304,0.313,0.494
		c0.104,0.035,0.222,0.053,0.353,0.053c0.129,0,0.246,0,0.35,0c0.105,0.018,0.205,0.025,0.299,0.025c0.096,0,0.195,0,0.301,0
		c0.154,0.035,0.314,0.053,0.48,0.053c0.164,0,0.342-0.01,0.533-0.026c0.172,0,0.342,0,0.506,0c0.166,0,0.326-0.009,0.482-0.026
		V7.949c0-0.018-0.007-0.043-0.015-0.078c-0.011-0.035-0.015-0.068-0.015-0.104V7.533c-0.018-0.053-0.039-0.104-0.063-0.156
		c-0.024-0.052-0.049-0.104-0.063-0.156c-0.174-0.156-0.33-0.299-0.469-0.429c-0.14-0.13-0.261-0.247-0.363-0.351
		c-0.07-0.034-0.131-0.069-0.183-0.104c-0.053-0.035-0.096-0.063-0.131-0.078c-0.053-0.035-0.101-0.065-0.144-0.092
		c-0.045-0.025-0.082-0.056-0.116-0.091c-0.089-0.017-0.16-0.048-0.222-0.091c-0.063-0.043-0.127-0.092-0.194-0.143
		c-0.089-0.018-0.144-0.053-0.171-0.104c-0.024-0.052-0.038-0.121-0.038-0.208s0.026-0.16,0.077-0.221
		c0.054-0.062,0.148-0.117,0.287-0.17l0.285-0.025c0.242,0,0.502,0.018,0.779,0.052c0.277,0.035,0.564,0.087,0.859,0.156
		c0.277,0.087,0.555,0.187,0.832,0.299c0.277,0.113,0.555,0.237,0.832,0.377c0.051,0.052,0.104,0.101,0.156,0.144
		c0.051,0.043,0.094,0.082,0.129,0.117c0.035,0.051,0.069,0.09,0.104,0.116c0.035,0.026,0.07,0.048,0.105,0.065
		c0.016,0.068,0.039,0.139,0.063,0.207c0.024,0.07,0.039,0.131,0.039,0.183c0,0.14-0.015,0.251-0.039,0.338
		s-0.049,0.156-0.063,0.208c-0.019,0.053-0.027,0.107-0.027,0.17c0,0.061,0,0.116,0,0.168v13.858c0,0.26-0.008,0.536-0.025,0.832
		c-0.018,0.295-0.035,0.606-0.053,0.937c-0.051,0.346-0.094,0.666-0.129,0.961s-0.078,0.572-0.131,0.832
		c-0.086,0.277-0.164,0.543-0.232,0.793c-0.07,0.252-0.148,0.489-0.234,0.715c-0.104,0.209-0.205,0.369-0.299,0.481
		c-0.096,0.112-0.195,0.169-0.299,0.169c-0.07,0-0.131-0.018-0.184-0.052c-0.051-0.035-0.104-0.097-0.156-0.183
		c-0.068-0.068-0.125-0.155-0.168-0.26c-0.043-0.104-0.074-0.207-0.092-0.312c-0.051-0.121-0.09-0.247-0.117-0.378
		c-0.025-0.129-0.039-0.264-0.039-0.402c-0.033-0.139-0.055-0.277-0.064-0.416c-0.008-0.139-0.012-0.285-0.012-0.441v-8.971
		c-0.088,0.018-0.166,0.035-0.234,0.053c-0.069,0.018-0.139,0.025-0.209,0.025c-0.067,0.018-0.135,0.03-0.194,0.039
		c-0.06,0.01-0.117,0.014-0.168,0.014c-0.156,0.034-0.287,0.057-0.392,0.064c-0.104,0.008-0.198,0.014-0.285,0.014
		c-0.155,0.034-0.313,0.047-0.469,0.038c-0.156-0.008-0.285-0.038-0.391-0.091c-0.154-0.018-0.289-0.053-0.402-0.104
		c-0.113-0.053-0.221-0.104-0.324-0.156c-0.088-0.053-0.182-0.104-0.287-0.156c-0.104-0.053-0.188-0.113-0.26-0.182
		c-0.086-0.053-0.164-0.104-0.233-0.156c-0.067-0.053-0.11-0.104-0.129-0.156c-0.07,0.035-0.136,0.057-0.195,0.064
		c-0.062,0.01-0.116,0.014-0.17,0.014c-0.086,0.018-0.172,0.025-0.26,0.025c-0.087,0-0.183,0-0.285,0h-3.642
		c0,0.365,0,0.729,0,1.093s0.011,0.711,0.027,1.04v1.977c0,0.26,0.047,0.454,0.143,0.584c0.095,0.131,0.238,0.178,0.429,0.143
		c0.155,0.019,0.325,0.027,0.508,0.027s0.386-0.018,0.611-0.053c0.188,0,0.42-0.018,0.688-0.052c0.268-0.034,0.566-0.078,0.896-0.13
		c0.295-0.035,0.588-0.082,0.883-0.143c0.295-0.062,0.59-0.135,0.885-0.222c0.277-0.069,0.559-0.155,0.846-0.261
		c0.285-0.104,0.576-0.225,0.871-0.363c0.121-0.018,0.238-0.029,0.351-0.039c0.112-0.009,0.204-0.004,0.272,0.014
		c0.053,0.035,0.101,0.078,0.144,0.129c0.043,0.053,0.082,0.104,0.116,0.156c0,0.07-0.008,0.139-0.024,0.209
		c-0.019,0.069-0.053,0.139-0.104,0.207c-0.069,0.088-0.139,0.161-0.209,0.221c-0.067,0.062-0.155,0.117-0.26,0.17
		c-0.641,0.312-1.295,0.588-1.963,0.832c-0.668,0.242-1.355,0.441-2.066,0.598c-0.676,0.156-1.266,0.27-1.77,0.338
		c-0.502,0.068-0.926,0.087-1.273,0.053c-0.416,0-0.774-0.035-1.078-0.105c-0.305-0.068-0.532-0.182-0.688-0.338
		c-0.19-0.139-0.33-0.346-0.416-0.623c-0.088-0.277-0.131-0.625-0.131-1.041L106.198,11.146z M123.669,22.873
		c0,0.139-0.004,0.277-0.012,0.416c-0.01,0.139-0.021,0.277-0.039,0.416c0,0.156-0.01,0.313-0.025,0.469
		c-0.018,0.155-0.027,0.311-0.027,0.467c-0.051,0.365-0.104,0.689-0.155,0.976s-0.097,0.56-0.129,0.819
		c-0.07,0.276-0.144,0.541-0.222,0.793c-0.078,0.25-0.162,0.49-0.248,0.715c-0.086,0.207-0.186,0.367-0.299,0.48
		s-0.213,0.17-0.299,0.17c-0.07,0-0.131-0.019-0.182-0.053c-0.053-0.035-0.104-0.095-0.156-0.182
		c-0.035-0.069-0.078-0.152-0.131-0.247c-0.051-0.095-0.086-0.195-0.104-0.3c-0.052-0.121-0.097-0.25-0.129-0.389
		c-0.035-0.14-0.054-0.277-0.054-0.416c-0.035-0.156-0.058-0.304-0.063-0.443c-0.01-0.139-0.015-0.276-0.015-0.416V6.909
		c0-0.017-0.004-0.043-0.014-0.078c-0.009-0.035-0.013-0.069-0.013-0.104V6.493c-0.018-0.052-0.035-0.104-0.053-0.156
		s-0.043-0.104-0.078-0.155c-0.174-0.156-0.33-0.299-0.467-0.43c-0.141-0.13-0.262-0.246-0.365-0.352
		c-0.051-0.033-0.106-0.068-0.168-0.104c-0.063-0.033-0.117-0.061-0.17-0.078c-0.053-0.035-0.1-0.061-0.143-0.078
		c-0.043-0.017-0.064-0.043-0.064-0.078c-0.07-0.035-0.145-0.078-0.223-0.129c-0.076-0.053-0.15-0.104-0.221-0.156
		c-0.086-0.034-0.146-0.078-0.182-0.131c-0.035-0.051-0.052-0.104-0.052-0.155c0-0.087,0.029-0.16,0.091-0.222
		c0.061-0.061,0.17-0.116,0.323-0.168l0.263-0.026c0.26,0,0.526,0.017,0.805,0.052c0.277,0.035,0.563,0.088,0.859,0.156
		c0.274,0.087,0.555,0.188,0.831,0.299c0.275,0.113,0.554,0.238,0.832,0.377c0.052,0.053,0.104,0.1,0.154,0.143
		c0.053,0.043,0.096,0.084,0.131,0.117c0.054,0.053,0.097,0.092,0.131,0.117c0.033,0.026,0.068,0.049,0.104,0.064
		c0.033,0.07,0.061,0.14,0.078,0.209c0.016,0.07,0.024,0.13,0.024,0.182c0,0.139-0.01,0.251-0.024,0.338
		c-0.019,0.088-0.035,0.156-0.053,0.208c-0.035,0.052-0.054,0.108-0.054,0.169s0,0.117,0,0.17v16.197H123.669z"/>
	
		<linearGradient id="SVGID_5_" gradientUnits="userSpaceOnUse" x1="152.2891" y1="-84.4683" x2="247.7914" y2="-104.9688" gradientTransform="matrix(1 0 0 -1 -97.6001 -87.3232)">
		<stop  offset="0" style="stop-color:#2E2E2E"/>
		<stop  offset="1" style="stop-color:#000000"/>
	</linearGradient>
	<path fill="url(#SVGID_5_)" d="M133.29,7.818c0.156,0,0.307,0.006,0.455,0.014c0.146,0.01,0.299,0.014,0.455,0.014
		c0.121,0.035,0.242,0.064,0.363,0.09c0.121,0.026,0.252,0.058,0.391,0.092c0.104,0.052,0.199,0.113,0.285,0.182
		c0.088,0.069,0.174,0.139,0.26,0.208c0.07,0.087,0.127,0.173,0.17,0.261c0.043,0.086,0.064,0.172,0.064,0.26
		c0,0.086-0.012,0.168-0.039,0.246c-0.025,0.078-0.064,0.152-0.117,0.222c0.59,0.139,1.135,0.347,1.639,0.624
		c0.502,0.277,0.953,0.624,1.352,1.04c0.486,0.555,0.863,1.114,1.132,1.677c0.271,0.563,0.403,1.131,0.403,1.703
		c0,0.693-0.147,1.348-0.442,1.963s-0.72,1.191-1.272,1.729c-0.537,0.521-1.156,0.91-1.859,1.17
		c-0.701,0.261-1.478,0.391-2.326,0.391c-0.85,0-1.621-0.13-2.314-0.391c-0.693-0.26-1.309-0.649-1.846-1.17
		c-0.59-0.537-1.023-1.113-1.301-1.729c-0.278-0.615-0.416-1.27-0.416-1.963c0-0.572,0.109-1.131,0.326-1.678
		c0.217-0.545,0.565-1.078,1.053-1.598h-0.025c0.381-0.416,0.822-0.771,1.324-1.066c0.504-0.295,1.076-0.52,1.717-0.676l0.338-0.104
		c0.035-0.035,0.078-0.069,0.131-0.104c0.017,0,0.033-0.017,0.052-0.051c0.018-0.035,0.026-0.078,0.026-0.131
		c0-0.018-0.006-0.039-0.014-0.064c-0.01-0.026-0.021-0.057-0.039-0.092c-0.035,0-0.057-0.004-0.064-0.013
		c-0.01-0.009-0.022-0.021-0.039-0.039c-0.018-0.017-0.03-0.03-0.039-0.039c-0.01-0.008-0.014-0.021-0.014-0.038
		c-0.053,0-0.1-0.021-0.143-0.066c-0.043-0.043-0.082-0.09-0.117-0.143c-0.035-0.033-0.064-0.072-0.092-0.117
		c-0.025-0.043-0.039-0.09-0.039-0.143s0.01-0.1,0.027-0.143c0.016-0.043,0.043-0.092,0.078-0.144
		c0.016-0.017,0.071-0.043,0.168-0.077C133.034,7.888,133.151,7.853,133.29,7.818z M137.606,14.449c0-0.52-0.088-1.001-0.26-1.443
		c-0.175-0.441-0.427-0.845-0.757-1.209c-0.381-0.363-0.771-0.646-1.17-0.845c-0.397-0.199-0.806-0.3-1.222-0.3
		c-0.434,0-0.85,0.101-1.247,0.3c-0.397,0.198-0.781,0.481-1.146,0.845c-0.348,0.364-0.602,0.768-0.768,1.209
		c-0.164,0.442-0.246,0.924-0.246,1.443c0,0.607,0.082,1.145,0.246,1.611c0.166,0.469,0.42,0.867,0.768,1.197h-0.025
		c0.363,0.363,0.75,0.633,1.156,0.805c0.408,0.174,0.828,0.261,1.262,0.261c0.416,0,0.822-0.087,1.222-0.261
		c0.399-0.172,0.789-0.441,1.17-0.805c0.33-0.347,0.582-0.755,0.757-1.223C137.519,15.566,137.606,15.038,137.606,14.449z
		 M146.446,22.873c0,0.26-0.01,0.538-0.027,0.832c-0.018,0.295-0.033,0.607-0.051,0.936c-0.035,0.365-0.078,0.689-0.131,0.976
		c-0.051,0.286-0.096,0.56-0.129,0.819c-0.088,0.276-0.174,0.541-0.26,0.793c-0.089,0.25-0.166,0.49-0.234,0.715
		c-0.104,0.207-0.213,0.367-0.326,0.48c-0.111,0.113-0.211,0.17-0.299,0.17c-0.086,0-0.16-0.019-0.221-0.053
		c-0.062-0.035-0.107-0.095-0.144-0.182c-0.054-0.069-0.104-0.152-0.156-0.247s-0.086-0.195-0.104-0.3
		c-0.034-0.121-0.063-0.25-0.092-0.389c-0.024-0.14-0.039-0.277-0.039-0.416c-0.035-0.156-0.057-0.304-0.063-0.443
		c-0.01-0.139-0.015-0.276-0.015-0.416V6.909c0-0.017-0.004-0.043-0.012-0.078c-0.01-0.035-0.014-0.069-0.014-0.104V6.493
		c0-0.052-0.014-0.104-0.039-0.156s-0.057-0.104-0.092-0.155c-0.104-0.069-0.189-0.14-0.26-0.209
		c-0.068-0.068-0.146-0.139-0.234-0.207c-0.068-0.053-0.143-0.108-0.221-0.17c-0.078-0.061-0.135-0.117-0.168-0.168
		c-0.088-0.035-0.16-0.07-0.221-0.104c-0.063-0.035-0.117-0.069-0.17-0.104c-0.052-0.017-0.101-0.039-0.144-0.064
		c-0.043-0.026-0.082-0.057-0.117-0.092c-0.035-0.016-0.063-0.035-0.092-0.051c-0.025-0.018-0.056-0.043-0.091-0.078
		c-0.034-0.018-0.063-0.039-0.092-0.065c-0.024-0.026-0.057-0.056-0.09-0.091c-0.105-0.034-0.174-0.078-0.209-0.131
		c-0.035-0.051-0.051-0.104-0.051-0.155c0-0.104,0.029-0.187,0.09-0.247s0.16-0.107,0.299-0.143l0.26-0.026
		c0.242,0,0.509,0.017,0.793,0.052c0.287,0.035,0.595,0.088,0.925,0.156c0.295,0.104,0.603,0.217,0.922,0.338
		c0.321,0.122,0.629,0.26,0.924,0.416c0.104,0.087,0.195,0.156,0.272,0.208c0.078,0.052,0.144,0.104,0.195,0.155
		c0.017,0.07,0.033,0.14,0.051,0.209c0.019,0.07,0.027,0.13,0.027,0.182c0,0.139-0.014,0.251-0.039,0.338
		c-0.027,0.088-0.049,0.156-0.066,0.208c-0.034,0.052-0.051,0.108-0.051,0.169s0,0.117,0,0.17v16.197H146.446z"/>
</g>
<linearGradient id="SVGID_6_" gradientUnits="userSpaceOnUse" x1="12.6021" y1="9.7959" x2="25.6084" y2="22.0296">
	<stop  offset="0" style="stop-color:#6E6C8E"/>
	<stop  offset="1" style="stop-color:#B7B7CE"/>
</linearGradient>
<circle fill="url(#SVGID_6_)" cx="19.554" cy="16.334" r="10.792"/>
</svg>
