<?xml version="1.0" encoding="utf-8"?>
<!-- Generator: Adobe Illustrator 21.0.0, SVG Export Plug-In . SVG Version: 6.00 Build 0)  -->
<svg version="1.1" id="레이어_1" xmlns="http://www.w3.org/2000/svg" xmlns:xlink="http://www.w3.org/1999/xlink" x="0px"
	 y="0px" viewBox="0 0 144 93" style="enable-background:new 0 0 144 93;" xml:space="preserve">
<style type="text/css">
	.st0{fill:#FF6507;}
	.st1{fill:#FFFFFF;}
	.st2{fill:none;stroke:#0A3F54;stroke-width:8;stroke-miterlimit:10;}
	.st3{fill:#0A3F54;}
	.st4{fill:#A06767;}
	.st5{fill:none;stroke:#FFFFFF;stroke-width:1.5;stroke-miterlimit:10;}
</style>
<rect x="-0.3" class="st4" width="144.3" height="93.5"/>
<g>
	<path class="st1" d="M104,29.4l-0.3,2.7c0,0.3-0.2,0.4-0.5,0.4c-1.2-0.1-3.1-0.1-5.6,0c-0.3,0-0.4-0.1-0.4-0.4
		c0-0.4,0.6-1.3,1.8-2.5c1.2-1.2,1.9-1.9,2-2.1c0.4-0.4,0.7-0.8,1.1-1.3c0.3-0.5,0.5-1.2,0.5-2c0-0.5-0.2-1-0.6-1.4
		c-0.4-0.4-0.9-0.6-1.6-0.6c-0.5,0-0.9,0.2-1.3,0.5s-0.5,0.7-0.5,1.1c0,0.1,0,0.2,0,0.2c0,0,0,0,0.1,0c0.1,0,0.3,0.1,0.4,0.2
		s0.3,0.4,0.3,0.6c0,0.3-0.1,0.5-0.3,0.6c-0.2,0.1-0.4,0.2-0.7,0.2c-0.4,0-0.7-0.2-0.8-0.5c-0.2-0.3-0.2-0.6-0.2-0.9
		c0-0.7,0.3-1.4,0.8-2c0.5-0.6,1.4-1,2.5-1c0.9,0,1.7,0.3,2.3,0.9c0.6,0.6,0.9,1.3,0.9,2.2c0,0.6-0.2,1.2-0.6,1.9
		c-0.4,0.7-0.8,1.2-1.3,1.5c-0.4,0.3-1,0.9-1.9,1.9c-0.9,0.9-1.4,1.5-1.5,1.7h3.4c0.4,0,0.6-0.2,0.8-0.5l0.3-1.6
		c0.1-0.3,0.2-0.5,0.5-0.4C103.9,29,104,29.1,104,29.4z"/>
	<path class="st1" d="M113.2,27.1c0,1.5-0.3,2.8-0.9,3.9c-0.6,1.1-1.5,1.7-2.6,1.7c-1.1,0-2-0.6-2.6-1.7c-0.6-1.1-0.9-2.5-0.9-3.9
		c0-1.5,0.3-2.8,0.9-3.9c0.6-1.2,1.5-1.7,2.6-1.7c1.1,0,2,0.6,2.6,1.7C112.9,24.3,113.2,25.6,113.2,27.1z M112,27.1
		c0-1.3-0.2-2.4-0.6-3.4s-1-1.4-1.7-1.4s-1.3,0.5-1.7,1.4s-0.6,2.1-0.6,3.4c0,1.3,0.2,2.4,0.6,3.4c0.4,1,1,1.4,1.7,1.4
		s1.3-0.5,1.7-1.4C111.7,29.5,112,28.4,112,27.1z"/>
	<path class="st1" d="M117.3,24.2c0-0.4-0.1-0.6-0.4-0.6h-1.3c-0.3,0-0.4-0.1-0.4-0.4c0-0.3,0.1-0.4,0.4-0.4c0.8,0,1.3-0.1,1.6-0.4
		c0.3-0.3,0.5-0.6,0.5-0.9c0-0.2,0.1-0.3,0.4-0.3c0.3,0,0.4,0.1,0.4,0.3v9.6c0,0.3,0.2,0.5,0.5,0.5h1.3c0.3,0,0.4,0.1,0.4,0.4
		c0,0.3-0.1,0.4-0.4,0.4h-4.7c-0.3,0-0.4-0.1-0.4-0.4c0-0.3,0.1-0.4,0.4-0.4h1.3c0.3,0,0.5-0.2,0.5-0.5V24.2z"/>
	<path class="st1" d="M126.8,26.6c0.6,0.2,1.1,0.6,1.6,1.1s0.8,1,0.8,1.7c0,1.2-0.4,2-1.2,2.5c-0.8,0.5-1.6,0.8-2.4,0.8
		c-1.1,0-1.9-0.3-2.5-0.9c-0.6-0.6-0.9-1.3-0.9-2.2c0-0.7,0.2-1.3,0.7-1.8c0.5-0.5,1-0.8,1.6-1.1c-0.4-0.2-0.7-0.5-1.2-1
		c-0.4-0.5-0.7-1-0.7-1.5c0-0.8,0.3-1.5,0.8-2.1c0.5-0.6,1.3-0.9,2.3-0.9c0.8,0,1.5,0.2,2.1,0.7c0.6,0.5,0.9,1.1,0.9,2
		c0,0.7-0.2,1.3-0.7,1.7S127.2,26.5,126.8,26.6z M125.8,31.9c0.6,0,1.2-0.2,1.7-0.6c0.5-0.4,0.7-0.9,0.7-1.5c0-0.8-0.2-1.4-0.7-1.7
		c-0.5-0.3-1.1-0.6-1.9-0.9c-0.7,0.3-1.3,0.7-1.7,1c-0.4,0.4-0.6,0.9-0.6,1.5c0,0.7,0.2,1.2,0.7,1.6S125.1,31.9,125.8,31.9z
		 M125.8,26.3c0.5-0.3,1-0.6,1.3-0.9s0.5-0.8,0.5-1.3c0-0.6-0.2-1.1-0.5-1.4c-0.3-0.3-0.8-0.5-1.4-0.5c-0.6,0-1.1,0.2-1.4,0.5
		c-0.3,0.4-0.5,0.8-0.5,1.3c0,0.7,0.2,1.2,0.6,1.5C124.8,25.8,125.3,26.1,125.8,26.3z"/>
	<path class="st1" d="M124.5,44.8c0,0.3-0.1,0.6-0.4,0.9c-0.3,0.3-0.6,0.4-0.9,0.4c-0.3,0-0.6-0.1-0.9-0.4c-0.3-0.3-0.4-0.6-0.4-0.9
		c0-0.3,0.1-0.6,0.4-0.9c0.3-0.3,0.6-0.4,0.9-0.4c0.3,0,0.6,0.1,0.9,0.4S124.5,44.5,124.5,44.8z"/>
	<path class="st1" d="M29.9,65.3c0,0.1,0,0.3,0,0.4c0,0.1,0,0.3,0,0.4c0,0.1,0,0.3,0,0.4c0,0.1,0,0.3,0,0.4
		c-0.1,0.3-0.1,0.6-0.1,0.9c0,0.3-0.1,0.6-0.1,0.8c-0.1,0.3-0.1,0.5-0.2,0.8c-0.1,0.2-0.1,0.4-0.2,0.6c-0.1,0.2-0.2,0.3-0.3,0.4
		s-0.2,0.1-0.2,0.1c-0.1,0-0.1,0-0.1-0.1s-0.1-0.1-0.1-0.2c-0.1-0.1-0.1-0.1-0.1-0.2c0-0.1-0.1-0.2-0.1-0.3
		c-0.1-0.1-0.1-0.2-0.1-0.3c0-0.1,0-0.3,0-0.4c0-0.1-0.1-0.3-0.1-0.4s0-0.3,0-0.4v-2.7c-0.3,0.1-0.5,0.1-0.7,0.2
		c-0.2,0-0.4,0.1-0.6,0.1c-0.2,0-0.4,0.1-0.5,0.1c-0.1,0-0.3,0-0.4,0c-0.2,0-0.4,0-0.6-0.1c-0.2,0-0.4-0.1-0.5-0.2
		c-0.2-0.1-0.3-0.2-0.4-0.3C24.1,65.2,24,65.1,24,65c-0.1,0.1-0.1,0.1-0.2,0.1c-0.1,0-0.2,0-0.2,0c-0.1,0-0.2,0.1-0.4,0.1
		c-0.1,0-0.3,0-0.5,0h-3.6v2.3c0,0.2,0,0.4,0.1,0.5c0,0.1,0.1,0.2,0.2,0.2c0.1,0.1,0.2,0.1,0.3,0.1c0.1,0,0.3,0,0.4,0
		c0.1,0,0.3,0,0.4,0s0.4,0,0.6-0.1c0.2,0,0.4,0,0.7-0.1c0.2,0,0.5-0.1,0.7-0.1c0.2,0,0.5-0.1,0.7-0.1c0.3-0.1,0.5-0.1,0.8-0.2
		c0.3-0.1,0.5-0.1,0.8-0.2c0.3-0.1,0.5-0.2,0.8-0.3c0,0,0,0,0.1,0c0,0,0.1,0,0.2-0.1H26c0,0,0,0,0.1,0s0.1,0,0.1,0
		c0.1,0,0.1,0,0.1,0c0,0,0.1,0,0.1,0c0,0,0,0.1,0.1,0.1c0,0,0,0.1,0,0.1c0,0.1,0,0.1,0,0.2c0,0.1,0,0.1-0.1,0.2
		c-0.1,0.1-0.1,0.1-0.2,0.2c-0.1,0.1-0.1,0.1-0.2,0.1c-0.3,0.2-0.6,0.3-0.9,0.4c-0.3,0.1-0.6,0.2-0.9,0.4c-0.3,0.1-0.6,0.2-1,0.3
		s-0.6,0.2-0.9,0.2c-0.3,0.1-0.6,0.2-0.9,0.2c-0.3,0.1-0.5,0.1-0.8,0.1C20.5,70,20.2,70,20,70s-0.4,0-0.6,0c-0.4,0-0.7,0-1-0.1
		c-0.3-0.1-0.5-0.2-0.7-0.3c-0.2-0.1-0.3-0.3-0.4-0.6c-0.1-0.3-0.1-0.6-0.1-1v-5.5c0-0.3-0.1-0.5-0.2-0.8c-0.2-0.2-0.4-0.4-0.6-0.6
		c-0.1-0.1-0.2-0.1-0.3-0.2c-0.1-0.1-0.2-0.1-0.2-0.2c-0.1,0-0.1-0.1-0.2-0.1s-0.1-0.1-0.1-0.1c-0.1,0-0.1,0-0.1-0.1
		c0,0,0-0.1,0-0.1c0,0,0,0,0,0c0,0,0-0.1,0-0.1s0-0.1,0-0.1c0,0,0.1-0.1,0.1-0.1c0.1,0,0.1,0,0.2-0.1c0.1,0,0.3,0,0.5,0
		c0.2,0,0.3,0,0.6,0.1c0.2,0,0.5,0.1,0.7,0.1c0.2,0.1,0.4,0.1,0.7,0.2c0.2,0.1,0.4,0.1,0.6,0.2h0.9c0.2,0,0.4,0,0.6,0
		c0.2,0,0.4,0,0.6-0.1c0.2,0,0.3,0,0.5-0.1c0.1,0,0.3-0.1,0.4-0.1c0.1,0,0.3-0.1,0.4-0.1c0.1,0,0.2-0.1,0.4-0.1c0.1,0,0.2,0,0.3-0.1
		s0.2,0,0.3,0c0.1,0,0.3,0,0.4,0c0.2,0,0.3,0,0.5,0l0.4,0.1c0.1,0,0.1,0,0.2,0.1c0.1,0,0.1,0,0.2,0c0.1,0.1,0.2,0.1,0.3,0.2
		c0.1,0.1,0.2,0.1,0.3,0.2c0.1,0.1,0.1,0.2,0.2,0.2c0,0.1,0.1,0.1,0.1,0.2c0,0.1,0,0.2-0.1,0.2c0,0.1-0.1,0.1-0.2,0.1
		c-0.1,0.1-0.3,0.1-0.5,0.1c-0.2,0-0.4,0.1-0.7,0.1h-5v2.8c0.2,0,0.3,0,0.5,0c0.2,0,0.3,0,0.5-0.1c0.1,0,0.2,0,0.3-0.1
		c0.1,0,0.2-0.1,0.4-0.1c0.1,0,0.1,0,0.1,0c0,0,0.1,0,0.1-0.1l0.3-0.1c0.1,0,0.1,0,0.2-0.1c0.1,0,0.2,0,0.3,0c0.2,0,0.4,0,0.6,0
		c0.2,0,0.5,0.1,0.7,0.1c0.2,0.1,0.4,0.2,0.6,0.2c0.1,0.1,0.3,0.2,0.3,0.3c0,0,0.1,0,0.1,0h0.1l2.7,0.1h0.6c0.1,0,0.1,0,0.2,0
		s0.2,0,0.3,0v-4.8c0-0.1,0-0.1-0.1-0.2c0-0.1-0.1-0.1-0.1-0.2c-0.2-0.2-0.3-0.3-0.4-0.4c-0.1-0.1-0.3-0.2-0.4-0.3
		c-0.2-0.1-0.3-0.1-0.4-0.2c-0.1-0.1-0.2-0.1-0.2-0.2c-0.1,0-0.2-0.1-0.2-0.1C26,58.1,26,58,25.9,58c-0.1,0-0.1,0-0.1-0.1
		c0,0,0-0.1,0-0.1c0-0.1,0-0.1,0.1-0.2c0,0,0.1-0.1,0.2-0.1h0.2c0,0,0.1,0,0.1,0c0,0,0.1,0,0.1,0c0.1,0,0.2,0,0.4,0s0.4,0.1,0.6,0.1
		c0.1,0,0.2,0.1,0.3,0.1c0.1,0,0.2,0.1,0.3,0.1c0.1,0,0.2,0,0.3,0.1c0.1,0,0.2,0.1,0.3,0.1c0.2,0.1,0.4,0.2,0.5,0.2
		c0.2,0.1,0.3,0.2,0.4,0.2c0.1,0.1,0.2,0.2,0.3,0.3s0.1,0.2,0.1,0.3c0,0.1,0,0.3,0,0.4s0,0.2,0,0.3c0,0.1-0.1,0.2-0.1,0.3
		s0,0.2,0,0.3V65.3z M29.4,72c0.3,0,0.6,0,0.9,0c0.3,0,0.5,0,0.7-0.1c0.2,0,0.3,0,0.5,0c0.1,0,0.3-0.1,0.4-0.1c0.1,0,0.2,0,0.3-0.1
		s0.1-0.1,0.2-0.1c0.1,0,0.1,0,0.1,0c0,0,0.1,0,0.2,0c0.1,0,0.2,0,0.3,0s0.2,0,0.3,0.1c0.1,0,0.1,0,0.1,0.1c0,0,0.1,0,0.1,0.1
		c0,0,0.1,0,0.1,0.1c0,0,0.1,0,0.1,0c0,0,0,0.1,0.1,0.1s0.1,0,0.1,0.1c0,0,0,0,0.1,0.1c0,0,0.1,0,0.1,0.1c0,0.1,0.1,0.1,0.1,0.2
		c0,0.1,0,0.1,0,0.1c0,0.1,0,0.1,0,0.2c0,0.1,0,0.2-0.1,0.2C34.1,72.9,34,73,34,73.1s0,0.2,0,0.3c-0.1,0.5-0.2,0.9-0.2,1.4
		c0,0.4-0.1,0.9-0.1,1.2c0,0.2-0.1,0.4-0.1,0.6c0,0.2,0,0.4-0.1,0.6c0,0.2,0,0.4-0.1,0.7c0,0.2,0,0.4-0.1,0.6c0.1,0,0.3,0,0.4,0
		c0.1,0,0.2,0,0.3,0.1c0.1,0,0.1,0.1,0.1,0.1c0,0.1,0.1,0.1,0.1,0.2c0,0.1,0,0.1,0,0.1s0,0.1-0.1,0.1c0,0,0,0-0.1,0c0,0,0,0-0.1,0
		c0,0,0,0-0.1,0c0,0-0.1,0-0.1,0s-0.1,0-0.1,0c0,0-0.1,0-0.1,0c-0.1,0-0.1,0-0.2,0c-0.1,0-0.1,0-0.2,0h-8.3c0,0.1-0.1,0.2-0.1,0.3
		c-0.1,0.1-0.1,0.2-0.2,0.4c-0.1,0.1-0.2,0.2-0.3,0.2c-0.1,0.1-0.2,0.1-0.4,0.1c-0.1,0-0.3,0-0.4-0.1c-0.1-0.1-0.2-0.2-0.2-0.4
		c-0.1-0.2-0.2-0.3-0.2-0.5c-0.1-0.2-0.1-0.4-0.1-0.6c0-0.4-0.1-0.8-0.1-1.2s0-0.7-0.1-1.1c0-0.3,0-0.6-0.1-0.9s0-0.6-0.1-0.8
		c-0.1-0.5-0.1-0.8-0.1-1.1c0-0.3-0.1-0.5-0.1-0.6c0-0.1-0.1-0.2-0.1-0.2c0-0.1-0.1-0.2-0.1-0.2c-0.1-0.1-0.1-0.1-0.2-0.2
		c-0.1-0.1-0.1-0.1-0.1-0.2c-0.1-0.1-0.2-0.1-0.2-0.2c-0.1-0.1-0.1-0.1-0.2-0.2c-0.1,0-0.1-0.1-0.1-0.1c0,0,0-0.1,0-0.1
		c0,0,0,0,0-0.1c0,0,0.1-0.1,0.1-0.1c0.1,0,0.1,0,0.2-0.1s0.2,0,0.4,0c0,0,0.1,0,0.1,0c0,0,0.1,0,0.1,0c0,0,0.1,0,0.1,0
		c0.1,0,0.1,0,0.2,0c0.1,0,0.1,0,0.1,0.1c0,0,0.1,0,0.1,0c0.1,0,0.1,0,0.2,0.1c0.1,0,0.1,0,0.2,0c0.1,0,0.2,0.1,0.2,0.1
		c0.1,0,0.2,0,0.3,0.1c0.1,0.1,0.1,0.1,0.2,0.1c0.1,0,0.1,0,0.2,0H29.4z M31.7,78.5c0-0.5,0-0.9,0-1.4c0-0.5,0-1,0.1-1.4v-1.4
		c0-0.2,0-0.5,0-0.7s0-0.5,0-0.8c-0.3,0-0.6,0-0.9,0c-0.3,0-0.6,0-0.9,0h-1.7c-0.6,0-1.2,0-1.8,0s-1.2,0-1.8,0c0,0.5,0,0.9,0.1,1.4
		c0,0.5,0.1,0.9,0.1,1.4c0,0.5,0,0.9,0,1.4c0,0.5,0.1,0.9,0.1,1.4H31.7z M34.1,65.1c0,0.3,0,0.7,0,1c0,0.3,0,0.7-0.1,1
		c0,0.2-0.1,0.3-0.1,0.5c0,0.2,0,0.3-0.1,0.5c0,0.2,0,0.3-0.1,0.4c0,0.1,0,0.3-0.1,0.4c-0.1,0.3-0.1,0.6-0.2,0.8
		c-0.1,0.2-0.1,0.4-0.2,0.6c-0.1,0.2-0.2,0.3-0.3,0.4c-0.1,0.1-0.2,0.1-0.2,0.1c-0.1,0-0.1,0-0.1,0c0,0-0.1-0.1-0.1-0.2
		c-0.1-0.1-0.1-0.1-0.1-0.2c0-0.1,0-0.2-0.1-0.4c-0.1-0.1-0.1-0.2-0.1-0.4c0-0.1,0-0.3,0-0.4c0-0.1-0.1-0.3-0.1-0.4
		c0-0.1,0-0.3,0-0.4v-9.6c0-0.1,0-0.1-0.1-0.2c0-0.1-0.1-0.1-0.1-0.2c-0.2-0.2-0.4-0.3-0.5-0.5c-0.1-0.1-0.3-0.2-0.4-0.4
		c-0.1-0.1-0.3-0.1-0.4-0.2c-0.1-0.1-0.2-0.1-0.2-0.2c-0.1,0-0.2-0.1-0.2-0.1c-0.1,0-0.1-0.1-0.1-0.1c-0.1,0-0.1,0-0.1-0.1
		c0,0,0-0.1,0-0.1c0,0,0,0,0-0.1c0,0,0.1-0.1,0.1-0.1c0,0,0.1,0,0.2-0.1c0.1,0,0.1,0,0.2,0c0.1,0,0.1,0,0.2,0c0.1,0,0.1,0,0.2,0
		c0.1,0,0.2,0,0.3,0s0.2,0,0.3,0c0.2,0.1,0.4,0.1,0.6,0.2c0.2,0.1,0.4,0.1,0.7,0.2c0.2,0.1,0.4,0.2,0.6,0.2c0.2,0.1,0.4,0.2,0.5,0.2
		c0.1,0.1,0.2,0.2,0.3,0.3c0.1,0.1,0.1,0.2,0.1,0.4c0,0.1,0,0.3,0,0.4s0,0.2-0.1,0.3c0,0.1-0.1,0.2-0.1,0.3s0,0.2,0,0.3V65.1z"/>
	<path class="st1" d="M42.8,68c1.5,0,2.9,0,4.1,0s2.3,0,3.2-0.1c0.9,0,1.6,0,2.2,0c0.6,0,1-0.1,1.2-0.1c0.2,0,0.5,0,0.7-0.1
		c0.2,0,0.4-0.1,0.6-0.1c0.2,0,0.3,0,0.5-0.1c0.1,0,0.3-0.1,0.5-0.1c0.1,0,0.2,0,0.3-0.1s0.2-0.1,0.3-0.1c0.1,0,0.2,0,0.3,0
		c0.1,0,0.2,0,0.4,0c0.5,0,0.9,0,1.2,0.1c0.4,0.1,0.7,0.2,1,0.3c0.3,0.1,0.5,0.3,0.6,0.4c0.1,0.1,0.2,0.2,0.2,0.4
		c0,0.1,0,0.2-0.1,0.3s-0.1,0.1-0.2,0.1c-0.1,0.1-0.3,0.1-0.5,0.1s-0.4,0-0.5,0c-0.5,0-1,0-1.5,0s-0.9,0-1.4,0h-2.7
		c-0.9,0-1.8,0.1-2.7,0.1s-1.7,0-2.6,0c-0.4,0-0.8,0-1.2,0c-0.4,0-0.8,0-1.1,0.1c-0.2,0-0.4,0.1-0.5,0.1c-0.2,0-0.4,0-0.5,0
		c-0.2,0-0.3,0-0.5,0.1c-0.2,0-0.3,0-0.5,0c-0.2,0-0.3,0.1-0.4,0.1c-0.1,0-0.3,0-0.4,0c-0.1,0-0.3,0-0.4,0.1c-0.1,0-0.2,0-0.3,0
		c-0.2,0.1-0.5,0.1-0.6,0.1s-0.3,0-0.5,0c-0.2,0-0.3,0-0.5,0c-0.2,0-0.3-0.1-0.5-0.1c-0.2,0-0.4-0.1-0.6-0.1
		c-0.2-0.1-0.3-0.1-0.5-0.2c-0.2-0.1-0.3-0.1-0.5-0.2c-0.1-0.1-0.3-0.2-0.3-0.3c-0.1-0.1-0.2-0.1-0.3-0.2c-0.1-0.1-0.1-0.1-0.1-0.2
		c0-0.1,0-0.1,0-0.1c0,0,0.1-0.1,0.1-0.1c0.1,0,0.1,0,0.2-0.1c0.1,0,0.1,0,0.2,0c0.1,0,0.2,0,0.4,0c0.1,0,0.3,0,0.5,0
		c0.2,0,0.3,0.1,0.5,0.1c0.2,0,0.4,0,0.7,0c0.2,0,0.4,0.1,0.6,0.1c0.2,0,0.5,0,0.7,0c0.1,0,0.2,0,0.3,0s0.2,0,0.3,0H42.8z
		 M50.8,65.5c-0.7,0-1.4,0-2,0c-0.6,0-1.1,0-1.5,0.1c-0.2,0-0.5,0.1-0.7,0.1c-0.2,0-0.4,0-0.5,0c-0.2,0-0.3,0-0.5,0.1
		c-0.1,0-0.3,0-0.4,0c-0.2,0-0.3,0.1-0.4,0.1c-0.1,0-0.2,0-0.3,0c-0.1,0-0.2,0-0.3,0.1c-0.1,0-0.2,0-0.2,0C43.9,66,43.8,66,43.6,66
		c-0.2,0-0.3,0-0.4,0c-0.2,0-0.4,0-0.6,0s-0.4-0.1-0.5-0.1c-0.2-0.1-0.3-0.1-0.5-0.2c-0.1-0.1-0.3-0.1-0.3-0.2
		c-0.2-0.1-0.3-0.1-0.4-0.2c-0.1-0.1-0.2-0.2-0.2-0.2c-0.1-0.1-0.1-0.1-0.2-0.2c0-0.1,0-0.1,0-0.2c0-0.1,0-0.2,0.1-0.2
		c0.1-0.1,0.2-0.1,0.4-0.1c0.2,0,0.3,0.1,0.4,0.1s0.3,0,0.4,0c0.1,0,0.2,0.1,0.3,0.1c0.1,0,0.3,0,0.4,0c0.1,0,0.2,0.1,0.3,0.1
		c0.1,0,0.3,0,0.4,0c0.1,0,0.2,0,0.4,0c0.1,0,0.3,0,0.5,0c0.1,0,0.3,0,0.5,0s0.4,0,0.7,0h0.8c0.1,0,0.3,0,0.4,0c0.1,0,0.3,0,0.4,0
		h0.9c0.1,0,0.3,0,0.4,0c0.2,0,0.3,0,0.5,0h0.9c0.1,0,0.3,0,0.4,0c0.2,0,0.3,0,0.4,0c0.1-0.2,0.1-0.5,0.2-0.7
		c0.1-0.2,0.1-0.5,0.2-0.7c0.1-0.2,0.1-0.5,0.2-0.7c0.1-0.2,0.2-0.5,0.3-0.8c0.1-0.2,0-0.3-0.1-0.5c-0.1-0.2-0.3-0.4-0.5-0.5
		c-0.2-0.1-0.4-0.2-0.5-0.3c-0.1-0.1-0.2-0.2-0.3-0.2C50,60,50,60,49.9,59.9c0,0,0-0.1,0-0.1c0,0,0-0.1,0-0.1s0-0.1,0.1-0.1
		c0,0,0.1,0,0.2-0.1c0.1,0,0.2,0,0.3,0c0,0,0.1,0,0.1,0c0.1,0,0.1,0,0.2,0c0.1,0,0.1,0,0.2,0s0.2,0,0.3,0c0.2,0.1,0.3,0.1,0.5,0.2
		c0.2,0.1,0.3,0.1,0.5,0.2c0.2,0.1,0.3,0.2,0.5,0.3c0.2,0.1,0.3,0.2,0.5,0.3c0.1,0.1,0.2,0.2,0.3,0.3c0.1,0.1,0.1,0.2,0.1,0.3
		c0,0.1,0,0.2,0,0.2c0,0.1,0,0.1-0.1,0.2c0,0-0.1,0.1-0.1,0.1c0,0,0,0.1-0.1,0.1c0,0,0,0.1-0.1,0.1s0,0-0.1,0.1
		c-0.1,0.2-0.2,0.5-0.3,0.7C53,62.7,53,63,52.9,63.2c0,0.1-0.1,0.2-0.1,0.4c-0.1,0.1-0.1,0.2-0.2,0.3c-0.1,0.1-0.1,0.2-0.1,0.3
		c0,0.1-0.1,0.2-0.1,0.3c0.2,0,0.4-0.1,0.6-0.1c0.2-0.1,0.4-0.1,0.6-0.2c0.2-0.1,0.4-0.1,0.5-0.1c0.1,0,0.3-0.1,0.4-0.1
		c0.1,0,0.1,0,0.2,0c0.1,0,0.2,0,0.2,0s0.1,0,0.2,0c0.1,0,0.2,0,0.2,0c0.1,0,0.1,0,0.2,0.1c0.1,0,0.2,0,0.2,0.1c0.1,0,0.1,0,0.2,0.1
		s0.1,0,0.2,0c0.1,0,0.1,0.1,0.2,0.1c0.1,0,0.1,0,0.2,0.1c0.1,0,0.1,0,0.2,0.1c0.1,0,0.1,0,0.1,0.1c0.1,0.1,0.1,0.1,0.2,0.2
		c0.1,0.1,0.1,0.1,0.1,0.2c0,0.1-0.1,0.2-0.2,0.3c-0.1,0.1-0.3,0.1-0.5,0.2c-0.2,0.1-0.5,0.1-0.8,0.1c-0.3,0-0.6,0.1-0.9,0.1
		c-0.3,0-0.7,0.1-1,0.1c-0.3,0-0.7,0-1,0H50.8z M50.3,58.8c-0.4,0-0.8,0-1.1,0c-0.3,0-0.7,0-0.9,0.1c-0.3,0.1-0.6,0.1-0.8,0.1
		c-0.3,0-0.5,0.1-0.7,0.1c-0.2,0.1-0.5,0.1-0.7,0.1c-0.2,0-0.4,0.1-0.6,0.1c-0.2,0.1-0.4,0.1-0.6,0.1s-0.4,0-0.5,0
		c-0.2,0-0.3,0-0.5,0c-0.2,0-0.3-0.1-0.5-0.1c-0.2-0.1-0.4-0.1-0.5-0.2c-0.2-0.1-0.3-0.1-0.4-0.2c-0.2-0.1-0.3-0.1-0.4-0.2
		c-0.1-0.1-0.2-0.2-0.3-0.2c-0.1-0.1-0.2-0.1-0.2-0.2c-0.1-0.1-0.1-0.1-0.1-0.2c0-0.1,0-0.2,0.1-0.2c0.1-0.1,0.2-0.1,0.4-0.1
		c0.1,0,0.3,0.1,0.4,0.1c0.1,0,0.3,0,0.4,0.1c0.1,0,0.3,0,0.4,0.1s0.3,0,0.4,0c0.3,0,0.6,0.1,0.8,0.1s0.6,0,0.9,0c0.4,0,0.8,0,1.2,0
		s0.7,0,1.1,0c0.3,0,0.6,0,1,0s0.6,0,1,0c0.4,0,0.8,0,1.1-0.1c0.3,0,0.6-0.1,0.9-0.1c0.2,0,0.4-0.1,0.6-0.1c0.2,0,0.4-0.1,0.5-0.1
		l0.4-0.1c0.1,0,0.1,0,0.2-0.1c0.1,0,0.1,0,0.2-0.1c0.1,0,0.2,0,0.3-0.1s0.2,0,0.3,0c0,0,0.1,0,0.2,0s0.1,0,0.2,0c0.1,0,0.1,0,0.2,0
		s0.2,0,0.2,0c0.1,0,0.3,0.1,0.4,0.1c0.1,0,0.3,0,0.4,0.1c0.1,0,0.1,0.1,0.2,0.1c0.1,0,0.1,0,0.2,0.1c0.1,0,0.1,0,0.2,0.1
		c0.1,0,0.1,0,0.2,0.1c0.1,0.1,0.1,0.1,0.2,0.2c0,0.1,0.1,0.1,0.1,0.2c0,0.2-0.1,0.4-0.3,0.4s-0.6,0.1-1,0.1c-0.2,0-0.4,0-0.6,0
		s-0.4,0-0.6,0c-0.2,0-0.4,0-0.6,0s-0.4,0-0.6,0c-0.4,0-0.8,0.1-1.2,0.1C51,58.8,50.6,58.8,50.3,58.8z M52.8,75c0-0.3,0-0.5,0-0.7
		c0-0.2,0-0.5,0.1-0.7c0-0.2,0-0.4,0-0.7c0-0.2,0-0.5,0.1-0.8h-3c-0.2,0-0.4,0-0.6,0s-0.4,0-0.5,0c-0.1,0-0.1,0-0.2,0s-0.2,0-0.2,0
		H48c-0.1,0-0.2,0-0.2,0c-0.1,0-0.2,0-0.3,0c-0.1,0-0.2,0-0.3,0c-0.1,0-0.2,0-0.3,0c-0.1,0-0.1,0-0.2,0c-0.1,0-0.2,0-0.2,0
		c-0.1,0-0.1,0-0.2,0c-0.1,0-0.1,0-0.2,0c-0.1,0-0.3,0.1-0.3,0.1c-0.1,0-0.2,0-0.2,0c-0.1,0-0.1,0-0.1,0c0,0-0.1,0-0.1,0H45
		c-0.1,0-0.2,0-0.2,0c-0.1,0-0.1,0-0.2,0c-0.2,0-0.4,0-0.6,0c-0.2,0-0.4-0.1-0.5-0.1c-0.2,0-0.3-0.1-0.5-0.1
		c-0.1-0.1-0.3-0.1-0.4-0.2c-0.1-0.1-0.3-0.1-0.3-0.2c-0.1-0.1-0.2-0.1-0.2-0.2c-0.1-0.1-0.1-0.1-0.2-0.1c0,0,0-0.1,0-0.1
		c0-0.1,0-0.2,0.1-0.2c0.1-0.1,0.2-0.1,0.4-0.1c0.4,0.1,0.7,0.1,1.1,0.1c0.4,0,0.7,0.1,1.1,0.1c0.3,0,0.7,0.1,1,0.1c0.3,0,0.7,0,1,0
		c0.5,0,0.9,0,1.5,0s1.1,0,1.7-0.1c0.6,0,1.2-0.1,1.9-0.1c0.7-0.1,1.4-0.2,2.2-0.3l0.3-0.1c0.2,0,0.3,0,0.4,0s0.3,0.1,0.4,0.1
		c0.1,0.1,0.2,0.2,0.2,0.2c0,0.1,0.1,0.2,0.1,0.3c0,0.1,0,0.2,0,0.2c0,0.1-0.1,0.2-0.1,0.3c-0.1,0.2-0.2,0.4-0.2,0.7
		c-0.1,0.2-0.1,0.5-0.1,0.7c0,0.1-0.1,0.3-0.1,0.4c0,0.1,0,0.3-0.1,0.4c0,0.1,0,0.3-0.1,0.4c0,0.1,0,0.2-0.1,0.4c0.2,0,0.3,0,0.4,0
		s0.2,0.1,0.4,0.1c0.1,0.1,0.1,0.1,0.1,0.2c0,0.1,0.1,0.1,0.1,0.2c0,0,0,0.1,0,0.1c0,0,0,0,0,0.1c0,0,0,0-0.1,0.1
		c0,0.1-0.1,0.1-0.1,0.1c-0.1,0-0.1,0-0.2,0c-0.1,0-0.2,0.1-0.3,0.1c-0.1,0-0.3,0-0.4,0c-0.2,0-0.4,0-0.6,0c-0.2,0-0.5,0-0.8,0h-7.4
		v2.4c0,0.2,0,0.4,0.1,0.5c0.1,0.1,0.2,0.2,0.4,0.2h4.6c0.2,0,0.4,0,0.6,0s0.4,0,0.6-0.1c0.1,0,0.1,0,0.2-0.1c0.1,0,0.2,0,0.2-0.1
		c0.1,0,0.1,0,0.2-0.1c0.1,0,0.1,0,0.2-0.1c0.1-0.1,0.2-0.1,0.3-0.1c0.1,0,0.2-0.1,0.3-0.1c0.1,0,0.2-0.1,0.3-0.1s0.2,0,0.3,0
		c0.1,0,0.3,0,0.4,0c0.1,0,0.3,0,0.5,0.1c0.1,0,0.2,0,0.4,0.1c0.1,0,0.3,0.1,0.4,0.1c0.1,0.1,0.2,0.1,0.3,0.2
		c0.1,0.1,0.2,0.1,0.3,0.2c0.1,0.1,0.1,0.1,0.1,0.2c0,0.1,0.1,0.2,0.1,0.2c0,0.1,0,0.2-0.1,0.2c0,0.1-0.1,0.1-0.2,0.2
		c-0.1,0.1-0.3,0.1-0.5,0.1s-0.5,0-0.8,0.1h-9.6c-0.2,0-0.4,0-0.6-0.1c-0.2-0.1-0.4-0.2-0.5-0.3c-0.2-0.2-0.3-0.3-0.4-0.5
		c-0.1-0.2-0.1-0.4-0.1-0.6V77c0-0.1,0-0.3,0-0.4c0-0.1,0-0.2-0.1-0.4c0-0.1-0.1-0.2-0.2-0.3c-0.1-0.1-0.2-0.2-0.3-0.2
		c-0.4-0.2-0.7-0.3-0.8-0.5c-0.2-0.1-0.3-0.3-0.3-0.4c0,0,0,0,0-0.1s0.1-0.1,0.1-0.1c0.1,0,0.1,0,0.2-0.1c0.1,0,0.2,0,0.4,0
		c0,0,0.1,0,0.1,0c0,0,0.1,0,0.2,0c0.1,0,0.1,0,0.2,0c0.1,0,0.1,0,0.2,0c0.1,0,0.1,0,0.2,0.1c0.1,0,0.1,0,0.2,0c0.1,0,0.1,0,0.2,0
		c0.1,0,0.1,0,0.2,0c0.1,0,0.2,0.1,0.4,0.1c0.1,0,0.3,0,0.4,0.1c0.1,0.1,0.2,0.1,0.3,0.1s0.2,0.1,0.3,0.1h1.8c0.3,0,0.6,0,1,0
		c0.3,0,0.7,0,1,0c0.6,0,1.3,0,1.9,0C51.6,75,52.2,75,52.8,75z M44.3,59.9c0.1,0,0.3,0,0.4,0.1c0.2,0.1,0.3,0.1,0.5,0.2
		c0.2,0.1,0.3,0.3,0.5,0.4c0.2,0.1,0.3,0.3,0.5,0.4c0.1,0.2,0.3,0.4,0.4,0.6c0.1,0.2,0.2,0.4,0.3,0.5c0.1,0.2,0.2,0.4,0.2,0.6
		c0.1,0.2,0.1,0.4,0.1,0.5c0,0.2-0.1,0.4-0.1,0.5C47.1,63.9,47,64,46.9,64c-0.1,0.1-0.2,0.1-0.3,0.2c-0.1,0-0.3,0.1-0.4,0.1
		c-0.1,0-0.3,0-0.4-0.1c-0.1,0-0.2-0.1-0.3-0.2c-0.1-0.1-0.2-0.2-0.3-0.3c-0.1-0.1-0.1-0.3-0.1-0.5c0-0.2,0-0.4-0.1-0.6
		c0-0.2,0-0.4-0.1-0.6c0-0.2-0.1-0.4-0.2-0.6s-0.2-0.4-0.3-0.7c0,0-0.1-0.1-0.1-0.1c0,0,0-0.1-0.1-0.1c0,0-0.1-0.1-0.1-0.1
		s0-0.1,0-0.1c-0.1-0.1-0.1-0.1-0.1-0.1s0-0.1,0-0.1c0-0.1,0-0.1,0.1-0.1C44.2,59.9,44.2,59.9,44.3,59.9z"/>
	<path class="st1" d="M70.3,74.9c1.2,0,2.3,0,3.2-0.1c0.9,0,1.6,0,2.2,0c0.6,0,1,0,1.2-0.1c0.2,0,0.5-0.1,0.7-0.1
		c0.2,0,0.4-0.1,0.6-0.1c0.2,0,0.3,0,0.5-0.1c0.1,0,0.3-0.1,0.5-0.1c0.1,0,0.2,0,0.3-0.1c0.1,0,0.2-0.1,0.3-0.1c0.1,0,0.2,0,0.3,0
		c0.1,0,0.2,0,0.4,0c0.5,0,0.9,0,1.2,0.1c0.4,0.1,0.7,0.2,1,0.3c0.3,0.1,0.5,0.3,0.6,0.4c0.1,0.1,0.2,0.2,0.2,0.4
		c0,0.1,0,0.2-0.1,0.3c-0.1,0.1-0.1,0.1-0.2,0.2c-0.1,0.1-0.3,0.1-0.5,0.1c-0.2,0-0.4,0-0.5,0c-0.5,0-1,0-1.5,0c-0.5,0-0.9,0-1.4,0
		c-0.5,0-0.9,0-1.4,0c-0.5,0-0.9,0-1.3,0c-0.9,0-1.8,0-2.7,0s-1.7,0-2.6,0c-0.4,0-0.8,0-1.2,0c-0.4,0-0.8,0-1.1,0.1
		c-0.2,0-0.4,0.1-0.5,0.1S68,76,67.8,76c-0.2,0-0.3,0-0.5,0.1c-0.2,0-0.3,0-0.5,0c-0.2,0-0.3,0.1-0.4,0.1c-0.1,0-0.3,0-0.4,0
		c-0.1,0-0.3,0-0.4,0.1c-0.1,0-0.2,0-0.3,0c-0.2,0.1-0.5,0.1-0.6,0.1c-0.2,0-0.3,0-0.5,0c-0.2,0-0.3,0-0.5,0c-0.2,0-0.3-0.1-0.5-0.1
		c-0.2,0-0.4-0.1-0.6-0.1c-0.2-0.1-0.4-0.1-0.5-0.2c-0.2-0.1-0.3-0.1-0.5-0.2c-0.1-0.1-0.3-0.2-0.3-0.3c-0.1-0.1-0.2-0.1-0.3-0.2
		c-0.1-0.1-0.1-0.2-0.1-0.3c0-0.1,0-0.1,0-0.1c0,0,0.1-0.1,0.1-0.1c0.1,0,0.1,0,0.2-0.1c0.1,0,0.1,0,0.2,0c0.1,0,0.2,0.1,0.3,0.1
		s0.3,0,0.5,0c0.2,0,0.3,0,0.5,0c0.2,0,0.4,0,0.6,0c0.2,0,0.4,0.1,0.7,0.1c0.2,0,0.5,0,0.7,0c0.1,0,0.2,0,0.4,0s0.2,0,0.3,0
		c0.1,0,0.2,0,0.3,0s0.2,0,0.3,0C67.6,74.9,69,74.9,70.3,74.9z M73.1,62.1c0,0.1-0.1,0.1-0.1,0.2c0,0.1-0.1,0.1-0.1,0.1
		c0,0-0.1,0.1-0.1,0.1c0,0.1-0.1,0.1-0.1,0.1c0,0-0.1,0.1-0.1,0.1c0.2,0.2,0.4,0.3,0.7,0.5c0.3,0.2,0.5,0.3,0.8,0.5
		c0.3,0.2,0.5,0.4,0.8,0.5c0.3,0.2,0.5,0.3,0.8,0.4c0.2,0.1,0.5,0.3,0.7,0.4c0.2,0.1,0.4,0.2,0.7,0.3c0.2,0.1,0.4,0.2,0.5,0.3
		c0.2,0.1,0.3,0.1,0.5,0.1c0.3,0.1,0.6,0.2,0.8,0.3c0.3,0.1,0.5,0.2,0.7,0.3c0.2,0.1,0.4,0.2,0.6,0.4c0.2,0.1,0.3,0.3,0.4,0.4
		c0.1,0.2,0.3,0.3,0.4,0.4c0.1,0.1,0.2,0.3,0.2,0.4c0.1,0.2,0.1,0.3,0.1,0.4c0,0.1,0,0.2,0,0.3c0,0.1-0.1,0.2-0.1,0.3
		C81.2,69,81.1,69,81,69.1c-0.1,0-0.3,0-0.4,0c-0.2,0-0.3-0.1-0.5-0.2c-0.2-0.1-0.4-0.1-0.6-0.3c-0.2-0.1-0.5-0.3-0.7-0.4
		c-0.3-0.2-0.6-0.3-1-0.5c-0.3-0.2-0.7-0.4-1.1-0.7c-0.4-0.2-0.8-0.4-1.2-0.7c-0.4-0.3-0.8-0.5-1.2-0.8c-0.4-0.3-0.9-0.5-1.3-0.8
		c-0.4-0.3-0.8-0.6-1.3-0.9c-0.3,0.4-0.7,0.8-1.1,1.2s-0.8,0.7-1.1,1c-0.4,0.3-0.9,0.7-1.3,1c-0.4,0.3-0.8,0.6-1.2,0.8
		c-0.4,0.3-0.9,0.5-1.3,0.7c-0.4,0.2-0.8,0.4-1.2,0.6c-0.4,0.2-0.8,0.4-1.2,0.5c-0.4,0.1-0.7,0.2-1,0.3c-0.1,0-0.2,0-0.2,0
		c0,0-0.1,0-0.1-0.1c-0.1,0-0.1,0-0.1-0.1c0,0,0-0.1,0-0.1c0,0,0-0.1,0.1-0.1c0.1-0.1,0.1-0.1,0.2-0.2c0.1,0,0.1,0,0.2-0.1
		c0.1,0,0.1-0.1,0.2-0.1c0.1,0,0.1-0.1,0.2-0.1c0.1,0,0.1-0.1,0.2-0.1c0.6-0.3,1.1-0.6,1.7-1c0.5-0.3,1.1-0.7,1.5-1.1
		c0.5-0.4,0.9-0.7,1.4-1.1s0.8-0.8,1.2-1.2c0.3-0.4,0.7-0.7,1-1.1s0.6-0.8,0.8-1.1c0.2-0.4,0.4-0.7,0.5-1c0.1-0.3,0.3-0.7,0.3-1
		c0-0.1,0-0.1,0-0.2c0-0.1,0-0.1,0-0.2c-0.1-0.1-0.1-0.1-0.2-0.2c-0.1-0.1-0.2-0.2-0.3-0.3c-0.1-0.1-0.1-0.1-0.2-0.1
		c-0.1,0-0.1-0.1-0.2-0.1c-0.1-0.1-0.1-0.1-0.2-0.1c-0.1,0-0.1-0.1-0.1-0.1c-0.1-0.1-0.1-0.1-0.2-0.2c0-0.1,0-0.1,0-0.2
		c0,0,0,0,0-0.1s0.1-0.1,0.2-0.1c0.1,0,0.1,0,0.2,0c0.1,0,0.1,0,0.2,0c0,0,0.1,0,0.1,0c0,0,0.1,0,0.1,0s0.1,0,0.1,0s0.1,0,0.1,0
		c0,0,0.1,0.1,0.1,0.1c0.1,0,0.1,0,0.1,0c0.1,0,0.2,0.1,0.4,0.1c0.1,0,0.3,0.1,0.4,0.1c0.1,0,0.1,0.1,0.2,0.1s0.2,0.1,0.2,0.1
		c0.1,0,0.1,0.1,0.2,0.1c0.1,0,0.2,0.1,0.2,0.1c0,0.1,0.1,0.1,0.2,0.2c0.1,0.1,0.1,0.1,0.2,0.2c0.1,0.1,0.1,0.1,0.2,0.1
		c0.1,0,0.1,0.1,0.2,0.1c0.1,0.1,0.2,0.2,0.2,0.4c0.1,0.1,0.1,0.2,0.1,0.3c0,0.2,0,0.4,0,0.5c0,0.1-0.1,0.2-0.1,0.4
		c-0.1,0.1-0.2,0.2-0.3,0.4c-0.1,0.2-0.3,0.3-0.5,0.5C73.2,62,73.1,62,73.1,62.1z"/>
	<path class="st1" d="M99.7,73.8c0,0.3,0,0.6,0,0.9s0,0.6-0.1,0.9c-0.1,0.3-0.1,0.7-0.1,1c0,0.3-0.1,0.6-0.1,0.8
		c-0.1,0.3-0.1,0.5-0.2,0.8c-0.1,0.2-0.2,0.4-0.2,0.6c-0.1,0.2-0.2,0.3-0.2,0.4s-0.2,0.1-0.2,0.1c-0.1,0-0.1,0-0.2-0.1
		c-0.1,0-0.1-0.1-0.1-0.2c-0.1-0.1-0.1-0.2-0.1-0.3c0-0.1-0.1-0.2-0.1-0.4c0-0.1-0.1-0.2-0.1-0.4c0-0.1,0-0.3,0-0.4
		c0-0.1-0.1-0.3-0.1-0.4s0-0.3,0-0.4v-9c-0.1,0-0.2,0.1-0.3,0.1c-0.1,0-0.2,0-0.3,0.1s-0.2,0-0.2,0.1c-0.1,0-0.2,0-0.2,0
		c-0.2,0.1-0.4,0.1-0.5,0.1c-0.2,0-0.3,0-0.4,0c-0.2,0-0.3,0-0.4,0c-0.1,0-0.2-0.1-0.3-0.1c-0.1,0-0.2-0.1-0.4-0.1
		c-0.1-0.1-0.2-0.1-0.2-0.2c-0.1-0.1-0.2-0.1-0.3-0.2c-0.1-0.1-0.1-0.1-0.2-0.2c-0.1-0.1-0.1-0.1-0.2-0.1c0,0-0.1-0.1-0.1-0.1
		c-0.1,0-0.1,0.1-0.2,0.1s-0.1,0-0.2,0c-0.1,0-0.2,0.1-0.3,0.1s-0.3,0-0.4,0H89v4.2c0,0.2,0,0.4,0,0.5c0,0.1,0.1,0.2,0.2,0.3
		c0.1,0.1,0.2,0.1,0.3,0.1s0.3,0,0.5,0c0.1,0,0.2,0,0.4,0s0.4,0,0.6-0.1c0.2,0,0.4,0,0.7-0.1c0.2,0,0.5-0.1,0.8-0.1
		c0.2,0,0.5-0.1,0.8-0.1c0.3-0.1,0.5-0.1,0.8-0.2c0.3-0.1,0.5-0.1,0.8-0.2c0.3-0.1,0.5-0.2,0.8-0.3c0,0,0,0,0.1,0c0,0,0.1,0,0.2-0.1
		H96c0,0,0,0,0.1,0s0.1,0,0.1,0c0.1,0,0.1,0,0.1,0c0,0,0.1,0,0.1,0c0,0,0,0.1,0.1,0.1c0,0,0,0.1,0,0.1c0,0.1,0,0.1,0,0.2
		c0,0.1,0,0.1-0.1,0.2c-0.1,0.1-0.1,0.1-0.2,0.2c-0.1,0.1-0.1,0.1-0.2,0.1c-0.3,0.2-0.6,0.3-0.9,0.4c-0.3,0.1-0.6,0.2-0.9,0.4
		c-0.3,0.1-0.6,0.2-1,0.3s-0.6,0.2-0.9,0.2c-0.3,0.1-0.6,0.2-0.9,0.2c-0.3,0.1-0.5,0.1-0.8,0.1c-0.3,0.1-0.5,0.1-0.7,0.1
		c-0.2,0-0.4,0-0.6,0c-0.4,0-0.7,0-1-0.1c-0.3-0.1-0.5-0.2-0.7-0.3c-0.2-0.1-0.4-0.3-0.5-0.6c-0.1-0.3-0.1-0.6-0.1-1v-8.6
		c0-0.3-0.1-0.5-0.2-0.8s-0.4-0.4-0.6-0.6c-0.1-0.1-0.2-0.1-0.3-0.2c-0.1-0.1-0.2-0.1-0.2-0.2c-0.1,0-0.2-0.1-0.2-0.1
		c-0.1,0-0.1-0.1-0.1-0.1c0,0-0.1,0-0.1-0.1c0,0,0-0.1,0-0.1v-0.1c0,0,0-0.1,0-0.1c0,0,0.1-0.1,0.1-0.1c0.1,0,0.1,0,0.2-0.1
		c0.1,0,0.3,0,0.4,0c0.2,0,0.3,0,0.6,0.1c0.2,0,0.5,0.1,0.7,0.1c0.2,0.1,0.5,0.1,0.7,0.2c0.2,0.1,0.4,0.1,0.6,0.2h0.9
		c0.2,0,0.4,0,0.6,0c0.2,0,0.4,0,0.6-0.1c0.2,0,0.3,0,0.5-0.1c0.2,0,0.3-0.1,0.5-0.1c0.1,0,0.3-0.1,0.4-0.1c0.1,0,0.3-0.1,0.4-0.1
		c0.1,0,0.2,0,0.3-0.1s0.2,0,0.3,0c0.1,0,0.3,0,0.4,0c0.2,0,0.3,0,0.5,0l0.4,0.1c0.1,0,0.1,0,0.2,0.1c0.1,0,0.1,0,0.2,0
		c0.1,0.1,0.2,0.1,0.3,0.2c0.1,0.1,0.2,0.1,0.3,0.2c0.1,0.1,0.1,0.2,0.2,0.2c0,0.1,0.1,0.1,0.1,0.2c0,0.1,0,0.2-0.1,0.2
		c0,0.1-0.1,0.1-0.2,0.1c-0.1,0.1-0.3,0.1-0.5,0.1c-0.2,0-0.4,0.1-0.7,0.1h-5v4.2c0.2,0,0.3,0,0.5,0c0.2,0,0.3,0,0.5-0.1
		c0.1,0,0.3,0,0.4-0.1c0.1,0,0.3-0.1,0.4-0.1c0.1,0,0.2,0,0.3-0.1s0.2-0.1,0.3-0.1c0.1,0,0.1,0,0.2-0.1s0.1,0,0.2,0
		c0.3,0,0.7,0,0.9,0.1c0.3,0.1,0.5,0.1,0.8,0.2c0.2,0.1,0.3,0.2,0.4,0.3c0.1,0.1,0.2,0.2,0.2,0.3v0.1c0,0,0,0,0.1,0s0,0,0.1,0
		c0,0,0,0,0.1,0c0,0,0,0,0.1,0c0.2,0,0.4,0,0.6,0.1c0.2,0,0.4,0,0.5,0.1c0.1,0,0.3,0.1,0.5,0.1c0.2,0,0.4,0,0.6,0h0.6
		c0.1,0,0.2,0,0.4,0c0.1,0,0.3,0,0.4-0.1v-7.2c0-0.1,0-0.1-0.1-0.2c0-0.1-0.1-0.1-0.1-0.2c-0.1-0.2-0.3-0.3-0.4-0.4
		s-0.3-0.2-0.4-0.3c-0.1,0-0.1-0.1-0.2-0.1c-0.1,0-0.1-0.1-0.1-0.1c-0.1,0-0.1-0.1-0.2-0.1c0,0-0.1-0.1-0.1-0.1
		c-0.1,0-0.2-0.1-0.3-0.1c-0.1,0-0.1-0.1-0.2-0.1c-0.1,0-0.1,0-0.1-0.1c0,0,0-0.1,0-0.1c0,0,0-0.1,0-0.1s0.1-0.1,0.1-0.1
		c0.1,0,0.1,0,0.2-0.1c0.1,0,0.1,0,0.2,0c0.1,0,0.1,0,0.2,0c0.1,0,0.2,0,0.2,0c0.1,0,0.2,0,0.3,0c0.1,0,0.2,0,0.3,0
		c0.2,0.1,0.4,0.1,0.6,0.2c0.2,0.1,0.4,0.1,0.7,0.2c0.2,0.1,0.4,0.2,0.5,0.2c0.2,0.1,0.3,0.2,0.5,0.2c0.1,0.1,0.2,0.2,0.3,0.3
		c0.1,0.1,0.1,0.2,0.1,0.4c0,0.1,0,0.3,0,0.4s0,0.2-0.1,0.3c0,0.1-0.1,0.2-0.1,0.3s0,0.2,0,0.3V73.8z M104.1,75.1c0,0.3,0,0.6,0,1
		c0,0.3,0,0.7-0.1,1c0,0.2-0.1,0.3-0.1,0.5c0,0.2,0,0.3-0.1,0.5c0,0.2,0,0.3-0.1,0.4s0,0.3-0.1,0.4c-0.1,0.3-0.1,0.5-0.2,0.8
		c-0.1,0.2-0.1,0.4-0.2,0.6c-0.1,0.2-0.2,0.3-0.3,0.4c-0.1,0.1-0.2,0.1-0.2,0.1c-0.1,0-0.1,0-0.2-0.1c-0.1,0-0.1-0.1-0.1-0.2
		c-0.1-0.1-0.1-0.2-0.1-0.3c0-0.1,0-0.2-0.1-0.3c-0.1-0.1-0.1-0.2-0.1-0.4c0-0.1,0-0.3,0-0.4c0-0.2-0.1-0.3-0.1-0.4
		c0-0.1,0-0.3,0-0.4V58.7c0-0.1,0-0.1-0.1-0.2c0-0.1-0.1-0.1-0.1-0.2c-0.2-0.2-0.3-0.3-0.4-0.4c-0.1-0.1-0.3-0.2-0.4-0.4
		c-0.1-0.1-0.3-0.1-0.4-0.2s-0.2-0.1-0.3-0.2c-0.1,0-0.2-0.1-0.2-0.1c-0.1,0-0.1-0.1-0.2-0.1c-0.1,0-0.1,0-0.1-0.1c0,0,0-0.1,0-0.1
		c0-0.1,0-0.1,0.1-0.2c0,0,0.1-0.1,0.1-0.1c0.1,0,0.2,0,0.3,0c0.1,0,0.1,0,0.2,0c0.1,0,0.1,0,0.2,0c0.1,0,0.2,0,0.3,0s0.2,0,0.3,0
		c0.2,0.1,0.4,0.1,0.6,0.2c0.2,0.1,0.4,0.1,0.7,0.2c0.2,0.1,0.4,0.2,0.6,0.2c0.2,0.1,0.4,0.2,0.5,0.2c0.1,0.1,0.2,0.2,0.3,0.3
		c0.1,0.1,0.1,0.2,0.1,0.4c0,0.1,0,0.3,0,0.4s0,0.2-0.1,0.3c0,0.1-0.1,0.2-0.1,0.3s0,0.2,0,0.3V75.1z"/>
	<path class="st1" d="M114.1,60.1c0.1,0,0.2,0,0.3,0c0.1,0,0.2,0,0.3,0.1c0.1,0,0.3,0,0.4,0.1c0.1,0.1,0.2,0.1,0.3,0.2
		c0.1,0.1,0.2,0.1,0.3,0.2c0.1,0.1,0.1,0.2,0.2,0.3c0.1,0.1,0.1,0.2,0.1,0.3c0,0.1,0,0.2,0,0.3s-0.1,0.1-0.1,0.2
		c0.3,0.1,0.6,0.2,1,0.3c0.3,0.1,0.6,0.2,0.9,0.4c0.3,0.2,0.5,0.4,0.8,0.6s0.5,0.4,0.7,0.6c0.2,0.2,0.4,0.5,0.5,0.7
		c0.2,0.3,0.3,0.5,0.4,0.8c0.1,0.3,0.2,0.6,0.2,0.8c0.1,0.3,0.1,0.5,0.1,0.8c0,0.3,0,0.7-0.1,1c-0.1,0.3-0.2,0.6-0.3,0.9
		c-0.2,0.3-0.3,0.6-0.5,0.9c-0.2,0.3-0.4,0.6-0.7,0.8c-0.3,0.2-0.5,0.5-0.8,0.7s-0.6,0.3-1,0.5c-0.3,0.2-0.7,0.3-1.1,0.3
		s-0.8,0.1-1.2,0.1c-0.4,0-0.8,0-1.2-0.1c-0.4-0.1-0.7-0.2-1.1-0.3c-0.4-0.1-0.7-0.3-1-0.5c-0.3-0.2-0.6-0.4-0.8-0.7
		c-0.3-0.2-0.5-0.5-0.7-0.8c-0.2-0.3-0.4-0.6-0.5-0.9c-0.1-0.3-0.2-0.6-0.3-0.9s-0.1-0.6-0.1-1c0-0.3,0-0.5,0.1-0.8
		c0.1-0.3,0.1-0.5,0.3-0.8c0.1-0.3,0.2-0.5,0.4-0.7c0.2-0.2,0.3-0.5,0.5-0.7c0.2-0.2,0.4-0.4,0.6-0.6c0.2-0.2,0.5-0.4,0.8-0.6
		c0.3-0.2,0.5-0.3,0.8-0.4c0.3-0.1,0.6-0.2,1-0.3c0,0,0.1,0,0.1,0c0.1,0,0.1,0,0.2-0.1c0.1,0,0.1-0.1,0.2-0.1c0-0.1,0.1-0.1,0.1-0.2
		c0,0,0-0.1,0-0.1c0,0,0-0.1,0-0.1c-0.1,0-0.1,0-0.1-0.1c0,0-0.1-0.1-0.1-0.1c-0.1,0-0.1,0-0.1-0.1c0,0-0.1-0.1-0.1-0.1
		c0,0-0.1,0-0.1-0.1c0,0,0-0.1,0-0.1c0,0,0-0.1,0-0.1c0,0,0-0.1,0.1-0.1c0.1,0,0.1,0,0.1-0.1c0,0,0.1,0,0.1,0c0,0,0.1,0,0.2,0
		C113.9,60.1,114,60.1,114.1,60.1z M118.2,65.9c-0.1-0.3-0.1-0.5-0.2-0.8c-0.1-0.2-0.3-0.4-0.4-0.6s-0.3-0.4-0.4-0.6
		c-0.2-0.2-0.4-0.3-0.5-0.5c-0.2-0.1-0.4-0.3-0.6-0.4c-0.2-0.1-0.5-0.2-0.7-0.2c-0.2-0.1-0.4-0.1-0.7-0.1c-0.2,0-0.5,0-0.7,0.1
		c-0.2,0.1-0.4,0.1-0.6,0.2c-0.2,0.1-0.4,0.2-0.6,0.4c-0.2,0.1-0.4,0.3-0.5,0.5c-0.2,0.2-0.4,0.4-0.5,0.6c-0.1,0.2-0.2,0.4-0.4,0.6
		c-0.1,0.2-0.2,0.5-0.2,0.8c-0.1,0.3-0.1,0.5-0.1,0.8c0,0.3,0,0.5,0.1,0.8c0,0.3,0.1,0.5,0.2,0.7c0.1,0.3,0.1,0.5,0.3,0.7
		c0.1,0.2,0.3,0.4,0.5,0.6c0.2,0.2,0.3,0.4,0.5,0.5c0.2,0.1,0.4,0.3,0.6,0.4c0.2,0.1,0.4,0.2,0.7,0.3c0.3,0.1,0.5,0.1,0.8,0.1
		c0.2,0,0.5,0,0.7-0.1c0.2,0,0.5-0.1,0.7-0.2c0.2-0.1,0.4-0.2,0.6-0.3c0.2-0.1,0.4-0.3,0.5-0.5c0.2-0.2,0.3-0.3,0.4-0.5
		c0.1-0.2,0.3-0.4,0.4-0.7c0.1-0.2,0.2-0.5,0.2-0.8c0.1-0.3,0.1-0.6,0.1-0.9C118.3,66.4,118.3,66.2,118.2,65.9z M126.9,75.1
		c0,0.3,0,0.6,0,1c0,0.3,0,0.7-0.1,1c-0.1,0.3-0.1,0.7-0.2,1c-0.1,0.3-0.1,0.6-0.2,0.9c-0.1,0.3-0.1,0.5-0.2,0.7
		c-0.1,0.2-0.1,0.4-0.2,0.6c-0.1,0.2-0.2,0.3-0.3,0.4c-0.1,0.1-0.2,0.1-0.2,0.1s-0.1,0-0.2-0.1c-0.1,0-0.1-0.1-0.1-0.1
		c0-0.1-0.1-0.1-0.1-0.2s-0.1-0.2-0.1-0.3c-0.1-0.1-0.1-0.2-0.1-0.4c0-0.1,0-0.3,0-0.4c0-0.1-0.1-0.3-0.1-0.4c0-0.1,0-0.3,0-0.4
		V59.2c0,0,0-0.1,0-0.1c0,0,0-0.1,0-0.1s0-0.1,0-0.1s0-0.1,0-0.1c0-0.1,0-0.1-0.1-0.2c0-0.1-0.1-0.1-0.1-0.2
		c-0.1-0.1-0.2-0.1-0.3-0.2c-0.1-0.1-0.1-0.1-0.2-0.2c-0.1-0.1-0.2-0.1-0.2-0.2c-0.1-0.1-0.1-0.1-0.2-0.2c-0.1-0.1-0.2-0.1-0.4-0.2
		s-0.2-0.1-0.3-0.2c-0.1,0-0.2-0.1-0.2-0.1c-0.1,0-0.1-0.1-0.1-0.1c-0.1,0-0.1-0.1-0.1-0.1c0-0.1,0-0.1,0-0.2c0,0,0,0,0-0.1
		c0,0,0-0.1,0.1-0.1c0,0,0.1,0,0.1-0.1c0.1,0,0.2,0,0.3,0c0.1,0,0.1,0,0.2,0c0.1,0,0.1,0,0.2,0c0.1,0,0.2,0,0.3,0s0.2,0,0.3,0
		c0.2,0.1,0.4,0.1,0.6,0.2c0.2,0.1,0.4,0.1,0.7,0.2c0.2,0.1,0.4,0.2,0.6,0.2c0.2,0.1,0.4,0.2,0.6,0.2c0.1,0.1,0.3,0.2,0.4,0.3
		s0.1,0.2,0.1,0.4c0,0.1,0,0.3,0,0.4s0,0.2,0,0.3c0,0.1-0.1,0.2-0.1,0.3c0,0.1,0,0.2,0,0.3V75.1z"/>
</g>
<g>
	<circle class="st5" cx="25.5" cy="26.1" r="11.3"/>
	<line class="st5" x1="25.1" y1="14.8" x2="25.1" y2="26.4"/>
	<line class="st5" x1="21.6" y1="15.3" x2="21.6" y2="26.3"/>
	<line class="st5" x1="18.3" y1="17" x2="18.3" y2="26.4"/>
	<line class="st5" x1="14.1" y1="26.8" x2="25.8" y2="26.8"/>
	<line class="st5" x1="14.6" y1="30" x2="25.6" y2="30"/>
	<line class="st5" x1="16.4" y1="33.2" x2="25.8" y2="33.2"/>
	<line class="st5" x1="26.1" y1="37.5" x2="26.1" y2="25.8"/>
	<line class="st5" x1="29.3" y1="37" x2="29.3" y2="26"/>
	<line class="st5" x1="32.6" y1="35.2" x2="32.6" y2="25.8"/>
	<line class="st5" x1="36.8" y1="25.5" x2="25.1" y2="25.5"/>
	<line class="st5" x1="36.3" y1="22.2" x2="25.3" y2="22.2"/>
	<line class="st5" x1="34.5" y1="19" x2="25.1" y2="19"/>
</g>
</svg>
