<?xml version="1.0" encoding="utf-8"?>
<!-- Generator: Adobe Illustrator 21.0.0, SVG Export Plug-In . SVG Version: 6.00 Build 0)  -->
<svg version="1.1" id="레이어_1" xmlns="http://www.w3.org/2000/svg" xmlns:xlink="http://www.w3.org/1999/xlink" x="0px"
	 y="0px" viewBox="0 0 176 95" style="enable-background:new 0 0 176 95;" xml:space="preserve">
<g>
	<path d="M137.3,15.7l-0.3,3.3c0,0.3-0.2,0.4-0.5,0.4c-1.5-0.1-3.8-0.1-6.8,0c-0.3,0-0.4-0.1-0.4-0.5c0-0.5,0.7-1.5,2.1-2.9
		c1.4-1.5,2.2-2.3,2.5-2.5c0.5-0.4,0.9-1,1.3-1.6c0.4-0.6,0.6-1.4,0.6-2.4c0-0.7-0.2-1.2-0.7-1.7c-0.5-0.5-1.1-0.8-2-0.8
		c-0.7,0-1.2,0.2-1.6,0.6C131,8,130.8,8.5,130.8,9c0,0.2,0,0.3,0,0.3c0,0,0.1,0.1,0.1,0.1c0.1,0,0.3,0.1,0.5,0.3
		c0.2,0.2,0.3,0.4,0.3,0.7c0,0.3-0.1,0.6-0.3,0.7c-0.2,0.2-0.4,0.2-0.7,0.2c-0.4,0-0.7-0.2-0.9-0.6c-0.2-0.4-0.3-0.7-0.3-1.1
		c0-0.8,0.3-1.6,1-2.4c0.6-0.8,1.6-1.2,2.9-1.2c1.1,0,2,0.4,2.7,1.1s1.1,1.6,1.1,2.6c0,0.7-0.2,1.5-0.7,2.3c-0.5,0.8-1,1.4-1.5,1.8
		c-0.5,0.4-1.2,1.1-2.3,2.3c-1.1,1.1-1.7,1.9-1.9,2.2h4.4c0.5,0,0.8-0.2,1-0.7l0.4-1.9c0.1-0.3,0.2-0.5,0.5-0.5
		C137.2,15.2,137.3,15.4,137.3,15.7z"/>
	<path d="M148.5,12.9c0,1.8-0.4,3.4-1.1,4.8c-0.7,1.4-1.8,2.1-3.1,2.1c-1.3,0-2.4-0.7-3.1-2.1c-0.7-1.4-1.1-3-1.1-4.8
		c0-1.8,0.4-3.4,1.1-4.8c0.7-1.4,1.8-2.1,3.1-2.1c1.3,0,2.4,0.7,3.1,2.1C148.1,9.5,148.5,11.1,148.5,12.9z M147.2,12.9
		c0-1.6-0.3-2.9-0.8-4.1c-0.5-1.2-1.2-1.8-2.2-1.8c-0.9,0-1.7,0.6-2.2,1.8c-0.5,1.2-0.8,2.6-0.8,4.1c0,1.6,0.3,2.9,0.8,4.1
		c0.5,1.2,1.2,1.8,2.2,1.8c0.9,0,1.7-0.6,2.2-1.8C146.9,15.8,147.2,14.4,147.2,12.9z"/>
	<path d="M153.6,9.4c0-0.5-0.2-0.7-0.5-0.7h-1.6c-0.3,0-0.5-0.1-0.5-0.4s0.2-0.4,0.5-0.4c0.9,0,1.6-0.2,2-0.5
		c0.4-0.4,0.6-0.7,0.6-1.1c0-0.2,0.1-0.3,0.4-0.3c0.3,0,0.4,0.1,0.4,0.4v11.6c0,0.4,0.2,0.6,0.6,0.6h1.6c0.3,0,0.5,0.1,0.5,0.4
		c0,0.3-0.2,0.4-0.5,0.4h-5.6c-0.3,0-0.5-0.1-0.5-0.4c0-0.3,0.2-0.4,0.5-0.4h1.5c0.4,0,0.6-0.2,0.6-0.6V9.4z"/>
	<path d="M165,12.3c0.8,0.3,1.4,0.7,2.1,1.3c0.6,0.6,0.9,1.3,0.9,2c0,1.4-0.5,2.4-1.4,3.1s-1.9,0.9-2.8,0.9c-1.2,0-2.2-0.4-3-1.1
		c-0.7-0.7-1.1-1.6-1.1-2.6c0-0.8,0.3-1.5,0.9-2.1c0.6-0.6,1.3-1,2-1.4c-0.5-0.2-1-0.6-1.5-1.2c-0.5-0.6-0.8-1.2-0.8-1.8
		c0-1,0.3-1.8,0.9-2.5c0.6-0.7,1.5-1,2.7-1c1,0,1.8,0.3,2.5,0.9c0.7,0.6,1,1.4,1,2.3c0,0.9-0.3,1.5-0.9,2
		C166,11.7,165.4,12.1,165,12.3z M163.8,18.8c0.8,0,1.5-0.3,2.1-0.8s0.9-1.1,0.9-1.9c0-1-0.3-1.7-0.9-2.1c-0.6-0.4-1.4-0.8-2.4-1.1
		c-0.9,0.4-1.6,0.8-2.1,1.3c-0.5,0.5-0.7,1.1-0.7,1.9c0,0.8,0.3,1.5,0.9,1.9C162.3,18.5,163,18.8,163.8,18.8z M163.9,12
		c0.7-0.3,1.2-0.7,1.7-1.1s0.7-0.9,0.7-1.6c0-0.7-0.2-1.3-0.6-1.8c-0.4-0.4-1-0.6-1.8-0.6c-0.8,0-1.3,0.2-1.8,0.7s-0.6,1-0.6,1.6
		c0,0.8,0.2,1.4,0.7,1.8C162.6,11.3,163.2,11.7,163.9,12z"/>
	<path d="M160.9,37.2c0,0.5-0.2,0.9-0.6,1.3s-0.8,0.6-1.3,0.6s-0.9-0.2-1.3-0.6s-0.6-0.8-0.6-1.3c0-0.5,0.2-0.9,0.6-1.3
		c0.4-0.4,0.8-0.6,1.3-0.6s0.9,0.2,1.3,0.6C160.8,36.3,160.9,36.7,160.9,37.2z"/>
	<path d="M23.4,67.1c0,0.2,0,0.4,0,0.6c0,0.2,0,0.4-0.1,0.6c0,0.2,0,0.4,0,0.6c0,0.2,0,0.4,0,0.6c-0.1,0.5-0.1,0.9-0.2,1.3
		c-0.1,0.4-0.1,0.8-0.2,1.2c-0.1,0.4-0.2,0.8-0.3,1.1c-0.1,0.3-0.2,0.6-0.3,0.8c-0.2,0.3-0.3,0.5-0.4,0.6c-0.1,0.1-0.2,0.2-0.3,0.2
		c-0.1,0-0.1,0-0.2-0.1c-0.1,0-0.1-0.1-0.2-0.3c-0.1-0.1-0.1-0.2-0.2-0.3c-0.1-0.1-0.1-0.3-0.1-0.5c-0.1-0.2-0.1-0.3-0.2-0.5
		c0-0.2-0.1-0.4-0.1-0.6c-0.1-0.2-0.1-0.4-0.1-0.6s0-0.4,0-0.6v-4c-0.4,0.1-0.8,0.2-1.1,0.2c-0.3,0.1-0.6,0.1-0.9,0.1
		c-0.3,0.1-0.5,0.1-0.7,0.1c-0.2,0-0.4,0-0.6,0c-0.3,0-0.6,0-0.9-0.1s-0.5-0.2-0.7-0.3c-0.3-0.1-0.5-0.3-0.6-0.4
		c-0.2-0.1-0.3-0.3-0.4-0.4c-0.1,0.1-0.2,0.1-0.3,0.2c-0.1,0-0.2,0.1-0.4,0.1c-0.1,0.1-0.3,0.1-0.5,0.1c-0.2,0-0.5,0-0.7,0H7.6v3.4
		c0,0.3,0,0.6,0.1,0.7c0.1,0.2,0.2,0.3,0.3,0.4c0.1,0.1,0.2,0.1,0.4,0.2c0.2,0,0.4,0.1,0.6,0.1c0.2,0,0.4,0,0.6,0
		c0.3,0,0.5,0,0.9-0.1c0.3,0,0.6,0,0.9-0.1c0.3-0.1,0.7-0.1,1.1-0.2c0.4-0.1,0.7-0.1,1.1-0.2s0.8-0.2,1.2-0.3
		c0.4-0.1,0.8-0.2,1.1-0.3c0.4-0.1,0.8-0.3,1.2-0.4c0,0,0.1,0,0.1,0c0.1,0,0.1,0,0.2-0.1h0.2c0,0,0.1,0,0.1,0c0.1,0,0.1,0,0.2,0
		c0.1,0,0.1,0,0.2,0c0.1,0,0.1,0,0.2,0c0,0.1,0.1,0.1,0.1,0.1c0,0,0,0.1,0,0.2s0,0.2,0,0.2c0,0.1-0.1,0.2-0.1,0.2
		c-0.1,0.1-0.2,0.2-0.3,0.3c-0.1,0.1-0.2,0.1-0.3,0.2c-0.4,0.2-0.9,0.4-1.3,0.6c-0.4,0.2-0.9,0.4-1.3,0.5c-0.5,0.2-0.9,0.3-1.4,0.5
		c-0.4,0.1-0.9,0.3-1.3,0.4c-0.5,0.1-0.9,0.2-1.3,0.3c-0.4,0.1-0.8,0.1-1.1,0.2c-0.4,0.1-0.7,0.1-1.1,0.2c-0.3,0-0.6,0-0.9,0
		c-0.6,0-1.1,0-1.5-0.1s-0.8-0.2-1-0.4c-0.3-0.2-0.5-0.5-0.6-0.8c-0.1-0.4-0.2-0.9-0.2-1.5v-7.9c0-0.4-0.1-0.8-0.3-1.1
		s-0.5-0.6-0.9-0.9c-0.2-0.1-0.3-0.2-0.5-0.2c-0.1-0.1-0.3-0.2-0.4-0.2c-0.1-0.1-0.2-0.1-0.3-0.2c-0.1-0.1-0.1-0.1-0.2-0.2
		C2,60.2,2,60.2,2,60.1c0,0,0-0.1,0-0.1c0,0,0,0,0-0.1c0,0,0-0.1,0-0.1s0-0.1,0.1-0.2c0-0.1,0.1-0.1,0.2-0.2c0.1,0,0.2-0.1,0.4-0.1
		c0.2,0,0.4-0.1,0.7-0.1c0.2,0,0.5,0,0.8,0.1c0.3,0.1,0.7,0.1,1,0.2c0.3,0.1,0.6,0.2,1,0.3c0.3,0.1,0.6,0.2,0.9,0.3h1.3
		c0.3,0,0.6,0,0.9,0c0.3,0,0.6-0.1,0.8-0.1c0.3,0,0.5-0.1,0.7-0.1c0.2-0.1,0.4-0.1,0.6-0.2c0.2-0.1,0.4-0.1,0.6-0.2
		c0.2-0.1,0.4-0.1,0.5-0.2c0.2,0,0.3-0.1,0.5-0.1c0.2,0,0.3,0,0.5,0c0.2,0,0.4,0,0.6,0s0.5,0,0.7,0l0.6,0.2c0.1,0,0.2,0.1,0.3,0.1
		c0.1,0,0.2,0,0.3,0c0.2,0.1,0.3,0.2,0.5,0.2c0.2,0.1,0.3,0.2,0.4,0.2c0.1,0.1,0.2,0.2,0.2,0.3c0.1,0.1,0.1,0.2,0.1,0.3
		c0,0.2,0,0.3-0.1,0.4c-0.1,0.1-0.2,0.2-0.3,0.2c-0.2,0.1-0.4,0.1-0.7,0.2c-0.3,0.1-0.7,0.1-1.1,0.1H7.6v4.1c0.3,0,0.5,0,0.7,0
		c0.2,0,0.5-0.1,0.7-0.1c0.2,0,0.3-0.1,0.5-0.1c0.2-0.1,0.4-0.1,0.5-0.2c0.1,0,0.1,0,0.2,0c0.1,0,0.1-0.1,0.2-0.1l0.4-0.2
		c0.1,0,0.2-0.1,0.3-0.1c0.1,0,0.2,0,0.4,0c0.3,0,0.6,0,0.9,0.1c0.3,0,0.7,0.1,1,0.2c0.3,0.1,0.6,0.2,0.8,0.4
		c0.2,0.1,0.4,0.3,0.5,0.4c0.1,0,0.1,0,0.2,0h0.2L19,66h0.8c0.1,0,0.2,0,0.3,0c0.1,0,0.3,0,0.4,0v-7c0-0.1-0.1-0.2-0.1-0.3
		c-0.1-0.1-0.1-0.2-0.2-0.3c-0.2-0.2-0.4-0.4-0.6-0.6c-0.2-0.2-0.4-0.3-0.5-0.5c-0.2-0.1-0.4-0.2-0.6-0.3c-0.1-0.1-0.3-0.2-0.4-0.3
		c-0.2-0.1-0.3-0.1-0.4-0.2c-0.1,0-0.2-0.1-0.2-0.2c-0.1,0-0.1-0.1-0.2-0.1c0-0.1-0.1-0.1-0.1-0.2c0-0.1,0-0.2,0.1-0.2
		c0.1-0.1,0.2-0.1,0.3-0.2H18c0.1,0,0.1,0,0.2,0c0.1,0,0.1,0,0.2,0c0.2,0,0.3,0,0.6,0.1c0.2,0,0.5,0.1,0.9,0.1
		c0.1,0.1,0.3,0.1,0.4,0.1c0.2,0,0.3,0.1,0.4,0.1c0.2,0,0.3,0.1,0.5,0.1c0.2,0.1,0.3,0.1,0.5,0.1c0.3,0.1,0.6,0.2,0.8,0.4
		c0.2,0.1,0.4,0.2,0.6,0.4c0.2,0.2,0.3,0.3,0.4,0.5c0.1,0.2,0.2,0.3,0.2,0.5c0,0.2,0,0.4,0,0.5c0,0.2,0,0.3,0,0.4
		c-0.1,0.2-0.1,0.3-0.1,0.4c0,0.1,0,0.3,0,0.4V67.1z M22.6,76.8c0.5,0,0.9,0,1.3,0s0.7,0,1-0.1c0.2,0,0.4,0,0.7-0.1
		c0.2,0,0.4-0.1,0.6-0.1c0.2,0,0.3-0.1,0.4-0.1c0.1,0,0.2-0.1,0.3-0.1c0.1,0,0.1,0,0.2,0c0.1,0,0.2,0,0.3,0c0.2,0,0.3,0,0.4,0
		c0.1,0,0.3,0.1,0.5,0.1c0.1,0,0.1,0.1,0.2,0.1c0.1,0,0.1,0.1,0.2,0.1s0.1,0.1,0.2,0.1c0.1,0,0.1,0,0.2,0c0,0.1,0.1,0.1,0.1,0.1
		c0.1,0,0.1,0.1,0.2,0.1c0,0,0.1,0.1,0.1,0.1s0.1,0.1,0.1,0.1c0.1,0.1,0.1,0.2,0.1,0.2c0,0.1,0.1,0.1,0.1,0.2c0,0.1,0,0.2-0.1,0.3
		c0,0.1-0.1,0.2-0.1,0.3c-0.1,0.2-0.1,0.3-0.2,0.4c0,0.1-0.1,0.3-0.1,0.4c-0.1,0.7-0.2,1.3-0.3,2c-0.1,0.6-0.1,1.2-0.1,1.8
		c-0.1,0.3-0.1,0.6-0.1,0.9c0,0.3-0.1,0.6-0.1,0.9c0,0.3-0.1,0.7-0.1,1c0,0.3-0.1,0.6-0.1,0.9c0.2,0,0.4,0,0.6,0.1
		c0.2,0,0.3,0.1,0.5,0.1c0.1,0,0.1,0.1,0.2,0.2c0.1,0.1,0.1,0.2,0.1,0.4c0,0.1,0,0.1,0,0.2c0,0.1-0.1,0.1-0.1,0.2c0,0-0.1,0-0.1,0.1
		c0,0-0.1,0-0.1,0.1c0,0-0.1,0-0.1,0.1c-0.1,0-0.1,0-0.2,0c-0.1,0-0.1,0-0.2,0c-0.1,0-0.1,0-0.2,0s-0.2,0-0.2,0c-0.1,0-0.2,0-0.3,0
		H16.3c-0.1,0.2-0.1,0.3-0.2,0.5c-0.1,0.2-0.2,0.4-0.3,0.5c-0.2,0.2-0.3,0.3-0.5,0.4c-0.2,0.1-0.3,0.1-0.5,0.1
		c-0.2,0-0.4-0.1-0.6-0.2c-0.2-0.1-0.3-0.3-0.4-0.5c-0.1-0.2-0.2-0.5-0.3-0.8c-0.1-0.3-0.1-0.6-0.2-0.9c-0.1-0.6-0.1-1.2-0.1-1.7
		c0-0.5-0.1-1.1-0.1-1.5c0-0.5-0.1-0.9-0.1-1.3c0-0.4-0.1-0.8-0.1-1.2c-0.1-0.7-0.1-1.2-0.2-1.6c-0.1-0.4-0.1-0.7-0.1-0.9
		c-0.1-0.1-0.1-0.2-0.2-0.4c-0.1-0.1-0.1-0.2-0.2-0.4c-0.1-0.1-0.2-0.2-0.3-0.3c-0.1-0.1-0.2-0.2-0.2-0.3c-0.1-0.1-0.2-0.2-0.3-0.2
		c-0.1-0.1-0.2-0.2-0.2-0.2c-0.1-0.1-0.1-0.1-0.2-0.2c0-0.1,0-0.1,0-0.2c0,0,0-0.1,0-0.1c0-0.1,0.1-0.1,0.2-0.2
		c0.1,0,0.2-0.1,0.3-0.1c0.2,0,0.3-0.1,0.5-0.1c0.1,0,0.1,0,0.2,0c0.1,0,0.1,0,0.2,0c0,0,0.1,0,0.2,0c0.1,0,0.2,0,0.3,0
		c0.1,0,0.1,0.1,0.2,0.1c0.1,0,0.1,0,0.2,0c0.1,0,0.2,0.1,0.2,0.1c0.1,0,0.2,0,0.2,0c0.1,0.1,0.2,0.1,0.4,0.1c0.1,0,0.3,0.1,0.4,0.1
		c0.1,0.1,0.2,0.1,0.3,0.2c0.1,0,0.2,0.1,0.3,0.1H22.6z M26,86.3c0-0.7,0-1.4,0-2.1c0-0.7,0.1-1.4,0.1-2.1v-2c0-0.3,0-0.7,0-1
		c0-0.4,0-0.7,0.1-1.1c-0.4,0-0.9,0-1.3,0.1s-0.9,0-1.3,0h-2.5c-0.9,0-1.7,0-2.6,0.1c-0.9,0-1.7,0-2.6,0c0,0.7,0.1,1.4,0.1,2
		c0,0.7,0.1,1.3,0.1,2c0,0.7,0,1.4,0.1,2.1s0.1,1.4,0.1,2.1H26z M29.5,66.7c0,0.5,0,1-0.1,1.4c0,0.5-0.1,0.9-0.1,1.4
		c-0.1,0.3-0.1,0.5-0.1,0.7c0,0.2-0.1,0.5-0.1,0.7c0,0.2-0.1,0.4-0.1,0.6c0,0.2-0.1,0.4-0.1,0.6c-0.1,0.4-0.2,0.8-0.3,1.1
		c-0.1,0.3-0.2,0.6-0.3,0.8c-0.2,0.3-0.3,0.5-0.4,0.6c-0.1,0.1-0.2,0.2-0.3,0.2c-0.1,0-0.1,0-0.2-0.1c-0.1,0-0.1-0.1-0.2-0.2
		c-0.1-0.1-0.1-0.2-0.2-0.3S27,74,27,73.8c-0.1-0.2-0.1-0.3-0.2-0.5s-0.1-0.4-0.1-0.6c-0.1-0.2-0.1-0.4-0.1-0.6c0-0.2,0-0.4,0-0.6
		V57.5c0-0.1-0.1-0.2-0.1-0.3c-0.1-0.1-0.1-0.2-0.2-0.3c-0.3-0.3-0.5-0.5-0.7-0.7c-0.2-0.2-0.4-0.4-0.6-0.5
		c-0.2-0.1-0.4-0.2-0.5-0.3s-0.3-0.2-0.3-0.3C24,55.1,23.9,55,23.8,55c-0.1-0.1-0.2-0.1-0.2-0.2c-0.1,0-0.1-0.1-0.2-0.1
		c0-0.1,0-0.1,0-0.2c0,0,0-0.1,0-0.1c0,0,0.1-0.1,0.2-0.2c0.1,0,0.1-0.1,0.2-0.1c0.1,0,0.2-0.1,0.3-0.1c0.1,0,0.2,0,0.3,0
		c0.1,0,0.2,0,0.3,0.1c0.1,0,0.2,0,0.4,0s0.3,0,0.5,0c0.3,0.1,0.6,0.2,0.9,0.2c0.3,0.1,0.6,0.2,0.9,0.2c0.3,0.1,0.6,0.2,0.8,0.4
		c0.3,0.1,0.5,0.2,0.7,0.4c0.2,0.2,0.4,0.3,0.5,0.5c0.1,0.2,0.2,0.4,0.2,0.5c0,0.2,0,0.4,0,0.5c0,0.2-0.1,0.3-0.1,0.4
		c-0.1,0.2-0.1,0.3-0.1,0.4c0,0.1,0,0.3,0,0.4V66.7z"/>
	<path d="M42.1,71c2.2,0,4.2,0,6,0s3.3,0,4.7-0.1c1.3,0,2.3,0,3.2,0c0.8,0,1.4-0.1,1.7-0.2c0.4,0,0.7-0.1,1-0.1
		c0.3-0.1,0.6-0.1,0.9-0.2c0.3,0,0.5-0.1,0.7-0.1c0.2,0,0.4-0.1,0.7-0.2c0.1,0,0.3-0.1,0.5-0.1c0.2,0,0.3-0.1,0.5-0.1
		c0.2,0,0.3,0,0.4,0s0.3,0,0.5,0c0.7,0,1.3,0.1,1.8,0.2c0.5,0.1,1,0.2,1.5,0.4c0.4,0.2,0.7,0.4,0.9,0.6c0.2,0.2,0.3,0.4,0.3,0.5
		c0,0.2-0.1,0.4-0.2,0.5c-0.1,0.1-0.2,0.2-0.3,0.2c-0.2,0.1-0.4,0.1-0.7,0.2c-0.3,0-0.5,0-0.8,0c-0.7,0-1.4,0-2.1,0
		c-0.7,0-1.4,0-2.1,0h-3.9c-1.3,0.1-2.6,0.1-3.9,0.1c-1.3,0-2.5,0-3.8,0c-0.6,0-1.2,0-1.8,0.1c-0.6,0-1.1,0.1-1.7,0.1
		c-0.3,0.1-0.5,0.1-0.8,0.1c-0.3,0-0.5,0-0.8,0c-0.2,0-0.5,0.1-0.7,0.1c-0.2,0-0.5,0-0.7,0c-0.2,0.1-0.4,0.1-0.6,0.1
		c-0.2,0-0.4,0-0.6,0c-0.2,0-0.4,0.1-0.6,0.1c-0.2,0-0.3,0-0.5,0c-0.4,0.1-0.7,0.1-0.9,0.1c-0.3,0-0.5,0-0.7,0c-0.3,0-0.5,0-0.8-0.1
		c-0.3,0-0.5-0.1-0.7-0.2c-0.3-0.1-0.6-0.1-0.9-0.2s-0.5-0.2-0.7-0.3c-0.3-0.1-0.5-0.2-0.7-0.3c-0.2-0.1-0.4-0.2-0.5-0.4
		c-0.2-0.1-0.3-0.2-0.4-0.3c-0.1-0.1-0.1-0.2-0.1-0.3c0-0.1,0-0.1,0-0.2c0-0.1,0.1-0.1,0.2-0.2c0.1,0,0.2-0.1,0.2-0.1
		c0.1,0,0.2-0.1,0.3-0.1c0.2,0,0.3,0,0.5,0.1s0.4,0,0.7,0c0.2,0.1,0.5,0.1,0.8,0.1c0.3,0,0.6,0,1,0c0.3,0.1,0.6,0.1,0.9,0.1
		c0.3,0,0.7,0,1,0c0.2,0,0.3,0,0.5,0.1c0.2,0,0.3,0,0.5,0H42.1z M53.7,67.3c-1.1,0-2,0-2.9,0s-1.5,0.1-2.1,0.1
		c-0.4,0.1-0.7,0.1-1,0.1c-0.3,0-0.6,0-0.8,0c-0.3,0-0.5,0.1-0.7,0.1s-0.4,0-0.6,0c-0.2,0.1-0.4,0.1-0.6,0.1c-0.2,0-0.3,0-0.5,0
		c-0.2,0-0.3,0.1-0.4,0.1c-0.1,0-0.2,0-0.3,0c-0.2,0.1-0.4,0.1-0.6,0.1s-0.4,0-0.6,0c-0.3,0-0.6,0-0.8-0.1s-0.5-0.1-0.7-0.2
		c-0.3-0.1-0.5-0.2-0.7-0.2c-0.2-0.1-0.4-0.2-0.5-0.3c-0.2-0.1-0.4-0.2-0.6-0.3c-0.1-0.1-0.2-0.2-0.3-0.4c-0.1-0.1-0.2-0.2-0.2-0.3
		c0-0.1-0.1-0.2-0.1-0.3c0-0.1,0.1-0.2,0.2-0.3c0.1-0.1,0.3-0.1,0.6-0.1c0.2,0.1,0.4,0.1,0.6,0.1c0.2,0,0.4,0,0.6,0
		c0.2,0.1,0.3,0.1,0.5,0.1c0.2,0,0.4,0,0.6,0c0.2,0.1,0.3,0.1,0.5,0.1c0.2,0,0.4,0,0.6,0c0.2,0,0.3,0,0.6,0s0.5,0,0.7,0
		c0.2,0,0.4,0,0.7,0c0.3,0,0.6,0,1,0H47c0.2,0,0.4,0,0.6,0c0.2,0,0.4,0,0.6-0.1h1.3c0.2,0,0.4,0,0.6,0s0.5,0,0.7-0.1h1.3
		c0.2,0,0.4,0,0.6,0c0.2,0,0.4,0,0.6,0c0.1-0.3,0.2-0.7,0.3-1c0.1-0.3,0.2-0.7,0.3-1.1c0.1-0.3,0.2-0.7,0.3-1
		c0.1-0.4,0.3-0.7,0.4-1.1c0.1-0.3,0-0.5-0.1-0.8c-0.2-0.3-0.4-0.5-0.8-0.8c-0.3-0.2-0.6-0.3-0.8-0.4c-0.2-0.1-0.3-0.2-0.4-0.3
		c-0.1,0-0.1-0.1-0.2-0.2c0-0.1-0.1-0.1-0.1-0.2c0-0.1,0-0.1,0-0.2c0-0.1,0.1-0.1,0.1-0.2c0,0,0.1-0.1,0.2-0.1c0.1,0,0.3,0,0.5,0
		c0.1,0,0.1,0,0.2,0c0.1,0,0.2,0,0.3,0.1c0.1,0,0.2,0,0.3,0c0.1,0,0.3,0,0.4,0c0.2,0.1,0.5,0.2,0.7,0.2c0.3,0.1,0.5,0.2,0.8,0.2
		c0.3,0.1,0.5,0.3,0.7,0.4s0.5,0.3,0.7,0.4c0.2,0.2,0.3,0.3,0.4,0.4c0.1,0.1,0.2,0.3,0.2,0.4c0,0.1,0,0.2,0,0.3
		c0,0.1-0.1,0.2-0.1,0.3c-0.1,0.1-0.1,0.1-0.1,0.2c0,0.1-0.1,0.1-0.1,0.2c0,0.1-0.1,0.1-0.1,0.1c0,0-0.1,0.1-0.1,0.1
		c-0.1,0.3-0.3,0.7-0.4,1c-0.1,0.3-0.3,0.6-0.4,0.9c-0.1,0.2-0.1,0.3-0.2,0.5c-0.1,0.2-0.2,0.3-0.2,0.5c-0.1,0.2-0.1,0.3-0.2,0.5
		c-0.1,0.2-0.1,0.3-0.2,0.4c0.3,0,0.6-0.1,0.9-0.2c0.3-0.1,0.6-0.2,0.9-0.3c0.3-0.1,0.6-0.1,0.8-0.2c0.2-0.1,0.4-0.1,0.6-0.1
		c0.1,0,0.2,0,0.3,0c0.1,0,0.2,0,0.3,0c0.1,0,0.2,0,0.3,0c0.1,0,0.2,0,0.3,0c0.1,0,0.2,0.1,0.3,0.1c0.1,0,0.2,0.1,0.3,0.1
		c0.1,0,0.2,0.1,0.3,0.1c0.1,0,0.2,0,0.3,0c0.1,0.1,0.2,0.1,0.3,0.1c0.1,0,0.2,0.1,0.3,0.1c0.1,0,0.2,0.1,0.2,0.1
		c0.1,0,0.1,0.1,0.2,0.1c0.1,0.1,0.2,0.2,0.3,0.3c0.1,0.1,0.1,0.2,0.1,0.3c0,0.2-0.1,0.3-0.3,0.4c-0.2,0.1-0.4,0.2-0.8,0.2
		c-0.4,0.1-0.7,0.1-1.1,0.2c-0.4,0.1-0.8,0.1-1.3,0.1c-0.5,0.1-1,0.1-1.5,0.1s-1,0-1.5,0H53.7z M53,57.5c-0.6,0-1.2,0-1.7,0.1
		c-0.5,0-1,0.1-1.4,0.1c-0.4,0.1-0.8,0.1-1.2,0.2c-0.4,0.1-0.7,0.1-1,0.2c-0.4,0.1-0.7,0.1-1,0.2c-0.3,0.1-0.6,0.1-0.8,0.1
		c-0.3,0.1-0.6,0.1-0.9,0.2c-0.3,0-0.5,0-0.7,0c-0.3,0-0.5,0-0.7-0.1s-0.5-0.1-0.7-0.2c-0.3-0.1-0.6-0.2-0.8-0.2s-0.4-0.2-0.6-0.3
		c-0.3-0.1-0.5-0.2-0.6-0.3c-0.2-0.1-0.3-0.2-0.5-0.4C40.2,57,40,56.9,40,56.8c-0.1-0.1-0.1-0.2-0.1-0.2c0-0.2,0.1-0.3,0.2-0.4
		c0.1-0.1,0.3-0.1,0.6-0.1c0.2,0.1,0.4,0.1,0.6,0.1c0.2,0,0.4,0.1,0.6,0.1c0.2,0,0.4,0.1,0.6,0.1c0.2,0,0.4,0,0.6,0
		c0.4,0.1,0.8,0.1,1.2,0.1s0.8,0,1.3,0c0.6,0,1.2,0,1.7,0c0.5,0,1.1,0,1.6-0.1c0.5,0,0.9,0,1.4,0s0.9,0,1.4-0.1c0.6,0,1.1,0,1.6-0.1
		s0.9-0.1,1.3-0.2c0.3-0.1,0.6-0.1,0.9-0.2c0.3-0.1,0.6-0.1,0.8-0.2l0.6-0.2c0.1,0,0.2-0.1,0.3-0.1c0.1,0,0.2-0.1,0.2-0.1
		c0.1,0,0.2-0.1,0.4-0.1c0.2,0,0.3,0,0.5,0c0.1,0,0.1,0,0.2,0c0.1,0,0.2,0,0.3,0c0.1,0,0.2,0,0.3,0c0.1,0,0.2,0,0.4,0
		c0.2,0.1,0.4,0.1,0.6,0.1c0.2,0,0.4,0.1,0.6,0.1c0.1,0.1,0.2,0.1,0.3,0.1c0.1,0,0.2,0.1,0.2,0.1c0.1,0,0.2,0.1,0.2,0.1
		c0.1,0,0.2,0.1,0.2,0.1c0.1,0.1,0.2,0.2,0.2,0.3c0.1,0.1,0.1,0.2,0.1,0.2c0,0.3-0.2,0.5-0.5,0.6c-0.3,0.1-0.8,0.2-1.5,0.2
		c-0.3,0-0.6,0-0.9,0c-0.3,0-0.6,0-0.9,0c-0.3,0-0.6,0-0.8,0s-0.6,0-0.8,0c-0.6,0.1-1.2,0.1-1.8,0.1S53.5,57.5,53,57.5z M56.7,81.2
		c0-0.4,0-0.7,0-1.1c0-0.3,0.1-0.7,0.1-1c0-0.3,0-0.6,0-1s0-0.7,0.1-1.1h-4.3c-0.3,0-0.6,0-0.9,0c-0.3,0-0.5,0-0.8,0
		c-0.1,0-0.2,0-0.3,0.1c-0.1,0-0.2,0-0.3,0h-0.6c-0.1,0-0.2,0-0.4,0.1c-0.1,0-0.2,0-0.4,0.1c-0.1,0-0.2,0-0.4,0.1s-0.3,0-0.5,0
		c-0.1,0-0.2,0-0.3,0.1c-0.1,0-0.2,0-0.3,0.1c-0.1,0-0.2,0-0.2,0c-0.1,0-0.2,0-0.2,0c-0.2,0.1-0.4,0.1-0.5,0.1c-0.1,0-0.2,0-0.3,0
		c-0.1,0-0.1,0-0.2,0.1c-0.1,0-0.1,0-0.2,0h-0.3c-0.1,0-0.2,0-0.3,0c-0.1,0-0.2,0-0.3,0c-0.3,0-0.6,0-0.8-0.1
		c-0.3,0-0.5-0.1-0.7-0.2c-0.3-0.1-0.5-0.1-0.7-0.2c-0.2-0.1-0.4-0.2-0.5-0.3c-0.2-0.1-0.4-0.2-0.5-0.2c-0.1-0.1-0.2-0.2-0.3-0.3
		c-0.1-0.1-0.2-0.1-0.2-0.2c0-0.1-0.1-0.1-0.1-0.2c0-0.1,0.1-0.2,0.2-0.3c0.1-0.1,0.3-0.1,0.6-0.1c0.5,0.1,1.1,0.1,1.6,0.2
		c0.5,0.1,1.1,0.1,1.6,0.1c0.5,0.1,1,0.1,1.5,0.1c0.5,0,1,0,1.4,0c0.7,0,1.4,0,2.1,0c0.8,0,1.6-0.1,2.5-0.1c0.8,0,1.8-0.1,2.8-0.2
		c1-0.1,2.1-0.3,3.2-0.5l0.4-0.1c0.2,0,0.4,0,0.6,0.1c0.2,0,0.4,0.1,0.5,0.2c0.2,0.1,0.3,0.2,0.3,0.4c0.1,0.1,0.1,0.3,0.1,0.4
		c0,0.1,0,0.2-0.1,0.4c0,0.1-0.1,0.3-0.2,0.4c-0.2,0.3-0.3,0.6-0.4,1c-0.1,0.3-0.2,0.7-0.2,1.1c-0.1,0.2-0.1,0.4-0.1,0.6
		c0,0.2-0.1,0.4-0.1,0.6c0,0.2-0.1,0.4-0.1,0.6c0,0.2-0.1,0.4-0.1,0.5c0.2,0,0.4,0,0.6,0.1c0.2,0,0.4,0.1,0.5,0.1
		c0.1,0.1,0.1,0.2,0.2,0.3c0.1,0.1,0.1,0.2,0.1,0.3c0,0.1,0,0.1-0.1,0.1c0,0,0,0.1-0.1,0.1c0,0-0.1,0.1-0.1,0.1
		c0,0.1-0.1,0.1-0.2,0.2s-0.2,0.1-0.3,0.1c-0.2,0.1-0.3,0.1-0.5,0.1c-0.2,0-0.4,0-0.6,0c-0.3,0-0.6,0-0.9,0s-0.7,0-1.1,0H46.1v3.5
		c0,0.3,0.1,0.5,0.2,0.7c0.1,0.2,0.3,0.2,0.6,0.2h6.7c0.3,0,0.6,0,0.9,0c0.3,0,0.6,0,0.8-0.1c0.1,0,0.2-0.1,0.3-0.1
		c0.1,0,0.2-0.1,0.3-0.1c0.1,0,0.2-0.1,0.3-0.1c0.1,0,0.2-0.1,0.3-0.1c0.1-0.1,0.3-0.1,0.4-0.2c0.2-0.1,0.3-0.1,0.4-0.2
		c0.1-0.1,0.3-0.1,0.4-0.1c0.1,0,0.3,0,0.4,0c0.2,0,0.4,0,0.6,0c0.2,0,0.4,0.1,0.7,0.1c0.2,0,0.4,0.1,0.6,0.1c0.2,0,0.4,0.1,0.6,0.2
		c0.2,0.1,0.3,0.2,0.4,0.2c0.1,0.1,0.3,0.2,0.4,0.2c0.1,0.1,0.1,0.2,0.2,0.3c0.1,0.1,0.1,0.2,0.1,0.3c0,0.1,0,0.2-0.1,0.3
		c-0.1,0.1-0.2,0.2-0.3,0.2c-0.2,0.1-0.4,0.1-0.7,0.2c-0.3,0-0.7,0.1-1.1,0.1h-14c-0.3,0-0.6-0.1-0.9-0.2c-0.3-0.1-0.5-0.3-0.8-0.5
		c-0.3-0.2-0.4-0.5-0.6-0.7c-0.1-0.3-0.2-0.6-0.2-0.9v-2.1c0-0.2,0-0.4-0.1-0.6c0-0.2-0.1-0.4-0.1-0.5c-0.1-0.2-0.1-0.3-0.3-0.4
		c-0.1-0.1-0.3-0.2-0.5-0.3c-0.6-0.3-1-0.5-1.2-0.7s-0.4-0.4-0.4-0.6c0,0,0-0.1,0.1-0.1c0-0.1,0.1-0.1,0.2-0.2
		c0.1,0,0.2-0.1,0.3-0.1s0.3-0.1,0.5-0.1c0.1,0,0.1,0,0.2,0c0.1,0,0.1,0,0.2,0c0.1,0,0.2,0,0.2,0c0.1,0,0.2,0,0.3,0
		c0.1,0,0.2,0.1,0.2,0.1s0.2,0,0.3,0c0.1,0,0.2,0,0.3,0.1c0.1,0,0.2,0,0.2,0c0.2,0.1,0.4,0.1,0.5,0.1c0.2,0,0.4,0.1,0.6,0.1
		c0.2,0.1,0.3,0.1,0.5,0.2s0.3,0.1,0.5,0.1h2.6c0.5,0,0.9,0,1.4,0c0.5,0,1,0,1.5-0.1c0.9,0,1.9,0,2.8,0
		C54.9,81.2,55.8,81.2,56.7,81.2z M44.3,59.2c0.2,0,0.4,0,0.6,0.1s0.5,0.2,0.8,0.3c0.2,0.2,0.5,0.4,0.7,0.6s0.5,0.4,0.7,0.6
		c0.2,0.3,0.4,0.6,0.6,0.8c0.2,0.3,0.3,0.5,0.5,0.8c0.1,0.3,0.2,0.6,0.3,0.9c0.1,0.3,0.1,0.5,0.1,0.7c0,0.3-0.1,0.5-0.2,0.7
		c-0.1,0.2-0.2,0.3-0.3,0.4c-0.2,0.1-0.3,0.2-0.5,0.3c-0.2,0.1-0.4,0.1-0.6,0.1c-0.2,0-0.4,0-0.6-0.1c-0.2-0.1-0.3-0.2-0.5-0.3
		c-0.2-0.1-0.3-0.3-0.4-0.5c-0.1-0.2-0.2-0.4-0.2-0.7c0-0.3-0.1-0.6-0.1-0.9c0-0.3-0.1-0.6-0.1-0.9c-0.1-0.3-0.1-0.5-0.3-0.8
		c-0.1-0.3-0.3-0.6-0.5-1c-0.1-0.1-0.1-0.1-0.1-0.2c0,0-0.1-0.1-0.1-0.2c-0.1,0-0.1-0.1-0.1-0.1c0,0,0-0.1,0-0.1
		c-0.1-0.1-0.1-0.1-0.1-0.2c0-0.1,0-0.1,0-0.2s0-0.1,0.1-0.2C44.1,59.2,44.2,59.2,44.3,59.2z"/>
	<path d="M82.1,80.9c1.8,0,3.3,0,4.6-0.1c1.3,0,2.3,0,3.2,0c0.8,0,1.4-0.1,1.7-0.1c0.4,0,0.7-0.1,1-0.2c0.3-0.1,0.6-0.1,0.9-0.2
		c0.2,0,0.4-0.1,0.7-0.1c0.2-0.1,0.4-0.1,0.7-0.2c0.2,0,0.3-0.1,0.5-0.1c0.2,0,0.3-0.1,0.5-0.1c0.2,0,0.3,0,0.4,0c0.1,0,0.3,0,0.5,0
		c0.7,0,1.3,0.1,1.8,0.2c0.5,0.1,1,0.2,1.5,0.4c0.4,0.2,0.7,0.4,0.9,0.6c0.2,0.2,0.3,0.4,0.3,0.5c0,0.2-0.1,0.4-0.2,0.5
		c-0.1,0.1-0.2,0.2-0.3,0.2c-0.2,0.1-0.4,0.1-0.7,0.2c-0.3,0-0.5,0-0.8,0c-0.7,0-1.4,0-2.1,0c-0.7,0-1.4,0-2.1,0c-0.7,0-1.3,0-2,0
		c-0.7,0-1.3,0-1.9,0c-1.3,0-2.6,0-3.9,0c-1.3,0-2.5,0-3.8,0c-0.6,0-1.2,0-1.8,0c-0.6,0-1.1,0.1-1.7,0.1c-0.3,0.1-0.5,0.1-0.8,0.1
		c-0.3,0-0.5,0.1-0.8,0.1c-0.2,0-0.5,0.1-0.7,0.1c-0.2,0-0.5,0-0.7,0c-0.2,0.1-0.4,0.1-0.6,0.1c-0.2,0-0.4,0-0.6,0
		c-0.2,0-0.4,0.1-0.6,0.1s-0.3,0-0.5,0c-0.4,0.1-0.7,0.1-0.9,0.1s-0.5,0-0.7,0c-0.2,0-0.5,0-0.7,0c-0.3,0-0.5-0.1-0.7-0.2
		c-0.3-0.1-0.6-0.1-0.9-0.2c-0.3-0.1-0.5-0.2-0.7-0.3c-0.3-0.1-0.5-0.2-0.7-0.3s-0.4-0.2-0.5-0.4c-0.2-0.1-0.3-0.2-0.4-0.3
		c-0.1-0.1-0.1-0.3-0.1-0.4c0-0.1,0-0.1,0.1-0.2s0.1-0.1,0.2-0.2c0.1,0,0.2-0.1,0.2-0.1c0.1,0,0.2-0.1,0.3-0.1
		c0.1,0.1,0.2,0.1,0.4,0.1s0.4,0,0.7,0c0.2,0,0.5,0,0.8,0.1c0.3,0,0.6,0,0.9,0c0.3,0.1,0.6,0.1,1,0.1c0.3,0,0.7,0,1,0
		c0.2,0,0.3,0,0.5,0.1c0.2,0,0.3,0,0.5,0c0.2,0,0.3,0,0.5,0s0.3,0,0.5,0C78.3,80.9,80.3,80.9,82.1,80.9z M86.2,62.4
		c-0.1,0.1-0.1,0.2-0.2,0.2c-0.1,0.1-0.1,0.1-0.2,0.2S85.8,63,85.7,63c-0.1,0.1-0.1,0.1-0.1,0.2c0,0.1-0.1,0.1-0.1,0.2
		c0.3,0.2,0.6,0.5,1,0.7c0.4,0.3,0.8,0.5,1.2,0.7c0.4,0.3,0.8,0.5,1.1,0.8c0.4,0.2,0.8,0.4,1.1,0.6c0.4,0.2,0.7,0.4,1,0.5
		c0.3,0.2,0.7,0.3,1,0.5c0.3,0.2,0.5,0.3,0.8,0.4s0.5,0.2,0.7,0.2c0.4,0.1,0.8,0.3,1.2,0.4c0.4,0.1,0.7,0.3,1.1,0.4
		c0.3,0.2,0.6,0.4,0.8,0.6c0.2,0.2,0.4,0.4,0.6,0.6c0.2,0.2,0.4,0.4,0.5,0.6s0.3,0.4,0.4,0.6c0.1,0.2,0.1,0.4,0.2,0.6
		c0,0.2,0,0.3,0,0.4c0,0.2-0.1,0.4-0.2,0.5c-0.1,0.1-0.2,0.2-0.3,0.2c-0.2,0.1-0.4,0.1-0.6,0s-0.5-0.2-0.7-0.3
		c-0.3-0.1-0.5-0.2-0.9-0.4c-0.3-0.2-0.7-0.4-1.1-0.6c-0.4-0.2-0.9-0.5-1.4-0.8c-0.5-0.3-1-0.6-1.5-0.9c-0.6-0.3-1.1-0.6-1.7-1
		c-0.6-0.4-1.1-0.8-1.7-1.2c-0.6-0.4-1.3-0.8-1.9-1.2c-0.6-0.4-1.2-0.9-1.8-1.3c-0.5,0.6-1,1.2-1.6,1.7c-0.6,0.6-1.1,1.1-1.7,1.5
		c-0.6,0.5-1.3,1-1.9,1.4c-0.6,0.4-1.2,0.8-1.8,1.2c-0.6,0.4-1.2,0.7-1.8,1.1c-0.6,0.3-1.2,0.6-1.7,0.8c-0.6,0.3-1.2,0.5-1.7,0.7
		c-0.5,0.2-1,0.3-1.5,0.4c-0.1,0.1-0.2,0.1-0.3,0.1c-0.1,0-0.1,0-0.2-0.1c-0.1,0-0.1-0.1-0.2-0.1c0-0.1,0-0.1,0-0.2
		c0,0,0-0.1,0.1-0.2c0.1-0.1,0.2-0.2,0.4-0.3c0.1,0,0.2-0.1,0.2-0.1s0.2-0.1,0.2-0.2s0.2-0.1,0.2-0.2s0.2-0.1,0.3-0.2
		c0.8-0.5,1.6-0.9,2.4-1.4s1.5-1,2.2-1.6c0.7-0.5,1.4-1.1,2-1.6c0.6-0.6,1.2-1.1,1.8-1.7c0.5-0.5,1-1.1,1.4-1.6
		c0.4-0.6,0.8-1.1,1.2-1.7c0.3-0.5,0.6-1,0.8-1.5c0.2-0.5,0.4-1,0.5-1.4c0-0.1,0-0.2,0-0.3c0-0.1,0-0.2-0.1-0.3
		c-0.1-0.1-0.2-0.2-0.3-0.3c-0.1-0.1-0.2-0.3-0.4-0.4C83,58,82.9,58,82.8,57.9c-0.1-0.1-0.2-0.1-0.3-0.2c-0.1-0.1-0.2-0.1-0.2-0.2
		c-0.1-0.1-0.1-0.1-0.2-0.2c-0.1-0.1-0.2-0.2-0.2-0.3c-0.1-0.1-0.1-0.2,0-0.3c0,0,0-0.1,0.1-0.1c0,0,0.1-0.1,0.2-0.1
		c0.1,0,0.2,0,0.3,0c0.1,0,0.2,0,0.3,0c0.1,0,0.1,0,0.2,0.1c0.1,0,0.1,0,0.2,0s0.1,0,0.2,0c0.1,0,0.1,0,0.2,0
		c0.1,0.1,0.1,0.1,0.2,0.1c0.1,0,0.1,0,0.2,0c0.2,0.1,0.3,0.1,0.5,0.2c0.2,0.1,0.4,0.1,0.6,0.2c0.1,0.1,0.2,0.1,0.3,0.2
		c0.1,0.1,0.2,0.1,0.3,0.2c0.1,0.1,0.2,0.1,0.3,0.2c0.1,0.1,0.2,0.1,0.4,0.2c0.1,0.1,0.1,0.2,0.2,0.2c0.1,0.1,0.2,0.2,0.3,0.2
		c0.1,0.1,0.2,0.1,0.3,0.2c0.1,0.1,0.2,0.1,0.3,0.2c0.2,0.2,0.3,0.3,0.4,0.5c0.1,0.2,0.1,0.3,0.2,0.5c0,0.3,0,0.5-0.1,0.7
		s-0.1,0.4-0.2,0.5c-0.1,0.2-0.3,0.3-0.5,0.6s-0.4,0.5-0.7,0.8C86.3,62.2,86.3,62.3,86.2,62.4z"/>
	<path d="M125,79.5c0,0.5,0,0.9,0,1.4s-0.1,0.9-0.1,1.4c-0.1,0.5-0.1,1-0.2,1.4c-0.1,0.4-0.1,0.9-0.2,1.2c-0.1,0.4-0.2,0.8-0.3,1.1
		c-0.1,0.3-0.2,0.6-0.3,0.9c-0.1,0.3-0.2,0.5-0.4,0.6c-0.1,0.1-0.2,0.2-0.3,0.2c-0.1,0-0.2,0-0.2-0.1c-0.1-0.1-0.1-0.1-0.2-0.2
		c-0.1-0.1-0.1-0.2-0.2-0.4c-0.1-0.2-0.1-0.3-0.1-0.5c-0.1-0.2-0.1-0.4-0.1-0.6c0-0.2,0-0.4,0-0.6c-0.1-0.2-0.1-0.4-0.1-0.6
		c0-0.2,0-0.4,0-0.6V70.9c-0.2,0.1-0.3,0.1-0.4,0.1c-0.1,0-0.3,0.1-0.4,0.1c-0.1,0-0.2,0.1-0.4,0.1c-0.1,0-0.2,0-0.3,0
		c-0.3,0.1-0.5,0.1-0.8,0.1c-0.2,0-0.4,0-0.6,0c-0.2,0-0.4,0-0.6,0c-0.2,0-0.3-0.1-0.5-0.2c-0.2,0-0.3-0.1-0.5-0.2
		c-0.2-0.1-0.3-0.2-0.4-0.3c-0.2-0.1-0.3-0.2-0.4-0.2c-0.1-0.1-0.2-0.2-0.3-0.3c-0.1-0.1-0.2-0.1-0.2-0.2c-0.1-0.1-0.1-0.1-0.1-0.2
		c-0.1,0.1-0.2,0.1-0.3,0.1c-0.1,0-0.2,0.1-0.3,0.1c-0.2,0.1-0.3,0.1-0.5,0.1s-0.4,0-0.6,0h-5.4v6c0,0.3,0,0.6,0.1,0.7
		c0,0.2,0.1,0.3,0.3,0.4c0.1,0.1,0.2,0.1,0.4,0.2c0.2,0,0.4,0.1,0.7,0.1c0.2,0,0.4,0,0.6,0c0.3,0,0.6,0,0.9-0.1c0.3,0,0.6,0,1-0.1
		c0.4,0,0.7-0.1,1.1-0.2c0.4,0,0.7-0.1,1.1-0.2c0.4-0.1,0.8-0.2,1.2-0.3c0.4-0.1,0.8-0.2,1.1-0.3c0.4-0.1,0.8-0.3,1.2-0.4
		c0,0,0.1,0,0.1,0c0.1,0,0.1,0,0.2-0.1h0.2c0,0,0.1,0,0.1,0c0.1,0,0.1,0,0.2,0c0.1,0,0.1,0,0.2,0c0.1,0,0.1,0,0.2,0
		c0,0.1,0.1,0.1,0.1,0.1c0,0,0,0.1,0,0.2s0,0.2,0,0.2c0,0.1-0.1,0.2-0.1,0.2c-0.1,0.1-0.2,0.2-0.3,0.3c-0.1,0.1-0.2,0.1-0.3,0.2
		c-0.4,0.2-0.9,0.4-1.3,0.6c-0.4,0.2-0.9,0.4-1.3,0.5c-0.5,0.2-0.9,0.3-1.4,0.5c-0.4,0.1-0.9,0.3-1.3,0.4c-0.5,0.1-0.9,0.2-1.3,0.3
		s-0.8,0.1-1.2,0.2c-0.4,0.1-0.8,0.1-1.1,0.2c-0.3,0-0.6,0-0.9,0c-0.6,0-1.1,0-1.5-0.1c-0.4-0.1-0.8-0.2-1-0.5
		c-0.3-0.2-0.5-0.5-0.7-0.8c-0.1-0.4-0.2-0.9-0.2-1.4V64.2c0-0.4-0.1-0.8-0.3-1.1c-0.2-0.3-0.5-0.6-0.9-0.9
		c-0.2-0.1-0.3-0.2-0.5-0.2c-0.1-0.1-0.2-0.2-0.3-0.2c-0.1,0-0.2-0.1-0.3-0.2c-0.1-0.1-0.1-0.1-0.2-0.2c-0.1,0-0.1-0.1-0.1-0.1
		c0,0,0-0.1,0-0.1V61c0,0,0-0.1,0-0.2c0-0.1,0.1-0.1,0.2-0.2c0.1,0,0.2-0.1,0.3-0.1c0.2,0,0.4-0.1,0.6-0.1c0.2,0,0.5,0,0.8,0.1
		c0.3,0.1,0.7,0.1,1,0.2c0.4,0.1,0.7,0.2,1,0.3c0.3,0.1,0.6,0.2,0.9,0.3h1.3c0.3,0,0.6,0,0.9,0c0.3,0,0.6-0.1,0.9-0.1
		c0.3,0,0.5-0.1,0.7-0.1c0.2-0.1,0.5-0.1,0.7-0.2c0.2-0.1,0.4-0.1,0.6-0.2c0.2-0.1,0.4-0.1,0.6-0.2c0.2,0,0.3,0,0.5-0.1
		c0.2,0,0.3,0,0.5,0c0.2,0,0.4,0,0.6,0s0.5,0,0.7,0l0.6,0.2c0.1,0,0.2,0.1,0.3,0.1c0.1,0,0.2,0,0.3,0c0.2,0.1,0.3,0.2,0.5,0.2
		s0.3,0.2,0.4,0.2c0.1,0.1,0.2,0.2,0.2,0.3s0.1,0.2,0.1,0.3c0,0.2,0,0.3-0.1,0.4c-0.1,0.1-0.2,0.2-0.3,0.2c-0.2,0.1-0.4,0.1-0.7,0.2
		c-0.3,0.1-0.7,0.1-1.1,0.1h-7.3v6.1c0.3,0,0.5,0,0.8,0c0.3,0,0.5-0.1,0.7-0.1c0.2,0,0.4-0.1,0.6-0.1c0.2-0.1,0.4-0.1,0.6-0.2
		c0.2,0,0.3-0.1,0.4-0.1c0.1-0.1,0.3-0.1,0.4-0.2c0.1,0,0.2-0.1,0.3-0.1c0.1,0,0.2,0,0.3,0c0.5,0,1,0,1.4,0.1
		c0.4,0.1,0.8,0.2,1.1,0.3c0.3,0.2,0.5,0.3,0.6,0.5c0.2,0.2,0.2,0.3,0.2,0.5v0.1c0,0,0.1,0,0.1,0s0.1,0,0.1,0c0,0,0.1,0,0.1,0
		c0,0,0.1,0,0.1,0c0.3,0,0.6,0.1,0.8,0.1c0.3,0,0.5,0.1,0.8,0.1c0.2,0.1,0.4,0.1,0.7,0.1s0.5,0,0.8,0h0.9c0.2,0,0.3,0,0.5,0
		s0.4,0,0.6-0.1V59c0-0.1-0.1-0.2-0.1-0.3c-0.1-0.1-0.1-0.2-0.2-0.3c-0.2-0.2-0.4-0.4-0.6-0.6c-0.2-0.2-0.4-0.3-0.6-0.5
		c-0.1-0.1-0.2-0.1-0.3-0.2s-0.2-0.1-0.2-0.2c-0.1-0.1-0.2-0.1-0.2-0.2c-0.1,0-0.1-0.1-0.2-0.2c-0.2-0.1-0.3-0.1-0.4-0.2
		c-0.1,0-0.2-0.1-0.2-0.2c-0.1,0-0.1-0.1-0.2-0.1c0-0.1-0.1-0.1-0.1-0.2c0,0,0-0.1,0.1-0.2s0.1-0.1,0.2-0.2c0.1,0,0.2-0.1,0.2-0.1
		c0.1,0,0.2,0,0.3,0c0.1,0,0.2,0,0.3,0c0.1,0,0.2,0,0.3,0.1c0.1,0,0.3,0,0.4,0c0.1,0,0.3,0,0.4,0c0.3,0.1,0.6,0.2,0.9,0.2
		c0.3,0.1,0.6,0.2,1,0.2c0.3,0.1,0.5,0.2,0.8,0.4c0.3,0.1,0.5,0.2,0.7,0.4c0.2,0.2,0.4,0.3,0.5,0.5c0.1,0.2,0.2,0.4,0.2,0.5
		c0,0.2,0,0.4,0,0.5c0,0.2-0.1,0.3-0.1,0.4c-0.1,0.2-0.1,0.3-0.1,0.4c0,0.1,0,0.3,0,0.4V79.5z M131.3,81.3c0,0.5,0,0.9-0.1,1.4
		c0,0.5-0.1,0.9-0.1,1.4c-0.1,0.3-0.1,0.5-0.1,0.7c0,0.2-0.1,0.5-0.1,0.7s-0.1,0.4-0.1,0.6c0,0.2-0.1,0.4-0.1,0.6
		c-0.1,0.4-0.2,0.8-0.3,1.1c-0.1,0.3-0.2,0.6-0.3,0.9c-0.2,0.3-0.3,0.4-0.4,0.6c-0.1,0.1-0.2,0.2-0.3,0.2c-0.1,0-0.2,0-0.2-0.1
		c-0.1-0.1-0.1-0.1-0.2-0.3c-0.1-0.1-0.1-0.2-0.2-0.4c0-0.2-0.1-0.3-0.1-0.5c-0.1-0.2-0.1-0.4-0.2-0.6c0-0.2-0.1-0.4-0.1-0.6
		c-0.1-0.2-0.1-0.4-0.1-0.6c0-0.2,0-0.4,0-0.6V57.5c0-0.1-0.1-0.2-0.1-0.3c-0.1-0.1-0.1-0.2-0.2-0.3c-0.2-0.2-0.4-0.4-0.6-0.6
		c-0.2-0.2-0.4-0.4-0.6-0.5c-0.2-0.1-0.4-0.2-0.5-0.3c-0.2-0.1-0.3-0.2-0.4-0.3c-0.1-0.1-0.2-0.1-0.3-0.2c-0.1,0-0.2-0.1-0.3-0.2
		c-0.1,0-0.1-0.1-0.2-0.1c0-0.1,0-0.1,0-0.2c0-0.1,0.1-0.2,0.1-0.3c0-0.1,0.1-0.1,0.2-0.1c0.1,0,0.3-0.1,0.4-0.1c0.1,0,0.2,0,0.3,0
		c0.1,0,0.2,0,0.3,0.1c0.1,0,0.2,0,0.4,0s0.3,0,0.5,0c0.3,0.1,0.6,0.2,0.9,0.2c0.3,0.1,0.6,0.2,0.9,0.2c0.3,0.1,0.6,0.2,0.8,0.4
		c0.3,0.1,0.5,0.2,0.7,0.4c0.2,0.2,0.4,0.3,0.5,0.5c0.1,0.2,0.2,0.4,0.2,0.5c0,0.2,0,0.4,0,0.5s-0.1,0.3-0.1,0.4
		c-0.1,0.2-0.1,0.3-0.1,0.4c0,0.1,0,0.3,0,0.4V81.3z"/>
	<path d="M145.8,59.5c0.2,0,0.3,0,0.5,0c0.2,0,0.3,0.1,0.5,0.1c0.2,0,0.4,0.1,0.6,0.1c0.2,0.1,0.3,0.2,0.5,0.2
		c0.1,0.1,0.3,0.2,0.4,0.2c0.1,0.1,0.2,0.3,0.2,0.4c0.1,0.2,0.1,0.3,0.1,0.5c0,0.2,0,0.3-0.1,0.4c0,0.1-0.1,0.2-0.1,0.3
		c0.5,0.1,0.9,0.2,1.4,0.4c0.5,0.2,0.9,0.4,1.3,0.6c0.4,0.3,0.7,0.6,1.1,0.9s0.7,0.6,1,0.9c0.3,0.4,0.5,0.7,0.8,1.1s0.4,0.7,0.6,1.1
		c0.2,0.4,0.3,0.8,0.3,1.2c0.1,0.4,0.1,0.7,0.1,1.1c0,0.5-0.1,1-0.2,1.5c-0.1,0.5-0.3,0.9-0.5,1.3c-0.2,0.5-0.5,0.9-0.8,1.3
		c-0.3,0.4-0.6,0.8-1,1.2c-0.4,0.4-0.8,0.7-1.2,1s-0.9,0.5-1.4,0.7c-0.5,0.2-1,0.4-1.6,0.5c-0.6,0.1-1.1,0.2-1.7,0.2
		c-0.6,0-1.2,0-1.8-0.2c-0.5-0.1-1.1-0.3-1.6-0.5c-0.5-0.2-1-0.4-1.5-0.7c-0.4-0.3-0.8-0.6-1.2-1c-0.4-0.3-0.7-0.7-1-1.1
		c-0.3-0.4-0.5-0.9-0.7-1.3c-0.2-0.5-0.4-0.9-0.5-1.4c-0.1-0.5-0.2-0.9-0.2-1.4c0-0.4,0-0.8,0.1-1.2c0.1-0.4,0.2-0.8,0.4-1.2
		c0.1-0.4,0.3-0.7,0.5-1.1s0.5-0.7,0.8-1c0.2-0.3,0.5-0.6,0.9-0.9c0.3-0.3,0.7-0.6,1.1-0.8c0.4-0.2,0.8-0.4,1.2-0.6
		c0.4-0.2,0.9-0.3,1.4-0.5c0,0,0.1,0,0.2,0c0.1,0,0.2-0.1,0.4-0.1c0.1,0,0.2-0.1,0.2-0.2c0.1-0.1,0.1-0.2,0.1-0.3c0,0,0-0.1-0.1-0.2
		s-0.1-0.1-0.1-0.2c-0.1,0-0.1-0.1-0.2-0.1s-0.1-0.1-0.1-0.1c-0.1,0-0.1-0.1-0.2-0.1c-0.1,0-0.1-0.1-0.1-0.2c-0.1,0-0.1-0.1-0.1-0.1
		c0-0.1,0-0.1,0-0.2c0,0,0-0.1,0-0.2c0-0.1,0-0.1,0.1-0.2c0.1,0,0.1-0.1,0.2-0.1c0.1,0,0.1,0,0.2-0.1c0.1,0,0.1,0,0.2-0.1
		C145.5,59.5,145.6,59.5,145.8,59.5z M151.9,67.9c-0.1-0.4-0.2-0.7-0.3-1.1c-0.2-0.3-0.4-0.6-0.6-0.9s-0.4-0.6-0.6-0.9
		c-0.3-0.2-0.5-0.4-0.8-0.7c-0.3-0.2-0.6-0.4-0.8-0.6c-0.3-0.1-0.7-0.2-1-0.3c-0.3-0.1-0.6-0.1-1-0.1c-0.4,0-0.7,0-1,0.1
		s-0.6,0.2-0.9,0.3c-0.3,0.2-0.6,0.3-0.9,0.6c-0.3,0.2-0.5,0.4-0.7,0.7c-0.3,0.3-0.6,0.6-0.7,0.9s-0.4,0.6-0.5,0.9
		c-0.2,0.4-0.3,0.7-0.3,1.1s-0.1,0.8-0.1,1.1c0,0.4,0,0.8,0.1,1.1c0,0.4,0.2,0.7,0.3,1c0.1,0.4,0.2,0.7,0.4,1
		c0.2,0.3,0.4,0.6,0.7,0.8c0.2,0.3,0.5,0.6,0.7,0.8c0.3,0.2,0.6,0.4,0.9,0.5c0.3,0.2,0.6,0.3,1,0.4s0.8,0.1,1.2,0.1
		c0.3,0,0.7,0,1-0.1c0.3-0.1,0.7-0.2,1-0.3c0.3-0.1,0.6-0.3,0.8-0.5c0.3-0.2,0.5-0.4,0.8-0.7c0.2-0.2,0.4-0.5,0.6-0.8
		c0.2-0.3,0.4-0.6,0.5-1c0.2-0.3,0.3-0.7,0.3-1.1c0.1-0.4,0.1-0.8,0.1-1.3C152,68.7,152,68.3,151.9,67.9z M164.5,81.3
		c0,0.5,0,0.9-0.1,1.4c0,0.5-0.1,0.9-0.1,1.4c-0.1,0.5-0.2,1-0.2,1.4c-0.1,0.4-0.2,0.9-0.2,1.3c-0.1,0.4-0.2,0.7-0.3,1.1
		c-0.1,0.3-0.2,0.6-0.3,0.9c-0.2,0.3-0.3,0.4-0.4,0.6c-0.1,0.1-0.2,0.2-0.3,0.2s-0.2,0-0.3-0.1s-0.1-0.1-0.2-0.2
		c-0.1-0.1-0.1-0.2-0.2-0.3c-0.1-0.1-0.1-0.3-0.1-0.4c-0.1-0.2-0.1-0.4-0.2-0.5c0-0.2,0-0.4,0-0.6c-0.1-0.2-0.1-0.4-0.1-0.6
		s0-0.4,0-0.6V58.1c0,0,0-0.1,0-0.2c0,0,0-0.1,0-0.2s0-0.1,0-0.2s0-0.1,0-0.2c0-0.1-0.1-0.2-0.1-0.3c-0.1-0.1-0.1-0.2-0.2-0.3
		c-0.2-0.1-0.3-0.2-0.4-0.3c-0.1-0.1-0.2-0.2-0.3-0.3c-0.1-0.1-0.2-0.2-0.3-0.3c-0.1-0.1-0.2-0.2-0.3-0.2c-0.2-0.1-0.3-0.2-0.5-0.3
		c-0.2-0.1-0.3-0.2-0.4-0.3c-0.2-0.1-0.3-0.1-0.4-0.2c-0.1-0.1-0.2-0.1-0.2-0.2c-0.1,0-0.1-0.1-0.2-0.2c0-0.1-0.1-0.2-0.1-0.2
		c0,0,0-0.1,0-0.1c0,0,0.1-0.1,0.1-0.2c0,0,0.1-0.1,0.2-0.1c0.1,0,0.2-0.1,0.4-0.1c0.1,0,0.2,0,0.2,0c0.1,0,0.2,0,0.3,0.1
		c0.1,0,0.3,0,0.4,0c0.1,0,0.3,0,0.5,0c0.3,0.1,0.6,0.2,0.9,0.2c0.3,0.1,0.6,0.2,1,0.2c0.3,0.1,0.6,0.2,0.9,0.4
		c0.3,0.1,0.6,0.2,0.8,0.4c0.2,0.2,0.4,0.3,0.5,0.5s0.2,0.4,0.2,0.5c0,0.2,0,0.4,0,0.5c0,0.2,0,0.3,0,0.4c-0.1,0.2-0.1,0.3-0.1,0.4
		s0,0.3,0,0.4V81.3z"/>
</g>
</svg>
