<?xml version="1.0" encoding="utf-8"?>
<!-- Generator: Adobe Illustrator 21.0.0, SVG Export Plug-In . SVG Version: 6.00 Build 0)  -->
<svg version="1.1" id="레이어_1" xmlns="http://www.w3.org/2000/svg" xmlns:xlink="http://www.w3.org/1999/xlink" x="0px"
	 y="0px" viewBox="0 0 187 233" style="enable-background:new 0 0 187 233;" xml:space="preserve">
<style type="text/css">
	.st0{fill-rule:evenodd;clip-rule:evenodd;fill:#FFFFFF;}
</style>
<path class="st0" d="M47.6,95.8c-1.1-0.5-2.2-1.1-3.3-1.4c-2.8-0.8-5.6-0.9-8.2,0.7c-0.7,0.4-1.3,0.9-1.9,1.4
	c-0.2,0.2-0.2,0.5-0.3,0.8c-0.1,0.2-0.3,0.4-0.4,0.7c0.1,0,0.1,0,0.3,0c-1.2,1-2.5,1.1-3.9,0.7c-1.4-0.4-2.2-1.4-3.1-2.5
	c-1.7-2.1-2.1-4.5-2.4-7c-0.1-1.1,0.1-2.2,0-3.3c0-0.4-0.1-0.9-0.3-1.3c-0.3-0.8-0.3-1.6,0.3-2.1c0.6-0.5,1.4-0.7,2.3-0.3
	c1.6,0.9,3.1,2,4.1,3.5c0.4,0.6,0.9,1.2,1,1.8c0.1,0.6-0.1,1.4-0.4,2c-0.3,0.6-0.9,1-1.8,0.8c-0.4-0.1-1.1,0-1.2,0.2
	c-0.2,0.4-0.2,1,0,1.4c0.5,1.1,1.1,2.1,1.6,3.1c0.3,0.6,0.8,0.5,1.1,0.2c2.4-1.8,5.1-2.7,8.1-2.6c2.7,0.1,5.3,0.6,7.5,2.1
	c0.3,0.2,0.5,0.6,0.8,0.9C47.7,95.8,47.7,95.8,47.6,95.8z"/>
<path class="st0" d="M84.3,27.4c2.3-1.8,4.8-2.6,7.5-3c3-0.4,6.1-1.4,9.1-0.3c1.5,0.5,2.9,1.1,4.3,1.8c0.4,0.2,0.5,0.9,0.7,1.4
	c-0.2,0.1-0.4,0.3-0.6,0.2c-2.3-0.8-4.6-1.9-7-2.4c-2.6-0.4-5.4-0.3-7.8,1.1c-2,1.2-3.7,2.9-4.9,5c-0.7,1.2-0.9,2.4-1,3.7
	c-0.1,0.5-0.4,1.5-0.6,1.4c-0.8-0.1-1.8,0.3-2.3-0.7c-0.7-1.3-1.2-2.7-1.9-4c-1.3-2.3-0.8-4.7-1.1-7.1c-0.2-1.6-0.6-3.2-0.9-4.8
	c-0.2-1.1-0.4-2.2-0.4-3.3c0-0.4,0.3-1,0.6-1.1c0.6-0.2,1.4-0.2,2.1,0c1.8,0.7,2.5,2.3,3.3,3.9c1.3,2.4,1.3,4.8,0.8,7.4
	C84.3,26.8,84.3,27.1,84.3,27.4z"/>
<path class="st0" d="M159.6,86.8c-0.5,0.4-0.9,0.8-1.4,1.1c-0.6,0.4-1.2,0.8-1.7,1.3c-0.1,0.1-0.2,0.5-0.1,0.7c0.8,1.5,2.1,2,4,1.8
	c2.9-0.3,5.9-0.5,8.8-0.6c1.2,0,2.4,0.2,3.6,0.4c1,0.1,1.8,0.7,2.3,1.5c0.1,0.1,0.1,0.4,0.1,0.6c-0.2,0.5-0.5,0.8-1,0.7
	c-0.6-0.2-1.3-0.5-1.7-1c-0.8-1.1-1.9-1.2-3-1.1c-2.5,0.3-4.9,0.7-7.2,1.9c-0.9,0.5-1.8,0.9-2.7,1.1c-1.3,0.2-2.7,0.2-3.9-0.4
	c-0.4-0.2-0.8-0.7-1-1.1c-0.3-0.8-0.7-1.6-0.7-2.5c0-0.7,0.4-1.5,0.7-2.2c0.3-0.6,0.8-1.1,1.6-1.2c0.6-0.1,1.3-0.1,1.9-0.3
	C158.5,87.3,159,87,159.6,86.8z"/>
<path class="st0" d="M57.1,114c-0.1,0.1-0.2,0.1-0.3,0.2c-2.2,1.6-4.5,2.9-7.1,3.7c-3,1-6.1,1.1-9.2,1c-3-0.2-6-0.3-9.1-0.4
	c-1.2-0.1-1.2-0.1-0.8-1.2c0.3-0.8,0.9-1.5,1.3-2.1c0,0-6.6,1.4-3.5,4.6c0.7,0.8,1.7,1.5,2.7,1.8c1.2,0.3,2.5,0.1,3.7,0.1
	c2.4-0.1,4.8-0.3,7.1-0.6c2.9-0.3,5.9-0.3,8.6-2c1.9-1.2,4-2.3,5.9-3.6c0.4-0.3,0.6-0.8,0.9-1.2C57.2,114.1,57.1,114,57.1,114z"/>
<path class="st0" d="M41.1,63c-0.2,0.2-0.3,0.5-0.5,0.6c-3.4,1.9-6.6,4.1-9.6,6.6c-1.8,1.5-3.9,2.3-6.3,2.2c-1.2,0-2-0.5-2.2-1.5
	c-0.5-2.4-0.9-4.9-1.2-7.3c-0.3-2.5-0.4-5-0.6-7.5c-0.1-1.5-0.1-3.1-0.2-4.6c0-0.3-0.1-0.7-0.3-0.9c-0.8-0.9-0.1-1.8,0.2-2.6
	c0.2-0.5,0.1-1.3,0.9-1.3c1,0.1,2.1,0.1,2.8,0.7c1.2,1,2.1,2.2,2.9,3.5c0.6,1-0.1,2.2-1.2,2.7c-0.2,0.1-0.5,0.4-0.5,0.6
	c0.4,3.2-0.4,6.3-1.2,9.3c-0.5,1.8,0,3.5,0.1,5.2c0,0,0,0.1,0,0.1c0.4,2.1,0.3,2.1,2.5,1.3c1.9-0.7,3.6-1.9,5.4-2.8
	c2.7-1.3,5-3.4,8-4.1c0.3-0.1,0.5-0.3,0.7-0.4C41,62.9,41,63,41.1,63z"/>
<path class="st0" d="M161.3,75.1c-0.7-0.4-1.5-0.8-2.2-1.2c-1.2-0.7-2.5-1.5-4-1.2c-0.9,0.2-1.8,0.8-2.7,1.1
	c-2.3,0.8-4.5,0.8-6.4-0.9c-1.2-1-1.2-2.5-1-4c0.2-1.4,0.9-2.5,2-3.5c1.3-1.2,2.5-2.4,3.5-3.4c-1.3-0.6-2.8-1.2-4.3-2
	c-1.1-0.6-2.2-1.3-2.3-2.8c0-0.7,0-1.5,0.2-2.1c0.1-0.3,1-0.4,1.5-0.2c1.2,0.4,2.2,1,3.4,1.4c1,0.3,2.2,0.6,3.2,0.6
	c1.5,0,3.1-0.2,4.6-0.4c0.5-0.1,1-0.6,1.5-0.7c1.5-0.4,2.9-0.2,4.2,0.6c0.7,0.5,1.2,2.5,0.8,3.3c-0.4,0.7-0.7,1.5-1.3,1.9
	c-0.6,0.4-1.6,0.7-2.3,0.6c-1.4-0.3-2,0.8-3,1.2c-1.2,0.5-2.5,1-3.7,1.6c-1.4,0.7-2.8,1.4-4.1,2.3c-0.4,0.3-0.6,0.9-0.9,1.4
	c0.9,0.4,1.8,1,2.8,1.3c0.5,0.2,1.1,0,1.6,0c2.2,0,4.3,0.3,5.8,2.2c0.7,0.8,1.7,1.5,2.5,2.2c0.2,0.2,0.4,0.3,0.7,0.4
	C161.4,74.9,161.4,75,161.3,75.1z"/>
<g>
	<path class="st0" d="M27,25.9c-1.2,0.6-2.5,1.3-3.7,1.8c-2.3,1-4.8,1.9-7.4,1.5c-0.3,0-0.7-0.3-0.9-0.5c-1-1.6-0.3-3.1,0.4-4.5
		c0.9-1.8,1.9-3.5,2.8-5.2c0.1-0.2,0.3-0.4,0.5-0.4c1.6-0.3,3.2-0.5,4.7-0.9c0.6-0.2,1.1-0.8,1.7-1.2c0.7-0.6,1.5-1.1,2.1-1.8
		c0.5-0.5,0.3-1.2-0.5-1.3c-0.5-0.1-1.1-0.2-1.6-0.1c-2.7,0.5-5.5,0.9-8.2,1.7c-4,1.2-7.4,0.4-10.3-2.6C6.5,12,6,12,5.7,11.9
		c-0.1,0.3-0.2,0.7-0.1,1c0.8,2.2,2.6,3.6,4.5,4.6c2.1,1.1,4.5,1.6,7.3,1.1c-1.3,2.3-2.5,4.4-3.7,6.4c-0.9,1.4-1.2,2.8-0.7,4.4
		c0.5,1.7,1.8,2.4,3.6,2.8c2.8,0.5,5.1-0.6,7.2-2.1c1.3-1,2.6-2.1,3.8-3.1C27.3,26.5,27.1,26.2,27,25.9z"/>
	<path class="st0" d="M43.8,23.8c-2.1,1-4.1,2.2-6.2,3.1c-2.3,1-4.8,1.9-7.4,1.5c-0.3,0-0.7-0.3-0.9-0.5c-1-1.6-0.3-3.1,0.4-4.5
		c0.9-1.8,1.9-3.5,2.8-5.2c0.1-0.2,0.3-0.4,0.5-0.4c1.6-0.3,3.2-0.5,4.7-0.9c0.6-0.2,1.1-0.8,1.7-1.2c0.7-0.6,1.5-1.1,2.1-1.8
		c0.5-0.5,0.3-1.2-0.5-1.3c-0.5-0.1-1.1-0.2-1.6-0.1c-2.7,0.5-5.5,0.9-8.2,1.7c-2.2,0.7-4.2,0.7-6.1,0.1c-0.8,0.3-1.7,0.5-2.8,0.5
		c-0.3,0-0.6,0-0.8,0c0.8,0.8,1.8,1.4,2.8,2c2.1,1.1,4.5,1.6,7.3,1.1C30.3,20,29.1,22,27.9,24c-0.9,1.4-1.2,2.8-0.7,4.4
		c0.5,1.7,1.8,2.4,3.6,2.8c2.8,0.5,5.1-0.6,7.2-2.1c1.6-1.2,3.1-2.6,4.7-3.9c0.7-0.6,1.4-1.1,2.1-1.6C44.4,23.6,44.1,23.6,43.8,23.8
		z"/>
</g>
<path class="st0" d="M94.4,47.5c-1.4,0.1-2.5,0.1-3.6,0.3c-0.6,0.1-1.2,0.5-1.9,0.7c-1.1,0.3-2.2-0.3-2.7-1.4
	c-0.5-1.1-1-2.2-1.6-3.5c0.8,0,1.4-0.1,1.9,0c2.6,0.9,5.1,0.7,7.8,0.4c1.8-0.2,3.4,0.5,4.7,1.7c1,0.9,0.8,1.9-0.2,2.6
	c-1.8,1.2-3.6,2.3-5.3,3.6c-1.2,0.8-2.2,1.9-3.5,3c1-0.4,1.8-0.7,2.6-0.9c1.5-0.4,3-0.9,4.5-1.2c1.4-0.4,3.3,1.3,2.9,2.7
	c-0.3,1.2-1,2.3-1.5,3.4C98,60,97.4,61,97,62.1c-0.3,0.6,0.1,1,0.7,0.8c0.9-0.4,1.7-0.9,2.4-1.4c0.5-0.3,1-0.7,1.4-1.1
	c0.1,0.1,0.1,0.1,0.2,0.2c-0.2,0.4-0.5,0.7-0.7,1.1c-0.3,0.5-0.7,1.1-1,1.6c-0.4,0.8-1.8,1.4-2.8,1.3c-1.4-0.1-1.9-0.5-2.2-1.8
	c-0.2-0.9-0.1-1.8,0-2.7c0-0.6,0.3-1.1,0.5-1.7c0.2-0.5,0.3-1.1,0.5-1.8c-0.7,0.1-1.4,0.1-2.1,0.2c-1.2,0.2-2.4,0.4-3.6,0.5
	c-1.1,0.1-1.7-0.6-2.1-1.4c-0.5-1.2-0.3-2,0.5-2.7c1.4-1.3,2.9-2.5,4.3-3.8C93.4,48.9,93.8,48.3,94.4,47.5z"/>
<path class="st0" d="M104.1,80.5c0.7-0.4,1.3-0.7,1.9-1.1c1-0.5,2.2,0.1,2.3,1.3c0,0.1-0.1,0.2-0.1,0.3c-1.8,2.7-2.9,5.6-3.2,8.8
	c0,0.3,0,0.7,0.1,1c0.2,0.6,0.7,0.3,1,0.2c1.2-0.6,2.3-1.3,3.5-1.9c0.7-0.4,1.4-0.6,2.2-1c0.1,0.1,0.2,0.2,0.3,0.3
	c-0.2,0.1-0.4,0.2-0.6,0.3c-2.1,1.2-4.2,2.5-6.3,3.7c-0.9,0.5-1.6-0.2-1.4-0.9c0.4-2,0.8-3.9,1.4-5.8c0.4-1.3,1.2-2.6,1.7-3.9
	c0.2-0.4,0.3-0.8,0.4-1.3c0.2-0.6-0.2-0.7-0.6-0.6c-1.5,0.4-2.8,1.2-3.8,2.5c-0.2,0.2-0.2,0.5-0.3,0.8c-0.1,0.2-0.3,0.6-0.5,0.6
	c-0.3,0-0.8-0.1-0.8-0.3c-0.1-0.3,0-0.7,0.2-1c0.7-0.9,1.6-1.6,2.3-2.6c1.3-1.7,2.5-3.5,3.8-5.3c0,0,0.1-0.1,0.1-0.2
	c0.3-0.6,0.6-1.2,0.1-1.7c-0.5-0.6-1.2-0.6-1.9-0.4c-2.1,0.7-3.9,1.9-5,3.8c-0.5,0.8-0.8,1.7-1.4,2.4c-0.4,0.4-1.1,0.6-1.7,0.8
	c-0.4,0.1-0.9,0.2-1.3,0.1c-0.6-0.2-1.1-0.5-1.6-0.8c-0.2-0.1-0.3-0.2-0.4-0.3c-0.1-0.2-0.3-0.3-0.3-0.5c-0.2-1.2,0.4-2,1.5-2.4
	c2.5-1,5-2,7.5-2.9c1.1-0.4,2.2-0.7,3.3-0.9c0.6-0.1,1.4,0.1,2,0.4c0.6,0.3,0.8,1.3,0.4,2c-0.7,1.2-1.5,2.3-2.3,3.4
	c-0.6,0.9-1.3,1.9-1.9,2.8C104.2,80.4,104.2,80.4,104.1,80.5z"/>
<path class="st0" d="M177.7,36.5c-0.3,1-0.4,2.1-0.9,3.1c-1.8,3.4-4,6.4-7.1,8.8c-0.5,0.4-1.1,0.7-1.7,0.8c-0.8,0.2-1.6-0.5-1.7-1.3
	c-0.3-2,0.4-3.8,1.1-5.5c0.6-1.5,1.1-3,1.6-4.6c0-0.1,0-0.2,0-0.3c0-1.2-0.6-1.6-1.7-1.1c-3.2,1.4-4.9,4.1-6,7.2
	c-0.3,0.9-0.1,2-0.2,3c-0.1,1.2-0.3,2.5-0.5,3.7c0,0.1-0.3,0.3-0.5,0.4c-0.1-0.2-0.4-0.4-0.4-0.6c0-2.1,0.1-4.2,0-6.2
	c-0.1-3-0.3-6-0.5-9c-0.1-1.1-0.4-2.2-0.6-3.3c-0.1-0.6,0.1-0.9,0.7-0.8c0.3,0,0.6-0.2,0.9-0.3c1.2-0.5,2.1-0.1,2.7,1.2
	c0.4,0.8,0.5,1.6,0.2,2.5c-0.4,1.4-0.8,2.9-1,4.4c1.1-0.9,2.2-1.8,3.3-2.6c0.9-0.7,1.8-1.5,3.1-1.3c2.3,0.4,3.3,1.5,2.4,3.6
	c-0.7,1.8-1.9,3.4-2.9,5.1c-0.8,1.4-1.3,2.7-0.9,4.4c0.2,0.7,0.6,0.9,1.1,0.5c1.2-0.9,2.4-1.8,3.4-3c1.7-1.9,3.2-4,4.7-6.1
	c0.5-0.7,0.8-1.6,1.2-2.5C177.5,36.4,177.6,36.4,177.7,36.5z"/>
<path class="st0" d="M50.5,219c0.9,0.3,2.1,0.5,3.1,0.9c1.7,0.7,2.8,2,3.1,3.8c0.2,1.3-0.5,2.6-1.6,3.3c-1.1,0.8-2.4,1.5-3.8,1.9
	c-3,0.8-5.9,0.3-7.9-1.9c-0.6-0.6-0.7-2.2-0.1-3.1c0.7-1.2,1.6-2.3,2.2-3.5c0.4-0.8,0.7-1.8,0.8-2.7c0.2-1.2,1.6-2.2,2.8-2
	c0.9,0.2,1,0.8,1.1,1.4C50.4,217.7,50.4,218.4,50.5,219z M48.4,227.6c0,0.1,0.1,0.1,0.1,0.2c0.8-0.3,1.7-0.5,2.4-1
	c0.7-0.5,1.3-1.3,1.8-2c0.2-0.3,0.3-0.7,0.3-1.1c0-0.3-0.1-0.5-0.2-0.8c-0.5-1.1-1-2.2-2.1-2.9c-0.2-0.1-0.7-0.2-0.9-0.1
	c-0.9,0.6-1.8,1.3-2.7,1.8c-1.2,0.7-2.2,1.5-2.9,2.6c-0.4,0.6-0.3,1.6,0.2,2C45.6,227.3,47,227.6,48.4,227.6z"/>
<path class="st0" d="M20.9,151.1c0.5,0.3,1.1,0.7,1.6,0.9c2.1,0.9,3.8,2.3,5.1,4.2c1.2,1.7,1.2,3.5,0.9,5.5
	c-0.3,1.8-0.7,3.5-2.2,4.7c-0.8,0.7-1.7,1.3-2.6,1.7c-1.8,0.8-3.6,1.5-5.5,2c-1.6,0.4-3.4-1.2-3.8-3.2c-0.5-2.4,0.1-4.7,1-7
	c0.8-2.3,1.7-4.5,2.6-6.7c0.2-0.5,1-1,1.4-1c0.7,0.1,1.5,0.5,1.4,1.6c0,2.2-1.3,3.9-2.3,5.7c-1,2-1.8,4-2,6.3
	c-0.1,1.6,0.3,1.9,1.8,1.4c2.1-0.7,4.1-1.7,5.7-3.3c2.5-2.4,2.6-6.4,0.1-8.8c-1.1-1.1-2.2-2.2-3.3-3.4c-0.1-0.1-0.2-0.3-0.3-0.5
	C20.8,151.3,20.8,151.2,20.9,151.1z"/>
<path class="st0" d="M93.5,172.3c0.6,0.3,1.2,0.7,1.8,1c2.2,1,4.1,2.4,5.5,4.5c1.2,1.8,1.3,3.8,1,5.9c-0.3,1.9-0.8,3.8-2.3,5.1
	c-0.9,0.7-1.8,1.4-2.8,1.8c-1.9,0.8-3.9,1.6-5.9,2.2c-1.7,0.5-3.6-1.2-4-3.4c-0.5-2.6,0.2-5.1,1-7.5c0.9-2.4,1.8-4.9,2.8-7.2
	c0.2-0.5,1.1-1.1,1.6-1.1c0.8,0.1,1.6,0.5,1.6,1.7c0,2.4-1.4,4.2-2.4,6.2c-1.1,2.2-2,4.3-2.2,6.7c-0.1,1.8,0.3,2,2,1.5
	c2.3-0.8,4.4-1.8,6.1-3.5c2.7-2.5,2.8-6.9,0.1-9.5c-1.2-1.2-2.4-2.4-3.6-3.6c-0.1-0.1-0.2-0.4-0.3-0.5
	C93.4,172.4,93.4,172.3,93.5,172.3z"/>
<path class="st0" d="M111,155.5c2.2,0,4,1,5.8,2.1c0.7,0.4,1,1.3,0.7,2c-0.2,0.5-0.7,0.4-1.1,0.2c-1.3-0.7-2.5-1.5-3.8-2.1
	c-1.9-0.9-2.5-0.6-3.7,1.1c-0.8,1.2-1.3,2.6-2,4c-0.1,0.2-0.4,0.3-0.6,0.5c-0.1-0.3-0.3-0.5-0.3-0.8c0-1.8,1.1-3.2,1.9-4.6
	c1.7-2.9,3.6-5.6,4.6-8.8c0.2-0.5,0.1-1,0.1-1.6c-0.4,0.2-0.9,0.3-1.3,0.5c-1.5,0.8-3.1,1.5-4.5,2.6c-1.7,1.3-3.3,1.2-5.1,0.7
	c-0.8-0.2-1.3-0.9-1.5-1.8c-0.1-0.9,0.9-1.8,1.8-1.4c1.9,0.8,3.6,0.1,5.3-0.5c1.4-0.5,2.9-1.1,4.3-1.5c2.2-0.5,4.3,1.1,3.3,3.5
	c-0.5,1.4-1.4,2.6-2.3,3.8C112.2,154.2,111.6,154.8,111,155.5z"/>
<path class="st0" d="M95.7,138.2c2.8,1.3,5.7,2.5,8.5,3.9c0.9,0.4,1.6,1.2,2.4,1.9c0.1,0.1,0,0.8-0.2,0.9c-0.4,0.3-0.9,0.4-1.3,0.5
	c-0.1-0.3-0.1-0.7-0.3-0.9c-0.3-0.3-0.6-0.7-1-0.9c-3-1.3-5.9-2.6-8.9-3.9c-0.3-0.1-0.8,0.1-1.1,0.3c-1.3,1.2-2.5,2.5-3.7,3.9
	c-0.5,0.6-0.9,1.2-1.4,1.8c-0.5,0.7-1,1.5-1.5,2.2c-0.7,0.9-1.2,1.7-1.4,2.9c0,0.4-0.5,0.8-0.7,1.1c-0.1-0.4-0.3-0.9-0.2-1.2
	c0.7-1.8,1.5-3.6,2.2-5.4c0.6-1.7,2.2-2.5,3.2-3.8c1.1-1.5,2.1-3.1,3-4.8c0.4-0.8,0-1.4-1-1.5c-1.2-0.1-2.3-0.1-3.5-0.1
	c-2.1,0-3.5-1.1-4.7-2.7c-0.3-0.4-0.6-0.7-0.9-1.1c-0.7-0.8-0.6-2.1,0.3-2.7c1.4-1,2.8-1.9,4.1-2.8c-0.7-0.5-1.5-1.1-2.4-1.6
	c-1.3-0.8-1.2-2.1-1.6-3.3c-0.3-1,0.1-1.2,1-1.1c2,0.3,4,0.4,6,0.7c1,0.2,2.2,0.5,3,1.1c1.2,1.1,0.9,2.2-0.1,3.5
	c-1.3,1.6-3,1.1-4.6,1.1c-2,0-3.3,0.9-4.6,2.1c-0.1,0.1,0.1,0.6,0.2,0.7c1.4,0.7,2.7,1.3,4.1,1.8c1.1,0.4,2.3,0.5,3.4,0.7
	c1.9,0.3,3.5,1,4.2,2.8c0.2,0.6,0,1.5-0.2,2.3C96.2,137.5,95.8,138,95.7,138.2z"/>
<path class="st0" d="M31.3,197.5c1.1-0.1,2-0.1,2.8-0.2c1.7-0.1,3.3,1.4,3,2.8c-0.2,1-0.4,2.1-0.9,3.1c-0.5,1.2-1.3,2.2-2,3.3
	c-0.1,0.1-0.2,0.4-0.2,0.4c0.7,0.7,1.4,1.4,2.1,2.1c0.5,0.5,1.4,0.9,1.6,1.6c0.4,1.4,0.7,3-0.5,4.2c-1.3,1.3-2.9,1.6-4.6,1.2
	c-1.2-0.3-2.1-1.4-1.8-3.1c0.2-1.2,0.6-2.3,1-3.5c0.3-1.1,0.6-2.2,0.9-3.4c0.1-0.2,0.1-0.4,0.2-0.6c0.2,0.1,0.4,0.2,0.6,0.3
	c1.3-1.5,2.4-3.1,1.9-5.2c-0.5-2-1.4-2.2-3.3-1.3c-1.6,0.8-2.5,2.2-3.5,3.5c-0.7,0.9-1.9,1.6-3,2c-0.7,0.3-1.7,0-2.5-0.3
	c-0.5-0.2-0.4-1.9-0.1-2.6c1.3-2.3,3.7-2.7,5.8-3.5c1.4-0.5,2.3-1.2,2.9-2.5c0.7-1.6,1.7-3.3,1.1-5.2c-0.1-0.4-0.9-0.8-1.3-0.8
	c-2.2,0.2-3.8,1.7-5.1,3.3c-1.3,1.5-4.5,2.5-6.3,1.7c-1.3-0.5-2.5-3.2-1.7-4.3c0.5-0.7,1.5-1.2,2.3-1.4c1.1-0.3,2.3-0.2,3.4-0.3
	c1.6-0.2,3.2-0.5,4.8-0.7c1.3-0.2,2.7-0.5,3.9,0.5c0.4,0.3,0.8,0.8,0.9,1.2c0.4,1.7,0.2,3.3-0.9,4.8
	C32.2,195.6,31.8,196.5,31.3,197.5z M32.6,209.6c-0.3,0.9-1.3,2-0.3,3.4c0.3,0.4,0.7,0.8,1.1,0.9c0.3,0.1,0.9-0.4,1-0.7
	c0.2-0.4,0.2-1.1-0.1-1.4C33.8,210.9,33.1,210.2,32.6,209.6z"/>
<path class="st0" d="M113.7,141.2c0.9-0.6,1.7-1.2,2.5-1.7c1.9-0.9,3.8-1.5,6-1.5c0.9,0,1.8,0.1,2.7,0.1c0.4,0,0.7-0.2,1.1-0.3
	c-0.2,0.6-1.3,1.2-2,1c-2.9-0.7-5.4,0.3-7.6,2.2c-0.3,0.3-0.4,0.8-0.6,1.2c-0.4,0.9-0.9,1.8-1.4,2.6c-0.2,0.4-0.7,0.4-1.2,0.2
	c-0.2-0.1-0.5-0.1-0.7-0.2c-1-0.5-1-0.8-0.7-1.9c0.2-0.8,0.3-1.6,0.4-2.4c0-1.1,0-2.2,0-3.3c0-1.7-0.1-3.5-0.2-5.2
	c-0.1-1.6-0.5-3.2-1.6-4.4c-0.3-0.3-0.6-0.7-0.8-1.1c-0.3-0.6,0.3-1.3,0.9-1.6c0.9-0.4,1.7,0,2.2,0.5c0.6,0.5,1.1,1.3,1.4,2
	c0.4,1,0.8,2.1,0.9,3.2c0.2,1.4,0.1,2.9,0,4.3c-0.1,1.2-0.3,2.3-0.6,3.4c-0.2,0.8-0.5,1.6-0.8,2.4
	C113.7,140.9,113.7,141,113.7,141.2z"/>
<path class="st0" d="M173,20c0.8-1.1,1.5-2.3,2.6-3.1c1.1-0.9,2.5-1.6,3.9-2.1c1.3-0.5,2.7-0.6,4-0.8c0.1,0,0.2,0,0.2,0
	c0.3,0,0.6,0,0.9,0c-0.3,0.2-0.5,0.4-0.8,0.6c-0.3,0.2-0.6,0.4-0.8,0.6c-0.8,1-2.4,1.9-4.1,1.2c-0.4-0.1-1,0-1.4,0.2
	c-2.2,1.3-4.1,3.1-5.1,5.3c-0.9,2-1.1,4.3-1.6,6.5c-0.2,0.7-0.3,1.3-0.5,2c0,0.1-0.3,0.2-0.5,0.3c-0.1-0.2-0.2-0.4-0.2-0.6
	c0.2-1.5,0.5-2.9,0.6-4.4c0.2-2.2,0.5-4.4,0.6-6.6c0.1-2.1-0.1-4.2-0.3-6.3c-0.1-0.9-0.7-1.9-1.1-2.7c-0.4-0.8-0.4-1.8-1.3-2.4
	c-0.2-0.1,0-1.1,0.2-1.4c0.9-0.8,1.8-1.6,3.2-1.2c1.1,0.3,1.9,1,2.1,2.1c0.2,1.6,0.3,3.1,0.4,4.7c0.1,1.1,0.1,2.2,0.2,3.3
	c0.1,1.4-0.6,2.6-1.2,3.7c-0.1,0.3-0.2,0.6-0.3,0.9C172.9,19.9,173,20,173,20z"/>
<path class="st0" d="M48.2,44.9c-0.4,0.7-0.9,1.4-1.3,2.2c-0.7,1.2-1.3,2.4-2.1,3.6c-0.2,0.4-0.7,0.6-1.3,1.1
	c1.4-2.4,2.5-4.6,3.8-6.7c0.3-0.5,1.1-0.7,1.6-1.1c0.5,0.5,1.1,0.8,1.4,1.4c0.7,1.3,1.6,2.7,1.7,4c0.1,1.4-0.7,2.9-1.1,4.4
	c-0.5,1.5-1,3-1.4,4.5c-0.1,0.3,0.2,0.9,0.5,1.1c0.4,0.2,1.3,0.3,1.7,0.1c3.3-1.3,6.5-2.8,9.7-4.1c1.5-0.6,3.1-0.9,4.7-1.2
	c0.4-0.1,0.9,0.3,1.4,0.4c-0.3,0.5-0.4,1.1-0.8,1.4c-2.7,1.6-5.4,3.2-8.2,4.7c-2,1.1-3.2,2.7-4.5,4.2c-2.5,2.9-3.4,6.1-4.3,9.5
	c-1,3.7-2.5,7.4-3.7,11.1c-0.1,0.2-0.2,0.4-0.5,0.5c0.1-0.7,0.3-1.3,0.4-2c0.8-4.2,1.7-8.4,2.3-12.6c0.4-2.8,1.9-5.2,3.5-7.6
	c1.2-1.7,2.6-3.4,3.6-4.6c-0.7,0.2-2.1,0.7-3.5,1.1c-2.3,0.7-4.2-0.1-4.3-1.9c0-2.7,0.4-5.4,0.7-8.1c0.1-1.4,0.3-2.9,0.4-4.3
	c0-0.3-0.1-0.5-0.2-0.8C48.5,44.9,48.3,44.9,48.2,44.9z"/>
<path class="st0" d="M112.7,209.7c-1.8-2.5-1.7-5.2-1.6-8c0.2-3.8,2.1-6.5,4.8-9c3.4-3.1,6.7-6.1,10.1-9.2c0.5-0.4,0.8-1,1.2-1.5
	c-1,0.1-2.3,0.1-3.4,0.5c-1.6,0.5-3.3,1.2-4.7,2.1c-1,0.7-1.7,1.9-2.4,3c-0.2,0.4,0,1,0,1.5c-0.3,2.3-1,3-3.2,3.3
	c-1.1,0.1-3.1-1.9-2.9-3c0.2-1.4,0.7-2.8,1.1-4.2c0.9-3.7,1.7-7.4,2.8-11c0.8-2.8,0.7-5.7,0.7-8.6c0-0.3,0.2-0.8,0.4-0.9
	c0.3-0.1,0.8,0.1,1,0.3c2.5,1.9,3.3,5.7,1.4,8.5c-2.8,4.1-4.7,8.6-6.1,13.3c-0.2,0.5-0.3,1.1-0.4,1.6c0,0.2,0.3,0.4,0.5,0.5
	c0.1,0,0.4-0.1,0.6-0.3c1.3-1.4,2.4-3.1,3.9-4.2c3.5-2.6,7.4-4.5,12-4.3c0.4,0,0.8,0.2,1.1,0.5c0.6,0.5,0.6,1-0.2,1.6
	c-2.2,1.4-4.5,2.8-6.5,4.5c-3,2.5-5.9,5.2-7.9,8.7c-1.7,3-2.5,6.3-2,9.9c0.1,1.1,0.2,2.3,0.2,3.4C113,209,112.8,209.3,112.7,209.7z"
	/>
<path class="st0" d="M107.2,49.5c-1.8-2.5-1.7-5.2-1.6-8c0.2-3.8,2.1-6.5,4.8-9c3.4-3.1,6.7-6.1,10.1-9.2c0.5-0.4,0.8-1,1.2-1.5
	c-1,0.1-2.3,0.1-3.4,0.5c-1.6,0.5-3.3,1.2-4.7,2.1c-1,0.7-1.7,1.9-2.4,3c-0.2,0.4,0,1,0,1.5c-0.3,2.3-1.1,3-3.2,3.3
	c-1.1,0.1-3.1-1.9-3-3c0.2-1.4,0.7-2.8,1.1-4.2c0.9-3.7,1.7-7.4,2.8-11c0.8-2.8,0.7-5.7,0.7-8.6c0-0.3,0.2-0.8,0.4-0.9
	c0.3-0.1,0.8,0.1,1,0.3c2.5,1.9,3.3,5.8,1.5,8.5c-2.8,4.1-4.7,8.6-6.2,13.3c-0.2,0.5-0.3,1.1-0.4,1.6c0,0.2,0.3,0.4,0.5,0.5
	c0.2,0,0.4-0.1,0.6-0.3c1.3-1.4,2.4-3.1,3.9-4.2c3.5-2.6,7.5-4.5,12-4.3c0.4,0,0.8,0.2,1.1,0.5c0.6,0.5,0.6,1-0.2,1.6
	c-2.2,1.4-4.5,2.8-6.5,4.5c-3,2.5-5.9,5.2-7.9,8.7c-1.7,3-2.5,6.3-2.1,9.9c0.1,1.1,0.2,2.3,0.2,3.4
	C107.5,48.9,107.3,49.2,107.2,49.5z"/>
<path class="st0" d="M55.7,5.8c-1,0.6-1.6,1.6-2.1,2.7c-0.3,0.6-0.6,1.3-0.8,1.9c-0.6,1.9-2,3.1-3.3,4.5c-1.6,1.8-3.2,3.6-4.9,5.2
	c-1.3,1.2-2.8,2.6-4.8,2.3c-0.8-0.1-1.5-1.1-2.3-1.6c0.3-0.3,0.5-0.8,0.8-0.9c1.4-0.5,2.9-0.7,4.2-1.3c3.2-1.6,6.4-3.3,8.7-6.1
	c0.8-1,1.2-2.4,1.8-3.7c0.5-1.1,0.9-2.3,1.6-3.2c0.4-0.6,1.4-1.3,1.9-1.1c0.9,0.2,1.9,0.9,2.5,1.6c1.3,1.8,0.9,4,0.4,5.8
	c-0.9,3.5-2.5,6.9-3.5,10.4c-0.7,2.8-1,5.7-1.3,8.5c-0.4,3.3,0.5,6.5,1.2,9.6c0.2,0.8,0.3,1.6,0.3,2.3c0,0.2-0.2,0.4-0.3,0.6
	c-0.1-0.2-0.3-0.3-0.3-0.5c-0.7-3.6-1.6-7.2-2-10.8c-0.5-4.5-0.1-9,1.2-13.5c0.9-3.2,1.4-6.5,1.3-9.8C55.9,7.7,55.8,6.8,55.7,5.8z"
	/>
<g>
	<path class="st0" d="M57.5,169.8c-1.8,0.5-3.6,1.1-5.3,1.6c-2.5,0.8-4.8,0-7-1.1c-0.9-0.5-1.7-1.3-2.7-1.7
		c-0.7-0.3-1.5-0.3-2.2-0.6c-1.3-0.6-2.7-1.1-3.8-2c-0.6-0.5-0.8-1.5-1.2-2.3c0.6-0.2,1.2-0.6,1.8-0.6c2.3,0,4.6,0.3,6.9,0.2
		c2-0.1,4-0.5,6.1-0.6c2.1-0.1,4.3-0.1,6.4,0c1.6,0.1,2.8-1,2.7-2.6c-0.3-2.9-0.5-5.9-0.8-8.8c-0.1-1-0.2-1.9-0.3-2.9
		c-0.1-1.6,1-2.4,2.2-2.8c0.7-0.2,1.9,0.1,2.4,0.7c1,1.1,1.8,2.4,2.4,3.8c0.2,0.5-0.7,1.5-1.1,2.2c-0.2,0.4-0.5,0.7-0.6,1
		c-0.4,1.1-1,2.2-1.1,3.3c-0.3,2.1-0.5,4.3-0.5,6.5c-0.1,2.1,0.3,4.3,0,6.4c-0.2,1.5-1.2,3-2.1,4.3c-1.4,2.1-1.7,4.4-2,6.8
		c-0.1,1.5-0.1,3-0.2,4.4c0,0.3-0.4,0.7-0.6,1c-0.3-0.3-0.8-0.7-0.8-1c0.1-3.1,0.3-6.2,0.6-9.3c0.2-1.8,0.5-3.5,0.8-5.3
		C57.5,170.1,57.5,169.8,57.5,169.8z"/>
	<path class="st0" d="M30.4,156.9c3.8-0.3,7.6-0.6,11.4-0.9c3.3-0.2,6.7-0.5,10-0.7c0.9,0,1.9,0.1,2.8,0.3c1.1,0.2,1.3,1.1,0.8,2.1
		c-0.9,1.8-2.6,1.6-4.2,2c-3.1,0.6-5.9-0.3-8.8-1c-3.3-0.9-6.5-0.2-9.6,0.9c-1.3,0.5-2.5,1.2-3.9,1.4c-0.6,0.1-1.6-0.5-2.1-1
		c-0.3-0.4-0.3-1.4,0-1.9C27.5,156.6,29,156.7,30.4,156.9z"/>
</g>
<g>
	<path class="st0" d="M166.4,82.1c0.8-0.8,0.3-1-0.2-1.2c-1-0.2-2-0.5-2.9-0.4c-2.1,0.1-4.2,0.3-6.3,0.8c-1.9,0.4-3.6,1.2-5.4,1.8
		c-0.6,0.2-1.5,0.4-1.9,0.8c-0.8,1.1-1.7,1.2-2.8,0.9c-0.7-0.2-1.5-0.1-2.2-0.3c-1.1-0.3-2.1-0.8-2.6-1.8c-0.2-0.4-0.1-1.1,0.1-1.6
		c0.1-0.3,0.7-0.4,1.1-0.5c0.7-0.1,1.4,0.1,2.1,0.6c0.3,0.3,1,0.1,1.5,0.1c4.3-0.6,8.6-1.2,12.9-1.7c1.9-0.2,3.9-0.4,5.9,0.2
		c0.8,0.2,1.7,0.3,1.9,1.3c0,0.2-0.1,0.5-0.3,0.7C167.2,82.1,166.9,82.1,166.4,82.1z"/>
	<path class="st0" d="M153.7,72.6c0.5,0.3,1,0.4,1.3,0.7c0.5,0.4,1.1,0.9,1.5,1.4c0.7,0.9,0.6,1.6,0,2.1c-1,0.7-1.8,1.5-2.2,2.7
		c0,0.1-0.2,0.1-0.3,0.1c0-0.1,0-0.2,0-0.3c0-1.2,0.2-2.5,0.1-3.7c-0.1-0.7-0.6-1.3-0.9-1.9c-0.1-0.2-0.2-0.5-0.1-0.7
		C153.2,72.9,153.5,72.8,153.7,72.6z"/>
</g>
<path class="st0" d="M116.9,65.7c-2.3,0.3-4.9,0.6-7.4,1.1c-4.2,0.8-8.4,1.6-12.6,2.7c-3.7,1-7.4,2.2-10.9,3.5c-2.1,0.8-3.9,2-5.9,3
	c-0.2,0.1-0.6,0.1-0.8,0c-0.1,0-0.1-0.5,0-0.6c0.4-0.6,0.7-1.3,1.3-1.6c4.4-2.5,9.1-4.5,14-5.8c3.2-0.9,6.3-1.8,9.5-2.4
	c4.7-0.8,9.4-1.4,14.2-2c1.1-0.1,2.4,0.3,3.5,0.8c0.5,0.2,0.9,1.2,0.9,1.9c0,0.8-0.3,1.5-1.4,1.5c-0.7,0-1.4,0.1-2.1,0.1
	c-0.1,0-0.4-0.7-0.3-0.8c0.9-0.9,0.2-1.1-0.5-1.2C118,65.8,117.6,65.7,116.9,65.7z"/>
<path class="st0" d="M47.7,107.1c-5.9,0-11.5-0.1-17.1,0c-2,0-3.9,0.4-5.9,0.7c-0.9,0.2-1.8,1-2.6,1c-2.3-0.2-4.7-0.8-6.1-3
	c-0.1-0.1-0.2-0.2-0.3-0.3c-0.2-0.4-0.5-0.9-0.7-1.3c0.5-0.1,1-0.4,1.5-0.3c1,0.2,2,0.5,3.1,0.8c2.6,0.6,5.2,0.8,7.9,0.7
	c3.6-0.1,7.2,0.2,10.8,0.2c2.7,0,5.3,0.1,8-0.2c4-0.5,7.9-1.3,11.8-2c0.6-0.1,1.1-0.2,1.7-0.3c0.2,0,0.4,0.1,0.6,0.1
	c-0.1,0.2-0.2,0.4-0.4,0.5c-1.8,0.7-3.5,1.4-5.3,1.9C52.2,106.1,49.8,106.6,47.7,107.1z"/>
<g>
	<path class="st0" d="M43.5,190.1c0.8,0.1,1.1,0.6,1.3,1.2c0.2,0.8,0.2,1.7,0.5,2.4c1.3,3-0.2,5.7-0.7,8.5c-0.2,1.1-0.4,2.2-0.5,3.4
		c0,0.4,0.2,0.9,0.4,1.2c0.3,0.5,0.7,0.8,1.3,0.1c1.7-1.7,3.3-3.6,5.3-5c1.8-1.2,4-1.9,6-2.7c0.2-0.1,0.6,0,0.9,0
		c-0.9,0.4-1.7,0.8-2.5,1.1c-2.6,1.1-4.1,3-5,5.6c-0.5,1.3-1,2.7-1.8,3.9c-0.8,1.4-3.2,2.2-4.5,1.7c-1.4-0.6-1.9-1.7-2.2-3.1
		c-0.7-3.2,0-6.2,0.9-9.2c0.7-2.5,1.1-5,0.9-7.5C43.7,191.2,43.6,190.7,43.5,190.1z"/>
	<path class="st0" d="M55.8,210.7c0.3-1.7,0.6-3.3,0.7-5c0.3-3.7,0.5-7.4,0.7-11.1c0.1-1.6-0.7-2.7-1.9-3.8
		c-0.5-0.5-0.4-1.5-0.5-2.3c0-0.1,1.1-0.4,1.6-0.3c1.1,0.2,2.4,0.4,3.1,1.5c0.6,0.8,1.2,1.7,1.4,2.6c0.1,0.6-0.2,1.6-0.7,2.1
		c-0.9,0.9-1,1.9-0.9,2.9c0.4,3.2-0.1,6.3-1.2,9.4c-0.4,1.1-1.1,2.1-1.3,3.2c-0.2,1,0.2,2.2,0.4,3.3c0.2,1.3,1,1.9,2.2,2.3
		c0.1,0,0.1,0.6,0.1,0.6c-0.3,0.1-0.6,0.2-0.9,0.1c-1.4-0.7-1.7-2.2-2.3-3.5C56.1,212,56,211.3,55.8,210.7z"/>
</g>
<path class="st0" d="M172.2,77.9c0.3-1.8,0.6-3.5,0.8-5.2c0.3-3.9,0.5-7.8,0.7-11.6c0.1-1.7-0.8-2.9-2-4c-0.5-0.5-0.5-1.6-0.5-2.4
	c0-0.1,1.1-0.5,1.7-0.3c1.2,0.2,2.5,0.4,3.2,1.6c0.6,0.9,1.3,1.8,1.5,2.8c0.1,0.7-0.2,1.7-0.8,2.2c-0.9,0.9-1.1,2-1,3
	c0.4,3.4-0.1,6.7-1.2,9.8c-0.4,1.1-1.2,2.2-1.4,3.4c-0.2,1.1,0.2,2.3,0.4,3.4c0.2,1.3,1.1,2,2.3,2.4c0.1,0,0.1,0.6,0.1,0.7
	c-0.3,0.1-0.7,0.3-0.9,0.1c-1.5-0.7-1.8-2.3-2.4-3.6C172.5,79.3,172.4,78.6,172.2,77.9z"/>
<path class="st0" d="M143.5,15c1.7-0.1,3.3,0,5-0.3c3.6-0.6,7.2-1.4,10.9-2.2c1.2-0.2,2.5,0.8,2.5,1.6c0,0.5-0.5,1.3-1.1,1.6
	c-1.8,1-3.7,1.9-5.6,2.8c-2.3,1.2-4,2.9-5.2,5.2c-0.1,0.2-0.1,0.5,0,0.7c0,0.1,0.3,0.2,0.5,0.2c3.2-0.7,6.2,0.1,9.3,0.5
	c1.4,0.2,2.8,0.6,4.3,0.9c0.3,0.1,0.5,0.4,0.8,0.6c-0.2,0.1-0.4,0.3-0.6,0.5c0,0.1,0,0.3,0.1,0.4c-1.8-0.4-3.6-0.8-5.4-1.4
	c-3.5-1.1-6.9-0.9-9.7,1.3c-1.1,0.9-1.6,2.6-2.3,4c-0.3,0.5-0.2,1.3-0.5,1.8c-0.2,0.4-0.9,0.7-1.3,0.6c-0.4-0.1-1-0.7-1-1.1
	c0.2-2.8,0.1-5.7,1.6-8.2c0.8-1.2,2.1-2.1,3.2-3.1c2.3-1.8,4.6-3.6,6.8-5.6c-2.1,1-4.3,2.1-6.5,3c-1.9,0.8-3.9,1.8-5.9,2.2
	c-1.7,0.4-2.9-1.2-3.9-2.4c-0.5-0.6-1.1-1.2-1.5-1.9c-0.1-0.2,0.2-0.8,0.5-1c2.9-1.3,5.8-2.6,8.8-3.9c0.7-0.3,1.4-0.6,2.1-0.9
	c0.1-0.1,0.2-0.5,0.1-0.6c-1.7-1.3-1.8-3.3-2.4-5.2c-0.2-0.6-0.5-1.2-0.8-2.1c1,0.6,1.8,1,2.6,1.5c0.3,0.1,0.6,0.1,0.9,0.2
	c1.9,0.4,3.8,0.8,5.6,1.4c1.2,0.4,1.8,2.5,1.3,3.8c-1,2.4-3.1,1.8-4.9,2.2c-1.8,0.3-3.5,0.7-5.3,1.2c-1,0.3-1.9,0.8-2.9,1.2
	C143.5,14.8,143.5,14.9,143.5,15z"/>
</svg>
