<?xml version="1.0" encoding="utf-8"?>
<!-- Generator: Adobe Illustrator 21.0.0, SVG Export Plug-In . SVG Version: 6.00 Build 0)  -->
<svg version="1.0" id="레이어_1" xmlns="http://www.w3.org/2000/svg" xmlns:xlink="http://www.w3.org/1999/xlink" x="0px"
	 y="0px" viewBox="0 0 161 141" enable-background="new 0 0 161 141" xml:space="preserve">
<g>
	<path fill="#FF0000" d="M144,15.8c-1.8-2.4-4.4-4.3-7.7-5.5c-9.2-3.2-16.9,2.6-19.4,10.7c-0.7,2.2-0.7,4.5-0.3,6.8
		c1.4,8.5,8.2,17,8.2,17s16.1-4.9,20.5-14C147.8,25.7,147.2,20.1,144,15.8z"/>
	<g>
		<path fill="none" stroke="#FCFFF9" stroke-miterlimit="10" d="M76.4,71.7c-1.6,7.8-0.2,14.6,3.1,21.7c3,6.4,7.2,16.5,0,21.8"/>
		<path fill="#B7B3FF" d="M81.5,34.7c-3-1.5-6.5-2.2-10.4-1.7c-10.7,1.3-15.7,10.9-14.2,20.1c0.4,2.5,1.5,4.8,3,7
			c5.6,7.9,16.4,13,16.4,13s13.7-12.8,13.7-24C90.1,42.7,86.7,37.3,81.5,34.7z"/>
	</g>
	<g>
		<path fill="#2A85FF" d="M57.7,67.3c-2.6-5.3-7.6-8.4-13.1-8.5c-3.1-0.1-6.3,0.8-9.4,2.8c-8.5,5.5-8.7,15.5-3.7,22.6
			c1.4,1.9,3.2,3.4,5.4,4.6C44.8,93.1,56,93,56,93S62.3,76.7,57.7,67.3z"/>
		<path fill="none" stroke="#FFFFFF" stroke-miterlimit="10" d="M56.5,92.5c0,0,7,18,23,23"/>
	</g>
	<g>
		<path fill="#FFB612" d="M118.3,76.8c-0.9-2.7-2.6-5.2-5.3-7.2c-7.3-5.6-16-2.7-20.5,3.8c-1.2,1.7-1.9,3.8-2.3,6
			c-1.3,8.1,2.3,17.6,2.3,17.6s15.9,0.4,22.6-6.4C118.8,86.8,119.9,81.6,118.3,76.8z"/>
		<path fill="none" stroke="#FFFFFF" stroke-miterlimit="10" d="M92.5,97.5c0,0,4,14-12,18"/>
	</g>
	<path fill="none" stroke="#FFFFFF" stroke-miterlimit="10" d="M124.5,44.5c2.8,7.9,3.4,19.6-1.6,26.7c-4.8,6.8-15.2,10.2-17.3,18.7
		c-0.8,3.4-0.6,7-0.7,10.5c-0.1,4.8-0.6,9.6-2.2,14.1c-2,5.4-5.7,9.6-10.3,13.1"/>
</g>
</svg>
