<?xml version="1.0" encoding="utf-8"?>
<!-- Generator: Adobe Illustrator 21.0.0, SVG Export Plug-In . SVG Version: 6.00 Build 0)  -->
<svg version="1.0" id="레이어_1" xmlns="http://www.w3.org/2000/svg" xmlns:xlink="http://www.w3.org/1999/xlink" x="0px"
	 y="0px" viewBox="0 0 483 153" enable-background="new 0 0 483 153" xml:space="preserve">
<linearGradient id="SVGID_1_" gradientUnits="userSpaceOnUse" x1="231.9797" y1="33.6295" x2="231.9797" y2="83.7935">
	<stop  offset="0" style="stop-color:#DEF8FF"/>
	<stop  offset="0.3393" style="stop-color:#E4F9FF;stop-opacity:0.7625"/>
	<stop  offset="0.7892" style="stop-color:#F5FDFF;stop-opacity:0.4475"/>
	<stop  offset="1" style="stop-color:#FFFFFF;stop-opacity:0.3"/>
</linearGradient>
<path fill="url(#SVGID_1_)" d="M80.3,92.1c23.8,0.3,47.6-1.6,53.6-0.2c21.8,5.1,41.2,16.8,63.3,21c24.9,4.8,50.7,3,75.7-0.5
	c24.7-3.5,49.2-8.9,74.1-11.4c24.5-2.5,49,0,73.5-4.1c7.5-1.2,16.4-4.4,17.7-11.9c5-30.7-47.7-35.5-67.7-35.1
	c-22.6,0.5-45,5.1-67.7,5.1C242,55.5,196.4,18.1,134.9,41.1c-19.7,7.4-39.7,16-60.8,15.6c-10.8-0.2-62.6-1.3-45.1,25
	C37.2,94,68.1,92,80.3,92.1z"/>
</svg>
