<?xml version="1.0" encoding="utf-8"?>
<!-- Generator: Adobe Illustrator 16.0.0, SVG Export Plug-In . SVG Version: 6.00 Build 0)  -->
<!DOCTYPE svg PUBLIC "-//W3C//DTD SVG 1.1//EN" "http://www.w3.org/Graphics/SVG/1.1/DTD/svg11.dtd">
<svg version="1.1" id="Layer_1" xmlns="http://www.w3.org/2000/svg" xmlns:xlink="http://www.w3.org/1999/xlink" x="0px" y="0px"
	 width="64.23px" height="64.23px" viewBox="0 0 64.23 64.23" enable-background="new 0 0 64.23 64.23" xml:space="preserve">
<g>
	
		<path fill="#FFFFFF" stroke="#2D2E30" stroke-width="2.5" stroke-linecap="round" stroke-linejoin="round" stroke-miterlimit="10" d="
		M54.006,26.049c0-6.764-4.965-12.248-11.082-12.248c-5.006,0-9.19,3.693-10.565,8.729c-0.061,0.028-0.115,0.05-0.133,0.058
		c-1.357-5.066-5.554-8.787-10.577-8.787c-5.362,0-9.833,4.208-10.861,9.798c-0.25,0.78-0.424,1.64-0.424,2.688
		c0,13.318,21.821,28.235,21.821,28.235s21.821-14.917,21.821-28.235c0-0.04-0.012-0.067-0.012-0.108
		C53.994,26.134,54.006,26.094,54.006,26.049z"/>
	
		<circle fill="#FFFFFF" stroke="#2D2E30" stroke-width="2" stroke-linecap="round" stroke-linejoin="round" stroke-miterlimit="10" cx="42.901" cy="27.123" r="4.578"/>
</g>
</svg>
