<?xml version="1.0" encoding="utf-8"?>
<!-- Generator: Adobe Illustrator 16.0.0, SVG Export Plug-In . SVG Version: 6.00 Build 0)  -->
<!DOCTYPE svg PUBLIC "-//W3C//DTD SVG 1.1//EN" "http://www.w3.org/Graphics/SVG/1.1/DTD/svg11.dtd">
<svg version="1.1" id="Layer_1" xmlns="http://www.w3.org/2000/svg" xmlns:xlink="http://www.w3.org/1999/xlink" x="0px" y="0px"
	 width="64.23px" height="64.23px" viewBox="0 0 64.23 64.23" enable-background="new 0 0 64.23 64.23" xml:space="preserve">
<g>
	<path fill="#FFFFFF" d="M7.978,48.313c-0.69,0-1.25-0.561-1.25-1.25V9.626c0-0.689,0.56-1.25,1.25-1.25h48.274
		c0.69,0,1.25,0.561,1.25,1.25v37.438c0,0.689-0.56,1.25-1.25,1.25L7.978,48.313L7.978,48.313z"/>
	<path fill="#2D2E30" d="M56.253,9.626v37.438H7.978V9.626H56.253 M56.253,7.126H7.978c-1.381,0-2.5,1.119-2.5,2.5v37.438
		c0,1.381,1.119,2.5,2.5,2.5h48.274c1.381,0,2.5-1.119,2.5-2.5V9.626C58.753,8.245,57.634,7.126,56.253,7.126L56.253,7.126z"/>
</g>
<g>
	<path fill="#FFFFFF" d="M15.541,40.906c-0.552,0-1-0.447-1-1V16.782c0-0.552,0.448-1,1-1h33.148c0.552,0,1,0.448,1,1v23.124
		c0,0.553-0.448,1-1,1H15.541z"/>
	<path fill="#2D2E30" d="M48.689,16.782v23.124H15.541V16.782H48.689 M48.689,14.782H15.541c-1.104,0-2,0.896-2,2v23.124
		c0,1.105,0.896,2,2,2h33.148c1.104,0,2-0.895,2-2V16.782C50.689,15.678,49.794,14.782,48.689,14.782L48.689,14.782z"/>
</g>
<g>
	<path fill="#2D2D2D" d="M25.186,32.876v-1.164c0.739-0.73,1.358-1.363,1.857-1.899c0.499-0.536,0.905-1.007,1.219-1.414
		c0.314-0.406,0.545-0.771,0.693-1.095c0.148-0.323,0.245-0.646,0.291-0.97c0.074-0.49,0-0.864-0.222-1.123
		c-0.222-0.258-0.591-0.379-1.108-0.36c-0.342,0.019-0.691,0.139-1.046,0.36c-0.356,0.222-0.663,0.471-0.922,0.749l-0.956-1.386
		c0.397-0.499,0.873-0.889,1.427-1.171c0.555-0.282,1.173-0.423,1.857-0.423c0.536,0,0.995,0.093,1.379,0.277
		c0.383,0.185,0.697,0.425,0.942,0.721c0.245,0.296,0.42,0.624,0.526,0.984c0.106,0.36,0.146,0.711,0.118,1.053
		c-0.028,0.462-0.106,0.892-0.236,1.289c-0.129,0.397-0.314,0.792-0.554,1.185s-0.541,0.797-0.901,1.212
		c-0.36,0.416-0.79,0.869-1.289,1.358h3.229v1.815H25.186z"/>
	<path fill="#2D2D2D" d="M36.259,32.876v-1.649h-3.811v-1.386l3.701-6.86h2.064v6.542h1.109v1.705h-1.109v1.649H36.259z
		 M36.259,29.522v-3.396l-1.69,3.396H36.259z"/>
</g>
<line fill="none" stroke="#2D2E30" stroke-width="2.5" stroke-linecap="round" stroke-linejoin="round" stroke-miterlimit="10" x1="32.115" y1="48.629" x2="32.115" y2="54.604"/>
<line fill="none" stroke="#2D2E30" stroke-width="2.5" stroke-linecap="round" stroke-linejoin="round" stroke-miterlimit="10" x1="16.435" y1="54.604" x2="47.795" y2="54.604"/>
</svg>
