<?xml version="1.0" encoding="utf-8"?>
<!-- Generator: Adobe Illustrator 21.0.0, SVG Export Plug-In . SVG Version: 6.00 Build 0)  -->
<svg version="1.1" id="레이어_1" xmlns="http://www.w3.org/2000/svg" xmlns:xlink="http://www.w3.org/1999/xlink" x="0px"
	 y="0px" viewBox="0 0 1920 678" style="enable-background:new 0 0 1920 678;" xml:space="preserve">
<style type="text/css">
	.st0{fill:#388E3C;fill-opacity:0.83;}
	.st1{fill:#4CAF50;fill-opacity:0.84;}
	.st2{fill:none;stroke:#8421F7;stroke-miterlimit:10;}
	.st3{fill:none;stroke:#FFC9C0;stroke-miterlimit:10;}
	.st4{fill:none;stroke:#FFEEE1;stroke-width:3;stroke-linejoin:round;}
	.st5{fill:none;stroke:#FFEEE1;stroke-width:3;stroke-linejoin:round;stroke-dasharray:76.429,191.0724;}
	.st6{fill:#DEF1F9;}
	.st7{fill:#810035;}
	.st8{fill:#4CAF50;}
	.st9{fill:url(#SVGID_1_);}
	.st10{fill:#F7F7F7;}
	.st11{fill:url(#SVGID_2_);}
	.st12{opacity:0.79;fill:#E8C434;}
	.st13{opacity:0.895;fill:url(#SVGID_3_);}
	.st14{fill:url(#SVGID_4_);}
	.st15{fill:#000507;fill-opacity:0.23;}
	.st16{fill:#E6FFFA;}
	.st17{fill:#4BE7FF;}
	.st18{fill:#91B1C1;}
	.st19{fill:#A6CBDD;}
	.st20{fill:#FFFFFF;}
	.st21{fill:url(#);fill-opacity:0.4;}
	.st22{fill:url(#);}
	.st23{fill:url(#);fill-opacity:0.57;}
	.st24{fill:#B2E6EA;}
	.st25{fill:#8ACC0A;}
	.st26{fill:none;}
	.st27{fill:#FF8B85;}
	.st28{fill:#A0CC00;}
	.st29{fill:#E8BDA6;}
	.st30{fill:#669D2B;}
	.st31{fill:#4CAF50;fill-opacity:0.92;}
	.st32{fill:#E8C434;}
	.st33{fill:#199E42;}
	.st34{fill:#43A047;}
	.st35{fill:#60AF46;}
	.st36{fill:#3A8E28;}
	.st37{fill:#197C22;}
	.st38{fill:#78CC00;}
	.st39{fill:#1AAD4F;}
	.st40{fill:none;stroke:#896930;stroke-width:2;stroke-miterlimit:10;}
	.st41{fill:none;stroke:#00D69A;stroke-width:0.5;stroke-miterlimit:10;}
	.st42{fill:#004203;fill-opacity:0.28;}
	.st43{fill:#4CD200;}
	.st44{fill:none;stroke:#917640;stroke-width:2;stroke-miterlimit:10;}
	.st45{fill:#FF8261;}
	.st46{fill:#FF531F;}
	.st47{fill:#FFC885;}
	.st48{fill:#FF83A7;}
	.st49{fill:none;stroke:#973500;stroke-width:2;stroke-miterlimit:10;}
	.st50{fill:url(#SVGID_5_);}
	.st51{fill:#FFB612;}
	.st52{fill:none;stroke:#FFFFFF;stroke-miterlimit:10;}
	.st53{fill:#FF0000;}
	.st54{fill:none;stroke:#FCFFF9;stroke-miterlimit:10;}
	.st55{fill:#B7B3FF;}
	.st56{fill:#2A85FF;}
</style>
<rect x="-10" y="-9" class="st10" width="2003" height="718"/>
<g>
	<path class="st24" d="M0,1v365.3C44,590,563.1,661,924,661c418.8,0,888-61,996-273.9V1H0z"/>
	<path class="st25" d="M960,665c0.6,0,1.2,0,1.8,0c-19.1,0-38.1-0.1-56.9-0.3C923.1,664.9,941.5,665,960,665z"/>
	<path class="st26" d="M961.8,665c0.4,0,0.8,0,1.1,0c0.2,0,0.3,0,0.5,0c-0.4,0-0.8,0-1.1,0C962.2,665,962,665,961.8,665z"/>
	<path class="st26" d="M878.1,664.4c8.9,0.1,17.8,0.2,26.8,0.3c-1.2,0-2.5,0-3.7,0C893.5,664.6,885.8,664.5,878.1,664.4z"/>
	<path class="st25" d="M901.2,664.7c1.2,0,2.5,0,3.7,0c18.8,0.2,37.8,0.3,56.9,0.3c0.2,0,0.3,0,0.5,0
		C942,665,921.6,664.9,901.2,664.7z"/>
	<path class="st27" d="M1026.2,664.7c40-0.4,79.3-1.2,117.8-2.4c0.1-0.2,0.3-0.3,0.4-0.5C1105.8,663.1,1066.4,664.1,1026.2,664.7
		C1026.2,664.6,1026.2,664.6,1026.2,664.7z"/>
	<path class="st28" d="M964,665c1,0,2.1,0,3.1,0c-1.2,0-2.4,0-3.6,0C963.6,665,963.8,665,964,665z"/>
	<path class="st28" d="M988.7,664.9c8,0,16.1-0.1,24.1-0.1c-0.1,0-0.3,0-0.4,0C1004.5,664.9,996.6,664.9,988.7,664.9z"/>
	<path class="st28" d="M1009.2,664.8c-15.5,0.1-31.1,0.2-46.8,0.2c0.4,0,0.8,0,1.1,0c1.2,0,2.4,0,3.6,0c3.1,0,6.3,0,9.4,0
		c2.9,0,5.8,0,8.6,0c1.2,0,2.4,0,3.5,0c7.9,0,15.8-0.1,23.7-0.1C1011.3,664.8,1010.2,664.8,1009.2,664.8z"/>
	<path class="st28" d="M627,654.1c-23.5-1.1-46.9-2.4-69.9-3.7c99,7.5,207.1,12.4,320.9,14c7.7,0.1,15.4,0.2,23.1,0.3
		C805.3,663.6,713.2,659.9,627,654.1z"/>
	<path class="st28" d="M901.2,664.7c20.4,0.2,40.8,0.3,61.2,0.3c15.7,0,31.3-0.1,46.8-0.2c-126.2-0.9-257.3-4.6-382.1-10.7
		C713.2,659.9,805.3,663.6,901.2,664.7z"/>
	<path class="st28" d="M1012.7,664.8c4.5,0,9-0.1,13.5-0.1c0,0,0,0,0,0c-4.6,0-9.2,0.1-13.9,0.1
		C1012.5,664.8,1012.6,664.8,1012.7,664.8z"/>
	<path class="st28" d="M1009.2,664.8c1.1,0,2.1,0,3.2,0c4.6,0,9.2-0.1,13.9-0.1c0,0,0-0.1,0.1-0.1
		C1020.6,664.7,1014.9,664.7,1009.2,664.8z"/>
	<path class="st28" d="M1009.2,664.8c5.7-0.1,11.4-0.1,17.1-0.2c18.2-24.7,42.7-46.3,72.8-58.8c23-9.5,46.9-13.4,68.7-25.2
		c38-20.6,85.2-26.1,128.3-16.3c8.4,1.9,17.7,4.4,25.4,0.9c14.6-6.5,26.8-27.2,39.1-37.4c14-11.5,29.5-21.5,46.5-29.2
		c11-5,22.6-8.9,34.4-11.8c8.3-6.6,17-12.5,26.1-17.3c-124.8-28.8-277-45.7-441.3-45.7c-352.7,0-680.9,78-772.2,184.2
		c101.9,20.4,229.4,36.3,373.1,46.1C751.8,660.1,883,663.8,1009.2,664.8z"/>
	<path class="st29" d="M1471.6,467.1c18.9,0.1,37,3.4,54.1,9.9c12.8-4.1,26.3-5.9,40.3-5.4c21.1,0.1,41.1,4.1,59.9,12.2
		c6.2-18.6,16.7-34.7,31.3-48.4c5.3-5.7,11-10.8,17-15.2c-151-29.9-328.4-47.2-518.2-47.2c-421.9,0-864.6,85.2-1021.2,205.6
		c34.1,10.5,74,20.4,118.9,29.4c91.3-106.2,419.5-184.2,772.2-184.2c160.1,0,308.7,16.1,431.7,43.6
		C1462.4,467,1466.9,466.9,1471.6,467.1z"/>
	<path class="st30" d="M0,363.3V498h1.5c8.9,29.3,56.5,56.8,133.5,80.6C291.6,458.2,734.3,373,1156.2,373
		c257.9,0,492.9,31.8,669.8,84.1c-7.9,5-15.6,10.4-23.1,15.9c-2.3,1.7-4.7,3.5-7.5,4.1c-2.3,0.5-4.7,0.2-6.9-0.3
		c-21-3.8-39.3-15.2-60.9-17.6c-19.7-2.2-39.7,0.2-58.6,6.1c-18.2,5.6-35.4,14.3-51.1,25.1c-13.6,2.8-26.8,6.7-39.4,11.6
		c-19.5,7.6-37.3,17.4-53.3,28.6c-14.1,9.9-28.1,30.3-44.8,36.6c-8.9,3.4-19.5,1-29.2-0.9c-49.4-9.7-103.5-4.2-147.1,16
		c-25,11.5-52.4,15.4-78.8,24.7c-33.2,11.8-60.3,31.8-80.9,54.8c424.7-15.2,749.4-82.1,774-163.7h1.5V384.1
		C1698.6,331.5,1328.8,297,910,297C549.1,297,224.5,322.6,0,363.3z"/>
</g>
<path class="st31" d="M1205.7,659.1c-59.2,2.9-120.6,4.7-183.7,5.5c0,0-0.1,0.1-0.1,0.1c0.1,0,0.1,0.1,0.2,0.1"/>
<circle class="st32" cx="400" cy="113" r="52"/>
<g>
	<path class="st33" d="M1531.3,428.5c32.7,4.7,66.9,21.3,97.9,8.5c14.4-6,26.7-16.5,40.9-22.7c30.1-13.2,63.6-13.9,95.3-9.1
		c12.9,2,25.7,4.5,38.2,8.2c5.4,1.6,10.8,3.5,16.1,5.6c8.9,3.6,17.5,7.9,25.7,13.1c4.8,3,9.5,9.4,15.6,8.2c6.9-1.3,9-11.4,12.3-17.1
		c10.6-18.2,28.8-21.3,46.5-17.8v-58.7c-24.3-5.2-50.5,0.6-73.6,7.2c-4.5,1.3-9.1,2.8-13.7,2.1c-9.7-1.4-18.4-11.7-27.6-16.4
		c-9-4.6-18.3-7.7-27.7-9.3c-19.5-3.3-39.4-0.3-58.4,6.5c-12.1,4.3-24,10.2-35.5,17.2c-24.3,14.7-47.2,34.8-68.2,57.6
		c-2.1,2.2-4.2,4.6-6.7,5.4c-2,0.7-4.2,0.2-6.2-0.3c-18.9-5.1-35.2-20.1-54.6-23.3c-17.7-2.9-35.7,0.3-52.6,8
		c-16.3,7.4-31.7,18.8-45.9,33.1C1475.8,426.3,1503.8,424.5,1531.3,428.5z"/>
	<path class="st35" d="M1314.3,552.5c11.4-3.7,22.7-8,33.9-12.6c14.6-6,31.8-7.7,43.6-22.9c6.2-7.9,11.1-17.7,16.3-27
		c11.8-21,25.7-40,41.2-55.5c-12.2,3.7-24,8.8-35.4,15.3c-17.5,10-33.4,22.9-47.8,37.8c-12.6,13.1-25.2,40-40.2,48.3
		c-8,4.5-17.5,1.3-26.2-1.2c-44.3-12.7-92.9-5.5-132,21.1c-22.4,15.2-47.1,20.3-70.7,32.6c-31,16.2-56.2,44.2-74.9,76.2
		c65.2-0.9,128.6-3,189.7-6.3C1235.7,614.9,1269.4,571.5,1314.3,552.5z"/>
	<path class="st36" d="M1873.5,423.2c-3.3,5.8-5.4,15.8-12.3,17.1c-6.1,1.1-10.8-5.2-15.6-8.2c-8.2-5.2-16.8-9.5-25.7-13.1
		c-5.3-2.1-10.7-4-16.1-5.6c-12.5-3.7-25.4-6.2-38.2-8.2c-31.7-4.8-65.2-4.2-95.3,9.1c-14.3,6.3-26.5,16.8-40.9,22.7
		c-31,12.8-65.2-3.8-97.9-8.5c-27.5-4-55.5-2.2-82.1,6c-15.4,15.6-29.3,34.5-41.2,55.5c-5.2,9.3-10.1,19.1-16.3,27
		c-11.8,15.1-29,16.8-43.6,22.9c-11.2,4.6-22.5,8.9-33.9,12.6c-44.8,19-78.6,62.4-102.5,105.8C1560,639.4,1827.3,594,1920,510.8
		V405.4C1902.3,401.9,1884,404.9,1873.5,423.2z"/>
</g>
<path class="st37" d="M0,257c0.2-17.8,142.8,4.6,156.3,7.1c91.9,17.4,180.1,47,272.4,63c39.5,6.8,85.1,5.2,123.2,16.3
	c22.1,6.4,45.6,38.6,12.6,48.9c-29.1,9.1-58.7,16-88.7,21.3c-76.9,13.4-154.4,7.6-231.2,20.6c-47.5,8-92.7,23.8-141.4,22.2
	c-34-1.1-70.3-7.8-103.4,2.2C3.8,392.1,0,323.9,0,257C0,257,0,257,0,257z"/>
<polygon class="st38" points="987.4,485.7 981.9,499.7 993.8,499.7 "/>
<polygon class="st38" points="607.4,530 601.9,544 613.8,544 "/>
<polygon class="st38" points="1001.3,487.3 994,506 1009.8,506 "/>
<polygon class="st38" points="775.5,595.2 770.8,607 780.9,607 "/>
<polygon class="st38" points="784.3,595.2 779.7,607 789.8,607 "/>
<polygon class="st38" points="792.6,595.2 787.9,607 798,607 "/>
<polygon class="st38" points="1032.5,572.2 1027.8,584 1037.9,584 "/>
<polygon class="st38" points="1041.3,572.2 1036.7,584 1046.8,584 "/>
<polygon class="st38" points="1049.6,572.2 1044.9,584 1055,584 "/>
<g>
	<path class="st39" d="M768.3,414.6c0.8,0.4,1.6,0.8,2.3,1.3c10.9,6.7,6.2,21.5-2,28.1c-8.2,6.7-20.8,10.9-31.4,9.1
		c-10.6-1.8-22.1-9.4-27.3-18.9c-7.7-14.1,6.5-22,8.9-35.2c0.8-4.4,0.7-9,2.5-13.1c4.1-9.5,14-20.4,23.6-19
		c7.3,1.1,16.4,15.5,19.9,21.6c1.8,3.1,3.5,7,3.2,10.7c-0.4,4-5.2,7.4-3.7,11.6C764.9,412.6,766.6,413.6,768.3,414.6z"/>
	<line class="st40" x1="742" y1="435" x2="752" y2="428"/>
	<line class="st40" x1="742" y1="444" x2="732" y2="440"/>
	<line class="st41" x1="737.6" y1="410" x2="728.8" y2="394.6"/>
	<line class="st41" x1="732.1" y1="400.1" x2="734.3" y2="393.5"/>
	<line class="st41" x1="734.3" y1="404.5" x2="736.5" y2="397.9"/>
	<line class="st41" x1="733.7" y1="402.9" x2="726.6" y2="401.2"/>
	<line class="st41" x1="756.4" y1="432" x2="765.2" y2="416.6"/>
	<line class="st41" x1="761.9" y1="422.1" x2="759.7" y2="415.5"/>
	<line class="st40" x1="742" y1="419" x2="742" y2="474"/>
	<line class="st41" x1="759.7" y1="426.5" x2="757.5" y2="419.9"/>
	<line class="st41" x1="760.3" y1="424.9" x2="767.4" y2="423.2"/>
	<ellipse transform="matrix(0.149 -0.9888 0.9888 0.149 165.0086 1143.7357)" class="st42" cx="747" cy="476" rx="4" ry="23"/>
</g>
<g>
	<path class="st43" d="M485.7,480.2c-6.1,15.9-23.4,26-40.3,21.6c-4.4-1.1-8.9-3.5-10.8-7.6c-2.4-5.1-1.5-10.7-4.1-15.8
		c-2.9-5.6-7.2-10.6-8.1-17c-4.2-29.4,70.2-24.6,65.3,11C487.4,475,486.7,477.6,485.7,480.2z"/>
	<line class="st44" x1="455" y1="480" x2="455" y2="535"/>
	<circle class="st45" cx="467" cy="467" r="3"/>
	<ellipse transform="matrix(0.7071 -0.7071 0.7071 0.7071 -198.2245 447.4437)" class="st46" cx="441" cy="463" rx="2.1" ry="2.1"/>
	<circle class="st47" cx="464" cy="490" r="2"/>
	<ellipse transform="matrix(0.2119 -0.9773 0.9773 0.2119 -161.5054 873.715)" class="st42" cx="461" cy="537" rx="4" ry="23"/>
</g>
<g>
	<path class="st48" d="M611.5,463.6c-1.4,4.1-5.7,7.3-10.1,8.7c-7.4,2.4-20.9,3-23.7-6.5c-0.9-3.1,1.1-6.1,2.2-9.1
		c3.3-9.1-6.1-37.2,11.2-37.2c7.9,0,17,6,22.7,10.9c4.6,3.9,6.8,9.1,1.4,13.5c-3,2.5-6.4,4.5-5.4,9c0.5,2.3,1.8,4.5,2.1,6.9
		C612.1,461.1,611.9,462.4,611.5,463.6z"/>
	<path class="st49" d="M597.9,477c0,0,20.1,1,25.1-12"/>
	<path class="st48" d="M620,464.4c-0.8-1.1-2.8-2.2-2.2-3.8c2.1-5.1,10.6-1.8,13.3,0.9c3,3-3,7.6-5.7,6.7
		C623.3,467.4,621.7,466.1,620,464.4z"/>
	<ellipse class="st48" cx="609.5" cy="502" rx="2.5" ry="2"/>
	<ellipse transform="matrix(0.1075 -0.9942 0.9942 0.1075 38.204 1046.5568)" class="st42" cx="602" cy="502" rx="5" ry="23"/>
	<line class="st49" x1="597.5" y1="457.5" x2="597.5" y2="499.5"/>
</g>
<linearGradient id="SVGID_1_" gradientUnits="userSpaceOnUse" x1="325.9998" y1="77.6232" x2="325.9998" y2="121.3892" gradientTransform="matrix(-1 0 0 1 470 0)">
	<stop  offset="0" style="stop-color:#DEF8FF"/>
	<stop  offset="0.3393" style="stop-color:#E4F9FF;stop-opacity:0.7625"/>
	<stop  offset="0.7892" style="stop-color:#F5FDFF;stop-opacity:0.4475"/>
	<stop  offset="1" style="stop-color:#FFFFFF;stop-opacity:0.3"/>
</linearGradient>
<path class="st9" d="M0,68.4c11.6-4.9,25.1-7.2,39.1-7.4c24.3-0.3,48,5.5,71.6,10.5c41.1,8.8,79.7,3,120.8,7.3
	c16,1.7,70.8,16.9,52.9,38.4c-3.8,4.6-10,7.2-16,9.3c-19.2,6.8-42.1,11.7-63,10.6c-18.4-1-35-9.3-53.4-10.3
	c-16.7-0.9-33.3,3.5-49.7,5.6c-33.8,4.3-68.3-0.8-102.4-1.3L0,68.4z"/>
</svg>
