<?xml version="1.0" encoding="utf-8"?>
<!-- Generator: Adobe Illustrator 16.0.0, SVG Export Plug-In . SVG Version: 6.00 Build 0)  -->
<!DOCTYPE svg PUBLIC "-//W3C//DTD SVG 1.1//EN" "http://www.w3.org/Graphics/SVG/1.1/DTD/svg11.dtd">
<svg version="1.1" id="Layer_1" xmlns="http://www.w3.org/2000/svg" xmlns:xlink="http://www.w3.org/1999/xlink" x="0px" y="0px"
	 width="223px" height="143px" viewBox="0 0 223 143" enable-background="new 0 0 223 143" xml:space="preserve">
<path opacity="0.7" fill="#E8EADA" d="M171.98,77.3h-26.1h-14.082c-3.203,0-5.801-2.597-5.801-5.8s2.598-5.8,5.801-5.8h11.185
	c11.667,0,21.125-9.458,21.125-21.125s-9.458-21.125-21.125-21.125H51.02c-11.667,0-21.125,9.458-21.125,21.125
	S39.353,65.7,51.02,65.7h3.73h43.909h3.313c3.203,0,5.8,2.597,5.8,5.8s-2.597,5.8-5.8,5.8h-3.313H80.017
	c-11.667,0-21.125,9.458-21.125,21.125s9.458,21.125,21.125,21.125h91.964c11.667,0,21.125-9.458,21.125-21.125
	S183.647,77.3,171.98,77.3z"/>
</svg>
