<?xml version="1.0" encoding="utf-8"?>
<!-- Generator: Adobe Illustrator 16.0.0, SVG Export Plug-In . SVG Version: 6.00 Build 0)  -->
<!DOCTYPE svg PUBLIC "-//W3C//DTD SVG 1.1//EN" "http://www.w3.org/Graphics/SVG/1.1/DTD/svg11.dtd">
<svg version="1.1" id="Layer_1" xmlns="http://www.w3.org/2000/svg" xmlns:xlink="http://www.w3.org/1999/xlink" x="0px" y="0px"
	 width="201px" height="124px" viewBox="0 0 201 124" enable-background="new 0 0 201 124" xml:space="preserve">
<path opacity="0.6" fill="#E8EADA" d="M182.506,19.057H79.87c-7.348,0-13.305,5.957-13.305,13.305s5.957,13.305,13.305,13.305
	h20.907h17.739h1.508c-0.063,0.082-0.109,0.174-0.166,0.26c1.436,0.55,2.46,1.946,2.46,3.595c0,1.626-0.998,3.012-2.403,3.577
	c0.037,0.055,0.069,0.117,0.109,0.171h-0.654c-0.274,0.064-0.559,0.106-0.854,0.106h-17.739c-0.295,0-0.577-0.042-0.854-0.106
	h-47.93c-7.348,0-13.305,5.957-13.305,13.305s5.957,13.305,13.305,13.305h0.782h4.286c2.099,0,3.802,1.726,3.802,3.854
	c0,2.128-1.703,3.854-3.802,3.854H39.322c-0.294,0-0.576-0.041-0.854-0.105H24.117c-7.348,0-13.305,5.957-13.305,13.305
	s5.957,13.305,13.305,13.305h135.581c7.348,0,13.305-5.957,13.305-13.305s-5.957-13.305-13.305-13.305H89.91
	c-0.274,0.064-0.56,0.105-0.854,0.105H71.317c-2.1,0-3.802-1.726-3.802-3.854c0-2.129,1.702-3.854,3.802-3.854h4.393h13.347h52.901
	c7.348,0,13.305-5.957,13.305-13.305c0-6.841-5.17-12.456-11.813-13.198h-3.604c-2.098,0-3.801-1.727-3.801-3.854
	s1.703-3.854,3.801-3.854h2.505h15.235h24.919c7.348,0,13.305-5.957,13.305-13.305S189.854,19.057,182.506,19.057z"/>
</svg>
