<?xml version="1.0" encoding="utf-8"?>
<!-- Generator: Adobe Illustrator 16.0.0, SVG Export Plug-In . SVG Version: 6.00 Build 0)  -->
<!DOCTYPE svg PUBLIC "-//W3C//DTD SVG 1.1//EN" "http://www.w3.org/Graphics/SVG/1.1/DTD/svg11.dtd">
<svg version="1.1" id="Layer_1" xmlns="http://www.w3.org/2000/svg" xmlns:xlink="http://www.w3.org/1999/xlink" x="0px" y="0px"
	 width="183px" height="78px" viewBox="0 0 183 78" enable-background="new 0 0 183 78" xml:space="preserve">
<path opacity="0.8" fill="#E8EADA" d="M166.86,46.124h-28.135c-2.47,0-4.471-2.002-4.471-4.472c0-2.468,2.001-4.47,4.471-4.47
	h27.166c5.678-2.303,9.607-7.22,9.607-12.926c0-7.911-7.541-14.324-16.842-14.324H44.503c-9.301,0-16.842,6.413-16.842,14.324
	c0,5.71,3.936,10.626,9.619,12.926h71.361c3.465,0,6.275,2.002,6.275,4.47c0,2.47-2.811,4.472-6.275,4.472H13.846
	c-5.153,2.448-8.642,7.124-8.642,12.501c0,7.91,7.54,14.323,16.842,14.323h136.611c9.301,0,16.842-6.413,16.842-14.323
	C175.499,53.249,172.011,48.574,166.86,46.124z"/>
</svg>
