<?xml version="1.0" encoding="utf-8"?>
<!-- Generator: Adobe Illustrator 21.0.0, SVG Export Plug-In . SVG Version: 6.00 Build 0)  -->
<svg version="1.1" id="레이어_1" xmlns="http://www.w3.org/2000/svg" xmlns:xlink="http://www.w3.org/1999/xlink" x="0px"
	 y="0px" viewBox="0 0 192 171" style="enable-background:new 0 0 192 171;" xml:space="preserve">
<style type="text/css">
	.st0{opacity:0.4;}
	.st1{fill:none;stroke:#FFFFFF;stroke-width:11.68;stroke-miterlimit:10;}
	.st2{fill:none;stroke:#FFFFFF;stroke-width:11.5161;stroke-miterlimit:10;}
</style>
<g class="st0">
	<path class="st1" d="M111.4,106.5l-53,31.4c-15.2,9-35,3.9-44-11.3l0,0c-9-15.2-3.9-35,11.3-44l53-31.4"/>
	<line class="st1" x1="52.7" y1="66.6" x2="85.5" y2="121.9"/>
	<line class="st1" x1="74" y1="54" x2="106.7" y2="109.3"/>
	<path class="st1" d="M86.5,123.5l11.9,20.1c2.5,4.1-0.4,10.4-6.4,14l0,0c-6,3.5-12.9,3.1-15.4-1.1l-11.9-20.1"/>
	<path class="st2" d="M145,102.1l-37.4,7.3c-0.6,0.4-1.7-0.4-2.5-1.7L74.8,56.5c-0.8-1.3-0.9-2.7-0.3-3l24.3-29.3
		c0.6-0.4,1.7,0.4,2.5,1.7l43.3,73.2C145.4,100.4,145.6,101.8,145,102.1z"/>
	<line class="st2" x1="138" y1="53.9" x2="173.2" y2="33.1"/>
	<line class="st2" x1="150.6" y1="75.1" x2="185.8" y2="54.3"/>
	<line class="st2" x1="125.5" y1="32.7" x2="160.6" y2="11.8"/>
</g>
</svg>
