<?xml version="1.0" encoding="utf-8"?>
<!-- Generator: Adobe Illustrator 16.0.0, SVG Export Plug-In . SVG Version: 6.00 Build 0)  -->
<!DOCTYPE svg PUBLIC "-//W3C//DTD SVG 1.1//EN" "http://www.w3.org/Graphics/SVG/1.1/DTD/svg11.dtd">
<svg version="1.1" id="Layer_1" xmlns="http://www.w3.org/2000/svg" xmlns:xlink="http://www.w3.org/1999/xlink" x="0px" y="0px"
	 width="200px" height="50px" viewBox="0 0 200 50" enable-background="new 0 0 200 50" xml:space="preserve">
<g>
	<path fill="#262625" d="M71.667,26.02c0.065-0.045,0.127-0.094,0.186-0.147c1.106-1.01-0.079-3.578,2.209-3.377
		c2.39,0.209,3.4,1.865,1.462,3.656c0.926-0.855,4.848-0.445,5.978-0.35c1.953,0.165,5.585,2.055,2.065,3.685
		c-2.256,1.044-5.231,0.259-7.621,0.36c-3.761,0.159-10.83,1.514-13.888-1.37c-0.806-0.76-0.614-1.801,0.355-2.253
		c1.189-0.556,2.78,0.287,4.044,0.108C67.906,26.127,70.37,26.916,71.667,26.02z M63.933,12.092c0.268-0.56,1.107-1.084,2.445-1.271
		c1.714-0.238,3.59-0.395,5.316-0.396c1.392,0,4.779-0.517,5.167,1.263c0.931,4.265-8.91,1.858-8.981,2.369
		c-0.307,2.176,1.557,4.011,3.55,3.908c2.829-0.147,5.639-0.547,8.476-0.556c1.936-0.006,3.86,1.051,1.868,2.96
		c-0.931,0.892-2.613,1.581-3.894,1.734c-3.165,0.378-6.604,0.964-9.667-0.252c-1.779-0.707-4.283-8.159-1.913-8.03
		C64.287,13.712,63.562,12.868,63.933,12.092z M75.729,31.662c0.969,0.346,1.764,1.125,2.789,2.016
		c2.818,2.448,0.855,5.3-1.854,6.631c-2.087,1.026-4.815,2.003-7.004,0.733c-4.817-2.791,0.19-8.294,3.567-9.339
		C74.25,31.387,75.034,31.413,75.729,31.662z M73.577,38.587c1.093,0.033,2.411-0.845,1.956-2.216
		c-0.625-1.881-2.995-1.046-3.233,0.637C72.146,38.085,72.806,38.563,73.577,38.587z"/>
	<path fill="#262625" d="M86.361,26.243c0.044-2.394,6.269-1.99,7.647-1.981c2.534,0.015,5.061,0.208,7.594,0.228
		c2.279,0.019,4.589-0.694,6.845-0.479c1.219,0.117,2.422,1.015,1.796,2.291c-0.696,1.42-3.042,1.575-4.371,1.804
		c-1.79,0.309-4.348,0.486-4.989,2.553c-0.57,1.835,0.714,4.299,0.597,6.218c-0.137,2.227-2.067,2.93-3.78,1.749
		c-1.802-1.242-1.939-3.539-1.958-5.533c-0.011-1.168-0.412-4.746,1.193-5.149c-1.551-0.008-10.164,0.577-10.552-1.453
		C86.366,26.404,86.359,26.322,86.361,26.243z M104.495,22.694c-0.363-0.384-0.663-1.092-0.875-1.664
		c-0.551-1.49-0.642-3.85-2.437-4.371c-3.148-0.915-6.548,0.536-9.774,0.025c-3.712-0.587-2.426-3.862,0.857-4.307
		c2.416-0.327,4.442,0.811,6.741,0.879c1.796,0.054,3.679-0.556,5.418,0.221c2.535,1.133,2.622,6.538,1.518,8.638
		C105.397,23.151,104.905,23.127,104.495,22.694z"/>
</g>
<g>
	<g>
		<path fill="#444544" d="M11.375,20.927c0,3.9,1.924,8.034,5.928,9.698l-1.872,2.704c-2.782-1.196-4.68-3.536-5.746-6.422
			c-1.066,3.12-2.99,5.746-5.798,7.021l-1.95-2.73C5.94,29.403,7.89,25.009,7.89,20.927v-1.326H2.898v-2.834h13.417v2.834h-4.94
			V20.927z M21.957,14.479v23.947h-3.433V14.479H21.957z"/>
		<path fill="#444544" d="M47.723,24.177v2.73H26.038v-2.73h15.185c0.494-2.392,0.572-4.238,0.572-5.902H28.716v-2.73h16.459v1.924
			c0,1.924,0,3.952-0.546,6.708H47.723z M28.586,29.403h16.485v8.736H28.586V29.403z M31.966,35.461h9.75v-3.38h-9.75V35.461z"/>
	</g>
</g>
<g>
	<g>
		<path fill="#444544" d="M126.547,14.869h3.197v22.491h-3.197V26.075h-1.872c-0.313,4.681-2.263,7.488-5.175,7.488
			c-3.172,0-5.174-3.276-5.174-8.71c0-5.408,2.002-8.684,5.174-8.684c2.834,0,4.759,2.652,5.148,7.124h1.898V14.869z M121.58,24.853
			c0-3.666-0.754-5.46-2.08-5.46c-1.3,0-2.08,1.794-2.08,5.46c0,3.692,0.78,5.487,2.08,5.487
			C120.826,30.34,121.58,28.545,121.58,24.853z M134.659,14.453v23.947h-3.251V14.453H134.659z"/>
		<path fill="#444544" d="M147.034,19.783c0,4.524,1.742,8.918,5.694,10.686l-2.028,2.73c-2.626-1.273-4.368-3.614-5.356-6.5
			c-1.039,3.068-2.834,5.564-5.512,6.916l-2.132-2.756c4.056-1.872,5.876-6.526,5.876-11.077v-3.458h3.458V19.783z M158.137,14.453
			v24.025h-3.432V24.723h-4.603v-2.756h4.603v-7.514H158.137z"/>
		<path fill="#444544" d="M183.643,26.127v2.756h-21.685v-2.756H183.643z M167.86,35.176h13.521v2.756h-16.979v-7.15h3.458V35.176z
			 M181.251,23.683h-16.615v-8.346h3.433v5.616h13.183V23.683z"/>
		<path fill="#444544" d="M192.586,21.135c0-1.274-0.624-2.028-1.716-2.028c-0.91,0-1.664,0.598-2.393,1.456l-2.105-1.95
			c1.222-1.508,2.886-2.626,4.94-2.626c2.834,0,4.939,1.664,4.939,4.81c0,3.874-3.926,5.122-3.614,8.84h-3.354
			C188.79,25.399,192.586,23.735,192.586,21.135z M188.556,34.031c0-1.43,1.04-2.496,2.418-2.496s2.419,1.066,2.419,2.496
			c0,1.456-1.041,2.471-2.419,2.471S188.556,35.487,188.556,34.031z"/>
	</g>
</g>
</svg>
