<?xml version="1.0" encoding="utf-8"?>
<!-- Generator: Adobe Illustrator 16.0.0, SVG Export Plug-In . SVG Version: 6.00 Build 0)  -->
<!DOCTYPE svg PUBLIC "-//W3C//DTD SVG 1.1//EN" "http://www.w3.org/Graphics/SVG/1.1/DTD/svg11.dtd">
<svg version="1.1" id="Layer_1" xmlns="http://www.w3.org/2000/svg" xmlns:xlink="http://www.w3.org/1999/xlink" x="0px" y="0px"
	 width="30px" height="30px" viewBox="0 0 30 30" enable-background="new 0 0 30 30" xml:space="preserve">
<path fill="#9633FF" d="M5.583,4.271V25.73h18.834V4.271H5.583z M11.598,21.335H8.446v-2.688h3.152V21.335z M11.598,16.344H8.446
	v-2.688h3.152V16.344z M11.598,11.353H8.446V8.665h3.152V11.353z M16.576,21.335h-3.152v-2.688h3.152V21.335z M16.576,16.344h-3.152
	v-2.688h3.152V16.344z M16.576,11.353h-3.152V8.665h3.152V11.353z M21.555,21.335h-3.152v-2.688h3.152V21.335z M21.555,16.344
	h-3.152v-2.688h3.152V16.344z M21.555,11.353h-3.152V8.665h3.152V11.353z"/>
</svg>
