<?xml version="1.0" encoding="iso-8859-1"?>
<!-- Generator: Adobe Illustrator 16.0.0, SVG Export Plug-In . SVG Version: 6.00 Build 0)  -->
<!DOCTYPE svg PUBLIC "-//W3C//DTD SVG 1.1//EN" "http://www.w3.org/Graphics/SVG/1.1/DTD/svg11.dtd">
<svg xmlns="http://www.w3.org/2000/svg" xmlns:xlink="http://www.w3.org/1999/xlink" version="1.1" id="Capa_1" x="0px" y="0px" width="512px" height="512px" viewBox="0 0 459.637 459.637" style="enable-background:new 0 0 459.637 459.637;" xml:space="preserve">
<g>
	<path d="M422.16,218.503l-135.75,135.75c-28.094,28.062-73.781,28.062-101.844,0c-28.078-28.063-28.063-73.75,0-101.813   l135.75-135.75l22.625,22.625l-135.734,135.75c-15.625,15.594-15.625,40.969-0.016,56.563c15.594,15.625,40.969,15.625,56.563,0   l135.781-135.75c37.406-37.438,37.406-98.313,0-135.75c-37.438-37.438-98.344-37.438-135.781,0L60.113,263.753   c-37.438,37.438-37.438,98.344,0,135.78c37.438,37.406,98.328,37.406,135.766,0l0.047-0.062   c12.016,4.969,24.813,7.406,37.609,7.656l-15.031,15.03c-49.984,49.97-131.031,49.97-181.016,0c-49.984-50-49.984-131.03,0-181.03   L241.129,37.503c50-50,131.031-50,181.031,0C472.129,87.471,472.129,168.503,422.16,218.503z" fill="#dddddd"/>
</g>
<g>
</g>
<g>
</g>
<g>
</g>
<g>
</g>
<g>
</g>
<g>
</g>
<g>
</g>
<g>
</g>
<g>
</g>
<g>
</g>
<g>
</g>
<g>
</g>
<g>
</g>
<g>
</g>
<g>
</g>
</svg>
