<?xml version="1.0" encoding="utf-8"?>
<!-- Generator: Adobe Illustrator 16.0.0, SVG Export Plug-In . SVG Version: 6.00 Build 0)  -->
<!DOCTYPE svg PUBLIC "-//W3C//DTD SVG 1.1//EN" "http://www.w3.org/Graphics/SVG/1.1/DTD/svg11.dtd">
<svg version="1.1" id="Layer_1" xmlns="http://www.w3.org/2000/svg" xmlns:xlink="http://www.w3.org/1999/xlink" x="0px" y="0px"
	 width="64.23px" height="64.23px" viewBox="0 0 64.23 64.23" enable-background="new 0 0 64.23 64.23" xml:space="preserve">
<path fill="#FFFFFF" stroke="#2D2E30" stroke-width="2.5" stroke-miterlimit="10" d="M52.545,52.969
	c0,1.756-1.424,3.179-3.179,3.179H14.864c-1.755,0-3.179-1.423-3.179-3.179V11.262c0-1.756,1.424-3.179,3.179-3.179h34.502
	c1.755,0,3.179,1.423,3.179,3.179V52.969z"/>
<circle fill="#FFFFFF" stroke="#2D2E30" stroke-width="2" stroke-miterlimit="10" cx="32.115" cy="32.115" r="12.148"/>
<line fill="#DDDDDD" stroke="#2D2E30" stroke-width="2" stroke-linecap="round" stroke-linejoin="round" stroke-miterlimit="10" x1="32.115" y1="19.967" x2="32.115" y2="44.264"/>
<path fill="#FFFFFF" stroke="#2D2E30" stroke-width="2" stroke-linecap="round" stroke-linejoin="round" stroke-miterlimit="10" d="
	M29.315,43.936c-2.962-3.867-3.84-9.223-3.265-13.968c0.367-3.027,1.287-6.073,2.719-8.771c0.164-0.311,0.332-0.621,0.546-0.902"/>
<path fill="#FFFFFF" stroke="#2D2E30" stroke-width="2" stroke-linecap="round" stroke-linejoin="round" stroke-miterlimit="10" d="
	M34.915,43.936c2.962-3.867,3.84-9.223,3.265-13.968c-0.367-3.027-1.287-6.073-2.719-8.771c-0.164-0.311-0.332-0.621-0.546-0.902"/>
<line fill="#FFFFFF" stroke="#2D2E30" stroke-width="2" stroke-miterlimit="10" x1="20.021" y1="32.115" x2="44.21" y2="32.115"/>
</svg>
