<?xml version="1.0" encoding="utf-8"?>
<!-- Generator: Adobe Illustrator 16.0.0, SVG Export Plug-In . SVG Version: 6.00 Build 0)  -->
<!DOCTYPE svg PUBLIC "-//W3C//DTD SVG 1.1//EN" "http://www.w3.org/Graphics/SVG/1.1/DTD/svg11.dtd">
<svg version="1.1" id="Layer_1" xmlns="http://www.w3.org/2000/svg" xmlns:xlink="http://www.w3.org/1999/xlink" x="0px" y="0px"
	 width="1920px" height="678px" viewBox="0 0 1920 678" enable-background="new 0 0 1920 678" xml:space="preserve">
<pattern  y="678" width="16" height="30" patternUnits="userSpaceOnUse" id="Unnamed_Pattern" viewBox="0 -30 16 30" overflow="visible">
	<g>
		<polygon fill="none" points="0,-30 16,-30 16,0 0,0 		"/>
		<polygon fill="#98C3EA" points="11,-15 5,-15 5,0 11,0 		"/>
		<polygon fill="#98C3EA" points="3,-30 0,-30 0,-15 3,-15 		"/>
		<polygon fill="#98C3EA" points="16,-30 13,-30 13,-15 16,-15 		"/>
		<polygon fill="#2871A6" points="13,-30 3,-30 3,-15 13,-15 		"/>
		<polygon fill="#2871A6" points="5,-15 0,-15 0,0 5,0 		"/>
		<polygon fill="#2871A6" points="16,-15 11,-15 11,0 16,0 		"/>
	</g>
</pattern>
<pattern  y="678" width="16" height="30" patternUnits="userSpaceOnUse" id="Unnamed_Pattern_2" viewBox="0 -30 16 30" overflow="visible">
	<g>
		<polygon fill="none" points="0,-30 16,-30 16,0 0,0 		"/>
		<polygon fill="#98C3EA" points="11,-15 5,-15 5,0 11,0 		"/>
		<polygon fill="#98C3EA" points="3,-30 0,-30 0,-15 3,-15 		"/>
		<polygon fill="#98C3EA" points="16,-30 13,-30 13,-15 16,-15 		"/>
		<polygon fill="#2871A6" points="13,-30 3,-30 3,-15 13,-15 		"/>
		<polygon fill="#2871A6" points="5,-15 0,-15 0,0 5,0 		"/>
		<polygon fill="#2871A6" points="16,-15 11,-15 11,0 16,0 		"/>
	</g>
</pattern>
<pattern  y="678" width="16" height="30" patternUnits="userSpaceOnUse" id="Unnamed_Pattern_3" viewBox="0 -30 16 30" overflow="visible">
	<g>
		<polygon fill="none" points="0,-30 16,-30 16,0 0,0 		"/>
		<polygon fill="#98C3EA" points="11,-15 5,-15 5,0 11,0 		"/>
		<polygon fill="#98C3EA" points="3,-30 0,-30 0,-15 3,-15 		"/>
		<polygon fill="#98C3EA" points="16,-30 13,-30 13,-15 16,-15 		"/>
		<polygon fill="#2871A6" points="13,-30 3,-30 3,-15 13,-15 		"/>
		<polygon fill="#2871A6" points="5,-15 0,-15 0,0 5,0 		"/>
		<polygon fill="#2871A6" points="16,-15 11,-15 11,0 16,0 		"/>
	</g>
</pattern>
<pattern  y="678" width="16" height="30" patternUnits="userSpaceOnUse" id="Unnamed_Pattern_4" viewBox="0 -30 16 30" overflow="visible">
	<g>
		<polygon fill="none" points="0,-30 16,-30 16,0 0,0 		"/>
		<polygon fill="#98C3EA" points="11,-15 5,-15 5,0 11,0 		"/>
		<polygon fill="#98C3EA" points="3,-30 0,-30 0,-15 3,-15 		"/>
		<polygon fill="#98C3EA" points="16,-30 13,-30 13,-15 16,-15 		"/>
		<polygon fill="#2871A6" points="13,-30 3,-30 3,-15 13,-15 		"/>
		<polygon fill="#2871A6" points="5,-15 0,-15 0,0 5,0 		"/>
		<polygon fill="#2871A6" points="16,-15 11,-15 11,0 16,0 		"/>
	</g>
</pattern>
<rect x="-35.36" y="482.083" fill="#F4F7EE" width="2033.898" height="195.917"/>
<g>
	<defs>
		<rect id="SVGID_1_" width="1920" height="678"/>
	</defs>
	<clipPath id="SVGID_2_">
		<use xlink:href="#SVGID_1_"  overflow="visible"/>
	</clipPath>
	<g clip-path="url(#SVGID_2_)">
		<defs>
			<rect id="SVGID_3_" width="1920" height="678"/>
		</defs>
		<clipPath id="SVGID_4_">
			<use xlink:href="#SVGID_3_"  overflow="visible"/>
		</clipPath>
		<path clip-path="url(#SVGID_4_)" fill="#B2E6EA" d="M0,1v365.336C44,590,563.054,661,924,661c418.806,0,888-61,996-273.947V1H0z"
			/>
		<path clip-path="url(#SVGID_4_)" fill="#8ACC0A" d="M960,665c0.605,0,1.208-0.002,1.812-0.002
			c-19.117-0.004-38.093-0.104-56.934-0.288C923.122,664.9,941.498,665,960,665"/>
		<path clip-path="url(#SVGID_4_)" fill="#8ACC0A" d="M901.166,664.672c1.236,0.014,2.476,0.025,3.713,0.038
			c18.84,0.184,37.817,0.284,56.934,0.288c0.17,0,0.339-0.001,0.509-0.001C941.961,664.992,921.562,664.882,901.166,664.672"/>
		<path clip-path="url(#SVGID_4_)" fill="#FF8B85" d="M1026.19,664.663c39.979-0.423,79.291-1.246,117.793-2.443
			c0.146-0.163,0.298-0.322,0.443-0.485c-38.614,1.386-78.057,2.343-118.175,2.848
			C1026.232,664.609,1026.211,664.636,1026.19,664.663"/>
		<path clip-path="url(#SVGID_4_)" fill="#A0CC00" d="M963.957,665c1.043,0,2.081-0.004,3.123-0.004
			c-1.205,0.001-2.407,0.003-3.614,0.004H963.957z"/>
		<path clip-path="url(#SVGID_4_)" fill="#A0CC00" d="M988.652,664.943c8.044-0.033,16.068-0.08,24.062-0.146
			c-0.126,0-0.252-0.001-0.379-0.003C1004.465,664.86,996.57,664.91,988.652,664.943"/>
		<path clip-path="url(#SVGID_4_)" fill="#A0CC00" d="M1009.157,664.771c-15.518,0.145-31.133,0.22-46.836,0.227
			c0.382,0,0.764,0.002,1.145,0.002c1.207,0,2.409-0.002,3.614-0.003c3.139-0.002,6.274-0.006,9.406-0.013
			c2.877-0.007,5.751-0.016,8.623-0.026c1.182-0.004,2.361-0.009,3.543-0.014c7.918-0.033,15.813-0.083,23.683-0.148
			C1011.277,664.788,1010.216,664.778,1009.157,664.771"/>
		<path clip-path="url(#SVGID_4_)" fill="#A0CC00" d="M627.019,654.06c-23.543-1.145-46.86-2.372-69.873-3.681
			c98.999,7.531,207.127,12.392,320.927,14.017c7.695,0.107,15.394,0.198,23.093,0.276
			C805.307,663.604,713.249,659.94,627.019,654.06"/>
		<path clip-path="url(#SVGID_4_)" fill="#A0CC00" d="M901.166,664.672c20.396,0.21,40.796,0.32,61.156,0.325
			c15.703-0.007,31.318-0.082,46.836-0.227c-126.167-0.925-257.34-4.643-382.139-10.711
			C713.249,659.94,805.307,663.604,901.166,664.672"/>
		<path clip-path="url(#SVGID_4_)" fill="#A0CC00" d="M1012.715,664.798c4.496-0.037,8.987-0.076,13.467-0.123l0.009-0.012
			c-4.61,0.049-9.228,0.094-13.855,0.132C1012.462,664.796,1012.588,664.797,1012.715,664.798"/>
		<path clip-path="url(#SVGID_4_)" fill="#A0CC00" d="M1009.157,664.771c1.059,0.008,2.12,0.018,3.178,0.024
			c4.628-0.038,9.245-0.083,13.855-0.132c0.021-0.027,0.042-0.054,0.062-0.081C1020.566,664.653,1014.87,664.718,1009.157,664.771"
			/>
		<path clip-path="url(#SVGID_4_)" fill="#A0CC00" d="M1009.157,664.771c5.713-0.053,11.409-0.117,17.095-0.188
			c18.184-24.677,42.654-46.303,72.759-58.78c23.003-9.534,46.948-13.426,68.73-25.204c38.031-20.564,85.222-26.145,128.272-16.291
			c8.416,1.926,17.675,4.363,25.444,0.907c14.56-6.478,26.781-27.239,39.069-37.359c13.954-11.493,29.48-21.513,46.451-29.217
			c11.035-5.011,22.559-8.941,34.38-11.839c8.282-6.643,17.019-12.474,26.121-17.32c-124.788-28.811-277.007-45.734-441.303-45.734
			c-352.723,0-680.895,77.992-772.221,184.181c101.873,20.38,229.368,36.337,373.062,46.135
			C751.817,660.128,882.99,663.846,1009.157,664.771"/>
		<path clip-path="url(#SVGID_4_)" fill="#E8BDA6" d="M1471.564,467.054c18.933,0.06,36.98,3.352,54.148,9.873
			c12.818-4.104,26.265-5.904,40.348-5.373c21.074,0.065,41.052,4.148,59.94,12.222c6.208-18.61,16.651-34.747,31.349-48.399
			c5.303-5.708,10.981-10.771,17.031-15.198C1523.397,390.246,1346,373,1156.206,373c-421.889,0-864.564,85.213-1021.156,205.567
			c34.127,10.545,74.028,20.38,118.906,29.357c91.326-106.188,419.498-184.181,772.22-184.181
			c160.099,0,308.718,16.076,431.674,43.555C1462.355,466.971,1466.924,466.879,1471.564,467.054"/>
		<path clip-path="url(#SVGID_4_)" fill="#669D2B" d="M0,363.336V498h1.525c8.861,29.332,56.47,56.758,133.526,80.567
			C291.642,458.213,734.318,373,1156.206,373c257.866,0,492.856,31.834,669.794,84.067c-7.898,5.04-15.6,10.357-23.078,15.892
			c-2.297,1.7-4.667,3.475-7.457,4.08c-2.279,0.496-4.65,0.165-6.945-0.254c-21.049-3.838-39.255-15.21-60.889-17.647
			c-19.715-2.222-39.724,0.199-58.636,6.054c-18.171,5.623-35.357,14.262-51.116,25.07c-13.555,2.842-26.766,6.695-39.42,11.608
			c-19.459,7.555-37.262,17.38-53.263,28.649c-14.091,9.924-28.104,30.281-44.798,36.634c-8.909,3.389-19.525,0.998-29.174-0.891
			c-49.364-9.661-103.474-4.189-147.082,15.975c-24.975,11.55-52.43,15.365-78.806,24.715
			c-33.153,11.751-60.339,31.779-80.91,54.782c424.729-15.238,749.388-82.104,774.048-163.734H1920V384.053
			C1698.598,331.459,1328.806,297,910,297C549.054,297,224.518,322.596,0,363.336"/>
		<g opacity="0.92" clip-path="url(#SVGID_4_)">
			<g>
				<defs>
					<rect id="SVGID_5_" x="1021.92" y="659.146" width="183.82" height="5.772"/>
				</defs>
				<clipPath id="SVGID_6_">
					<use xlink:href="#SVGID_5_"  overflow="visible"/>
				</clipPath>
				<path clip-path="url(#SVGID_6_)" fill="#4CAF50" d="M1205.74,659.146c-59.199,2.882-120.638,4.747-183.734,5.489
					c-0.03,0.045-0.061,0.09-0.09,0.135c0.053,0.05,0.106,0.1,0.16,0.148"/>
			</g>
		</g>
		<path clip-path="url(#SVGID_4_)" fill="#E8C434" d="M452,113c0,28.719-23.281,52-52,52c-28.719,0-52-23.281-52-52
			c0-28.719,23.281-52,52-52C428.719,61,452,84.281,452,113"/>
		<path clip-path="url(#SVGID_4_)" fill="#199E42" d="M1531.348,428.478c32.685,4.743,66.89,21.319,97.892,8.501
			c14.438-5.969,26.652-16.471,40.919-22.732c30.148-13.234,63.605-13.877,95.343-9.054c12.853,1.953,25.688,4.459,38.229,8.188
			c5.444,1.619,10.833,3.465,16.144,5.602c8.866,3.569,17.477,7.921,25.68,13.119c4.79,3.037,9.49,9.351,15.575,8.205
			c6.913-1.302,9-11.353,12.349-17.143c10.552-18.241,28.834-21.288,46.523-17.762v-58.713c-24.293-5.213-50.511,0.6-73.6,7.229
			c-4.509,1.294-9.082,2.763-13.654,2.103c-9.689-1.398-18.418-11.69-27.557-16.408c-8.968-4.628-18.293-7.671-27.729-9.265
			c-19.53-3.3-39.365-0.314-58.41,6.499c-12.113,4.333-23.977,10.151-35.532,17.167c-24.287,14.744-47.21,34.798-68.193,57.633
			c-2.062,2.243-4.188,4.585-6.692,5.385c-2.046,0.653-4.174,0.217-6.233-0.336c-18.892-5.064-35.23-20.07-54.646-23.287
			c-17.694-2.931-35.651,0.263-52.625,7.987c-16.308,7.422-31.732,18.819-45.876,33.082
			C1475.808,426.293,1503.833,424.484,1531.348,428.478"/>
		<path clip-path="url(#SVGID_4_)" fill="#60AF46" d="M1314.26,552.492c11.376-3.708,22.685-7.979,33.902-12.613
			c14.603-6.032,31.801-7.729,43.598-22.865c6.175-7.925,11.074-17.732,16.311-27.011c11.844-20.983,25.749-39.961,41.182-55.525
			c-12.165,3.75-24.021,8.836-35.379,15.319c-17.465,9.969-33.441,22.934-47.802,37.805c-12.646,13.094-25.223,39.957-40.206,48.339
			c-7.995,4.473-17.522,1.317-26.182-1.174c-44.304-12.749-92.866-5.529-132.004,21.08c-22.415,15.239-47.055,20.274-70.727,32.611
			c-31.021,16.166-56.229,44.196-74.947,76.177c65.161-0.854,128.609-3.004,189.746-6.323
			C1235.682,614.926,1269.435,571.474,1314.26,552.492"/>
		<path clip-path="url(#SVGID_4_)" fill="#3A8E28" d="M1873.477,421.008c-3.35,5.843-5.436,15.985-12.35,17.3
			c-6.084,1.155-10.784-5.216-15.574-8.279c-8.203-5.247-16.813-9.639-25.68-13.241c-5.311-2.156-10.699-4.019-16.144-5.652
			c-12.54-3.764-25.376-6.293-38.229-8.264c-31.736-4.867-65.193-4.219-95.342,9.137c-14.267,6.319-26.48,16.917-40.919,22.94
			c-31.002,12.937-65.207-3.792-97.892-8.578c-27.516-4.03-52.55-3.105-79.105,5.154c-15.433,15.707-32.328,35.759-44.172,56.935
			c-5.236,9.363-10.136,19.262-16.311,27.258c-11.797,15.276-28.995,16.988-43.598,23.076c-11.218,4.676-22.526,8.986-33.902,12.729
			c-44.825,19.155-78.578,63.007-102.508,106.79c348.297-19.087,615.507-64.924,708.248-148.857V403.083
			C1902.311,399.524,1884.028,402.599,1873.477,421.008"/>
	</g>
	<g clip-path="url(#SVGID_2_)">
		<defs>
			<path id="SVGID_7_" d="M943.477,104.405c-3.297,0.036-6.591-0.033-9.881-0.239c-31.476-1.963-67.61-11.315-95.873,7.941
				c-17.584,11.981-5.586,28.42,9.371,34.601c27.123,11.208,54.667,6.19,82.369,1.171c18.166-3.29,36.399-6.581,54.626-5.297
				c23.609,1.663,44.793,8.7,68.47,1.647c4.498-1.34,9.045-3.128,12.346-6.489c19.289-19.655-14.878-31.295-29.532-35.102
				c-8.978-2.332-18.005-3.16-27.058-3.16C986.755,99.478,965.046,104.171,943.477,104.405"/>
		</defs>
		<clipPath id="SVGID_8_">
			<use xlink:href="#SVGID_7_"  overflow="visible"/>
		</clipPath>
		<defs>
			<filter id="Adobe_OpacityMaskFilter" filterUnits="userSpaceOnUse" x="814.288" y="69.107" width="275.755" height="112.552">
				<feColorMatrix  type="matrix" values="1 0 0 0 0  0 1 0 0 0  0 0 1 0 0  0 0 0 1 0"/>
			</filter>
		</defs>
		<mask maskUnits="userSpaceOnUse" x="814.288" y="69.107" width="275.755" height="112.552" id="SVGID_9_">
			<g filter="url(#Adobe_OpacityMaskFilter)">
				
					<linearGradient id="SVGID_10_" gradientUnits="userSpaceOnUse" x1="0" y1="678.0469" x2="1" y2="678.0469" gradientTransform="matrix(4.7024 51.8694 51.8694 -4.7024 -34221.1211 3275.6765)">
					<stop  offset="0" style="stop-color:#FFFFFF"/>
					<stop  offset="0.1174" style="stop-color:#F9F9F9"/>
					<stop  offset="0.2735" style="stop-color:#E8E8E8"/>
					<stop  offset="0.4514" style="stop-color:#CDCDCD"/>
					<stop  offset="0.6455" style="stop-color:#A6A6A6"/>
					<stop  offset="0.8503" style="stop-color:#757575"/>
					<stop  offset="1" style="stop-color:#4D4D4D"/>
				</linearGradient>
				<polygon clip-path="url(#SVGID_8_)" fill="url(#SVGID_10_)" points="1082.04,69.107 1090.043,157.386 822.292,181.66 
					814.288,93.381 				"/>
			</g>
		</mask>
		
			<linearGradient id="SVGID_11_" gradientUnits="userSpaceOnUse" x1="0" y1="678.0459" x2="1" y2="678.0459" gradientTransform="matrix(4.7024 51.8694 51.8694 -4.7024 -34221.1211 3275.6768)">
			<stop  offset="0" style="stop-color:#DEF8FF"/>
			<stop  offset="0.3391" style="stop-color:#E4F9FF"/>
			<stop  offset="0.787" style="stop-color:#F5FDFF"/>
			<stop  offset="1" style="stop-color:#FFFFFF"/>
		</linearGradient>
		<polygon clip-path="url(#SVGID_8_)" mask="url(#SVGID_9_)" fill="url(#SVGID_11_)" points="1082.04,69.107 1090.043,157.386 
			822.292,181.66 814.288,93.381 		"/>
	</g>
	<g clip-path="url(#SVGID_2_)">
		<defs>
			<rect id="SVGID_12_" width="1920" height="678"/>
		</defs>
		<clipPath id="SVGID_13_">
			<use xlink:href="#SVGID_12_"  overflow="visible"/>
		</clipPath>
		<path clip-path="url(#SVGID_13_)" fill="#197C22" d="M0,256.999c0.249-17.803,142.832,4.561,156.313,7.11
			c91.916,17.381,180.124,47.016,272.354,63.011c39.49,6.849,85.055,5.24,123.157,16.334c22.129,6.442,45.58,38.614,12.563,48.916
			c-29.051,9.063-58.699,16.038-88.672,21.268c-76.931,13.422-154.363,7.563-231.179,20.557
			c-47.54,8.042-92.653,23.813-141.369,22.209c-33.955-1.119-70.252-7.803-103.39,2.194C3.806,392.096,0.001,323.862,0,257.046
			C0,257.03,0,257.015,0,256.999"/>
		<path clip-path="url(#SVGID_13_)" fill="#1AAD4F" d="M617.349,286.551c0.768,0.417,1.553,0.815,2.272,1.255
			c10.92,6.674,6.182,21.465-1.997,28.113c-8.189,6.657-20.832,10.867-31.392,9.108c-10.574-1.762-22.139-9.41-27.292-18.895
			c-7.651-14.08,6.524-21.988,8.893-35.239c0.783-4.38,0.747-8.981,2.511-13.066c4.121-9.545,13.998-20.382,23.568-19.004
			c7.304,1.052,16.448,15.531,19.928,21.582c1.81,3.148,3.509,6.993,3.175,10.723c-0.358,3.995-5.194,7.389-3.701,11.641
			C613.948,284.574,615.607,285.608,617.349,286.551"/>
		
			<line clip-path="url(#SVGID_13_)" fill="none" stroke="#896930" stroke-width="2" stroke-miterlimit="10" x1="591" y1="307" x2="601" y2="300"/>
		
			<line clip-path="url(#SVGID_13_)" fill="none" stroke="#896930" stroke-width="2" stroke-miterlimit="10" x1="591" y1="316" x2="581" y2="312"/>
		<path clip-path="url(#SVGID_13_)" fill="#4CD200" d="M735.733,286.221c-6.078,15.919-23.386,25.991-40.31,21.634
			c-4.391-1.131-8.853-3.452-10.768-7.563c-2.364-5.073-1.467-10.716-4.086-15.838c-2.872-5.617-7.162-10.569-8.087-17.012
			c-4.225-29.429,70.221-24.61,65.282,11.006C737.408,281.02,736.715,283.647,735.733,286.221"/>
		
			<line clip-path="url(#SVGID_13_)" fill="none" stroke="#917640" stroke-width="2" stroke-miterlimit="10" x1="705" y1="286" x2="705" y2="341"/>
	</g>
	<g clip-path="url(#SVGID_2_)">
		<defs>
			<path id="SVGID_14_" d="M360.87,156.11c-19.72,7.365-39.721,15.987-60.768,15.594c-10.771-0.201-62.598-1.26-45.098,25.029
				c7.106,10.675,31.237,10.536,45.529,10.399c2.198-0.021,4.163-0.043,5.798-0.025c9.345,0.105,18.709-0.117,26.997-0.34
				c12.775-0.343,22.989-0.686,26.621,0.166c21.784,5.114,41.241,16.81,63.333,21.046c24.92,4.78,50.743,3.022,75.7-0.52
				c24.732-3.51,49.216-8.853,74.089-11.364c24.538-2.476,49.011-0.007,73.467-4.075c7.496-1.247,16.445-4.367,17.664-11.867
				c4.987-30.685-47.738-35.511-67.723-35.068c-22.623,0.502-45.035,5.067-67.662,5.149c-23.329,0.086-44.424-5.357-65.04-10.8
				c-20.456-5.402-40.444-10.804-61.673-10.804C388.97,148.63,375.362,150.697,360.87,156.11"/>
		</defs>
		<clipPath id="SVGID_15_">
			<use xlink:href="#SVGID_14_"  overflow="visible"/>
		</clipPath>
		<defs>
			<filter id="Adobe_OpacityMaskFilter_1_" filterUnits="userSpaceOnUse" x="237.504" y="148.63" width="431.685" height="84.129">
				<feColorMatrix  type="matrix" values="1 0 0 0 0  0 1 0 0 0  0 0 1 0 0  0 0 0 1 0"/>
			</filter>
		</defs>
		<mask maskUnits="userSpaceOnUse" x="237.504" y="148.63" width="431.685" height="84.129" id="SVGID_16_">
			<g filter="url(#Adobe_OpacityMaskFilter_1_)">
				
					<linearGradient id="SVGID_17_" gradientUnits="userSpaceOnUse" x1="4.882813e-004" y1="677.9072" x2="1.0005" y2="677.9072" gradientTransform="matrix(0 50.164 50.164 0 -33553.2305 148.625)">
					<stop  offset="0" style="stop-color:#FFFFFF"/>
					<stop  offset="0.1174" style="stop-color:#F9F9F9"/>
					<stop  offset="0.2735" style="stop-color:#E8E8E8"/>
					<stop  offset="0.4514" style="stop-color:#CDCDCD"/>
					<stop  offset="0.6455" style="stop-color:#A6A6A6"/>
					<stop  offset="0.8503" style="stop-color:#757575"/>
					<stop  offset="1" style="stop-color:#4D4D4D"/>
				</linearGradient>
				<rect x="237.504" y="148.63" clip-path="url(#SVGID_15_)" fill="url(#SVGID_17_)" width="431.685" height="84.129"/>
			</g>
		</mask>
		
			<linearGradient id="SVGID_18_" gradientUnits="userSpaceOnUse" x1="4.882813e-004" y1="677.9072" x2="1.0005" y2="677.9072" gradientTransform="matrix(0 50.164 50.164 0 -33553.2305 148.625)">
			<stop  offset="0" style="stop-color:#DEF8FF"/>
			<stop  offset="0.3391" style="stop-color:#E4F9FF"/>
			<stop  offset="0.787" style="stop-color:#F5FDFF"/>
			<stop  offset="1" style="stop-color:#FFFFFF"/>
		</linearGradient>
		
			<rect x="237.504" y="148.63" clip-path="url(#SVGID_15_)" mask="url(#SVGID_16_)" fill="url(#SVGID_18_)" width="431.685" height="84.129"/>
	</g>
	<g clip-path="url(#SVGID_2_)">
		<defs>
			<rect id="SVGID_19_" width="1920" height="678"/>
		</defs>
		<clipPath id="SVGID_20_">
			<use xlink:href="#SVGID_19_"  overflow="visible"/>
		</clipPath>
		<path clip-path="url(#SVGID_20_)" fill="#FF83A7" d="M821.499,292.607c-1.408,4.103-5.75,7.312-10.102,8.739
			c-7.415,2.434-20.873,2.989-23.69-6.509c-0.905-3.052,1.088-6.103,2.167-9.1c3.293-9.15-6.089-37.243,11.181-37.215
			c7.904,0.012,16.956,6.026,22.722,10.921c4.576,3.885,6.754,9.073,1.395,13.481c-2.996,2.463-6.39,4.493-5.367,9.029
			c0.527,2.341,1.822,4.486,2.107,6.87C822.069,290.146,821.908,291.415,821.499,292.607"/>
		<path clip-path="url(#SVGID_20_)" fill="none" stroke="#973500" stroke-width="2" stroke-miterlimit="10" d="M807.897,306
			c0,0,20.103,1,25.103-12"/>
		<path clip-path="url(#SVGID_20_)" fill="#FF83A7" d="M830.045,293.376c-0.811-1.066-2.816-2.245-2.175-3.797
			c2.105-5.098,10.613-1.828,13.296,0.855c3.049,3.048-3.05,7.624-5.713,6.706C833.27,296.408,831.66,295.08,830.045,293.376"/>
		<path clip-path="url(#SVGID_20_)" fill="#FF8261" d="M720,273c0,1.657-1.343,3-3,3s-3-1.343-3-3s1.343-3,3-3S720,271.343,720,273"
			/>
		<path clip-path="url(#SVGID_20_)" fill="#FF531F" d="M689.5,270.5c-0.829-0.828-0.829-2.172,0-3s2.171-0.828,3,0s0.829,2.172,0,3
			S690.329,271.328,689.5,270.5"/>
		<path clip-path="url(#SVGID_20_)" fill="#FFC885" d="M716,296c0,1.104-0.896,2-2,2s-2-0.896-2-2s0.896-2,2-2S716,294.896,716,296"
			/>
		
			<line clip-path="url(#SVGID_20_)" fill="none" stroke="#00D69A" stroke-width="0.5" stroke-miterlimit="10" x1="586.604" y1="282" x2="577.804" y2="266.6"/>
		
			<line clip-path="url(#SVGID_20_)" fill="none" stroke="#00D69A" stroke-width="0.5" stroke-miterlimit="10" x1="581.104" y1="272.1" x2="583.304" y2="265.5"/>
		
			<line clip-path="url(#SVGID_20_)" fill="none" stroke="#00D69A" stroke-width="0.5" stroke-miterlimit="10" x1="583.304" y1="276.5" x2="585.504" y2="269.9"/>
		
			<line clip-path="url(#SVGID_20_)" fill="none" stroke="#00D69A" stroke-width="0.5" stroke-miterlimit="10" x1="582.714" y1="274.911" x2="575.583" y2="273.2"/>
		
			<line clip-path="url(#SVGID_20_)" fill="none" stroke="#00D69A" stroke-width="0.5" stroke-miterlimit="10" x1="605.396" y1="304" x2="614.196" y2="288.6"/>
		
			<line clip-path="url(#SVGID_20_)" fill="none" stroke="#00D69A" stroke-width="0.5" stroke-miterlimit="10" x1="610.896" y1="294.1" x2="608.696" y2="287.5"/>
		
			<line clip-path="url(#SVGID_20_)" fill="none" stroke="#896930" stroke-width="2" stroke-miterlimit="10" x1="591" y1="291" x2="591" y2="346"/>
		
			<line clip-path="url(#SVGID_20_)" fill="none" stroke="#00D69A" stroke-width="0.5" stroke-miterlimit="10" x1="608.696" y1="298.5" x2="606.496" y2="291.9"/>
		
			<line clip-path="url(#SVGID_20_)" fill="none" stroke="#00D69A" stroke-width="0.5" stroke-miterlimit="10" x1="609.286" y1="296.911" x2="616.417" y2="295.2"/>
		<polygon clip-path="url(#SVGID_20_)" fill="#78CC00" points="987.404,485.689 981.902,499.655 993.798,499.655 		"/>
		<polygon clip-path="url(#SVGID_20_)" fill="#78CC00" points="607.405,530.033 601.903,544 613.798,544 		"/>
		<polygon clip-path="url(#SVGID_20_)" fill="#78CC00" points="1001.305,487.337 993.953,506 1009.848,506 		"/>
		<polygon clip-path="url(#SVGID_20_)" fill="#78CC00" points="775.462,595.166 770.8,607 780.879,607 		"/>
		<polygon clip-path="url(#SVGID_20_)" fill="#78CC00" points="784.34,595.166 779.678,607 789.757,607 		"/>
		<polygon clip-path="url(#SVGID_20_)" fill="#78CC00" points="792.583,595.166 787.921,607 798,607 		"/>
		<polygon clip-path="url(#SVGID_20_)" fill="#78CC00" points="1032.462,572.166 1027.8,584 1037.879,584 		"/>
		<polygon clip-path="url(#SVGID_20_)" fill="#78CC00" points="1041.34,572.166 1036.678,584 1046.757,584 		"/>
		<polygon clip-path="url(#SVGID_20_)" fill="#78CC00" points="1049.583,572.166 1044.921,584 1055,584 		"/>
		<path clip-path="url(#SVGID_20_)" fill="#FF83A7" d="M822,331c0,1.104-1.119,2-2.5,2s-2.5-0.896-2.5-2s1.119-2,2.5-2
			S822,329.896,822,331"/>
		<g opacity="0.28" clip-path="url(#SVGID_20_)">
			<g>
				<defs>
					<rect id="SVGID_21_" x="573.249" y="342.766" width="45.502" height="10.469"/>
				</defs>
				<clipPath id="SVGID_22_">
					<use xlink:href="#SVGID_21_"  overflow="visible"/>
				</clipPath>
				<path clip-path="url(#SVGID_22_)" fill="#004203" d="M618.743,351.427c-0.329,2.185-10.778,2.421-23.339,0.528
					s-22.476-5.197-22.147-7.382c0.329-2.185,10.778-2.421,23.339-0.528S619.072,349.242,618.743,351.427"/>
			</g>
		</g>
		<g opacity="0.28" clip-path="url(#SVGID_20_)">
			<g>
				<defs>
					<rect id="SVGID_23_" x="688.506" y="336.751" width="44.988" height="12.498"/>
				</defs>
				<clipPath id="SVGID_24_">
					<use xlink:href="#SVGID_23_"  overflow="visible"/>
				</clipPath>
				<path clip-path="url(#SVGID_24_)" fill="#004203" d="M733.478,347.875c-0.468,2.158-10.911,1.727-23.325-0.966
					s-22.098-6.625-21.63-8.784c0.468-2.158,10.911-1.727,23.325,0.966C724.262,341.783,733.945,345.716,733.478,347.875"/>
			</g>
		</g>
		<g opacity="0.28" clip-path="url(#SVGID_20_)">
			<g>
				<defs>
					<rect id="SVGID_25_" x="789.127" y="325.447" width="45.746" height="11.106"/>
				</defs>
				<clipPath id="SVGID_26_">
					<use xlink:href="#SVGID_25_"  overflow="visible"/>
				</clipPath>
				<path clip-path="url(#SVGID_26_)" fill="#004203" d="M834.867,333.472c-0.297,2.746-10.775,3.864-23.404,2.499
					c-12.629-1.365-22.626-4.697-22.329-7.442c0.296-2.746,10.775-3.865,23.404-2.499
					C825.167,327.395,835.164,330.727,834.867,333.472"/>
			</g>
		</g>
		<g opacity="0.23" clip-path="url(#SVGID_20_)">
			<g>
				<defs>
					<rect id="SVGID_27_" x="1168" y="309" width="229" height="51"/>
				</defs>
				<clipPath id="SVGID_28_">
					<use xlink:href="#SVGID_27_"  overflow="visible"/>
				</clipPath>
				<path clip-path="url(#SVGID_28_)" fill="#000507" d="M1321,326l-148,34c-2.75,0-5-2.25-5-5v-41c0-2.75,2.25-5,5-5h219
					c2.75,0,5,2.25,5,5v41C1397,357.75,1323.75,326,1321,326"/>
			</g>
		</g>
		
			<line clip-path="url(#SVGID_20_)" fill="none" stroke="#973500" stroke-width="2" stroke-miterlimit="10" x1="807.5" y1="286.5" x2="807.5" y2="328.5"/>
		<path clip-path="url(#SVGID_20_)" fill="#E6FFFA" d="M1154.893,124.458c-0.256-3.417-8.876-2.375-13.468-1.212
			c-10.583,2.68-21.771,7.636-29.911,15.516c-10.029,9.708-11.223,20.908-13.168,33.985c-4.354,29.265-7.354,59.519-18.51,87.182
			c-3.142,7.787-10.234,14.025-16.906,19.124c-5.119,3.912-11.601,5.509-17.917,6.771c-27.581,5.512-55.952,6.782-83.925,9.156
			c-5.908,0.502-12.088,1.093-17.06,4.327c-9.214,5.995-10.943,18.086-15.017,27.447c-4.3,9.879-11.244,23.063-5.338,33.744
			c2.335,4.22,9.845,10.927,15.335,9.396c5.104-1.421,5.796-8.524,7.429-12.97c4.441-12.085,8.794-24.644,12.173-37.067
			c0,0,3.263-12.363,16.674-10.12l109.784-15.107c0,0,19.653-0.777,23.132-29.68c0,0,18.957-109.073,19.004-109.341
			c1.393-8.013,5.945-14.118,12.148-19.136c3.904-3.159,10.632-4.486,13.798-8.336
			C1154.453,126.553,1154.959,125.353,1154.893,124.458"/>
		<path clip-path="url(#SVGID_20_)" fill="#4BE7FF" d="M1472.355,300.083c-0.133-0.562-0.273-1.13-0.422-1.696
			c-23.895,2.302-48.605-0.796-72.437-0.19c5.312,3.713,4.368,7.315,4.368,7.317c-2.874,10.899-0.324,53.612,11.77,58.603
			c3.155,1.299,6.68,1.206,10.083,1.093c14.235-0.474,28.452-0.841,42.697-1.243c12.8-0.362,12.374,1.164,12.6-10.903
			C1481.333,335.99,1476.25,316.621,1472.355,300.083"/>
		<path clip-path="url(#SVGID_20_)" fill="#4BE7FF" d="M1399.846,267.646c-2.227-4.312-2.951-9.614-2.785-14.556
			c1.039-30.918,4.132-61.969-0.074-92.856c-1.076-7.901-2.987-16.042-8.083-22.174c-6.608-7.953-17.411-11.113-27.713-12.01
			c-62.255-5.416-126.587-9.514-189.033-5.759c-11.329,0.682-23.005,2.247-32.704,8.141c-11.736,7.132-19.168,19.895-22.739,33.156
			c-3.832,14.231-3.451,29.43-5.631,43.755c-2.418,15.884-4.664,31.803-7.046,47.698c-2.047,13.673-7.632,28.101-19.715,34.821
			c-14.639,8.141-37.519,7.896-53.96,10.72c-19.087,3.277-38.357,6.426-57.786,6.172c-4.893,0.64-9.916,1.321-14.233,3.707
			c-11.709,6.475-20.722,37.959-22.085,50.381c-0.05,0.458-0.091,0.91-0.124,1.359c-1.186,16.346,12.59,12.718,25.11,11.84
			c74.261-5.214,148.521-10.427,222.783-15.64l21.272-124.817c0.257-19.639,21.977-20.389,21.977-20.389l86.841,0.1
			c18.66-3.892,17.424,11.6,17.424,11.6l0.464,43.084C1354.417,264.642,1377.234,267.411,1399.846,267.646"/>
		<path clip-path="url(#SVGID_20_)" fill="#4BE7FF" d="M1468.318,291.314c-2.112-1.948-5.045-2.672-7.843-3.325
			c-15.116-3.533-30.233-7.067-45.35-10.6c-3.545-0.829-7.184-1.698-10.176-3.77c-2.226-1.542-3.887-3.612-5.104-5.973
			c-22.611-0.236-45.429-3.005-67.841-1.666l0.003,0.343c-0.094,7.235,10.175,12.539,10.175,12.539l43.238,14.005
			c6.988,1.492,11.353,3.426,14.076,5.33c23.831-0.607,48.542,2.492,72.437,0.189
			C1471.241,295.748,1470.296,293.139,1468.318,291.314"/>
		<path clip-path="url(#SVGID_20_)" fill="#91B1C1" d="M1230.378,211.237c-0.272,20.853-3.396,41.513-5.978,62.167
			c-1.293,10.355-2.63,20.912-3.198,31.324c-0.488,8.935,1.017,18.056-4.712,25.804c-6.948,9.398-19.321,12.582-26.517,21.98
			c-0.606,0.792-1.188,1.625-1.984,2.227s-1.866,0.941-2.804,0.603c-4.988-1.804-0.103-17.856,0.101-21.499
			c0.751-13.459,1.502-26.917,2.254-40.375c1.406-25.2,2.813-50.401,4.219-75.602c0.133-2.376,0.265-4.752,0.398-7.127
			L1230.378,211.237z"/>
		<path clip-path="url(#SVGID_20_)" fill="#A6CBDD" d="M1295.501,211.895c-0.233,17.896-0.34,35.794-0.521,53.69
			c-0.087,8.706-0.357,17.438-0.215,26.14c0.108,6.563-2.354,15.766,1.063,21.717c0.826,1.44,1.996,2.663,3.301,3.69
			c7.653,6.028,18.783,6.421,27.613,10.053c9.789,4.026,19.58,8.05,29.363,12.086c20.944,8.639,41.896,17.258,62.844,25.886
			l16.329-62.851l-81.726-23.295l-1.617-86.346L1295.501,211.895z"/>
		<path clip-path="url(#SVGID_20_)" fill="#FFFFFF" d="M1483.081,353.103c0.294-15.7-3.882-33.217-7.567-48.67
			c-0.389-1.632-0.772-3.241-1.146-4.825c-0.877-3.72-1.892-7.27-4.648-9.813c-2.566-2.368-6.008-3.172-8.774-3.819l-45.349-10.6
			c-3.323-0.776-6.759-1.58-9.47-3.457c-6.73-4.662-7.138-14.671-7-18.758c0.227-6.761,0.558-13.651,0.879-20.314
			c1.15-23.886,2.339-48.585-0.972-72.891c-0.981-7.204-2.839-16.353-8.54-23.216c-6.071-7.306-15.87-11.595-29.125-12.749
			c-34.615-3.012-80.11-6.544-125.043-7.131c-22.967-0.3-43.998,0.148-64.294,1.368c-10.847,0.652-23.329,2.165-33.653,8.438
			c-11.104,6.749-19.508,18.96-23.661,34.386c-2.425,9.001-3.198,18.408-3.948,27.506c-0.448,5.456-0.914,11.099-1.731,16.475
			c-1.358,8.926-2.685,18.012-3.966,26.797c-1.019,6.97-2.035,13.94-3.078,20.905c-1.71,11.413-6.338,26.459-18.678,33.321
			c-10.05,5.59-24.106,7.079-37.7,8.521c-5.554,0.587-10.798,1.143-15.604,1.968c-20.412,3.505-38.822,6.387-57.411,6.144
			l-0.146-0.002l-0.146,0.02c-4.804,0.626-10.248,1.337-14.967,3.946c-13.041,7.212-21.837,40.096-23.139,51.966
			c-0.053,0.482-0.097,0.96-0.132,1.435c-0.368,5.075,0.576,8.766,2.885,11.282c0.359,0.39,0.742,0.737,1.142,1.051
			c5.879,0.097,11.686-0.029,17.861-1.265c3.102,0,6.203-4.135,10.338-5.169c21.709-3.101,41.351-4.135,62.025-9.304
			c37.215-7.236,73.396-6.202,109.577-7.236c15.506-1.033,32.046,1.034,47.553,3.102c0.431,0.088,0.86,0.173,1.291,0.26
			l20.622-120.999l0.002-0.162c0.228-17.402,19.178-18.32,19.906-18.349l87.057,0.101l0.21-0.044
			c1.951-0.407,3.75-0.603,5.345-0.582c3.191,0.041,5.622,0.947,7.227,2.692c2.651,2.885,2.372,7.266,2.369,7.301l-0.008,0.094
			l0.467,43.471c-0.108,8.416,10.83,14.162,11.295,14.403l0.15,0.078l43.5,14.09l0.104,0.021
			c17.785,3.799,16.873,10.099,16.877,10.099c-2.301,8.726-1.351,37.299,5.507,52.272c21.481,3.317,43.272,6.693,65.462,3.524
			c3.076-0.615,6.518-1.32,10.027-1.792c0.117-1.34,0.167-2.932,0.201-4.832L1483.081,353.103z"/>
		<g opacity="0.4" clip-path="url(#SVGID_20_)">
			<g>
				<defs>
					<rect id="SVGID_29_" x="1396.52" y="267.605" width="75.41" height="31.646"/>
				</defs>
				<clipPath id="SVGID_30_">
					<use xlink:href="#SVGID_29_"  overflow="visible"/>
				</clipPath>
				
					<pattern  id="SVGID_31_" xlink:href="#Unnamed_Pattern" patternTransform="matrix(1.0337 0.0135 -0.8538 -1.045 6930.334 -353.0576)">
				</pattern>
				<path clip-path="url(#SVGID_30_)" fill="url(#SVGID_31_)" d="M1471.026,295.526c-0.623-1.59-1.458-3.059-2.708-4.212
					c-2.112-1.948-5.045-2.672-7.843-3.325c-15.116-3.533-30.233-7.067-45.35-10.6c-3.545-0.829-7.184-1.698-10.176-3.77
					c-2.228-1.543-3.897-3.609-5.114-5.973c-0.813-0.009-1.628-0.027-2.442-0.042c-1.856,9.957-0.646,20.483,2.66,30.584
					c23.658-0.545,48.17,2.483,71.878,0.198C1471.676,297.417,1471.389,296.451,1471.026,295.526"/>
			</g>
		</g>
		
			<pattern  id="SVGID_32_" xlink:href="#Unnamed_Pattern_2" patternTransform="matrix(1.0337 0.0135 0.0135 -1.0337 132.7598 -441.8301)">
		</pattern>
		<path clip-path="url(#SVGID_20_)" fill="url(#SVGID_32_)" d="M1399.836,267.646c-2.033-3.952-2.8-8.738-2.786-13.313
			c0-0.166-0.004-0.332-0.001-0.497c0.004-0.249,0.003-0.499,0.012-0.746c1.039-30.918,4.131-61.969-0.074-92.856
			c-1.076-7.901-2.987-16.042-8.084-22.174c-6.607-7.953-17.41-11.113-27.713-12.01c-62.254-5.416-126.586-9.514-189.032-5.759
			c-11.329,0.682-23.005,2.247-32.704,8.141c-11.736,7.132-19.168,19.895-22.739,33.156c-3.832,14.231-3.451,29.43-5.631,43.755
			c-2.418,15.884-4.664,31.803-7.045,47.698c-2.048,13.673-7.633,28.101-19.716,34.821c-14.639,8.141-37.519,7.896-53.96,10.72
			c-19.087,3.277-38.357,6.426-57.786,6.172c-4.893,0.64-9.916,1.321-14.233,3.707c-11.71,6.475-20.722,37.959-22.085,50.381
			c-0.05,0.458-0.091,0.91-0.124,1.359c-1.187,16.346,12.59,12.718,25.11,11.84c74.261-5.214,148.521-10.427,222.783-15.64
			l21.272-124.817c0.257-19.639,21.976-20.389,21.976-20.389l86.843,0.1c1.907-0.398,3.606-0.593,5.12-0.623
			c13.3-0.264,12.303,12.223,12.303,12.223l0.419,38.926l0.045,4.158C1354.414,264.642,1377.229,267.411,1399.836,267.646"/>
		<g opacity="0.57" clip-path="url(#SVGID_20_)">
			<g>
				<defs>
					<rect id="SVGID_33_" x="1332" y="265.616" width="68.05" height="32.582"/>
				</defs>
				<clipPath id="SVGID_34_">
					<use xlink:href="#SVGID_33_"  overflow="visible"/>
				</clipPath>
				
					<pattern  id="SVGID_35_" xlink:href="#Unnamed_Pattern_3" patternTransform="matrix(1.0337 0.0135 -0.8538 -1.045 6930.334 -353.0576)">
				</pattern>
				<path clip-path="url(#SVGID_34_)" fill="url(#SVGID_35_)" d="M1397.394,267.604c-21.808-0.396-43.786-2.914-65.389-1.624
					l0.003,0.343c-0.094,7.235,10.175,12.539,10.175,12.539l43.238,14.005c4.387,0.936,7.734,2.049,10.298,3.216
					c1.52,0.693,2.759,1.406,3.773,2.114c0.187-0.004,0.375-0.005,0.562-0.009C1396.747,288.086,1395.537,277.562,1397.394,267.604"
					/>
			</g>
		</g>
		
			<pattern  id="SVGID_36_" xlink:href="#Unnamed_Pattern_4" patternTransform="matrix(0.9303 0.0121 -0.2026 -0.9331 1014.8809 -1234.9526)">
		</pattern>
		<path clip-path="url(#SVGID_20_)" fill="url(#SVGID_36_)" d="M1472.355,300.083c-0.133-0.562-0.274-1.13-0.424-1.696
			c-23.896,2.302-48.607-0.796-72.439-0.19c5.313,3.713,4.373,7.315,4.373,7.317c-0.017,0.062-0.031,0.138-0.047,0.203
			c-2.795,11.195-0.209,53.438,11.816,58.4c3.155,1.299,6.68,1.206,10.083,1.093c14.235-0.474,28.452-0.841,42.697-1.243
			c12.8-0.362,12.374,1.164,12.6-10.903C1481.333,335.99,1476.25,316.621,1472.355,300.083"/>
	</g>
	<g clip-path="url(#SVGID_2_)">
		<defs>
			<path id="SVGID_37_" d="M1809.317,144.506c-41.128,8.787-79.73,3.005-120.847,7.342c-15.964,1.685-70.789,16.855-52.94,38.401
				c3.802,4.59,9.971,7.212,16.019,9.342c19.242,6.774,42.052,11.726,63,10.629c18.43-0.965,34.983-9.343,53.368-10.31
				c16.653-0.876,33.32,3.499,49.657,5.566c33.81,4.277,68.291-0.844,102.426-1.297v-62.752
				c-11.609-4.924-25.085-7.241-39.058-7.415c-0.617-0.008-1.237-0.011-1.854-0.011C1855.444,134,1832.297,139.597,1809.317,144.506
				"/>
		</defs>
		<clipPath id="SVGID_38_">
			<use xlink:href="#SVGID_37_"  overflow="visible"/>
		</clipPath>
		<defs>
			<filter id="Adobe_OpacityMaskFilter_2_" filterUnits="userSpaceOnUse" x="1617.682" y="134" width="302.318" height="77.317">
				<feColorMatrix  type="matrix" values="1 0 0 0 0  0 1 0 0 0  0 0 1 0 0  0 0 0 1 0"/>
			</filter>
		</defs>
		<mask maskUnits="userSpaceOnUse" x="1617.682" y="134" width="302.318" height="77.317" id="SVGID_39_">
			<g filter="url(#Adobe_OpacityMaskFilter_2_)">
				
					<linearGradient id="SVGID_40_" gradientUnits="userSpaceOnUse" x1="0" y1="677.8359" x2="1" y2="677.8359" gradientTransform="matrix(0 43.7661 43.7661 0 -27897.3887 150.625)">
					<stop  offset="0" style="stop-color:#FFFFFF"/>
					<stop  offset="0.1174" style="stop-color:#F9F9F9"/>
					<stop  offset="0.2735" style="stop-color:#E8E8E8"/>
					<stop  offset="0.4514" style="stop-color:#CDCDCD"/>
					<stop  offset="0.6455" style="stop-color:#A6A6A6"/>
					<stop  offset="0.8503" style="stop-color:#757575"/>
					<stop  offset="1" style="stop-color:#4D4D4D"/>
				</linearGradient>
				<rect x="1617.683" y="134" clip-path="url(#SVGID_38_)" fill="url(#SVGID_40_)" width="302.317" height="77.317"/>
			</g>
		</mask>
		
			<linearGradient id="SVGID_41_" gradientUnits="userSpaceOnUse" x1="0" y1="677.8359" x2="1" y2="677.8359" gradientTransform="matrix(0 43.7661 43.7661 0 -27897.3867 150.625)">
			<stop  offset="0" style="stop-color:#DEF8FF"/>
			<stop  offset="0.3391" style="stop-color:#E4F9FF"/>
			<stop  offset="0.787" style="stop-color:#F5FDFF"/>
			<stop  offset="1" style="stop-color:#FFFFFF"/>
		</linearGradient>
		
			<rect x="1617.682" y="134" clip-path="url(#SVGID_38_)" mask="url(#SVGID_39_)" fill="url(#SVGID_41_)" width="302.318" height="77.317"/>
	</g>
	<g clip-path="url(#SVGID_2_)">
		<defs>
			<rect id="SVGID_42_" width="1920" height="678"/>
		</defs>
		<clipPath id="SVGID_43_">
			<use xlink:href="#SVGID_42_"  overflow="visible"/>
		</clipPath>
		<path clip-path="url(#SVGID_43_)" fill="#FF0000" d="M1624.978,178.845c-1.796-2.38-4.392-4.318-7.709-5.46
			c-9.197-3.167-16.938,2.615-19.379,10.668c-0.658,2.171-0.672,4.5-0.292,6.822c1.397,8.543,8.171,16.97,8.171,16.97
			s16.104-4.927,20.53-14.011C1628.806,188.688,1628.162,183.065,1624.978,178.845"/>
		<path clip-path="url(#SVGID_43_)" fill="none" stroke="#FCFFF9" stroke-miterlimit="10" d="M1557.365,234.678
			c-1.604,7.785-0.195,14.616,3.136,21.712c2.996,6.385,7.227,16.517-0.03,21.784"/>
		<path clip-path="url(#SVGID_43_)" fill="#B7B3FF" d="M1562.477,197.679c-2.955-1.503-6.495-2.176-10.366-1.701
			c-10.737,1.318-15.655,10.869-14.17,20.106c0.4,2.491,1.522,4.826,3.032,6.961c5.561,7.858,16.438,12.979,16.438,12.979
			s13.695-12.773,13.69-24.008C1571.099,205.651,1567.715,200.345,1562.477,197.679"/>
		<path clip-path="url(#SVGID_43_)" fill="#2A85FF" d="M1538.724,230.286c-2.597-5.335-7.597-8.405-13.076-8.503
			c-3.091-0.056-6.332,0.824-9.385,2.8c-8.464,5.482-8.693,15.496-3.683,22.635c1.353,1.925,3.245,3.425,5.382,4.6
			c7.865,4.32,19.073,4.179,19.073,4.179S1543.309,239.704,1538.724,230.286"/>
		<path clip-path="url(#SVGID_43_)" fill="none" stroke="#FFFFFF" stroke-miterlimit="10" d="M1537.5,255.5c0,0,7,18,23,23"/>
		<path clip-path="url(#SVGID_43_)" fill="#FFB612" d="M1599.345,239.848c-0.897-2.668-2.644-5.179-5.273-7.192
			c-7.292-5.583-15.952-2.716-20.541,3.767c-1.237,1.748-1.945,3.831-2.299,6.023c-1.299,8.069,2.251,17.638,2.251,17.638
			s15.895,0.396,22.57-6.418C1599.834,249.806,1600.937,244.578,1599.345,239.848"/>
		<path clip-path="url(#SVGID_43_)" fill="none" stroke="#FFFFFF" stroke-miterlimit="10" d="M1573.5,260.5c0,0,4,14-12,18"/>
		<path clip-path="url(#SVGID_43_)" fill="none" stroke="#FFFFFF" stroke-miterlimit="10" d="M1605.5,207.5
			c2.796,7.887,3.408,19.556-1.561,26.674c-4.777,6.843-15.176,10.211-17.267,18.689c-0.843,3.417-0.642,6.991-0.683,10.509
			c-0.057,4.768-0.584,9.581-2.211,14.063c-1.978,5.447-5.7,9.631-10.279,13.065"/>
	</g>
</g>
</svg>
