<?xml version="1.0" encoding="utf-8"?>
<!-- Generator: Adobe Illustrator 21.0.0, SVG Export Plug-In . SVG Version: 6.00 Build 0)  -->
<svg version="1.1" id="레이어_1" xmlns="http://www.w3.org/2000/svg" xmlns:xlink="http://www.w3.org/1999/xlink" x="0px"
	 y="0px" viewBox="0 0 1920 699" style="enable-background:new 0 0 1920 699;" xml:space="preserve">
<style type="text/css">
	.st0{fill:url(#SVGID_1_);fill-opacity:0.52;}
	.st1{fill:url(#SVGID_2_);fill-opacity:0.38;}
	.st2{fill:url(#SVGID_3_);fill-opacity:0.38;}
	.st3{opacity:0.35;}
	.st4{fill:#CDF2AA;}
	.st5{fill:#CCE5ED;fill-opacity:0.32;}
	.st6{fill:#94B5DD;fill-opacity:0.21;}
	.st7{fill:#F7C677;fill-opacity:0.21;}
	.st8{fill:#F7F7F7;}
</style>
<linearGradient id="SVGID_1_" gradientUnits="userSpaceOnUse" x1="938.1748" y1="1047.5638" x2="799.8536" y2="1182.3352" gradientTransform="matrix(0.2714 0.9625 -0.9625 0.2714 949.308 -475.9528)">
	<stop  offset="0" style="stop-color:#6F82FF"/>
	<stop  offset="0.1047" style="stop-color:#7886F2;stop-opacity:0.9476"/>
	<stop  offset="0.3003" style="stop-color:#908FCE;stop-opacity:0.8498"/>
	<stop  offset="0.5655" style="stop-color:#B79E95;stop-opacity:0.7172"/>
	<stop  offset="0.887" style="stop-color:#EBB347;stop-opacity:0.5565"/>
	<stop  offset="1" style="stop-color:#FFBB2A;stop-opacity:0.5"/>
</linearGradient>
<path class="st0" d="M-8.3,696.9L-8.3,696.9c-4.6-16.4,5-33.6,21.4-38.2l180.9-51c16.4-4.6,33.6,5,38.2,21.4l0,0
	c4.6,16.4-5,33.6-21.4,38.2l-180.9,51C13.5,723-3.7,713.3-8.3,696.9z"/>
<linearGradient id="SVGID_2_" gradientUnits="userSpaceOnUse" x1="589.8694" y1="1621.6306" x2="457.8507" y2="1489.6118" gradientTransform="matrix(-0.2714 -0.9625 0.9625 -0.2714 500.396 1025.8259)">
	<stop  offset="0" style="stop-color:#FFBB2A;stop-opacity:0.5"/>
	<stop  offset="1" style="stop-color:#4D7C2A"/>
</linearGradient>
<path class="st1" d="M1972.4,66.5L1972.4,66.5c3.8,13.5-4.1,27.7-17.6,31.5L1770,150.1c-13.5,3.8-27.7-4.1-31.5-17.6l0,0
	c-3.8-13.5,4.1-27.7,17.6-31.5L1941,48.9C1954.5,45.1,1968.6,53,1972.4,66.5z"/>
<linearGradient id="SVGID_3_" gradientUnits="userSpaceOnUse" x1="585.1083" y1="-217.9425" x2="448.7594" y2="-354.2914" gradientTransform="matrix(-0.1535 -0.5446 0.9625 -0.2714 430.252 777.0268)">
	<stop  offset="0" style="stop-color:#FF7C2A"/>
	<stop  offset="1" style="stop-color:#FFBB2A;stop-opacity:0.5"/>
</linearGradient>
<path class="st2" d="M192.4,540.2L192.4,540.2c2.2,7.6-2.3,15.6-10,17.8l-206.1,58.1c-7.6,2.2-15.6-2.3-17.8-10l0,0
	c-2.2-7.6,2.3-15.6,10-17.8l206.1-58.1C182.3,528.1,190.3,532.5,192.4,540.2z"/>
<g class="st3">
	
		<rect x="1709.3" y="481.4" transform="matrix(0.711 0.7032 -0.7032 0.711 849.872 -1060.0583)" class="st4" width="10.3" height="45"/>
	
		<rect x="1722.2" y="494.1" transform="matrix(0.711 0.7032 -0.7032 0.711 862.5408 -1065.4282)" class="st4" width="10.3" height="45"/>
	
		<rect x="1735.1" y="506.8" transform="matrix(0.711 0.7032 -0.7032 0.711 875.2097 -1070.7982)" class="st4" width="10.3" height="45"/>
</g>
<g class="st3">
	
		<rect x="195.1" y="226.3" transform="matrix(0.8917 -0.4526 0.4526 0.8917 -90.9101 117.5675)" class="st4" width="10.3" height="45"/>
	
		<rect x="211.2" y="218.1" transform="matrix(0.8917 -0.4526 0.4526 0.8917 -85.4554 123.9846)" class="st4" width="10.3" height="45"/>
	
		<rect x="227.4" y="209.9" transform="matrix(0.8917 -0.4526 0.4526 0.8917 -80.0007 130.4017)" class="st4" width="10.3" height="45"/>
</g>
<path class="st5" d="M1591.5,434c-84.2,0-152.5,68.3-152.5,152.5c0,84.2,68.3,152.5,152.5,152.5S1744,670.7,1744,586.5
	C1744,502.3,1675.7,434,1591.5,434z M1591.5,723.7c-75.8,0-137.3-61.4-137.3-137.2c0-75.8,61.4-137.3,137.3-137.3
	s137.3,61.4,137.3,137.3C1728.8,662.3,1667.3,723.7,1591.5,723.7z"/>
<circle class="st6" cx="109.4" cy="163.1" r="5.5"/>
<ellipse transform="matrix(0.9397 -0.342 0.342 0.9397 -55.6717 43.92)" class="st6" cx="96.7" cy="179.8" rx="5.5" ry="5.5"/>
<ellipse transform="matrix(0.766 -0.6428 0.6428 0.766 -107.3259 104.9119)" class="st6" cx="90.5" cy="199.9" rx="5.5" ry="5.5"/>
<ellipse transform="matrix(0.5 -0.866 0.866 0.5 -145.5692 189.6442)" class="st6" cx="91.5" cy="220.9" rx="5.5" ry="5.5"/>
<ellipse transform="matrix(0.1736 -0.9848 0.9848 0.1736 -154.3505 296.6078)" class="st6" cx="99.6" cy="240.3" rx="5.5" ry="5.5"/>
<ellipse transform="matrix(0.9848 -0.1736 0.1736 0.9848 -42.6765 23.6501)" class="st6" cx="113.8" cy="255.7" rx="5.5" ry="5.5"/>
<ellipse transform="matrix(0.866 -0.5 0.5 0.866 -114.9278 101.8023)" class="st6" cx="132.5" cy="265.4" rx="5.5" ry="5.5"/>
<ellipse transform="matrix(0.6428 -0.766 0.766 0.6428 -150.5416 213.2156)" class="st6" cx="153.4" cy="268" rx="5.5" ry="5.5"/>
<ellipse transform="matrix(0.342 -0.9397 0.9397 0.342 -133.1249 336.6827)" class="st6" cx="173.9" cy="263.4" rx="5.5" ry="5.5"/>
<circle class="st6" cx="191.5" cy="252" r="5.5"/>
<ellipse transform="matrix(0.9397 -0.342 0.342 0.9397 -68.1659 84.0574)" class="st6" cx="204.3" cy="235.3" rx="5.5" ry="5.5"/>
<ellipse transform="matrix(0.766 -0.6428 0.6428 0.766 -89.1102 185.6799)" class="st6" cx="210.5" cy="215.3" rx="5.5" ry="5.5"/>
<ellipse transform="matrix(0.5 -0.866 0.866 0.5 -63.4697 278.5853)" class="st6" cx="209.5" cy="194.3" rx="5.5" ry="5.5"/>
<ellipse transform="matrix(0.1736 -0.9848 0.9848 0.1736 -5.7756 342.857)" class="st6" cx="201.4" cy="174.9" rx="5.5" ry="5.5"/>
<ellipse transform="matrix(0.9848 -0.1736 0.1736 0.9848 -24.8406 34.9214)" class="st6" cx="187.2" cy="159.4" rx="5.5" ry="5.5"/>
<ellipse transform="matrix(0.866 -0.5 0.5 0.866 -52.3226 104.3065)" class="st6" cx="168.5" cy="149.8" rx="5.5" ry="5.5"/>
<ellipse transform="matrix(0.6428 -0.766 0.766 0.6428 -59.9665 165.6437)" class="st6" cx="147.6" cy="147.1" rx="5.5" ry="5.5"/>
<ellipse transform="matrix(0.342 -0.9397 0.9397 0.342 -58.9482 219.3041)" class="st6" cx="127.1" cy="151.7" rx="5.5" ry="5.5"/>
<ellipse transform="matrix(0.9397 -0.342 0.342 0.9397 80.8789 479.6056)" class="st7" cx="1400.4" cy="10.5" rx="6.9" ry="6.9"/>
<ellipse transform="matrix(0.766 -0.6428 0.6428 0.766 302.7414 903.4852)" class="st7" cx="1392.5" cy="35.9" rx="6.9" ry="6.9"/>
<ellipse transform="matrix(0.5 -0.866 0.866 0.5 642.8303 1238.261)" class="st7" cx="1393.8" cy="62.4" rx="6.9" ry="6.9"/>
<ellipse transform="matrix(0.1736 -0.9848 0.9848 0.1736 1074.6006 1454.577)" class="st7" cx="1404" cy="87" rx="6.9" ry="6.9"/>
<ellipse transform="matrix(0.9848 -0.1736 0.1736 0.9848 3.1107 248.5613)" class="st7" cx="1422.1" cy="106.5" rx="6.9" ry="6.9"/>
<ellipse transform="matrix(0.866 -0.5 0.5 0.866 134.3415 738.7661)" class="st7" cx="1445.7" cy="118.7" rx="6.9" ry="6.9"/>
<ellipse transform="matrix(0.6428 -0.766 0.766 0.6428 432.342 1171.3077)" class="st7" cx="1472.1" cy="122.1" rx="6.9" ry="6.9"/>
<ellipse transform="matrix(0.342 -0.9397 0.9397 0.342 876.4777 1484.1838)" class="st7" cx="1498.1" cy="116.2" rx="6.9" ry="6.9"/>
<circle class="st7" cx="1520.4" cy="101.8" r="6.9"/>
<ellipse transform="matrix(0.9397 -0.342 0.342 0.9397 65.0682 530.3973)" class="st7" cx="1536.6" cy="80.7" rx="6.9" ry="6.9"/>
<ellipse transform="matrix(0.766 -0.6428 0.6428 0.766 325.7925 1005.6931)" class="st7" cx="1544.5" cy="55.3" rx="6.9" ry="6.9"/>
<ellipse transform="matrix(0.5 -0.866 0.866 0.5 746.723 1350.8114)" class="st7" cx="1543.2" cy="28.7" rx="6.9" ry="6.9"/>
<ellipse transform="matrix(0.1736 -0.9848 0.9848 0.1736 1262.6145 1513.103)" class="st7" cx="1532.9" cy="4.2" rx="6.9" ry="6.9"/>
<polygon class="st8" points="1916.8,2.7 -17.1,99.6 -0.9,-42.5 1933,-139.4 "/>
</svg>
