<?xml version="1.0" encoding="utf-8"?>
<!-- Generator: Adobe Illustrator 16.0.0, SVG Export Plug-In . SVG Version: 6.00 Build 0)  -->
<!DOCTYPE svg PUBLIC "-//W3C//DTD SVG 1.1//EN" "http://www.w3.org/Graphics/SVG/1.1/DTD/svg11.dtd">
<svg version="1.1" id="Layer_1" xmlns="http://www.w3.org/2000/svg" xmlns:xlink="http://www.w3.org/1999/xlink" x="0px" y="0px"
	 width="338px" height="49px" viewBox="0 0 338 49" enable-background="new 0 0 338 49" xml:space="preserve">
<linearGradient id="SVGID_1_" gradientUnits="userSpaceOnUse" x1="45.0908" y1="27.1816" x2="117.425" y2="0.5142" gradientTransform="matrix(1 0 0 -1 -0.0449 48.7598)">
	<stop  offset="0" style="stop-color:#10A94B"/>
	<stop  offset="1" style="stop-color:#6FC171"/>
</linearGradient>
<path fill="url(#SVGID_1_)" d="M46.429,9.977h20.72v4.48h-15.96v5.72h17.16v0.8c0,1.04-0.387,1.914-1.16,2.62
	c-0.773,0.707-1.8,1.06-3.08,1.06h-5.08v1.04h11.8v0.84c0,1.014-0.387,1.874-1.16,2.58c-0.774,0.707-1.787,1.06-3.04,1.06h-23
	v-4.479h10.72v-1.04h-7.92V9.977z M57.149,30.855c1.173,0,2.366,0.127,3.58,0.381c1.214,0.253,2.313,0.66,3.3,1.22
	c0.96,0.56,1.746,1.28,2.36,2.16c0.613,0.88,0.92,1.934,0.92,3.159c0,1.254-0.307,2.32-0.92,3.201c-0.614,0.879-1.4,1.6-2.36,2.159
	c-0.987,0.533-2.087,0.927-3.3,1.181s-2.407,0.379-3.58,0.379c-1.2,0-2.4-0.127-3.6-0.379c-1.2-0.254-2.28-0.646-3.24-1.181
	c-0.987-0.56-1.787-1.28-2.4-2.159c-0.614-0.881-0.92-1.946-0.92-3.201c0-1.227,0.306-2.279,0.92-3.159
	c0.613-0.88,1.413-1.601,2.4-2.16c0.96-0.56,2.04-0.966,3.24-1.22C54.749,30.982,55.949,30.855,57.149,30.855z M57.149,40.296
	c0.56,0,1.173-0.04,1.84-0.12c0.666-0.08,1.293-0.213,1.88-0.4c0.56-0.187,1.033-0.439,1.42-0.76c0.386-0.32,0.58-0.732,0.58-1.24
	c0-0.506-0.194-0.914-0.58-1.219c-0.387-0.307-0.86-0.554-1.42-0.74c-0.587-0.187-1.214-0.313-1.88-0.381
	c-0.667-0.065-1.28-0.1-1.84-0.1c-0.587,0-1.214,0.034-1.88,0.1c-0.667,0.067-1.28,0.194-1.84,0.381
	c-0.587,0.187-1.074,0.434-1.46,0.74c-0.387,0.307-0.58,0.713-0.58,1.219c0,0.508,0.193,0.92,0.58,1.24
	c0.386,0.32,0.873,0.574,1.46,0.76c0.56,0.188,1.173,0.32,1.84,0.4S56.562,40.296,57.149,40.296z"/>
<linearGradient id="SVGID_2_" gradientUnits="userSpaceOnUse" x1="51.2363" y1="38.6035" x2="123.5681" y2="11.9371" gradientTransform="matrix(1 0 0 -1 -0.0449 48.7598)">
	<stop  offset="0" style="stop-color:#10A94B"/>
	<stop  offset="1" style="stop-color:#6FC171"/>
</linearGradient>
<path fill="url(#SVGID_2_)" d="M88.963,39.577h-4.68v-4.761h-10.32v-4.479h26.4v0.84c0,1.015-0.387,1.874-1.16,2.58
	s-1.787,1.06-3.04,1.06h-7.2V39.577z M76.763,10.017h20.76v19.16h-4.76v-14.68h-16V10.017z"/>
<linearGradient id="SVGID_3_" gradientUnits="userSpaceOnUse" x1="55.8779" y1="46" x2="128.2109" y2="19.333" gradientTransform="matrix(1 0 0 -1 -0.0449 48.7598)">
	<stop  offset="0" style="stop-color:#10A94B"/>
	<stop  offset="1" style="stop-color:#6FC171"/>
</linearGradient>
<path fill="url(#SVGID_3_)" d="M104.278,11.177h6.76v-2.96h4.16v2.96h6.6v4.48h-4.08l5.48,11.159l-3.88,2.561l-6.08-12.24
	l-6.48,12.599l-3.88-2.52l6.04-11.56h-4.64V11.177z M118.918,30.457c1.28,0,2.526,0.12,3.74,0.359c1.213,0.24,2.3,0.641,3.26,1.201
	c0.96,0.56,1.726,1.293,2.3,2.199c0.573,0.907,0.86,2.027,0.86,3.36c0,1.36-0.287,2.493-0.86,3.399c-0.574,0.906-1.34,1.641-2.3,2.2
	c-0.96,0.533-2.047,0.921-3.26,1.16c-1.214,0.24-2.46,0.36-3.74,0.36c-1.28,0-2.534-0.12-3.76-0.36
	c-1.227-0.239-2.307-0.626-3.24-1.16c-0.96-0.56-1.727-1.294-2.3-2.2c-0.574-0.906-0.86-2.039-0.86-3.399
	c0-1.333,0.286-2.453,0.86-3.36c0.573-0.906,1.34-1.64,2.3-2.199c0.933-0.561,2.013-0.961,3.24-1.201
	C116.384,30.577,117.638,30.457,118.918,30.457z M118.918,40.296c0.56,0,1.173-0.026,1.84-0.08c0.667-0.053,1.293-0.173,1.88-0.36
	c0.56-0.213,1.033-0.492,1.42-0.84c0.386-0.346,0.58-0.826,0.58-1.439c0-0.586-0.194-1.061-0.58-1.42
	c-0.387-0.36-0.86-0.633-1.42-0.82c-0.587-0.16-1.213-0.266-1.88-0.32c-0.667-0.053-1.28-0.08-1.84-0.08
	c-0.587,0-1.214,0.027-1.88,0.08c-0.667,0.055-1.28,0.16-1.84,0.32c-0.587,0.188-1.074,0.46-1.46,0.82
	c-0.387,0.359-0.58,0.833-0.58,1.42c0,0.613,0.193,1.094,0.58,1.439c0.386,0.348,0.873,0.627,1.46,0.84
	c0.56,0.188,1.173,0.308,1.84,0.36C117.704,40.271,118.331,40.296,118.918,40.296z M129.318,29.177h-4.64v-8.4h-3.2v-4.4h3.2v-6.4
	h4.64V29.177z"/>
<path fill="#515151" d="M143.572,29.657c-1.44,0-2.907-0.38-4.4-1.14c-1.494-0.761-2.534-1.594-3.12-2.5
	c-0.614-0.881-1.074-1.874-1.38-2.98c-0.307-1.106-0.46-2.286-0.46-3.54c0-1.44,0.22-2.786,0.66-4.04
	c0.44-1.253,1.073-2.346,1.9-3.28c0.8-0.933,1.793-1.667,2.98-2.2c1.186-0.533,2.526-0.8,4.02-0.8c1.466,0,2.793,0.267,3.98,0.8
	c1.186,0.534,2.193,1.267,3.02,2.2c0.826,0.934,1.46,2.027,1.9,3.28c0.44,1.254,0.66,2.6,0.66,4.04c0,1.254-0.16,2.447-0.48,3.58
	c-0.32,1.134-0.787,2.14-1.4,3.021c-0.64,0.906-1.54,1.727-2.7,2.459c-1.16,0.734-2.727,1.101-4.7,1.101H143.572z M155.172,31.497
	V9.937h4.68v26.44h-4.68v-2.76c-0.294,0.693-0.787,1.26-1.48,1.699c-0.694,0.44-1.52,0.66-2.48,0.66h-16.6v-4.479H155.172z
	 M143.772,25.217c0.88,0,1.64-0.167,2.28-0.5c0.64-0.333,1.173-0.767,1.6-1.3c0.4-0.533,0.707-1.146,0.92-1.84
	c0.213-0.693,0.32-1.386,0.32-2.08c0-0.693-0.107-1.38-0.32-2.06c-0.213-0.68-0.52-1.286-0.92-1.82c-0.427-0.533-0.96-0.96-1.6-1.28
	c-0.64-0.32-1.4-0.48-2.28-0.48s-1.647,0.16-2.3,0.48c-0.653,0.32-1.18,0.747-1.58,1.28c-0.427,0.534-0.747,1.14-0.96,1.82
	c-0.214,0.68-0.32,1.367-0.32,2.06c0,0.694,0.106,1.387,0.32,2.08c0.213,0.694,0.533,1.307,0.96,1.84
	c0.4,0.534,0.926,0.967,1.58,1.3C142.126,25.05,142.893,25.217,143.772,25.217z"/>
<path fill="#515151" d="M185.707,9.177c1.572,0,2.986,0.313,4.24,0.94c1.253,0.627,2.32,1.46,3.199,2.5
	c0.881,1.067,1.554,2.3,2.021,3.7c0.466,1.4,0.7,2.86,0.7,4.38c0,1.547-0.234,3.02-0.7,4.42c-0.467,1.4-1.14,2.619-2.021,3.66
	c-0.879,1.065-1.946,1.906-3.199,2.52c-1.254,0.614-2.668,0.92-4.24,0.92c-1.6,0-3.027-0.307-4.28-0.92
	c-1.254-0.613-2.307-1.453-3.159-2.52c-0.881-1.041-1.555-2.26-2.021-3.66c-0.468-1.4-0.7-2.873-0.7-4.42
	c0-1.521,0.232-2.98,0.7-4.38c0.466-1.4,1.14-2.633,2.021-3.7c0.853-1.04,1.905-1.873,3.159-2.5
	C182.68,9.49,184.107,9.177,185.707,9.177z M185.707,27.617c0.88,0,1.667-0.193,2.359-0.58c0.693-0.387,1.293-0.9,1.801-1.54
	c0.506-0.64,0.893-1.373,1.16-2.2c0.267-0.826,0.399-1.693,0.399-2.6c0-0.906-0.134-1.773-0.399-2.6
	c-0.268-0.826-0.653-1.56-1.16-2.2c-0.508-0.613-1.107-1.106-1.801-1.48c-0.692-0.373-1.479-0.56-2.359-0.56s-1.674,0.187-2.38,0.56
	c-0.707,0.374-1.313,0.867-1.82,1.48c-0.507,0.64-0.894,1.374-1.159,2.2c-0.268,0.827-0.4,1.694-0.4,2.6
	c0,0.907,0.133,1.772,0.4,2.6c0.266,0.827,0.652,1.56,1.159,2.2c0.507,0.64,1.113,1.153,1.82,1.54
	C184.033,27.423,184.827,27.617,185.707,27.617z M197.707,9.977h4.68v27h-4.68V9.977z"/>
<path fill="#515151" d="M221.701,28.777v3.119h11.801v0.84c0,1.015-0.389,1.875-1.16,2.58c-0.773,0.707-1.787,1.061-3.041,1.061h-23
	v-4.48h10.721v-3.119h-7.92v-18.8h21.121v15.08c0,1.041-0.395,1.92-1.182,2.641c-0.787,0.72-1.82,1.08-3.1,1.08H221.701z
	 M213.661,24.296h12v-9.84h-12V24.296z"/>
<path fill="#515151" d="M237.477,9.977h17.521v4.48h-4.358l5.76,14.8l-4.28,2.761l-5.681-15.241l-6.16,15.241l-4.199-2.761
	l6.04-14.8h-4.64v-4.48H237.477z M263.598,36.376h-4.681v-15.32h-4.24v-4.48h4.24v-6.6h4.681V36.376z"/>
<path fill="#515151" d="M282.57,28.777v3.119h11.801v0.84c0,1.015-0.389,1.875-1.16,2.58c-0.773,0.707-1.787,1.061-3.04,1.061h-23
	v-4.48h10.72v-3.119h-7.92v-18.8h21.12v15.08c0,1.041-0.394,1.92-1.18,2.641c-0.787,0.72-1.82,1.08-3.101,1.08H282.57z
	 M274.529,24.296h12v-9.84h-12V24.296z"/>
</svg>
