<?xml version="1.0" encoding="utf-8"?>
<!-- Generator: Adobe Illustrator 16.0.0, SVG Export Plug-In . SVG Version: 6.00 Build 0)  -->
<!DOCTYPE svg PUBLIC "-//W3C//DTD SVG 1.1//EN" "http://www.w3.org/Graphics/SVG/1.1/DTD/svg11.dtd">
<svg version="1.1" id="Layer_1" xmlns="http://www.w3.org/2000/svg" xmlns:xlink="http://www.w3.org/1999/xlink" x="0px" y="0px"
	 width="40px" height="40px" viewBox="0 0 40 40" enable-background="new 0 0 40 40" xml:space="preserve">
<rect x="3.938" y="8.063" fill="none" stroke="#FFFFFF" stroke-width="3" stroke-miterlimit="10" width="32.125" height="27.875"/>
<line fill="none" stroke="#FFFFFF" stroke-width="3" stroke-miterlimit="10" x1="4.26" y1="15.917" x2="35.74" y2="15.917"/>
<g>
	<rect x="4.383" y="3.688" fill="#FFFFFF" width="4.351" height="4.625"/>
	<rect x="13.344" y="3.688" fill="#FFFFFF" width="4.351" height="4.625"/>
	<rect x="22.306" y="3.688" fill="#FFFFFF" width="4.351" height="4.625"/>
	<rect x="31.267" y="3.688" fill="#FFFFFF" width="4.351" height="4.625"/>
</g>
<path fill="#FFFFFF" d="M23.479,24.36c0.074,0.303,0.031,1.415-0.125,1.685c-0.161,0.277-0.42,0.475-0.729,0.558
	c-0.64,0.169-1.296-0.211-1.466-0.85c-0.511-1.915-2.485-3.058-4.398-2.548c-0.928,0.247-1.705,0.841-2.186,1.672
	c-0.358,0.619-0.52,2.113-0.478,2.811h2.415c-0.051-0.278-0.007-1.361,0.137-1.609c0.16-0.277,0.419-0.475,0.729-0.558
	c0.638-0.168,1.296,0.211,1.466,0.849c0.428,1.607,1.885,2.67,3.474,2.67c0.306,0,0.616-0.039,0.925-0.122
	c0.927-0.246,1.704-0.841,2.185-1.671c0.371-0.641,0.527-2.164,0.468-2.886H23.479z"/>
<g>
</g>
<g>
</g>
<g>
</g>
<g>
</g>
<g>
</g>
<g>
</g>
</svg>
