<?xml version="1.0" encoding="utf-8"?>
<!-- Generator: Adobe Illustrator 21.0.0, SVG Export Plug-In . SVG Version: 6.00 Build 0)  -->
<svg version="1.1" id="레이어_1" xmlns="http://www.w3.org/2000/svg" xmlns:xlink="http://www.w3.org/1999/xlink" x="0px"
	 y="0px" viewBox="0 0 193 106" style="enable-background:new 0 0 193 106;" xml:space="preserve">
<style type="text/css">
	.st0{fill:none;stroke:#333333;stroke-miterlimit:10;}
	.st1{fill:none;stroke:#000000;}
</style>
<g>
	<path class="st1" d="M52.1,14.9c0-0.8,0-2-0.1-3.5c-0.1-1.5-0.2-3-0.3-4.4L60,8.6c0.8,0.3,1.2,0.8,1.3,1.5c0,0.8-0.4,1.3-1.2,1.5
		l-2.9,1.2V27h8c2.3-2.6,4.3-5.3,5.9-8.1c1.7-2.8,3.1-5.8,4.2-9.3l6.8,2.9c0.7,0.2,1,0.7,0.9,1.4c-0.1,0.8-0.4,1.1-1,1.1l-2.8,0.4
		c-1,1.3-1.9,2.5-2.7,3.5c-0.8,1-1.5,2-2.3,3c-0.8,0.9-1.7,1.7-2.5,2.4c-0.9,0.8-2,1.5-3.2,2.3l0.1,0.2h17.5l2.2-3.1
		c0.2-0.3,0.6-0.5,1.1-0.5s0.9,0.2,1.3,0.5l4.2,4.4c0.5,0.4,0.7,0.9,0.6,1.5c-0.1,0.6-0.5,1-1.3,1.2L91,31.9c-0.8,1-1.9,2.3-3.4,3.8
		s-2.7,2.8-3.8,4l-2.2-1.8c0.8-1.2,1.7-2.6,2.7-4.1c1-1.5,1.8-2.9,2.3-4.2H24.2c-0.1,1.3-0.3,2.4-0.4,3.4c-0.1,1-0.3,1.8-0.5,2.4
		c-0.5,1.6-1.4,3.1-2.5,4.5c-1.1,1.4-2.6,2-4.3,2c-1.4,0-2.3-0.6-2.6-1.9c-0.3-1.2,0-2.3,1.1-3c0.8-0.7,1.7-1.5,2.5-2.6
		c0.9-1.1,1.6-2.2,2.1-3.4c0.6-1.1,1.1-2.6,1.5-4.5c0.4-1.8,0.6-3.6,0.6-5.4l2.5,0.6V27h27.7V14.9z M26.1,67.4c0-0.9-0.1-2-0.3-3.5
		c-0.2-1.5-0.3-2.8-0.5-3.8l6.8,4.3h45.3l2.1-2.8c0.3-0.4,0.7-0.6,1.1-0.7c0.4,0,0.9,0.2,1.3,0.6l3.6,2.9c0.5,0.3,0.8,0.8,0.8,1.5
		c0,0.7-0.3,1.2-0.8,1.6l-2.4,2v19.4c0,0.5,0,0.9,0,1.4c0,0.5,0.1,0.9,0.1,1.2c0.1,0.4,0.1,0.8,0.1,1c0,0.3,0,0.5,0,0.6
		c0,0.5,0,1-0.1,1.5c-0.1,0.5-0.3,0.9-0.5,1.1c-0.3,0.3-0.7,0.6-1.2,0.8c-0.5,0.2-0.9,0.3-1.2,0.3c-0.7,0-1.3-0.2-1.8-0.5
		c-0.5-0.4-0.8-0.9-0.8-1.5v-1.7H31.2v1.7c0,0.8-0.3,1.4-0.8,1.8c-0.5,0.4-1.3,0.6-2.3,0.6c-0.7,0-1.2-0.1-1.7-0.3
		c-0.5-0.2-0.7-0.4-0.7-0.8c0-0.6,0-1.2,0-1.9c0-0.7,0.1-1.3,0.1-1.9s0.1-1.1,0.2-1.6c0-0.5,0-1,0-1.4V67.4z M34.2,17
		c-1.2-2.3-2.7-4.4-4.5-6.4L31.5,9c0.7,0.5,1.4,1.1,2.1,1.6c0.7,0.5,1.4,1.1,2.1,1.7c0.7,0.5,1.4,1.1,2.1,1.7
		c0.7,0.6,1.3,1.2,1.8,1.7c0.6,0.8,1.1,1.6,1.6,2.4c0.5,0.8,0.7,1.5,0.7,2.2c0,1.1-0.2,2.1-0.7,3.1c-0.5,1-1.3,1.6-2.5,1.6
		c-0.3,0-0.7-0.2-1.1-0.6c-0.4-0.4-0.5-0.8-0.5-1.1C36.3,21.3,35.3,19.2,34.2,17z M31.2,67v9.9h20.9V67H31.2z M31.2,79.7v10.7h20.9
		V79.7H31.2z M34.3,41.5c0-0.8,0-1.9-0.1-3.4c-0.1-1.5-0.2-2.7-0.4-3.8l6.8,4.2h28.8l1.7-2.2c0.1-0.2,0.3-0.4,0.4-0.5
		c0.1-0.2,0.3-0.3,0.5-0.4c0.1-0.1,0.3-0.1,0.5,0c0.2,0.1,0.5,0.2,0.8,0.4l3.9,2.7c0.4,0.3,0.6,0.9,0.6,1.6c0,0.8-0.1,1.3-0.5,1.5
		l-2.4,2.2v7c0.1,0.9,0.2,1.8,0.3,2.6c0.1,0.8,0.2,1.4,0.2,1.6c0,0.5-0.1,1-0.3,1.5c-0.2,0.5-0.4,0.9-0.8,1.1
		c-0.2,0.2-0.6,0.4-1.1,0.6c-0.5,0.2-0.9,0.3-1.2,0.3c-0.6,0-1.1-0.2-1.6-0.5c-0.5-0.3-0.7-0.8-0.7-1.5v-0.9H39.6v0.9
		c0,0.8-0.3,1.5-0.9,2c-0.6,0.6-1.4,0.9-2.3,0.9c-0.7,0-1.3-0.1-1.7-0.5c-0.4-0.3-0.6-0.7-0.5-1.1c0-0.6,0-1.2,0-1.9
		c0-0.6,0-1.3,0-1.8c0-0.6,0-1.2,0-1.7c0-0.5,0-0.9,0-1.3V41.5z M39.6,41.1v11.6h30.1V41.1H39.6z M77.9,67H57.2v9.9h20.7V67z
		 M57.2,79.7v10.7h20.7V79.7H57.2z"/>
	<path class="st1" d="M123.4,15.4h42.7l2.3-2.8c0.5-0.7,1-1.1,1.4-1.2c0.4,0,0.9,0.3,1.6,0.9l3.8,3.7c0.6,0.5,0.9,1,1,1.8
		c0.1,0.7-0.2,1.2-0.8,1.4l-3.2,2.3v57c0,1,0,2,0,3.1c0,1.1,0.1,2.2,0.1,3.3c0.1,1.1,0.1,2.1,0.2,3c0.1,1,0.1,1.8,0.1,2.5
		c0,0.5-0.1,1-0.3,1.5c-0.2,0.5-0.4,0.9-0.5,1.1c-0.2,0.3-0.6,0.6-1.1,0.8c-0.5,0.2-1,0.3-1.4,0.3c-0.8,0-1.4-0.2-1.8-0.6
		c-0.4-0.4-0.5-0.8-0.5-1.4v-5.7h-43.3c0,1.3,0,2.5,0,3.8c0,1.2,0,2.1,0,2.8c0,0.8-0.3,1.4-0.9,1.7c-0.6,0.3-1.3,0.5-2,0.5
		c-0.8,0-1.5-0.2-2.2-0.5c-0.6-0.3-1-0.9-1-1.7c0.1-3.9,0.1-7.7,0.2-11.3c0-3.6,0-6.1,0-7.5V20.4c0-1.2-0.1-2.7-0.2-4.5
		c-0.1-1.8-0.3-3.5-0.6-5.1L123.4,15.4z M123.6,18.1v30.3h43.5V18.1H123.6z M123.6,74c0,1.6,0,3.3,0,5.2c0,1.9,0.1,3.4,0.2,4.6h43.3
		V51.2h-43.5V74z"/>
</g>
</svg>
