<?xml version="1.0" encoding="utf-8"?>
<!-- Generator: Adobe Illustrator 21.0.0, SVG Export Plug-In . SVG Version: 6.00 Build 0)  -->
<svg version="1.1" id="레이어_1" xmlns="http://www.w3.org/2000/svg" xmlns:xlink="http://www.w3.org/1999/xlink" x="0px"
	 y="0px" viewBox="0 0 193 106" style="enable-background:new 0 0 193 106;" xml:space="preserve">
<style type="text/css">
	.st0{fill:none;stroke:#333333;stroke-miterlimit:10;}
	.st1{fill:none;stroke:#000000;}
</style>
<g>
	<path class="st1" d="M75.5,12.4v4.7h5.6l2-2.6c0.4-0.5,0.7-0.8,1-0.9c0.3,0,0.6,0.1,1,0.6l3.9,3c0.6,0.5,0.9,1.1,0.9,1.6
		c0,0.5-0.3,1-0.9,1.4l-2.4,1.6v14.6c0.1,0.9,0.1,1.7,0.2,2.5c0.1,0.8,0.1,1.4,0.1,1.7c0,0.5-0.1,0.9-0.2,1.4s-0.3,0.9-0.5,1.1
		c-0.2,0.3-0.5,0.6-1,0.8c-0.5,0.2-0.9,0.3-1.3,0.3c-0.7,0-1.3-0.2-1.8-0.6c-0.4-0.4-0.7-1-0.7-1.6v-0.4H53.2v0.4
		c0,0.9-0.3,1.6-0.9,2.1c-0.6,0.5-1.4,0.8-2.4,0.8c-0.6,0-1.1-0.1-1.6-0.4c-0.5-0.3-0.7-0.6-0.7-1.1c0-0.2,0-0.4,0-0.7
		c0-0.3,0-0.5,0.1-0.7c0-0.3,0-0.5,0-0.7c0-0.2,0-0.4,0.1-0.6h-1.9c-0.3,0.3-0.7,0.8-1.2,1.4c-0.5,0.6-0.9,1.1-1.4,1.8
		c-0.5,0.6-0.9,1.2-1.4,1.8c-0.5,0.6-0.9,1-1.2,1.3L39,45.2c0.3-0.4,0.5-0.9,0.7-1.4s0.4-1,0.6-1.5c0.2-0.5,0.4-1,0.5-1.4
		c0.2-0.4,0.4-0.8,0.6-1.2h-26c-0.1,1.1-0.2,2-0.3,2.7c0,0.7-0.1,1.4-0.3,2c-0.1,0.7-0.2,1.3-0.5,1.9c-0.2,0.6-0.5,1.2-1,1.9
		c-0.2,0.4-0.4,0.8-0.7,1.1c-0.3,0.4-0.5,0.5-0.7,0.5c-0.8,0-1.5-0.3-2.1-0.9c-0.6-0.6-0.9-1.2-0.9-1.8c0-0.2,0-0.5,0.1-1
		c0.1-0.4,0.2-0.8,0.4-1c1.2-1.9,2-3.8,2.5-5.7c0.5-1.9,0.8-3.9,0.9-6l2.5,0.6c0,0.4,0,0.9,0,1.4c0,0.6,0,1.1,0,1.5h2.1V16.3
		c0-1,0-2.2,0-3.5c0-1.4-0.1-2.6-0.3-3.9l5.3,3.5h11.4l2-3c0.2-0.2,0.4-0.3,0.7-0.4c0.3,0,0.6,0.1,1.1,0.3l3.8,3
		c0.4,0.5,0.7,0.9,0.8,1.4c0.1,0.4-0.2,0.9-0.8,1.3l-1.5,1v21.2h0.3l1.7-2c0.2-0.2,0.4-0.4,0.5-0.5c0.1-0.1,0.3-0.1,0.6-0.1
		c0.1,0,0.2,0,0.5,0.1c0.2,0.1,0.5,0.2,0.6,0.4c0.7,0.7,1.3,1.3,1.8,1.7c0.5,0.4,0.8,0.7,1.1,1c0.3,0.3,0.6,0.5,0.7,0.6
		c0.1,0.1,0.3,0.3,0.4,0.4c0.1-0.1,0.1-0.3,0.1-0.5c0-0.2,0-0.4,0-0.5c-0.1-0.2-0.1-0.4-0.1-0.6c0-0.2,0-0.3,0-0.4V20.5
		c0-0.7-0.1-1.8-0.3-3.3c-0.2-1.4-0.3-2.8-0.5-4l6.3,3.9H59V7.5l6.7,1.8c0.6,0.2,0.9,0.5,1,1c0,0.5-0.3,0.8-0.9,1l-1.6,0.8v5h6.3V8
		l6.9,1.8c0.5,0.2,0.8,0.5,0.9,1c0.1,0.5-0.2,0.8-0.8,0.9L75.5,12.4z M39.1,52v39.7c0,1-0.3,1.9-0.8,2.7c-0.5,0.8-1.2,1.5-1.9,2
		c-0.8,0.6-1.6,1-2.5,1.3c-0.8,0.3-1.6,0.5-2.3,0.5c-0.1-0.8-0.4-1.6-0.9-2.4c-0.5-0.8-1-1.3-1.6-1.6l-2.9-1l0.2-2.6
		c1.4,0.3,2.6,0.5,3.5,0.6c1,0.1,1.6,0.1,2,0.1c0.7,0,1.2-0.2,1.7-0.5c0.4-0.4,0.6-0.8,0.6-1.3V76H22.6v20.1c0,0.7-0.3,1.4-0.8,1.9
		c-0.6,0.5-1.3,0.8-2.3,0.8c-0.8,0-1.4-0.2-1.8-0.5c-0.4-0.3-0.5-0.7-0.5-1c0-1.1,0-2.4,0.1-3.7c0.1-1.3,0.1-2.3,0.1-3V51.9
		c0-0.7,0-1.8-0.1-3.3C17.3,47.2,17.2,46,17,45l5.4,3h11.1l1.9-2.5c0.3-0.2,0.5-0.3,0.8-0.4c0.3,0,0.7,0,1,0.1l3.4,2.8
		c0.5,0.3,0.8,0.6,0.8,1.1c0,0.5,0,0.9-0.3,1L39.1,52z M22.6,15.1v22h3.5V26.4c0-0.8-0.1-1.8-0.2-3c-0.1-1.2-0.3-2.3-0.4-3.2
		l3.7,2.3h5.5v-7.4H22.6z M22.6,50.9v9.7h11.7v-9.7H22.6z M22.6,63.4v9.9h11.7v-9.9H22.6z M30.3,25v12.1h4.4V25H30.3z M69.2,91.7
		c1.4-2,2.5-4.1,3.5-6.4c0.9-2.3,1.6-4.5,2-6.7l6.5,3c0.6,0.2,0.9,0.6,0.9,1.3c0,0.7-0.3,1-1,1l-3,0.3c-1,1.6-1.9,3-2.6,4.1
		c-0.8,1.1-1.8,2.3-3,3.4h9.6l3.1-3.3c0.6-0.6,1.1-0.9,1.5-0.9c0.4,0,1,0.3,1.5,0.9l3.9,4.1c0.4,0.2,0.5,0.6,0.5,1.2
		c-0.1,0.6-0.5,0.9-1.2,0.9H54.9c-2.1,0-4,0.1-5.8,0.2c-1.8,0.1-3,0.2-3.6,0.2l-1.3-4.3c1.5,0.3,3.3,0.6,5.4,0.8
		c2.1,0.2,3.8,0.3,5.3,0.3H69.2z M45.6,47.9c0.8,0.1,1.7,0.3,2.6,0.4c0.9,0.1,1.9,0.2,2.8,0.4c1,0.1,1.9,0.1,2.8,0.2
		c0.9,0.1,1.6,0.1,2.3,0.1h26l3.1-3.3c0.6-0.4,1.1-0.6,1.5-0.6c0.4,0,1,0.3,1.5,0.8l3.8,3.8c0.4,0.3,0.6,0.8,0.5,1.3
		s-0.5,0.8-1.2,0.8H56.1c-1.8,0-3.6,0-5.4,0.1c-1.8,0.1-3.1,0.2-3.8,0.3L45.6,47.9z M84.6,64.4v5.9c0.1,0.8,0.2,1.6,0.3,2.5
		c0.1,0.8,0.2,1.5,0.2,1.9s0,0.9-0.2,1.4c-0.1,0.5-0.3,0.8-0.4,1c-0.3,0.2-0.7,0.4-1.3,0.5c-0.6,0.2-1,0.3-1.3,0.3
		c-0.5,0-1-0.1-1.5-0.4c-0.5-0.3-0.8-0.8-0.8-1.4v-0.8H55.8v1.3c0,0.7-0.3,1.3-0.8,1.8c-0.6,0.5-1.3,0.8-2.2,0.8
		c-0.7,0-1.3-0.1-1.8-0.5c-0.5-0.3-0.7-0.7-0.6-1.1c0-0.5,0-1.1,0-1.8c0-0.6,0-1.3,0.1-1.9c0.1-0.6,0.1-1.1,0.2-1.6
		c0-0.5,0-0.9,0-1.2v-7.6c0-1-0.1-2.2-0.3-3.6c-0.2-1.4-0.4-2.7-0.5-3.9l6.2,4h23.1l1.7-2.4c0.3-0.7,0.7-1.1,1-1.1
		c0.4,0,0.8,0.1,1.3,0.5l3.5,3.1c0.5,0.5,0.8,1.1,0.9,1.6c0.1,0.5-0.2,1-0.9,1.4L84.6,64.4z M53.2,19.5v8.3H59v-8.3H53.2z
		 M53.2,30.6V39H59v-8.4H53.2z M56.2,78.9c0.7,0.6,1.6,1.3,2.7,2.2c1.1,0.9,2,1.6,2.8,2.3c0.5,0.7,0.9,1.3,1.3,2
		c0.4,0.7,0.5,1.3,0.5,1.6c0,0.7-0.2,1.4-0.5,2.1c-0.3,0.7-0.7,1.1-1.1,1.4c-0.4,0.3-0.8,0.4-1.3,0.3c-0.4-0.2-0.8-0.7-1.1-1.5
		c-0.2-0.6-0.4-1.2-0.6-1.8c-0.2-0.6-0.4-1.1-0.5-1.8c-0.4-0.6-1-1.5-1.8-2.5s-1.4-2-1.9-2.6L56.2,78.9z M55.8,62.3v10h23.7v-10
		H55.8z M70.5,19.5h-6.3v8.3h6.3V19.5z M64.2,30.6V39h6.3v-8.4H64.2z M81.6,19.5h-6.1v8.3h6.1V19.5z M75.5,30.6V39h6.1v-8.4H75.5z"
		/>
	<path class="st1" d="M104.2,75.5c0.6-2.1,0.9-4.4,1-6.8l2.5,0.4c0,2.7,0,5.1-0.2,7.3c-0.1,2.2-0.3,3.6-0.5,4.3
		c-0.2,0.9-0.6,2.1-1.3,3.5c-0.7,1.4-1.5,2.1-2.5,2.1c-0.7,0-1.3-0.2-1.7-0.6c-0.4-0.4-0.6-1-0.6-1.8c0-0.3,0-0.7,0-1.2
		c0-0.5,0.2-1,0.5-1.4C102.7,79.6,103.6,77.6,104.2,75.5z M133.5,62.9c-0.3,2.1-0.5,4.2-0.8,6.4c-0.2,2.2-0.5,4.3-0.7,6.3
		c-0.3,2.1-0.5,3.9-0.7,5.6c-0.2,1.7-0.4,3-0.5,4c-0.7,3.5-1.7,6.3-3.2,8.6c-1.4,2.3-3.5,3.7-6,4.2c-0.1-0.8-0.5-1.6-1-2.5
		c-0.5-0.8-1-1.3-1.7-1.5l-5.4-2.9l0.4-2.7c2.1,0.5,4,0.9,5.5,1.1c1.5,0.2,2.5,0.3,3,0.3c1.5,0,2.5-0.8,3.1-2.5
		c0.6-1.6,1-3.3,1.3-5.1c0.3-1.6,0.6-4.4,1-8.5c0.4-4.1,0.6-8.4,0.8-13H110v1.6c0,0.9-0.2,1.7-0.7,2.2c-0.5,0.5-1.2,0.8-2.2,0.8
		c-0.7,0-1.3-0.1-1.8-0.4c-0.4-0.2-0.6-0.6-0.5-1.1c0-0.7,0-1.3,0-2c0-0.7,0.1-1.3,0.1-1.9c0.1-0.6,0.1-1.1,0.1-1.6
		c0-0.5,0-0.9,0-1.2V15.9c0-0.9,0-2-0.1-3.5c-0.1-1.5-0.3-2.8-0.5-4l6.1,4h15l3-3.3c0.6-0.5,1.1-0.8,1.4-0.8c0.3,0,0.8,0.2,1.3,0.6
		l4.2,4.2c0.3,0.3,0.3,0.8,0.2,1.3c-0.1,0.5-0.4,0.8-0.8,0.8h-12.3v12.7h2.1l3.1-3.3c0.4-0.4,0.8-0.6,1.3-0.5c0.4,0,0.9,0.3,1.3,0.8
		l3.8,3.9c0.2,0.4,0.3,0.8,0.2,1.3c-0.1,0.5-0.3,0.7-0.8,0.7h-10.9v11.8h2.1l3-3.2c0.4-0.5,0.8-0.7,1.1-0.7c0.3,0,0.8,0.3,1.4,0.8
		l3.9,3.8c0.2,0.5,0.3,1,0.2,1.4s-0.3,0.6-0.8,0.6h-10.9V58h5.7l1.8-2.1c0.1-0.2,0.2-0.4,0.3-0.5c0.1-0.2,0.3-0.3,0.6-0.3
		c0.1,0,0.3,0,0.3,0c0.1,0,0.2,0.1,0.3,0.1c0.1,0.1,0.1,0.1,0.2,0.2c0.1,0.1,0.2,0.1,0.3,0.2l3.7,3.2c0.4,0.4,0.6,0.9,0.6,1.4
		c0,0.5-0.3,1-0.9,1.3L133.5,62.9z M117.6,15.1H110v12.7h7.6V15.1z M110,42.4h7.6V30.6H110V42.4z M110,45.1V58h7.6V45.1H110z
		 M112.2,68.1c0.9,2.2,1.6,4.4,2.2,6.5c0.6,2.2,0.9,3.8,0.9,4.9c-0.1,1.3-0.5,2.4-1.1,3.3c-0.7,1-1.5,1.5-2.3,1.5
		c-0.5,0-0.9-0.3-1.2-1c-0.2-0.7-0.3-1.9-0.3-3.7c0.1-0.4,0.2-0.9,0.3-1.5c0-0.6,0-1.1,0-1.4c0-0.8-0.1-2-0.2-3.7
		c-0.1-1.6-0.3-3.1-0.4-4.4L112.2,68.1z M117.2,66.2c0.5,0.8,1.1,1.8,1.8,3c0.6,1.2,1.1,2.2,1.5,3c0.5,0.8,0.9,1.6,1.1,2.3
		c0.2,0.8,0.4,1.4,0.4,1.9c0,0.9-0.3,1.7-0.8,2.6c-0.5,0.9-1.4,1.3-2.6,1.3c-0.1-0.8-0.2-1.4-0.2-1.8c-0.3-1.4-0.8-3.1-1.4-5.2
		c-0.6-2.1-1.1-3.9-1.8-5.5L117.2,66.2z M121.6,63.7c0.9,0.7,1.7,1.4,2.2,1.9c0.5,0.6,1.1,1.2,1.7,1.9c0.4,0.6,0.7,1.2,1,1.9
		c0.2,0.6,0.3,1.2,0.3,1.6c0,1.1-0.3,2.1-0.8,2.8c-0.5,0.7-1.1,1.1-2,1.1c-0.3-0.5-0.4-1.1-0.5-1.7c-0.4-1.5-0.8-2.8-1.3-4.1
		c-0.5-1.3-1.2-2.5-2-3.7L121.6,63.7z M148.6,75.3c-0.1,0.3-0.3,0.6-0.5,0.9c-0.2,0.3-0.4,0.7-0.6,1.1c-0.2,0.4-0.4,0.8-0.5,1.2
		c-0.2,0.4-0.3,0.7-0.5,1c1.3,0.7,2.6,1.5,3.9,2.3c1.3,0.8,2.4,1.5,3.3,2.1c0.7,0.6,1.2,1.2,1.5,1.8c0.4,0.6,0.5,1,0.5,1.4
		c0,1-0.2,1.8-0.7,2.5c-0.5,0.6-1.1,1-1.9,1c-0.3,0-0.7-0.1-1-0.4c-0.3-0.3-0.5-0.6-0.7-0.9c-0.5-0.8-0.9-1.5-1.4-2.2
		c-0.5-0.6-1-1.2-1.5-1.8c-0.5-0.5-1.1-1.1-1.7-1.6c-0.6-0.6-1.2-1.3-1.9-2.1c-1.7,3-3.6,5.6-5.5,7.9c-2,2.2-4.7,4.7-8.1,7.5
		l-1.3-1.7c1.9-1.9,3.5-3.8,4.8-5.5c1.3-1.7,2.6-3.6,3.9-5.7c1.2-1.9,2.3-4.1,3.2-6.7c0.9-2.6,1.6-5.2,2.3-7.7l8.5,3.1
		c0.5,0.3,0.8,0.7,0.7,1.3c-0.1,0.6-0.5,1-1.3,1L148.6,75.3z M132.2,35.9c3-1.9,5.8-3.9,8.3-6.3c2.5-2.3,4.7-4.6,6.6-7
		c1.8-2.3,3.4-4.8,4.9-7.5c1.4-2.7,2.7-5.4,3.8-8.1l7.7,3.3c0.6,0.2,0.9,0.6,0.9,1.1s-0.3,0.9-0.9,1l-3.6,1c3.4,4.6,7.1,8.3,11.1,11
		c4,2.7,8.7,4.9,14.1,6.4l-0.4,2.9c-0.9,0-1.7,0-2.4,0.1c-0.7,0.1-1.2,0.2-1.6,0.3c-0.8,0.5-1.3,1-1.6,1.5c-0.3,0.5-0.5,0.9-0.5,1.1
		c-4.6-2.6-8.5-5.6-11.7-8.9c-3.2-3.3-6.1-7.2-8.9-11.6c-1.5,2.5-3.1,4.8-4.9,6.9c-1.8,2.1-3.5,4-5.2,5.6c-2,1.8-4.1,3.5-6.3,5
		c-2.2,1.6-4.6,3-7.2,4.5L132.2,35.9z M156.6,49v9.6c0.1,0.9,0.1,1.9,0.2,3c0,1.1,0,2.1,0,2.9c-0.1,0.7-0.3,1.1-0.6,1.2
		c-0.1,0.1-0.3,0.1-0.4,0.2c-0.1,0.1-0.3,0.1-0.5,0.1c-0.2,0.1-0.4,0.1-0.6,0.1c-0.2,0-0.4,0.1-0.6,0.1c-0.7,0-1.2-0.1-1.7-0.4
		c-0.5-0.2-0.7-0.6-0.7-1.1v-1h-9.4v1c0,0.8-0.3,1.5-0.8,2c-0.5,0.5-1.1,0.8-1.8,0.8c-0.7,0-1.1-0.1-1.4-0.5
		c-0.3-0.3-0.4-0.7-0.4-1.3V42.4l4.4,3.1h9l1.9-2.2c0.3-0.4,0.7-0.6,1-0.6c0.4,0,0.7,0.1,1,0.3l2.8,2.5c0.5,0.4,0.7,0.8,0.7,1.3
		c0,0.5-0.3,0.9-0.8,1.2L156.6,49z M142.3,48.3v12.4h9.4V48.3H142.3z M147.8,31.6c1.6,0.4,3.4,0.7,5.4,0.9c2,0.2,3.6,0.3,5,0.3
		l3.3-3.4c0.5-0.4,0.9-0.6,1.4-0.6c0.5,0,1,0.1,1.5,0.6l3.7,4.2c0.4,0.3,0.6,0.8,0.5,1.3c-0.1,0.5-0.4,0.8-1,0.8h-9.4
		c-2,0-3.9,0.1-5.7,0.3c-1.8,0.2-3,0.3-3.6,0.4L147.8,31.6z M152.7,95.7c1.8-1.9,3.4-3.9,4.8-6c1.4-2.1,2.8-4.1,4-6.2
		c1-2,1.9-4.2,2.6-6.5c0.7-2.4,1.4-4.8,2-7.3l7.9,3.4c0.6,0.3,0.9,0.7,0.8,1.4c-0.1,0.6-0.4,0.9-1.1,0.9l-3.5,0.2
		c-0.2,0.3-0.4,0.7-0.6,1.1c-0.2,0.4-0.4,0.9-0.6,1.5c-0.3,0.5-0.5,0.9-0.7,1.4c-0.2,0.5-0.4,0.8-0.5,1c2.2,1.3,4.4,2.6,6.5,4.1
		c2.2,1.5,3.8,2.6,4.8,3.4c1,0.7,1.8,1.6,2.5,2.6c0.7,1,1,1.8,1,2.5c0,1.1-0.3,2-0.8,2.6c-0.6,0.7-1.3,1.1-2,1.1
		c-0.3,0-0.7-0.2-1-0.7c-0.4-0.4-0.8-1-1.2-1.7c-1.9-2.7-3.6-4.8-5.2-6.4c-1.6-1.6-3.5-3.4-5.8-5.3c-1.5,2.9-3.2,5.5-5.1,7.6
		c-1.9,2.1-4.2,4.4-6.9,6.8L152.7,95.7z M181,49.4V58c0,1.1,0,2.2,0,3.3c0,1.1,0,2.2,0,3.2c0,0.2,0,0.5-0.1,0.8
		c-0.1,0.3-0.4,0.5-0.8,0.8c-0.1,0.1-0.5,0.2-1,0.4c-0.5,0.2-0.9,0.3-1.2,0.3c-0.7,0-1.2-0.2-1.5-0.6c-0.4-0.4-0.5-0.8-0.5-1.4v-1
		h-10v1c0,0.8-0.3,1.5-0.8,2c-0.5,0.5-1.1,0.8-1.8,0.8c-0.7,0-1.2-0.1-1.6-0.5c-0.4-0.3-0.6-0.7-0.6-1.3V42.4l4.7,3.1h9.4l1.9-2.3
		c0.3-0.4,0.7-0.6,1.1-0.6c0.4,0,0.7,0.1,1,0.4l2.9,2.3c0.4,0.4,0.6,0.8,0.7,1.3c0,0.4-0.1,0.9-0.3,1.5L181,49.4z M165.9,48.3v12.4
		h10V48.3H165.9z"/>
</g>
</svg>
