<?xml version="1.0" encoding="utf-8"?>
<!-- Generator: Adobe Illustrator 21.0.0, SVG Export Plug-In . SVG Version: 6.00 Build 0)  -->
<svg version="1.1" xmlns="http://www.w3.org/2000/svg" xmlns:xlink="http://www.w3.org/1999/xlink" x="0px" y="0px"
	 viewBox="0 0 296.3 77.9" style="enable-background:new 0 0 296.3 77.9;" xml:space="preserve">
<style type="text/css">
	.st0{fill-rule:evenodd;clip-rule:evenodd;fill:#FFFFFF;}
	.st1{fill:#515151;}
	.st2{fill:#FFFFFF;}
	.st3{fill-rule:evenodd;clip-rule:evenodd;fill:#FFFFFF;stroke:#3C3C3C;stroke-width:0.25;stroke-miterlimit:10;}
	.st4{fill:#6B6B6B;}
	.st5{fill-rule:evenodd;clip-rule:evenodd;fill:#6B6B6B;}
	.st6{opacity:0.5;}
	.st7{fill:none;stroke:#3C3C3C;stroke-width:0.25;stroke-miterlimit:10;}
	.st8{fill:#4C4C4C;}
	.st9{fill:#EF4D26;}
	.st10{fill-rule:evenodd;clip-rule:evenodd;}
	.st11{fill:url(#SVGID_1_);}
	.st12{fill:none;stroke:#B21625;stroke-miterlimit:10;}
</style>
<g id="GRID_x5F_BACKGROUND">
</g>
<g id="_x5F_TEXT">
	<path class="st10" d="M235.9,31.7c1.7,0.5,3.8,0.9,5.8,1.7c3.1,1.3,5.2,3.7,5.7,7c0.3,2.4-0.9,4.7-2.9,6.1c-2.1,1.5-4.5,2.8-7,3.4
		c-5.6,1.5-10.9,0.6-14.7-3.6c-1-1.1-1.2-4.1-0.3-5.7c1.4-2.2,2.9-4.3,4.1-6.6c0.8-1.5,1.3-3.2,1.5-4.9c0.3-2.2,3-4.1,5.2-3.6
		c1.6,0.3,1.8,1.5,2.1,2.6C235.8,29.3,235.8,30.5,235.9,31.7z M232.1,47.5c0,0.1,0.1,0.3,0.1,0.4c1.5-0.6,3.1-0.9,4.4-1.8
		c1.3-0.9,2.4-2.3,3.4-3.6c0.4-0.5,0.5-1.4,0.5-2.1c0-0.5-0.2-1-0.4-1.5c-0.9-2-1.9-4.1-3.9-5.3c-0.4-0.3-1.2-0.4-1.6-0.2
		c-1.7,1.1-3.3,2.4-5,3.4c-2.2,1.2-4,2.7-5.4,4.9c-0.7,1.1-0.5,2.9,0.4,3.6C226.8,47,229.3,47.7,232.1,47.5z"/>
	<path class="st10" d="M271,17.4c-0.1,0.3-0.3,1-0.6,1.7c-0.9,2-1.9,4-1.7,6.4c0.2,3.1,0,6.4-0.5,9.5c-0.5,4-1.4,7.5-1.5,11.5
		c-0.2,7.3-1.7,17.2-7,22.7c0.5-7.1,3.4-13.8,4.4-20.9c1.2-8.3,0.5-17-0.4-25.3c-0.2-1.8-0.5-3.7-1.1-5.5c-0.4-1-1.4-1.8-2-2.7
		c-1.2-1.9-1.4-4-1-6.1c0-0.2,0.7-0.5,0.9-0.4c1.4,0.7,2.7,1.4,4,2.2c0.9,0.5,1.8,1.2,2.7,1.5C268.6,12.6,271,15.6,271,17.4z"/>
	<g>
		<path class="st10" d="M106.2,12.9c-1.6-0.3-3-0.5-3.3-2.3c-0.2-1.2-1-1.8-2.3-2c-0.8-0.1-1.6-0.3-2.4-0.6
			c-3.3-1.6-6.5-1.2-9.7,0.6c-2.5,1.4-5.1,2.6-7.8,3.8c-2.1,1-5.2,0.1-6.5-1.8c-0.8-1.1-1.6-2.2-2.1-3.4c-0.3-0.8-0.4-1.9,0-2.5
			c0.3-0.4,1.5-0.4,2.3-0.4c1.6,0.1,3.3,0.2,4.9,0.6c5.5,1.5,11-0.9,16.5-0.1c2.6,0.4,5.3,1,7.7,1.9c1.3,0.5,2.4,1.9,3.4,3.1
			c0.4,0.5,0.4,1.6,0.4,2.3C107.2,12.4,106.5,12.6,106.2,12.9z"/>
		<path class="st10" d="M101.3,33.8c-1.4,0.2-2.8,0.5-4.2,0.7c-2.8,0.5-6.2,1.5-9,0.7c-1-0.3-2.1-1.1-2-2.2c0.1-0.9,0.9-1.6,1.8-2
			c0.9-0.3,1.8-0.5,2.6-1c2.3-1.4,2.1-4.8,2.5-7.1c0.3-2.1,0.9-4.7,0-6.5c-0.4-0.8-1-1.4-1.3-2.2c-0.3-0.8-0.3-1.8,0.4-2.3
			c0.3-0.2,0.6-0.3,0.9-0.3c1.2-0.1,2.4,0.5,3,1.5c0.8,1.1,0.8,2.6,0.5,4c-0.5,3.3-0.7,6.6-1.2,9.9c-0.3,1.7-1.3,3.4-3.1,3.7
			c0.1,0.4,0.5,0.5,0.9,0.5c3.4,0.2,6.8,0.4,10.2,0.6c1.3,0.1,2.8,0.2,3.8,1.1C105.2,33.2,103.3,33.5,101.3,33.8z"/>
		<path class="st10" d="M81.6,19.4c0.1-1.3,0-3.3,1.9-4.3c0.3-0.2,1-0.2,1.2,0c0.4,0.3,1,1,1,1.4c-0.1,1-0.5,2-1,3
			c-0.3,2.5-0.1,3.6,0.5,5.4c0.5,1.4,0,2.6,1.5,3.2c0.1,0,0.2,0.5,0.1,0.5c-0.2,0.2-0.6,0.4-0.7,0.3c-0.8-0.6-1.6-1.2-2.1-1.9
			C82.7,24.8,81.6,22.5,81.6,19.4z"/>
	</g>
	<path class="st10" d="M98.6,51.4c-1.9,0.1-3.6,0.1-5.2,0.4c-0.9,0.1-1.7,0.8-2.7,1c-1.6,0.4-3.2-0.5-3.9-2
		c-0.7-1.6-1.4-3.2-2.3-5.1c1.2,0,2-0.2,2.7,0c3.7,1.3,7.4,1,11.1,0.6c2.6-0.3,4.9,0.8,6.7,2.5c1.4,1.3,1.2,2.7-0.3,3.7
		c-2.5,1.7-5.1,3.3-7.6,5.2c-1.6,1.2-3.1,2.7-5,4.3c1.5-0.5,2.6-0.9,3.7-1.3c2.2-0.6,4.3-1.2,6.5-1.8c2.1-0.5,4.7,1.9,4.2,3.9
		c-0.5,1.7-1.4,3.3-2.2,4.9c-0.7,1.5-1.5,3-2.2,4.6c-0.4,0.9,0.1,1.5,1,1.1c1.2-0.5,2.4-1.3,3.5-2c0.7-0.5,1.4-1.1,2.1-1.6
		c0.1,0.1,0.2,0.2,0.3,0.3c-0.4,0.5-0.7,1-1.1,1.5c-0.5,0.8-1,1.5-1.5,2.4c-0.6,1.1-2.6,2-4.1,1.8c-1.9-0.2-2.8-0.7-3.1-2.5
		c-0.2-1.2-0.2-2.6-0.1-3.8c0.1-0.8,0.5-1.6,0.7-2.4c0.2-0.8,0.4-1.6,0.8-2.6c-1.1,0.1-2,0.2-3,0.3c-1.7,0.2-3.4,0.5-5.1,0.8
		c-1.6,0.2-2.4-0.8-3-2c-0.7-1.7-0.5-2.9,0.7-3.9c2-1.8,4.1-3.6,6.1-5.4C97.2,53.4,97.8,52.5,98.6,51.4z"/>
	<path class="st10" d="M137.6,31.4c2.2-0.2,4.6-0.5,6.9-0.6c3.2-0.2,6.5,3.8,5.9,6.9c-0.2,1.2-2.1,2.5-3.4,2.4
		c-1.2-0.1-2.5,0.1-2.9-1.4c1.1-0.5,2.3-0.9,3.3-1.6c0.9-0.6,0.4-2.1-0.9-2.9c-2-1.2-4.2-1.5-6.3-0.7c-5.5,2.1-10.2,5.3-13.9,9.9
		c-1,1.2-2.2,2.2-3.4,3.2c-0.4,0.3-1.3,0.1-1.9,0c-0.1,0-0.2-0.9,0-1.3c1.3-3.3,3.7-5.9,6.4-8c6.3-4.9,10.4-11.4,13.1-18.7
		c0.4-1,0.1-2.3,0.1-3.4c0-1,0.1-2,0.3-2.9c0.1-0.4,0.7-1.1,1.1-1.1c0.6-0.1,1.4,0.1,1.9,0.5c2.4,2.2,2.8,4.6,1.1,7.5
		C142.6,23.2,140.1,27.3,137.6,31.4C137.6,31.4,137.6,31.5,137.6,31.4z"/>
	<path class="st10" d="M69.8,50.1c-2.3,0.6-3.7-0.7-4.9-2.4c-0.3-0.5-0.3-1.4-0.2-2c0.1-0.3,0.9-0.3,1.4-0.5
		c0.5-0.1,1.1-0.1,1.6-0.3c7.7-2.7,14.7-5.6,22.8-6.3c10.3-0.9,19.6-1.6,29.7,0.9c-3,1.6-7.3,0.4-10.5,0.3
		c-4.4-0.2-8.7-0.2-13.1,0.2c-8.9,0.9-16.7,3.9-24,9.2c-0.8,0.6-1.9,0.9-2.9,1.3C69.8,50.4,69.8,50.2,69.8,50.1z"/>
	<path class="st10" d="M199.7,47.8c0.1-0.3,0.1-0.7,0.2-1c0.7-2.3,1.4-4.7,2.1-7c0.4-1.5,1.2-2.9,1.3-4.5c0.1-2-3.5-1.6-4.7-1.1
		c-1,0.4-1.8,1.2-2.7,1.7c-1,0.5-2.2,0.7-3.2,1.2c-1.1,0.5-1.8,1.5-2.8,2.1c-0.5,0.3-1.1,0.2-1.6,0c-0.5-0.2-0.9-0.6-1.4-1
		c-0.4-0.3-0.8-0.9-0.4-1.2c0.2-0.3,0.7-0.2,1.1-0.1c1.2,0.3,2.5,0,3.7-0.5c2.1-1,4-2.5,6.1-3.5c1.5-0.8,3.3-1.1,5-0.9
		c1.7,0.2,2.6,1.1,3,2.4c0.3,1.2,0,2.5-0.5,3.6c-0.7,1.6-1.7,2.9-2.6,4.4c-0.8,1.3-1.2,2.8-1.8,4.2c-0.2,0.4-0.3,0.9-0.5,1.3
		C199.9,47.9,199.8,47.8,199.7,47.8z"/>
	<path class="st10" d="M148.5,53.7c-6.1,0-12-0.1-17.9,0c-2.1,0-4.1,0.4-6.1,0.7c-0.9,0.2-1.9,1.1-2.7,1c-2.4-0.2-4.9-0.8-6.3-3.1
		c-0.1-0.1-0.3-0.2-0.3-0.3c-0.3-0.4-0.5-0.9-0.7-1.3c0.5-0.1,1-0.4,1.5-0.3c1.1,0.2,2.1,0.6,3.2,0.8c2.7,0.6,5.4,0.9,8.3,0.8
		c3.7-0.1,7.5,0.2,11.3,0.2c2.8,0,5.6,0.1,8.3-0.2c4.1-0.5,8.2-1.4,12.3-2.1c0.6-0.1,1.2-0.2,1.8-0.3c0.2,0,0.4,0.1,0.6,0.1
		c-0.1,0.2-0.2,0.5-0.4,0.5c-1.8,0.7-3.7,1.4-5.6,1.9C153.2,52.7,150.8,53.2,148.5,53.7z"/>
	<path class="st10" d="M213.6,14.9c0.3,5.8,0.7,11.6,0.7,17.5c0,5-0.3,10.1-1.1,15c-0.5,2.9-2,5.7-3.3,8.4c-1.6,3.3-3.5,6.5-5.2,9.7
		c0,0.1-0.1,0.2-0.2,0.3c-0.3,0.3-0.7,0.5-1,0.8c0-0.4-0.1-0.9,0-1.3c1.1-2.7,2.5-5.3,3.5-8.1c2.2-6.2,3.5-12.6,3.4-19.2
		c0-3.5,0.1-7.1-0.3-10.6c-0.4-2.8-1.4-5.6-2.4-8.4c-0.3-0.9-1.3-1.6-1.9-2.5c-0.2-0.3-0.2-0.7-0.2-1c0.1-0.9,0.1-1.8,0.3-2.6
		c0.4-1.7,1.2-3.1,2.8-3.9c1.5-0.7,2.9-0.2,3.6,1.4c0.7,1.4,1,3,1.5,4.5C213.8,14.9,213.7,14.9,213.6,14.9z"/>
	<path class="st10" d="M172.2,24.5c0,2.5,0.1,5.2,0,7.8c0,1.3,1.1,2.5,2.7,2.9c1.7,0.5,3.3,1.1,5,1.6c0.4,0.1,0.8,0,1.2,0.1
		c1.7,0.2,1.9,0.7,1.1,2.1c-0.7,1.2-4.7,2.5-5.8,1.9c-1.6-0.9-3.2-1.9-4.8-2.9c-0.6,1.4-1.4,3.2-2.2,4.9c-0.6,1.2-1.1,2.4-0.3,3.7
		c0.7,1.1,1.7,1.4,3,1c3.2-0.9,6.4-1.7,9.6-2.6c0.7-0.2,1.4-0.7,2.1-1c0.3-0.1,0.6-0.2,1-0.3c-0.1,0.4,0,0.8-0.3,1
		c-1.1,1-2.4,1.9-3.5,3c-0.8,0.8-1.4,1.8-2.1,2.7c-0.5,0.6-0.9,1.5-1.5,1.8c-2.4,1-4.9,2.3-7.6,1.5c-3.9-1.2-6.2-4.6-4.5-8.6
		c1.3-3.1,3.3-6,4.3-9.2c0.9-2.7,0.8-5.7,1.1-8.6c0.1-1,0-2-0.1-3c0-0.2-0.2-0.5-0.3-0.5c-2.1-0.2-2.4-2.2-3.2-3.6
		c-0.4-0.7-0.3-1.8-0.3-2.7c0-0.2,0.5-0.7,0.7-0.6c2.7,0.5,5.3,1.1,7.9,1.6c2.2,0.4,4.4,0.7,6.7,1c1,0.1,1.1,0.6,0.7,1.4
		c-0.1,0.2-0.2,0.3-0.3,0.4c-2.1,1.3-3.6,3.7-6.3,3.9C174.7,25.1,173.3,24.7,172.2,24.5z"/>
	<g>
		<circle class="st12" cx="285.3" cy="61.3" r="7.3"/>
		<line class="st12" x1="277.7" y1="61.3" x2="292.9" y2="61.3"/>
		<line class="st12" x1="285.3" y1="54" x2="285.3" y2="68.6"/>
		<line class="st12" x1="282.9" y1="61.2" x2="282.9" y2="54.5"/>
		<line class="st12" x1="280.4" y1="61.2" x2="280.4" y2="55.9"/>
		<line class="st12" x1="285.3" y1="58.9" x2="292.1" y2="58.9"/>
		<line class="st12" x1="285.3" y1="56.4" x2="290.6" y2="56.4"/>
		<line class="st12" x1="287.7" y1="61.3" x2="287.7" y2="68.1"/>
		<line class="st12" x1="290.2" y1="61.3" x2="290.2" y2="66.6"/>
		<line class="st12" x1="285.3" y1="63.7" x2="278.5" y2="63.7"/>
		<line class="st12" x1="285.3" y1="66.2" x2="280" y2="66.2"/>
	</g>
</g>
<g id="_x5F_TEXT_1_">
	<path class="st10" d="M60.2,54.5c0,0.2,0,0.3,0,0.5c0,0.2,0,0.3,0,0.5c0,0.1,0,0.3,0,0.4c-0.2,0.1-0.1,0.3-0.1,0.4
		c0,0.1-0.2,0.2-0.1,0.3c0,0.1,0,0.2,0,0.3c0,0.1,0,0.2,0,0.3c-0.1,0.2-0.2,0.3-0.2,0.4c0,0.1-0.1,0.1-0.1,0.2
		c-0.1,0.1-0.1,0.2-0.1,0.3c0,0.1-0.1,0.2-0.2,0.3c-0.1,0.1-0.2,0.2-0.2,0.3c0,0.1-0.1,0.2-0.1,0.3c0,0.1-0.1,0.2-0.1,0.3
		c0,0.1,0,0.2,0,0.3c0,0.1-0.2,0.2-0.1,0.4c-0.1,0.1-0.1,0.2-0.1,0.4c0,0.2-0.2,0.2-0.1,0.4c0,0.1,0,0.2-0.1,0.3c0,0,0,0,0,0
		c0,0.3-0.2,0.5-0.1,0.8c0,0.1-0.2,0.2-0.1,0.4c0,0.1,0,0.2-0.1,0.3c-0.1,0.1,0,0.2-0.1,0.3c-0.1,0.1,0,0.2-0.1,0.2c0,0,0,0,0,0
		c0,0.1,0,0.3,0,0.3c-0.1,0.1-0.1,0.2-0.1,0.3c0.1,0.2-0.2,0.2-0.1,0.4c0.1,0.2-0.1,0.3-0.1,0.4c0,0.1-0.1,0.2-0.1,0.4
		c0,0.1,0,0.1-0.1,0.2c-0.1,0.1-0.2,0.2-0.1,0.3c0,0.2-0.1,0.2-0.1,0.4c0,0.1,0,0.1-0.1,0.2c-0.2,0.1-0.2,0.3-0.3,0.5
		c-0.1,0.1-0.1,0.2-0.2,0.3c-0.1,0.1-0.2,0.2-0.2,0.3c0,0-0.1,0-0.1,0c-0.1,0.2-0.3,0.3-0.4,0.5c-0.1,0.2-0.3,0.2-0.3,0.4
		c0,0.1-0.1,0.2-0.2,0.2c-0.2,0.2-0.5,0.5-0.7,0.7c-0.1,0.1-0.2,0.1-0.3,0.2c-0.1,0,0,0.2-0.1,0.2c-0.1,0.1-0.2,0.1-0.3,0.2
		c-0.1,0.1-0.1,0.2-0.2,0.2c-0.2,0-0.3,0.2-0.4,0.3c-0.1,0.1-0.2,0.2-0.4,0.3c-0.1,0.1-0.2,0.2-0.4,0.2c-0.1,0.1-0.2,0-0.3,0.2
		c-0.1,0.1-0.1,0.2-0.2,0.1c-0.2,0.2-0.4,0.2-0.6,0.3c-0.1,0-0.2,0.1-0.2,0.1c0,0-0.1,0.1-0.1,0.1c-0.1,0-0.2,0-0.3,0.1
		c-0.1,0.1-0.2,0-0.2,0.1c-0.2,0-0.3,0.2-0.5,0.2c-0.1,0-0.2,0.1-0.3,0.1c-0.1,0-0.2,0-0.3,0c-0.2,0.2-0.4,0.1-0.6,0.1
		c-0.1,0-0.2,0.2-0.4,0.1c-0.1,0-0.2,0-0.3,0.1c-0.1,0-0.3,0-0.4,0.1c-0.1,0-0.2,0.1-0.3,0.2c0,0-0.1,0.1-0.1,0.1
		c-0.1,0-0.2,0.1-0.4,0.1c-0.1,0-0.3-0.1-0.4,0.1c-0.1,0-0.3,0-0.4,0.1c-0.2-0.1-0.4,0.2-0.6,0.1c-0.1,0-0.1,0.1-0.2,0.1
		c-0.2,0.1-0.3,0.2-0.5,0.2c-0.1,0-0.3,0.1-0.3,0.1c-0.1,0.1-0.2,0.1-0.3,0.1c0,0.1-0.1,0.2-0.1,0.2c0,0,0,0.1,0,0.1
		c0,0,0.1,0.1,0.1,0.1c-0.1,0.1-0.2,0.2-0.2,0.2c0,0.1,0,0.2-0.1,0.3c0,0-0.1-0.1-0.1-0.1c-0.1,0.1-0.2,0.2-0.2,0.3
		c0,0.1-0.2,0.2-0.1,0.4c-0.1,0-0.2,0.1-0.2,0.1c-0.1,0.1-0.1-0.1-0.3,0c-0.1,0,0.1,0.2,0,0.2c0,0-0.1,0-0.1,0c-0.1,0-0.2,0-0.2,0
		c-0.1,0-0.1,0.1-0.2,0.1c-0.1-0.1-0.2-0.1-0.1-0.3c-0.2,0-0.2,0.2-0.3,0.2c-0.1-0.2-0.2-0.3-0.4-0.5c0-0.1,0.1-0.3-0.1-0.4
		c0,0,0,0,0-0.1c0-0.2,0.1-0.3-0.1-0.5c0-0.1,0-0.3,0-0.5c0,0,0-0.1,0-0.1c-0.1-0.2-0.1-0.2,0-0.4c0.1-0.1,0.1-0.2,0-0.3
		c-0.2-0.2-0.1-0.4-0.1-0.6c0-0.1,0-0.2,0-0.2c0.1-0.2-0.2-0.2-0.1-0.4c0-0.1,0.1-0.2-0.1-0.3c0,0,0-0.1,0-0.2c0-0.2,0-0.3,0-0.4
		C41,70.9,41,70.8,41,70.7c0-0.2,0.1-0.3-0.1-0.5c0-0.1,0-0.3,0-0.5c-0.2-0.2-0.1-0.4-0.1-0.6c0-0.1-0.2-0.2-0.1-0.4
		c0-0.1,0-0.2-0.1-0.3c-0.1-0.1,0-0.2-0.1-0.3c-0.1-0.1,0-0.2,0-0.3c0-0.1-0.2-0.2-0.1-0.3c0-0.1,0-0.2,0-0.3c0-0.1-0.1-0.2-0.1-0.3
		c0-0.1,0-0.2-0.1-0.3c-0.1-0.1,0-0.2,0-0.3c-0.2-0.1,0-0.4-0.2-0.5c-0.1-0.2,0-0.3-0.1-0.5c0-0.1-0.2-0.3-0.1-0.4
		c-0.1-0.1-0.1-0.2-0.1-0.3c0-0.1,0-0.2,0-0.3c0-0.2,0.1-0.5-0.1-0.7c0,0,0,0,0-0.1c0-0.2,0.1-0.5-0.1-0.6c0-0.2,0-0.3,0-0.5
		c0-0.2,0.1-0.4-0.1-0.5c0,0,0-0.1,0-0.2c0-0.3,0-0.7,0-1c0-0.1-0.1-0.1-0.1-0.2c0-0.1,0-0.3,0-0.4c0-0.1,0.1-0.3,0-0.4
		c-0.1-0.1,0-0.3-0.1-0.4c-0.1-0.1-0.1-0.3-0.1-0.4c-0.1-0.1-0.1-0.2-0.1-0.3c0-0.2-0.2-0.2-0.1-0.4c0-0.1,0-0.3,0-0.5
		c0-0.1-0.2-0.2-0.1-0.4c0-0.1,0-0.3,0-0.4c0,0-0.1-0.1-0.1-0.1c0-0.1,0-0.2,0-0.3c0-0.1,0-0.3-0.1-0.4c0-0.1,0.1-0.3-0.1-0.4
		c0,0,0-0.1,0-0.2c0-0.2,0-0.4,0-0.6c-0.2-0.1-0.1-0.4-0.1-0.6c0,0-0.1-0.1-0.2-0.1c-0.1-0.2,0-0.4-0.1-0.5c0,0,0-0.1,0-0.3
		c-0.1-0.1-0.2-0.2-0.4-0.3c0-0.1,0-0.1,0.1-0.1c0.1-0.1,0.1-0.2,0-0.3c-0.1-0.1-0.1-0.2-0.2-0.3c-0.1-0.1-0.1-0.2-0.1-0.3
		c0-0.1-0.1-0.2-0.2-0.3c-0.1-0.1,0-0.3-0.1-0.4c-0.1-0.1-0.2-0.2-0.3-0.3c0-0.1,0-0.2-0.1-0.3c-0.1-0.1,0-0.2-0.1-0.2
		c-0.1-0.2-0.2-0.4-0.1-0.6c0-0.1,0-0.3,0-0.4c-0.1-0.1-0.1-0.2-0.1-0.3C36,49,36,48.9,35.9,48.8c0.1-0.1-0.1-0.2-0.1-0.3
		c0-0.1,0-0.2,0-0.3c-0.2-0.3-0.3-0.4-0.4-0.7c0-0.1-0.1-0.2-0.1-0.3c-0.1-0.2-0.1-0.2,0-0.4c0.1-0.1,0-0.3,0.1-0.4
		c0-0.1,0-0.2-0.1-0.2c-0.1-0.1-0.2-0.2,0-0.4c0,0,0-0.1,0-0.1c0-0.1,0-0.2,0.1-0.2c0.2-0.1,0.3-0.2,0.5-0.2c0,0,0.1,0,0.1,0
		c0.2,0,0.2,0,0.4-0.1c0.1,0,0.2-0.1,0.2-0.1c0.1,0,0.2-0.1,0.2-0.1c0.1,0,0.2,0,0.3-0.1c0,0,0.1,0,0.1,0c0.1,0.1,0.2,0.1,0.3,0.2
		c0.1,0.1,0.3,0.1,0.5,0c0.1,0,0.1-0.1,0.2,0c0.1,0.1,0.2,0.1,0.3,0.1c0.1,0,0.2-0.1,0.3,0c0.1,0.1,0.2,0,0.3,0.1
		c0.1,0.1,0.1,0.1,0.3,0.1c0.2,0,0.3-0.1,0.5,0.1c0.1,0.1,0.3,0,0.4,0.2c0.2-0.1,0.3,0.2,0.5,0.1c0.1,0,0.2,0.2,0.3,0.1
		c0.1,0.1,0.3,0.3,0.4,0.5c0.1,0.1,0.1,0.2,0.2,0.3c0.1,0.2,0.1,0.2,0.3,0.2c0.2,0.1,0.2,0.2,0.2,0.4c0.1,0.1,0.2,0.2,0.3,0.3
		c0.1,0.1,0.1,0.2,0.2,0.3c0,0.1,0.2,0.2,0.2,0.3c0.1,0.1,0.1,0.2,0.2,0.3c0.1,0.1,0.1,0.2,0.1,0.3c0,0.1,0.1,0.2,0.1,0.2
		c0,0.1,0.2,0.2,0.1,0.4c0,0.1,0.1,0.1,0.1,0.2c0,0.1,0.2,0.4,0.2,0.5c0,0.2,0.2,0.3,0.1,0.5c0.1,0.1,0.2,0.3,0.2,0.5
		c0,0.1,0.1,0.2,0.1,0.3c0,0.1,0,0.3,0.1,0.4c0.1,0.1,0,0.3,0.1,0.4c0.1,0,0,0.2,0,0.3c0.1,0.1,0.1,0.1,0.2,0.2c0,0.1,0,0.1,0,0.2
		c-0.1,0.2,0.1,0.3,0.1,0.5c0,0,0.1,0.1,0.1,0.1c0.1-0.1,0.2-0.1,0.4-0.1c0.1,0,0.2-0.1,0.3-0.2c0.1-0.1,0.2,0,0.3-0.1
		c0.1-0.1,0.2-0.1,0.3-0.2c0.1-0.1,0.2,0,0.3,0c0.1,0,0.2-0.1,0.3-0.1c0.1,0,0.2,0,0.3-0.1c0.1-0.1,0.2-0.1,0.3-0.2
		c0.1-0.1,0.3,0,0.3-0.1c0.1,0,0.3,0,0.4-0.1c0.1,0,0.2-0.1,0.3-0.1c0.1,0,0.2-0.2,0.3-0.2c0.1,0,0.2-0.2,0.3-0.3
		c0.1-0.2,0.3-0.2,0.4-0.3c0.1-0.1,0.2-0.3,0.4-0.3c0.1-0.1,0.2-0.2,0.2-0.2c0.2-0.1,0.3-0.3,0.5-0.4c0.1,0,0.1-0.1,0.1-0.2
		c0-0.1,0.1-0.1,0.1-0.2c0.1-0.1,0.2-0.3,0.3-0.5c0.2-0.2,0.5-0.4,0.7-0.8c0.2-0.2,0.3-0.3,0.5-0.4c0.2-0.1,0.3-0.4,0.5-0.4
		c0.1-0.2,0.3-0.3,0.4-0.4c0.2,0,0.3,0,0.3,0c0.2-0.2,0.5-0.2,0.7-0.4c0.1-0.1,0.2-0.1,0.3-0.1c0.1,0,0.2-0.1,0.3-0.1
		c0.2,0,0.4,0,0.6,0c0.2,0,0.3,0.1,0.5,0.1c0.2,0,0.3,0,0.5,0c0,0,0.1,0,0.1,0.1c0.1,0.1,0.2,0,0.3,0.1c0.1,0.1,0.2,0.2,0.3,0.3
		c0.2,0,0.3,0,0.4,0c0.2,0.1,0.2,0.3,0.3,0.4c0.1,0.1,0.2,0.2,0.3,0.3c0.1,0.1,0.2,0.2,0.4,0.3c0.1,0,0.2,0.1,0.2,0.2
		c0,0.1,0,0.2,0.2,0.2c0.1,0.1,0.1,0.2,0.2,0.3c0.1,0.1,0,0.2,0.1,0.3c0.1,0.1,0.1,0.2,0.1,0.4c0,0.2,0.1,0.3,0.1,0.4
		c0.1,0.2,0.1,0.2,0.1,0.5c0.1,0.1,0.1,0.1,0.2,0.2c0.1,0.1,0.1,0.2,0.1,0.3c0,0.1,0,0.3,0,0.6c0,0.1,0.1,0.1,0.1,0.2
		c0,0.2,0,0.5,0,0.7c0,0.1,0,0.3,0.1,0.4c0.1,0.1,0,0.3,0.1,0.4c0.1,0.1,0.2,0.2,0,0.3c0,0.2-0.1,0.3,0.1,0.5c0,0,0,0.1,0,0.1
		C60.3,54.4,60.3,54.4,60.2,54.5z M44.3,69.3c0,0,0.1,0.1,0.1,0.1c0,0.1,0,0.2,0,0.3c0,0.1,0,0.2,0.1,0.4c0,0.1,0,0.2,0,0.3
		c0,0.2,0,0.4,0,0.6c0,0.2,0,0.4,0,0.5c0,0.2,0.2,0.3,0.1,0.5c0,0.1,0.1,0.1,0.2,0.1c0.1-0.1,0.2-0.2,0.4-0.2c0.6-0.2,1-0.4,1.3-0.6
		c0.1-0.1,0.2-0.2,0.3-0.2c0.2,0,0.2-0.2,0.4-0.2c0.1,0,0.1-0.1,0.2-0.1c0.3,0,0.5-0.2,0.7-0.3c0.1,0,0.1-0.1,0.3-0.1
		c0.1,0,0.2,0,0.2,0c0.1,0,0.2-0.1,0.2-0.1c0.2,0.1,0.3-0.2,0.4-0.1c0.1-0.2,0.3-0.1,0.4-0.2c0.2-0.1,0.4-0.2,0.7-0.3
		c0.1-0.1,0.3-0.1,0.4-0.3c0.1-0.1,0.3-0.2,0.4-0.4c0.1-0.1,0.2-0.3,0.3-0.4c0.1-0.1,0.2-0.2,0.3-0.4c0.1-0.1,0.2-0.2,0.4-0.4
		c0,0,0-0.1,0.1-0.1c0.2-0.3,0.3-0.7,0.5-0.9c0,0,0-0.1,0-0.1c0-0.2,0.1-0.3,0.2-0.4c0-0.1,0.2-0.2,0.2-0.3c0-0.2,0.2-0.3,0.1-0.5
		c0.2-0.1,0-0.3,0.2-0.4c0-0.2,0-0.3,0-0.5c0,0,0-0.1,0-0.1c0.2-0.1,0.1-0.3,0.1-0.4c0-0.2,0-0.5,0-0.8c0-0.1,0-0.2,0.1-0.3
		c0.1-0.1,0.1-0.3-0.1-0.3c0.1-0.1,0.1-0.2,0.1-0.4c-0.1-0.1-0.1-0.2-0.1-0.4c0-0.2-0.1-0.4-0.1-0.5c0-0.2,0-0.4,0-0.6
		c0,0,0,0,0-0.1c-0.2-0.1-0.1-0.3-0.1-0.4c0-0.3,0-0.6,0-0.9c0-0.1,0-0.2-0.1-0.3c0,0,0.1-0.1,0.1-0.1c0-0.2,0-0.5,0-0.7
		c0-0.1,0.1-0.1,0.1-0.2c0-0.2,0-0.4,0-0.7c0.2-0.2,0.1-0.5,0.1-0.7c0-0.3,0-0.5,0-0.8c0,0,0.1-0.1,0.1-0.1c0.1-0.2,0-1.4,0-1.7
		c-0.1,0.1-0.2,0.3-0.4,0.2c-0.1,0.1-0.2,0.1-0.2,0.2c0,0.1-0.1,0.1-0.2,0.2c-0.1,0-0.2,0.1-0.3,0.1c-0.1,0-0.1,0.1-0.1,0.1
		c0,0,0,0.1-0.1,0.1c-0.2,0-0.3,0.3-0.5,0.3c0,0,0,0.1,0,0.1c0,0.1-0.1,0.1-0.1,0.2c-0.1,0.1-0.2,0.1-0.3,0.2
		c-0.2,0-0.2,0.2-0.4,0.2c-0.1,0-0.2,0.1-0.3,0.2c-0.1,0.1-0.2,0.2-0.3,0.3c-0.2,0-0.2,0-0.3,0.1c-0.3,0.1-0.5,0.3-0.8,0.3
		c-0.1,0.1-0.2,0.2-0.2,0.2c-0.3,0.1-0.6-0.1-0.8,0.1c-0.2,0-0.4,0-0.7,0c-0.2,0.2-0.5,0.1-0.7,0.1c-0.3,0-0.7,0-1.1,0
		c0-0.2-0.2-0.1-0.3-0.2c-0.1-0.1-0.3,0-0.4-0.2c0,0.4,0,0.7,0,1.1c0,0.1-0.1,0.1-0.1,0.1c0,0.1,0,0.3,0,0.4c0,0.1,0,0.3,0,0.4
		c0,0.1-0.1,0.2-0.1,0.4c0,0.2,0.1,0.4-0.1,0.5c0,0,0,0,0,0.1c0.1,0.2,0.1,0.3,0,0.4c-0.1,0.1,0,0.4-0.2,0.4
		c0.1,0.2-0.1,0.3-0.1,0.5c0,0.2-0.1,0.4-0.2,0.6c-0.1,0.2-0.1,0.3-0.3,0.5c-0.1,0.1,0,0.2-0.1,0.3c-0.1,0.1-0.1,0.2-0.2,0.3
		c0,0,0,0.1,0,0.1c0.1,0.1,0.1,0.2,0.1,0.4c0,0.7,0,1.5,0,2.2c0,0.1,0,0.2,0.1,0.3c0.1,0.1,0.1,0.3,0,0.4c-0.1,0.1,0,0.1,0.1,0.2
		c0,0.1,0,0.2,0,0.4c0,0.2,0.1,0.2,0.1,0.4c0,0.1,0,0.3,0.1,0.4c0.1,0.1,0,0.3,0,0.4c0,0,0,0.1,0,0.1c0.1,0.2,0.1,0.3,0,0.5
		c0,0,0,0.1,0,0.1c0.2,0.1,0,0.3,0.2,0.4C44.6,69.1,44.4,69.2,44.3,69.3z"/>
	<path class="st10" d="M18.5,46.2c-0.1-0.1-0.2-0.1-0.3-0.2c-0.1,0.2-0.3,0.2-0.5,0.2c-0.4,0-0.8,0-1.2,0c-0.2,0-0.3,0-0.4,0.2
		c0,0-0.1,0-0.2,0c-0.1,0-0.1-0.1-0.2-0.2c-0.1,0-0.2,0-0.3,0c-0.3,0-0.5,0.1-0.7-0.2c-0.2,0-0.3-0.1-0.5,0.1
		c-0.1,0-0.1,0.1-0.2,0.1c-0.3-0.2-0.6-0.4-1-0.3c-0.1,0-0.2-0.1-0.3-0.1c-0.3-0.1-0.5-0.2-0.7-0.4c-0.2-0.1-0.4-0.1-0.6-0.1
		c-0.2-0.2-0.3-0.3-0.5-0.5c-0.1-0.1-0.4-0.1-0.5-0.3c-0.2-0.3-0.6-0.5-0.7-0.9c-0.1-0.3-0.6-0.4-0.6-0.8c0,0-0.1-0.1-0.1-0.1
		c-0.1-0.1-0.3-0.3-0.4-0.4c-0.2-0.1-0.2-0.4-0.3-0.5c-0.2-0.1-0.3-0.3-0.4-0.4c-0.1-0.1-0.3-0.3-0.4-0.4c0.1-0.3-0.2-0.6-0.3-0.8
		C7.1,40,7,39.9,7,39.9c0-0.2,0-0.5,0-0.7c0-0.2-0.2-0.3-0.2-0.5c0-0.5,0.2-1-0.2-1.4c0-0.2,0-0.5,0-0.7c0-0.2-0.1-0.3-0.2-0.4
		c-0.1-0.2,0-0.3,0.2-0.4c-0.2-0.1-0.2-0.4-0.2-0.6c0.1-0.2,0.2-0.4,0.3-0.5c0.1-0.2,0-0.4,0.1-0.5c0.2-0.2,0.2-0.5,0.5-0.6
		c0-0.2,0-0.3,0-0.4c0.1-0.1,0.4-0.3,0.4-0.4c0-0.2,0.2-0.3,0.2-0.5c0-0.2,0.3-0.3,0.2-0.5c0.2-0.5,0.4-0.9,0.7-1.4
		c0.3-0.2,0.3-0.6,0.6-0.8c0,0,0.1-0.1,0.1-0.2c0-0.2,0-0.3,0.2-0.5c0.1-0.1,0-0.3,0-0.5c0-0.1,0.1-0.3,0.2-0.4
		c0.1-0.2-0.1-0.4,0.1-0.5c0.1-0.1,0.1-0.3,0.2-0.4c0-0.1,0.1-0.2,0.1-0.2c0-0.2,0-0.4,0.2-0.6c0.1-0.1-0.1-0.4,0.1-0.5
		c0.2-0.1,0.1-0.4,0.1-0.5c0-0.2-0.1-0.4,0.1-0.6c0.2-0.1-0.1-0.5,0.2-0.6c0.1-0.3,0.1-0.5,0.3-0.8c0.1-0.2,0.3-0.5,0.4-0.7
		c0.1-0.2,0.2-0.5,0.4-0.7c0,0,0-0.2,0-0.2c0.3-0.2,0.3-0.6,0.6-0.7c0.3-0.2,0.4-0.6,0.6-0.8c0.2-0.3,0.5-0.5,0.8-0.8
		c0.1-0.1,0.2-0.2,0.2-0.4c0-0.1,0.2-0.2,0.4-0.3c0.1,0,0.2-0.1,0.2-0.2c0,0,0-0.1,0.1-0.2c0.3-0.3,0.6-0.5,0.8-0.9
		c0.2-0.3,0.5-0.6,0.8-0.8c0.2-0.2,0.2-0.4,0.4-0.6c0.2-0.2,0.4-0.4,0.6-0.6c0.2-0.2,0.4-0.3,0.5-0.6c0.1-0.2,0.2-0.3,0.4-0.4
		c0.2-0.1,0.3-0.3,0.4-0.4c0.2-0.2,0.4-0.1,0.6-0.3c0.1-0.2,0.4-0.1,0.5-0.3c0.1-0.1,0.4-0.1,0.5-0.3c0.1-0.2,0.3-0.2,0.5-0.3
		c0.1,0,0.1-0.1,0.1-0.1c0.3,0.1,0.2-0.2,0.3-0.4c0.1,0,0.3,0,0.4,0c0.2-0.1,0-0.4,0.2-0.4c0.2,0,0.3-0.2,0.5-0.3
		c0.1-0.1,0.4,0.1,0.3-0.2c0,0-0.1-0.1-0.1-0.1c-1.1,0-2.3,0-3.3,0c-0.2,0.1-0.3,0.2-0.4,0.2c-0.5,0-1,0-1.5,0
		c-0.1,0.1-0.1,0.1-0.2,0.2c-0.1,0-0.1-0.1-0.2-0.2c-0.2,0-0.1,0.2-0.1,0.3c0,0,0,0-0.1,0.1c0,0-0.1,0-0.1,0c-0.2,0-0.4,0-0.6,0
		C16.3,11.8,16.2,12,16,12c-0.2,0-0.3,0.3-0.5,0.2c-0.1,0.1-0.2,0.2-0.4,0.2c0,0-0.1,0-0.1,0c-0.4,0.4-0.9,0.5-1.4,0.8
		c0.1,0.1,0.1,0.1,0.2,0.2c-0.1,0.2-0.3,0.4-0.5,0.3c-0.1,0-0.2,0-0.2,0.1c-0.2,0.3-0.5,0.3-0.8,0.5c-0.2,0.2-0.5,0.3-0.8,0.4
		c-0.2,0.1-0.5,0.2-0.6,0.4c-0.1,0.3-0.5,0.2-0.6,0.4C10,15.8,9.8,16,9.6,16.2c0.1,0.1,0.1,0.1,0.2,0.1c-0.1,0.3-0.2,0.5-0.5,0.7
		c-0.1,0.1-0.1,0.3-0.3,0.5c-0.1,0.1,0,0.2,0,0.4c-0.2,0.2-0.3,0.3-0.5,0.5c-0.3-0.1-0.3,0.3-0.6,0.2c-0.1,0.2-0.3,0.2-0.5,0.2
		C7.1,18.7,7,19,6.8,19c-0.2,0-0.4,0-0.7,0c-0.1-0.1-0.2-0.3-0.3-0.4c-0.2,0-0.4,0-0.5,0c-0.1-0.1-0.3-0.3-0.4-0.4
		c-0.1,0-0.3,0-0.4,0c-0.4-0.3-0.7-0.7-1.1-1c0-0.2,0-0.4,0-0.6c-0.1-0.1-0.3-0.2-0.4-0.3c0.1-0.2-0.1-0.4,0.1-0.5
		c0.1-0.1,0.2-0.2,0.1-0.3c0-0.1-0.1-0.1-0.2-0.2c0.2-0.1,0.3-0.3,0.1-0.5c-0.2-0.2-0.1-0.3,0.1-0.5C3.1,14.2,3.1,14.1,3,14
		c0-0.1,0-0.2,0-0.4c0.1-0.1,0.3-0.2,0.4-0.3c0-0.2-0.1-0.4,0.2-0.6c0.1-0.1,0.2-0.2,0.2-0.3c0.1-0.3,0.4-0.5,0.7-0.7
		c0.3-0.2,0.6-0.4,1.1-0.3c0.2,0,0.3-0.2,0.5-0.2c0.2,0,0.4,0.1,0.5-0.1c0,0,0.1-0.1,0.2-0.1c0.3,0,0.5,0,0.7-0.2
		c0.2-0.1,0.5,0.1,0.7-0.2c0,0,0.1,0,0.1,0c0.3,0,0.6,0.1,0.9-0.1c1.3-1.1,5.5-0.9,7.2-1.1c3.3-0.3,6.5,0.2,9.7,0.2
		c0.2,0,0.5,0,0.7,0c0.2,0,0.4,0,0.6,0c0,0.1,0,0.2,0.1,0.3c0,0.1,0.2,0.2,0.2,0.2c-0.1,0.1-0.2,0.2-0.2,0.4c0,0,0,0-0.1,0.1
		c-0.2,0.2-0.4,0.5-0.7,0.7c-0.2,0.2-0.2,0.5-0.5,0.7c-0.3,0.2-0.5,0.4-0.7,0.7c-0.2,0.2-0.4,0.3-0.6,0.4c-0.2,0.1-0.3,0.3-0.5,0.5
		c-0.2-0.1-0.3,0.2-0.5,0.2c-0.1,0-0.2,0.2-0.4,0.3c-0.4,0.1-0.7,0.5-1,0.8c-0.2,0.2-0.3,0.4-0.7,0.3c-0.3,0.2-0.6,0.3-0.9,0.5
		c0.1,0.1,0.1,0.1,0.2,0.1c0,0.1-0.3,0.4-0.8,0.6c0,0.1,0,0.3,0,0.4c-0.1,0.2-0.3,0.3-0.6,0.4c-0.2,0.1-0.2,0.3-0.5,0.3
		c-0.1,0-0.2,0-0.2,0.1c-0.1,0.4-0.5,0.6-0.7,0.9c-0.3,0.3-0.6,0.6-0.8,0.8c-0.1,0.1-0.2,0.2-0.3,0.3c0,0.1,0,0.2-0.1,0.3
		c-0.1-0.1-0.2-0.1-0.3-0.2c0,0.2-0.1,0.4-0.1,0.5c-0.1,0-0.3,0.1-0.3,0.1c0,0.2-0.2,0.3-0.3,0.5c-0.2,0.2-0.5,0.5-0.7,0.7
		c0,0.4-0.4,0.5-0.6,0.7c-0.1,0.2-0.3,0.4-0.2,0.6c0,0.3-0.2,0.4-0.3,0.6c-0.1,0.2-0.3,0.4-0.3,0.6c0,0.3-0.1,0.4-0.3,0.6L13.6,25
		c0,0.2-0.1,0.3-0.1,0.4c-0.1,0.1-0.1,0.3,0.1,0.5c0.2,0.2,0.1,0.5-0.1,0.7c0.1,0.1,0.1,0.1,0.2,0.2c0,0.2,0,0.4,0,0.6
		c0.4,0.3,0.1,0.8,0.2,1.2c0.1,0,0.2,0.1,0.3,0.1c0.1,1.1,0.1,1.1-0.1,1.4c0.1,0.1,0.2,0.2,0.3,0.3c0.1,0,0.3,0.1,0.5-0.1
		c0,0,0-0.1,0.1-0.1c0.3,0,0.5,0,0.8-0.1c0.2-0.1,0.4-0.2,0.6-0.2c0.3,0,0.5,0,0.8,0c0.3,0,0.6,0,0.9,0c0.2-0.3,0.5-0.1,0.7-0.1
		c0.2-0.3,0.5-0.2,0.8-0.2c0.3,0,0.3-0.3,0.6-0.2c0.2,0.1,0.4,0,0.6-0.2c0.4,0.1,0.6-0.3,1-0.2c0.1,0,0.2-0.1,0.3-0.1
		c0.3-0.1,0.6-0.3,1-0.3c0.2,0,0.4-0.3,0.7-0.2c0.4-0.4,1-0.3,1.4-0.6c0.2-0.1,0.4-0.1,0.5-0.2c0.2-0.1,0.4-0.1,0.6-0.3
		c0.1-0.1,0.4-0.1,0.5-0.3c0.5,0.1,0.8-0.4,1.3-0.4c0.1,0,0.3-0.2,0.4-0.3c0.1-0.1,0.3,0,0.4-0.2c0.1-0.1,0.2-0.3,0.5-0.3
		c0.1,0,0.1-0.2,0.1-0.3c0.1-0.1,0.3-0.1,0.3-0.1c0.2-0.2,0.5-0.2,0.6-0.4c0.2-0.2,0.5-0.2,0.7-0.5c0.1-0.2,0.3-0.4,0.6-0.4
		c0.1,0,0.2-0.2,0.4-0.3c0.5-0.5,0.9-0.9,1.4-1.4c0.1,0,0.2,0,0.2,0c0.1,0.1,0.1,0.2,0.1,0.3c-0.2,0.1-0.3,0.2-0.5,0.3
		c0.1,0.4-0.1,0.6-0.2,0.8c-0.1,0.2-0.4,0.3-0.4,0.6c-0.2,0.1-0.4,0.1-0.5,0.3c-0.1,0.2-0.1,0.4-0.4,0.4c-0.2,0-0.3,0.3-0.4,0.4
		c-0.2,0.2-0.3,0.3-0.5,0.5c-0.1,0.1-0.3,0.1-0.4,0.2c-0.1,0.1-0.4,0.1-0.3,0.3c-0.5,0.1-0.7,0.5-1,0.8c-0.3,0.3-0.6,0.6-0.9,0.9
		c-0.2,0.2-0.4,0.1-0.6,0.3c-0.1,0.2-0.3,0.3-0.5,0.5c-0.2,0.1-0.4,0.1-0.5,0.3c-0.1,0.2-0.4,0.1-0.6,0.3c-0.1,0.2-0.3,0.3-0.5,0.5
		c-0.1,0.2-0.4,0.2-0.6,0.3c-0.2,0.1-0.3,0.4-0.5,0.4c-0.2,0.1-0.3,0.2-0.5,0.2c-0.1,0-0.2,0-0.2,0.1c0,0.1,0,0.3-0.2,0.2
		c-0.2,0-0.2,0.2-0.3,0.2c-0.3,0.1-0.6,0.2-0.9,0.5c-0.1,0.1-0.2,0.1-0.3,0.1c-0.2,0-0.3,0.1-0.4,0.2c-0.1,0.1-1.4,0.8-1.6,0.8
		c-0.3,0-0.4,0.2-0.7,0.3c-0.1,0-0.2,0.2-0.3,0.1c-0.3-0.1-0.5,0.1-0.7,0.2c-0.2,0.1-0.4,0.3-0.7,0.2c-0.1,0.2-0.4,0.2-0.6,0.2
		c-0.2,0-0.3,0.3-0.6,0.2c-0.2,0-0.4,0-0.6,0c-0.3,0.1-0.5,0.2-0.8,0.2c-0.3,0-0.5,0-0.8,0c0,0.3,0,0.6,0,0.9
		c-0.1,0.1-0.1,0.1-0.2,0.2c0.1,0.3,0.4,0.5,0,0.8c0,0.4,0,0.8,0,1.2c0,0.1-0.1,0.2-0.1,0.3c-0.1,0.3-0.1,0.4,0.1,0.8
		c0.1,0.2-0.1,0.4,0.1,0.5c0.2,0.1,0.1,0.4,0.1,0.5c0.3,0.2,0.5,0.5,0.8,0.7c0.2,0.1,0.1,0.4,0.3,0.5c0.1,0.1,0.3,0.1,0.4,0.2
		c1.2,0,2.3,0,3.5,0c0.2,0,0.4,0,0.5,0.2c0.1,0.1,0.2,0.1,0.3,0.1c0.1,0.1,0.2-0.1,0.3-0.1c0.2,0,0.5,0,0.7,0c0.2,0,0.3,0,0.4-0.2
		c0.1-0.1,0.2,0,0.3,0.1c0.1,0.2,0.4,0.1,0.5,0.1c0.2-0.2,0.4-0.2,0.6-0.2c0.2-0.3,0.5-0.2,0.7-0.2c0.2,0,0.4-0.3,0.6-0.2
		c0.3,0.1,0.4-0.2,0.6-0.2c0.2,0,0.3-0.1,0.5-0.2c0.2-0.1,0.4-0.2,0.6-0.2c0.1,0,0.1-0.1,0.1-0.1c0.2,0,0.4,0,0.6,0
		c0.1-0.2,0.4-0.1,0.6-0.2c0.2-0.1,0.3-0.1,0.5-0.2c0.2-0.1,0.4-0.3,0.6-0.3c0.2,0,0.3-0.3,0.5-0.2c0.5-0.4,1.2-0.6,1.7-0.9
		c0.1,0,0.2-0.1,0.3-0.1c0.2,0.1,0.3-0.2,0.5-0.2c0.2,0,0.4,0,0.6,0c0.2,0,0.3-0.1,0.5-0.2c0.2,0.3,0.1,0.6,0.1,0.9
		c-0.1,0.1-0.2,0.2-0.3,0.3c-0.1,0.1,0,0.3-0.2,0.4c-0.1,0.1-0.2,0.3-0.4,0.3c-0.2,0-0.3,0.1-0.4,0.2c-0.1,0.1-0.2,0.2-0.3,0.2
		c-0.1,0-0.2,0.2-0.4,0.3c-0.1,0.1-0.3,0.1-0.4,0.2c-0.2,0.1-0.3,0.1-0.6,0.1c-0.1,0.1-0.3,0.4-0.5,0.5c-0.2,0-0.4,0-0.5,0.1
		c-0.4,0.2-0.8,0.4-1.2,0.6c-0.1,0.1-0.3,0-0.4,0.1c-0.1,0-0.3,0.2-0.4,0.2c-0.2,0-0.2,0.1-0.2,0.3c0,0.1-0.1,0.2-0.2,0.2
		c-0.5,0.2-0.8,0.6-1.1,0.9c-0.3,0.3-0.7,0.4-1.1,0.6c-0.1,0.1-0.2,0.1-0.2,0.2c-0.1,0.3-0.3,0.4-0.5,0.6c-0.3-0.1-0.3,0.3-0.6,0.2
		c-0.2-0.1-0.4,0.3-0.7,0.2c-0.1,0.1-0.3,0.2-0.5,0.4c-0.1,0-0.3,0-0.5,0c-0.3,0-0.5-0.1-0.7,0.2c-0.3,0-0.5,0-0.8,0
		C19.2,46.3,18.8,46.1,18.5,46.2z"/>
	<path class="st10" d="M48.1,37.8c0,0.2,0,0.5,0,0.7c0,0.1-0.1,0.1-0.1,0.2c0,0.1,0,0.3,0,0.4c0,0.1-0.1,0.2-0.1,0.3
		c0,0.1,0,0.3,0,0.4c0,0.1,0,0.2,0,0.4c0,0-0.1,0.1-0.1,0.1c0,0.1,0,0.3-0.1,0.4c0.2,0.1-0.1,0.2,0,0.3c0,0.1,0,0.2,0,0.3
		c0,0-0.1,0.1-0.1,0.1c0,0.2,0,0.5,0,0.7c0,0-0.1,0.1-0.1,0.1c0.2,0.2,0.1,0.4,0.1,0.5c0,0.1-0.2,0.1-0.1,0.2c0.1,0.1,0,0.2,0,0.3
		c0.1,0.2,0.1,0.2,0,0.3c0,0.1,0,0.3,0,0.4c0,0-0.1,0-0.1,0.1c-0.1,0.1,0,0.3-0.1,0.5c0.1,0.1,0.1,0.1,0,0.2c0,0,0,0.2,0,0.2
		c-0.1,0.1-0.1,0.3-0.1,0.4c-0.1,0.1-0.1,0.2-0.2,0.2c0,0.1,0,0.2,0,0.3c-0.1,0.1-0.1,0.1-0.2,0.2c0,0.1,0,0.2,0,0.3c0,0,0,0,0,0
		c-0.1,0.1-0.1,0.2-0.2,0.3c0,0,0.1,0.1,0.1,0.1c-0.1,0.1-0.2,0.2-0.2,0.4c0,0.1-0.1,0.1-0.1,0.2c-0.1,0-0.2,0-0.2,0c0,0,0,0,0,0
		c0-0.2-0.1-0.3,0.1-0.5c0,0,0-0.1,0-0.1c0-0.1-0.1-0.3,0-0.4c0.1-0.1,0.1-0.2,0.1-0.3c0-0.1,0.1-0.2,0.1-0.3c0-0.1,0-0.2,0.1-0.3
		c0.1-0.1,0-0.2,0-0.3c0.1-0.1,0.1-0.3,0.1-0.4c0-0.2,0.2-0.3,0.1-0.4c0-0.2,0-0.4,0-0.5c0-0.2,0-0.3,0-0.5c0-0.1,0.1-0.1,0.1-0.2
		c0,0,0,0,0,0c0-0.1,0-0.3,0-0.4c0-0.1,0-0.3,0-0.4c0-0.1,0.1-0.2,0.1-0.3c0-0.1,0-0.3,0-0.4c0-0.3,0-0.6,0-0.9
		c0.1-0.1,0.1-0.2,0.1-0.2c0-0.4,0-0.9,0-1.3c0-0.1,0.1-0.1,0.1-0.2c-0.1-0.1,0-0.2,0.1-0.3c0-1.3,0-2.5,0-3.8c0-0.8,0-1.7,0-2.5
		c0-0.1,0-0.2,0.1-0.2c0-0.4,0-0.9,0-1.3c0-0.1,0-0.2,0.1-0.4c0.1-0.1,0-0.2,0-0.4c0.2-0.2,0-0.4,0.2-0.7c0,0,0.1-0.1,0-0.2
		c-0.1-0.1,0-0.1,0.1-0.2c0-0.3,0-0.6,0-0.9c0-0.2-0.1-0.3,0.1-0.5c0.1-0.1,0-0.3,0-0.5c0.2-0.1,0.1-0.3,0.1-0.4
		c0-0.1,0.2-0.2,0.1-0.4c0-0.1,0-0.3,0-0.4c0.2-0.2,0.1-0.4,0.1-0.7c0.1-0.1,0.1-0.3,0.1-0.4c0-0.1,0.1-0.2,0.1-0.3
		c0-0.1,0-0.3,0-0.4c0-0.1,0-0.2,0-0.3c0,0,0.1-0.1,0.1-0.1c0-0.2,0-0.3,0-0.5c0-0.1,0.1-0.2,0.1-0.4c0-0.1,0-0.3,0-0.4
		c0-0.1,0.1-0.2,0.1-0.2c0-0.1,0-0.3,0-0.4c0.2-0.2,0.1-0.5,0.1-0.7c0-0.1,0.2-0.2,0.1-0.4c0.1-0.1,0.1-0.2,0.1-0.4
		c0,0,0-0.1,0.1-0.1c0.1-0.1,0.1-0.1,0-0.2c-0.1-0.1,0-0.2-0.1-0.3c-0.1,0-0.1-0.1-0.2-0.1c0,0-0.1-0.1-0.1,0
		c-0.1,0.2-0.3,0-0.4,0.2c-0.1,0-0.2,0.1-0.3,0.2c-0.1,0.1-0.2,0.1-0.3,0.2c-0.1,0.1-0.2,0.1-0.3,0.2c0,0-0.1,0-0.2,0
		c-0.1,0.2-0.3,0.2-0.5,0.3c-0.2,0.1-0.4,0.2-0.6,0.2c-0.1,0-0.1,0.2-0.3,0.2c-0.2,0.2-0.5,0.2-0.7,0.3c-0.1,0.1-0.2,0.1-0.4,0.2
		c-0.1,0.1-0.2,0.1-0.3,0.2C44.2,22,44,22,43.9,22.1c-0.1,0.1-0.3,0.1-0.4,0.2c-0.1,0.1-0.4,0.2-0.5,0.3c-0.2,0.1-0.3,0.1-0.5,0.3
		c0,0-0.1,0-0.1,0c-0.1,0.1-0.3,0.1-0.3,0.2c-0.1,0.1-0.3,0.1-0.4,0.2c-0.1,0.1-0.2,0.2-0.3,0.2c0,0-0.1,0-0.1,0.1
		c-0.1,0.1-0.3,0.2-0.4,0.4c-0.2,0-0.2,0.3-0.4,0.2c-0.1,0.2-0.3,0.2-0.4,0.3c-0.2,0-0.2,0.2-0.4,0.2c-0.1,0-0.2,0.2-0.3,0.2
		c-0.1,0.1-0.1,0.1-0.2,0.2c-0.1,0-0.2,0.1-0.2,0.1c-0.1,0-0.2,0.1-0.3,0.2c-0.1,0.1-0.2,0-0.2,0.1c-0.1,0.1-0.1,0-0.2,0
		c-0.1,0.1,0,0.2-0.2,0.2c-0.2,0.2-0.5,0.2-0.8,0.4c-0.2,0-0.2,0.2-0.3,0.2c-0.1,0-0.2,0.1-0.4,0.2c-0.1,0-0.2,0.1-0.4,0.2
		c-0.1,0-0.1,0.1-0.2,0.1c0,0-0.1,0-0.1,0.1c-0.3,0.1-0.4,0.1-0.5,0.2c-0.1,0.1-0.3,0.2-0.4,0.3c0,0-0.1,0-0.1,0.1
		c-0.1,0.2-0.4,0.2-0.5,0.4c-0.1,0-0.2,0-0.3,0.1c0,0,0,0,0,0c-0.2-0.1-0.3,0.1-0.4,0.1c-0.1,0-0.2,0-0.1,0.2c0,0,0,0-0.1,0
		c-0.1,0-0.4,0-0.5,0.1c-0.2,0.1-0.3,0.2-0.5,0.2c-0.1,0-0.1,0-0.2,0.1c-0.1,0-0.2,0.1-0.3,0.1c-0.1,0-0.2,0.1-0.3,0.1
		c-0.1,0-0.2,0-0.3,0.1c-0.2,0-0.4,0-0.6,0c-0.1,0.1-0.2,0.1-0.2,0.2c-0.1,0-0.3-0.1-0.4,0c-0.1,0.1-0.3,0-0.3,0.1
		c0,0.1-0.1,0-0.1,0c0,0-0.1,0-0.1,0c-0.1,0.1-0.2,0.1-0.3,0.2c0,0,0,0-0.1,0c-0.2,0-0.3,0-0.4,0c-0.1,0-0.1-0.1-0.2-0.1
		c-0.2,0-0.5,0-0.7,0c-0.1-0.1-0.2-0.2-0.3-0.2c-0.2,0-0.3-0.2-0.4-0.3c0,0-0.1-0.1-0.1-0.2c-0.1,0-0.2-0.1-0.3-0.1
		c-0.1,0-0.3-0.1-0.4-0.2c-0.1-0.2-0.3-0.4-0.5-0.6c0-0.1,0-0.2-0.1-0.3c0,0,0.1-0.1,0.1-0.1c0-0.3,0-0.6,0-1
		c0.1-0.1,0.1-0.1,0.2-0.2c0-0.1,0-0.2,0-0.3c0,0,0-0.1,0.1-0.1c0.1-0.1,0.2-0.2,0.2-0.3c0.1,0,0.2-0.1,0.3-0.1c0.1,0,0.2,0,0.2,0
		c0.1,0.1,0.2,0.1,0.3,0c0.1,0,0.2-0.1,0.2-0.1c0.1,0,0.2,0,0.3,0c0.1,0.2,0.4,0.2,0.5,0.4c0.2,0,0.3,0,0.5,0c0.1,0,0.3,0,0.4,0
		c0.1,0.1,0.2,0.1,0.3,0.2c0,0,0.1,0,0.1,0c0.2-0.1,0.2,0.1,0.4,0.1c0.4,0,0.8,0,1.1,0c0.1,0,0.1-0.1,0.1-0.1
		c0.1,0.1,0.2,0.1,0.3,0.2c0-0.1,0-0.1,0.1-0.2c0.1-0.1,0.2,0,0.4,0c0,0,0.1,0.1,0.1,0.1c0,0,0.1-0.1,0.1-0.1c0.1,0,0.3,0,0.4-0.1
		c0.1-0.1,0.2-0.1,0.3-0.1c0.2,0,0.3,0,0.5,0c0.1-0.2,0.3,0,0.4-0.1c0.1-0.1,0.3-0.1,0.4-0.1c0.2,0,0.3-0.2,0.4-0.1
		c0.1-0.1,0.2-0.1,0.3-0.1c0.2,0.1,0.3-0.2,0.4-0.1c0.2,0,0.3-0.1,0.4-0.1c0.2-0.1,0.4-0.1,0.6-0.1c0.1-0.1,0.3-0.2,0.4-0.3
		c0.1-0.1,0.3,0,0.5,0c0.1,0,0-0.2,0.1-0.2c0.1,0,0.2,0,0.2,0c0.1-0.1,0.2,0,0.3-0.1c0.1-0.1,0.3-0.1,0.4-0.2
		c0.1-0.1,0.2-0.1,0.3-0.1c0.1-0.1,0.2-0.1,0.3-0.1c0.1,0,0.2-0.1,0.3-0.1c0.1-0.1,0.2-0.1,0.3-0.1c0.1-0.1,0.2-0.1,0.3-0.2
		c0.1,0,0.1-0.2,0.3-0.1c0.1-0.1,0.2-0.1,0.3-0.1c0.1,0,0.2-0.2,0.3-0.2c0.1,0,0.2-0.2,0.3-0.1c0.1-0.1,0.2-0.1,0.3-0.2
		c0.1,0,0.2,0,0.2,0c0.1-0.1,0.1-0.2,0.3-0.2c0.1,0,0.2-0.1,0.3-0.1c0.1-0.1,0.2-0.1,0.3-0.1c0,0,0.1,0,0.1,0
		c0.1-0.1,0.1-0.2,0.2-0.2c0.1,0,0.2-0.1,0.3-0.1c0.1,0,0.2-0.1,0.3-0.2c0.1-0.1,0.2-0.1,0.3-0.2c0.1-0.1,0.2-0.1,0.3-0.2
		c0.1-0.1,0.2-0.1,0.3-0.2c0.1-0.1,0.3-0.1,0.4-0.3c0.1,0,0.2-0.1,0.3-0.2c0.1-0.1,0.2-0.1,0.3-0.1c0.1,0,0.1-0.2,0.3-0.2
		c0.2,0,0.2-0.2,0.3-0.2c0.1,0,0.2-0.2,0.3-0.2c0.1,0,0.2-0.2,0.3-0.2c0.1,0,0.2-0.2,0.3-0.2c0.1,0,0.2-0.1,0.3-0.2
		c0,0,0.1,0,0.2-0.1c0.1,0,0.1-0.1,0.2-0.1c0.2-0.2,0.5-0.3,0.8-0.5c0.1-0.1,0.2,0,0.3-0.1c0.1-0.1,0.2-0.1,0.3-0.2
		c0.1-0.1,0.2-0.2,0.3-0.2c0.1,0,0.2-0.1,0.1-0.2c0-0.1,0.2-0.2,0.1-0.3c0-0.1,0-0.2,0-0.3c0-0.1,0.2-0.2,0.1-0.3
		c0-0.1,0-0.2,0.1-0.3c0.1-0.1,0-0.2,0.1-0.3c0-0.1,0-0.2,0-0.3c0-0.2,0.2-0.2,0.1-0.3c0-0.1,0-0.2,0-0.3c0.2-0.1,0-0.3,0.1-0.5
		c0.2-0.3,0.1-0.6,0.1-0.9c0-0.1,0-0.2,0.1-0.2c0,0,0.1-0.2,0-0.2C49.9,13.4,50,13.2,50,13c0-0.2-0.2-0.2-0.1-0.4c0-0.1,0-0.3,0-0.4
		c0,0-0.1-0.1-0.1-0.1c0-0.3,0-0.6,0-1c0,0-0.1-0.1-0.1-0.1c0.1-0.1,0.2-0.2,0.1-0.4c0-0.1,0-0.1,0-0.2c0-0.1,0-0.3,0-0.5
		c0-0.2-0.1-0.4,0.1-0.5c0,0,0-0.1,0-0.2c0-0.3,0-0.6,0-0.9c0-0.2,0-0.3,0-0.5c0-0.1,0.1-0.3,0.2-0.4c0.2-0.2,0.2-0.5,0.3-0.8
		c0-0.1,0.1-0.1,0.2-0.1c0.1-0.1,0-0.2,0.1-0.3c0.1-0.1,0.2-0.2,0.3-0.3c0.1,0,0.2,0,0.3,0c0.1,0,0.2,0,0.3,0
		c0.1,0.1,0.3,0.1,0.4,0.2c0.1,0.2,0.3,0.2,0.5,0.3c0.1,0,0.1,0.1,0.2,0.1c0.1,0,0.2,0,0.4,0C53.1,7,53.2,7,53.2,7.2
		c0,0.1,0.1,0.1,0.2,0.1c0.1,0.2,0.4,0.2,0.4,0.5c0.2,0.1,0.3,0.4,0.5,0.6c0.1,0.1,0.1,0.2,0.2,0.3c0,0,0,0.1,0,0.2
		c0.1,0.1,0.3,0.3,0.4,0.4c-0.1,0.2,0.1,0.3,0.1,0.4c0,0,0.1,0.1,0.1,0.1c0,0.2,0.1,0.4,0.2,0.6c0,0,0,0.1,0,0.2c0,0.1,0,0.3,0,0.4
		c0,0.1,0.1,0.2,0.1,0.3c0,0,0.1,0.1,0.1,0.1c0,0.2,0,0.3,0,0.5c0,0.1,0.1,0.1,0.1,0.2c0,0-0.1,0.1-0.1,0.1c0.2,0.1,0.1,0.3,0.1,0.4
		c0,0.1,0,0.2,0,0.4c0,0.1,0,0.2,0.1,0.2c0.1,0.1,0,0.2-0.1,0.2c0,0,0.1,0.1,0.1,0.1c0,0.3,0,0.6,0,1c0,0.2-0.1,0.3-0.1,0.4
		c0,0.1,0,0.3,0,0.4c0,0-0.1,0.1-0.1,0.1c0,0.1,0.1,0.3-0.1,0.4c-0.1,0.1,0,0.2-0.1,0.4c0,0.1-0.1,0.2-0.1,0.3
		c0,0.1-0.2,0.2-0.1,0.3c0,0.1-0.2,0.2-0.1,0.3c-0.2,0.1-0.1,0.3-0.2,0.5c-0.1,0.1-0.1,0.3-0.2,0.4c-0.1,0.1,0,0.2,0,0.3
		c-0.1,0.1-0.1,0.1-0.2,0.2c0,0.1-0.1,0.2-0.1,0.3c0,0.1-0.1,0.2-0.1,0.3c0,0.1-0.1,0.2-0.1,0.3c-0.1,0.1-0.1,0.2-0.1,0.3
		c0,0.1-0.1,0.2-0.1,0.3c0,0.2-0.2,0.3-0.1,0.4c-0.1,0.1-0.1,0.3-0.2,0.4c-0.1,0.1-0.1,0.3-0.2,0.4c0,0.1-0.1,0.3-0.1,0.4
		c-0.1,0.2-0.1,0.2-0.1,0.5c-0.1,0.1-0.2,0.1-0.2,0.2c0,0.2-0.3,0.2-0.2,0.4c-0.1,0.1-0.1,0.3-0.2,0.4c-0.1,0.1-0.2,0.3-0.2,0.4
		c0,0-0.1,0.1-0.1,0.1c-0.1,0.1-0.3,0.2-0.4,0.4c-0.1,0.2-0.2,0.3-0.3,0.4c-0.1,0.2-0.3,0.3-0.3,0.5c-0.1,0.2-0.2,0.3-0.2,0.5
		c0,0.1-0.1,0.2-0.1,0.2c0,0.1-0.1,0.2-0.1,0.4c0,0.1-0.1,0.2-0.1,0.3c-0.1,0.1,0,0.3-0.1,0.4c0,0,0,0.1,0,0.1c0,0.1,0,0.2-0.1,0.3
		c-0.1,0.1,0,0.2-0.1,0.3c-0.1,0.1-0.1,0.2-0.1,0.3c-0.1,0.1,0,0.2-0.1,0.2c-0.1,0.1,0,0.2,0,0.2c-0.1,0.1-0.1,0.1-0.1,0.2
		c0,0.2-0.1,0.3-0.1,0.5c0,0.1-0.1,0.2-0.1,0.3c-0.2,0.1,0,0.2-0.1,0.3c-0.1,0.1-0.1,0.2-0.1,0.3c0,0.2-0.2,0.2-0.1,0.3
		c0,0.1,0,0.2-0.1,0.3c0,0,0,0,0,0c0,0.1,0.1,0.3-0.1,0.4c0,0.1,0,0.3,0,0.4c0,0.1,0,0.2-0.1,0.2c0,0,0.1,0.1,0.1,0.1
		c0,0-0.1,0.1-0.1,0.1c0,0.1,0,0.2,0,0.3c-0.1,0.1-0.1,0.2-0.1,0.3c0,0.1,0,0.2,0,0.3c-0.1,0-0.1,0-0.2,0.1c0,0.1-0.1,0.3,0.1,0.4
		c0,0,0,0,0,0c-0.1,0.1,0,0.2-0.1,0.3c-0.1,0.1-0.1,0.1-0.1,0.2c0,0.4,0,0.8,0,1.1c0,0,0.1,0.1,0.1,0.1c0,0.1-0.1,0.1-0.1,0.2
		c0,0.1-0.1,0.1-0.1,0.2c0.1,0.1,0.1,0.1,0,0.3c0,0,0.1,0.1,0.1,0.1c0,0-0.1,0.1-0.1,0.1c0,0.3,0,0.6,0,0.9c0,0.1,0,0.3-0.1,0.4
		c0,0.1,0.1,0.3-0.1,0.4c0,0,0,0.1,0,0.1C48.3,37.7,48.2,37.8,48.1,37.8z"/>
	<path class="st10" d="M59.6,33.9c0-0.1,0-0.3,0-0.5c0.2-0.2,0.1-0.4,0.1-0.6c0-0.1,0.1-0.1,0.1-0.2c0-0.2,0-0.3,0-0.5
		c0-0.2-0.1-0.4,0.1-0.5c0-0.1,0.1-0.3-0.1-0.4c0,0,0-0.1,0.1-0.1c0,0-0.1-0.1-0.1-0.1c0,0,0.1-0.1,0.1-0.1c0,0-0.1-0.1-0.1-0.1
		c0-0.1,0.1-0.1,0-0.1c-0.1,0,0-0.1,0-0.1c0.1-0.2,0.1-0.3-0.1-0.4c0-0.8,0-1.5,0-2.3c0-0.2,0.1-0.4-0.1-0.6c0-0.2,0-0.3,0-0.5
		c0,0-0.1-0.1-0.1-0.1c0-0.1,0-0.1,0-0.2c0-0.2,0.1-0.5-0.1-0.7c0,0,0-0.1,0-0.1c0-0.3,0.1-0.5-0.1-0.8c0-0.2,0-0.3,0-0.5
		c0-0.1,0.1-0.3-0.1-0.4c0-0.2,0-0.3,0-0.4c0-0.1-0.1-0.1-0.1-0.2c0-0.2,0-0.4,0-0.6c-0.2-0.2,0-0.4-0.1-0.6c0,0-0.1-0.1-0.1-0.1
		c0-0.1,0-0.2-0.1-0.3c0-0.1,0-0.2-0.1-0.3c0,0,0-0.2,0-0.2c0-0.1-0.1-0.2-0.1-0.4c0-0.1,0-0.2,0-0.4c0-0.1-0.1-0.1-0.1-0.2
		c0-0.4,0-0.8,0-1.2c0-0.1,0.1-0.2,0.1-0.4c0-0.1,0-0.3,0-0.4c0-0.1,0-0.2,0-0.4c0-0.1,0-0.3,0-0.4c0-0.1,0-0.3,0-0.4
		c0,0,0.1-0.1,0.1-0.1c0-0.1,0-0.1,0-0.2c0-0.2-0.1-0.5,0.1-0.7c0-0.1,0-0.3,0-0.4c0-0.2,0-0.3,0-0.5C59,15.2,59,15,59,14.9
		c0.1-0.1,0.1-0.2,0.1-0.4c0-0.1,0.1-0.2,0.1-0.3c0,0,0.1-0.1,0.1-0.1c0-0.1-0.1-0.3,0-0.4c0.1-0.1,0-0.2,0.1-0.3c0,0,0,0,0,0
		c0.2-0.1,0-0.3,0.1-0.3c0.1-0.1,0.1-0.1,0-0.2c0,0,0-0.1,0-0.1c0.1-0.1,0-0.2,0.1-0.2c0,0,0-0.1,0-0.1c-0.2-0.1-0.1-0.3-0.1-0.4
		c-0.1-0.1-0.2-0.2-0.2-0.4c-0.2-0.1,0-0.3-0.2-0.4c0-0.1,0-0.2,0-0.2c0.1-0.1,0.1-0.1,0-0.2c0,0-0.1-0.1-0.1-0.1c0-0.1,0-0.2,0-0.3
		c0-0.1,0-0.1-0.1-0.2c-0.1-0.1,0-0.1,0.1-0.2c0-0.1,0.1-0.3-0.1-0.4c0-0.1,0-0.2,0-0.3c-0.1-0.1-0.2-0.2-0.2-0.3
		c-0.1,0-0.1-0.1-0.1-0.2c0-0.1-0.1-0.1-0.2-0.2c-0.1-0.1-0.1-0.1-0.2-0.2c0,0,0-0.1-0.1-0.2c0,0-0.1-0.1,0-0.1
		c0.1-0.1,0.1-0.2,0-0.3c-0.1-0.1-0.1-0.2-0.1-0.3c-0.1-0.1-0.1-0.3-0.1-0.4c0.1-0.1,0.1-0.2,0.2-0.2c0.1-0.1,0.2-0.2,0.4-0.1
		c0.1,0,0.2-0.1,0.4-0.1c0.1,0,0.3,0,0.4,0c0.1,0,0.3,0,0.4,0c0.1,0,0.3,0,0.4,0c0.1-0.2,0.3-0.1,0.4-0.1c0.1,0,0.3-0.1,0.4-0.1
		c0.1,0,0.3,0,0.4,0c0.2,0,0.3,0,0.5,0c0,0.1,0.1,0.1,0.1,0.2c0.2,0,0.3,0,0.5,0c0.1,0.1,0.2,0.2,0.2,0.3C62.9,6.9,62.9,7,63,7
		c0.1,0.1,0.1,0.2,0.2,0.3c0.2,0,0.4,0,0.6,0c0.1,0.1,0.2,0.2,0.3,0.3c0,0.1,0.2,0.2,0.3,0.3c0,0.1,0,0.2,0.1,0.3
		c0.1,0.1,0,0.2,0.1,0.3c0,0,0,0.1,0,0.1c0,0.1,0,0.2,0.1,0.3c0.1,0.1,0,0.2,0.1,0.3c0,0,0,0.1,0,0.1c0,0.2-0.1,0.3,0.1,0.5
		c0,0.2,0,0.3,0,0.5c0,0.2,0,0.3,0,0.5c0,0,0,0.1,0,0.1c0.1,0.1,0.2,0.2,0,0.3c-0.1,0.1-0.1,0.1,0,0.2c0.1,0.1,0.1,0.2,0,0.3
		c0,0-0.1,0.1-0.1,0.1c0,0.1,0,0.2-0.1,0.3c-0.1,0.1,0,0.2,0,0.3c0,0.1-0.1,0.1-0.1,0.3c0,0.1,0,0.2,0,0.2c-0.1,0.1,0,0.2-0.1,0.2
		c0,0.2-0.1,0.4-0.2,0.6c-0.1,0.2-0.2,0.4-0.3,0.5c0,0,0,0.1-0.1,0.2c-0.1,0.1-0.1,0.3-0.3,0.4c-0.1,0.1-0.2,0.2-0.2,0.4
		c-0.1,0.1,0,0.2-0.2,0.2c0,0.1-0.1,0.2-0.1,0.2c0,0.1-0.2,0.2-0.1,0.3c-0.1,0.1-0.1,0.2-0.1,0.2c-0.1,0.1,0,0.3-0.1,0.4
		c0,0.1-0.1,0.2-0.1,0.4c0,0.2-0.1,0.3-0.2,0.5c0,0-0.1,0.1-0.1,0.1c0,0.1,0,0.3-0.1,0.4c0,0.1,0,0.3,0,0.4
		c-0.1,0.1-0.1,0.1-0.2,0.2c0,0,0,0,0,0c0,0.2,0.1,0.4-0.1,0.5c-0.1,0.1,0,0.3-0.1,0.5c0,0,0,0.1,0,0.1c0,0.1,0,0.1,0,0.1
		c-0.2,0.1,0,0.3-0.2,0.4c-0.1,0,0,0.1,0.1,0.2c0,0.1-0.1,0.1-0.2,0.2c0,0.4,0,0.8,0,1.1c0,0.1,0.1,0.1,0.1,0.2c0,0.1,0,0.2,0,0.4
		c0,0.1,0.1,0.3-0.1,0.4c0,0.1,0,0.2,0,0.3c0,0,0.1,0.1,0.1,0.1c-0.1,0.1-0.1,0.2-0.1,0.3c0,0.2,0,0.4,0,0.6c0,0.1-0.1,0.3,0.1,0.4
		c0,0,0,0.1,0,0.1c0,0.2-0.1,0.4,0.1,0.6c0,0.2,0,0.4,0,0.6c0,0.2,0,0.4,0,0.7c0,0,0,0.1,0,0.1c0,0,0.1,0.1,0.1,0.1
		c0,0.5,0,0.9,0,1.4c0,0.2-0.1,0.4,0.1,0.6c0,0.2,0,0.5,0,0.7c0,0,0.1,0.1,0.1,0.1c0,0-0.1,0.1-0.1,0.1c0,0.1,0.1,0.1,0.1,0.2
		c0,0.4,0,0.8,0,1.2c0,0.1,0,0.1-0.1,0.2c0,0,0,0.1,0.1,0.1c0,0.2,0,0.4,0,0.7c0,0.1,0.1,0.1,0.1,0.3c0,0.1,0,0.2,0,0.3
		c0,0.1,0,0.2,0,0.3c0,0,0,0,0,0c0,0-0.1,0.1-0.1,0.1c0,0.1,0,0.1,0,0.2c0,0.1,0,0.2,0,0.3c-0.2,0.1,0,0.3-0.1,0.3c0,0,0,0,0,0.1
		c0,0.1,0,0.3-0.1,0.4c-0.1,0.1-0.1,0.3,0,0.4c0,0.1-0.2,0.2-0.1,0.3c-0.1,0.1-0.1,0.3-0.2,0.4c0.1,0.1-0.1,0.2-0.1,0.4
		c0,0,0,0.1-0.1,0.1c-0.1,0.1-0.2,0.3-0.2,0.4c0,0,0,0,0,0c-0.3,0.2-0.4,0.6-0.6,0.9c-0.1,0.3-0.3,0.5-0.5,0.7
		c-0.1,0.1-0.1,0.1-0.2,0.2c0,0.1,0,0.1,0,0.2c-0.1,0.1-0.2,0.2-0.2,0.3c-0.1,0.1-0.1,0.3-0.3,0.4c-0.1,0.1-0.1,0.3-0.3,0.4
		c-0.1,0.2-0.3,0.4-0.4,0.6c0,0.1-0.1,0.1-0.1,0.2c0,0.1-0.1,0.1-0.1,0.2c-0.1,0.2-0.2,0.3-0.2,0.5c0,0.1-0.2,0.1-0.1,0.3
		c0,0,0,0,0,0c-0.1,0.1-0.2,0.2-0.2,0.3c-0.1,0.1-0.2,0.2-0.2,0.3c0,0.1-0.1,0.2-0.2,0.3c-0.1,0.1-0.1,0.1-0.1,0.2
		c0,0.1-0.1,0.2-0.2,0.3c-0.1,0.1-0.1,0.2-0.1,0.2c-0.1,0.1-0.1,0.2-0.2,0.3c-0.1,0.1-0.1,0.1-0.2,0.2c0,0,0,0,0,0
		c-0.3,0.3-0.3,0.3-0.6,0.3c-0.1-0.1,0-0.2-0.1-0.2c0,0,0-0.1,0-0.1c0.1-0.1,0.1-0.2,0.1-0.3c0-0.1,0.1-0.1,0.1-0.2
		c0-0.1,0.1-0.2,0.2-0.3c0.1-0.1,0.1-0.2,0.2-0.3c0.1-0.1,0.2-0.2,0.2-0.4c0.1-0.2,0.2-0.3,0.3-0.5c0.1-0.1,0.2-0.3,0.2-0.5
		c0.1-0.2,0.2-0.3,0.3-0.4c0.1-0.1,0.2-0.2,0.1-0.3c0.1,0,0.1-0.2,0.1-0.2c0.1-0.1,0-0.2,0.1-0.2c0.1,0,0.1-0.2,0.1-0.2
		c0.1-0.2,0.2-0.5,0.4-0.7c0-0.3,0.2-0.5,0.3-0.7c0.1-0.1,0-0.2,0.1-0.3c0.1-0.1,0.1-0.2,0.1-0.3c0-0.1,0.1-0.1,0.1-0.3
		c0-0.1,0.2-0.2,0.1-0.3c0.1-0.1,0.1-0.3,0.1-0.5c0.2-0.1,0-0.4,0.2-0.5c-0.1-0.2,0.1-0.4,0.1-0.6c0-0.1,0.1-0.2,0.1-0.3
		c0-0.1,0-0.2,0.1-0.3c0-0.1,0-0.3,0-0.4C59.5,34.1,59.6,34,59.6,33.9z"/>
</g>
</svg>
