<?xml version="1.0" encoding="utf-8"?>
<!-- Generator: Adobe Illustrator 21.0.0, SVG Export Plug-In . SVG Version: 6.00 Build 0)  -->
<svg version="1.1" id="레이어_1" xmlns="http://www.w3.org/2000/svg" xmlns:xlink="http://www.w3.org/1999/xlink" x="0px"
	 y="0px" viewBox="0 0 154 32.7" style="enable-background:new 0 0 154 32.7;" xml:space="preserve">
<style type="text/css">
	.st0{fill:url(#SVGID_1_);}
	.st1{fill:url(#SVGID_2_);}
	.st2{fill:url(#SVGID_3_);}
	.st3{fill:url(#SVGID_4_);}
	.st4{fill:url(#SVGID_5_);}
	.st5{fill:url(#SVGID_6_);}
	.st6{fill:url(#SVGID_7_);}
</style>
<g>
	
		<linearGradient id="SVGID_1_" gradientUnits="userSpaceOnUse" x1="148.0476" y1="604.244" x2="243.5496" y2="624.7443" gradientTransform="matrix(1 0 0 1 -97.6001 -587.3232)">
		<stop  offset="0" style="stop-color:#2E2E2E"/>
		<stop  offset="1" style="stop-color:#000000"/>
	</linearGradient>
	<path class="st0" d="M36.4,10.4c0-0.3-0.1-0.5-0.2-0.7c-0.1-0.2-0.3-0.4-0.6-0.6C35.6,9,35.5,9,35.4,8.9c-0.1-0.1-0.2-0.1-0.3-0.2
		c-0.1-0.1-0.2-0.1-0.3-0.1c-0.1,0-0.1-0.1-0.1-0.1c-0.1-0.1-0.1-0.1-0.1-0.2c0-0.1,0-0.1,0-0.2c0,0,0-0.1,0-0.1c0,0,0-0.1,0.1-0.1
		c0,0,0.1,0,0.2-0.1c0.1,0,0.2-0.1,0.3-0.1c0.2,0,0.4,0,0.7,0c0.2,0,0.5,0.1,0.8,0.1C37,7.9,37.2,8,37.5,8c0.2,0.1,0.5,0.2,0.7,0.2
		H39c0.3,0,0.5,0,0.7-0.1s0.5-0.1,0.7-0.1c0.1,0,0.2,0,0.3-0.1C40.8,8,40.9,8,41,8c0.1,0,0.2,0,0.2-0.1c0.1,0,0.2-0.1,0.3-0.1
		c0,0,0,0,0.1,0c0,0,0.1,0,0.1,0c0.1,0,0.1,0,0.1,0s0.1,0,0.1,0c0,0,0.1,0,0.2,0c0.1,0,0.2,0,0.3,0c0.1,0,0.1,0,0.2,0
		c0.1,0,0.1,0,0.2,0h0.4c0.1,0,0.2,0.1,0.4,0.1c0.1,0,0.3,0,0.4,0.1c0.4,0.1,0.7,0.2,0.9,0.4s0.3,0.3,0.3,0.5c0,0.1,0,0.2-0.1,0.3
		C45.1,9,45,9.1,44.9,9.1c-0.1,0.1-0.3,0.1-0.5,0.2c-0.2,0-0.5,0.1-0.8,0.1h-4.8v2.7c0.2,0,0.4,0,0.6-0.1c0.2,0,0.3-0.1,0.5-0.1
		c0.1,0,0.3,0,0.4-0.1c0.1,0,0.3-0.1,0.4-0.1c0.2-0.1,0.3-0.1,0.5-0.1c0.1,0,0.3-0.1,0.4-0.1c0.2,0,0.4,0,0.7,0.1
		c0.2,0,0.5,0.1,0.7,0.1c0.2,0.1,0.4,0.2,0.6,0.2c0.2,0.1,0.3,0.2,0.4,0.3h0.1c0.1,0,0.2,0.1,0.4,0.1c0.1,0,0.2,0,0.4,0
		c0.1,0,0.2,0,0.3,0s0.2,0,0.3,0c0.2,0,0.4,0.1,0.5,0.1s0.4,0,0.6,0c0.2,0,0.3,0,0.5,0s0.3,0,0.5-0.1V7.9c0,0,0,0,0-0.1
		c0,0,0-0.1,0-0.1V7.5c0-0.1,0-0.1-0.1-0.2c0-0.1-0.1-0.1-0.1-0.2c-0.2-0.2-0.3-0.3-0.4-0.4s-0.3-0.2-0.4-0.4
		c-0.1,0-0.1-0.1-0.2-0.1c-0.1,0-0.1-0.1-0.1-0.1c0,0-0.1-0.1-0.1-0.1s-0.1-0.1-0.1-0.1c-0.1,0-0.1,0-0.2-0.1s-0.1-0.1-0.2-0.1
		c-0.1,0-0.2-0.1-0.2-0.1c0-0.1-0.1-0.1-0.1-0.2c0-0.1,0-0.2,0.1-0.2c0.1-0.1,0.2-0.1,0.3-0.2l0.3,0c0.2,0,0.5,0,0.8,0.1
		c0.3,0,0.6,0.1,0.9,0.2c0.3,0.1,0.6,0.2,0.8,0.3c0.3,0.1,0.6,0.2,0.8,0.4c0.1,0.1,0.1,0.1,0.2,0.1s0.1,0.1,0.1,0.1
		c0.1,0.1,0.1,0.1,0.1,0.1s0.1,0,0.1,0.1c0,0.1,0.1,0.1,0.1,0.2c0,0.1,0,0.1,0,0.2c0,0.1,0,0.3,0,0.4c0,0.1-0.1,0.2-0.1,0.2v0
		c0,0.1-0.1,0.1-0.1,0.2s0,0.1,0,0.2v5.4c0,0.2,0,0.4,0,0.7c0,0.2,0,0.5-0.1,0.8c0,0.3-0.1,0.6-0.1,0.9c-0.1,0.3-0.1,0.5-0.2,0.8
		c-0.1,0.3-0.1,0.6-0.2,0.8c-0.1,0.2-0.1,0.5-0.2,0.7c-0.1,0.2-0.2,0.4-0.3,0.5s-0.2,0.2-0.3,0.2c-0.1,0-0.1,0-0.2-0.1
		c0,0-0.1-0.1-0.1-0.2c-0.1-0.1-0.1-0.2-0.2-0.2c-0.1-0.1-0.1-0.2-0.1-0.4c0-0.1-0.1-0.2-0.1-0.4c0-0.1,0-0.3,0-0.4
		c0-0.1-0.1-0.3-0.1-0.4s0-0.3,0-0.4v-2.5c-0.1,0-0.2,0.1-0.2,0.1c-0.1,0-0.2,0-0.2,0.1c-0.1,0-0.2,0-0.2,0.1c-0.1,0-0.1,0-0.2,0
		c-0.2,0-0.3,0.1-0.4,0.1c-0.1,0-0.2,0-0.3,0c-0.2,0-0.5,0-0.7,0c-0.2,0-0.4-0.1-0.6-0.2c-0.2-0.1-0.4-0.1-0.6-0.2
		c-0.2-0.1-0.3-0.2-0.4-0.3c-0.1,0.1-0.3,0.1-0.5,0.1c-0.2,0-0.4,0-0.6,0h-3.5v2.2c0,0.2,0,0.3,0,0.4c0,0.1,0.1,0.2,0.1,0.2
		c0,0.1,0.1,0.1,0.2,0.1c0.1,0,0.2,0,0.3,0c0.3,0,0.6,0,1.1,0c0.4,0,0.9-0.1,1.5-0.2c0.3,0,0.5-0.1,0.8-0.1c0.3-0.1,0.6-0.1,0.8-0.2
		c0.3-0.1,0.6-0.2,0.8-0.3s0.6-0.2,0.9-0.4c0.1,0,0.2,0,0.4,0c0.1,0,0.2,0,0.3,0c0,0,0.1,0.1,0.1,0.1s0.1,0.1,0.1,0.1
		c0,0.1,0,0.2,0,0.2c0,0.1-0.1,0.1-0.1,0.2c-0.1,0.1-0.1,0.2-0.2,0.2S45.7,16,45.6,16c-0.6,0.3-1.3,0.6-1.9,0.8
		c-0.6,0.2-1.3,0.4-2,0.6c-0.6,0.2-1.2,0.3-1.7,0.3c-0.5,0.1-0.9,0.1-1.3,0.1c-0.4,0-0.7,0-1-0.1c-0.3-0.1-0.5-0.2-0.7-0.4
		c-0.2-0.1-0.4-0.3-0.5-0.6c-0.1-0.3-0.1-0.6-0.1-1L36.4,10.4L36.4,10.4z M49,19.6c0.5,0,0.9,0,1.3,0s0.6-0.1,0.8-0.1
		c0,0,0.1,0,0.1-0.1c0,0,0.1,0,0.1,0c0,0,0.1,0,0.1-0.1c0,0,0.1,0,0.1-0.1c0.1,0,0.1,0,0.2,0c0.1,0,0.1,0,0.2-0.1c0.1,0,0.2,0,0.4,0
		c0.1,0,0.3,0,0.4,0.1c0.1,0.1,0.2,0.1,0.3,0.1c0.1,0,0.2,0.1,0.3,0.1c0,0,0.1,0.1,0.1,0.1c0,0,0.1,0.1,0.1,0.1c0,0,0.1,0.1,0.1,0.1
		c0,0,0.1,0,0.1,0.1c0.1,0.1,0.1,0.1,0.1,0.2c0,0.1,0.1,0.1,0.1,0.1c0,0,0,0.1,0,0.1c0,0,0,0.1-0.1,0.1c0,0.1-0.1,0.1-0.1,0.2
		c0,0.1,0,0.1,0,0.2c0,0.1-0.1,0.1-0.1,0.3c0,0.1,0,0.3-0.1,0.4c-0.1,0.5-0.1,0.9-0.1,1.3s-0.1,0.8-0.1,1.1
		c-0.1,0.4-0.1,0.7-0.1,1.1s-0.1,0.8-0.1,1.2c0.2,0,0.3,0,0.4,0c0.1,0,0.2,0.1,0.3,0.1c0.1,0,0.1,0.1,0.1,0.2c0,0.1,0.1,0.2,0.1,0.3
		c0,0.1,0,0.1,0,0.2c0,0.1,0,0.1,0,0.1c0,0-0.1,0.1-0.1,0.1c-0.1,0-0.1,0-0.2,0.1c-0.1,0-0.2,0-0.3,0.1s-0.2,0-0.4,0h-8.2
		c-0.1,0.1-0.1,0.2-0.2,0.4c-0.1,0.1-0.1,0.2-0.2,0.3c-0.1,0.1-0.2,0.2-0.4,0.2c-0.1,0.1-0.3,0.1-0.4,0.1c-0.2,0-0.3,0-0.4-0.1
		c-0.1-0.1-0.2-0.2-0.3-0.4c-0.1-0.2-0.2-0.3-0.2-0.5c-0.1-0.2-0.1-0.4-0.1-0.6c-0.1-1.7-0.2-3-0.3-4C42.1,21.7,42,21.2,42,21
		c-0.1-0.2-0.2-0.4-0.3-0.5c-0.1-0.2-0.3-0.3-0.4-0.4c-0.1-0.1-0.2-0.2-0.3-0.3c-0.1-0.1-0.1-0.2-0.1-0.2c0,0,0-0.1,0-0.1
		c0,0,0.1-0.1,0.1-0.1c0,0,0.1,0,0.2-0.1c0.1,0,0.2-0.1,0.4-0.1c0.2,0,0.4,0,0.7,0c0.2,0,0.5,0.1,0.7,0.1l1,0.3L49,19.6L49,19.6z
		 M51.1,26.2c0-0.5,0-0.9,0-1.4c0-0.5,0-0.9,0.1-1.4v-1.3c0-0.2,0-0.5,0-0.7c0-0.2,0-0.5,0-0.7c-0.3,0-0.6,0-0.9,0
		c-0.3,0-0.6,0-0.8,0h-1.6c-0.6,0-1.1,0-1.7,0c-0.6,0-1.1,0-1.7,0c0,0.5,0,0.9,0.1,1.4c0,0.5,0,0.9,0.1,1.4c0,0.5,0,0.9,0,1.4
		c0,0.5,0.1,0.9,0.1,1.3L51.1,26.2L51.1,26.2z M53.8,12.9c0,0.1,0,0.2,0,0.4c0,0.1,0,0.3,0,0.4c0,0.1,0,0.3,0,0.4s0,0.3,0,0.5
		c-0.1,0.3-0.1,0.7-0.2,0.9c-0.1,0.3-0.1,0.6-0.1,0.8c-0.1,0.3-0.1,0.6-0.2,0.8c-0.1,0.2-0.2,0.5-0.2,0.7c-0.1,0.2-0.2,0.4-0.3,0.5
		s-0.2,0.2-0.3,0.2c-0.1,0-0.1,0-0.2-0.1c-0.1,0-0.1-0.1-0.2-0.2c0-0.1-0.1-0.2-0.1-0.2c-0.1-0.1-0.1-0.2-0.1-0.4
		c-0.1-0.1-0.1-0.2-0.1-0.4c0-0.1-0.1-0.3-0.1-0.4c0-0.1-0.1-0.3-0.1-0.4c0-0.1,0-0.3,0-0.4V6.9c0,0,0,0,0-0.1c0,0,0-0.1,0-0.1V6.5
		c0-0.1,0-0.1-0.1-0.2s0-0.1-0.1-0.2C51.2,6,51,5.9,50.9,5.8c-0.1-0.1-0.3-0.2-0.4-0.4c-0.1,0-0.1-0.1-0.2-0.1
		c-0.1,0-0.1-0.1-0.2-0.1c-0.1,0-0.1-0.1-0.1-0.1S50,5.1,50,5.1c-0.1,0-0.1-0.1-0.2-0.1c-0.1-0.1-0.2-0.1-0.2-0.2
		c-0.1,0-0.2-0.1-0.2-0.1c0-0.1-0.1-0.1,0-0.2c0,0,0-0.1,0-0.1s0-0.1,0.1-0.1c0,0,0,0,0.1-0.1c0,0,0.1-0.1,0.2-0.1l0.3,0
		c0.3,0,0.5,0,0.8,0.1c0.3,0,0.6,0.1,0.9,0.2c0.3,0.1,0.6,0.2,0.8,0.3C52.7,4.7,53,4.8,53.3,5c0.1,0.1,0.1,0.1,0.2,0.1
		s0.1,0.1,0.1,0.1c0.1,0.1,0.1,0.1,0.1,0.1c0,0,0.1,0,0.1,0.1c0,0.1,0.1,0.1,0.1,0.2c0,0.1,0,0.1,0,0.2c0,0.1,0,0.3,0,0.3
		c0,0.1,0,0.2-0.1,0.2c0,0.1-0.1,0.1-0.1,0.2s0,0.1,0,0.2L53.8,12.9L53.8,12.9z"/>
	
		<linearGradient id="SVGID_2_" gradientUnits="userSpaceOnUse" x1="148.9857" y1="599.8747" x2="244.4877" y2="620.3751" gradientTransform="matrix(1 0 0 1 -97.6001 -587.3232)">
		<stop  offset="0" style="stop-color:#2E2E2E"/>
		<stop  offset="1" style="stop-color:#000000"/>
	</linearGradient>
	<path class="st1" d="M62.3,15.6c1.5,0,2.9,0,4.1,0c1.2,0,2.3,0,3.2-0.1c0.9,0,1.6,0,2.2,0c0.6,0,1-0.1,1.2-0.1c0.2,0,0.4,0,0.6-0.1
		c0.2,0,0.4-0.1,0.6-0.1c0.1,0,0.3,0,0.4-0.1c0.1,0,0.3-0.1,0.4-0.1c0.1-0.1,0.3-0.1,0.4-0.1c0.1,0,0.3-0.1,0.4-0.1
		c0.1,0,0.1,0,0.2,0c0.1,0,0.1,0,0.2,0c0,0,0.1,0,0.1,0c0.1,0,0.1,0,0.2,0c0.5,0,0.9,0,1.3,0.1c0.4,0.1,0.7,0.2,1,0.3
		c0.3,0.2,0.5,0.3,0.6,0.4c0.1,0.1,0.2,0.3,0.2,0.4c0,0.1,0,0.3-0.1,0.3c-0.1,0.1-0.2,0.1-0.3,0.2c-0.1,0.1-0.3,0.1-0.5,0.1
		c-0.2,0-0.4,0-0.6,0l-10.8,0.1c-0.6,0-1.1,0-1.7,0.1c-0.5,0-1,0.1-1.5,0.1c-0.1,0-0.3,0-0.4,0c-0.1,0-0.2,0-0.3,0
		c-0.1,0-0.2,0-0.3,0c-0.1,0-0.2,0-0.3,0c-0.1,0-0.2,0-0.3,0.1s-0.2,0-0.3,0c-0.1,0-0.2,0-0.3,0c-0.1,0-0.2,0-0.2,0
		c-0.1,0-0.2,0-0.2,0c-0.1,0-0.1,0-0.2,0c-0.1,0-0.1,0-0.2,0c-0.1,0-0.1,0-0.2,0c-0.1,0-0.2,0.1-0.4,0.1s-0.2,0-0.3,0
		c-0.2,0-0.4,0-0.6,0c-0.2,0-0.3-0.1-0.5-0.1c-0.2,0-0.3,0-0.5-0.1S58.5,17,58.4,17c-0.1,0-0.2-0.1-0.2-0.1c-0.1,0-0.2-0.1-0.2-0.1
		c-0.1,0-0.2-0.1-0.2-0.1c-0.1-0.1-0.2-0.1-0.2-0.2c-0.1,0-0.2-0.1-0.2-0.1c-0.1-0.1-0.1-0.1-0.2-0.2C57,16.1,57,16.1,57,16
		s0-0.1,0-0.1c0-0.1,0-0.1,0-0.2c0-0.1,0.1-0.1,0.2-0.2c0.1,0,0.1-0.1,0.2-0.1c0.1,0,0.2,0,0.3,0c0.1,0,0.2,0,0.4,0
		c0.1,0,0.3,0,0.5,0c0.2,0,0.3,0.1,0.5,0.1c0.2,0,0.4,0,0.7,0c0.2,0,0.4,0.1,0.6,0.1s0.4,0,0.7,0c0.2,0,0.4,0,0.6,0
		C61.8,15.6,62,15.6,62.3,15.6z M68.5,13.4c-0.5,0-0.9,0-1.3,0.1c-0.4,0-0.7,0-1,0c-0.2,0-0.3,0-0.5,0c-0.1,0-0.3,0-0.4,0
		c-0.1,0-0.2,0-0.3,0c-0.1,0-0.2,0-0.2,0c-0.1,0-0.1,0-0.2,0c-0.1,0-0.1,0-0.2,0h-0.2c-0.1,0-0.2,0-0.3,0.1c-0.1,0-0.1,0-0.2,0.1
		c-0.1,0-0.3,0.1-0.4,0.1c-0.1,0-0.2,0-0.2,0c-0.1,0-0.2,0.1-0.3,0.1c-0.1,0-0.2,0-0.3,0c-0.2,0-0.4,0-0.6,0c-0.2,0-0.4-0.1-0.5-0.1
		c-0.2-0.1-0.3-0.1-0.5-0.2c-0.1-0.1-0.3-0.1-0.4-0.2c-0.2-0.1-0.3-0.1-0.4-0.2c-0.1-0.1-0.2-0.2-0.2-0.2c-0.1-0.1-0.1-0.1-0.2-0.2
		c0-0.1,0-0.1,0-0.2c0-0.1,0.1-0.2,0.2-0.3c0.1-0.1,0.3-0.1,0.5-0.1c0.2,0,0.4,0.1,0.5,0.1c0.2,0,0.3,0,0.5,0c0.1,0,0.1,0,0.2,0
		c0.1,0,0.2,0,0.2,0c0.1,0,0.2,0,0.2,0c0.1,0,0.1,0,0.2,0c0.2,0,0.4,0.1,0.6,0.1c0.2,0,0.4,0,0.6,0h1.1c0.2,0,0.4,0,0.7,0
		c0.3,0,0.5,0,0.9,0c0.3,0,0.6,0,0.9,0s0.6,0,0.9,0h0.4c0.1,0,0.1,0,0.2,0s0.1,0,0.2,0h0.8l1-2.9c0-0.1,0-0.1,0-0.2
		c0-0.1,0-0.2-0.1-0.3c-0.1-0.1-0.1-0.1-0.2-0.2s-0.2-0.2-0.2-0.3c-0.1,0-0.1,0-0.2-0.1c-0.1,0-0.1-0.1-0.1-0.1
		c-0.1,0-0.1,0-0.1-0.1c0,0,0,0-0.1-0.1c-0.1,0-0.1,0-0.1,0c0,0,0,0-0.1-0.1c-0.1-0.1-0.2-0.2-0.2-0.3s-0.1-0.1,0-0.2
		c0-0.1,0-0.1,0-0.1c0,0,0-0.1,0.1-0.1c0,0,0.1,0,0.2-0.1c0.1,0,0.2,0,0.4,0c0.2,0,0.4,0,0.7,0.1c0.2,0.1,0.5,0.1,0.8,0.2
		c0.1,0.1,0.1,0.1,0.2,0.1c0.1,0,0.1,0.1,0.2,0.1c0.1,0,0.1,0.1,0.2,0.1c0.1,0,0.1,0,0.2,0.1c0.1,0.1,0.2,0.1,0.2,0.1
		c0.1,0,0.1,0.1,0.2,0.1c0.2,0.1,0.4,0.3,0.5,0.4c0.1,0.1,0.1,0.3,0.1,0.4c0,0,0,0.1,0,0.1c0,0,0,0,0,0.1c0,0,0,0,0,0.1s0,0.1,0,0.1
		c0,0.1-0.1,0.1-0.1,0.1s0,0.1,0,0.1c0,0,0,0.1-0.1,0.1s0,0.1,0,0.1c-0.1,0.2-0.2,0.4-0.3,0.6c-0.1,0.2-0.2,0.4-0.2,0.6
		c-0.1,0.1-0.1,0.2-0.1,0.4c0,0.1-0.1,0.2-0.1,0.3c-0.1,0.1-0.1,0.2-0.1,0.3c0,0.1-0.1,0.2-0.1,0.3c0.1,0,0.1,0,0.2,0
		c0.1,0,0.1,0,0.2-0.1c0,0,0.1,0,0.1,0c0.1,0,0.1,0,0.2-0.1c0.3-0.1,0.5-0.2,0.7-0.2c0.2-0.1,0.4-0.1,0.6-0.1c0.2,0,0.5,0,0.8,0.1
		c0.3,0,0.5,0.1,0.8,0.1c0.4,0.1,0.7,0.2,0.9,0.4c0.2,0.1,0.3,0.3,0.3,0.4c0,0.1,0,0.2-0.1,0.2c-0.1,0.1-0.2,0.1-0.3,0.2
		c-0.1,0.1-0.3,0.1-0.5,0.2c-0.2,0-0.4,0.1-0.6,0.1c-0.4,0-0.8,0-1.2,0c-0.4,0-0.8,0-1.3,0c-0.2,0-0.5,0-0.7,0c-0.2,0-0.4,0-0.6,0
		h-1.1L68.5,13.4z M68.1,6.7c-0.1,0-0.3,0.1-0.4,0.1c-0.1,0-0.2,0-0.3,0c-0.1,0-0.2,0-0.3,0.1s-0.2,0-0.3,0c-0.1,0-0.2,0.1-0.4,0.1
		S66.2,7,66.1,7c-0.1,0-0.3,0-0.4,0.1c-0.1,0-0.3,0-0.4,0.1c-0.2,0.1-0.3,0.1-0.4,0.1c-0.1,0-0.2,0-0.3,0c-0.1,0-0.2,0.1-0.3,0.1
		c-0.1,0-0.2,0-0.3,0c-0.2,0-0.4,0-0.5,0c-0.2,0-0.4-0.1-0.5-0.1c-0.2-0.1-0.4-0.1-0.6-0.2c-0.2-0.1-0.3-0.1-0.5-0.2
		c-0.2-0.1-0.4-0.1-0.5-0.2S61,6.4,60.9,6.3c-0.1-0.1-0.2-0.1-0.2-0.2C60.6,6,60.6,6,60.6,5.9c0-0.1,0.1-0.2,0.2-0.3
		s0.3-0.1,0.5-0.1c0.3,0.1,0.5,0.1,0.8,0.1c0.3,0,0.5,0,0.8,0.1c0.3,0.1,0.5,0.1,0.8,0.1c0.3,0,0.5,0,0.8,0c0.5,0,1,0,1.4,0
		s0.8,0,1.1-0.1c0.3,0,0.6,0,0.9,0s0.6,0,0.9,0c0.4,0,0.7,0,1-0.1c0.3,0,0.6-0.1,0.9-0.1c0.2,0,0.5-0.1,0.7-0.1
		c0.2-0.1,0.4-0.1,0.5-0.2c0.1,0,0.2-0.1,0.4-0.1c0.1,0,0.3-0.1,0.4-0.1c0.1,0,0.2,0,0.3-0.1c0.1,0,0.2,0,0.3,0c0.2,0,0.4,0,0.7,0.1
		s0.5,0.1,0.8,0.1c0.4,0.1,0.7,0.2,0.9,0.4C75.9,5.6,76,5.7,76,5.9c0,0.2-0.1,0.4-0.4,0.5c-0.3,0.1-0.7,0.2-1.2,0.2l-4.7,0.1
		L68.1,6.7z M72.3,20h-1.1c-0.2,0-0.3,0-0.4,0c-0.1,0-0.3,0-0.4,0h-0.5c-0.1,0-0.2,0-0.3,0c-0.1,0-0.2,0-0.2,0l-0.9,0
		c-0.2,0-0.3,0.1-0.5,0.1c-0.2,0-0.4,0-0.6,0c0,0-0.1,0.1-0.2,0.1s-0.2,0-0.2,0c-0.1,0-0.1,0-0.1,0c0,0-0.1,0-0.1,0h-0.2
		c-0.2,0-0.3,0.1-0.5,0.1c-0.1,0-0.3,0-0.4,0c-0.2,0-0.3,0-0.4,0.1c-0.1,0-0.2,0-0.3,0c-0.1,0-0.3,0.1-0.4,0.1c-0.2,0-0.3,0-0.5,0
		c-0.2,0-0.4,0-0.6,0c-0.2,0-0.4-0.1-0.5-0.1c-0.2-0.1-0.3-0.1-0.5-0.2c-0.1-0.1-0.3-0.1-0.4-0.2c-0.1-0.1-0.2-0.1-0.3-0.2
		s-0.2-0.1-0.3-0.2c-0.1-0.1-0.1-0.1-0.2-0.1s-0.1-0.1-0.1-0.1c0-0.1,0.1-0.2,0.2-0.3c0.1-0.1,0.3-0.1,0.5-0.1
		c0.3,0.1,0.7,0.1,1,0.1s0.7,0,1,0c0.3,0,0.7,0.1,1,0.1s0.7,0,1,0h1.2c0.2,0,0.4,0,0.6,0c0.2,0,0.4,0,0.5-0.1c0.1,0,0.3,0,0.4,0
		c0.2,0,0.3,0,0.5-0.1c0.2,0,0.4,0,0.6,0c0.2,0,0.4,0,0.7-0.1c0.2,0,0.5,0,0.7,0c0.2,0,0.5-0.1,0.7-0.1c0.2,0,0.4,0,0.7-0.1
		s0.4-0.1,0.7-0.1c0.2,0,0.3-0.1,0.4-0.1c0.1,0,0.3,0,0.4,0c0.1,0,0.2,0.1,0.3,0.1c0.1,0,0.2,0.1,0.3,0.1c0,0.1,0.1,0.2,0.1,0.2
		c0,0.1,0.1,0.2,0.1,0.3c0,0.1,0,0.2-0.1,0.3c0,0.1-0.1,0.2-0.1,0.3c0,0.1-0.1,0.1-0.1,0.2c0,0.1-0.1,0.2-0.1,0.4
		c0,0.1,0,0.2-0.1,0.3c0,0.1,0,0.2-0.1,0.3c0,0.1,0,0.2-0.1,0.3c0,0.1,0,0.2,0,0.2c-0.1,0.2-0.1,0.4-0.1,0.5c0,0.2-0.1,0.4-0.1,0.6
		c0.3,0.1,0.6,0.1,0.7,0.2c0.2,0.1,0.2,0.2,0.2,0.4c0,0.1-0.1,0.2-0.2,0.3s-0.3,0.1-0.6,0.2c-0.1,0-0.4,0.1-0.7,0.1
		c-0.3,0-0.7,0-1.3,0h-7.2v2.2c0,0.2,0,0.3,0.1,0.4c0.1,0.1,0.2,0.1,0.3,0.1h4.1c0.5,0,1,0,1.4-0.1c0.4-0.1,0.7-0.1,0.9-0.2
		c0.2-0.1,0.5-0.2,0.7-0.2c0.2-0.1,0.5-0.1,0.7-0.1c0.1,0,0.2,0,0.4,0c0.1,0,0.2,0,0.3,0c0.1,0,0.2,0,0.3,0c0.1,0,0.2,0.1,0.4,0.1
		c0.4,0.1,0.7,0.2,0.9,0.4c0.2,0.1,0.3,0.3,0.3,0.5c0,0.1,0,0.2-0.1,0.3c-0.1,0.1-0.1,0.1-0.2,0.2c-0.1,0.1-0.3,0.1-0.5,0.1
		c-0.2,0-0.5,0.1-0.8,0.1h-9.6c-0.2,0-0.5,0-0.7-0.1c-0.2-0.1-0.4-0.2-0.6-0.4c-0.2-0.2-0.3-0.3-0.4-0.5c-0.1-0.2-0.1-0.4-0.1-0.7
		v-1.3c0,0,0,0,0-0.1c0,0,0-0.1,0-0.1v-0.2c0-0.1,0-0.1-0.1-0.2c0-0.1,0-0.1,0-0.2c0-0.1-0.1-0.2-0.2-0.3c-0.1-0.1-0.2-0.2-0.3-0.2
		c-0.1,0-0.2-0.1-0.3-0.1c-0.1-0.1-0.2-0.1-0.3-0.2c-0.1-0.1-0.2-0.1-0.3-0.1c-0.1,0-0.1-0.1-0.2-0.1c-0.1-0.1-0.1-0.1-0.2-0.2
		s0-0.1,0-0.2c0,0,0-0.1,0-0.1s0.1-0.1,0.1-0.1c0,0,0.1,0,0.2-0.1c0.1,0,0.2-0.1,0.4-0.1c0.2,0,0.4,0,0.7,0.1c0.3,0,0.5,0.1,0.8,0.1
		c0.1,0,0.3,0.1,0.4,0.1c0.1,0,0.2,0,0.4,0.1c0.1,0,0.2,0.1,0.3,0.1c0.1,0,0.2,0.1,0.4,0.1c0.6,0,1.3,0,1.9,0c0.6,0,1.2,0,1.8,0
		c0.6,0,1.2,0,1.8,0c0.6,0,1.3,0,1.9,0L72.3,20z M66.3,9.5c0,0.1,0.1,0.2,0.1,0.2s0.1,0.2,0.1,0.2c0,0.1,0.1,0.1,0.1,0.2
		c0,0.1,0.1,0.1,0.1,0.2c0.1,0.2,0.1,0.3,0.1,0.4c0,0.1,0,0.2,0,0.3c0,0.1,0,0.2,0,0.2s0,0.1-0.1,0.2c-0.1,0.1-0.1,0.2-0.2,0.2
		s-0.1,0.1-0.2,0.1c-0.1,0.1-0.2,0.1-0.3,0.1C66,12,65.9,12,65.8,12c-0.1,0-0.3,0-0.4,0c-0.1,0-0.2,0-0.2-0.1c-0.1,0-0.2,0-0.3-0.1
		c-0.1,0-0.2-0.1-0.2-0.2c-0.1-0.1-0.2-0.1-0.2-0.2c-0.1-0.1-0.1-0.2-0.1-0.4c0-0.2,0-0.4,0-0.7c0-0.2,0-0.4,0-0.6
		c0-0.2-0.1-0.4-0.2-0.6C64.1,9,64,8.8,63.9,8.6c-0.1-0.1-0.1-0.2-0.2-0.3c-0.1-0.1-0.1-0.2-0.2-0.3c-0.1-0.1-0.1-0.1-0.1-0.2
		c0-0.1,0-0.1,0.1-0.2c0,0,0.1,0,0.1,0c0.1,0,0.2,0,0.3,0c0.1,0,0.1,0,0.2,0.1c0.1,0,0.1,0.1,0.2,0.1c0.1,0,0.2,0.1,0.3,0.1
		S64.8,8,64.9,8c0.2,0.1,0.3,0.2,0.5,0.4c0.1,0.1,0.3,0.2,0.4,0.3C65.9,8.9,65.9,9,66,9.1C66.1,9.3,66.2,9.4,66.3,9.5z"/>
	
		<linearGradient id="SVGID_3_" gradientUnits="userSpaceOnUse" x1="150.0408" y1="594.9656" x2="245.5347" y2="615.4644" gradientTransform="matrix(1 0 0 1 -97.6001 -587.3232)">
		<stop  offset="0" style="stop-color:#2E2E2E"/>
		<stop  offset="1" style="stop-color:#000000"/>
	</linearGradient>
	<path class="st2" d="M85.6,22.5c1.5,0,2.9,0,4.1,0s2.3,0,3.2,0c0.9,0,1.6,0,2.2,0c0.6,0,1-0.1,1.2-0.1c0.2,0,0.4,0,0.6-0.1
		s0.4-0.1,0.6-0.1c0.1,0,0.3,0,0.4-0.1c0.1,0,0.3-0.1,0.4-0.1c0.1-0.1,0.3-0.1,0.4-0.1c0.1,0,0.3-0.1,0.4-0.1c0.1,0,0.1,0,0.2,0
		c0.1,0,0.1,0,0.2,0c0,0,0.1,0,0.1,0c0.1,0,0.1,0,0.2,0c0.5,0,0.9,0,1.3,0.1s0.7,0.2,1,0.3c0.3,0.2,0.5,0.3,0.6,0.4s0.2,0.3,0.2,0.4
		c0,0.1,0,0.3-0.1,0.3c-0.1,0.1-0.2,0.1-0.3,0.2c-0.1,0.1-0.3,0.1-0.5,0.1c-0.2,0-0.4,0-0.6,0l-10.8,0.1c-0.6,0-1.1,0-1.7,0
		s-1,0.1-1.5,0.1c-0.1,0-0.3,0-0.4,0c-0.1,0-0.2,0-0.3,0c-0.1,0-0.2,0-0.3,0c-0.1,0-0.2,0-0.3,0c-0.1,0-0.2,0-0.3,0.1
		c-0.1,0-0.2,0-0.3,0c-0.1,0-0.2,0-0.3,0c-0.1,0-0.2,0-0.2,0c-0.1,0-0.2,0-0.2,0c-0.1,0-0.1,0-0.2,0c-0.1,0-0.1,0-0.2,0
		c-0.1,0-0.1,0-0.2,0c-0.1,0-0.2,0.1-0.4,0.1c-0.1,0-0.2,0-0.3,0c-0.2,0-0.4,0-0.6,0c-0.2,0-0.3-0.1-0.5-0.1c-0.2,0-0.3-0.1-0.5-0.1
		c-0.1-0.1-0.3-0.1-0.4-0.2c-0.1,0-0.2,0-0.2-0.1s-0.2-0.1-0.2-0.1c-0.1,0-0.2-0.1-0.2-0.1s-0.2-0.1-0.2-0.2c-0.1,0-0.2-0.1-0.2-0.1
		c-0.1-0.1-0.1-0.1-0.2-0.2c-0.1-0.1-0.1-0.1-0.1-0.2c0-0.1,0-0.1,0-0.2c0-0.1,0-0.1,0-0.2c0-0.1,0.1-0.1,0.2-0.2
		c0.1,0,0.1-0.1,0.2-0.1c0.1,0,0.2,0,0.3,0c0.1,0,0.2,0,0.4,0c0.1,0,0.3,0,0.5,0c0.1,0,0.2,0,0.2,0c0.1,0,0.2,0,0.3,0
		c0.1,0,0.2,0,0.3,0c0.1,0,0.2,0,0.4,0c0.2,0,0.4,0,0.6,0s0.4,0,0.7,0c0.2,0,0.4,0,0.6,0C85.1,22.5,85.3,22.5,85.6,22.5z M87.5,14.9
		c-0.7,0.5-1.5,1-2.2,1.4c-0.7,0.4-1.4,0.7-2.1,1c-0.3,0.1-0.6,0.2-0.8,0.3c-0.2,0.1-0.4,0.1-0.6,0.1c-0.2,0-0.3,0-0.4,0
		c-0.1,0-0.2,0-0.2-0.1c-0.1,0-0.1-0.1-0.1-0.1c0-0.1,0.1-0.1,0.1-0.2c0-0.1,0.1-0.2,0.3-0.3s0.3-0.2,0.5-0.3
		c0.1-0.1,0.2-0.1,0.3-0.2c0.1-0.1,0.2-0.1,0.4-0.2c0.1-0.1,0.2-0.1,0.3-0.2c0.1-0.1,0.2-0.1,0.3-0.2c0.2-0.1,0.4-0.3,0.7-0.4
		s0.4-0.3,0.7-0.4c0.2-0.1,0.4-0.3,0.7-0.4c0.2-0.2,0.4-0.3,0.7-0.5c0.2-0.2,0.4-0.3,0.6-0.5c0.2-0.2,0.5-0.4,0.8-0.7
		c0.9-0.8,1.6-1.6,2.2-2.4s1-1.6,1.2-2.4c0-0.2,0-0.3,0-0.4c0-0.1,0-0.2,0-0.3c-0.1-0.1-0.2-0.3-0.3-0.4c-0.1-0.1-0.3-0.3-0.5-0.5
		c-0.2-0.2-0.4-0.3-0.5-0.4c-0.1-0.1,0-0.2,0.1-0.3c0.1-0.1,0.3-0.1,0.5-0.1c0.2,0,0.6,0,1,0.1C91,6,91.2,6,91.4,6.1
		c0.2,0.1,0.4,0.1,0.7,0.2c0.2,0.1,0.4,0.2,0.6,0.4c0.2,0.1,0.4,0.3,0.5,0.4c0.1,0.1,0.1,0.2,0.2,0.2c0.1,0.1,0.1,0.2,0.2,0.2
		c0,0.1,0.1,0.2,0.1,0.2c0,0.1,0,0.1,0,0.2c0,0.2,0,0.3-0.1,0.5c-0.1,0.2-0.2,0.4-0.4,0.6c-0.1,0.1-0.1,0.2-0.2,0.2
		s-0.1,0.1-0.1,0.2c-0.1,0.1-0.1,0.2-0.2,0.2c-0.1,0.1-0.1,0.1-0.1,0.2c0,0,0,0.1-0.1,0.1c0,0,0,0-0.1,0.1c0,0,0,0-0.1,0.1
		c0,0,0,0,0,0.1c-0.1,0.1-0.1,0.1-0.1,0.2c0,0.1-0.1,0.1-0.1,0.2l0.5,0.3c0.1,0.1,0.1,0.1,0.2,0.2c0.1,0.1,0.1,0.1,0.2,0.1
		c0.1,0.1,0.1,0.1,0.2,0.1s0.2,0.1,0.2,0.1c0.1,0.1,0.2,0.1,0.3,0.2c0.1,0.1,0.2,0.1,0.3,0.2c0.2,0.1,0.4,0.3,0.6,0.4
		c0.2,0.1,0.5,0.3,0.8,0.5c0.1,0.1,0.3,0.2,0.4,0.2s0.3,0.1,0.4,0.2c0.1,0.1,0.2,0.1,0.3,0.2c0.1,0.1,0.2,0.1,0.2,0.1
		c0.1,0.1,0.1,0.1,0.2,0.1c0.1,0,0.2,0,0.3,0.1c0.1,0.1,0.2,0.1,0.3,0.1c0.1,0,0.2,0.1,0.3,0.1c0.3,0.1,0.6,0.2,0.8,0.3
		c0.2,0.1,0.5,0.2,0.7,0.3c0.2,0.1,0.3,0.3,0.5,0.5c0.2,0.2,0.4,0.4,0.6,0.6c0.3,0.5,0.4,0.8,0.4,1.1c0,0.3-0.3,0.4-0.7,0.4
		c-0.3,0-0.6,0-0.9-0.1s-0.6-0.3-0.9-0.5c-0.2-0.1-0.5-0.3-0.7-0.4c-0.3-0.2-0.5-0.4-0.8-0.6c-0.3-0.2-0.6-0.4-0.9-0.6
		c-0.3-0.2-0.7-0.4-1.1-0.7c-0.3-0.2-0.6-0.4-0.9-0.6c-0.3-0.2-0.6-0.4-0.9-0.6c-0.2-0.1-0.3-0.2-0.5-0.3c-0.1-0.1-0.3-0.2-0.5-0.3
		l-0.8-0.6c-0.3,0.3-0.6,0.6-0.8,0.9s-0.6,0.6-0.9,0.8c-0.3,0.3-0.7,0.6-1,0.8C88.2,14.4,87.9,14.7,87.5,14.9z"/>
	
		<linearGradient id="SVGID_4_" gradientUnits="userSpaceOnUse" x1="151.2893" y1="589.1315" x2="246.7913" y2="609.632" gradientTransform="matrix(1 0 0 1 -97.6001 -587.3232)">
		<stop  offset="0" style="stop-color:#2E2E2E"/>
		<stop  offset="1" style="stop-color:#000000"/>
	</linearGradient>
	<path class="st3" d="M106.2,11.1c0-0.2,0-0.3-0.1-0.4c0-0.1-0.1-0.2-0.1-0.4c-0.1-0.1-0.2-0.2-0.3-0.3s-0.2-0.2-0.3-0.2
		c-0.1-0.1-0.2-0.1-0.3-0.2c-0.1-0.1-0.2-0.1-0.2-0.2c-0.1,0-0.2-0.1-0.2-0.1c-0.1-0.1-0.1-0.1-0.2-0.2c-0.1-0.1-0.1-0.1-0.2-0.2
		c0-0.1,0-0.1,0-0.2c0,0,0-0.1,0-0.1c0,0,0.1-0.1,0.1-0.1c0,0,0.1,0,0.2-0.1c0.1,0,0.2-0.1,0.3-0.1h0.8c0.1,0,0.1,0,0.2,0
		c0.1,0,0.1,0,0.2,0c0.1,0,0.1,0,0.2,0c0.1,0,0.2,0,0.3,0c0.3,0.1,0.6,0.1,0.8,0.2c0.2,0.1,0.5,0.2,0.7,0.2h1.3c0.2,0,0.4,0,0.6-0.1
		c0.2,0,0.4-0.1,0.6-0.1c0.2,0,0.3-0.1,0.5-0.1c0.2,0,0.3-0.1,0.5-0.1c0.1,0,0.1,0,0.2-0.1c0.1,0,0.2-0.1,0.2-0.1c0.1,0,0.1,0,0.2,0
		c0.1,0,0.2,0,0.3,0c0.1,0,0.1,0,0.2,0c0.1,0,0.1,0,0.2,0h0.4c0.1,0,0.2,0.1,0.4,0.1c0.1,0,0.3,0,0.4,0.1c0.4,0.1,0.7,0.2,0.9,0.4
		c0.2,0.1,0.3,0.3,0.3,0.5c0,0.1,0,0.2-0.1,0.3c-0.1,0.1-0.1,0.1-0.2,0.2c-0.1,0.1-0.3,0.1-0.5,0.2c-0.2,0-0.5,0.1-0.8,0.1h-4.9v4
		c0.2,0,0.4,0,0.6,0c0.2,0,0.4-0.1,0.5-0.1c0.2,0,0.3-0.1,0.4-0.1s0.3-0.1,0.4-0.1c0.2-0.1,0.3-0.1,0.5-0.2c0.1,0,0.3-0.1,0.4-0.1
		c0.2,0,0.4,0,0.7,0.1s0.5,0.1,0.7,0.1c0.3,0.1,0.6,0.2,0.8,0.3c0.2,0.1,0.3,0.3,0.3,0.5c0.1,0,0.2,0.1,0.4,0.1c0.1,0,0.2,0,0.3,0
		c0.1,0,0.2,0,0.3,0c0.1,0,0.2,0,0.3,0c0.2,0,0.3,0.1,0.5,0.1c0.2,0,0.3,0,0.5,0c0.2,0,0.3,0,0.5,0c0.2,0,0.3,0,0.5,0V7.9
		c0,0,0,0,0-0.1c0,0,0-0.1,0-0.1V7.5c0-0.1,0-0.1-0.1-0.2s0-0.1-0.1-0.2c-0.2-0.2-0.3-0.3-0.5-0.4c-0.1-0.1-0.3-0.2-0.4-0.4
		c-0.1,0-0.1-0.1-0.2-0.1c-0.1,0-0.1-0.1-0.1-0.1c-0.1,0-0.1-0.1-0.1-0.1c0,0-0.1-0.1-0.1-0.1c-0.1,0-0.2,0-0.2-0.1
		c-0.1,0-0.1-0.1-0.2-0.1c-0.1,0-0.1-0.1-0.2-0.1c0-0.1,0-0.1,0-0.2s0-0.2,0.1-0.2c0.1-0.1,0.1-0.1,0.3-0.2l0.3,0
		c0.2,0,0.5,0,0.8,0.1c0.3,0,0.6,0.1,0.9,0.2c0.3,0.1,0.6,0.2,0.8,0.3c0.3,0.1,0.6,0.2,0.8,0.4c0.1,0.1,0.1,0.1,0.2,0.1
		c0.1,0,0.1,0.1,0.1,0.1c0,0.1,0.1,0.1,0.1,0.1c0,0,0.1,0,0.1,0.1c0,0.1,0,0.1,0.1,0.2c0,0.1,0,0.1,0,0.2c0,0.1,0,0.3,0,0.3
		s0,0.2-0.1,0.2c0,0.1,0,0.1,0,0.2c0,0.1,0,0.1,0,0.2v13.9c0,0.3,0,0.5,0,0.8c0,0.3,0,0.6-0.1,0.9c-0.1,0.3-0.1,0.7-0.1,1
		s-0.1,0.6-0.1,0.8c-0.1,0.3-0.2,0.5-0.2,0.8c-0.1,0.3-0.1,0.5-0.2,0.7c-0.1,0.2-0.2,0.4-0.3,0.5c-0.1,0.1-0.2,0.2-0.3,0.2
		c-0.1,0-0.1,0-0.2-0.1c-0.1,0-0.1-0.1-0.2-0.2c-0.1-0.1-0.1-0.2-0.2-0.3c0-0.1-0.1-0.2-0.1-0.3c-0.1-0.1-0.1-0.2-0.1-0.4
		c0-0.1,0-0.3,0-0.4c0-0.1-0.1-0.3-0.1-0.4c0-0.1,0-0.3,0-0.4v-9c-0.1,0-0.2,0-0.2,0.1c-0.1,0-0.1,0-0.2,0c-0.1,0-0.1,0-0.2,0
		c-0.1,0-0.1,0-0.2,0c-0.2,0-0.3,0.1-0.4,0.1c-0.1,0-0.2,0-0.3,0c-0.2,0-0.3,0-0.5,0c-0.2,0-0.3,0-0.4-0.1c-0.2,0-0.3-0.1-0.4-0.1
		c-0.1-0.1-0.2-0.1-0.3-0.2c-0.1-0.1-0.2-0.1-0.3-0.2c-0.1-0.1-0.2-0.1-0.3-0.2c-0.1-0.1-0.2-0.1-0.2-0.2c-0.1-0.1-0.1-0.1-0.1-0.2
		c-0.1,0-0.1,0.1-0.2,0.1c-0.1,0-0.1,0-0.2,0c-0.1,0-0.2,0-0.3,0c-0.1,0-0.2,0-0.3,0h-3.6c0,0.4,0,0.7,0,1.1s0,0.7,0,1v2
		c0,0.3,0,0.5,0.1,0.6c0.1,0.1,0.2,0.2,0.4,0.1c0.2,0,0.3,0,0.5,0s0.4,0,0.6-0.1c0.2,0,0.4,0,0.7-0.1c0.3,0,0.6-0.1,0.9-0.1
		c0.3,0,0.6-0.1,0.9-0.1c0.3-0.1,0.6-0.1,0.9-0.2c0.3-0.1,0.6-0.2,0.8-0.3c0.3-0.1,0.6-0.2,0.9-0.4c0.1,0,0.2,0,0.4,0
		c0.1,0,0.2,0,0.3,0c0.1,0,0.1,0.1,0.1,0.1c0,0.1,0.1,0.1,0.1,0.2c0,0.1,0,0.1,0,0.2c0,0.1-0.1,0.1-0.1,0.2
		c-0.1,0.1-0.1,0.2-0.2,0.2c-0.1,0.1-0.2,0.1-0.3,0.2c-0.6,0.3-1.3,0.6-2,0.8c-0.7,0.2-1.4,0.4-2.1,0.6c-0.7,0.2-1.3,0.3-1.8,0.3
		c-0.5,0.1-0.9,0.1-1.3,0.1c-0.4,0-0.8,0-1.1-0.1c-0.3-0.1-0.5-0.2-0.7-0.3c-0.2-0.1-0.3-0.3-0.4-0.6c-0.1-0.3-0.1-0.6-0.1-1
		L106.2,11.1z M123.7,22.9c0,0.1,0,0.3,0,0.4c0,0.1,0,0.3,0,0.4c0,0.2,0,0.3,0,0.5c0,0.2,0,0.3,0,0.5c-0.1,0.4-0.1,0.7-0.2,1
		s-0.1,0.6-0.1,0.8c-0.1,0.3-0.1,0.5-0.2,0.8c-0.1,0.3-0.2,0.5-0.2,0.7c-0.1,0.2-0.2,0.4-0.3,0.5s-0.2,0.2-0.3,0.2
		c-0.1,0-0.1,0-0.2-0.1c-0.1,0-0.1-0.1-0.2-0.2c0-0.1-0.1-0.2-0.1-0.2c-0.1-0.1-0.1-0.2-0.1-0.3c-0.1-0.1-0.1-0.3-0.1-0.4
		c0-0.1-0.1-0.3-0.1-0.4c0-0.2-0.1-0.3-0.1-0.4c0-0.1,0-0.3,0-0.4V6.9c0,0,0,0,0-0.1c0,0,0-0.1,0-0.1V6.5c0-0.1,0-0.1-0.1-0.2
		s0-0.1-0.1-0.2c-0.2-0.2-0.3-0.3-0.5-0.4c-0.1-0.1-0.3-0.2-0.4-0.4c-0.1,0-0.1-0.1-0.2-0.1c-0.1,0-0.1-0.1-0.2-0.1
		c-0.1,0-0.1-0.1-0.1-0.1s-0.1,0-0.1-0.1c-0.1,0-0.1-0.1-0.2-0.1c-0.1-0.1-0.2-0.1-0.2-0.2c-0.1,0-0.1-0.1-0.2-0.1
		c0-0.1-0.1-0.1-0.1-0.2c0-0.1,0-0.2,0.1-0.2c0.1-0.1,0.2-0.1,0.3-0.2l0.3,0c0.3,0,0.5,0,0.8,0.1c0.3,0,0.6,0.1,0.9,0.2
		c0.3,0.1,0.6,0.2,0.8,0.3c0.3,0.1,0.6,0.2,0.8,0.4c0.1,0.1,0.1,0.1,0.2,0.1c0.1,0,0.1,0.1,0.1,0.1c0.1,0.1,0.1,0.1,0.1,0.1
		c0,0,0.1,0,0.1,0.1c0,0.1,0.1,0.1,0.1,0.2c0,0.1,0,0.1,0,0.2c0,0.1,0,0.3,0,0.3c0,0.1,0,0.2-0.1,0.2c0,0.1-0.1,0.1-0.1,0.2
		s0,0.1,0,0.2L123.7,22.9L123.7,22.9z"/>
	
		<linearGradient id="SVGID_5_" gradientUnits="userSpaceOnUse" x1="152.2889" y1="584.4691" x2="247.7912" y2="604.9696" gradientTransform="matrix(1 0 0 1 -97.6001 -587.3232)">
		<stop  offset="0" style="stop-color:#2E2E2E"/>
		<stop  offset="1" style="stop-color:#000000"/>
	</linearGradient>
	<path class="st4" d="M133.3,7.8c0.2,0,0.3,0,0.5,0c0.1,0,0.3,0,0.5,0c0.1,0,0.2,0.1,0.4,0.1S134.8,8,135,8c0.1,0.1,0.2,0.1,0.3,0.2
		c0.1,0.1,0.2,0.1,0.3,0.2c0.1,0.1,0.1,0.2,0.2,0.3c0,0.1,0.1,0.2,0.1,0.3c0,0.1,0,0.2,0,0.2c0,0.1-0.1,0.2-0.1,0.2
		c0.6,0.1,1.1,0.3,1.6,0.6c0.5,0.3,1,0.6,1.4,1c0.5,0.6,0.9,1.1,1.1,1.7c0.3,0.6,0.4,1.1,0.4,1.7c0,0.7-0.1,1.3-0.4,2
		s-0.7,1.2-1.3,1.7c-0.5,0.5-1.2,0.9-1.9,1.2c-0.7,0.3-1.5,0.4-2.3,0.4c-0.9,0-1.6-0.1-2.3-0.4c-0.7-0.3-1.3-0.6-1.8-1.2
		c-0.6-0.5-1-1.1-1.3-1.7c-0.3-0.6-0.4-1.3-0.4-2c0-0.6,0.1-1.1,0.3-1.7c0.2-0.5,0.6-1.1,1.1-1.6h0c0.4-0.4,0.8-0.8,1.3-1.1
		c0.5-0.3,1.1-0.5,1.7-0.7l0.3-0.1c0,0,0.1-0.1,0.1-0.1c0,0,0,0,0.1-0.1c0,0,0-0.1,0-0.1c0,0,0,0,0-0.1c0,0,0-0.1,0-0.1
		c0,0-0.1,0-0.1,0c0,0,0,0,0,0c0,0,0,0,0,0c0,0,0,0,0,0c-0.1,0-0.1,0-0.1-0.1c0,0-0.1-0.1-0.1-0.1c0,0-0.1-0.1-0.1-0.1
		c0,0,0-0.1,0-0.1s0-0.1,0-0.1c0,0,0-0.1,0.1-0.1c0,0,0.1,0,0.2-0.1C133,7.9,133.2,7.9,133.3,7.8z M137.6,14.4c0-0.5-0.1-1-0.3-1.4
		c-0.2-0.4-0.4-0.8-0.8-1.2c-0.4-0.4-0.8-0.6-1.2-0.8c-0.4-0.2-0.8-0.3-1.2-0.3c-0.4,0-0.9,0.1-1.2,0.3c-0.4,0.2-0.8,0.5-1.1,0.8
		c-0.3,0.4-0.6,0.8-0.8,1.2c-0.2,0.4-0.2,0.9-0.2,1.4c0,0.6,0.1,1.1,0.2,1.6c0.2,0.5,0.4,0.9,0.8,1.2h0c0.4,0.4,0.8,0.6,1.2,0.8
		c0.4,0.2,0.8,0.3,1.3,0.3c0.4,0,0.8-0.1,1.2-0.3c0.4-0.2,0.8-0.4,1.2-0.8c0.3-0.3,0.6-0.8,0.8-1.2C137.5,15.6,137.6,15,137.6,14.4z
		 M146.4,22.9c0,0.3,0,0.5,0,0.8c0,0.3,0,0.6-0.1,0.9c0,0.4-0.1,0.7-0.1,1c-0.1,0.3-0.1,0.6-0.1,0.8c-0.1,0.3-0.2,0.5-0.3,0.8
		c-0.1,0.3-0.2,0.5-0.2,0.7c-0.1,0.2-0.2,0.4-0.3,0.5c-0.1,0.1-0.2,0.2-0.3,0.2c-0.1,0-0.2,0-0.2-0.1c-0.1,0-0.1-0.1-0.1-0.2
		c-0.1-0.1-0.1-0.2-0.2-0.2s-0.1-0.2-0.1-0.3c0-0.1-0.1-0.3-0.1-0.4c0-0.1,0-0.3,0-0.4c0-0.2-0.1-0.3-0.1-0.4c0-0.1,0-0.3,0-0.4V6.9
		c0,0,0,0,0-0.1c0,0,0-0.1,0-0.1V6.5c0-0.1,0-0.1,0-0.2S144,6.2,144,6.2c-0.1-0.1-0.2-0.1-0.3-0.2c-0.1-0.1-0.1-0.1-0.2-0.2
		c-0.1-0.1-0.1-0.1-0.2-0.2c-0.1-0.1-0.1-0.1-0.2-0.2c-0.1,0-0.2-0.1-0.2-0.1c-0.1,0-0.1-0.1-0.2-0.1c-0.1,0-0.1,0-0.1-0.1
		c0,0-0.1-0.1-0.1-0.1c0,0-0.1,0-0.1-0.1c0,0-0.1,0-0.1-0.1c0,0-0.1,0-0.1-0.1c0,0-0.1-0.1-0.1-0.1c-0.1,0-0.2-0.1-0.2-0.1
		c0-0.1-0.1-0.1-0.1-0.2c0-0.1,0-0.2,0.1-0.2s0.2-0.1,0.3-0.1l0.3,0c0.2,0,0.5,0,0.8,0.1c0.3,0,0.6,0.1,0.9,0.2
		c0.3,0.1,0.6,0.2,0.9,0.3c0.3,0.1,0.6,0.3,0.9,0.4c0.1,0.1,0.2,0.2,0.3,0.2c0.1,0.1,0.1,0.1,0.2,0.2c0,0.1,0,0.1,0.1,0.2
		c0,0.1,0,0.1,0,0.2c0,0.1,0,0.3,0,0.3c0,0.1,0,0.2-0.1,0.2c0,0.1-0.1,0.1-0.1,0.2s0,0.1,0,0.2L146.4,22.9L146.4,22.9L146.4,22.9z"
		/>
</g>
<linearGradient id="SVGID_6_" gradientUnits="userSpaceOnUse" x1="5.9971" y1="12.9892" x2="27.9925" y2="19.4091">
	<stop  offset="0" style="stop-color:#356C8E"/>
	<stop  offset="1" style="stop-color:#AA4114"/>
</linearGradient>
<path class="st5" d="M28.9,15.9C28.7,9.8,23.6,4.9,17.5,4.9S6.2,9.8,6,15.9h0v0.8h0c0.2,6.1,5.3,11.1,11.4,11.1s11.2-4.9,11.4-11.1
	h0L28.9,15.9L28.9,15.9z M24.4,24.4c-0.9,0.7-1.8,1.4-2.9,1.8v-9.5h2.9V24.4z M17.1,23.3H9.4c-0.7-0.9-1.4-1.8-1.8-2.9h9.5V23.3z
	 M17.1,24.1V27c-2.7-0.1-5.1-1.2-6.9-2.9H17.1z M17.9,16.7h2.9v9.8c-0.9,0.3-1.9,0.5-2.9,0.5V16.7z M17.9,15.9V13h9.8
	c0.3,0.9,0.5,1.9,0.5,2.9H17.9z M10.5,8.3c0.9-0.7,1.8-1.4,2.9-1.8v9.5h-2.9V8.3z M14.2,6.2c0.9-0.3,1.9-0.5,2.9-0.5v10.3h-2.9V6.2z
	 M17.9,9.4h7.7c0.7,0.9,1.4,1.8,1.8,2.9h-9.5V9.4z M17.9,8.6V5.7c2.7,0.1,5.1,1.2,6.9,2.9H17.9z M9.7,9v6.9H6.8
	C6.9,13.3,8,10.9,9.7,9z M17.1,16.7v2.9H7.3c-0.3-0.9-0.5-1.9-0.5-2.9H17.1z M25.2,23.6v-6.9h2.9C28,19.4,26.9,21.8,25.2,23.6z"/>
</svg>
